<svg enable-background="new 0 0 60 60" viewBox="0 0 60 60" xmlns="http://www.w3.org/2000/svg"><path d="m1 4.5h55v42h-55z" fill="#ecf0f1"/><path d="m57 47.5h-57v-44h57zm-55-2h53v-40h-53z" fill="#545e73"/><path d="m5 8.5h47v34h-47z" fill="#545e73"/><path d="m53 43.5h-49v-36h49zm-47-2h45v-32h-45z" fill="#ecf0f1"/><circle cx="15" cy="17.069" fill="#f3d55a" r="4.569"/><path d="m51 32.611-1-1.111-12-11-10.5 11.5 5.483 5.483 4.017 4.017h14z" fill="#11a085"/><path d="m6 41.5h31l-4.017-4.017-10.966-10.966-16.017 13.983z" fill="#26b999"/><circle cx="48" cy="44.5" fill="#71c386" r="12"/><path d="m54 43.5h-5v-5c0-.552-.448-1-1-1s-1 .448-1 1v5h-5c-.552 0-1 .448-1 1s.448 1 1 1h5v5c0 .552.448 1 1 1s1-.448 1-1v-5h5c.552 0 1-.448 1-1s-.448-1-1-1z" fill="#fff"/></svg>