<svg enable-background="new 0 0 508.609 508.609" viewBox="0 0 508.609 508.609" xmlns="http://www.w3.org/2000/svg"><circle cx="150.887" cy="200.053" fill="#eeb490" r="39.672"/><circle cx="357.722" cy="200.053" fill="#eeb490" r="39.672"/><path d="m463.513 508.609h-418.416v-74.935c0-34.925 26.109-64.085 60.355-68.493l92.228-36.62h113.25l92.228 36.62c34.585 4.069 60.355 33.568 60.355 68.493z" fill="#9d90c5"/><path d="m178.013 348.567v33.568c0 42.723 34.924 78.665 77.648 77.987 41.367-.678 74.596-34.585 74.596-76.291v-35.264c0-12.207-9.833-22.04-22.04-22.04h-108.503c-11.868.339-21.701 10.172-21.701 22.04z" fill="#8075af"/><path d="m202.087 300.419v55.608c0 28.821 23.396 52.217 52.217 52.217s52.217-23.396 52.217-52.217v-55.608z" fill="#eeb490"/><path d="m306.861 94.601h-105.113c-24.752 0-44.758 20.005-44.758 44.758v100.705c0 53.913 43.74 97.314 97.314 97.314 53.913 0 97.314-43.74 97.314-97.314v-100.705c.001-24.752-20.005-44.758-44.757-44.758z" fill="#faccb4"/><g fill="#56545f"><path d="m351.619 52.895s74.935 9.833 0 151.226v-57.981s-5.425-41.706-30.856-44.079z"/><path d="m300.758 0h-92.906c-3.73 0-7.46.339-10.85 1.017-140.376 0-40.011 210.225-40.011 210.225 0-81.038 50.861-81.377 50.861-81.377h93.245c35.942 0 64.763-29.16 64.763-64.763 0-35.942-29.161-65.102-65.102-65.102z"/></g></svg>