<svg enable-background="new 0 0 496.159 496.159" viewBox="0 0 496.159 496.159" xmlns="http://www.w3.org/2000/svg"><path d="m248.083.003c-137.012 0-248.083 111.06-248.083 248.082 0 137.001 111.07 248.07 248.083 248.07 137.006 0 248.076-111.069 248.076-248.07 0-137.023-111.07-248.082-248.076-248.082z" fill="#d61e1e"/><path d="m248.082 39.002c-115.473 0-209.082 93.6-209.082 209.082 0 115.463 93.609 209.072 209.082 209.072 115.468 0 209.077-93.609 209.077-209.072 0-115.482-93.609-209.082-209.077-209.082z" fill="#f4eded"/><path d="m386.979 180.867c-1.495-9.986-59.138-26.916-64.146-34.079-5.008-7.16-10.809-46.878-16.081-48.199-5.272-1.317-14.499 46.132-20.001 58.225-3.88 8.521-26.566 42.209-30.581 47.637 0 0-97.042 8.154-102.409 5.806-5.364-2.354-38.13-49.713-44.1-46.111-5.97 3.604 30.024 67.576 30.024 67.576s8.615 34.928 7.58 56.673c-.494 10.381-10.031 31.471-9.042 40.861 1.313 12.447 2.72 48.191 5.747 50.747 3.028 2.555 15.507 1.645 17.3 0 1.795-1.646 1.152-46.794 1.152-46.794s19.772-42.838 32.954-49.429c13.182-6.589 81.723 3.297 86.003 9.561 4.283 6.261 12.852 80.649 14.829 82.709s15.324 2.636 17.919.582c2.599-2.053 2.006-126.289 2.006-126.289 2.362-4.979 13.457-43.112 16.722-43.417 4.357-.408 20.031 5.02 34.079 4.013 14.044-1.01 21.539-20.079 20.045-30.072z" fill="#5b5147"/><path d="m85.851 60.394c-9.086 7.86-17.596 16.37-25.457 25.456l349.914 349.914c9.086-7.861 17.596-16.37 25.456-25.456z" fill="#d61e1e"/></svg>