<svg enable-background="new 0 0 512 512" height="64" viewBox="0 0 64 64" width="64" xmlns="http://www.w3.org/2000/svg"><path d="m51.288 35.673c-1.565-2.244-3.987-3.737-7.269-4.481 2.616-1.051 4.551-2.615 5.808-4.692 1.257-2.078 1.884-4.449 1.884-7.116 0-5.102-1.949-8.943-5.846-11.519s-9.321-3.865-16.269-3.865h-19.231v56h22c6.847 0 12.103-1.397 15.77-4.192 3.666-2.794 5.499-6.923 5.499-12.384 0-2.923-.783-5.506-2.346-7.75zm-27.884-21.673h6.193c3.077 0 5.359.545 6.847 1.635 1.487 1.09 2.23 2.827 2.23 5.212 0 2.103-.731 3.699-2.193 4.788-1.462 1.09-3.667 1.661-6.616 1.712h-6.461zm15.192 34.365c-1.385 1.09-3.462 1.635-6.231 1.635h-8.961v-14.038h9.693c2.666 0 4.596.622 5.788 1.865 1.193 1.244 1.789 3.084 1.789 5.52 0 2.256-.693 3.929-2.077 5.019z" stroke-width=".109"/></svg>