<svg enable-background="new 0 0 502 502" viewBox="0 0 502 502" xmlns="http://www.w3.org/2000/svg"><path d="m390.089 126.779h-86.474v-46.311l-70.467-70.468h-191.704v365.221h156.941v116.779h262.171v-294.753z" fill="#d1dceb"/><path d="m233.148 80.468v-70.468l70.467 70.468z" fill="#4ec9dc"/><path d="m390.089 197.247v-70.468l70.467 70.468z" fill="#4ec9dc"/><path d="m467.628 190.176-70.469-70.468c-1.876-1.875-4.419-2.929-7.071-2.929h-76.473v-36.311c0-2.652-1.054-5.196-2.929-7.071l-70.467-70.468c-1.877-1.875-4.42-2.929-7.073-2.929h-191.702c-5.522 0-10 4.477-10 10v365.221c0 5.523 4.478 10 10 10h146.941v106.779c0 5.523 4.478 10 10 10h262.172c5.522 0 10-4.477 10-10v-294.753c0-2.652-1.054-5.196-2.929-7.071zm-31.214-2.929h-36.326v-36.326l18.163 18.163zm-156.941-116.779h-36.326v-36.326l18.163 18.163zm-192.187 46.311c-5.522 0-10 4.477-10 10s4.478 10 10 10h101.099v29.919h-101.099c-5.522 0-10 4.477-10 10s4.478 10 10 10h101.099v30.01h-101.099c-5.522 0-10 4.477-10 10s4.478 10 10 10h101.099v30.009h-101.099c-5.522 0-10 4.477-10 10s4.478 10 10 10h101.099v78.504h-136.941v-345.221h171.703v60.468c0 5.523 4.478 10 10 10h60.469v26.311c-.001 0-206.33 0-206.33 0zm292.803 20v60.468c0 5.523 4.478 10 10 10h60.469v274.753h-242.173v-345.221z"/><path d="m244.229 253.468h125.401c5.522 0 10-4.477 10-10s-4.478-10-10-10h-125.401c-5.522 0-10 4.477-10 10s4.477 10 10 10z"/><path d="m414.714 283.478h-170.485c-5.522 0-10 4.477-10 10s4.478 10 10 10h170.486c5.522 0 10-4.477 10-10s-4.479-10-10.001-10z"/><path d="m414.714 333.487h-170.485c-5.522 0-10 4.477-10 10s4.478 10 10 10h170.486c5.522 0 10-4.477 10-10s-4.479-10-10.001-10z"/><path d="m414.714 383.497h-170.485c-5.522 0-10 4.477-10 10s4.478 10 10 10h170.486c5.522 0 10-4.477 10-10s-4.479-10-10.001-10z"/><path d="m414.714 233.468h-16.67c-5.522 0-10 4.477-10 10s4.478 10 10 10h16.67c5.522 0 10-4.477 10-10s-4.478-10-10-10z"/></svg>