<svg height="48" viewBox="0 0 48 48" width="48" xmlns="http://www.w3.org/2000/svg"><g stroke-width="1.043"><g fill="#444"><path d="m7.301 27.118h-6.258c-.577 0-1.043-.466-1.043-1.043s.466-1.043 1.043-1.043h6.258c.577 0 1.043.466 1.043 1.043s-.466 1.043-1.043 1.043z"/><path d="m11.666 14.8c-.267 0-.535-.102-.738-.306l-4.365-4.37c-.407-.409-.407-1.068.001-1.476.408-.406 1.068-.407 1.476.001l4.365 4.37c.407.409.407 1.068-.001 1.476-.204.203-.471.305-.737.305z"/><path d="m36.312 14.8c-.267 0-.534-.102-.737-.305-.408-.408-.408-1.067-.001-1.476l4.365-4.37c.408-.408 1.068-.407 1.476-.001.408.408.408 1.067.001 1.476l-4.365 4.37c-.203.204-.471.306-.738.306z"/><path d="m7.301 45.892c-.267 0-.535-.102-.738-.306-.407-.409-.407-1.068.001-1.476l4.369-4.364c.408-.406 1.068-.407 1.476.001.407.409.407 1.068-.001 1.476l-4.369 4.364c-.203.202-.47.305-.737.305z"/><path d="m40.677 45.892c-.267 0-.534-.102-.737-.305l-4.369-4.364c-.408-.408-.408-1.067-.001-1.476.408-.408 1.068-.407 1.476-.001l4.369 4.364c.408.408.408 1.067.001 1.476-.203.203-.471.306-.738.306z"/><path d="m46.935 27.118h-6.258c-.577 0-1.043-.466-1.043-1.043s.466-1.043 1.043-1.043h6.258c.577 0 1.043.466 1.043 1.043s-.466 1.043-1.043 1.043z"/></g><path d="m32.671 8.923c-.171-.113-.37-.173-.576-.173-.001 0-.001 0-.002 0l-16.252.025c-.204 0-.406.062-.576.174-5.555 3.697-9.007 10.658-9.007 18.169 0 11.502 7.954 20.86 17.731 20.86s17.731-9.358 17.731-20.86c0-7.534-3.467-14.505-9.049-18.195z" fill="#e86c60"/><g fill="#444"><path d="m35.156.306c-.408-.408-1.067-.408-1.475 0l-3.853 3.853c-1.615-1.296-3.649-2.072-5.84-2.072s-4.225.776-5.84 2.072l-3.853-3.853c-.408-.408-1.067-.408-1.475 0s-.408 1.067 0 1.475l3.848 3.848c-1.036 1.296-1.741 2.876-1.972 4.616-.022.163-.004.33.051.486.297.843 5.275 3.872 9.241 3.872s8.944-3.029 9.241-3.872c.055-.155.072-.323.051-.486-.233-1.741-.937-3.32-1.972-4.616l3.848-3.848c.408-.408.408-1.067 0-1.475z"/><path d="m23.989 47.978c.353 0 .696-.039 1.043-.063v-34.356c0-.577-.466-1.043-1.043-1.043s-1.043.466-1.043 1.043v34.356c.347.024.69.063 1.043.063z"/><circle cx="14.602" cy="22.946" r="3.129"/><circle cx="17.21" cy="34.941" r="2.608"/><circle cx="33.376" cy="22.946" r="3.129"/><circle cx="30.769" cy="34.941" r="2.608"/></g></g></svg>