<svg enable-background="new 0 0 511.999 511.999" height="48" viewBox="0 0 48 48" width="48" xmlns="http://www.w3.org/2000/svg"><circle cx="24" cy="24" fill="#e21b1b" r="24" stroke-width=".094"/><path d="m13.817 10.051a1.872 1.872 0 0 0 -1.263.547l-1.956 1.958a1.872 1.872 0 0 0 0 2.647l8.786 8.786-8.786 8.788a1.872 1.872 0 0 0 0 2.647l1.958 1.956a1.872 1.872 0 0 0 2.647 0l8.786-8.786 8.786 8.786a1.872 1.872 0 0 0 2.647 0l1.958-1.956a1.872 1.872 0 0 0 0-2.647l-8.788-8.788 8.788-8.786a1.872 1.872 0 0 0 0-2.647l-1.958-1.958a1.872 1.872 0 0 0 -2.647 0l-8.786 8.788-8.788-8.788a1.872 1.872 0 0 0 -1.384-.547z" fill="#fff" stroke-width=".116"/></svg>