<svg height="24" width="24" xmlns="http://www.w3.org/2000/svg"><g stroke-width="1.091"><path d="m6.546 6.001c-3.616 0-6.546 2.837-6.546 6.546 0 3.6 2.93 6.546 6.546 6.546h5.455 5.455c3.616 0 6.546-2.946 6.546-6.546 0-3.709-2.93-6.546-6.546-6.546h-5.455z" fill="#95a5a6"/><path d="m6.546 4.91c-3.616 0-6.546 2.837-6.546 6.546 0 3.6 2.93 6.546 6.546 6.546h5.455 5.455c3.616 0 6.546-2.946 6.546-6.546 0-3.709-2.93-6.546-6.546-6.546h-5.455z" fill="#bdc3c7"/><path d="m6.546 7.092c-2.41 0-4.364 1.964-4.364 4.364s1.954 4.364 4.364 4.364h5.455 5.455c2.41 0 4.364-1.964 4.364-4.364s-1.954-4.364-4.364-4.364h-5.455z" fill="#e74c3c"/><path d="m6.546 7.092c-2.41 0-4.364 1.964-4.364 4.364 0 .109.046.327.069.546.269-2.182 2.071-3.819 4.295-3.819h5.455 5.455c2.225 0 4.026 1.637 4.296 3.819.022-.218.068-.436.068-.546 0-2.4-1.954-4.364-4.364-4.364h-5.455z" fill="#c0392b"/><path d="m12.026 10.692-.025 1.309c-.044 2.073 1.71 3.819 3.819 3.819h1.637c2.41 0 4.364-1.964 4.364-4.364 0-.436-.081-.764-.17-1.091z" fill="#7f8c8d"/><path d="m15.82 7.092c-2.109 0-3.819 1.637-3.819 3.819 0 2.073 1.71 3.819 3.819 3.819h2.182c2.109 0 3.819-1.746 3.819-3.819 0-2.182-1.71-3.819-3.819-3.819z" fill="#ecf0f1"/><g fill="#bdc3c7"><path d="m14.729 8.183c-.301 0-.546.109-.546.436v3.491c0 .218.244.436.546.436s.546-.218.546-.436v-3.491c0-.327-.244-.436-.546-.436z"/><path d="m16.911 8.183c-.301 0-.546.109-.546.436v3.491c0 .218.244.436.546.436s.546-.218.546-.436v-3.491c0-.327-.244-.436-.546-.436z"/><path d="m19.093 8.183c-.301 0-.546.109-.546.436v3.491c0 .218.244.436.546.436s.546-.218.546-.436v-3.491c0-.327-.244-.436-.546-.436z"/></g></g></svg>