<svg enable-background="new 0 0 512 512" height="64" viewBox="0 0 64 64" width="64" xmlns="http://www.w3.org/2000/svg"><g stroke-width=".109"><path d="m47.438 43.986h10.356v10.356h-10.356z" fill="#d4145a"/><path d="m37.082 43.986h10.356v10.356h-10.356z" fill="#d4145a"/><path d="m26.726 43.986h10.356v10.356h-10.356z" fill="#9e005d"/><path d="m16.37 43.986h10.356v10.356h-10.356z" fill="#93278f"/><path d="m6.014 43.986h10.356v10.356h-10.356z" fill="#662d91"/><path d="m47.438 33.63h10.356v10.356h-10.356z" fill="#0087ce"/><path d="m37.082 33.63h10.356v10.356h-10.356z" fill="#008fd0"/><path d="m26.726 33.63h10.356v10.356h-10.356z" fill="#0098d2"/><path d="m16.37 33.63h10.356v10.356h-10.356z" fill="#00a4d4"/><path d="m6.014 33.63h10.356v10.356h-10.356z" fill="#00b4d7"/><path d="m47.438 23.274h10.356v10.356h-10.356z" fill="#595e62"/><path d="m37.082 23.274h10.356v10.356h-10.356z" fill="#7e8488"/><path d="m26.726 23.274h10.356v10.356h-10.356z" fill="#afb6bb"/><path d="m16.37 23.274h10.356v10.356h-10.356z" fill="#e7eced"/><path d="m6.014 23.274h10.356v10.356h-10.356z" fill="#f1f2f2"/><path d="m47.438 12.918h10.356v10.356h-10.356z" fill="#ffd311"/><path d="m37.082 12.918h10.356v10.356h-10.356z" fill="#fdb51e"/><path d="m37.082 12.918v10.356h-10.356v-10.356h3.452z" fill="#ed1c24"/><path d="m16.37 12.918h10.356v10.356h-10.356z" fill="#ed1c24"/><path d="m6.014 12.918h10.356v10.356h-10.356z" fill="#c1272d"/><path d="m57.794 54.342v4.603h-51.781v-4.603h10.356 10.356 10.356 10.356z" fill="#364853"/><path d="m30.178 4.863v8.055h-3.452-10.356-10.356v-8.055z" fill="#364853"/><path d="m31.041 12.055v-8.055h-25.89v55.808h53.507v-47.753zm6.904 41.424v-8.63h8.63v8.63zm0-10.356v-8.63h8.63v8.63zm-12.082-18.986v8.63h-8.63v-8.63zm0 10.356v8.63h-8.63v-8.63zm1.726 0h8.63v8.63h-8.63zm10.356-1.726v-8.63h8.63v8.63zm-1.726 0h-8.63v-8.63h8.63zm-10.356-10.356h-8.63v-8.63h8.63zm-8.63 22.438h8.63v8.63h-8.63zm10.356 0h8.63v8.63h-8.63zm18.986-31.068v8.63h-8.63v-8.63zm-10.356 8.63h-8.63v-8.63h8.63zm-29.342-16.685h22.438v6.329h-22.438zm0 8.055h8.63v8.63h-8.63zm0 10.356h8.63v8.63h-8.63zm0 10.356h8.63v8.63h-8.63zm0 10.356h8.63v8.63h-8.63zm50.055 13.233h-50.055v-2.877h50.055zm-8.63-4.603v-8.63h8.63v8.63zm0-10.356v-8.63h8.63v8.63zm0-10.356v-8.63h8.63v8.63zm0-10.356v-8.63h8.63v8.63z"/></g></svg>