<svg enable-background="new 0 0 473.677 473.677" viewBox="0 0 473.677 473.677" xmlns="http://www.w3.org/2000/svg"><path d="m473.677 236.842c0-130.814-106.036-236.838-236.835-236.838-130.806 0-236.842 106.028-236.842 236.838 0 130.795 106.036 236.831 236.842 236.831 130.799 0 236.835-106.036 236.835-236.831z" fill="#344e5d"/><g fill="#fff"><path d="m414.449 297.547c-17.243-27.052-34.494-54.108-51.741-81.156-2.909-4.57-9.218-4.458-12.12.045-17.374 26.966-34.756 53.936-52.133 80.902-1.881 2.917-1.245 5.733.52 7.681 1.092 1.653 2.909 2.831 5.505 2.838 9.151.022 18.301.045 27.448.067-42.22 67.081-144.695 73.228-192.797 4.342-15.407-22.06-51.86-.995-36.293 21.304 33.963 48.633 89.746 76.474 149.359 69.65 57.361-6.57 103.657-43.663 126.644-95.18 9.835.026 19.674.049 29.513.075 5.183.011 9.012-5.995 6.095-10.568z"/><path d="m370.457 138.899c-33.97-48.633-89.75-76.478-149.366-69.65-57.933 6.63-104.547 44.43-127.288 96.761-12.232-.03-24.476-.06-36.708-.09-5.187-.015-9.02 5.987-6.099 10.561 17.243 27.052 34.49 54.108 51.733 81.16 2.913 4.566 9.218 4.454 12.124-.045 17.374-26.97 34.759-53.936 52.133-80.902 1.877-2.917 1.245-5.729-.512-7.677-1.092-1.653-2.909-2.835-5.508-2.842-6.847-.015-13.694-.034-20.545-.049 41.599-68.55 145.267-75.322 193.744-5.92 15.407 22.053 51.864.988 36.292-21.307z"/></g></svg>