<svg enable-background="new 0 0 503.82 503.82" height="64" viewBox="0 0 64 64" width="64" xmlns="http://www.w3.org/2000/svg"><path d="m22.707 51.643 12.199-8.167" fill="#b6b6b6"/><path d="m58.581 13.081-56.655 11.682 17.679 9.305 39.803-20.367c-.414-.103-.62-.31-.827-.62" fill="#fff"/><g fill="#4d4d4d" stroke="#4d4d4d" stroke-linecap="round" stroke-linejoin="round" stroke-width="1.946"><path d="m47.496 52.652c-.206 0-.414-.103-.517-.206l-20.667-13.433c-.31-.103-.517-.414-.517-.827 0-.31.103-.62.414-.827l24.8-18.186-30.897 15.81c-.31.103-.62.103-.93 0l-17.67-9.3c-.414-.206-.62-.62-.517-1.033 0-.517.31-.827.723-.93l59.934-12.4h.517c.206.103.414.206.62.414v.103c.206.206.206.414.206.62v.206.103l-14.467 39.267c-.103.31-.31.517-.62.62-.206 0-.31 0-.414 0zm-18.806-14.57 18.289 11.883 12.813-34.721zm-23.663-12.917 14.57 7.75 35.133-17.98z"/><path d="m22.696 52.652c-.31 0-.62-.206-.827-.414-.31-.517-.206-1.136.31-1.447l12.194-8.163c.517-.31 1.136-.206 1.447.31s.206 1.136-.31 1.447l-12.194 8.163c-.206 0-.414.103-.62.103z"/><path d="m22.799 52.652c-.103 0-.103 0 0 0-.517 0-.93-.414-1.033-.827l-3.203-17.567c-.103-.414.103-.93.517-1.136l42.366-21.7c.517-.206 1.033-.103 1.344.414.31.414.206 1.033-.31 1.344l-34.72 25.627-4.03 13.124c-.103.414-.517.723-.93.723zm-2.067-17.98 2.273 12.606 2.79-9.3c.103-.206.206-.414.414-.517l24.8-18.186z"/></g><g fill="#fff"><path d="m29.289 38.882 17.69 11.083 12.813-33.72z"/><path d="m4.326 24.865 15.269 8.051 35.633-19.18"/><path d="m20.732 34.671 2.273 12.606 2.79-9.3c.103-.206.206-.414.414-.517l33.171-23.766z"/><path d="m24.654 49.748 3.11-9.171 5.042 3.467z"/></g></svg>