<svg enable-background="new 0 0 48 48" viewBox="0 0 48 48" xmlns="http://www.w3.org/2000/svg"><g stroke-width="1.148"><path d="m41.844 26.518c.115-.804.23-1.607.23-2.526s-.115-1.722-.23-2.526l5.166-3.674c.459-.344.689-1.033.344-1.607l-5.051-8.495c-.344-.574-.918-.804-1.492-.459l-5.74 2.64c-1.378-1.033-2.755-1.837-4.362-2.526l-.574-6.314c-.115-.574-.574-1.033-1.148-1.033h-9.873c-.574 0-1.148.459-1.148 1.033l-.574 6.314c-1.607.689-3.1 1.492-4.362 2.526l-5.74-2.64c-.574-.23-1.263 0-1.492.459l-4.936 8.495c-.344.574-.115 1.263.344 1.607l5.166 3.674c-.115.804-.23 1.607-.23 2.526s.115 1.722.23 2.526l-5.396 3.674c-.459.344-.689 1.033-.344 1.607l4.936 8.495c.344.574.918.804 1.492.459l5.74-2.64c1.378 1.033 2.755 1.837 4.362 2.526l.574 6.314c.115.574.574 1.033 1.148 1.033h9.873c.574 0 1.148-.459 1.148-1.033l.574-6.314c1.607-.689 3.1-1.492 4.362-2.526l5.74 2.64c.574.23 1.263 0 1.492-.459l4.936-8.495c.344-.574.115-1.263-.344-1.607zm-17.909 8.954c-6.314 0-11.48-5.166-11.48-11.48s5.166-11.48 11.48-11.48 11.48 5.166 11.48 11.48-5.166 11.48-11.48 11.48z" fill="#607d8b"/><path d="m23.935 10.216c-7.577 0-13.776 6.199-13.776 13.776s6.199 13.776 13.776 13.776 13.776-6.199 13.776-13.776-6.199-13.776-13.776-13.776zm0 19.516c-3.214 0-5.74-2.526-5.74-5.74s2.526-5.74 5.74-5.74 5.74 2.526 5.74 5.74-2.526 5.74-5.74 5.74z" fill="#455a64"/></g></svg>