<svg xmlns="http://www.w3.org/2000/svg" width="64" height="64"><path d="M26.154 0a7.06 7.06 0 0 0-1.365.129c-12.147 0-9.968 12.508-7.422 20.322a4.992 4.992 0 0 0 1.619 9.715 4.992 4.992 0 0 0 .768-.062v.105c0 4.352 2.272 8.15 5.676 10.32v.56h-.3a2.82 2.82 0 0 0-2.02.955L13.27 45.95c-4.31.555-7.596 4.224-7.596 8.62V64h52.652v-9.43c0-4.395-3.244-8.107-7.596-8.62l-9.875-3.92c-.508-.575-1.242-.943-2.072-.943h-.213v-.56c3.413-2.178 5.676-5.988 5.676-10.32v-.104a4.992 4.992 0 0 0 5.76-4.932 4.992 4.992 0 0 0-3.33-4.707c3.373-8.557 1.168-11.838-.68-13.074C45.593 3.245 42.098 0 37.846 0z"/></svg>