<svg xmlns="http://www.w3.org/2000/svg" enable-background="new 0 0 512 512" viewBox="0 0 512 512"><path d="m477.867 255.893c0 136.533-98.987 247.467-221.867 247.467s-221.867-110.933-221.867-247.467 98.987-247.466 221.867-247.466 221.867 110.933 221.867 247.466"/><path fill="#e0e0e0" d="m199.68 179.093h-70.827c-10.24 0-17.92 7.68-17.92 17.92v109.227c0 10.24 7.68 17.92 17.92 17.92h70.827c3.413 0 5.973.853 9.387 2.56l113.493 105.813c11.947 6.827 27.307-1.707 27.307-15.36v-331.093c0-13.653-15.36-22.187-27.307-15.36l-113.493 105.813c-2.56 1.707-5.974 2.56-9.387 2.56"/><path fill="#f0f0f0" d="m199.68 179.093h-70.827c-10.24 0-17.92 7.68-17.92 17.92v109.227c0 10.24 7.68 17.92 17.92 17.92h70.827c3.413 0 5.973.853 9.387-8.533l98.133 105.813c11.947 17.92 17.067 9.387 17.067-4.267v-331.093c0-13.653-5.12-7.68-17.067-.853l-98.133 91.307c-2.56 1.706-5.974 2.559-9.387 2.559"/><path fill="#333" d="m331.947 443.627c-4.267 0-9.387-.853-13.653-3.413-.853 0-.853-.853-1.707-.853l-112.64-105.813c-.853-.853-2.56-.853-4.267-.853h-70.827c-14.507 0-26.453-11.947-26.453-26.453v-109.229c0-14.507 11.947-26.453 26.453-26.453h70.827c1.707 0 2.56 0 4.267-.853l112.64-104.96c.853 0 .853-.853 1.707-.853 8.533-5.12 17.92-5.12 26.453 0 8.533 4.267 13.653 12.8 13.653 22.187v331.093c0 9.387-5.12 17.92-13.653 23.04-3.414 2.559-8.534 3.413-12.8 3.413zm-4.267-17.92c4.267 1.707 7.68.853 8.533 0 1.707-.853 5.12-3.413 5.12-8.533v-331.094c0-5.12-3.413-7.68-5.12-8.533s-5.12-2.56-8.533 0l-112.64 104.96c-.853 0-.853.853-1.707.853-4.267 2.56-8.533 3.413-13.653 3.413h-70.827c-5.12 0-9.387 4.267-9.387 9.387v109.227c0 5.12 4.267 9.387 9.387 9.387h70.827c5.12 0 9.387.853 13.653 3.413.853 0 .853.853 1.707.853z"/><g fill="red"><path d="m256 511.893c-65.707 0-131.413-24.747-180.907-75.093-48.64-48.64-75.093-112.64-75.093-180.907s26.453-132.266 75.093-180.906c99.84-99.84 261.973-99.84 361.813 0 48.641 48.64 75.094 112.64 75.094 180.906s-26.453 132.267-75.093 180.907c-49.494 50.347-115.2 75.093-180.907 75.093zm0-494.933c-61.44 0-122.027 23.04-168.96 69.973-45.227 45.227-69.973 104.96-69.973 168.96s24.747 123.733 69.973 168.96c93.013 93.013 244.907 93.013 337.92 0 45.227-45.227 69.973-104.96 69.973-168.96s-24.746-123.733-69.973-168.96c-46.933-46.933-107.52-69.973-168.96-69.973z"/><path d="m81.067 439.36c-2.56 0-4.267-.853-5.973-2.56-3.413-3.413-3.413-8.533 0-11.947l349.866-349.866c3.413-3.413 8.533-3.413 11.947 0 3.413 3.413 3.413 8.533 0 11.947l-349.867 349.866c-1.707 1.707-3.413 2.56-5.973 2.56z"/></g></svg>