<svg enable-background="new 0 0 512 512" viewBox="0 0 512 512" xmlns="http://www.w3.org/2000/svg"><g transform="matrix(16.04 0 0 16.2261 -.6354 45.338)"><g fill="#fff" transform="matrix(.0603 0 0 .0596 .5523 -2.2792)"><path d="m503.467 256c0 136.533-110.933 247.467-247.467 247.467s-247.467-110.934-247.467-247.467 110.934-247.467 247.467-247.467 247.467 110.934 247.467 247.467"/><path d="m477.867 256c0 136.533-98.987 247.467-221.867 247.467s-221.867-110.934-221.867-247.467 98.987-247.467 221.867-247.467 221.867 110.934 221.867 247.467"/><path d="m34.133 256c0-136.533 98.987-247.467 221.867-247.467-136.533 0-247.467 110.934-247.467 247.467s110.934 247.467 247.467 247.467c-122.88 0-221.867-110.934-221.867-247.467"/><path d="m199.68 179.2h-70.827c-10.24 0-17.92 7.68-17.92 17.92v109.227c0 10.24 7.68 17.92 17.92 17.92h70.827c3.413 0 5.973.853 9.387 2.56l113.493 105.813c11.947 6.827 27.307-1.707 27.307-15.36v-331.093c0-13.653-15.36-22.187-27.307-15.36l-113.493 105.813c-2.56 1.707-5.974 2.56-9.387 2.56"/></g><g fill="#393"><path d="m12.6015 8.404h-4.2739c-.6179 0-1.0813.4579-1.0813 1.0683v6.5117c0 .6105.4634 1.0683 1.0813 1.0683h4.2739c.206 0 .3604.0509.5664-.5087l5.9216 6.3082c.7209 1.0683 1.0299.5596 1.0299-.2544v-19.7386c0-.8139-.309-.4579-1.0299-.0509l-5.9216 5.4434c-.1545.1017-.3605.1526-.5664.1526" stroke-width=".06"/><path d="m20.5828 24.1746c-.2575 0-.5664-.0509-.8239-.2035-.0515 0-.0515-.0509-.103-.0509l-6.797-6.3082c-.0515-.0509-.1545-.0509-.2575-.0509h-4.2739c-.8754 0-1.5962-.7122-1.5962-1.577v-6.5118c0-.8649.7209-1.577 1.5962-1.577h4.2739c.103 0 .1545 0 .2575-.0509l6.797-6.2573c.0515 0 .0515-.0509.103-.0509.5149-.3052 1.0813-.3052 1.5962 0 .5149.2544.8239.7631.8239 1.3227v19.7385c0 .5596-.309 1.0683-.8239 1.3736-.206.1526-.515.2035-.7724.2035zm-.2575-1.0683c.2575.1018.4634.0509.5149 0 .103-.0509.309-.2035.309-.5087v-19.7386c0-.3052-.206-.4579-.309-.5087-.103-.0509-.309-.1526-.5149 0l-6.797 6.2573c-.0515 0-.0515.0509-.103.0509-.2575.1526-.5149.2035-.8239.2035h-4.2739c-.309 0-.5664.2544-.5664.5596v6.5117c0 .3052.2575.5596.5664.5596h4.2739c.309 0 .5664.0509.8239.2035.0515 0 .0515.0509.103.0509z" stroke-width=".06"/><path d="m16 28.0096c-8.3655 0-15.2101-6.7622-15.2101-15.027 0-8.2649 6.8445-15.027 15.2101-15.027 8.3655 0 15.2101 6.7622 15.2101 15.027 0 8.2649-6.8445 15.027-15.2101 15.027zm0-29.0522c-7.8078 0-14.196 6.3113-14.196 14.0252s6.3882 14.0252 14.196 14.0252 14.196-6.3113 14.196-14.0252-6.3882-14.0252-14.196-14.0252z" stroke="#393" stroke-width="1.5"/></g></g></svg>