<svg enable-background="new 0 0 512 512" viewBox="0 0 512 512" xmlns="http://www.w3.org/2000/svg"><path d="m512 85.333c0-47.128-38.205-85.333-85.333-85.333h-341.334c-47.128 0-85.333 38.205-85.333 85.333v341.333c0 47.129 38.205 85.334 85.333 85.334h341.333c47.129 0 85.334-38.205 85.334-85.333z" fill="#f8f8f9"/><path d="m426.667 0h-170.667v512h170.667c47.128 0 85.333-38.205 85.333-85.333v-341.334c0-47.128-38.205-85.333-85.333-85.333z" fill="#ededed"/><path d="m184.889 241.778 49.778-199.111h42.666l49.778 199.111v128h-142.222z" fill="#e02753"/><path d="m184.889 241.778 49.778-199.111h42.666l49.778 199.111v128h-142.222z" fill="#e02753"/><path d="m327.111 241.778-49.778-199.111h-21.333v327.111h71.111z" fill="#c5142c"/><path d="m486.45 24.464-230.45 316.869-230.45-316.869c-15.764 15.483-25.55 37.029-25.55 60.869v341.333c0 47.129 38.205 85.334 85.333 85.334h341.333c47.129 0 85.334-38.205 85.334-85.333v-341.334c0-23.84-9.786-45.386-25.55-60.869z" fill="#88888f"/><path d="m184.889 0c0 39.273 31.838 71.111 71.111 71.111s71.111-31.838 71.111-71.111" fill="#e07188"/><path d="m256 0v71.111c39.273 0 71.111-31.838 71.111-71.111z" fill="#e02753"/><path d="m486.45 24.464-230.45 316.869v170.667h170.667c47.128 0 85.333-38.205 85.333-85.333v-341.334c0-23.84-9.786-45.386-25.55-60.869z" fill="#797781"/><g fill="#58575d"><path d="m256 341.333-21.333-29.333v200h42.666v-200z"/><path d="m348.446 448c-7.599 0-14.741-2.958-20.115-8.331-11.09-11.091-11.09-29.136 0-40.226 5.372-5.372 12.516-8.331 20.113-8.331 7.6 0 14.744 2.961 20.117 8.336 11.086 11.086 11.086 29.131-.004 40.222-5.364 5.369-12.509 8.33-20.111 8.33z"/></g></svg>