<svg enable-background="new 0 0 48 48" viewBox="0 0 48 48" xmlns="http://www.w3.org/2000/svg"><path d="m38.374 8.863c-.68-.009-1.359.266-1.841.746a1.072 1.072 0 0 0 -.002 0l-18.561 18.561-6.479-6.478c-.954-.955-2.702-.941-3.641.03l-2.417 2.503a1.072 1.072 0 0 0 -.002.002c-.919.953-.899 2.649.041 3.581l10.702 10.616c.946.938 2.658.936 3.6-.005a1.072 1.072 0 0 0 .002 0l22.781-22.783c.945-.945.945-2.666 0-3.611l-2.416-2.417a1.072 1.072 0 0 0 -.002 0c-.463-.463-1.11-.736-1.764-.746z" fill="#71c837" stroke-width=".863"/></svg>