<svg enable-background="new 0 0 230 230" height="64" viewBox="0 0 64 64" width="64" xmlns="http://www.w3.org/2000/svg"><g stroke-width=".243"><path d="m18.978 43.892c3.304 2.728 7.683 4.091 13.078 4.091 5.335 0 9.642-1.363 12.937-4.091 3.294-2.727 4.934-6.57 4.934-11.526v-28.366h-10.206v28.366c0 2.688-.608 4.669-1.951 5.942-1.344 1.274-3.228 1.911-5.716 1.911-2.508 0-4.45-.642-5.823-1.926s-2.061-3.259-2.061-5.927v-28.366h-10.206v28.366c0 4.957 1.71 8.799 5.015 11.526z"/><path d="m4 51.871h55.89v8.019h-55.89z"/></g></svg>