<svg enable-background="new 0 0 466.008 466.008" viewBox="0 0 466.008 466.008" xmlns="http://www.w3.org/2000/svg"><path d="m397.763 68.245c-44.009-44.009-102.522-68.245-164.759-68.245s-120.75 24.236-164.759 68.245-68.245 102.522-68.245 164.759 24.236 120.75 68.245 164.759 102.521 68.245 164.759 68.245 120.75-24.236 164.759-68.245 68.245-102.521 68.245-164.759-24.236-120.75-68.245-164.759z" fill="#338000"/><path d="m335.984 212.008c-2.322 5.605-7.791 9.26-13.858 9.26h-38.473v127.596c0 8.284-6.716 15-15 15h-71.298c-8.284 0-15-6.716-15-15v-127.596h-38.474c-6.067 0-11.536-3.654-13.858-9.26-2.321-5.605-1.038-12.057 3.252-16.347l89.122-89.123c2.813-2.813 6.628-4.394 10.606-4.394s7.794 1.58 10.606 4.394l89.122 89.123c4.291 4.29 5.575 10.741 3.253 16.347z" fill="#fff"/></svg>