<svg xmlns="http://www.w3.org/2000/svg" xmlns:xlink="http://www.w3.org/1999/xlink" width="16pt" height="16pt" version="1.1" viewBox="0 0 16 16"><defs><linearGradient id="linear0" x1="63.99" x2="63.99" y1="20.242" y2="108.23" gradientTransform="matrix(0.125,0,0,0.125,0,0)" gradientUnits="userSpaceOnUse"><stop offset=".5" style="stop-color:#fee133;stop-opacity:1"/><stop offset=".612" style="stop-color:#fede32;stop-opacity:1"/><stop offset=".708" style="stop-color:#fcd32f;stop-opacity:1"/><stop offset=".797" style="stop-color:#fac12b;stop-opacity:1"/><stop offset=".883" style="stop-color:#f7a924;stop-opacity:1"/><stop offset=".9" style="stop-color:#f6a323;stop-opacity:1"/></linearGradient><linearGradient id="linear1" x1="4.203" x2="123.7" y1="15.125" y2="15.125" gradientTransform="matrix(0.125,0,0,0.125,0,0)" gradientUnits="userSpaceOnUse"><stop offset=".012" style="stop-color:#0846ff;stop-opacity:1"/><stop offset=".478" style="stop-color:#089cff;stop-opacity:1"/><stop offset=".561" style="stop-color:#088aff;stop-opacity:1"/><stop offset=".75" style="stop-color:#0865ff;stop-opacity:1"/><stop offset=".903" style="stop-color:#084eff;stop-opacity:1"/><stop offset="1" style="stop-color:#0846ff;stop-opacity:1"/></linearGradient></defs><g id="surface1"><path style="stroke:none;fill-rule:nonzero;fill:url(#linear0)" d="M 8 15.050781 C 4.507812 15.050781 0.75 12.867188 0.75 8.066406 C 0.75 3.265625 4.507812 1.078125 8 1.078125 C 9.933594 1.078125 11.726562 1.71875 13.042969 2.882812 C 14.484375 4.15625 15.25 5.949219 15.25 8.066406 C 15.25 10.171875 14.484375 11.960938 13.042969 13.238281 C 11.722656 14.410156 9.929688 15.050781 8 15.050781 Z M 8 15.050781"/><path style="stroke:none;fill-rule:nonzero;fill:#eb8f00;fill-opacity:1" d="M 8 1.328125 C 9.871094 1.328125 11.605469 1.949219 12.878906 3.070312 C 14.265625 4.296875 15 6.019531 15 8.066406 C 15 10.097656 14.265625 11.824219 12.878906 13.050781 C 11.601562 14.179688 9.867188 14.800781 8 14.800781 C 6.117188 14.800781 4.386719 14.1875 3.117188 13.074219 C 1.730469 11.855469 1 10.125 1 8.066406 C 1 6 1.730469 4.265625 3.117188 3.046875 C 4.382812 1.9375 6.113281 1.328125 8 1.328125 M 8 0.828125 C 4.105469 0.828125 0.5 3.328125 0.5 8.066406 C 0.5 12.773438 4.105469 15.300781 8 15.300781 C 11.890625 15.300781 15.5 12.710938 15.5 8.066406 C 15.5 3.394531 11.890625 0.828125 8 0.828125 Z M 8 0.828125"/><path style="stroke:none;fill-rule:nonzero;fill:#242424;fill-opacity:1" d="M 3.269531 7.972656 C 3.269531 7.972656 3.289062 8.023438 3.316406 8.121094 C 3.34375 8.214844 3.386719 8.371094 3.453125 8.511719 C 3.507812 8.660156 3.601562 8.847656 3.71875 9.058594 C 3.785156 9.15625 3.847656 9.269531 3.929688 9.375 C 3.96875 9.429688 4.011719 9.484375 4.050781 9.542969 C 4.074219 9.570312 4.09375 9.597656 4.117188 9.628906 C 4.140625 9.65625 4.164062 9.679688 4.1875 9.707031 C 4.238281 9.765625 4.289062 9.820312 4.339844 9.878906 C 4.390625 9.933594 4.449219 9.984375 4.507812 10.042969 C 4.566406 10.09375 4.617188 10.15625 4.683594 10.207031 C 4.746094 10.257812 4.8125 10.3125 4.878906 10.363281 C 4.941406 10.421875 5.015625 10.464844 5.085938 10.515625 C 5.15625 10.5625 5.226562 10.617188 5.304688 10.664062 C 5.457031 10.75 5.609375 10.847656 5.78125 10.921875 C 5.945312 11.007812 6.121094 11.070312 6.296875 11.136719 C 6.386719 11.171875 6.480469 11.191406 6.574219 11.21875 C 6.664062 11.25 6.757812 11.277344 6.851562 11.292969 L 7.136719 11.351562 C 7.234375 11.363281 7.332031 11.375 7.429688 11.390625 C 7.476562 11.394531 7.527344 11.402344 7.574219 11.40625 L 7.722656 11.410156 L 8 11.421875 L 8.324219 11.410156 L 8.484375 11.402344 L 8.625 11.386719 C 8.71875 11.375 8.8125 11.363281 8.90625 11.351562 C 9 11.335938 9.097656 11.3125 9.191406 11.292969 L 9.335938 11.265625 C 9.382812 11.253906 9.425781 11.238281 9.472656 11.226562 C 9.566406 11.199219 9.65625 11.171875 9.75 11.144531 C 9.835938 11.113281 9.925781 11.078125 10.011719 11.046875 L 10.140625 10.996094 L 10.265625 10.933594 C 10.347656 10.894531 10.429688 10.855469 10.511719 10.816406 C 10.589844 10.769531 10.664062 10.722656 10.742188 10.679688 C 10.820312 10.636719 10.890625 10.585938 10.960938 10.535156 C 11.03125 10.484375 11.101562 10.4375 11.167969 10.386719 C 11.292969 10.273438 11.425781 10.175781 11.53125 10.0625 L 11.699219 9.894531 C 11.746094 9.835938 11.796875 9.78125 11.84375 9.726562 C 12.03125 9.5 12.175781 9.273438 12.296875 9.066406 C 12.328125 9.015625 12.355469 8.960938 12.378906 8.910156 C 12.402344 8.859375 12.425781 8.8125 12.449219 8.765625 C 12.496094 8.671875 12.523438 8.582031 12.554688 8.5 C 12.621094 8.339844 12.65625 8.210938 12.679688 8.121094 C 12.707031 8.03125 12.722656 7.984375 12.722656 7.984375 L 12.730469 7.949219 C 12.789062 7.75 12.996094 7.636719 13.191406 7.695312 C 13.378906 7.75 13.488281 7.9375 13.453125 8.121094 C 13.453125 8.121094 13.441406 8.179688 13.421875 8.289062 C 13.402344 8.394531 13.375 8.558594 13.3125 8.753906 C 13.28125 8.851562 13.253906 8.964844 13.203125 9.078125 C 13.179688 9.136719 13.15625 9.195312 13.128906 9.257812 C 13.105469 9.320312 13.078125 9.386719 13.046875 9.449219 C 12.921875 9.707031 12.761719 9.992188 12.542969 10.273438 C 12.488281 10.34375 12.433594 10.417969 12.378906 10.492188 C 12.316406 10.558594 12.253906 10.628906 12.1875 10.699219 C 12.15625 10.734375 12.121094 10.769531 12.089844 10.808594 C 12.054688 10.84375 12.019531 10.875 11.984375 10.90625 C 11.910156 10.972656 11.835938 11.042969 11.761719 11.109375 C 11.679688 11.175781 11.597656 11.238281 11.515625 11.300781 C 11.433594 11.367188 11.347656 11.429688 11.257812 11.484375 C 11.167969 11.542969 11.074219 11.597656 10.980469 11.65625 C 10.886719 11.707031 10.785156 11.757812 10.6875 11.808594 L 10.539062 11.882812 L 10.386719 11.949219 C 10.28125 11.988281 10.175781 12.035156 10.070312 12.074219 C 9.851562 12.136719 9.636719 12.222656 9.40625 12.261719 C 9.292969 12.285156 9.179688 12.308594 9.0625 12.328125 C 8.945312 12.34375 8.824219 12.359375 8.703125 12.375 L 8.523438 12.394531 L 8.363281 12.402344 L 8.039062 12.417969 L 7.933594 12.417969 L 7.84375 12.414062 L 7.492188 12.398438 C 7.433594 12.390625 7.375 12.382812 7.316406 12.375 C 7.203125 12.359375 7.085938 12.34375 6.96875 12.328125 C 6.855469 12.304688 6.738281 12.28125 6.628906 12.257812 C 6.515625 12.234375 6.402344 12.203125 6.292969 12.167969 C 6.183594 12.128906 6.074219 12.101562 5.964844 12.058594 C 5.753906 11.976562 5.546875 11.894531 5.351562 11.789062 C 5.148438 11.695312 4.964844 11.578125 4.785156 11.464844 C 4.695312 11.40625 4.613281 11.339844 4.53125 11.28125 C 4.449219 11.21875 4.363281 11.160156 4.289062 11.089844 C 4.136719 10.957031 3.984375 10.828125 3.855469 10.6875 C 3.792969 10.617188 3.722656 10.550781 3.664062 10.480469 C 3.609375 10.410156 3.550781 10.335938 3.496094 10.269531 C 3.46875 10.234375 3.441406 10.199219 3.414062 10.167969 C 3.386719 10.128906 3.363281 10.09375 3.339844 10.058594 C 3.292969 9.988281 3.246094 9.921875 3.203125 9.855469 C 3.113281 9.71875 3.046875 9.578125 2.976562 9.453125 C 2.851562 9.195312 2.753906 8.964844 2.695312 8.753906 C 2.617188 8.542969 2.601562 8.402344 2.578125 8.304688 C 2.554688 8.203125 2.546875 8.152344 2.546875 8.152344 C 2.503906 7.949219 2.632812 7.75 2.835938 7.707031 C 3.027344 7.671875 3.214844 7.789062 3.269531 7.972656 Z M 3.269531 7.972656"/><path style="stroke:none;fill-rule:nonzero;fill:url(#linear1)" d="M 7.992188 0 C 3.867188 0 0.523438 0.847656 0.523438 1.890625 C 0.523438 2.933594 3.867188 3.78125 7.992188 3.78125 C 12.117188 3.78125 15.460938 2.933594 15.460938 1.890625 C 15.460938 0.847656 12.117188 0 7.992188 0 Z M 7.992188 2.929688 C 4.800781 2.929688 2.214844 2.429688 2.214844 1.816406 C 2.214844 1.199219 4.800781 0.699219 7.992188 0.699219 C 11.183594 0.699219 13.769531 1.199219 13.769531 1.816406 C 13.769531 2.429688 11.183594 2.929688 7.992188 2.929688 Z M 7.992188 2.929688"/><path style="stroke:none;fill-rule:nonzero;fill:#242424;fill-opacity:1" d="M 6.195312 5.972656 C 6.195312 5.972656 6.1875 5.964844 6.175781 5.949219 C 6.164062 5.933594 6.144531 5.910156 6.121094 5.882812 C 6.105469 5.859375 6.082031 5.835938 6.054688 5.808594 C 6.027344 5.78125 5.996094 5.75 5.964844 5.714844 C 5.929688 5.683594 5.894531 5.652344 5.859375 5.625 C 5.824219 5.597656 5.785156 5.578125 5.753906 5.558594 C 5.722656 5.539062 5.691406 5.535156 5.671875 5.527344 C 5.664062 5.523438 5.652344 5.523438 5.644531 5.523438 C 5.640625 5.523438 5.640625 5.519531 5.636719 5.523438 L 5.625 5.523438 C 5.640625 5.523438 5.59375 5.523438 5.660156 5.523438 L 5.589844 5.523438 C 5.574219 5.523438 5.585938 5.527344 5.585938 5.527344 C 5.589844 5.527344 5.59375 5.527344 5.59375 5.523438 C 5.605469 5.519531 5.59375 5.523438 5.59375 5.523438 C 5.589844 5.523438 5.582031 5.527344 5.578125 5.527344 C 5.558594 5.535156 5.527344 5.539062 5.496094 5.558594 C 5.464844 5.578125 5.425781 5.597656 5.390625 5.628906 C 5.359375 5.65625 5.320312 5.6875 5.289062 5.71875 C 5.222656 5.78125 5.164062 5.84375 5.125 5.890625 C 5.082031 5.9375 5.0625 5.964844 5.0625 5.964844 L 5.03125 6 C 4.859375 6.199219 4.546875 6.234375 4.328125 6.078125 C 4.183594 5.96875 4.117188 5.800781 4.144531 5.640625 C 4.144531 5.640625 4.15625 5.589844 4.179688 5.5 C 4.207031 5.414062 4.25 5.285156 4.335938 5.136719 C 4.421875 4.988281 4.546875 4.816406 4.757812 4.65625 C 4.863281 4.578125 4.988281 4.503906 5.140625 4.449219 C 5.175781 4.4375 5.214844 4.421875 5.253906 4.414062 C 5.296875 4.402344 5.328125 4.390625 5.382812 4.386719 L 5.460938 4.375 C 5.484375 4.371094 5.519531 4.367188 5.523438 4.367188 L 5.59375 4.363281 L 5.632812 4.359375 L 5.644531 4.359375 L 5.660156 4.363281 L 5.691406 4.363281 L 5.757812 4.367188 C 5.796875 4.371094 5.839844 4.378906 5.882812 4.386719 C 5.960938 4.398438 6.042969 4.421875 6.117188 4.449219 C 6.265625 4.5 6.394531 4.578125 6.496094 4.65625 C 6.707031 4.816406 6.832031 4.988281 6.921875 5.136719 C 6.964844 5.210938 6.996094 5.28125 7.019531 5.339844 C 7.046875 5.398438 7.066406 5.460938 7.078125 5.507812 C 7.09375 5.554688 7.09375 5.578125 7.101562 5.597656 C 7.105469 5.617188 7.105469 5.628906 7.105469 5.628906 C 7.152344 5.882812 6.964844 6.121094 6.691406 6.164062 C 6.492188 6.191406 6.304688 6.113281 6.195312 5.972656 Z M 6.195312 5.972656"/><path style="stroke:none;fill-rule:nonzero;fill:#242424;fill-opacity:1" d="M 10.882812 5.972656 C 10.882812 5.972656 10.875 5.964844 10.863281 5.949219 C 10.851562 5.933594 10.832031 5.910156 10.808594 5.882812 C 10.792969 5.859375 10.769531 5.835938 10.742188 5.808594 C 10.714844 5.78125 10.683594 5.75 10.652344 5.714844 C 10.617188 5.683594 10.582031 5.652344 10.546875 5.625 C 10.511719 5.597656 10.472656 5.578125 10.441406 5.558594 C 10.410156 5.539062 10.378906 5.535156 10.359375 5.527344 C 10.351562 5.523438 10.339844 5.523438 10.332031 5.523438 C 10.328125 5.523438 10.328125 5.519531 10.324219 5.523438 L 10.3125 5.523438 C 10.328125 5.523438 10.277344 5.523438 10.347656 5.523438 L 10.277344 5.523438 C 10.261719 5.523438 10.269531 5.527344 10.273438 5.527344 C 10.277344 5.527344 10.277344 5.527344 10.28125 5.523438 C 10.292969 5.519531 10.28125 5.523438 10.277344 5.523438 C 10.273438 5.523438 10.269531 5.527344 10.265625 5.527344 C 10.246094 5.535156 10.214844 5.539062 10.183594 5.558594 C 10.152344 5.578125 10.113281 5.597656 10.078125 5.628906 C 10.042969 5.65625 10.007812 5.6875 9.972656 5.71875 C 9.910156 5.78125 9.851562 5.84375 9.8125 5.890625 C 9.769531 5.9375 9.746094 5.964844 9.746094 5.964844 L 9.71875 6 C 9.546875 6.199219 9.234375 6.234375 9.015625 6.078125 C 8.867188 5.96875 8.804688 5.800781 8.832031 5.640625 C 8.832031 5.640625 8.839844 5.589844 8.867188 5.5 C 8.890625 5.414062 8.9375 5.285156 9.023438 5.136719 C 9.109375 4.988281 9.234375 4.816406 9.445312 4.65625 C 9.546875 4.578125 9.675781 4.503906 9.824219 4.449219 C 9.859375 4.4375 9.898438 4.421875 9.941406 4.414062 C 9.980469 4.402344 10.015625 4.390625 10.070312 4.386719 L 10.148438 4.375 C 10.171875 4.371094 10.207031 4.367188 10.210938 4.367188 L 10.28125 4.363281 L 10.320312 4.359375 L 10.328125 4.359375 L 10.347656 4.363281 L 10.378906 4.363281 L 10.441406 4.367188 C 10.484375 4.371094 10.527344 4.378906 10.566406 4.386719 C 10.648438 4.398438 10.730469 4.421875 10.804688 4.449219 C 10.953125 4.5 11.078125 4.578125 11.183594 4.65625 C 11.394531 4.816406 11.519531 4.988281 11.605469 5.136719 C 11.648438 5.210938 11.683594 5.28125 11.707031 5.339844 C 11.734375 5.398438 11.75 5.460938 11.765625 5.507812 C 11.78125 5.554688 11.78125 5.578125 11.785156 5.597656 C 11.789062 5.617188 11.792969 5.628906 11.792969 5.628906 C 11.835938 5.882812 11.652344 6.121094 11.378906 6.164062 C 11.179688 6.191406 10.988281 6.113281 10.882812 5.972656 Z M 10.882812 5.972656"/></g></svg>