<svg xmlns="http://www.w3.org/2000/svg" xmlns:xlink="http://www.w3.org/1999/xlink" width="16pt" height="16pt" version="1.1" viewBox="0 0 16 16"><defs><linearGradient id="linear0" x1="65.667" x2="65.667" y1="19.467" y2="111.47" gradientTransform="matrix(0.125,0,0,0.125,0,0)" gradientUnits="userSpaceOnUse"><stop offset=".341" style="stop-color:#f15b52;stop-opacity:1"/><stop offset=".556" style="stop-color:#ef5851;stop-opacity:1"/><stop offset=".718" style="stop-color:#ea4e50;stop-opacity:1"/><stop offset=".862" style="stop-color:#e13e4d;stop-opacity:1"/><stop offset=".946" style="stop-color:#d9314b;stop-opacity:1"/></linearGradient></defs><g id="surface1"><path style="stroke:none;fill-rule:nonzero;fill:url(#linear0)" d="M 8.207031 14.933594 C 4.722656 14.933594 0.972656 12.75 0.972656 7.957031 C 0.972656 3.167969 4.722656 0.984375 8.207031 0.984375 C 10.140625 0.984375 11.925781 1.625 13.242188 2.785156 C 14.683594 4.058594 15.445312 5.847656 15.445312 7.957031 C 15.445312 10.0625 14.683594 11.847656 13.242188 13.121094 C 11.925781 14.289062 10.136719 14.933594 8.207031 14.933594 Z M 8.207031 14.933594"/><path style="stroke:none;fill-rule:nonzero;fill:#c7203a;fill-opacity:1" d="M 8.207031 1.246094 C 10.078125 1.246094 11.800781 1.863281 13.070312 2.984375 C 14.453125 4.203125 15.183594 5.921875 15.183594 7.957031 C 15.183594 9.984375 14.453125 11.703125 13.070312 12.925781 C 11.796875 14.050781 10.074219 14.667969 8.207031 14.667969 C 6.335938 14.667969 4.609375 14.058594 3.347656 12.949219 C 1.964844 11.734375 1.234375 10.007812 1.234375 7.957031 C 1.234375 5.898438 1.964844 4.171875 3.34375 2.960938 C 4.605469 1.855469 6.332031 1.246094 8.207031 1.246094 M 8.207031 0.722656 C 4.316406 0.722656 0.707031 3.222656 0.707031 7.957031 C 0.707031 12.667969 4.316406 15.195312 8.207031 15.195312 C 12.101562 15.195312 15.707031 12.601562 15.707031 7.957031 C 15.707031 3.285156 12.101562 0.722656 8.207031 0.722656 Z M 8.207031 0.722656"/><path style="stroke:none;fill-rule:nonzero;fill:#242424;fill-opacity:1" d="M 7.234375 8.402344 C 7.148438 8.402344 7.066406 8.371094 6.996094 8.3125 C 6.625 7.996094 5.40625 7.324219 4.957031 7.101562 C 4.789062 7.019531 4.707031 6.855469 4.746094 6.6875 C 4.785156 6.519531 4.929688 6.402344 5.097656 6.402344 C 5.128906 6.402344 5.160156 6.40625 5.191406 6.417969 C 5.355469 6.457031 5.515625 6.515625 5.671875 6.585938 C 6.085938 6.78125 7.242188 7.460938 7.519531 7.8125 C 7.609375 7.925781 7.628906 8.066406 7.566406 8.195312 C 7.503906 8.320312 7.375 8.402344 7.234375 8.402344 Z M 7.234375 8.402344"/><path style="stroke:none;fill-rule:nonzero;fill:#242424;fill-opacity:1" d="M 9.457031 8.402344 C 9.546875 8.402344 9.628906 8.371094 9.695312 8.3125 C 10.066406 7.996094 11.289062 7.324219 11.734375 7.101562 C 11.902344 7.019531 11.984375 6.855469 11.945312 6.6875 C 11.90625 6.519531 11.765625 6.402344 11.597656 6.402344 C 11.566406 6.402344 11.535156 6.40625 11.503906 6.417969 C 11.335938 6.457031 11.175781 6.515625 11.019531 6.585938 C 10.605469 6.78125 9.453125 7.460938 9.171875 7.8125 C 9.082031 7.925781 9.066406 8.066406 9.125 8.195312 C 9.1875 8.320312 9.320312 8.402344 9.457031 8.402344 Z M 9.457031 8.402344"/><path style="stroke:none;fill-rule:nonzero;fill:#242424;fill-opacity:1" d="M 5.378906 8.605469 C 5.378906 9.140625 5.800781 9.578125 6.316406 9.578125 C 6.835938 9.578125 7.253906 9.140625 7.253906 8.605469 L 7.253906 8.421875 C 7.253906 7.886719 6.835938 7.453125 6.316406 7.453125 C 5.800781 7.453125 5.378906 7.886719 5.378906 8.421875 Z M 5.378906 8.605469"/><path style="stroke:none;fill-rule:nonzero;fill:#242424;fill-opacity:1" d="M 9.4375 8.605469 C 9.4375 9.140625 9.859375 9.578125 10.375 9.578125 C 10.890625 9.578125 11.3125 9.140625 11.3125 8.605469 L 11.3125 8.421875 C 11.3125 7.886719 10.890625 7.453125 10.375 7.453125 C 9.859375 7.453125 9.4375 7.886719 9.4375 8.421875 Z M 9.4375 8.605469"/><path style="stroke:none;fill-rule:nonzero;fill:#000;fill-opacity:1" d="M 3.28125 9.664062 L 13.15625 10.699219 L 12.714844 14.894531 L 2.839844 13.859375 Z M 3.28125 9.664062"/><path style="stroke:none;fill-rule:nonzero;fill:#fff;fill-opacity:1" d="M 5.046875 12.371094 L 4.785156 12.34375 L 4.613281 13.003906 L 4.289062 12.972656 L 4.460938 12.3125 L 4.101562 12.277344 L 4.128906 11.980469 L 4.539062 12.019531 L 4.652344 11.597656 L 4.292969 11.5625 L 4.324219 11.261719 L 4.730469 11.300781 L 4.910156 10.636719 L 5.230469 10.667969 L 5.054688 11.332031 L 5.316406 11.359375 L 5.496094 10.691406 L 5.820312 10.722656 L 5.640625 11.390625 L 6.015625 11.425781 L 5.988281 11.726562 L 5.5625 11.683594 L 5.449219 12.109375 L 5.824219 12.144531 L 5.796875 12.441406 L 5.371094 12.402344 L 5.199219 13.058594 L 4.875 13.027344 Z M 4.863281 12.050781 L 5.128906 12.078125 L 5.242188 11.652344 L 4.980469 11.628906 Z M 4.863281 12.050781"/><path style="stroke:none;fill-rule:nonzero;fill:#fff;fill-opacity:1" d="M 7.328125 12.644531 C 7.335938 12.570312 7.324219 12.511719 7.289062 12.464844 C 7.257812 12.417969 7.195312 12.371094 7.105469 12.324219 C 7.015625 12.277344 6.933594 12.230469 6.859375 12.183594 C 6.78125 12.136719 6.71875 12.082031 6.667969 12.027344 C 6.613281 11.972656 6.578125 11.90625 6.550781 11.835938 C 6.527344 11.765625 6.519531 11.683594 6.53125 11.585938 C 6.546875 11.425781 6.613281 11.296875 6.730469 11.203125 C 6.851562 11.109375 7 11.066406 7.183594 11.066406 L 7.210938 10.765625 L 7.4375 10.785156 L 7.40625 11.09375 C 7.578125 11.136719 7.707031 11.21875 7.796875 11.347656 C 7.886719 11.476562 7.921875 11.628906 7.902344 11.808594 L 7.421875 11.765625 C 7.429688 11.664062 7.417969 11.585938 7.386719 11.53125 C 7.355469 11.472656 7.300781 11.441406 7.230469 11.433594 C 7.167969 11.425781 7.117188 11.441406 7.078125 11.480469 C 7.039062 11.515625 7.015625 11.566406 7.011719 11.636719 C 7.003906 11.707031 7.019531 11.765625 7.054688 11.8125 C 7.089844 11.855469 7.152344 11.902344 7.234375 11.949219 C 7.320312 11.996094 7.402344 12.042969 7.476562 12.089844 C 7.550781 12.136719 7.613281 12.191406 7.664062 12.246094 C 7.71875 12.304688 7.757812 12.367188 7.78125 12.441406 C 7.808594 12.511719 7.816406 12.59375 7.804688 12.691406 C 7.789062 12.855469 7.726562 12.980469 7.613281 13.074219 C 7.5 13.167969 7.351562 13.214844 7.171875 13.214844 L 7.144531 13.5 L 6.921875 13.480469 L 6.949219 13.191406 C 6.742188 13.148438 6.589844 13.0625 6.492188 12.929688 C 6.390625 12.796875 6.351562 12.636719 6.371094 12.4375 L 6.851562 12.484375 C 6.84375 12.59375 6.859375 12.675781 6.902344 12.738281 C 6.945312 12.800781 7.007812 12.835938 7.097656 12.84375 C 7.164062 12.851562 7.214844 12.835938 7.257812 12.800781 C 7.296875 12.765625 7.320312 12.714844 7.328125 12.644531 Z M 7.328125 12.644531"/><path style="stroke:none;fill-rule:nonzero;fill:#fff;fill-opacity:1" d="M 8.425781 13.292969 C 8.433594 13.214844 8.46875 13.15625 8.53125 13.109375 C 8.589844 13.066406 8.664062 13.046875 8.746094 13.054688 C 8.832031 13.0625 8.898438 13.09375 8.953125 13.148438 C 9.003906 13.203125 9.023438 13.269531 9.015625 13.351562 C 9.011719 13.425781 8.976562 13.488281 8.914062 13.535156 C 8.855469 13.578125 8.78125 13.597656 8.699219 13.585938 C 8.613281 13.578125 8.546875 13.546875 8.496094 13.492188 C 8.441406 13.4375 8.421875 13.371094 8.425781 13.292969 Z M 8.988281 12.855469 L 8.558594 12.8125 L 8.640625 11.238281 L 9.207031 11.296875 Z M 8.988281 12.855469"/><path style="stroke:none;fill-rule:nonzero;fill:#fff;fill-opacity:1" d="M 12.242188 12.605469 C 12.207031 12.859375 12.125 13.054688 11.992188 13.199219 C 11.859375 13.335938 11.695312 13.398438 11.5 13.378906 C 11.421875 13.371094 11.351562 13.347656 11.292969 13.308594 C 11.234375 13.265625 11.191406 13.210938 11.164062 13.144531 C 11.054688 13.265625 10.917969 13.320312 10.757812 13.300781 C 10.664062 13.292969 10.582031 13.257812 10.519531 13.195312 C 10.453125 13.132812 10.410156 13.050781 10.386719 12.945312 C 10.363281 12.839844 10.363281 12.726562 10.390625 12.597656 C 10.441406 12.355469 10.542969 12.164062 10.683594 12.027344 C 10.828125 11.890625 10.992188 11.832031 11.175781 11.851562 C 11.320312 11.863281 11.441406 11.910156 11.539062 11.988281 L 11.625 12.054688 L 11.464844 12.910156 C 11.4375 13.046875 11.476562 13.117188 11.585938 13.128906 C 11.671875 13.136719 11.746094 13.089844 11.8125 12.988281 C 11.878906 12.890625 11.921875 12.757812 11.945312 12.589844 C 11.992188 12.265625 11.949219 12.007812 11.816406 11.8125 C 11.679688 11.621094 11.464844 11.511719 11.171875 11.480469 C 10.984375 11.464844 10.816406 11.496094 10.660156 11.578125 C 10.503906 11.65625 10.378906 11.78125 10.277344 11.949219 C 10.175781 12.113281 10.109375 12.308594 10.074219 12.53125 C 10.027344 12.871094 10.070312 13.140625 10.203125 13.335938 C 10.339844 13.53125 10.558594 13.644531 10.867188 13.675781 C 10.949219 13.683594 11.035156 13.679688 11.128906 13.671875 C 11.222656 13.660156 11.300781 13.644531 11.359375 13.625 L 11.390625 13.875 C 11.328125 13.910156 11.246094 13.933594 11.140625 13.945312 C 11.039062 13.960938 10.933594 13.960938 10.832031 13.953125 C 10.566406 13.925781 10.347656 13.855469 10.171875 13.734375 C 9.996094 13.613281 9.875 13.449219 9.804688 13.238281 C 9.734375 13.03125 9.714844 12.785156 9.753906 12.5 C 9.792969 12.230469 9.878906 11.992188 10.011719 11.792969 C 10.144531 11.589844 10.316406 11.4375 10.523438 11.339844 C 10.730469 11.242188 10.957031 11.203125 11.203125 11.230469 C 11.453125 11.253906 11.660156 11.324219 11.828125 11.445312 C 12 11.5625 12.117188 11.722656 12.191406 11.921875 C 12.257812 12.125 12.277344 12.351562 12.242188 12.605469 Z M 10.757812 12.628906 C 10.734375 12.757812 10.734375 12.855469 10.761719 12.921875 C 10.785156 12.988281 10.832031 13.027344 10.898438 13.035156 C 10.945312 13.039062 10.988281 13.019531 11.03125 12.984375 C 11.074219 12.945312 11.113281 12.890625 11.144531 12.816406 L 11.269531 12.152344 C 11.238281 12.140625 11.210938 12.136719 11.179688 12.132812 C 11.070312 12.121094 10.980469 12.15625 10.914062 12.234375 C 10.84375 12.316406 10.792969 12.449219 10.757812 12.628906 Z M 10.757812 12.628906"/></g></svg>