<svg xmlns="http://www.w3.org/2000/svg" xmlns:xlink="http://www.w3.org/1999/xlink" width="16pt" height="16pt" version="1.1" viewBox="0 0 16 16"><defs><linearGradient id="linear0" x1="34.718" x2="63.498" y1="66.697" y2="66.697" gradientTransform="matrix(-0.122537,-0.024675,-0.024675,0.122537,14.68,0.996275)" gradientUnits="userSpaceOnUse"><stop offset="0" style="stop-color:#c9a622;stop-opacity:1"/><stop offset=".2" style="stop-color:#deb625;stop-opacity:1"/><stop offset=".451" style="stop-color:#f0c529;stop-opacity:1"/><stop offset=".713" style="stop-color:#fbce2a;stop-opacity:1"/><stop offset=".996" style="stop-color:#ffd12b;stop-opacity:1"/></linearGradient><filter id="alpha" width="100%" height="100%" x="0%" y="0%" filterUnits="objectBoundingBox"><feColorMatrix in="SourceGraphic" type="matrix" values="0 0 0 0 1 0 0 0 0 1 0 0 0 0 1 0 0 0 1 0"/></filter><mask id="mask0"><g filter="url(#alpha)"><rect width="16" height="16" x="0" y="0" style="fill:#000;fill-opacity:.2;stroke:none"/></g></mask><clipPath id="clip1"><rect width="16" height="16" x="0" y="0"/></clipPath><g id="surface5" clip-path="url(#clip1)"><path style="stroke:none;fill-rule:nonzero;fill:#424242;fill-opacity:1" d="M 7.578125 6.875 C 7.824219 6.875 8.417969 7.046875 8.625 7.1875 C 8.609375 7.238281 8.585938 7.289062 8.570312 7.332031 C 8.542969 7.414062 8.511719 7.484375 8.496094 7.558594 C 8.347656 8.339844 7.796875 8.605469 6.535156 8.941406 C 6.367188 8.988281 6.214844 9.011719 6.082031 9.011719 C 5.953125 9.011719 5.84375 8.988281 5.757812 8.945312 C 5.394531 8.773438 5.492188 8.3125 5.503906 8.257812 C 5.613281 7.789062 5.964844 7.390625 6.464844 7.125 C 6.824219 6.9375 7.113281 6.875 7.578125 6.875 L 7.625 6.875 M 7.578125 6.449219 L 7.5625 6.449219 C 7.050781 6.464844 6.703125 6.550781 6.289062 6.769531 C 5.695312 7.082031 5.273438 7.59375 5.140625 8.171875 C 5.046875 8.566406 5.140625 9.066406 5.597656 9.28125 C 5.746094 9.355469 5.914062 9.382812 6.082031 9.382812 C 6.269531 9.382812 6.460938 9.347656 6.636719 9.300781 C 7.859375 8.972656 8.664062 8.664062 8.867188 7.621094 C 8.894531 7.476562 9.082031 7.132812 8.992188 6.996094 C 8.8125 6.722656 7.902344 6.449219 7.578125 6.449219 Z M 7.578125 6.449219"/></g><mask id="mask1"><g filter="url(#alpha)"><rect width="16" height="16" x="0" y="0" style="fill:#000;fill-opacity:.2;stroke:none"/></g></mask><clipPath id="clip2"><rect width="16" height="16" x="0" y="0"/></clipPath><g id="surface8" clip-path="url(#clip2)"><path style="stroke:none;fill-rule:nonzero;fill:#424242;fill-opacity:1" d="M 10.574219 8.609375 C 10.601562 8.621094 10.628906 8.632812 10.652344 8.644531 C 10.703125 8.671875 10.761719 8.683594 10.820312 8.683594 C 10.835938 8.683594 10.855469 8.683594 10.871094 8.679688 C 10.976562 8.667969 11.085938 8.660156 11.203125 8.660156 C 11.949219 8.660156 12.796875 8.980469 13.089844 9.375 C 13.742188 10.253906 13.902344 11.515625 14.03125 12.527344 C 14.113281 13.15625 14.179688 13.691406 14.351562 14.066406 C 14.257812 14.089844 14.152344 14.109375 14.070312 14.109375 L 14.050781 14.109375 C 13.367188 13.941406 13.117188 13.84375 12.792969 13.320312 C 12.390625 12.675781 12.257812 12.097656 12.140625 11.585938 C 11.96875 10.851562 11.804688 10.160156 10.921875 9.75 C 10.699219 9.644531 10.503906 9.425781 10.398438 9.167969 C 10.359375 9.066406 10.382812 8.921875 10.457031 8.777344 C 10.460938 8.769531 10.46875 8.761719 10.472656 8.753906 L 10.488281 8.730469 C 10.515625 8.683594 10.546875 8.644531 10.574219 8.609375 M 10.496094 8.175781 C 10.375 8.261719 10.265625 8.378906 10.171875 8.523438 C 10.140625 8.542969 10.109375 8.558594 10.085938 8.578125 C 10.101562 8.582031 10.113281 8.589844 10.128906 8.597656 C 10.011719 8.8125 9.957031 9.078125 10.050781 9.304688 C 10.179688 9.636719 10.441406 9.9375 10.761719 10.085938 C 12.019531 10.671875 11.464844 11.890625 12.472656 13.515625 C 12.871094 14.15625 13.234375 14.296875 13.96875 14.472656 C 13.996094 14.480469 14.03125 14.484375 14.070312 14.484375 C 14.351562 14.484375 14.890625 14.328125 14.875 14.1875 C 14.871094 14.171875 14.867188 14.160156 14.851562 14.144531 C 14.222656 13.550781 14.628906 10.808594 13.394531 9.152344 C 13.011719 8.640625 12.054688 8.285156 11.203125 8.285156 C 11.074219 8.285156 10.945312 8.292969 10.824219 8.308594 C 10.71875 8.257812 10.609375 8.214844 10.496094 8.175781 Z M 10.496094 8.175781"/></g><linearGradient id="linear1" x1="11.464" x2="39.167" y1="52.237" y2="52.237" gradientTransform="matrix(-0.122537,-0.024675,-0.024675,0.122537,14.68,0.996275)" gradientUnits="userSpaceOnUse"><stop offset="0" style="stop-color:#f0d886;stop-opacity:1"/><stop offset=".164" style="stop-color:#f4e196;stop-opacity:1"/><stop offset=".481" style="stop-color:#faeeaf;stop-opacity:1"/><stop offset=".769" style="stop-color:#fef6bf;stop-opacity:1"/><stop offset="1" style="stop-color:#fff9c4;stop-opacity:1"/></linearGradient><mask id="mask2"><g filter="url(#alpha)"><rect width="16" height="16" x="0" y="0" style="fill:#000;fill-opacity:.2;stroke:none"/></g></mask><clipPath id="clip3"><rect width="16" height="16" x="0" y="0"/></clipPath><g id="surface11" clip-path="url(#clip3)"><path style="stroke:none;fill-rule:nonzero;fill:#424242;fill-opacity:1" d="M 9.820312 0.875 C 9.960938 0.875 11.203125 0.960938 11.785156 3.90625 C 12.375 7.777344 11.375 10.042969 9.535156 12.332031 L 6.730469 10.449219 C 8.167969 9.015625 8.84375 7.992188 9.21875 4.242188 C 9.234375 4.078125 9.234375 3.84375 9.230469 3.542969 C 9.226562 2.816406 9.214844 0.875 9.816406 0.875 L 9.875 0.875 M 9.820312 0.5 L 9.8125 0.5 C 8.59375 0.5 8.917969 3.484375 8.84375 4.207031 C 8.445312 8.226562 7.675781 9.007812 6.140625 10.503906 L 9.609375 12.835938 C 11.453125 10.609375 12.820312 8.207031 12.152344 3.84375 C 11.628906 1.175781 10.5 0.5 9.820312 0.5 Z M 9.820312 0.5"/></g><linearGradient id="linear2" x1="21.897" x2="73.258" y1="73.66" y2="134.25" gradientTransform="matrix(-0.122537,-0.024675,-0.024675,0.122537,14.68,0.996275)" gradientUnits="userSpaceOnUse"><stop offset="0" style="stop-color:#c9a622;stop-opacity:1"/><stop offset=".2" style="stop-color:#deb625;stop-opacity:1"/><stop offset=".451" style="stop-color:#f0c529;stop-opacity:1"/><stop offset=".713" style="stop-color:#fbce2a;stop-opacity:1"/><stop offset=".996" style="stop-color:#ffd12b;stop-opacity:1"/></linearGradient><mask id="mask3"><g filter="url(#alpha)"><rect width="16" height="16" x="0" y="0" style="fill:#000;fill-opacity:.2;stroke:none"/></g></mask><clipPath id="clip4"><rect width="16" height="16" x="0" y="0"/></clipPath><g id="surface14" clip-path="url(#clip4)"><path style="stroke:none;fill-rule:nonzero;fill:#424242;fill-opacity:1" d="M 7.769531 8.949219 C 8.242188 9.03125 8.816406 9.179688 9.066406 9.375 C 9.578125 9.78125 10.332031 9.835938 10.832031 9.871094 C 10.9375 9.878906 11.03125 9.882812 11.089844 9.890625 C 11.113281 9.894531 11.132812 9.898438 11.152344 9.902344 C 10.871094 10.660156 9.898438 12.769531 7.480469 14.167969 C 6.117188 14.953125 4.765625 15.121094 3.871094 15.121094 C 3.222656 15.121094 2.59375 15.03125 2.148438 14.878906 C 1.929688 14.800781 1.851562 14.742188 1.832031 14.726562 C 1.746094 14.601562 1.6875 14.441406 1.652344 14.300781 C 2.253906 13.996094 3.507812 13.339844 4.203125 12.808594 C 5.871094 11.535156 6.976562 10.449219 7.492188 9.578125 C 7.640625 9.328125 7.726562 9.121094 7.769531 8.949219 M 7.417969 8.519531 C 7.417969 8.519531 7.90625 9.511719 3.976562 12.511719 C 3.246094 13.066406 1.84375 13.789062 1.382812 14.019531 C 1.285156 14.070312 1.226562 14.097656 1.226562 14.097656 C 1.226562 14.097656 1.285156 14.597656 1.53125 14.953125 C 1.59375 15.042969 1.769531 15.140625 2.027344 15.234375 C 2.449219 15.378906 3.097656 15.496094 3.871094 15.496094 C 4.984375 15.496094 6.359375 15.25 7.667969 14.492188 C 10.828125 12.667969 11.609375 9.71875 11.609375 9.71875 C 11.609375 9.71875 11.496094 9.574219 11.144531 9.523438 C 10.792969 9.472656 9.828125 9.503906 9.296875 9.082031 C 8.765625 8.660156 7.417969 8.519531 7.417969 8.519531 Z M 7.417969 8.519531"/></g><linearGradient id="linear3" x1="18.972" x2="54.366" y1="75.171" y2="120.18" gradientTransform="matrix(-0.122537,-0.024675,-0.024675,0.122537,14.68,0.996275)" gradientUnits="userSpaceOnUse"><stop offset="0" style="stop-color:#b3931e;stop-opacity:1"/><stop offset=".996" style="stop-color:#ffd12b;stop-opacity:1"/></linearGradient><mask id="mask4"><g filter="url(#alpha)"><rect width="16" height="16" x="0" y="0" style="fill:#000;fill-opacity:.2;stroke:none"/></g></mask><clipPath id="clip5"><rect width="16" height="16" x="0" y="0"/></clipPath><g id="surface17" clip-path="url(#clip5)"><path style="stroke:none;fill-rule:nonzero;fill:#424242;fill-opacity:1" d="M 7.375 7.25 L 7.375 7.625 L 7.378906 7.625 C 7.734375 7.625 8.078125 7.695312 8.429688 7.839844 C 9.367188 8.234375 9.828125 8.714844 10.050781 9.082031 C 9.960938 9.078125 9.871094 9.074219 9.78125 9.074219 C 9.535156 9.074219 9.285156 9.085938 9.042969 9.113281 C 8.613281 9.160156 8.167969 9.253906 7.710938 9.390625 C 7.109375 9.574219 6.765625 9.753906 6.238281 10.023438 C 6.082031 10.101562 5.90625 10.191406 5.703125 10.292969 C 4.417969 10.929688 3.46875 11.214844 2.628906 11.214844 C 2.589844 11.214844 2.554688 11.214844 2.515625 11.210938 C 2.394531 11.207031 2.3125 11.183594 2.273438 11.164062 C 2.289062 11.136719 2.320312 11.085938 2.394531 11 C 2.714844 10.632812 3.046875 10.265625 3.386719 9.914062 C 4.113281 9.160156 4.691406 8.589844 5.558594 8.15625 C 6.113281 7.878906 6.75 7.621094 7.375 7.621094 Z M 7.386719 7.246094 C 6.664062 7.246094 6.011719 7.511719 5.394531 7.820312 C 4.460938 8.289062 3.84375 8.902344 3.117188 9.65625 C 2.769531 10.011719 2.4375 10.378906 2.113281 10.757812 C 1.988281 10.902344 1.855469 11.078125 1.902344 11.265625 C 1.90625 11.285156 1.914062 11.296875 1.921875 11.316406 C 2.007812 11.515625 2.28125 11.582031 2.507812 11.585938 C 2.546875 11.589844 2.589844 11.589844 2.628906 11.589844 C 3.417969 11.589844 4.386719 11.363281 5.871094 10.628906 C 6.738281 10.199219 7.078125 9.976562 7.820312 9.75 C 8.421875 9.570312 8.871094 9.511719 9.082031 9.488281 C 9.332031 9.460938 9.566406 9.449219 9.78125 9.449219 C 10.066406 9.449219 10.320312 9.46875 10.535156 9.492188 C 10.566406 9.5 10.59375 9.507812 10.625 9.515625 C 10.625 9.511719 10.625 9.507812 10.621094 9.503906 C 10.625 9.503906 10.625 9.503906 10.628906 9.503906 C 10.628906 9.503906 10.640625 9.542969 10.640625 9.542969 C 10.644531 9.542969 10.644531 9.527344 10.636719 9.484375 C 10.628906 9.480469 10.621094 9.480469 10.617188 9.476562 C 10.535156 9.097656 10.167969 8.160156 8.578125 7.492188 C 8.15625 7.316406 7.761719 7.246094 7.386719 7.246094 Z M 7.386719 7.246094"/></g></defs><g id="surface1"><path style="stroke:none;fill-rule:nonzero;fill:url(#linear0)" d="M 6.289062 6.769531 C 5.695312 7.082031 5.273438 7.597656 5.140625 8.171875 C 5.046875 8.566406 5.140625 9.066406 5.597656 9.285156 C 5.917969 9.4375 6.304688 9.390625 6.636719 9.300781 C 7.859375 8.972656 8.664062 8.664062 8.867188 7.621094 C 8.894531 7.476562 9.082031 7.132812 8.992188 6.996094 C 8.808594 6.71875 7.871094 6.441406 7.5625 6.453125 C 7.050781 6.464844 6.703125 6.550781 6.289062 6.769531 Z M 6.289062 6.769531"/><use mask="url(#mask0)" xlink:href="#surface5"/><path style="stroke:none;fill-rule:nonzero;fill:#f5ca2c;fill-opacity:1" d="M 12.558594 12.792969 C 12.640625 13.785156 13.6875 14.574219 14.886719 14.242188 C 14.910156 14.402344 14.203125 14.578125 13.984375 14.527344 C 13.25 14.347656 12.882812 14.210938 12.484375 13.566406 C 11.476562 11.941406 12.035156 10.722656 10.773438 10.140625 C 10.453125 9.988281 10.195312 9.691406 10.0625 9.359375 C 9.96875 9.117188 10.027344 8.839844 10.160156 8.617188 C 10.257812 8.449219 10.375 8.324219 10.507812 8.230469 C 12.394531 8.859375 12.253906 11.125 12.558594 12.792969 Z M 12.558594 12.792969"/><path style="stroke:none;fill-rule:nonzero;fill:#f9e691;fill-opacity:1" d="M 13.40625 9.203125 C 14.640625 10.863281 14.234375 13.605469 14.863281 14.199219 C 14.878906 14.210938 14.882812 14.226562 14.886719 14.242188 C 13.691406 14.574219 12.941406 14.191406 12.507812 12.804688 C 12.203125 11.136719 12.378906 9.675781 10.101562 8.628906 C 10.960938 8.011719 12.832031 8.4375 13.40625 9.203125 Z M 13.40625 9.203125"/><use mask="url(#mask1)" xlink:href="#surface8"/><path style="stroke:none;fill-rule:nonzero;fill:#decd7f;fill-opacity:1" d="M 11.730469 8.738281 C 11.730469 8.738281 11.734375 8.742188 11.746094 8.746094 C 11.761719 8.753906 11.777344 8.765625 11.796875 8.777344 C 11.839844 8.804688 11.898438 8.847656 11.972656 8.90625 C 12.042969 8.964844 12.128906 9.039062 12.21875 9.128906 C 12.308594 9.222656 12.402344 9.332031 12.496094 9.457031 C 12.589844 9.582031 12.691406 9.722656 12.777344 9.882812 C 12.867188 10.039062 12.949219 10.210938 13.023438 10.390625 C 13.0625 10.480469 13.09375 10.578125 13.128906 10.671875 C 13.160156 10.765625 13.1875 10.863281 13.21875 10.960938 C 13.269531 11.164062 13.3125 11.367188 13.347656 11.570312 C 13.378906 11.773438 13.414062 11.976562 13.445312 12.175781 C 13.476562 12.375 13.515625 12.570312 13.558594 12.753906 C 13.578125 12.847656 13.609375 12.9375 13.632812 13.023438 C 13.664062 13.109375 13.695312 13.195312 13.730469 13.273438 C 13.769531 13.351562 13.800781 13.429688 13.847656 13.496094 C 13.894531 13.5625 13.933594 13.632812 13.984375 13.6875 C 14.035156 13.742188 14.082031 13.800781 14.132812 13.847656 C 14.183594 13.890625 14.234375 13.933594 14.285156 13.972656 C 14.386719 14.042969 14.480469 14.097656 14.558594 14.140625 C 14.722656 14.210938 14.820312 14.25 14.820312 14.25 C 14.820312 14.25 14.722656 14.214844 14.550781 14.15625 C 14.472656 14.117188 14.371094 14.070312 14.265625 14.003906 C 14.210938 13.964844 14.15625 13.925781 14.101562 13.886719 C 14.046875 13.839844 13.996094 13.785156 13.9375 13.730469 C 13.882812 13.671875 13.839844 13.601562 13.785156 13.535156 C 13.734375 13.46875 13.699219 13.386719 13.652344 13.308594 C 13.613281 13.230469 13.578125 13.144531 13.542969 13.054688 C 13.515625 12.964844 13.480469 12.875 13.453125 12.78125 C 13.347656 12.40625 13.289062 11.996094 13.203125 11.597656 C 13.164062 11.394531 13.117188 11.199219 13.0625 11.007812 C 13.03125 10.914062 13 10.820312 12.972656 10.726562 C 12.9375 10.636719 12.902344 10.546875 12.867188 10.457031 C 12.792969 10.285156 12.710938 10.117188 12.625 9.96875 C 12.539062 9.816406 12.453125 9.679688 12.363281 9.558594 C 12.1875 9.3125 12.007812 9.132812 11.878906 9.015625 C 11.746094 8.898438 11.667969 8.847656 11.667969 8.847656 Z M 11.730469 8.738281"/><path style="stroke:none;fill-rule:nonzero;fill:url(#linear1)" d="M 9.8125 0.5 C 8.59375 0.515625 8.917969 3.484375 8.84375 4.207031 C 8.445312 8.226562 7.675781 9.007812 6.140625 10.503906 L 9.609375 12.835938 C 11.453125 10.609375 12.820312 8.207031 12.152344 3.84375 C 11.628906 1.160156 10.484375 0.492188 9.8125 0.5 Z M 9.8125 0.5"/><use mask="url(#mask2)" xlink:href="#surface11"/><path style="stroke:none;fill-rule:nonzero;fill:#784b27;fill-opacity:1" d="M 2.027344 15.234375 C 1.769531 15.140625 1.59375 15.042969 1.53125 14.953125 C 1.285156 14.597656 1.226562 14.097656 1.226562 14.097656 C 1.226562 14.097656 1.285156 14.070312 1.382812 14.019531 C 1.898438 14.222656 2.230469 14.585938 2.027344 15.234375 Z M 2.027344 15.234375"/><path style="stroke:none;fill-rule:nonzero;fill:url(#linear2)" d="M 3.976562 12.511719 C 7.90625 9.511719 7.417969 8.515625 7.417969 8.515625 C 7.417969 8.515625 8.765625 8.660156 9.296875 9.078125 C 9.828125 9.5 10.792969 9.46875 11.144531 9.519531 C 11.496094 9.574219 11.609375 9.71875 11.609375 9.71875 C 11.609375 9.71875 10.828125 12.667969 7.667969 14.492188 C 5.453125 15.773438 3.058594 15.589844 2.027344 15.230469 C 2.230469 14.585938 1.898438 14.21875 1.382812 14.019531 C 1.84375 13.789062 3.246094 13.066406 3.976562 12.511719 Z M 3.976562 12.511719"/><use mask="url(#mask3)" xlink:href="#surface14"/><path style="stroke:none;fill-rule:nonzero;fill:url(#linear3)" d="M 10.164062 9.375 C 10.164062 9.375 10.152344 9.402344 10.132812 9.449219 C 10.113281 9.496094 10.085938 9.574219 10.042969 9.652344 C 9.960938 9.816406 9.828125 10.054688 9.652344 10.332031 C 9.566406 10.472656 9.464844 10.617188 9.355469 10.769531 C 9.242188 10.921875 9.125 11.082031 8.992188 11.242188 C 8.867188 11.40625 8.722656 11.5625 8.582031 11.726562 C 8.433594 11.882812 8.285156 12.046875 8.121094 12.195312 L 7.882812 12.421875 C 7.800781 12.496094 7.714844 12.566406 7.632812 12.636719 C 7.472656 12.78125 7.296875 12.902344 7.132812 13.027344 C 6.964844 13.152344 6.792969 13.253906 6.636719 13.359375 C 6.472656 13.457031 6.3125 13.542969 6.167969 13.625 C 6.019531 13.699219 5.878906 13.757812 5.757812 13.816406 C 5.636719 13.875 5.523438 13.90625 5.429688 13.941406 C 5.25 14.007812 5.144531 14.046875 5.144531 14.046875 C 5.144531 14.046875 5.25 14.015625 5.4375 13.957031 C 5.527344 13.925781 5.644531 13.898438 5.769531 13.84375 C 5.894531 13.792969 6.039062 13.738281 6.191406 13.671875 C 6.339844 13.597656 6.503906 13.519531 6.671875 13.429688 C 6.835938 13.328125 7.015625 13.234375 7.191406 13.117188 C 7.363281 12.996094 7.546875 12.878906 7.714844 12.742188 C 7.800781 12.675781 7.894531 12.609375 7.980469 12.539062 L 8.234375 12.320312 C 8.402344 12.171875 8.5625 12.015625 8.722656 11.863281 C 8.875 11.703125 9.027344 11.550781 9.167969 11.390625 C 9.308594 11.234375 9.433594 11.074219 9.558594 10.925781 C 9.675781 10.773438 9.789062 10.628906 9.882812 10.488281 C 10.078125 10.210938 10.226562 9.972656 10.324219 9.792969 C 10.378906 9.703125 10.40625 9.636719 10.429688 9.585938 C 10.453125 9.542969 10.464844 9.515625 10.464844 9.515625 Z M 10.164062 9.375"/><path style="stroke:none;fill-rule:nonzero;fill:#f9e68f;fill-opacity:1" d="M 3.722656 11.265625 C 3.101562 11.433594 2.480469 11.597656 1.921875 11.3125 C 1.914062 11.296875 1.90625 11.28125 1.898438 11.265625 C 1.855469 11.078125 1.984375 10.898438 2.109375 10.753906 C 2.433594 10.378906 2.769531 10.011719 3.113281 9.652344 C 3.839844 8.902344 4.460938 8.289062 5.394531 7.820312 C 6.328125 7.351562 7.347656 6.980469 8.578125 7.492188 C 10.222656 8.179688 10.5625 9.164062 10.625 9.515625 C 8.0625 8.808594 6.121094 10.382812 3.722656 11.265625 Z M 3.722656 11.265625"/><path style="stroke:none;fill-rule:nonzero;fill:#f5ca2c;fill-opacity:1" d="M 3.722656 11.265625 C 6.117188 10.382812 8.121094 8.726562 10.636719 9.480469 C 10.65625 9.601562 10.628906 9.503906 10.628906 9.503906 C 10.242188 9.453125 9.710938 9.417969 9.082031 9.484375 C 8.871094 9.507812 8.421875 9.566406 7.820312 9.75 C 7.078125 9.976562 6.738281 10.195312 5.871094 10.625 C 4.308594 11.402344 3.320312 11.609375 2.507812 11.585938 C 2.277344 11.578125 2.007812 11.511719 1.921875 11.3125 C 2.480469 11.597656 3.101562 11.433594 3.722656 11.265625 Z M 3.722656 11.265625"/><use mask="url(#mask4)" xlink:href="#surface17"/></g></svg>