<svg xmlns="http://www.w3.org/2000/svg" xmlns:xlink="http://www.w3.org/1999/xlink" width="16pt" height="16pt" version="1.1" viewBox="0 0 16 16"><defs><linearGradient id="linear0" x1="56.126" x2="56.126" y1="34.818" y2="123.07" gradientTransform="matrix(0.125,0,0,0.125,0,0)" gradientUnits="userSpaceOnUse"><stop offset=".005" style="stop-color:#eee;stop-opacity:1"/><stop offset=".282" style="stop-color:#eaeaea;stop-opacity:1"/><stop offset=".577" style="stop-color:#ddd;stop-opacity:1"/><stop offset=".879" style="stop-color:#c8c8c8;stop-opacity:1"/><stop offset="1" style="stop-color:#bdbdbd;stop-opacity:1"/></linearGradient><filter id="alpha" width="100%" height="100%" x="0%" y="0%" filterUnits="objectBoundingBox"><feColorMatrix in="SourceGraphic" type="matrix" values="0 0 0 0 1 0 0 0 0 1 0 0 0 0 1 0 0 0 1 0"/></filter><mask id="mask0"><g filter="url(#alpha)"><rect width="16" height="16" x="0" y="0" style="fill:#000;fill-opacity:.2;stroke:none"/></g></mask><clipPath id="clip1"><rect width="16" height="16" x="0" y="0"/></clipPath><g id="surface5" clip-path="url(#clip1)"><path style="stroke:none;fill-rule:nonzero;fill:#424242;fill-opacity:1" d="M 2.980469 4.6875 L 11.054688 4.6875 L 10.949219 13.363281 C 10.949219 14.007812 10.25 14.414062 9.667969 14.640625 C 8.804688 14.976562 7.757812 15.097656 7.0625 15.097656 C 6.359375 15.097656 5.296875 14.980469 4.425781 14.648438 C 3.828125 14.421875 3.121094 14.015625 3.121094 13.375 Z M 2.597656 4.3125 L 2.746094 13.378906 C 2.746094 14.902344 5.429688 15.472656 7.0625 15.472656 C 8.695312 15.472656 11.320312 14.890625 11.320312 13.363281 L 11.429688 4.3125 Z M 2.597656 4.3125"/></g><linearGradient id="linear1" x1="56.08" x2="56.08" y1="38.92" y2="121.07" gradientTransform="matrix(0.125,0,0,0.125,0,0)" gradientUnits="userSpaceOnUse"><stop offset="0" style="stop-color:#ffb300;stop-opacity:1"/><stop offset="1" style="stop-color:#ffea00;stop-opacity:1"/></linearGradient><linearGradient id="linear2" x1="103.92" x2="103.92" y1="41.895" y2="103.19" gradientTransform="matrix(0.125,0,0,0.125,0,0)" gradientUnits="userSpaceOnUse"><stop offset=".005" style="stop-color:#eee;stop-opacity:1"/><stop offset=".282" style="stop-color:#eaeaea;stop-opacity:1"/><stop offset=".577" style="stop-color:#ddd;stop-opacity:1"/><stop offset=".879" style="stop-color:#c8c8c8;stop-opacity:1"/><stop offset="1" style="stop-color:#bdbdbd;stop-opacity:1"/></linearGradient><mask id="mask1"><g filter="url(#alpha)"><rect width="16" height="16" x="0" y="0" style="fill:#000;fill-opacity:.2;stroke:none"/></g></mask><clipPath id="clip2"><rect width="16" height="16" x="0" y="0"/></clipPath><g id="surface8" clip-path="url(#clip2)"><path style="stroke:none;fill-rule:nonzero;fill:#424242;fill-opacity:1" d="M 11.78125 5.140625 C 12.058594 5.359375 12.558594 5.675781 13.3125 5.808594 C 13.777344 5.890625 14.050781 5.988281 14.261719 6.304688 C 14.554688 6.761719 14.679688 7.617188 14.640625 8.921875 C 14.558594 11.535156 14.226562 11.898438 12.945312 12.203125 C 12.152344 12.390625 11.675781 12.574219 11.402344 12.707031 L 11.335938 12.632812 L 11.363281 9.484375 L 11.398438 5.402344 Z M 12.839844 11.085938 C 13.207031 11.085938 13.6875 10.945312 13.882812 10.277344 C 13.996094 9.890625 13.996094 9.394531 13.996094 8.871094 C 13.996094 8.347656 13.996094 7.851562 13.882812 7.464844 C 13.6875 6.796875 13.207031 6.65625 12.839844 6.65625 C 12.472656 6.65625 11.996094 6.796875 11.800781 7.464844 C 11.6875 7.851562 11.6875 8.347656 11.6875 8.871094 C 11.6875 9.753906 11.6875 11.085938 12.839844 11.085938 M 11.820312 4.660156 L 11.023438 5.203125 L 10.988281 9.480469 L 10.957031 12.769531 L 11.324219 13.1875 C 11.324219 13.1875 11.691406 12.882812 13.03125 12.566406 C 14.574219 12.199219 14.933594 11.59375 15.015625 8.933594 C 15.109375 5.886719 14.292969 5.597656 13.375 5.4375 C 12.300781 5.25 11.820312 4.660156 11.820312 4.660156 Z M 12.839844 10.710938 C 12.109375 10.710938 12.0625 9.886719 12.0625 8.871094 C 12.0625 7.855469 12.0625 7.03125 12.839844 7.03125 C 13.621094 7.03125 13.621094 7.855469 13.621094 8.871094 C 13.621094 9.886719 13.621094 10.710938 12.839844 10.710938 Z M 12.839844 10.710938"/></g><mask id="mask2"><g filter="url(#alpha)"><rect width="16" height="16" x="0" y="0" style="fill:#000;fill-opacity:.509804;stroke:none"/></g></mask><clipPath id="clip3"><rect width="16" height="16" x="0" y="0"/></clipPath><g id="surface11" clip-path="url(#clip3)"><path style="stroke:none;fill-rule:nonzero;fill:#fff;fill-opacity:.721569" d="M 9.355469 12.277344 C 9.058594 12.316406 8.792969 12.082031 8.792969 11.78125 L 8.792969 7.269531 C 8.792969 7.015625 8.980469 6.804688 9.234375 6.773438 C 9.53125 6.738281 9.792969 6.96875 9.792969 7.269531 L 9.792969 11.78125 C 9.792969 12.035156 9.605469 12.246094 9.355469 12.277344 Z M 9.355469 12.277344"/></g><mask id="mask3"><g filter="url(#alpha)"><rect width="16" height="16" x="0" y="0" style="fill:#000;fill-opacity:.509804;stroke:none"/></g></mask><clipPath id="clip4"><rect width="16" height="16" x="0" y="0"/></clipPath><g id="surface14" clip-path="url(#clip4)"><path style="stroke:none;fill-rule:nonzero;fill:#fff;fill-opacity:.721569" d="M 7.605469 12.902344 C 7.308594 12.941406 7.042969 12.707031 7.042969 12.40625 L 7.042969 7.894531 C 7.042969 7.640625 7.230469 7.429688 7.484375 7.398438 C 7.78125 7.363281 8.042969 7.59375 8.042969 7.894531 L 8.042969 12.40625 C 8.042969 12.660156 7.855469 12.871094 7.605469 12.902344 Z M 7.605469 12.902344"/></g><linearGradient id="linear3" x1="12" x2="97" y1="32.5" y2="32.5" gradientTransform="matrix(0.125,0,0,0.125,0,0)" gradientUnits="userSpaceOnUse"><stop offset=".005" style="stop-color:#eee;stop-opacity:1"/><stop offset=".488" style="stop-color:#f2f2f2;stop-opacity:1"/><stop offset="1" style="stop-color:#fff;stop-opacity:1"/></linearGradient><mask id="mask4"><g filter="url(#alpha)"><rect width="16" height="16" x="0" y="0" style="fill:#000;fill-opacity:.2;stroke:none"/></g></mask><clipPath id="clip5"><rect width="16" height="16" x="0" y="0"/></clipPath><g id="surface17" clip-path="url(#clip5)"><path style="stroke:none;fill-rule:nonzero;fill:#424242;fill-opacity:1" d="M 7.625 1 C 7.980469 1 8.320312 1.113281 8.605469 1.332031 C 8.671875 1.382812 8.75 1.40625 8.832031 1.40625 C 8.859375 1.40625 8.886719 1.40625 8.910156 1.398438 C 8.984375 1.382812 9.054688 1.375 9.125 1.375 C 9.359375 1.375 9.589844 1.460938 9.769531 1.613281 C 9.96875 1.785156 10.234375 1.878906 10.515625 1.878906 C 10.535156 1.878906 10.558594 1.878906 10.578125 1.875 C 10.59375 1.875 10.609375 1.875 10.625 1.875 C 10.667969 1.875 10.710938 1.878906 10.753906 1.882812 C 11.230469 1.945312 11.605469 2.351562 11.625 2.832031 C 11.628906 2.929688 11.617188 3.03125 11.59375 3.128906 C 11.53125 3.363281 11.550781 3.609375 11.65625 3.824219 C 11.742188 4.007812 11.769531 4.210938 11.738281 4.417969 C 11.667969 4.84375 11.304688 5.191406 10.875 5.242188 C 10.832031 5.246094 10.792969 5.25 10.75 5.25 C 10.5625 5.25 10.378906 5.199219 10.21875 5.097656 C 10.054688 4.996094 9.867188 4.941406 9.671875 4.941406 C 9.40625 4.941406 9.148438 5.039062 8.949219 5.21875 C 8.652344 5.480469 8.269531 5.625 7.875 5.625 C 7.527344 5.625 7.179688 5.511719 6.902344 5.300781 C 6.804688 5.226562 6.6875 5.1875 6.566406 5.1875 C 6.351562 5.1875 6.15625 5.3125 6.070312 5.507812 C 5.953125 5.769531 5.84375 6.050781 5.804688 6.347656 C 5.722656 7.03125 5.398438 7.125 5.09375 7.125 C 4.589844 7.125 4.484375 6.859375 4.335938 6.347656 C 4.238281 6.03125 4.140625 5.699219 3.851562 5.515625 C 3.757812 5.453125 3.660156 5.414062 3.578125 5.382812 C 3.535156 5.363281 3.496094 5.347656 3.464844 5.332031 C 3.410156 5.304688 3.25 5.226562 3.25 4.875 C 3.25 4.667969 3.082031 4.5 2.875 4.5 C 2.726562 4.5 2.597656 4.585938 2.539062 4.710938 C 2.519531 4.722656 2.496094 4.734375 2.457031 4.746094 C 2.453125 4.746094 2.433594 4.753906 2.390625 4.753906 C 2.359375 4.753906 2.320312 4.75 2.28125 4.742188 C 2.082031 4.707031 1.921875 4.542969 1.886719 4.347656 C 1.839844 4.105469 1.964844 3.925781 2.097656 3.835938 C 2.210938 3.757812 2.273438 3.625 2.257812 3.484375 C 2.253906 3.445312 2.25 3.410156 2.25 3.375 C 2.25 2.824219 2.699219 2.375 3.25 2.375 C 3.292969 2.375 3.335938 2.378906 3.390625 2.386719 C 3.410156 2.390625 3.429688 2.390625 3.445312 2.390625 C 3.589844 2.390625 3.722656 2.308594 3.785156 2.175781 C 4.054688 1.613281 4.628906 1.25 5.25 1.25 C 5.539062 1.25 5.828125 1.328125 6.078125 1.480469 C 6.140625 1.515625 6.203125 1.53125 6.269531 1.53125 C 6.363281 1.53125 6.453125 1.496094 6.523438 1.429688 C 6.828125 1.152344 7.21875 1 7.625 1 M 7.625 0.625 C 7.101562 0.625 6.625 0.828125 6.269531 1.15625 C 5.972656 0.980469 5.621094 0.875 5.25 0.875 C 4.453125 0.875 3.765625 1.339844 3.445312 2.015625 C 3.382812 2.007812 3.316406 2 3.25 2 C 2.488281 2 1.875 2.613281 1.875 3.375 C 1.875 3.425781 1.878906 3.476562 1.882812 3.527344 C 1.609375 3.710938 1.449219 4.046875 1.515625 4.414062 C 1.578125 4.765625 1.863281 5.046875 2.214844 5.109375 C 2.269531 5.121094 2.332031 5.128906 2.390625 5.128906 C 2.457031 5.128906 2.519531 5.121094 2.578125 5.101562 C 2.875 5 2.875 4.875 2.875 4.875 C 2.875 5.203125 2.984375 5.511719 3.296875 5.667969 C 3.410156 5.726562 3.542969 5.757812 3.648438 5.828125 C 4.132812 6.140625 3.832031 7.5 5.09375 7.5 C 5.9375 7.5 6.125 6.835938 6.179688 6.394531 C 6.207031 6.148438 6.304688 5.90625 6.414062 5.660156 C 6.441406 5.597656 6.503906 5.5625 6.566406 5.5625 C 6.605469 5.5625 6.644531 5.578125 6.675781 5.601562 C 7.019531 5.859375 7.445312 6 7.875 6 C 8.382812 6 8.84375 5.8125 9.195312 5.5 C 9.332031 5.378906 9.5 5.316406 9.671875 5.316406 C 9.792969 5.316406 9.914062 5.347656 10.019531 5.417969 C 10.234375 5.546875 10.484375 5.625 10.75 5.625 C 10.804688 5.625 10.859375 5.621094 10.917969 5.613281 C 11.515625 5.542969 12.011719 5.074219 12.105469 4.476562 C 12.152344 4.183594 12.105469 3.902344 11.992188 3.664062 C 11.925781 3.527344 11.914062 3.371094 11.953125 3.226562 C 11.988281 3.097656 12.003906 2.957031 12 2.816406 C 11.96875 2.15625 11.457031 1.597656 10.800781 1.511719 C 10.742188 1.503906 10.683594 1.5 10.625 1.5 C 10.601562 1.5 10.582031 1.5 10.558594 1.5 C 10.546875 1.503906 10.53125 1.503906 10.515625 1.503906 C 10.332031 1.503906 10.152344 1.445312 10.015625 1.328125 C 9.773438 1.125 9.464844 1 9.125 1 C 9.023438 1 8.925781 1.011719 8.832031 1.03125 C 8.496094 0.777344 8.078125 0.625 7.625 0.625 Z M 7.625 0.625"/></g></defs><g id="surface1"><path style="stroke:none;fill-rule:nonzero;fill:url(#linear0)" d="M 10.804688 4.3125 L 2.597656 4.3125 L 2.75 13.378906 C 2.75 14.902344 5.429688 15.472656 7.0625 15.472656 C 8.695312 15.472656 11.324219 14.890625 11.324219 13.363281 L 11.433594 4.3125 Z M 10.804688 4.3125"/><use mask="url(#mask0)" xlink:href="#surface5"/><path style="stroke:none;fill-rule:nonzero;fill:url(#linear1)" d="M 10.539062 4.5 L 10.496094 12.777344 C 10.460938 13.0625 10.230469 13.335938 9.914062 13.480469 C 9.34375 13.742188 8.234375 14 7.003906 14 C 5.828125 14 4.828125 13.765625 4.246094 13.519531 C 3.878906 13.363281 3.582031 13.050781 3.539062 12.78125 L 3.484375 4.5 Z M 10.539062 4.5"/><path style="stroke:none;fill-rule:nonzero;fill:#e4a324;fill-opacity:1" d="M 5.195312 12.738281 C 5.195312 12.832031 5.121094 12.910156 5.027344 12.910156 C 4.933594 12.910156 4.859375 12.832031 4.859375 12.738281 C 4.859375 12.648438 4.933594 12.570312 5.027344 12.570312 C 5.121094 12.570312 5.195312 12.648438 5.195312 12.738281 Z M 5.195312 12.738281"/><path style="stroke:none;fill-rule:nonzero;fill:#e4a324;fill-opacity:1" d="M 4.769531 12.277344 C 4.769531 12.339844 4.71875 12.390625 4.652344 12.390625 C 4.589844 12.390625 4.539062 12.339844 4.539062 12.277344 C 4.539062 12.210938 4.589844 12.160156 4.652344 12.160156 C 4.71875 12.160156 4.769531 12.210938 4.769531 12.277344 Z M 4.769531 12.277344"/><path style="stroke:none;fill-rule:nonzero;fill:#e4a324;fill-opacity:1" d="M 5.605469 12.058594 C 5.605469 12.171875 5.511719 12.265625 5.398438 12.265625 C 5.289062 12.265625 5.195312 12.171875 5.195312 12.058594 C 5.195312 11.949219 5.289062 11.855469 5.398438 11.855469 C 5.511719 11.855469 5.605469 11.949219 5.605469 12.058594 Z M 5.605469 12.058594"/><path style="stroke:none;fill-rule:nonzero;fill:#e4a324;fill-opacity:1" d="M 4.902344 11.851562 C 4.902344 11.964844 4.808594 12.058594 4.691406 12.058594 C 4.574219 12.058594 4.480469 11.964844 4.480469 11.851562 C 4.480469 11.734375 4.574219 11.640625 4.691406 11.640625 C 4.808594 11.640625 4.902344 11.734375 4.902344 11.851562 Z M 4.902344 11.851562"/><path style="stroke:none;fill-rule:nonzero;fill:#e4a324;fill-opacity:1" d="M 5.53125 10.953125 C 5.53125 11.042969 5.457031 11.121094 5.363281 11.121094 C 5.269531 11.121094 5.195312 11.042969 5.195312 10.953125 C 5.195312 10.859375 5.269531 10.78125 5.363281 10.78125 C 5.457031 10.78125 5.53125 10.859375 5.53125 10.953125 Z M 5.53125 10.953125"/><path style="stroke:none;fill-rule:nonzero;fill:#e4a324;fill-opacity:1" d="M 5.070312 11.03125 C 5.070312 11.117188 5.003906 11.183594 4.921875 11.183594 C 4.835938 11.183594 4.769531 11.117188 4.769531 11.03125 C 4.769531 10.949219 4.835938 10.882812 4.921875 10.882812 C 5.003906 10.882812 5.070312 10.949219 5.070312 11.03125 Z M 5.070312 11.03125"/><path style="stroke:none;fill-rule:nonzero;fill:#e4a324;fill-opacity:1" d="M 4.433594 10.066406 C 4.433594 10.148438 4.367188 10.214844 4.285156 10.214844 C 4.199219 10.214844 4.132812 10.148438 4.132812 10.066406 C 4.132812 9.984375 4.199219 9.917969 4.285156 9.917969 C 4.367188 9.917969 4.433594 9.984375 4.433594 10.066406 Z M 4.433594 10.066406"/><path style="stroke:none;fill-rule:nonzero;fill:#e4a324;fill-opacity:1" d="M 5.914062 9.175781 C 5.914062 9.28125 5.828125 9.363281 5.722656 9.363281 C 5.617188 9.363281 5.53125 9.28125 5.53125 9.175781 C 5.53125 9.070312 5.617188 8.984375 5.722656 8.984375 C 5.828125 8.984375 5.914062 9.070312 5.914062 9.175781 Z M 5.914062 9.175781"/><path style="stroke:none;fill-rule:nonzero;fill:#e4a324;fill-opacity:1" d="M 5.003906 10.550781 C 5.003906 10.679688 4.898438 10.785156 4.769531 10.785156 C 4.640625 10.785156 4.539062 10.679688 4.539062 10.550781 C 4.539062 10.421875 4.640625 10.320312 4.769531 10.320312 C 4.898438 10.320312 5.003906 10.421875 5.003906 10.550781 Z M 5.003906 10.550781"/><path style="stroke:none;fill-rule:nonzero;fill:#e4a324;fill-opacity:1" d="M 5.605469 9.839844 C 5.605469 9.964844 5.5 10.066406 5.375 10.066406 C 5.25 10.066406 5.148438 9.964844 5.148438 9.839844 C 5.148438 9.714844 5.25 9.609375 5.375 9.609375 C 5.5 9.609375 5.605469 9.714844 5.605469 9.839844 Z M 5.605469 9.839844"/><path style="stroke:none;fill-rule:nonzero;fill:#e4a324;fill-opacity:1" d="M 4.769531 9.5625 C 4.769531 9.65625 4.695312 9.730469 4.601562 9.730469 C 4.507812 9.730469 4.433594 9.65625 4.433594 9.5625 C 4.433594 9.46875 4.507812 9.390625 4.601562 9.390625 C 4.695312 9.390625 4.769531 9.46875 4.769531 9.5625 Z M 4.769531 9.5625"/><path style="stroke:none;fill-rule:nonzero;fill:url(#linear2)" d="M 10.988281 9.480469 L 10.957031 12.769531 L 11.324219 13.1875 C 11.324219 13.1875 11.691406 12.882812 13.03125 12.566406 C 14.574219 12.199219 14.933594 11.59375 15.015625 8.933594 C 15.109375 5.886719 14.292969 5.597656 13.375 5.4375 C 12.300781 5.25 11.820312 4.660156 11.820312 4.660156 L 11.023438 5.203125 Z M 12.0625 8.871094 C 12.0625 7.855469 12.0625 7.03125 12.839844 7.03125 C 13.621094 7.03125 13.621094 7.855469 13.621094 8.871094 C 13.621094 9.890625 13.621094 10.710938 12.839844 10.710938 C 12.109375 10.710938 12.0625 9.886719 12.0625 8.871094 Z M 12.0625 8.871094"/><use mask="url(#mask1)" xlink:href="#surface8"/><use mask="url(#mask2)" xlink:href="#surface11"/><use mask="url(#mask3)" xlink:href="#surface14"/><path style="stroke:none;fill-rule:nonzero;fill:url(#linear3)" d="M 11.992188 3.660156 C 11.925781 3.523438 11.914062 3.371094 11.953125 3.226562 C 11.988281 3.09375 12.007812 2.957031 12 2.8125 C 11.972656 2.15625 11.457031 1.597656 10.804688 1.511719 C 10.722656 1.5 10.640625 1.496094 10.558594 1.5 C 10.363281 1.511719 10.164062 1.457031 10.015625 1.328125 C 9.773438 1.125 9.464844 1 9.125 1 C 9.023438 1 8.925781 1.011719 8.832031 1.03125 C 8.496094 0.777344 8.078125 0.625 7.625 0.625 C 7.101562 0.625 6.625 0.828125 6.269531 1.15625 C 5.972656 0.980469 5.621094 0.875 5.25 0.875 C 4.453125 0.875 3.765625 1.339844 3.445312 2.015625 C 3.382812 2.007812 3.316406 2 3.25 2 C 2.488281 2 1.875 2.613281 1.875 3.375 C 1.875 3.425781 1.878906 3.476562 1.882812 3.527344 C 1.609375 3.710938 1.449219 4.046875 1.515625 4.414062 C 1.578125 4.765625 1.863281 5.046875 2.214844 5.109375 C 2.328125 5.132812 2.464844 5.140625 2.578125 5.101562 C 2.875 5 2.875 4.875 2.875 4.875 C 2.875 5.203125 2.984375 5.511719 3.296875 5.667969 C 3.410156 5.726562 3.542969 5.757812 3.648438 5.828125 C 4.132812 6.140625 3.832031 7.5 5.09375 7.5 C 5.9375 7.5 6.125 6.835938 6.179688 6.394531 C 6.207031 6.148438 6.304688 5.90625 6.414062 5.660156 C 6.457031 5.558594 6.585938 5.53125 6.675781 5.601562 C 7.019531 5.859375 7.445312 6 7.875 6 C 8.382812 6 8.84375 5.8125 9.195312 5.5 C 9.425781 5.296875 9.761719 5.253906 10.019531 5.417969 C 10.277344 5.578125 10.585938 5.65625 10.917969 5.617188 C 11.515625 5.546875 12.011719 5.074219 12.105469 4.480469 C 12.152344 4.183594 12.109375 3.902344 11.992188 3.660156 Z M 11.992188 3.660156"/><use mask="url(#mask4)" xlink:href="#surface17"/></g></svg>