<svg xmlns="http://www.w3.org/2000/svg" xmlns:xlink="http://www.w3.org/1999/xlink" width="16pt" height="16pt" version="1.1" viewBox="0 0 16 16"><defs><filter id="alpha" width="100%" height="100%" x="0%" y="0%" filterUnits="objectBoundingBox"><feColorMatrix in="SourceGraphic" type="matrix" values="0 0 0 0 1 0 0 0 0 1 0 0 0 0 1 0 0 0 1 0"/></filter><mask id="mask0"><g filter="url(#alpha)"><rect width="16" height="16" x="0" y="0" style="fill:#000;fill-opacity:.2;stroke:none"/></g></mask><clipPath id="clip1"><rect width="16" height="16" x="0" y="0"/></clipPath><g id="surface5" clip-path="url(#clip1)"><path style="stroke:none;fill-rule:nonzero;fill:#eee;fill-opacity:1" d="M 9.925781 0.707031 C 9.964844 0.707031 10.003906 0.710938 10.042969 0.710938 C 10.511719 0.734375 10.917969 0.914062 11.1875 1.210938 C 11.4375 1.488281 11.558594 1.859375 11.535156 2.277344 C 11.484375 3.277344 10.886719 3.9375 10.355469 4.125 C 10.328125 4.136719 10.296875 4.140625 10.269531 4.140625 C 10.15625 4.140625 10.089844 4.039062 10.070312 3.9375 C 10.050781 3.828125 10.085938 3.691406 10.238281 3.636719 C 10.542969 3.53125 10.808594 3.210938 10.949219 2.78125 C 11.097656 2.335938 11.078125 1.890625 10.894531 1.613281 C 10.691406 1.3125 10.398438 1.160156 10.023438 1.160156 C 9.496094 1.160156 8.828125 1.457031 7.988281 2.074219 C 7.089844 2.726562 6.1875 3.316406 5.015625 3.316406 C 4.984375 3.316406 4.953125 3.316406 4.921875 3.3125 C 4.558594 3.304688 3.890625 3.234375 3.515625 2.886719 C 3.441406 2.820312 3.386719 2.75 3.34375 2.671875 C 3.289062 2.566406 3.332031 2.464844 3.359375 2.425781 C 3.410156 2.339844 3.496094 2.285156 3.578125 2.285156 C 3.621094 2.285156 3.660156 2.296875 3.695312 2.324219 C 3.742188 2.355469 3.78125 2.390625 3.816406 2.429688 L 3.835938 2.453125 C 3.914062 2.53125 4.003906 2.621094 4.144531 2.679688 C 4.339844 2.761719 4.550781 2.789062 4.734375 2.804688 C 4.828125 2.8125 4.921875 2.816406 5.019531 2.816406 C 5.671875 2.816406 6.304688 2.613281 6.957031 2.191406 C 7.183594 2.046875 7.402344 1.890625 7.617188 1.734375 C 8.347656 1.207031 9.035156 0.707031 9.925781 0.707031 M 9.925781 0.582031 C 8.71875 0.582031 7.851562 1.472656 6.890625 2.089844 C 6.316406 2.457031 5.695312 2.695312 5.019531 2.695312 C 4.925781 2.695312 4.835938 2.691406 4.742188 2.679688 C 4.558594 2.664062 4.367188 2.636719 4.191406 2.566406 C 4.0625 2.515625 3.988281 2.429688 3.90625 2.34375 C 3.863281 2.300781 3.820312 2.261719 3.765625 2.222656 C 3.707031 2.179688 3.640625 2.160156 3.578125 2.160156 C 3.320312 2.160156 3.09375 2.476562 3.234375 2.734375 C 3.285156 2.828125 3.355469 2.910156 3.429688 2.984375 C 3.808594 3.332031 4.453125 3.429688 4.921875 3.441406 C 4.953125 3.441406 4.984375 3.441406 5.015625 3.441406 C 6.207031 3.441406 7.125 2.859375 8.0625 2.175781 C 8.492188 1.863281 9.335938 1.289062 10.027344 1.289062 C 10.328125 1.289062 10.597656 1.398438 10.792969 1.6875 C 11.128906 2.191406 10.789062 3.316406 10.203125 3.523438 C 9.792969 3.667969 9.910156 4.269531 10.273438 4.269531 C 10.3125 4.269531 10.355469 4.261719 10.398438 4.246094 C 11.175781 3.96875 11.621094 3.070312 11.664062 2.285156 C 11.714844 1.296875 11.015625 0.636719 10.050781 0.585938 C 10.007812 0.585938 9.964844 0.582031 9.925781 0.582031 Z M 9.925781 0.582031"/></g><radialGradient id="radial0" cx="60.375" cy="67.033" r="47.649" fx="60.375" fy="67.033" gradientTransform="matrix(0.119538,0.03655,-0.03655,0.119538,2.8185,-1.888125)" gradientUnits="userSpaceOnUse"><stop offset=".231" style="stop-color:#616161;stop-opacity:1"/><stop offset=".928" style="stop-color:#212121;stop-opacity:1"/></radialGradient><mask id="mask1"><g filter="url(#alpha)"><rect width="16" height="16" x="0" y="0" style="fill:#000;fill-opacity:.2;stroke:none"/></g></mask><clipPath id="clip2"><rect width="16" height="16" x="0" y="0"/></clipPath><g id="surface8" clip-path="url(#clip2)"><path style="stroke:none;fill-rule:nonzero;fill:#eee;fill-opacity:1" d="M 9.652344 3.4375 C 9.707031 3.4375 9.773438 3.449219 9.84375 3.46875 L 11.429688 3.953125 C 11.601562 4.007812 11.703125 4.085938 11.730469 4.195312 C 11.730469 4.195312 11.730469 4.199219 11.730469 4.203125 L 12.136719 5.628906 C 12.15625 5.699219 12.195312 5.765625 12.25 5.8125 C 13.828125 7.183594 14.453125 9.363281 13.839844 11.367188 C 13.503906 12.476562 12.828125 13.421875 11.894531 14.101562 C 10.992188 14.761719 9.882812 15.125 8.769531 15.125 C 8.246094 15.125 7.726562 15.046875 7.21875 14.890625 C 5.863281 14.476562 4.753906 13.5625 4.085938 12.3125 C 3.421875 11.066406 3.285156 9.632812 3.699219 8.277344 C 4.304688 6.285156 6.042969 4.835938 8.117188 4.578125 C 8.191406 4.570312 8.261719 4.539062 8.316406 4.488281 L 9.460938 3.5 C 9.492188 3.472656 9.546875 3.4375 9.652344 3.4375 M 9.652344 3.0625 C 9.492188 3.0625 9.339844 3.109375 9.214844 3.21875 L 8.070312 4.203125 C 5.914062 4.472656 4.015625 5.953125 3.335938 8.167969 C 2.421875 11.164062 4.109375 14.332031 7.109375 15.25 C 7.660156 15.417969 8.21875 15.496094 8.769531 15.496094 C 11.199219 15.496094 13.453125 13.921875 14.199219 11.476562 C 14.875 9.261719 14.132812 6.953125 12.496094 5.527344 L 12.089844 4.097656 C 12.019531 3.832031 11.800781 3.671875 11.539062 3.59375 L 9.953125 3.109375 C 9.851562 3.078125 9.75 3.0625 9.652344 3.0625 Z M 9.652344 3.0625"/></g><linearGradient id="linear0" x1="28.667" x2="28.834" y1="2.689" y2="14.022" gradientTransform="matrix(0.125,0,0,0.125,0,0)" gradientUnits="userSpaceOnUse"><stop offset=".362" style="stop-color:#ff9100;stop-opacity:1"/><stop offset=".454" style="stop-color:#ff8a04;stop-opacity:1"/><stop offset=".589" style="stop-color:#ff760f;stop-opacity:1"/><stop offset=".751" style="stop-color:#ff5621;stop-opacity:1"/><stop offset=".931" style="stop-color:#ff2a39;stop-opacity:1"/><stop offset="1" style="stop-color:#ff1744;stop-opacity:1"/></linearGradient><linearGradient id="linear1" x1="13.25" x2="24.472" y1="13.82" y2="13.82" gradientTransform="matrix(0.125,0,0,0.125,0,0)" gradientUnits="userSpaceOnUse"><stop offset=".362" style="stop-color:#ff9100;stop-opacity:1"/><stop offset=".454" style="stop-color:#ff8a04;stop-opacity:1"/><stop offset=".589" style="stop-color:#ff760f;stop-opacity:1"/><stop offset=".751" style="stop-color:#ff5621;stop-opacity:1"/><stop offset=".931" style="stop-color:#ff2a39;stop-opacity:1"/><stop offset="1" style="stop-color:#ff1744;stop-opacity:1"/></linearGradient><linearGradient id="linear2" x1="13.52" x2="23.02" y1="25.321" y2="22.654" gradientTransform="matrix(0.125,0,0,0.125,0,0)" gradientUnits="userSpaceOnUse"><stop offset=".362" style="stop-color:#ff9100;stop-opacity:1"/><stop offset=".454" style="stop-color:#ff8a04;stop-opacity:1"/><stop offset=".589" style="stop-color:#ff760f;stop-opacity:1"/><stop offset=".751" style="stop-color:#ff5621;stop-opacity:1"/><stop offset=".931" style="stop-color:#ff2a39;stop-opacity:1"/><stop offset="1" style="stop-color:#ff1744;stop-opacity:1"/></linearGradient><linearGradient id="linear3" x1="19.648" x2="26.148" y1="36.347" y2="27.181" gradientTransform="matrix(0.125,0,0,0.125,0,0)" gradientUnits="userSpaceOnUse"><stop offset=".362" style="stop-color:#ff9100;stop-opacity:1"/><stop offset=".454" style="stop-color:#ff8a04;stop-opacity:1"/><stop offset=".589" style="stop-color:#ff760f;stop-opacity:1"/><stop offset=".751" style="stop-color:#ff5621;stop-opacity:1"/><stop offset=".931" style="stop-color:#ff2a39;stop-opacity:1"/><stop offset="1" style="stop-color:#ff1744;stop-opacity:1"/></linearGradient><linearGradient id="linear4" x1="29.578" x2="34.903" y1="38.598" y2="31.088" gradientTransform="matrix(0.0882125,-0.0885625,0.0885625,0.0882125,-1.97925,3.923625)" gradientUnits="userSpaceOnUse"><stop offset=".362" style="stop-color:#ff9100;stop-opacity:1"/><stop offset=".454" style="stop-color:#ff8a04;stop-opacity:1"/><stop offset=".589" style="stop-color:#ff760f;stop-opacity:1"/><stop offset=".751" style="stop-color:#ff5621;stop-opacity:1"/><stop offset=".931" style="stop-color:#ff2a39;stop-opacity:1"/><stop offset="1" style="stop-color:#ff1744;stop-opacity:1"/></linearGradient><linearGradient id="linear5" x1="34.528" x2="41.528" y1="14.587" y2="6.587" gradientTransform="matrix(0.125,0,0,0.125,0,0)" gradientUnits="userSpaceOnUse"><stop offset="0" style="stop-color:#ff1744;stop-opacity:1"/><stop offset=".069" style="stop-color:#ff2a39;stop-opacity:1"/><stop offset=".249" style="stop-color:#ff5621;stop-opacity:1"/><stop offset=".411" style="stop-color:#ff760f;stop-opacity:1"/><stop offset=".546" style="stop-color:#ff8a04;stop-opacity:1"/><stop offset=".638" style="stop-color:#ff9100;stop-opacity:1"/></linearGradient></defs><g id="surface1"><path style="stroke:none;fill-rule:nonzero;fill:#f44336;fill-opacity:1" d="M 3.90625 2.34375 C 3.863281 2.300781 3.820312 2.261719 3.765625 2.222656 C 3.453125 2.003906 3.058594 2.414062 3.234375 2.730469 C 3.285156 2.828125 3.351562 2.910156 3.429688 2.980469 C 3.742188 2.914062 3.914062 2.671875 3.90625 2.34375 Z M 3.90625 2.34375"/><path style="stroke:none;fill-rule:nonzero;fill:#212121;fill-opacity:1" d="M 10.050781 0.585938 C 8.777344 0.523438 7.882812 1.453125 6.890625 2.089844 C 6.238281 2.511719 5.53125 2.753906 4.742188 2.683594 C 4.558594 2.664062 4.367188 2.640625 4.191406 2.566406 C 4.0625 2.515625 3.988281 2.429688 3.90625 2.347656 C 3.914062 2.671875 3.742188 2.917969 3.433594 2.984375 C 3.8125 3.332031 4.453125 3.429688 4.921875 3.441406 C 6.160156 3.472656 7.101562 2.875 8.0625 2.175781 C 8.679688 1.726562 10.15625 0.734375 10.792969 1.6875 C 11.128906 2.191406 10.785156 3.316406 10.199219 3.523438 C 9.746094 3.683594 9.941406 4.40625 10.398438 4.246094 C 11.175781 3.972656 11.621094 3.074219 11.664062 2.289062 C 11.714844 1.296875 11.015625 0.636719 10.050781 0.585938 Z M 10.050781 0.585938"/><path style="stroke:none;fill-rule:nonzero;fill:#212121;fill-opacity:1" d="M 10.050781 0.585938 C 8.777344 0.523438 7.882812 1.453125 6.890625 2.089844 C 6.238281 2.511719 5.53125 2.753906 4.742188 2.683594 C 4.558594 2.664062 4.367188 2.640625 4.191406 2.566406 C 4.0625 2.515625 3.988281 2.429688 3.90625 2.347656 C 3.914062 2.671875 3.742188 2.917969 3.433594 2.984375 C 3.8125 3.332031 4.453125 3.429688 4.921875 3.441406 C 6.160156 3.472656 7.101562 2.875 8.0625 2.175781 C 8.679688 1.726562 10.15625 0.734375 10.792969 1.6875 C 11.128906 2.191406 10.785156 3.316406 10.199219 3.523438 C 9.746094 3.683594 9.941406 4.40625 10.398438 4.246094 C 11.175781 3.972656 11.621094 3.074219 11.664062 2.289062 C 11.714844 1.296875 11.015625 0.636719 10.050781 0.585938 Z M 10.050781 0.585938"/><use mask="url(#mask0)" xlink:href="#surface5"/><path style="stroke:none;fill-rule:nonzero;fill:url(#radial0)" d="M 12.496094 5.527344 L 12.089844 4.097656 C 12.019531 3.832031 11.800781 3.675781 11.539062 3.59375 L 9.953125 3.109375 C 9.6875 3.03125 9.421875 3.039062 9.210938 3.21875 L 8.070312 4.203125 C 5.914062 4.472656 4.011719 5.953125 3.335938 8.167969 C 2.421875 11.164062 4.109375 14.332031 7.109375 15.25 C 10.105469 16.164062 13.28125 14.476562 14.199219 11.476562 C 14.875 9.265625 14.136719 6.953125 12.496094 5.527344 Z M 12.496094 5.527344"/><use mask="url(#mask1)" xlink:href="#surface8"/><path style="stroke:none;fill-rule:nonzero;fill:url(#linear0)" d="M 3.582031 0.332031 L 3.792969 1.746094 L 3.417969 1.753906 Z M 3.582031 0.332031"/><path style="stroke:none;fill-rule:nonzero;fill:url(#linear1)" d="M 1.65625 1.234375 L 3.058594 1.902344 L 2.859375 2.222656 Z M 1.65625 1.234375"/><path style="stroke:none;fill-rule:nonzero;fill:url(#linear2)" d="M 1.4375 3.144531 L 2.851562 2.644531 L 2.929688 3.011719 Z M 1.4375 3.144531"/><path style="stroke:none;fill-rule:nonzero;fill:url(#linear3)" d="M 3.417969 3.511719 L 2.460938 4.570312 L 3.109375 3.296875 Z M 3.417969 3.511719"/><path style="stroke:none;fill-rule:nonzero;fill:url(#linear4)" d="M 4.003906 3.554688 L 4.066406 4.722656 L 3.703125 3.609375 Z M 4.003906 3.554688"/><path style="stroke:none;fill-rule:nonzero;fill:url(#linear5)" d="M 4.128906 1.75 L 5.207031 0.8125 L 4.410156 2 Z M 4.128906 1.75"/><path style="stroke:none;fill-rule:nonzero;fill:#f44336;fill-opacity:1" d="M 2.984375 1.273438 C 2.984375 1.339844 2.933594 1.390625 2.867188 1.390625 C 2.800781 1.390625 2.75 1.339844 2.75 1.273438 C 2.75 1.207031 2.800781 1.15625 2.867188 1.15625 C 2.933594 1.15625 2.984375 1.207031 2.984375 1.273438 Z M 2.984375 1.273438"/><path style="stroke:none;fill-rule:nonzero;fill:#f44336;fill-opacity:1" d="M 2.34375 2.421875 C 2.34375 2.492188 2.289062 2.546875 2.21875 2.546875 C 2.148438 2.546875 2.09375 2.492188 2.09375 2.421875 C 2.09375 2.351562 2.148438 2.296875 2.21875 2.296875 C 2.289062 2.296875 2.34375 2.351562 2.34375 2.421875 Z M 2.34375 2.421875"/><path style="stroke:none;fill-rule:nonzero;fill:#f44336;fill-opacity:1" d="M 4.875 2.171875 C 4.875 2.242188 4.820312 2.296875 4.75 2.296875 C 4.679688 2.296875 4.625 2.242188 4.625 2.171875 C 4.625 2.101562 4.679688 2.046875 4.75 2.046875 C 4.820312 2.046875 4.875 2.101562 4.875 2.171875 Z M 4.875 2.171875"/><path style="stroke:none;fill-rule:nonzero;fill:#f44336;fill-opacity:1" d="M 3.363281 4.113281 C 3.363281 4.15625 3.332031 4.1875 3.292969 4.1875 C 3.25 4.1875 3.21875 4.15625 3.21875 4.113281 C 3.21875 4.074219 3.25 4.042969 3.292969 4.042969 C 3.332031 4.042969 3.363281 4.074219 3.363281 4.113281 Z M 3.363281 4.113281"/><path style="stroke:none;fill-rule:nonzero;fill:#f44336;fill-opacity:1" d="M 2.296875 3.6875 C 2.296875 3.757812 2.242188 3.8125 2.171875 3.8125 C 2.101562 3.8125 2.046875 3.757812 2.046875 3.6875 C 2.046875 3.617188 2.101562 3.5625 2.171875 3.5625 C 2.242188 3.5625 2.296875 3.617188 2.296875 3.6875 Z M 2.296875 3.6875"/></g></svg>