<svg xmlns="http://www.w3.org/2000/svg" xmlns:xlink="http://www.w3.org/1999/xlink" width="16pt" height="16pt" version="1.1" viewBox="0 0 16 16"><defs><linearGradient id="linear0" x1="20.408" x2="46.972" y1="4.961" y2="61.042" gradientTransform="matrix(0.125,0,0,0.125,0,0)" gradientUnits="userSpaceOnUse"><stop offset=".294" style="stop-color:#fff;stop-opacity:1"/><stop offset=".411" style="stop-color:#f2f2f2;stop-opacity:1"/><stop offset=".628" style="stop-color:#cfcfcf;stop-opacity:1"/><stop offset=".918" style="stop-color:#989898;stop-opacity:1"/><stop offset="1" style="stop-color:#878787;stop-opacity:1"/></linearGradient><linearGradient id="linear1" x1="28.27" x2="41.341" y1="21.523" y2="49.118" gradientTransform="matrix(0.125,0,0,0.125,0,0)" gradientUnits="userSpaceOnUse"><stop offset=".163" style="stop-color:#ff87a8;stop-opacity:1"/><stop offset=".306" style="stop-color:#f87c9f;stop-opacity:1"/><stop offset=".998" style="stop-color:#d94874;stop-opacity:1"/></linearGradient><linearGradient id="linear2" x1="67.822" x2="94.386" y1="4.961" y2="61.041" gradientTransform="matrix(-0.125,0,0,0.125,21.92625,0)" gradientUnits="userSpaceOnUse"><stop offset=".294" style="stop-color:#fff;stop-opacity:1"/><stop offset=".411" style="stop-color:#f2f2f2;stop-opacity:1"/><stop offset=".628" style="stop-color:#cfcfcf;stop-opacity:1"/><stop offset=".918" style="stop-color:#989898;stop-opacity:1"/><stop offset="1" style="stop-color:#878787;stop-opacity:1"/></linearGradient><linearGradient id="linear3" x1="75.684" x2="88.755" y1="21.523" y2="49.118" gradientTransform="matrix(-0.125,0,0,0.125,21.92625,0)" gradientUnits="userSpaceOnUse"><stop offset=".163" style="stop-color:#ff87a8;stop-opacity:1"/><stop offset=".306" style="stop-color:#f87c9f;stop-opacity:1"/><stop offset=".998" style="stop-color:#d94874;stop-opacity:1"/></linearGradient><linearGradient id="linear4" x1="63.998" x2="63.998" y1="122.1" y2="47.503" gradientTransform="matrix(0.125,0,0,0.125,0,0)" gradientUnits="userSpaceOnUse"><stop offset="0" style="stop-color:#d4d4d4;stop-opacity:1"/><stop offset=".292" style="stop-color:#e3e3e3;stop-opacity:1"/><stop offset=".706" style="stop-color:#fff;stop-opacity:1"/></linearGradient><linearGradient id="linear5" x1="63.999" x2="63.999" y1="89.346" y2="99.888" gradientTransform="matrix(0.125,0,0,0.125,0,0)" gradientUnits="userSpaceOnUse"><stop offset=".163" style="stop-color:#ff87a8;stop-opacity:1"/><stop offset=".69" style="stop-color:#ff6492;stop-opacity:1"/><stop offset="1" style="stop-color:#ff5589;stop-opacity:1"/></linearGradient></defs><g id="surface1"><path style="stroke:none;fill-rule:nonzero;fill:url(#linear0)" d="M 6.628906 8.988281 C 6.058594 8.988281 4.003906 7.585938 2.886719 5.375 C 1.609375 2.851562 1.394531 0.894531 2.34375 0.386719 C 2.429688 0.339844 2.53125 0.316406 2.640625 0.316406 C 3.554688 0.316406 4.96875 1.808594 6.007812 3.863281 C 7.28125 6.378906 6.949219 8.804688 6.667969 8.984375 C 6.664062 8.984375 6.652344 8.988281 6.628906 8.988281 Z M 6.628906 8.988281"/><path style="stroke:none;fill-rule:nonzero;fill:#b0b0b0;fill-opacity:1" d="M 2.640625 0.507812 C 3.347656 0.507812 4.707031 1.714844 5.835938 3.949219 C 6.335938 4.9375 6.652344 6.078125 6.722656 7.167969 C 6.785156 8.082031 6.652344 8.617188 6.570312 8.792969 C 6.039062 8.695312 4.140625 7.425781 3.058594 5.289062 C 1.851562 2.902344 1.601562 1.003906 2.433594 0.558594 C 2.496094 0.523438 2.5625 0.507812 2.640625 0.507812 M 2.640625 0.125 C 2.503906 0.125 2.371094 0.15625 2.253906 0.21875 C 1.117188 0.824219 1.46875 2.996094 2.714844 5.460938 C 3.863281 7.730469 5.960938 9.179688 6.628906 9.179688 C 6.6875 9.179688 6.734375 9.171875 6.769531 9.148438 C 7.230469 8.855469 7.425781 6.242188 6.179688 3.777344 C 5.085938 1.617188 3.625 0.125 2.640625 0.125 Z M 2.640625 0.125"/><path style="stroke:none;fill-rule:nonzero;fill:url(#linear1)" d="M 5.285156 4.261719 C 5.875 5.425781 5.78125 6.664062 5.566406 6.800781 C 5.359375 6.933594 4.234375 6.226562 3.644531 5.058594 C 3.054688 3.890625 2.890625 2.863281 3.425781 2.578125 C 3.878906 2.335938 4.695312 3.09375 5.285156 4.261719 Z M 5.285156 4.261719"/><path style="stroke:none;fill-rule:nonzero;fill:url(#linear2)" d="M 9.371094 8.988281 C 9.34375 8.988281 9.332031 8.984375 9.332031 8.984375 C 9.050781 8.804688 8.71875 6.382812 9.992188 3.863281 C 11.03125 1.808594 12.445312 0.316406 13.359375 0.316406 C 13.46875 0.316406 13.566406 0.339844 13.65625 0.386719 C 14.601562 0.894531 14.390625 2.851562 13.113281 5.375 C 11.996094 7.585938 9.941406 8.988281 9.371094 8.988281 Z M 9.371094 8.988281"/><path style="stroke:none;fill-rule:nonzero;fill:#b0b0b0;fill-opacity:1" d="M 13.359375 0.507812 C 13.4375 0.507812 13.503906 0.523438 13.566406 0.558594 C 14.398438 1.003906 14.148438 2.90625 12.941406 5.289062 C 11.863281 7.425781 9.964844 8.691406 9.429688 8.792969 C 9.347656 8.617188 9.214844 8.082031 9.277344 7.167969 C 9.351562 6.078125 9.664062 4.9375 10.164062 3.949219 C 11.292969 1.714844 12.652344 0.507812 13.359375 0.507812 M 13.359375 0.125 C 12.375 0.125 10.914062 1.617188 9.820312 3.777344 C 8.574219 6.242188 8.773438 8.855469 9.234375 9.148438 C 9.265625 9.171875 9.316406 9.179688 9.371094 9.179688 C 10.042969 9.179688 12.140625 7.730469 13.285156 5.460938 C 14.53125 2.996094 14.882812 0.828125 13.746094 0.21875 C 13.628906 0.15625 13.5 0.125 13.359375 0.125 Z M 13.359375 0.125"/><path style="stroke:none;fill-rule:nonzero;fill:url(#linear3)" d="M 10.714844 4.261719 C 10.125 5.425781 10.21875 6.664062 10.433594 6.800781 C 10.640625 6.933594 11.765625 6.226562 12.355469 5.058594 C 12.945312 3.890625 13.109375 2.863281 12.574219 2.578125 C 12.121094 2.335938 11.304688 3.09375 10.714844 4.261719 Z M 10.714844 4.261719"/><path style="stroke:none;fill-rule:nonzero;fill:url(#linear4)" d="M 8 15.261719 C 3.558594 15.261719 2.628906 13.046875 2.628906 11.191406 C 2.628906 8 4.734375 5.9375 8 5.9375 C 11.265625 5.9375 13.371094 8 13.371094 11.191406 C 13.371094 14.734375 10.007812 15.261719 8 15.261719 Z M 8 15.261719"/><path style="stroke:none;fill-rule:nonzero;fill:#b0b0b0;fill-opacity:1" d="M 8 6.109375 C 9.632812 6.109375 10.984375 6.628906 11.902344 7.609375 C 12.738281 8.503906 13.199219 9.777344 13.199219 11.191406 C 13.199219 12.484375 12.730469 13.476562 11.800781 14.136719 C 10.921875 14.761719 9.605469 15.089844 8 15.089844 C 5.628906 15.089844 2.796875 14.414062 2.796875 11.191406 C 2.796875 9.777344 3.261719 8.507812 4.097656 7.609375 C 5.015625 6.628906 6.367188 6.109375 8 6.109375 M 8 5.765625 C 4.316406 5.765625 2.453125 8.253906 2.453125 11.191406 C 2.453125 14.128906 4.660156 15.433594 8 15.433594 C 11.277344 15.433594 13.542969 14.128906 13.542969 11.191406 C 13.542969 8.253906 11.683594 5.765625 8 5.765625 Z M 8 5.765625"/><path style="stroke:none;fill-rule:nonzero;fill:#404040;fill-opacity:1" d="M 11.320312 9.828125 C 11.320312 9.367188 10.972656 8.992188 10.546875 8.992188 C 10.117188 8.992188 9.769531 9.367188 9.769531 9.828125 C 9.769531 10.292969 10.117188 10.667969 10.546875 10.667969 C 10.972656 10.667969 11.320312 10.292969 11.320312 9.828125 Z M 11.320312 9.828125"/><path style="stroke:none;fill-rule:nonzero;fill:#404040;fill-opacity:1" d="M 6.230469 9.804688 C 6.230469 9.34375 5.882812 8.96875 5.453125 8.96875 C 5.027344 8.96875 4.679688 9.34375 4.679688 9.804688 C 4.679688 10.269531 5.027344 10.644531 5.453125 10.644531 C 5.882812 10.644531 6.230469 10.269531 6.230469 9.804688 Z M 6.230469 9.804688"/><path style="fill:none;stroke-width:3;stroke-linecap:round;stroke-linejoin:round;stroke:#b3b3b3;stroke-opacity:1;stroke-miterlimit:10" d="M 80.8125 101.4375 C 80.5 103.0625 79.71875 104.59375 78.46875 105.8125 C 75.125 109.0625 69.71875 108.90625 66.375 105.5 C 65.03125 104.125 64.21875 99.90625 63.96875 98.15625 C 63.75 99.90625 63.03125 104.09375 61.71875 105.4375 C 58.46875 108.78125 53.0625 108.78125 49.65625 105.4375 C 48.375 104.1875 47.53125 102.625 47.1875 101.03125" transform="matrix(0.125,0,0,0.125,0,0)"/><path style="stroke:none;fill-rule:nonzero;fill:url(#linear5)" d="M 7.21875 11.125 C 6.957031 11.125 6.78125 11.367188 6.875 11.609375 C 7.070312 12.125 7.417969 12.5 7.976562 12.5 C 7.984375 12.5 7.992188 12.492188 8 12.492188 C 8.007812 12.492188 8.015625 12.492188 8.023438 12.492188 C 8.582031 12.492188 8.929688 12.125 9.121094 11.609375 C 9.214844 11.367188 9.039062 11.125 8.78125 11.125 Z M 7.21875 11.125"/></g></svg>