<svg xmlns="http://www.w3.org/2000/svg" xmlns:xlink="http://www.w3.org/1999/xlink" width="16pt" height="16pt" version="1.1" viewBox="0 0 16 16"><defs><linearGradient id="linear0" x1="66.207" x2="66.207" y1="91.48" y2="117.4" gradientTransform="matrix(0.125,0,0,0.125,0,0)" gradientUnits="userSpaceOnUse"><stop offset="0" style="stop-color:#ffc044;stop-opacity:1"/><stop offset=".847" style="stop-color:#ca4300;stop-opacity:1"/></linearGradient><radialGradient id="radial0" cx="65.458" cy="84.615" r="57.048" fx="65.458" fy="84.615" gradientTransform="matrix(0.125,0,0,0.047525,0,6.427875)" gradientUnits="userSpaceOnUse"><stop offset="0" style="stop-color:#583223;stop-opacity:1"/><stop offset=".101" style="stop-color:#7b3915;stop-opacity:1"/><stop offset=".225" style="stop-color:#a04106;stop-opacity:1"/><stop offset=".291" style="stop-color:#ae4400;stop-opacity:1"/><stop offset=".321" style="stop-color:#a84302;stop-opacity:1"/><stop offset=".724" style="stop-color:#623a15;stop-opacity:1"/><stop offset=".946" style="stop-color:#603813;stop-opacity:1"/></radialGradient><linearGradient id="linear1" x1="65.618" x2="65.618" y1="65.55" y2="96.368" gradientTransform="matrix(0.125,0,0,0.125,0,0)" gradientUnits="userSpaceOnUse"><stop offset=".005" style="stop-color:#fbc02d;stop-opacity:1"/><stop offset=".081" style="stop-color:#fcca30;stop-opacity:1"/><stop offset=".209" style="stop-color:#fdd534;stop-opacity:1"/><stop offset=".36" style="stop-color:#fdd835;stop-opacity:1"/><stop offset=".69" style="stop-color:#fff59d;stop-opacity:1"/><stop offset="1" style="stop-color:#fdd835;stop-opacity:1"/></linearGradient><linearGradient id="linear2" x1="28.444" x2="110.17" y1="68.947" y2="68.947" gradientTransform="matrix(0.124975,-0.0023625,0.0023625,0.124975,-0.14525,0.166437)" gradientUnits="userSpaceOnUse"><stop offset="0" style="stop-color:#ff3d2a;stop-opacity:1"/><stop offset=".041" style="stop-color:#f63424;stop-opacity:1"/><stop offset=".174" style="stop-color:#dd1d14;stop-opacity:1"/><stop offset=".314" style="stop-color:#cc0d09;stop-opacity:1"/><stop offset=".464" style="stop-color:#c10302;stop-opacity:1"/><stop offset=".64" style="stop-color:#be0000;stop-opacity:1"/><stop offset=".99" style="stop-color:#ff1500;stop-opacity:1"/></linearGradient><linearGradient id="linear3" x1="63.443" x2="63.443" y1="61.032" y2="78.598" gradientTransform="matrix(0.125,0,0,0.125,0,0)" gradientUnits="userSpaceOnUse"><stop offset="0" style="stop-color:#518f00;stop-opacity:1"/><stop offset=".197" style="stop-color:#619e15;stop-opacity:1"/><stop offset=".404" style="stop-color:#6faa27;stop-opacity:1"/><stop offset=".424" style="stop-color:#72ad2b;stop-opacity:1"/><stop offset=".547" style="stop-color:#80b93c;stop-opacity:1"/><stop offset=".678" style="stop-color:#88c147;stop-opacity:1"/><stop offset=".833" style="stop-color:#8bc34a;stop-opacity:1"/><stop offset="1" style="stop-color:#8cc63f;stop-opacity:1"/></linearGradient><linearGradient id="linear4" x1="32.417" x2="101.99" y1="18.37" y2="70.162" gradientTransform="matrix(0.125,0,0,0.125,0,0)" gradientUnits="userSpaceOnUse"><stop offset="0" style="stop-color:#ffc044;stop-opacity:1"/><stop offset=".847" style="stop-color:#ca4300;stop-opacity:1"/></linearGradient><filter id="alpha" width="100%" height="100%" x="0%" y="0%" filterUnits="objectBoundingBox"><feColorMatrix in="SourceGraphic" type="matrix" values="0 0 0 0 1 0 0 0 0 1 0 0 0 0 1 0 0 0 1 0"/></filter><mask id="mask0"><g filter="url(#alpha)"><rect width="16" height="16" x="0" y="0" style="fill:#000;fill-opacity:.2;stroke:none"/></g></mask><clipPath id="clip1"><rect width="16" height="16" x="0" y="0"/></clipPath><g id="surface5" clip-path="url(#clip1)"><path style="stroke:none;fill-rule:nonzero;fill:#424242;fill-opacity:1" d="M 7.484375 2.070312 C 7.695312 2.070312 7.910156 2.078125 8.128906 2.089844 C 9.507812 2.179688 13.164062 2.414062 14.125 4.703125 C 14.515625 5.636719 14.632812 6.214844 14.476562 6.46875 C 14.378906 6.628906 14.410156 6.835938 14.546875 6.960938 C 14.582031 6.992188 14.621094 7.023438 14.660156 7.054688 C 14.84375 7.21875 15.019531 7.367188 15.0625 7.585938 C 15.132812 7.9375 15.054688 8.253906 14.863281 8.398438 C 14.859375 8.402344 14.855469 8.402344 14.855469 8.40625 C 14.707031 8.496094 14.636719 8.667969 14.679688 8.832031 C 14.71875 8.984375 14.730469 9.113281 14.730469 9.1875 C 14.664062 9.257812 14.625 9.347656 14.621094 9.449219 C 14.617188 9.566406 14.667969 9.675781 14.757812 9.753906 C 14.804688 9.792969 14.828125 9.820312 14.839844 9.835938 C 14.921875 10.101562 14.925781 10.324219 14.859375 10.453125 C 14.773438 10.617188 14.75 10.632812 14.667969 10.691406 C 14.640625 10.707031 14.617188 10.726562 14.585938 10.75 C 14.558594 10.773438 14.507812 10.789062 14.417969 10.824219 L 14.359375 10.84375 C 14.226562 10.890625 14.128906 11.007812 14.105469 11.148438 C 14.082031 11.289062 14.140625 11.429688 14.25 11.515625 C 14.253906 11.519531 14.257812 11.523438 14.261719 11.527344 C 14.214844 11.847656 14.109375 12.503906 13.382812 13.117188 C 12.402344 13.953125 10.691406 14.386719 8.296875 14.402344 L 8.164062 14.402344 C 6.535156 14.402344 4.335938 14.167969 3.082031 13.058594 C 2.367188 12.421875 2.300781 11.796875 2.300781 11.773438 C 2.296875 11.757812 2.296875 11.742188 2.292969 11.726562 C 2.285156 11.671875 2.277344 11.621094 2.277344 11.578125 C 2.28125 11.441406 2.210938 11.3125 2.09375 11.238281 C 2.011719 11.1875 1.914062 11.140625 1.796875 11.097656 C 1.613281 11.03125 1.613281 11.03125 1.574219 10.824219 C 1.558594 10.734375 1.535156 10.621094 1.496094 10.496094 C 1.480469 10.449219 1.472656 10.417969 1.46875 10.394531 C 1.511719 10.300781 1.539062 10.179688 1.511719 9.988281 C 1.507812 9.953125 1.550781 9.800781 1.703125 9.585938 C 1.785156 9.472656 1.796875 9.328125 1.742188 9.207031 C 1.796875 9.167969 1.875 9.113281 1.988281 9.046875 C 2.097656 8.980469 2.167969 8.863281 2.179688 8.738281 C 2.1875 8.621094 2.144531 8.511719 2.0625 8.429688 C 2.066406 8.421875 2.066406 8.414062 2.070312 8.40625 C 2.101562 8.289062 2.164062 8.070312 2.035156 7.851562 C 1.933594 7.679688 1.753906 7.578125 1.550781 7.578125 C 1.507812 7.578125 1.460938 7.585938 1.417969 7.59375 C 1.386719 7.566406 1.347656 7.539062 1.304688 7.523438 C 1.265625 7.507812 1.222656 7.496094 1.179688 7.496094 C 1.207031 7.410156 1.203125 7.332031 1.195312 7.28125 C 1.378906 7.265625 1.5 7.179688 1.578125 7.109375 C 1.722656 6.960938 1.734375 6.730469 1.597656 6.574219 C 1.644531 6.554688 1.691406 6.527344 1.726562 6.488281 C 1.832031 6.382812 1.867188 6.222656 1.816406 6.078125 C 1.742188 5.871094 1.742188 5.582031 1.824219 5.203125 C 2.058594 4.082031 3.246094 3.082031 4.257812 2.765625 C 4.367188 2.730469 4.488281 2.679688 4.625 2.628906 C 5.183594 2.40625 6.03125 2.070312 7.484375 2.070312 M 7.484375 1.679688 C 5.597656 1.679688 4.648438 2.230469 4.136719 2.390625 C 3.023438 2.742188 1.707031 3.828125 1.4375 5.117188 C 1.34375 5.574219 1.34375 5.921875 1.445312 6.210938 C 1.40625 6.195312 1.363281 6.183594 1.320312 6.183594 C 1.261719 6.183594 1.199219 6.203125 1.136719 6.257812 C 1.003906 6.367188 1.023438 6.539062 1.070312 6.664062 C 1.082031 6.695312 1.207031 6.835938 1.273438 6.835938 C 1.28125 6.835938 1.292969 6.832031 1.296875 6.828125 C 1.25 6.875 1.1875 6.890625 1.125 6.890625 C 1.015625 6.890625 0.894531 6.84375 0.789062 6.808594 C 0.753906 6.796875 0.71875 6.792969 0.683594 6.792969 C 0.542969 6.792969 0.410156 6.878906 0.429688 7.023438 C 0.445312 7.148438 0.53125 7.179688 0.640625 7.230469 C 0.75 7.28125 0.855469 7.324219 0.78125 7.421875 C 0.703125 7.519531 0.609375 7.429688 0.476562 7.539062 C 0.230469 7.746094 0.53125 8.125 0.699219 8.125 L 0.703125 8.125 C 0.957031 8.125 1.011719 7.976562 1.152344 7.882812 L 1.15625 7.902344 C 1.171875 7.988281 1.246094 8.042969 1.324219 8.042969 C 1.359375 8.042969 1.390625 8.03125 1.421875 8.011719 L 1.433594 8.003906 C 1.464844 7.980469 1.507812 7.96875 1.546875 7.96875 C 1.605469 7.96875 1.664062 7.996094 1.695312 8.050781 C 1.761719 8.164062 1.671875 8.300781 1.660156 8.433594 C 1.652344 8.539062 1.703125 8.644531 1.785156 8.707031 C 1.546875 8.851562 1.222656 9.074219 1.292969 9.21875 C 1.328125 9.289062 1.355469 9.328125 1.382812 9.359375 C 1.28125 9.5 1.085938 9.8125 1.121094 10.046875 C 1.164062 10.351562 0.984375 10.1875 1.121094 10.613281 C 1.253906 11.039062 1.140625 11.277344 1.660156 11.464844 C 1.761719 11.503906 1.832031 11.539062 1.886719 11.570312 C 1.886719 11.644531 1.890625 11.71875 1.90625 11.800781 C 1.90625 11.800781 2.109375 14.796875 8.160156 14.796875 L 8.296875 14.796875 C 14.480469 14.75 14.570312 11.960938 14.660156 11.488281 C 14.675781 11.40625 14.617188 11.3125 14.488281 11.210938 C 14.625 11.164062 14.726562 11.132812 14.816406 11.066406 C 14.976562 10.945312 15.042969 10.933594 15.199219 10.640625 C 15.332031 10.390625 15.3125 10.046875 15.199219 9.691406 C 15.179688 9.628906 15.109375 9.550781 15.007812 9.460938 C 15.066406 9.417969 15.101562 9.363281 15.109375 9.300781 C 15.132812 9.167969 15.105469 8.945312 15.054688 8.738281 C 15.058594 8.738281 15.0625 8.734375 15.066406 8.734375 C 15.394531 8.503906 15.546875 8.042969 15.441406 7.515625 C 15.359375 7.105469 15.035156 6.878906 14.804688 6.675781 C 15.023438 6.320312 14.976562 5.734375 14.480469 4.554688 C 13.460938 2.125 9.894531 1.816406 8.152344 1.707031 C 7.917969 1.6875 7.695312 1.679688 7.484375 1.679688 Z M 7.484375 1.679688"/></g></defs><g id="surface1"><path style="stroke:none;fill-rule:nonzero;fill:url(#linear0)" d="M 1.910156 11.800781 C 1.910156 11.800781 2.109375 14.835938 8.296875 14.792969 C 14.480469 14.746094 14.570312 11.957031 14.660156 11.484375 C 14.75 11.011719 12.34375 10.066406 7.890625 10.269531 C 3.4375 10.472656 1.664062 10.539062 1.910156 11.800781 Z M 1.910156 11.800781"/><path style="stroke:none;fill-rule:nonzero;fill:url(#radial0)" d="M 1.4375 9.285156 C 1.4375 9.285156 1.078125 9.734375 1.121094 10.042969 C 1.167969 10.351562 0.984375 10.183594 1.121094 10.609375 C 1.257812 11.039062 1.144531 11.273438 1.660156 11.464844 C 2.179688 11.652344 1.929688 11.796875 2.492188 11.960938 C 3.054688 12.128906 3.394531 12.199219 3.796875 12.410156 C 4.203125 12.625 4.359375 12.742188 4.832031 12.71875 C 5.304688 12.695312 5.867188 12.742188 5.867188 12.742188 L 6.746094 12.886719 C 6.746094 12.886719 6.882812 12.933594 7.511719 12.980469 C 8.140625 13.027344 8.367188 12.8125 8.679688 12.789062 C 8.996094 12.765625 9.46875 12.910156 9.738281 12.835938 C 10.007812 12.765625 10.617188 12.53125 10.617188 12.53125 C 10.617188 12.53125 11.179688 12.128906 11.492188 12.152344 C 11.808594 12.175781 12.328125 12.054688 12.574219 11.914062 C 12.820312 11.773438 13.382812 11.726562 13.382812 11.726562 C 13.382812 11.726562 13.765625 11.558594 14.125 11.371094 C 14.484375 11.179688 14.667969 11.179688 14.824219 11.0625 C 14.980469 10.945312 15.050781 10.929688 15.207031 10.636719 C 15.335938 10.386719 15.320312 10.042969 15.207031 9.6875 C 15.09375 9.332031 13.316406 8.410156 13.316406 8.410156 L 2.765625 7.914062 Z M 1.4375 9.285156"/><path style="stroke:none;fill-rule:nonzero;fill:url(#linear1)" d="M 2.023438 8.578125 C 2.023438 8.578125 1.183594 8.992188 1.296875 9.21875 C 1.40625 9.445312 1.476562 9.417969 1.476562 9.417969 C 1.476562 9.417969 2.605469 9.652344 4.699219 10.1875 C 6.789062 10.71875 7.832031 11.066406 8.355469 11.453125 C 9.007812 11.9375 9.171875 12.191406 9.601562 12.109375 C 10.027344 12.027344 10.34375 11.453125 11.175781 10.839844 C 12.007812 10.226562 12.328125 10.140625 13.457031 9.882812 C 14.527344 9.640625 15.066406 9.585938 15.113281 9.300781 C 15.15625 9.015625 15 8.34375 14.796875 8.242188 C 14.59375 8.140625 4.609375 8.179688 4.609375 8.179688 C 2.515625 8.097656 2.023438 8.578125 2.023438 8.578125 Z M 2.023438 8.578125"/><path style="stroke:none;fill-rule:nonzero;fill:url(#linear2)" d="M 2.867188 7.574219 L 2.75 8.265625 L 2.921875 9.074219 C 2.953125 9.210938 3.035156 9.332031 3.152344 9.402344 C 3.585938 9.671875 4.816406 10.230469 7.410156 10.144531 C 10.796875 10.03125 11.996094 9.539062 13.054688 9.078125 C 13.894531 8.707031 14.046875 7.492188 14.070312 7.015625 C 10.75 9.109375 6.34375 9.203125 2.867188 7.574219 Z M 2.867188 7.574219"/><path style="stroke:none;fill-rule:nonzero;fill:#972f00;fill-opacity:1" d="M 13.527344 7.335938 C 13.53125 7.226562 13.527344 7.15625 13.527344 7.15625 L 3.28125 7.109375 L 3.132812 8.132812 C 6.402344 9.53125 10.492188 9.332031 13.527344 7.335938 Z M 13.527344 7.335938"/><path style="stroke:none;fill-rule:nonzero;fill:url(#linear3)" d="M 1.296875 6.828125 C 1.167969 6.953125 0.960938 6.863281 0.789062 6.808594 C 0.617188 6.753906 0.40625 6.839844 0.429688 7.023438 C 0.445312 7.148438 0.53125 7.179688 0.640625 7.230469 C 0.75 7.28125 0.855469 7.324219 0.78125 7.421875 C 0.703125 7.519531 0.609375 7.429688 0.476562 7.542969 C 0.226562 7.75 0.535156 8.132812 0.703125 8.128906 C 0.957031 8.121094 1.011719 7.980469 1.148438 7.886719 L 1.152344 7.90625 C 1.175781 8.027344 1.320312 8.085938 1.421875 8.015625 L 1.429688 8.007812 C 1.515625 7.949219 1.640625 7.960938 1.695312 8.050781 C 1.761719 8.164062 1.671875 8.300781 1.660156 8.433594 C 1.640625 8.621094 1.820312 8.800781 2 8.777344 C 2.179688 8.753906 2.308594 8.535156 2.246094 8.359375 C 2.246094 8.5625 2.410156 8.75 2.605469 8.769531 C 2.800781 8.792969 2.996094 8.640625 3.039062 8.441406 C 3.050781 8.53125 3.085938 8.613281 3.140625 8.6875 C 3.21875 8.796875 3.394531 8.796875 3.476562 8.6875 C 3.519531 8.628906 3.589844 8.589844 3.660156 8.609375 C 3.53125 8.699219 3.609375 8.933594 3.757812 8.988281 C 3.902344 9.046875 4.066406 8.984375 4.210938 8.925781 C 4.480469 8.816406 4.753906 8.703125 5.023438 8.59375 C 5.207031 8.515625 5.394531 8.4375 5.589844 8.386719 C 6.0625 8.261719 6.359375 8.394531 6.730469 8.609375 C 6.902344 8.710938 7.109375 8.707031 7.277344 8.605469 C 7.339844 8.566406 7.390625 8.535156 7.398438 8.519531 C 7.628906 8.46875 7.644531 8.738281 7.5625 8.875 C 7.507812 8.96875 7.484375 9.078125 7.527344 9.175781 C 7.628906 9.390625 7.921875 9.304688 8.058594 9.136719 C 8.195312 8.96875 8.296875 8.882812 8.5 8.828125 C 8.714844 8.773438 8.921875 8.835938 9.117188 8.769531 C 9.273438 8.714844 9.382812 8.582031 9.550781 8.578125 C 9.835938 8.574219 9.851562 8.964844 10.148438 8.960938 C 10.421875 8.957031 10.460938 8.730469 10.664062 8.660156 C 10.84375 8.601562 10.925781 8.695312 10.933594 8.890625 C 10.945312 9.082031 10.988281 9.21875 11.15625 9.304688 C 11.480469 9.476562 11.851562 8.804688 12.140625 9.03125 C 12.324219 9.171875 12.230469 9.539062 12.433594 9.648438 C 12.554688 9.710938 12.703125 9.632812 12.800781 9.535156 C 12.898438 9.433594 13.0625 9.113281 13.191406 9.066406 C 13.472656 8.957031 13.753906 9.371094 14.011719 9.214844 C 14.136719 9.140625 14.160156 9.078125 14.210938 8.941406 C 14.265625 8.804688 14.34375 8.660156 14.480469 8.621094 C 14.546875 8.605469 14.613281 8.636719 14.660156 8.683594 C 14.765625 8.792969 14.941406 8.820312 15.066406 8.730469 C 15.394531 8.503906 15.546875 8.039062 15.441406 7.511719 C 15.308594 6.847656 14.515625 6.664062 14.585938 6.265625 C 14.148438 6.496094 14.015625 6.703125 13.554688 6.535156 C 13.332031 6.453125 13.117188 6.328125 12.882812 6.324219 C 12.484375 6.324219 12.175781 6.675781 11.796875 6.8125 C 11.445312 6.941406 11.050781 6.867188 10.703125 6.726562 C 10.351562 6.585938 10.03125 6.378906 9.6875 6.230469 C 8.96875 5.914062 8.152344 5.851562 7.402344 6.050781 C 6.835938 6.203125 6.28125 6.496094 5.703125 6.40625 C 5.285156 6.335938 4.921875 6.070312 4.519531 5.914062 C 3.65625 5.578125 2.828125 6.390625 1.976562 6.4375 C 1.695312 6.453125 1.421875 6.023438 1.136719 6.261719 C 1.003906 6.371094 1.019531 6.542969 1.070312 6.667969 C 1.082031 6.699219 1.246094 6.878906 1.296875 6.828125 Z M 1.296875 6.828125"/><path style="stroke:none;fill-rule:nonzero;fill:url(#linear4)" d="M 4.136719 2.390625 C 3.023438 2.742188 1.707031 3.832031 1.4375 5.121094 C 1.167969 6.410156 1.648438 6.890625 3.175781 7.308594 C 4.707031 7.726562 5.785156 7.730469 7.796875 7.878906 C 9.804688 8.027344 12.234375 8.027344 13.433594 7.457031 C 14.636719 6.890625 15.503906 6.980469 14.484375 4.550781 C 13.464844 2.121094 9.898438 1.8125 8.15625 1.703125 C 5.816406 1.550781 4.707031 2.210938 4.136719 2.390625 Z M 4.136719 2.390625"/><path style="stroke:none;fill-rule:nonzero;fill:#fadc8b;fill-opacity:1" d="M 4.464844 3.160156 C 4.515625 3.292969 4.449219 3.367188 4.386719 3.390625 C 4.324219 3.417969 4.21875 3.410156 4.167969 3.273438 C 4.109375 3.117188 4.117188 2.917969 4.191406 2.890625 C 4.261719 2.859375 4.40625 3.003906 4.464844 3.160156 Z M 4.464844 3.160156"/><path style="stroke:none;fill-rule:nonzero;fill:#fadc8b;fill-opacity:1" d="M 6.53125 3.871094 C 6.402344 3.933594 6.320312 3.871094 6.292969 3.8125 C 6.261719 3.753906 6.261719 3.648438 6.390625 3.582031 C 6.539062 3.511719 6.742188 3.503906 6.777344 3.574219 C 6.808594 3.640625 6.679688 3.796875 6.53125 3.871094 Z M 6.53125 3.871094"/><path style="stroke:none;fill-rule:nonzero;fill:#fadc8b;fill-opacity:1" d="M 5.378906 4.226562 C 5.363281 4.367188 5.269531 4.402344 5.203125 4.394531 C 5.136719 4.390625 5.046875 4.335938 5.0625 4.191406 C 5.078125 4.027344 5.179688 3.851562 5.257812 3.859375 C 5.332031 3.867188 5.394531 4.058594 5.378906 4.226562 Z M 5.378906 4.226562"/><path style="stroke:none;fill-rule:nonzero;fill:#fadc8b;fill-opacity:1" d="M 7.082031 2.875 C 7.015625 3 6.914062 2.996094 6.855469 2.964844 C 6.796875 2.9375 6.734375 2.851562 6.796875 2.726562 C 6.875 2.578125 7.035156 2.453125 7.105469 2.484375 C 7.171875 2.523438 7.160156 2.726562 7.082031 2.875 Z M 7.082031 2.875"/><path style="stroke:none;fill-rule:nonzero;fill:#fadc8b;fill-opacity:1" d="M 11.03125 2.992188 C 10.898438 2.949219 10.882812 2.847656 10.902344 2.78125 C 10.921875 2.71875 10.992188 2.644531 11.128906 2.6875 C 11.289062 2.734375 11.441406 2.871094 11.417969 2.945312 C 11.394531 3.019531 11.191406 3.042969 11.03125 2.992188 Z M 11.03125 2.992188"/><path style="stroke:none;fill-rule:nonzero;fill:#fadc8b;fill-opacity:1" d="M 9.121094 2.636719 C 9.214844 2.742188 9.179688 2.839844 9.128906 2.882812 C 9.078125 2.925781 8.976562 2.957031 8.882812 2.847656 C 8.769531 2.722656 8.710938 2.53125 8.769531 2.480469 C 8.824219 2.429688 9.011719 2.511719 9.121094 2.636719 Z M 9.121094 2.636719"/><path style="stroke:none;fill-rule:nonzero;fill:#fadc8b;fill-opacity:1" d="M 12.019531 3.710938 C 11.957031 3.585938 12.019531 3.503906 12.082031 3.472656 C 12.140625 3.445312 12.246094 3.441406 12.308594 3.570312 C 12.382812 3.722656 12.386719 3.925781 12.316406 3.957031 C 12.25 3.992188 12.09375 3.859375 12.019531 3.710938 Z M 12.019531 3.710938"/><path style="stroke:none;fill-rule:nonzero;fill:#fadc8b;fill-opacity:1" d="M 11.28125 5.046875 C 11.144531 5.074219 11.078125 4.992188 11.066406 4.925781 C 11.054688 4.863281 11.078125 4.761719 11.21875 4.734375 C 11.382812 4.703125 11.582031 4.746094 11.597656 4.824219 C 11.609375 4.894531 11.445312 5.015625 11.28125 5.046875 Z M 11.28125 5.046875"/><path style="stroke:none;fill-rule:nonzero;fill:#fadc8b;fill-opacity:1" d="M 9.796875 3.964844 C 9.9375 3.960938 9.988281 4.050781 9.988281 4.117188 C 9.992188 4.183594 9.953125 4.28125 9.808594 4.285156 C 9.640625 4.292969 9.453125 4.214844 9.449219 4.140625 C 9.449219 4.0625 9.628906 3.972656 9.796875 3.964844 Z M 9.796875 3.964844"/><path style="stroke:none;fill-rule:nonzero;fill:#fadc8b;fill-opacity:1" d="M 8.25 4.550781 C 8.207031 4.683594 8.105469 4.699219 8.039062 4.675781 C 7.976562 4.65625 7.902344 4.582031 7.949219 4.445312 C 8 4.289062 8.140625 4.140625 8.210938 4.164062 C 8.285156 4.1875 8.304688 4.390625 8.25 4.550781 Z M 8.25 4.550781"/><use mask="url(#mask0)" xlink:href="#surface5"/></g></svg>