<svg xmlns="http://www.w3.org/2000/svg" xmlns:xlink="http://www.w3.org/1999/xlink" width="16pt" height="16pt" version="1.1" viewBox="0 0 16 16"><defs><clipPath id="clip1"><path d="M 1 0.535156 L 15 0.535156 L 15 16 L 1 16 Z M 1 0.535156"/></clipPath></defs><g id="surface1"><g clip-path="url(#clip1)" clip-rule="nonzero"><path style="stroke:none;fill-rule:nonzero;fill:#ffd29c;fill-opacity:1" d="M 14.304688 8.949219 C 14.121094 8.582031 13.570312 8.265625 12.726562 8.378906 C 11.878906 8.488281 11.394531 9.289062 10.839844 9.554688 C 10.660156 9.636719 10.472656 9.460938 10.542969 9.269531 L 12.660156 3.519531 C 12.894531 2.914062 12.710938 2.285156 12.097656 2.125 C 11.601562 2.003906 11.167969 2.351562 10.972656 2.859375 L 9.3125 6.867188 C 9.292969 6.921875 9.242188 6.949219 9.183594 6.941406 C 9.128906 6.921875 9.097656 6.867188 9.109375 6.804688 L 10.347656 1.917969 C 10.488281 1.394531 10.394531 0.859375 9.929688 0.65625 C 9.355469 0.398438 8.816406 0.785156 8.644531 1.414062 L 7.195312 6.199219 C 7.160156 6.316406 7.054688 6.390625 6.941406 6.363281 L 6.9375 6.363281 C 6.824219 6.339844 6.753906 6.222656 6.785156 6.097656 L 7.554688 2.042969 C 7.660156 1.535156 7.5625 0.886719 6.9375 0.75 C 6.308594 0.609375 6.015625 1.058594 5.863281 1.617188 C 5.71875 2.089844 5.132812 4.773438 4.964844 5.550781 C 4.941406 5.667969 4.828125 5.742188 4.710938 5.722656 C 4.605469 5.699219 4.523438 5.601562 4.535156 5.492188 L 4.675781 3.183594 C 4.710938 2.609375 4.570312 2.164062 4.082031 2.039062 C 3.472656 1.890625 3.023438 2.304688 2.953125 2.953125 L 2.351562 6.789062 L 1.765625 10.25 C 1.304688 12.914062 2.035156 14.21875 2.308594 14.382812 C 2.714844 14.617188 5.070312 15.015625 5.664062 15.195312 C 8.96875 16.226562 9.679688 13.539062 10.679688 12.253906 C 11.296875 11.464844 12.832031 10.230469 13.644531 10.222656 C 14.457031 10.207031 14.453125 9.253906 14.296875 8.949219 Z M 14.304688 8.949219"/><path style="stroke:none;fill-rule:nonzero;fill:#e3b57c;fill-opacity:1" d="M 9.558594 0.925781 C 9.628906 0.925781 9.699219 0.941406 9.777344 0.972656 C 10.167969 1.152344 10.027344 1.707031 9.992188 1.828125 L 8.761719 6.703125 C 8.691406 6.949219 8.832031 7.199219 9.066406 7.269531 C 9.109375 7.28125 9.152344 7.289062 9.199219 7.289062 C 9.386719 7.289062 9.554688 7.175781 9.625 7 L 11.285156 2.984375 C 11.40625 2.660156 11.644531 2.453125 11.882812 2.453125 C 11.921875 2.453125 11.957031 2.457031 11.992188 2.46875 C 12.148438 2.503906 12.261719 2.59375 12.328125 2.714844 C 12.421875 2.890625 12.417969 3.140625 12.316406 3.394531 L 10.199219 9.140625 C 10.128906 9.316406 10.15625 9.515625 10.261719 9.667969 C 10.367188 9.824219 10.546875 9.917969 10.734375 9.917969 C 10.816406 9.917969 10.902344 9.898438 10.976562 9.859375 C 11.222656 9.742188 11.441406 9.554688 11.671875 9.351562 C 11.996094 9.070312 12.335938 8.773438 12.761719 8.714844 C 12.859375 8.703125 12.957031 8.695312 13.050781 8.695312 C 13.578125 8.695312 13.882812 8.90625 13.976562 9.09375 C 14.027344 9.199219 14.050781 9.519531 13.941406 9.707031 C 13.898438 9.78125 13.828125 9.855469 13.636719 9.855469 C 12.613281 9.871094 10.976562 11.277344 10.394531 12.027344 C 10.1875 12.289062 10.003906 12.59375 9.8125 12.914062 C 9.167969 13.972656 8.503906 15.058594 7.019531 15.058594 C 6.640625 15.058594 6.21875 14.988281 5.761719 14.847656 C 5.515625 14.769531 5.027344 14.671875 4.464844 14.550781 C 3.792969 14.410156 2.679688 14.179688 2.492188 14.070312 C 2.34375 13.949219 1.671875 12.8125 2.105469 10.300781 L 2.691406 6.832031 L 3.285156 2.988281 C 3.320312 2.683594 3.476562 2.359375 3.820312 2.359375 C 3.875 2.359375 3.925781 2.367188 3.980469 2.378906 C 4.097656 2.40625 4.347656 2.472656 4.304688 3.15625 L 4.164062 5.46875 C 4.144531 5.753906 4.34375 6.011719 4.628906 6.0625 C 4.664062 6.070312 4.699219 6.074219 4.734375 6.074219 C 5.003906 6.074219 5.238281 5.882812 5.300781 5.621094 L 6.183594 1.703125 C 6.359375 1.066406 6.605469 1.066406 6.699219 1.066406 C 6.742188 1.066406 6.789062 1.074219 6.839844 1.082031 C 7.320312 1.191406 7.214844 1.835938 7.195312 1.964844 L 6.421875 6.011719 C 6.347656 6.320312 6.542969 6.628906 6.851562 6.699219 C 6.890625 6.707031 6.929688 6.710938 6.972656 6.714844 C 7.226562 6.710938 7.449219 6.542969 7.523438 6.296875 L 8.976562 1.503906 C 9.074219 1.15625 9.304688 0.925781 9.558594 0.925781 M 9.558594 0.570312 C 9.136719 0.570312 8.773438 0.917969 8.632812 1.410156 L 7.1875 6.195312 C 7.15625 6.300781 7.070312 6.363281 6.972656 6.363281 C 6.960938 6.363281 6.945312 6.363281 6.933594 6.359375 L 6.929688 6.359375 C 6.816406 6.335938 6.746094 6.21875 6.773438 6.09375 L 7.542969 2.039062 C 7.648438 1.53125 7.550781 0.882812 6.925781 0.746094 C 6.855469 0.726562 6.78125 0.71875 6.710938 0.71875 C 6.230469 0.71875 5.988281 1.121094 5.851562 1.613281 C 5.71875 2.089844 5.132812 4.773438 4.96875 5.546875 C 4.945312 5.648438 4.855469 5.722656 4.753906 5.722656 C 4.738281 5.722656 4.726562 5.722656 4.71875 5.71875 C 4.613281 5.695312 4.53125 5.597656 4.539062 5.488281 L 4.683594 3.179688 C 4.71875 2.605469 4.578125 2.160156 4.089844 2.039062 C 4.007812 2.015625 3.925781 2.007812 3.839844 2.003906 C 3.359375 2.003906 3.019531 2.394531 2.953125 2.949219 L 2.351562 6.789062 L 1.765625 10.25 C 1.304688 12.914062 2.035156 14.21875 2.308594 14.382812 C 2.714844 14.617188 5.070312 15.015625 5.664062 15.195312 C 6.175781 15.351562 6.628906 15.421875 7.027344 15.421875 C 9.195312 15.421875 9.835938 13.339844 10.683594 12.253906 C 11.300781 11.464844 12.835938 10.230469 13.648438 10.222656 C 14.460938 10.210938 14.460938 9.253906 14.304688 8.949219 C 14.148438 8.632812 13.71875 8.347656 13.066406 8.347656 C 12.953125 8.347656 12.84375 8.355469 12.730469 8.375 C 11.882812 8.488281 11.394531 9.285156 10.84375 9.550781 C 10.8125 9.5625 10.78125 9.570312 10.746094 9.570312 C 10.675781 9.570312 10.605469 9.535156 10.566406 9.472656 C 10.527344 9.414062 10.515625 9.339844 10.542969 9.269531 L 12.660156 3.519531 C 12.894531 2.914062 12.710938 2.285156 12.097656 2.125 C 12.023438 2.109375 11.960938 2.101562 11.898438 2.101562 C 11.492188 2.101562 11.140625 2.417969 10.972656 2.859375 L 9.3125 6.867188 C 9.296875 6.910156 9.257812 6.941406 9.214844 6.941406 C 9.203125 6.941406 9.195312 6.941406 9.183594 6.9375 C 9.128906 6.917969 9.097656 6.867188 9.109375 6.800781 L 10.347656 1.914062 C 10.488281 1.390625 10.394531 0.855469 9.929688 0.652344 C 9.816406 0.597656 9.691406 0.566406 9.566406 0.566406 Z M 9.558594 0.570312"/></g><path style="stroke:none;fill-rule:nonzero;fill:#e3b57c;fill-opacity:1" d="M 10.300781 9.460938 C 8.835938 9.488281 7.453125 10.550781 6.644531 11.847656 C 6.523438 12.046875 6.714844 12.175781 6.839844 11.976562 C 7.535156 10.851562 9.066406 9.96875 10.34375 10.023438 C 10.519531 10.03125 10.988281 9.871094 10.988281 9.871094 L 10.667969 9.632812 C 10.667969 9.632812 10.5625 9.507812 10.304688 9.457031 Z M 10.300781 9.460938"/></g></svg>