<svg xmlns="http://www.w3.org/2000/svg" xmlns:xlink="http://www.w3.org/1999/xlink" width="16pt" height="16pt" version="1.1" viewBox="0 0 16 16"><defs><filter id="alpha" width="100%" height="100%" x="0%" y="0%" filterUnits="objectBoundingBox"><feColorMatrix in="SourceGraphic" type="matrix" values="0 0 0 0 1 0 0 0 0 1 0 0 0 0 1 0 0 0 1 0"/></filter><mask id="mask0"><g filter="url(#alpha)"><rect width="16" height="16" x="0" y="0" style="fill:#000;fill-opacity:.2;stroke:none"/></g></mask><clipPath id="clip1"><rect width="16" height="16" x="0" y="0"/></clipPath><g id="surface5" clip-path="url(#clip1)"><path style="stroke:none;fill-rule:nonzero;fill:#434343;fill-opacity:1" d="M 3.015625 14.382812 C 1.742188 15.210938 2.050781 15.5 2.410156 15.5 C 3.855469 15.503906 14.117188 12.371094 14.117188 12.371094 C 14.148438 12.363281 14.199219 12.226562 13.78125 12.109375 C 13.359375 11.996094 11.40625 11.304688 8.976562 11.390625 C 7.46875 11.445312 4.425781 13.472656 3.015625 14.382812 Z M 3.015625 14.382812"/></g><linearGradient id="linear0" x1="59.15" x2="66.352" y1="49.92" y2="75.608" gradientTransform="matrix(0.125,0,0,0.125,0,0)" gradientUnits="userSpaceOnUse"><stop offset=".732" style="stop-color:#faa629;stop-opacity:1"/><stop offset=".928" style="stop-color:#f78c1e;stop-opacity:1"/></linearGradient><linearGradient id="linear1" x1="60.144" x2="66.343" y1="86.593" y2="108.43" gradientTransform="matrix(0.125,0,0,0.125,0,0)" gradientUnits="userSpaceOnUse"><stop offset=".732" style="stop-color:#faa629;stop-opacity:1"/><stop offset=".928" style="stop-color:#f78c1e;stop-opacity:1"/></linearGradient><radialGradient id="radial0" cx="94.961" cy="76.09" r="10.822" fx="94.961" fy="76.09" gradientTransform="matrix(0.1207,-0.0324875,0.0178625,0.0663625,-0.95125,7.546625)" gradientUnits="userSpaceOnUse"><stop offset=".629" style="stop-color:#ef5451;stop-opacity:1"/><stop offset="1" style="stop-color:#e53a35;stop-opacity:1"/></radialGradient><radialGradient id="radial1" cx="32.704" cy="92.305" r="9.119" fx="32.704" fy="92.305" gradientTransform="matrix(0.120563,-0.0330125,0.0162875,0.059475,-1.357875,7.128)" gradientUnits="userSpaceOnUse"><stop offset=".629" style="stop-color:#ef5451;stop-opacity:1"/><stop offset="1" style="stop-color:#e53a35;stop-opacity:1"/></radialGradient><radialGradient id="radial2" cx="61.466" cy="79.428" r="11.235" fx="61.466" fy="79.428" gradientTransform="matrix(0.122863,-0.0230125,0.0139375,0.074375,-0.975225,5.435875)" gradientUnits="userSpaceOnUse"><stop offset=".629" style="stop-color:#ef5451;stop-opacity:1"/><stop offset="1" style="stop-color:#e53a35;stop-opacity:1"/></radialGradient><mask id="mask1"><g filter="url(#alpha)"><rect width="16" height="16" x="0" y="0" style="fill:#000;fill-opacity:.2;stroke:none"/></g></mask><clipPath id="clip2"><rect width="16" height="16" x="0" y="0"/></clipPath><g id="surface8" clip-path="url(#clip2)"><path style="stroke:none;fill-rule:nonzero;fill:#434343;fill-opacity:1" d="M 6.820312 2.515625 C 7.582031 2.515625 8.625 2.6875 10.003906 3.046875 C 12.445312 3.671875 13.4375 4.839844 13.660156 5.144531 C 13.625 5.203125 13.609375 5.269531 13.609375 5.339844 L 13.609375 5.589844 C 13.609375 5.597656 13.609375 5.609375 13.609375 5.617188 L 13.609375 7.726562 C 13.605469 7.742188 13.601562 7.761719 13.601562 7.777344 C 13.597656 7.863281 13.59375 7.984375 13.59375 8.101562 C 13.59375 8.152344 13.605469 8.203125 13.625 8.25 L 13.617188 9.109375 C 13.609375 9.136719 13.609375 9.164062 13.605469 9.191406 L 13.597656 9.546875 C 13.597656 9.578125 13.601562 9.613281 13.609375 9.640625 L 13.609375 11.851562 L 2.699219 14.9375 C 2.628906 14.953125 2.570312 14.957031 2.519531 14.957031 C 2.464844 14.957031 2.433594 14.953125 2.421875 14.945312 L 2.421875 12.765625 C 2.441406 12.691406 2.441406 12.613281 2.417969 12.542969 L 2.398438 11.625 C 2.421875 11.574219 2.4375 11.515625 2.4375 11.460938 L 2.4375 11.179688 C 2.4375 11.140625 2.429688 11.097656 2.417969 11.058594 C 2.417969 11.035156 2.417969 10.984375 2.417969 10.949219 C 2.417969 10.910156 2.417969 10.871094 2.417969 10.824219 L 2.417969 8.617188 C 2.417969 8.519531 2.378906 8.425781 2.3125 8.355469 L 2.3125 8.304688 C 2.316406 8.292969 2.320312 8.277344 2.320312 8.261719 C 2.617188 7.699219 4.15625 4.804688 5.277344 3.074219 C 5.519531 2.699219 6.023438 2.515625 6.820312 2.515625 M 6.820312 2.140625 C 5.925781 2.140625 5.292969 2.359375 4.964844 2.867188 C 3.699219 4.820312 1.9375 8.183594 1.9375 8.183594 C 1.9375 8.183594 1.933594 8.199219 1.949219 8.214844 C 1.945312 8.234375 1.9375 8.257812 1.9375 8.28125 C 1.9375 8.4375 1.917969 8.550781 2.042969 8.617188 L 2.042969 10.828125 C 2.042969 10.992188 2.03125 11.109375 2.0625 11.179688 L 2.0625 11.460938 C 2.039062 11.507812 2.023438 11.5625 2.023438 11.617188 L 2.046875 12.660156 L 2.058594 12.65625 C 2.050781 12.6875 2.042969 12.722656 2.042969 12.757812 L 2.042969 14.957031 C 2.042969 15.152344 2.183594 15.332031 2.515625 15.332031 C 2.597656 15.332031 2.6875 15.324219 2.789062 15.300781 L 13.714844 12.210938 C 13.871094 12.171875 13.980469 12.023438 13.980469 11.855469 L 13.980469 9.640625 C 13.980469 9.609375 13.976562 9.582031 13.96875 9.558594 L 13.980469 9.203125 C 13.984375 9.175781 13.988281 9.148438 13.988281 9.121094 L 13.996094 8.09375 L 13.964844 8.105469 C 13.964844 8 13.96875 7.886719 13.972656 7.796875 C 13.976562 7.773438 13.980469 7.75 13.980469 7.726562 L 13.980469 7.644531 C 13.980469 7.632812 13.980469 7.625 13.980469 7.625 L 13.980469 5.339844 C 14.03125 5.28125 14.058594 5.203125 14.058594 5.121094 C 14.058594 5.0625 14.03125 5.007812 13.988281 4.964844 C 13.792969 4.683594 12.753906 3.367188 10.09375 2.683594 C 8.789062 2.34375 7.683594 2.140625 6.820312 2.140625 Z M 13.984375 7.625 Z M 13.984375 7.625"/></g><linearGradient id="linear2" x1="69.855" x2="80.5" y1="6.829" y2="23.911" gradientTransform="matrix(0.125,0,0,0.125,0,0)" gradientUnits="userSpaceOnUse"><stop offset=".237" style="stop-color:#42a047;stop-opacity:1"/><stop offset=".771" style="stop-color:#317e3d;stop-opacity:1"/></linearGradient><mask id="mask2"><g filter="url(#alpha)"><rect width="16" height="16" x="0" y="0" style="fill:#000;fill-opacity:.2;stroke:none"/></g></mask><clipPath id="clip3"><rect width="16" height="16" x="0" y="0"/></clipPath><g id="surface11" clip-path="url(#clip3)"><path style="stroke:none;fill-rule:nonzero;fill:#434343;fill-opacity:1" d="M 8.546875 0.625 C 8.574219 0.625 8.609375 0.632812 8.636719 0.675781 L 8.792969 0.929688 C 8.859375 1.035156 8.972656 1.097656 9.09375 1.097656 C 9.160156 1.097656 9.222656 1.078125 9.277344 1.042969 L 9.507812 0.902344 C 9.523438 0.890625 9.542969 0.886719 9.558594 0.886719 C 9.589844 0.886719 9.617188 0.898438 9.640625 0.921875 C 9.652344 0.941406 9.671875 0.972656 9.664062 1.015625 L 9.644531 1.167969 C 9.628906 1.269531 9.660156 1.378906 9.730469 1.457031 C 9.796875 1.535156 9.894531 1.578125 9.996094 1.578125 C 10.015625 1.578125 10.035156 1.578125 10.054688 1.574219 L 10.839844 1.441406 C 10.847656 1.441406 10.855469 1.441406 10.859375 1.441406 C 10.910156 1.441406 10.941406 1.476562 10.953125 1.507812 C 10.960938 1.527344 10.980469 1.585938 10.925781 1.636719 L 10.492188 2.054688 C 10.359375 2.183594 10.34375 2.390625 10.460938 2.542969 L 10.5625 2.671875 C 10.605469 2.726562 10.582031 2.78125 10.574219 2.796875 C 10.566406 2.8125 10.539062 2.855469 10.480469 2.855469 L 8.222656 2.855469 C 8.179688 2.855469 8.15625 2.832031 8.144531 2.820312 C 8.125 2.792969 8.113281 2.761719 8.117188 2.726562 L 8.445312 0.71875 C 8.453125 0.652344 8.503906 0.625 8.546875 0.625 M 8.546875 0.5 C 8.445312 0.5 8.339844 0.570312 8.320312 0.699219 L 7.996094 2.703125 C 7.972656 2.847656 8.078125 2.980469 8.222656 2.980469 L 10.480469 2.980469 C 10.675781 2.980469 10.78125 2.75 10.660156 2.597656 L 10.558594 2.464844 C 10.484375 2.367188 10.492188 2.226562 10.582031 2.144531 L 11.015625 1.726562 C 11.171875 1.574219 11.058594 1.316406 10.859375 1.316406 C 10.847656 1.316406 10.832031 1.316406 10.820312 1.320312 L 10.035156 1.453125 C 10.019531 1.453125 10.007812 1.453125 9.996094 1.453125 C 9.859375 1.453125 9.75 1.328125 9.769531 1.183594 L 9.789062 1.035156 C 9.8125 0.882812 9.691406 0.761719 9.5625 0.761719 C 9.523438 0.761719 9.480469 0.773438 9.441406 0.796875 L 9.210938 0.9375 C 9.175781 0.960938 9.136719 0.972656 9.09375 0.972656 C 9.015625 0.972656 8.945312 0.933594 8.898438 0.863281 L 8.742188 0.609375 C 8.695312 0.535156 8.621094 0.5 8.546875 0.5 Z M 8.546875 0.5"/></g><mask id="mask3"><g filter="url(#alpha)"><rect width="16" height="16" x="0" y="0" style="fill:#000;fill-opacity:.2;stroke:none"/></g></mask><clipPath id="clip4"><rect width="16" height="16" x="0" y="0"/></clipPath><g id="surface14" clip-path="url(#clip4)"><path style="stroke:none;fill-rule:nonzero;fill:#434343;fill-opacity:1" d="M 10.003906 4.628906 C 10.460938 4.910156 9.429688 5.753906 7.875 6.066406 C 6.324219 6.378906 5.105469 6.214844 5.019531 5.753906 C 4.929688 5.292969 5.671875 4.753906 7.226562 4.441406 C 8.78125 4.128906 9.613281 4.386719 10.003906 4.628906 Z M 10.003906 4.628906"/></g><radialGradient id="radial3" cx="64.912" cy="25.503" r="26.804" fx="64.912" fy="25.503" gradientTransform="matrix(0.111525,-0.0497375,0.0294125,0.06975,-0.369675,4.38375)" gradientUnits="userSpaceOnUse"><stop offset="0" style="stop-color:#ef5451;stop-opacity:1"/><stop offset=".784" style="stop-color:#e53a35;stop-opacity:1"/><stop offset="1" style="stop-color:#c62828;stop-opacity:1"/></radialGradient><mask id="mask4"><g filter="url(#alpha)"><rect width="16" height="16" x="0" y="0" style="fill:#000;fill-opacity:.2;stroke:none"/></g></mask><clipPath id="clip5"><rect width="16" height="16" x="0" y="0"/></clipPath><g id="surface17" clip-path="url(#clip5)"><path style="stroke:none;fill-rule:nonzero;fill:#434343;fill-opacity:1" d="M 7.660156 1.015625 L 7.660156 1.265625 C 8.207031 1.265625 8.792969 1.523438 9.355469 2.015625 C 9.679688 2.300781 10.023438 2.820312 10.015625 3.421875 C 10.003906 3.902344 9.769531 4.332031 9.316406 4.695312 C 8.359375 5.46875 6.875 5.597656 5.789062 5.691406 L 5.757812 5.691406 C 5.738281 5.695312 5.71875 5.695312 5.699219 5.695312 C 5.519531 5.695312 5.363281 5.625 5.261719 5.503906 C 5.203125 5.425781 5.136719 5.300781 5.171875 5.113281 C 5.203125 4.957031 5.234375 4.796875 5.261719 4.640625 C 5.441406 3.671875 5.609375 2.757812 6.195312 2.042969 C 6.621094 1.527344 7.113281 1.265625 7.660156 1.265625 L 7.660156 1.015625 M 7.660156 1.015625 C 7.074219 1.015625 6.503906 1.277344 6.003906 1.882812 C 5.269531 2.777344 5.148438 3.953125 4.929688 5.066406 C 4.832031 5.5625 5.21875 5.945312 5.703125 5.945312 C 5.726562 5.945312 5.753906 5.945312 5.78125 5.941406 C 6.914062 5.84375 8.449219 5.71875 9.476562 4.890625 C 10.757812 3.855469 10.261719 2.472656 9.519531 1.828125 C 8.941406 1.320312 8.292969 1.015625 7.660156 1.015625 Z M 7.660156 1.015625"/></g></defs><g id="surface1"><use mask="url(#mask0)" xlink:href="#surface5"/><path style="stroke:none;fill-rule:nonzero;fill:url(#linear0)" d="M 13.5 4.960938 L 2.207031 8.078125 C 2.066406 8.117188 1.96875 8.25 1.96875 8.398438 L 1.96875 10.828125 C 1.96875 11.203125 1.902344 11.339844 2.417969 11.183594 L 13.640625 8.082031 C 13.796875 8.042969 13.90625 7.894531 13.90625 7.726562 L 13.90625 5.28125 C 13.90625 5.0625 13.707031 4.90625 13.5 4.960938 Z M 13.5 4.960938"/><path style="stroke:none;fill-rule:nonzero;fill:#f78c1e;fill-opacity:1" d="M 5.949219 3.25 L 2 8.332031 L 1.984375 8.878906 C 1.984375 8.878906 2.734375 8.800781 3.425781 8.609375 C 4.621094 8.28125 6.160156 7.796875 7.425781 7.5625 C 9.175781 7.238281 10.609375 6.734375 12.257812 6.167969 C 12.921875 5.941406 13.90625 5.617188 13.90625 5.617188 L 13.90625 5.164062 L 6.945312 2.941406 C 6.582031 2.808594 6.175781 2.933594 5.949219 3.25 Z M 5.949219 3.25"/><path style="stroke:none;fill-rule:nonzero;fill:url(#linear1)" d="M 13.5 9.320312 L 2.207031 12.4375 C 2.066406 12.476562 1.96875 12.609375 1.96875 12.757812 L 1.96875 14.957031 C 1.96875 15.199219 2.183594 15.417969 2.710938 15.300781 L 13.640625 12.210938 C 13.796875 12.171875 13.90625 12.023438 13.90625 11.855469 L 13.90625 9.640625 C 13.90625 9.421875 13.707031 9.265625 13.5 9.320312 Z M 13.5 9.320312"/><path style="stroke:none;fill-rule:nonzero;fill:#ffe0b2;fill-opacity:1" d="M 5.90625 3.015625 L 1.921875 8.117188 C 1.882812 8.164062 1.863281 8.222656 1.863281 8.28125 C 1.863281 8.449219 1.835938 8.570312 2.007812 8.636719 C 2.179688 8.699219 2.691406 8.566406 3.382812 8.375 C 4.578125 8.042969 6.117188 7.550781 7.382812 7.328125 C 9.0625 7.027344 10.59375 6.523438 12.214844 5.933594 C 12.875 5.691406 13.746094 5.441406 13.746094 5.441406 C 13.886719 5.402344 13.984375 5.269531 13.984375 5.121094 C 13.984375 5.027344 13.925781 4.941406 13.839844 4.914062 L 6.902344 2.703125 C 6.539062 2.574219 6.136719 2.699219 5.90625 3.015625 Z M 5.90625 3.015625"/><path style="stroke:none;fill-rule:nonzero;fill:#fefce9;fill-opacity:1" d="M 4.886719 2.867188 C 3.621094 4.820312 1.863281 8.183594 1.863281 8.183594 C 1.863281 8.183594 1.6875 8.589844 5.484375 7.304688 C 6.292969 7.03125 7.675781 6.847656 9.089844 6.496094 C 10.664062 6.105469 11.613281 5.667969 12.429688 5.398438 C 13.3125 5.109375 13.953125 5.019531 13.953125 5.019531 C 13.953125 5.019531 13.011719 3.453125 10.023438 2.679688 C 7.359375 1.996094 5.539062 1.863281 4.886719 2.867188 Z M 4.886719 2.867188"/><path style="stroke:none;fill-rule:nonzero;fill:#f57f20;fill-opacity:1" d="M 13.875 9.050781 L 1.984375 12.316406 L 1.984375 10.808594 L 13.90625 7.625 C 13.90625 7.625 13.890625 7.910156 13.890625 8.128906 Z M 13.875 9.050781"/><path style="stroke:none;fill-rule:nonzero;fill:#f57f20;fill-opacity:1" d="M 13.890625 9.882812 L 1.984375 13.191406 L 1.984375 12.28125 L 13.511719 8.667969 C 13.714844 8.609375 13.917969 8.722656 13.917969 8.9375 Z M 13.890625 9.882812"/><path style="stroke:none;fill-rule:nonzero;fill:#fbcbbd;fill-opacity:1" d="M 13.679688 9.441406 L 1.972656 12.660156 L 1.949219 11.617188 C 1.949219 11.46875 2.046875 11.335938 2.1875 11.296875 L 13.921875 8.097656 L 13.917969 9.121094 C 13.917969 9.269531 13.820312 9.402344 13.679688 9.441406 Z M 13.679688 9.441406"/><path style="stroke:none;fill-rule:nonzero;fill:url(#radial0)" d="M 13.554688 9.5 L 10.1875 10.421875 C 10.1875 10.421875 10.65625 9.011719 11.839844 8.671875 C 13.070312 8.3125 13.554688 9.5 13.554688 9.5 Z M 13.554688 9.5"/><path style="stroke:none;fill-rule:nonzero;fill:url(#radial1)" d="M 5.730469 11.617188 L 2.398438 12.535156 C 2.398438 12.535156 2.664062 11.125 3.855469 10.808594 C 5.058594 10.488281 5.730469 11.617188 5.730469 11.617188 Z M 5.730469 11.617188"/><path style="stroke:none;fill-rule:nonzero;fill:url(#radial2)" d="M 6.105469 10.226562 L 9.441406 9.308594 C 9.441406 9.308594 9.351562 10.585938 7.851562 10.980469 C 6.660156 11.292969 6.105469 10.226562 6.105469 10.226562 Z M 6.105469 10.226562"/><use mask="url(#mask1)" xlink:href="#surface8"/><path style="stroke:none;fill-rule:nonzero;fill:url(#linear2)" d="M 10.480469 2.980469 L 8.222656 2.980469 C 8.078125 2.980469 7.972656 2.851562 7.996094 2.703125 L 8.320312 0.699219 C 8.355469 0.484375 8.628906 0.425781 8.742188 0.609375 L 8.898438 0.863281 C 8.96875 0.96875 9.105469 1.003906 9.210938 0.9375 L 9.441406 0.796875 C 9.609375 0.695312 9.816406 0.835938 9.789062 1.03125 L 9.765625 1.183594 C 9.746094 1.34375 9.878906 1.476562 10.03125 1.453125 L 10.820312 1.320312 C 11.042969 1.28125 11.179688 1.566406 11.015625 1.726562 L 10.578125 2.144531 C 10.492188 2.230469 10.484375 2.367188 10.558594 2.464844 L 10.660156 2.597656 C 10.78125 2.75 10.671875 2.980469 10.480469 2.980469 Z M 10.480469 2.980469"/><use mask="url(#mask2)" xlink:href="#surface11"/><use mask="url(#mask3)" xlink:href="#surface14"/><path style="stroke:none;fill-rule:nonzero;fill:url(#radial3)" d="M 9.519531 1.828125 C 10.261719 2.472656 10.757812 3.855469 9.476562 4.890625 C 8.449219 5.71875 6.914062 5.84375 5.78125 5.941406 C 5.265625 5.984375 4.828125 5.589844 4.929688 5.066406 C 5.148438 3.953125 5.269531 2.773438 6.003906 1.882812 C 7.042969 0.617188 8.40625 0.855469 9.519531 1.828125 Z M 9.519531 1.828125"/><path style="stroke:none;fill-rule:nonzero;fill:#c62828;fill-opacity:1" d="M 7.035156 1.675781 C 6.957031 1.609375 6.804688 1.664062 6.6875 1.792969 C 6.574219 1.925781 6.542969 2.085938 6.621094 2.152344 C 6.695312 2.21875 6.851562 2.167969 6.964844 2.035156 C 7.082031 1.902344 7.109375 1.742188 7.035156 1.675781 Z M 7.035156 1.675781"/><path style="stroke:none;fill-rule:nonzero;fill:#fecc81;fill-opacity:1" d="M 7.0625 1.765625 C 6.984375 1.699219 6.828125 1.75 6.714844 1.882812 C 6.601562 2.015625 6.570312 2.175781 6.644531 2.242188 C 6.722656 2.308594 6.878906 2.257812 6.992188 2.125 C 7.105469 1.992188 7.136719 1.832031 7.0625 1.765625 Z M 7.0625 1.765625"/><path style="stroke:none;fill-rule:nonzero;fill:#c62828;fill-opacity:1" d="M 6.238281 3.316406 C 6.15625 3.261719 6.011719 3.332031 5.914062 3.472656 C 5.820312 3.613281 5.808594 3.773438 5.890625 3.828125 C 5.972656 3.882812 6.117188 3.8125 6.210938 3.671875 C 6.308594 3.53125 6.316406 3.371094 6.238281 3.316406 Z M 6.238281 3.316406"/><path style="stroke:none;fill-rule:nonzero;fill:#fecc81;fill-opacity:1" d="M 6.273438 3.402344 C 6.191406 3.34375 6.046875 3.414062 5.953125 3.554688 C 5.855469 3.699219 5.84375 3.855469 5.925781 3.914062 C 6.007812 3.96875 6.152344 3.898438 6.25 3.757812 C 6.34375 3.617188 6.355469 3.457031 6.273438 3.402344 Z M 6.273438 3.402344"/><path style="stroke:none;fill-rule:nonzero;fill:#c62828;fill-opacity:1" d="M 8.46875 2.558594 C 8.398438 2.480469 8.230469 2.511719 8.097656 2.632812 C 7.964844 2.75 7.910156 2.914062 7.980469 2.992188 C 8.050781 3.070312 8.21875 3.039062 8.351562 2.917969 C 8.484375 2.796875 8.539062 2.636719 8.46875 2.558594 Z M 8.46875 2.558594"/><path style="stroke:none;fill-rule:nonzero;fill:#fecc81;fill-opacity:1" d="M 8.484375 2.652344 C 8.414062 2.574219 8.25 2.609375 8.113281 2.726562 C 7.980469 2.847656 7.929688 3.007812 8 3.085938 C 8.070312 3.164062 8.234375 3.132812 8.371094 3.011719 C 8.503906 2.894531 8.554688 2.734375 8.484375 2.652344 Z M 8.484375 2.652344"/><path style="stroke:none;fill-rule:nonzero;fill:#c62828;fill-opacity:1" d="M 7.136719 2.738281 C 7.089844 2.6875 6.980469 2.710938 6.890625 2.789062 C 6.800781 2.871094 6.765625 2.976562 6.8125 3.03125 C 6.859375 3.082031 6.972656 3.058594 7.0625 2.980469 C 7.148438 2.898438 7.183594 2.792969 7.136719 2.738281 Z M 7.136719 2.738281"/><path style="stroke:none;fill-rule:nonzero;fill:#fecc81;fill-opacity:1" d="M 7.148438 2.804688 C 7.101562 2.75 6.992188 2.773438 6.902344 2.851562 C 6.8125 2.933594 6.777344 3.039062 6.824219 3.09375 C 6.871094 3.144531 6.980469 3.125 7.070312 3.042969 C 7.160156 2.964844 7.195312 2.855469 7.148438 2.804688 Z M 7.148438 2.804688"/><path style="stroke:none;fill-rule:nonzero;fill:#c62828;fill-opacity:1" d="M 7.5 3.941406 C 7.453125 3.886719 7.34375 3.910156 7.253906 3.988281 C 7.164062 4.070312 7.128906 4.175781 7.175781 4.230469 C 7.222656 4.28125 7.332031 4.261719 7.421875 4.179688 C 7.511719 4.101562 7.546875 3.992188 7.5 3.941406 Z M 7.5 3.941406"/><path style="stroke:none;fill-rule:nonzero;fill:#fecc81;fill-opacity:1" d="M 7.507812 4.003906 C 7.460938 3.953125 7.351562 3.972656 7.261719 4.054688 C 7.171875 4.132812 7.136719 4.242188 7.183594 4.292969 C 7.230469 4.347656 7.34375 4.324219 7.433594 4.242188 C 7.523438 4.164062 7.554688 4.054688 7.507812 4.003906 Z M 7.507812 4.003906"/><path style="stroke:none;fill-rule:nonzero;fill:#c62828;fill-opacity:1" d="M 8.261719 1.628906 C 8.214844 1.574219 8.105469 1.597656 8.015625 1.675781 C 7.925781 1.757812 7.890625 1.863281 7.9375 1.917969 C 7.984375 1.96875 8.097656 1.945312 8.1875 1.867188 C 8.273438 1.789062 8.308594 1.679688 8.261719 1.628906 Z M 8.261719 1.628906"/><path style="stroke:none;fill-rule:nonzero;fill:#fecc81;fill-opacity:1" d="M 8.273438 1.691406 C 8.226562 1.636719 8.117188 1.660156 8.027344 1.742188 C 7.9375 1.820312 7.902344 1.929688 7.949219 1.980469 C 7.996094 2.03125 8.105469 2.011719 8.195312 1.929688 C 8.285156 1.851562 8.320312 1.742188 8.273438 1.691406 Z M 8.273438 1.691406"/><use mask="url(#mask4)" xlink:href="#surface17"/></g></svg>