<svg xmlns="http://www.w3.org/2000/svg" xmlns:xlink="http://www.w3.org/1999/xlink" width="16pt" height="16pt" version="1.1" viewBox="0 0 16 16"><defs><radialGradient id="radial0" cx="52.44" cy="100.64" r="12.849" fx="52.44" fy="100.64" gradientTransform="matrix(0.125,0,0,-0.125,0,16.25)" gradientUnits="userSpaceOnUse"><stop offset=".087" style="stop-color:#d99914;stop-opacity:1"/><stop offset=".41" style="stop-color:#d59612;stop-opacity:1"/><stop offset=".735" style="stop-color:#c98d0d;stop-opacity:1"/><stop offset=".987" style="stop-color:#ba8207;stop-opacity:1"/></radialGradient><linearGradient id="linear0" x1="64" x2="64" y1="78.096" y2="21.966" gradientTransform="matrix(0.125,0,0,-0.125,0,16.25)" gradientUnits="userSpaceOnUse"><stop offset=".02" style="stop-color:#f7bc00;stop-opacity:1"/><stop offset="1" style="stop-color:#fcd73e;stop-opacity:1"/></linearGradient><filter id="alpha" width="100%" height="100%" x="0%" y="0%" filterUnits="objectBoundingBox"><feColorMatrix in="SourceGraphic" type="matrix" values="0 0 0 0 1 0 0 0 0 1 0 0 0 0 1 0 0 0 1 0"/></filter><mask id="mask0"><g filter="url(#alpha)"><rect width="16" height="16" x="0" y="0" style="fill:#000;fill-opacity:.2;stroke:none"/></g></mask><clipPath id="clip1"><rect width="16" height="16" x="0" y="0"/></clipPath><g id="surface5" clip-path="url(#clip1)"><path style="stroke:none;fill-rule:nonzero;fill:#606060;fill-opacity:1" d="M 10.398438 1.839844 C 10.410156 1.839844 10.417969 1.839844 10.421875 1.839844 C 13.132812 2.199219 14.746094 4.152344 15.09375 4.617188 C 15.089844 5.378906 15.074219 9.058594 15.09375 10.621094 C 15.097656 10.890625 14.972656 11.230469 14.605469 11.304688 L 0.90625 14.070312 L 0.90625 8.042969 C 0.90625 8.027344 0.90625 8.011719 0.90625 7.996094 L 0.90625 7.984375 L 5.078125 4.992188 C 5.230469 5.101562 5.429688 5.191406 5.675781 5.191406 C 5.820312 5.191406 5.96875 5.160156 6.117188 5.097656 C 6.273438 5.039062 6.375 4.886719 6.371094 4.722656 L 6.371094 3.945312 C 6.457031 3.890625 6.554688 3.828125 6.667969 3.757812 C 7.511719 3.234375 9.746094 1.839844 10.398438 1.839844 M 10.398438 1.433594 C 9.488281 1.433594 6.707031 3.273438 5.972656 3.710938 C 5.972656 3.710938 5.976562 3.710938 5.984375 3.714844 C 5.976562 3.714844 5.972656 3.714844 5.964844 3.714844 L 5.96875 4.722656 C 5.859375 4.765625 5.761719 4.78125 5.671875 4.78125 C 5.300781 4.78125 5.128906 4.453125 5.128906 4.453125 L 0.503906 7.777344 L 0.503906 7.996094 L 0.5 7.996094 L 0.5 14.566406 L 14.6875 11.699219 C 15.210938 11.589844 15.507812 11.121094 15.5 10.613281 C 15.476562 8.898438 15.5 4.578125 15.5 4.488281 L 15.5 4.484375 C 15.5 4.484375 15.496094 4.484375 15.496094 4.484375 C 15.445312 4.40625 13.675781 1.859375 10.472656 1.4375 C 10.449219 1.433594 10.425781 1.433594 10.398438 1.433594 Z M 10.398438 1.433594"/></g><mask id="mask1"><g filter="url(#alpha)"><rect width="16" height="16" x="0" y="0" style="fill:#000;fill-opacity:.901961;stroke:none"/></g></mask><radialGradient id="radial1" cx="113.64" cy="83.019" r="14.631" fx="113.64" fy="83.019" gradientTransform="matrix(0.125,0,0,0.125,0,0)" gradientUnits="userSpaceOnUse"><stop offset=".081" style="stop-color:#de7f14;stop-opacity:1"/><stop offset=".339" style="stop-color:#da7d12;stop-opacity:1"/><stop offset=".599" style="stop-color:#ce760d;stop-opacity:1"/><stop offset=".86" style="stop-color:#ba6c05;stop-opacity:1"/><stop offset=".987" style="stop-color:#ad6500;stop-opacity:1"/></radialGradient><clipPath id="clip2"><rect width="16" height="16" x="0" y="0"/></clipPath><g id="surface8" clip-path="url(#clip2)"><path style="stroke:none;fill-rule:nonzero;fill:url(#radial1)" d="M 13.503906 8.574219 C 14.085938 8.523438 14.554688 8.929688 14.554688 9.488281 C 14.554688 10.046875 14.085938 10.542969 13.503906 10.59375 C 12.921875 10.644531 12.453125 10.238281 12.453125 9.679688 C 12.453125 9.121094 12.921875 8.628906 13.503906 8.574219 Z M 13.503906 8.574219"/></g><radialGradient id="radial2" cx="89.314" cy="45.694" r="11.845" fx="89.314" fy="45.694" gradientTransform="matrix(0.125,0,0,0.125,0,0)" gradientUnits="userSpaceOnUse"><stop offset="0" style="stop-color:#de7f14;stop-opacity:1"/><stop offset=".329" style="stop-color:#db7e13;stop-opacity:1"/><stop offset=".527" style="stop-color:#d37911;stop-opacity:1"/><stop offset=".69" style="stop-color:#c5720d;stop-opacity:1"/><stop offset=".835" style="stop-color:#b06708;stop-opacity:1"/><stop offset=".966" style="stop-color:#975901;stop-opacity:1"/><stop offset=".989" style="stop-color:#915600;stop-opacity:1"/></radialGradient><radialGradient id="radial3" cx="32.778" cy="58.198" r="7.683" fx="32.778" fy="58.198" gradientTransform="matrix(0.1118,0.00165,-0.00185,0.124988,0.499425,-0.057875)" gradientUnits="userSpaceOnUse"><stop offset="0" style="stop-color:#de7f14;stop-opacity:1"/><stop offset=".265" style="stop-color:#da7d13;stop-opacity:1"/><stop offset=".51" style="stop-color:#cf770f;stop-opacity:1"/><stop offset=".746" style="stop-color:#bd6d09;stop-opacity:1"/><stop offset=".976" style="stop-color:#a26000;stop-opacity:1"/><stop offset=".987" style="stop-color:#a15f00;stop-opacity:1"/></radialGradient><radialGradient id="radial4" cx="229.26" cy="353.29" r="8.543" fx="229.26" fy="353.29" gradientTransform="matrix(0.090375,0.0863625,0.0707125,-0.074,-35.955,8.61475)" gradientUnits="userSpaceOnUse"><stop offset=".087" style="stop-color:#d99914;stop-opacity:1"/><stop offset=".41" style="stop-color:#d59612;stop-opacity:1"/><stop offset=".735" style="stop-color:#c98d0d;stop-opacity:1"/><stop offset=".987" style="stop-color:#ba8207;stop-opacity:1"/></radialGradient><mask id="mask2"><g filter="url(#alpha)"><rect width="16" height="16" x="0" y="0" style="fill:#000;fill-opacity:.901961;stroke:none"/></g></mask><radialGradient id="radial5" cx="77.251" cy="83.38" r="26.321" fx="77.251" fy="83.38" gradientTransform="matrix(0.125,0,0,0.125,0,0)" gradientUnits="userSpaceOnUse"><stop offset=".081" style="stop-color:#de7f14;stop-opacity:1"/><stop offset=".339" style="stop-color:#da7d12;stop-opacity:1"/><stop offset=".599" style="stop-color:#ce760d;stop-opacity:1"/><stop offset=".86" style="stop-color:#ba6c05;stop-opacity:1"/><stop offset=".987" style="stop-color:#ad6500;stop-opacity:1"/></radialGradient><clipPath id="clip3"><rect width="16" height="16" x="0" y="0"/></clipPath><g id="surface11" clip-path="url(#clip3)"><path style="stroke:none;fill-rule:nonzero;fill:url(#radial5)" d="M 8.359375 7.605469 C 9.347656 7.515625 10.148438 8.214844 10.148438 9.164062 C 10.148438 10.113281 9.347656 10.953125 8.359375 11.046875 C 7.367188 11.132812 6.566406 10.4375 6.566406 9.488281 C 6.566406 8.539062 7.367188 7.695312 8.359375 7.605469 Z M 8.359375 7.605469"/></g><mask id="mask3"><g filter="url(#alpha)"><rect width="16" height="16" x="0" y="0" style="fill:#000;fill-opacity:.901961;stroke:none"/></g></mask><radialGradient id="radial6" cx="44.104" cy="97.791" r="12.936" fx="44.104" fy="97.791" gradientTransform="matrix(0.125,0,0,0.125,0,0)" gradientUnits="userSpaceOnUse"><stop offset=".081" style="stop-color:#de7f14;stop-opacity:1"/><stop offset=".339" style="stop-color:#da7d12;stop-opacity:1"/><stop offset=".599" style="stop-color:#ce760d;stop-opacity:1"/><stop offset=".86" style="stop-color:#ba6c05;stop-opacity:1"/><stop offset=".987" style="stop-color:#ad6500;stop-opacity:1"/></radialGradient><clipPath id="clip4"><rect width="16" height="16" x="0" y="0"/></clipPath><g id="surface14" clip-path="url(#clip4)"><path style="stroke:none;fill-rule:nonzero;fill:url(#radial6)" d="M 4.9375 10.574219 C 5.4375 10.527344 5.84375 10.882812 5.84375 11.363281 C 5.84375 11.84375 5.4375 12.269531 4.9375 12.316406 C 4.433594 12.359375 4.027344 12.007812 4.027344 11.527344 C 4.027344 11.046875 4.433594 10.617188 4.9375 10.574219 Z M 4.9375 10.574219"/></g><mask id="mask4"><g filter="url(#alpha)"><rect width="16" height="16" x="0" y="0" style="fill:#000;fill-opacity:.901961;stroke:none"/></g></mask><radialGradient id="radial7" cx="20.37" cy="80.858" r="4.596" fx="20.37" fy="80.858" gradientTransform="matrix(0.125,0,0,0.125,0,0)" gradientUnits="userSpaceOnUse"><stop offset=".081" style="stop-color:#de7f14;stop-opacity:1"/><stop offset=".339" style="stop-color:#da7d12;stop-opacity:1"/><stop offset=".599" style="stop-color:#ce760d;stop-opacity:1"/><stop offset=".86" style="stop-color:#ba6c05;stop-opacity:1"/><stop offset=".987" style="stop-color:#ad6500;stop-opacity:1"/></radialGradient><clipPath id="clip5"><rect width="16" height="16" x="0" y="0"/></clipPath><g id="surface17" clip-path="url(#clip5)"><path style="stroke:none;fill-rule:nonzero;fill:url(#radial7)" d="M 2.265625 9.25 C 2.53125 9.226562 2.75 9.414062 2.75 9.671875 C 2.75 9.929688 2.535156 10.160156 2.265625 10.183594 C 1.996094 10.207031 1.777344 10.019531 1.777344 9.761719 C 1.777344 9.503906 1.996094 9.273438 2.265625 9.25 Z M 2.265625 9.25"/></g></defs><g id="surface1"><path style="stroke:none;fill-rule:nonzero;fill:url(#radial0)" d="M 5.964844 3.714844 L 5.96875 4.886719 C 6.667969 4.90625 6.777344 3.722656 5.964844 3.714844 Z M 5.964844 3.714844"/><path style="stroke:none;fill-rule:nonzero;fill:url(#linear0)" d="M 15.5 4.484375 C 15.5 4.484375 15.476562 8.882812 15.5 10.617188 C 15.507812 11.125 15.210938 11.589844 14.6875 11.703125 L 0.5 14.566406 L 0.5 7.996094 C 0.5 7.976562 15.5 4.484375 15.5 4.484375 Z M 15.5 4.484375"/><path style="stroke:none;fill-rule:nonzero;fill:#ffe959;fill-opacity:1" d="M 15.5 4.488281 C 15.5 4.488281 13.726562 1.863281 10.472656 1.4375 C 9.644531 1.328125 6.730469 3.261719 5.976562 3.710938 C 5.976562 3.710938 7.101562 4.171875 6.042969 4.691406 C 5.414062 5 5.128906 4.457031 5.128906 4.457031 L 0.503906 7.777344 L 0.503906 7.996094 C 3.132812 7.386719 15.5 4.488281 15.5 4.488281 Z M 15.5 4.488281"/><use mask="url(#mask0)" xlink:href="#surface5"/><use mask="url(#mask1)" xlink:href="#surface8"/><path style="stroke:none;fill-rule:nonzero;fill:url(#radial2)" d="M 12.414062 5.203125 C 12.414062 5.203125 11.988281 4.332031 10.78125 4.636719 C 9.578125 4.9375 9.679688 5.828125 9.679688 5.828125 C 9.679688 5.828125 10.117188 6.796875 11.300781 6.480469 C 12.335938 6.109375 12.414062 5.203125 12.414062 5.203125 Z M 12.414062 5.203125"/><path style="stroke:none;fill-rule:nonzero;fill:url(#radial3)" d="M 4.796875 6.988281 C 4.796875 6.988281 4.554688 6.40625 3.839844 6.597656 C 3.128906 6.789062 3.179688 7.375 3.179688 7.375 C 3.179688 7.375 3.496094 7.917969 4.109375 7.761719 C 4.726562 7.601562 4.796875 6.988281 4.796875 6.988281 Z M 4.796875 6.988281"/><path style="stroke:none;fill-rule:nonzero;fill:url(#radial4)" d="M 10.152344 2.402344 C 10.53125 2.367188 10.835938 2.558594 10.835938 2.824219 C 10.835938 3.089844 10.53125 3.335938 10.152344 3.371094 C 9.773438 3.402344 9.464844 3.214844 9.464844 2.949219 C 9.464844 2.679688 9.769531 2.4375 10.152344 2.402344 Z M 10.152344 2.402344"/><use mask="url(#mask2)" xlink:href="#surface11"/><use mask="url(#mask3)" xlink:href="#surface14"/><use mask="url(#mask4)" xlink:href="#surface17"/></g></svg>