<svg xmlns="http://www.w3.org/2000/svg" xmlns:xlink="http://www.w3.org/1999/xlink" width="16pt" height="16pt" version="1.1" viewBox="0 0 16 16"><defs><linearGradient id="linear0" x1="108.59" x2="108.59" y1="43.394" y2="108.64" gradientTransform="matrix(-0.124175,-0.0143,-0.0143,0.124175,20.975,1.316625)" gradientUnits="userSpaceOnUse"><stop offset=".005" style="stop-color:#eee;stop-opacity:1"/><stop offset=".282" style="stop-color:#eaeaea;stop-opacity:1"/><stop offset=".577" style="stop-color:#ddd;stop-opacity:1"/><stop offset=".879" style="stop-color:#c8c8c8;stop-opacity:1"/><stop offset="1" style="stop-color:#bdbdbd;stop-opacity:1"/></linearGradient><filter id="alpha" width="100%" height="100%" x="0%" y="0%" filterUnits="objectBoundingBox"><feColorMatrix in="SourceGraphic" type="matrix" values="0 0 0 0 1 0 0 0 0 1 0 0 0 0 1 0 0 0 1 0"/></filter><mask id="mask0"><g filter="url(#alpha)"><rect width="16" height="16" x="0" y="0" style="fill:#000;fill-opacity:.2;stroke:none"/></g></mask><clipPath id="clip1"><rect width="16" height="16" x="0" y="0"/></clipPath><g id="surface5" clip-path="url(#clip1)"><path style="stroke:none;fill-rule:nonzero;fill:#424242;fill-opacity:1" d="M 3.875 5.054688 L 4.058594 5.078125 L 6.847656 5.398438 L 9.632812 5.71875 L 9.804688 5.738281 L 8.964844 12.109375 C 8.929688 12.417969 8.679688 12.660156 8.21875 12.832031 C 7.800781 12.992188 7.226562 13.078125 6.609375 13.078125 C 6.375 13.078125 6.140625 13.066406 5.925781 13.039062 C 5.417969 12.980469 4.65625 12.804688 4.050781 12.484375 C 3.640625 12.265625 3.164062 11.910156 3.21875 11.433594 Z M 3.628906 4.746094 L 2.945312 11.40625 C 2.816406 12.527344 4.695312 13.175781 5.894531 13.316406 C 6.109375 13.339844 6.355469 13.355469 6.609375 13.355469 C 7.761719 13.355469 9.132812 13.058594 9.238281 12.140625 L 10.117188 5.496094 L 9.664062 5.445312 L 4.09375 4.800781 Z M 3.628906 4.746094"/></g><linearGradient id="linear1" x1="108.68" x2="108.68" y1="44.845" y2="104.89" gradientTransform="matrix(-0.124175,-0.0143,-0.0143,0.124175,20.975,1.316625)" gradientUnits="userSpaceOnUse"><stop offset="0" style="stop-color:#ffb300;stop-opacity:1"/><stop offset="1" style="stop-color:#ffea00;stop-opacity:1"/></linearGradient><linearGradient id="linear2" x1="143.92" x2="143.92" y1="48.626" y2="93.942" gradientTransform="matrix(-0.124175,-0.0143,-0.0143,0.124175,20.975,1.316625)" gradientUnits="userSpaceOnUse"><stop offset=".005" style="stop-color:#eee;stop-opacity:1"/><stop offset=".282" style="stop-color:#eaeaea;stop-opacity:1"/><stop offset=".577" style="stop-color:#ddd;stop-opacity:1"/><stop offset=".879" style="stop-color:#c8c8c8;stop-opacity:1"/><stop offset="1" style="stop-color:#bdbdbd;stop-opacity:1"/></linearGradient><mask id="mask1"><g filter="url(#alpha)"><rect width="16" height="16" x="0" y="0" style="fill:#000;fill-opacity:.2;stroke:none"/></g></mask><clipPath id="clip2"><rect width="16" height="16" x="0" y="0"/></clipPath><g id="surface8" clip-path="url(#clip2)"><path style="stroke:none;fill-rule:nonzero;fill:#424242;fill-opacity:1" d="M 3.300781 5.328125 L 3.5625 5.550781 L 3.242188 8.550781 L 3 10.867188 L 2.941406 10.917969 C 2.753906 10.796875 2.417969 10.621094 1.851562 10.414062 C 0.9375 10.082031 0.722656 9.792969 0.886719 7.863281 C 1.0625 5.75 1.601562 5.71875 2.125 5.6875 C 2.6875 5.65625 3.082031 5.464844 3.300781 5.328125 M 2.128906 9.609375 C 2.878906 9.609375 2.984375 8.722656 3.054688 8.078125 C 3.101562 7.691406 3.140625 7.328125 3.09375 7.035156 C 3.003906 6.527344 2.667969 6.382812 2.394531 6.351562 C 2.359375 6.347656 2.320312 6.34375 2.28125 6.34375 C 1.539062 6.34375 1.449219 7.125 1.359375 7.882812 C 1.316406 8.265625 1.273438 8.632812 1.324219 8.921875 C 1.414062 9.429688 1.75 9.574219 2.019531 9.605469 C 2.058594 9.609375 2.09375 9.609375 2.128906 9.609375 M 3.316406 4.972656 C 3.316406 4.972656 2.910156 5.363281 2.109375 5.410156 C 1.421875 5.449219 0.796875 5.59375 0.609375 7.839844 C 0.441406 9.800781 0.65625 10.277344 1.757812 10.675781 C 2.714844 11.019531 2.957031 11.277344 2.957031 11.277344 L 3.261719 11 L 3.515625 8.582031 L 3.855469 5.4375 Z M 2.128906 9.332031 C 2.105469 9.332031 2.078125 9.332031 2.054688 9.328125 C 1.480469 9.261719 1.550781 8.65625 1.636719 7.910156 C 1.71875 7.203125 1.785156 6.621094 2.28125 6.621094 C 2.308594 6.621094 2.335938 6.621094 2.363281 6.625 C 2.9375 6.691406 2.867188 7.296875 2.78125 8.042969 C 2.699219 8.753906 2.601562 9.332031 2.128906 9.332031 Z M 2.128906 9.332031"/></g><linearGradient id="linear3" x1="67.93" x2="130.99" y1="42.269" y2="36.506" gradientTransform="matrix(-0.125,0,0,0.125,19.38875,0)" gradientUnits="userSpaceOnUse"><stop offset=".005" style="stop-color:#eee;stop-opacity:1"/><stop offset=".488" style="stop-color:#f2f2f2;stop-opacity:1"/><stop offset="1" style="stop-color:#fff;stop-opacity:1"/></linearGradient><mask id="mask2"><g filter="url(#alpha)"><rect width="16" height="16" x="0" y="0" style="fill:#000;fill-opacity:.2;stroke:none"/></g></mask><clipPath id="clip3"><rect width="16" height="16" x="0" y="0"/></clipPath><g id="surface11" clip-path="url(#clip3)"><path style="stroke:none;fill-rule:nonzero;fill:#424242;fill-opacity:1" d="M 6.3125 2.699219 C 6.34375 2.699219 6.378906 2.699219 6.414062 2.703125 C 6.695312 2.730469 6.960938 2.859375 7.167969 3.074219 C 7.238281 3.148438 7.335938 3.191406 7.4375 3.191406 C 7.492188 3.191406 7.550781 3.175781 7.601562 3.152344 C 7.746094 3.078125 7.902344 3.042969 8.066406 3.042969 C 8.101562 3.042969 8.136719 3.046875 8.167969 3.046875 C 8.601562 3.089844 8.988281 3.378906 9.164062 3.785156 C 9.222656 3.925781 9.359375 4.015625 9.507812 4.015625 L 9.527344 4.015625 C 9.542969 4.011719 9.554688 4.011719 9.570312 4.011719 C 9.585938 4.011719 9.601562 4.011719 9.617188 4.015625 C 9.984375 4.046875 10.273438 4.371094 10.257812 4.734375 C 10.257812 4.757812 10.253906 4.78125 10.25 4.804688 C 10.230469 4.9375 10.28125 5.074219 10.390625 5.15625 C 10.464844 5.214844 10.53125 5.324219 10.503906 5.457031 C 10.480469 5.550781 10.398438 5.625 10.296875 5.632812 C 10.285156 5.636719 10.269531 5.636719 10.257812 5.636719 C 10.230469 5.636719 10.214844 5.632812 10.210938 5.632812 C 10.207031 5.628906 10.199219 5.625 10.195312 5.621094 C 10.140625 5.597656 10.085938 5.585938 10.035156 5.585938 C 9.902344 5.585938 9.777344 5.65625 9.707031 5.777344 C 9.640625 5.890625 9.53125 5.96875 9.402344 5.992188 C 9.382812 5.996094 9.367188 6 9.347656 6.003906 C 9.332031 6.011719 9.3125 6.015625 9.296875 6.019531 C 9.234375 6.042969 9.152344 6.066406 9.070312 6.109375 C 8.808594 6.25 8.714844 6.519531 8.632812 6.757812 C 8.5 7.140625 8.441406 7.203125 8.234375 7.203125 C 8.210938 7.203125 8.1875 7.203125 8.160156 7.203125 C 7.972656 7.183594 7.765625 7.125 7.726562 6.652344 C 7.707031 6.421875 7.632812 6.199219 7.550781 5.992188 C 7.472656 5.796875 7.289062 5.671875 7.078125 5.671875 C 6.980469 5.671875 6.886719 5.699219 6.804688 5.75 C 6.640625 5.855469 6.445312 5.910156 6.242188 5.910156 C 6.207031 5.910156 6.175781 5.910156 6.140625 5.90625 C 5.867188 5.882812 5.609375 5.757812 5.410156 5.554688 C 5.230469 5.378906 4.992188 5.273438 4.75 5.273438 C 4.613281 5.273438 4.480469 5.308594 4.359375 5.371094 C 4.273438 5.414062 4.179688 5.4375 4.082031 5.4375 C 4.035156 5.4375 3.988281 5.433594 3.941406 5.421875 C 3.652344 5.363281 3.421875 5.109375 3.386719 4.824219 C 3.371094 4.691406 3.390625 4.5625 3.453125 4.453125 C 3.546875 4.28125 3.574219 4.074219 3.53125 3.875 C 3.515625 3.808594 3.511719 3.746094 3.515625 3.679688 C 3.542969 3.386719 3.785156 3.15625 4.082031 3.144531 L 4.105469 3.144531 C 4.136719 3.144531 4.167969 3.144531 4.195312 3.148438 C 4.242188 3.15625 4.292969 3.160156 4.339844 3.160156 C 4.542969 3.160156 4.726562 3.101562 4.878906 2.988281 C 4.980469 2.914062 5.101562 2.875 5.234375 2.875 C 5.253906 2.875 5.273438 2.878906 5.292969 2.878906 C 5.339844 2.882812 5.386719 2.890625 5.433594 2.90625 C 5.46875 2.917969 5.507812 2.925781 5.542969 2.925781 C 5.613281 2.925781 5.6875 2.90625 5.746094 2.863281 C 5.914062 2.757812 6.109375 2.699219 6.3125 2.699219 M 6.3125 2.324219 C 6.027344 2.324219 5.761719 2.40625 5.542969 2.546875 C 5.472656 2.527344 5.398438 2.511719 5.324219 2.503906 C 5.292969 2.503906 5.261719 2.5 5.230469 2.5 C 5.015625 2.5 4.816406 2.570312 4.65625 2.6875 C 4.5625 2.753906 4.453125 2.785156 4.335938 2.785156 C 4.308594 2.785156 4.277344 2.78125 4.246094 2.777344 C 4.199219 2.773438 4.152344 2.769531 4.101562 2.769531 C 4.089844 2.769531 4.078125 2.769531 4.0625 2.769531 C 3.578125 2.789062 3.179688 3.167969 3.140625 3.648438 C 3.128906 3.753906 3.136719 3.859375 3.160156 3.957031 C 3.183594 4.066406 3.171875 4.179688 3.117188 4.277344 C 3.027344 4.445312 2.984375 4.648438 3.011719 4.871094 C 3.0625 5.316406 3.417969 5.699219 3.859375 5.789062 C 3.933594 5.804688 4.007812 5.8125 4.078125 5.8125 C 4.242188 5.8125 4.394531 5.773438 4.53125 5.703125 C 4.597656 5.667969 4.671875 5.648438 4.746094 5.648438 C 4.886719 5.648438 5.03125 5.710938 5.140625 5.820312 C 5.390625 6.074219 5.726562 6.246094 6.105469 6.277344 C 6.148438 6.28125 6.195312 6.285156 6.238281 6.285156 C 6.511719 6.285156 6.777344 6.207031 7.003906 6.066406 C 7.027344 6.050781 7.050781 6.042969 7.074219 6.042969 C 7.125 6.042969 7.175781 6.074219 7.199219 6.125 C 7.269531 6.316406 7.335938 6.5 7.351562 6.683594 C 7.378906 7.011719 7.5 7.515625 8.125 7.574219 C 8.160156 7.578125 8.195312 7.578125 8.230469 7.578125 C 9.042969 7.578125 8.890625 6.625 9.242188 6.4375 C 9.3125 6.402344 9.390625 6.382812 9.464844 6.359375 C 9.707031 6.316406 9.914062 6.167969 10.03125 5.957031 L 10.058594 5.972656 C 10.117188 6 10.191406 6.007812 10.257812 6.007812 C 10.28125 6.007812 10.304688 6.007812 10.328125 6.003906 C 10.589844 5.980469 10.808594 5.792969 10.867188 5.535156 C 10.925781 5.269531 10.816406 5.011719 10.621094 4.855469 C 10.625 4.820312 10.628906 4.78125 10.632812 4.746094 C 10.652344 4.183594 10.214844 3.6875 9.652344 3.636719 C 9.625 3.636719 9.597656 3.632812 9.570312 3.632812 C 9.546875 3.632812 9.527344 3.636719 9.507812 3.636719 C 9.289062 3.117188 8.792969 2.726562 8.203125 2.671875 C 8.15625 2.667969 8.109375 2.664062 8.066406 2.664062 C 7.839844 2.664062 7.625 2.71875 7.4375 2.808594 C 7.183594 2.542969 6.835938 2.359375 6.449219 2.324219 C 6.402344 2.328125 6.355469 2.324219 6.3125 2.324219 Z M 6.3125 2.324219"/></g><linearGradient id="linear4" x1="76.895" x2="76.895" y1="59.986" y2="121.56" gradientTransform="matrix(0.124175,-0.0143,0.0143,0.124175,-0.849425,1.316625)" gradientUnits="userSpaceOnUse"><stop offset=".005" style="stop-color:#eee;stop-opacity:1"/><stop offset=".282" style="stop-color:#eaeaea;stop-opacity:1"/><stop offset=".577" style="stop-color:#ddd;stop-opacity:1"/><stop offset=".879" style="stop-color:#c8c8c8;stop-opacity:1"/><stop offset="1" style="stop-color:#bdbdbd;stop-opacity:1"/></linearGradient><mask id="mask3"><g filter="url(#alpha)"><rect width="16" height="16" x="0" y="0" style="fill:#000;fill-opacity:.2;stroke:none"/></g></mask><clipPath id="clip4"><rect width="16" height="16" x="0" y="0"/></clipPath><g id="surface14" clip-path="url(#clip4)"><path style="stroke:none;fill-rule:nonzero;fill:#424242;fill-opacity:1" d="M 12.382812 7.574219 L 13.003906 13.597656 C 13.054688 14.042969 12.605469 14.382812 12.21875 14.585938 C 11.648438 14.886719 10.929688 15.054688 10.449219 15.109375 C 10.246094 15.132812 10.023438 15.144531 9.804688 15.144531 C 8.828125 15.144531 7.65625 14.90625 7.578125 14.230469 L 6.785156 8.21875 L 6.949219 8.199219 L 12.210938 7.59375 Z M 12.617188 7.285156 L 12.179688 7.335938 L 6.921875 7.941406 L 6.492188 7.988281 L 7.320312 14.261719 C 7.421875 15.128906 8.71875 15.40625 9.804688 15.40625 C 10.046875 15.40625 10.273438 15.390625 10.480469 15.367188 C 11.609375 15.238281 13.386719 14.625 13.265625 13.566406 Z M 12.617188 7.285156"/></g><linearGradient id="linear5" x1="76.884" x2="76.884" y1="61.446" y2="118.01" gradientTransform="matrix(0.124175,-0.0143,0.0143,0.124175,-0.849425,1.316625)" gradientUnits="userSpaceOnUse"><stop offset="0" style="stop-color:#ffb300;stop-opacity:1"/><stop offset="1" style="stop-color:#ffea00;stop-opacity:1"/></linearGradient><linearGradient id="linear6" x1="110.24" x2="110.24" y1="64.924" y2="107.69" gradientTransform="matrix(0.124175,-0.0143,0.0143,0.124175,-0.849425,1.316625)" gradientUnits="userSpaceOnUse"><stop offset=".005" style="stop-color:#eee;stop-opacity:1"/><stop offset=".282" style="stop-color:#eaeaea;stop-opacity:1"/><stop offset=".577" style="stop-color:#ddd;stop-opacity:1"/><stop offset=".879" style="stop-color:#c8c8c8;stop-opacity:1"/><stop offset="1" style="stop-color:#bdbdbd;stop-opacity:1"/></linearGradient><mask id="mask4"><g filter="url(#alpha)"><rect width="16" height="16" x="0" y="0" style="fill:#000;fill-opacity:.2;stroke:none"/></g></mask><clipPath id="clip5"><rect width="16" height="16" x="0" y="0"/></clipPath><g id="surface17" clip-path="url(#clip5)"><path style="stroke:none;fill-rule:nonzero;fill:#424242;fill-opacity:1" d="M 12.921875 7.828125 C 13.132812 7.960938 13.503906 8.140625 14.035156 8.171875 C 14.527344 8.199219 15.039062 8.230469 15.207031 10.226562 C 15.359375 12.042969 15.15625 12.320312 14.292969 12.632812 C 13.757812 12.824219 13.445312 12.992188 13.265625 13.105469 L 13.210938 13.058594 L 12.980469 10.875 L 12.675781 8.042969 Z M 14.035156 11.875 C 14.066406 11.875 14.101562 11.871094 14.132812 11.867188 C 14.390625 11.839844 14.707031 11.703125 14.792969 11.222656 C 14.839844 10.949219 14.796875 10.605469 14.757812 10.238281 C 14.671875 9.527344 14.589844 8.792969 13.886719 8.792969 C 13.851562 8.792969 13.816406 8.792969 13.78125 8.796875 C 13.523438 8.828125 13.203125 8.960938 13.121094 9.441406 C 13.074219 9.714844 13.113281 10.0625 13.15625 10.425781 C 13.226562 11.035156 13.324219 11.875 14.035156 11.875 M 12.910156 7.496094 L 12.402344 7.933594 L 12.722656 10.902344 L 12.964844 13.183594 L 13.25 13.445312 C 13.25 13.445312 13.480469 13.203125 14.386719 12.878906 C 15.425781 12.5 15.625 12.054688 15.46875 10.203125 C 15.289062 8.082031 14.703125 7.945312 14.054688 7.910156 C 13.292969 7.867188 12.910156 7.496094 12.910156 7.496094 Z M 14.035156 11.613281 C 13.585938 11.613281 13.492188 11.066406 13.417969 10.394531 C 13.335938 9.691406 13.269531 9.121094 13.808594 9.058594 C 13.835938 9.054688 13.859375 9.050781 13.886719 9.050781 C 14.355469 9.050781 14.417969 9.601562 14.496094 10.269531 C 14.578125 10.972656 14.640625 11.546875 14.101562 11.609375 C 14.078125 11.609375 14.054688 11.613281 14.035156 11.613281 Z M 14.035156 11.613281"/></g><mask id="mask5"><g filter="url(#alpha)"><rect width="16" height="16" x="0" y="0" style="fill:#000;fill-opacity:.509804;stroke:none"/></g></mask><clipPath id="clip6"><rect width="16" height="16" x="0" y="0"/></clipPath><g id="surface20" clip-path="url(#clip6)"><path style="stroke:none;fill-rule:nonzero;fill:#fff;fill-opacity:.721569" d="M 11.878906 13.050781 C 11.675781 13.101562 11.472656 12.960938 11.449219 12.753906 L 11.089844 9.625 C 11.070312 9.449219 11.183594 9.285156 11.355469 9.246094 C 11.558594 9.199219 11.757812 9.335938 11.785156 9.546875 L 12.144531 12.671875 C 12.160156 12.847656 12.046875 13.011719 11.878906 13.050781 Z M 11.878906 13.050781"/></g><mask id="mask6"><g filter="url(#alpha)"><rect width="16" height="16" x="0" y="0" style="fill:#000;fill-opacity:.509804;stroke:none"/></g></mask><clipPath id="clip7"><rect width="16" height="16" x="0" y="0"/></clipPath><g id="surface23" clip-path="url(#clip7)"><path style="stroke:none;fill-rule:nonzero;fill:#fff;fill-opacity:.721569" d="M 10.878906 13.675781 C 10.675781 13.726562 10.472656 13.585938 10.449219 13.378906 L 10.089844 10.25 C 10.070312 10.074219 10.183594 9.910156 10.355469 9.871094 C 10.558594 9.824219 10.757812 9.960938 10.785156 10.171875 L 11.144531 13.296875 C 11.160156 13.472656 11.046875 13.636719 10.878906 13.675781 Z M 10.878906 13.675781"/></g><linearGradient id="linear7" x1="44.93" x2="107.99" y1="63.269" y2="57.506" gradientTransform="matrix(0.125,0,0,0.125,0,0)" gradientUnits="userSpaceOnUse"><stop offset=".005" style="stop-color:#eee;stop-opacity:1"/><stop offset=".488" style="stop-color:#f2f2f2;stop-opacity:1"/><stop offset="1" style="stop-color:#fff;stop-opacity:1"/></linearGradient><mask id="mask7"><g filter="url(#alpha)"><rect width="16" height="16" x="0" y="0" style="fill:#000;fill-opacity:.2;stroke:none"/></g></mask><clipPath id="clip8"><rect width="16" height="16" x="0" y="0"/></clipPath><g id="surface26" clip-path="url(#clip8)"><path style="stroke:none;fill-rule:nonzero;fill:#424242;fill-opacity:1" d="M 10.203125 5.324219 C 10.40625 5.324219 10.601562 5.382812 10.769531 5.488281 C 10.832031 5.527344 10.902344 5.546875 10.972656 5.546875 C 11.011719 5.546875 11.046875 5.542969 11.082031 5.53125 C 11.132812 5.515625 11.175781 5.507812 11.222656 5.503906 C 11.242188 5.5 11.265625 5.5 11.285156 5.5 C 11.414062 5.5 11.535156 5.539062 11.636719 5.613281 C 11.789062 5.726562 11.976562 5.785156 12.175781 5.785156 C 12.222656 5.785156 12.273438 5.78125 12.320312 5.773438 C 12.351562 5.769531 12.378906 5.765625 12.410156 5.765625 L 12.433594 5.765625 C 12.734375 5.777344 12.976562 6.011719 13 6.304688 C 13.003906 6.367188 13 6.433594 12.984375 6.496094 C 12.941406 6.699219 12.96875 6.902344 13.0625 7.078125 C 13.121094 7.1875 13.144531 7.316406 13.128906 7.449219 C 13.09375 7.734375 12.863281 7.984375 12.578125 8.046875 C 12.527344 8.054688 12.480469 8.0625 12.433594 8.0625 C 12.335938 8.0625 12.242188 8.039062 12.15625 7.992188 C 12.039062 7.929688 11.902344 7.898438 11.765625 7.898438 C 11.523438 7.898438 11.285156 8 11.109375 8.179688 C 10.910156 8.378906 10.648438 8.503906 10.375 8.53125 C 10.339844 8.53125 10.304688 8.535156 10.273438 8.535156 C 10.070312 8.535156 9.875 8.480469 9.710938 8.375 C 9.628906 8.324219 9.535156 8.296875 9.4375 8.296875 C 9.226562 8.296875 9.042969 8.421875 8.964844 8.617188 C 8.886719 8.824219 8.808594 9.046875 8.789062 9.277344 C 8.75 9.75 8.546875 9.808594 8.355469 9.828125 C 8.328125 9.828125 8.304688 9.828125 8.28125 9.828125 C 8.074219 9.828125 8.015625 9.761719 7.882812 9.382812 C 7.800781 9.144531 7.707031 8.875 7.449219 8.734375 C 7.363281 8.691406 7.285156 8.667969 7.21875 8.644531 C 7.203125 8.640625 7.183594 8.636719 7.167969 8.628906 C 7.148438 8.625 7.132812 8.621094 7.113281 8.617188 C 6.984375 8.59375 6.875 8.515625 6.808594 8.402344 C 6.738281 8.28125 6.613281 8.210938 6.484375 8.210938 C 6.429688 8.210938 6.375 8.222656 6.320312 8.246094 C 6.316406 8.25 6.3125 8.253906 6.304688 8.253906 C 6.300781 8.257812 6.285156 8.257812 6.257812 8.257812 C 6.242188 8.257812 6.230469 8.257812 6.21875 8.257812 C 6.117188 8.25 6.035156 8.175781 6.011719 8.082031 C 5.984375 7.949219 6.050781 7.835938 6.125 7.777344 C 6.234375 7.695312 6.285156 7.5625 6.265625 7.429688 C 6.261719 7.402344 6.257812 7.382812 6.257812 7.359375 C 6.242188 6.996094 6.53125 6.671875 6.894531 6.640625 C 6.914062 6.636719 6.925781 6.636719 6.945312 6.636719 C 6.957031 6.636719 6.972656 6.636719 6.988281 6.636719 L 7.007812 6.636719 C 7.15625 6.636719 7.292969 6.546875 7.351562 6.410156 C 7.523438 6 7.914062 5.710938 8.347656 5.671875 C 8.378906 5.671875 8.414062 5.667969 8.449219 5.667969 C 8.609375 5.667969 8.765625 5.703125 8.914062 5.773438 C 8.964844 5.800781 9.019531 5.8125 9.078125 5.8125 C 9.175781 5.8125 9.277344 5.773438 9.347656 5.699219 C 9.550781 5.484375 9.820312 5.355469 10.101562 5.328125 C 10.136719 5.328125 10.167969 5.324219 10.203125 5.324219 M 10.203125 4.949219 C 10.15625 4.949219 10.113281 4.953125 10.066406 4.953125 C 9.675781 4.988281 9.332031 5.171875 9.078125 5.441406 C 8.886719 5.347656 8.671875 5.296875 8.449219 5.296875 C 8.402344 5.296875 8.359375 5.296875 8.3125 5.300781 C 7.722656 5.355469 7.226562 5.746094 7.007812 6.265625 C 6.984375 6.265625 6.964844 6.265625 6.945312 6.265625 C 6.917969 6.265625 6.890625 6.265625 6.863281 6.265625 C 6.296875 6.320312 5.859375 6.816406 5.882812 7.375 C 5.882812 7.414062 5.886719 7.449219 5.894531 7.484375 C 5.699219 7.640625 5.585938 7.898438 5.644531 8.164062 C 5.703125 8.421875 5.921875 8.609375 6.183594 8.632812 C 6.207031 8.636719 6.234375 8.636719 6.257812 8.636719 C 6.324219 8.636719 6.394531 8.628906 6.453125 8.601562 L 6.484375 8.589844 C 6.601562 8.796875 6.804688 8.945312 7.050781 8.988281 C 7.125 9.015625 7.203125 9.03125 7.269531 9.066406 C 7.625 9.257812 7.46875 10.207031 8.285156 10.207031 C 8.316406 10.207031 8.351562 10.207031 8.390625 10.203125 C 9.015625 10.144531 9.136719 9.640625 9.164062 9.3125 C 9.175781 9.128906 9.242188 8.945312 9.316406 8.757812 C 9.335938 8.703125 9.386719 8.671875 9.4375 8.671875 C 9.464844 8.671875 9.488281 8.679688 9.511719 8.695312 C 9.734375 8.839844 10.003906 8.914062 10.273438 8.914062 C 10.320312 8.914062 10.363281 8.914062 10.410156 8.910156 C 10.785156 8.875 11.125 8.703125 11.375 8.449219 C 11.484375 8.339844 11.625 8.28125 11.765625 8.28125 C 11.839844 8.28125 11.914062 8.296875 11.984375 8.332031 C 12.117188 8.402344 12.273438 8.441406 12.4375 8.441406 C 12.507812 8.441406 12.578125 8.433594 12.65625 8.421875 C 13.097656 8.328125 13.449219 7.945312 13.503906 7.5 C 13.53125 7.28125 13.488281 7.078125 13.394531 6.90625 C 13.34375 6.808594 13.328125 6.699219 13.355469 6.585938 C 13.375 6.488281 13.382812 6.386719 13.375 6.28125 C 13.332031 5.796875 12.9375 5.417969 12.449219 5.398438 C 12.4375 5.398438 12.421875 5.398438 12.410156 5.398438 C 12.363281 5.398438 12.316406 5.402344 12.269531 5.410156 C 12.238281 5.414062 12.207031 5.414062 12.175781 5.414062 C 12.0625 5.414062 11.949219 5.382812 11.859375 5.316406 C 11.699219 5.199219 11.5 5.132812 11.285156 5.132812 C 11.253906 5.132812 11.222656 5.132812 11.191406 5.136719 C 11.113281 5.140625 11.042969 5.15625 10.972656 5.179688 C 10.75 5.03125 10.488281 4.949219 10.203125 4.949219 Z M 10.203125 4.949219"/></g></defs><g id="surface1"><path style="stroke:none;fill-rule:nonzero;fill:url(#linear0)" d="M 4.089844 4.800781 L 9.664062 5.445312 L 10.117188 5.496094 L 9.238281 12.144531 C 9.109375 13.265625 7.09375 13.453125 5.894531 13.316406 C 4.695312 13.175781 2.8125 12.527344 2.941406 11.40625 L 3.628906 4.75 Z M 4.089844 4.800781"/><use mask="url(#mask0)" xlink:href="#surface5"/><path style="stroke:none;fill-rule:nonzero;fill:url(#linear1)" d="M 4.246094 5.039062 L 3.601562 11.046875 C 3.601562 11.257812 3.746094 11.476562 3.96875 11.609375 C 4.363281 11.851562 5.160156 12.132812 6.0625 12.238281 C 6.925781 12.335938 7.679688 12.25 8.125 12.117188 C 8.410156 12.035156 8.652344 11.832031 8.707031 11.636719 L 9.425781 5.636719 Z M 4.246094 5.039062"/><path style="stroke:none;fill-rule:nonzero;fill:#e4a324;fill-opacity:1" d="M 7.4375 11.722656 C 7.4375 11.792969 7.382812 11.847656 7.3125 11.847656 C 7.246094 11.847656 7.1875 11.792969 7.1875 11.722656 C 7.1875 11.65625 7.246094 11.597656 7.3125 11.597656 C 7.382812 11.597656 7.4375 11.65625 7.4375 11.722656 Z M 7.4375 11.722656"/><path style="stroke:none;fill-rule:nonzero;fill:#e4a324;fill-opacity:1" d="M 7.710938 11.414062 C 7.710938 11.460938 7.675781 11.5 7.625 11.5 C 7.578125 11.5 7.539062 11.460938 7.539062 11.414062 C 7.539062 11.367188 7.578125 11.328125 7.625 11.328125 C 7.675781 11.328125 7.710938 11.367188 7.710938 11.414062 Z M 7.710938 11.414062"/><path style="stroke:none;fill-rule:nonzero;fill:#e4a324;fill-opacity:1" d="M 7.25 11.191406 C 7.25 11.277344 7.179688 11.34375 7.097656 11.34375 C 7.015625 11.34375 6.945312 11.277344 6.945312 11.191406 C 6.945312 11.109375 7.015625 11.042969 7.097656 11.042969 C 7.179688 11.042969 7.25 11.109375 7.25 11.191406 Z M 7.25 11.191406"/><path style="stroke:none;fill-rule:nonzero;fill:#e4a324;fill-opacity:1" d="M 7.792969 11.097656 C 7.792969 11.183594 7.722656 11.253906 7.636719 11.253906 C 7.550781 11.253906 7.480469 11.183594 7.480469 11.097656 C 7.480469 11.011719 7.550781 10.945312 7.636719 10.945312 C 7.722656 10.945312 7.792969 11.011719 7.792969 11.097656 Z M 7.792969 11.097656"/><path style="stroke:none;fill-rule:nonzero;fill:#e4a324;fill-opacity:1" d="M 7.34375 10.382812 C 7.34375 10.449219 7.285156 10.507812 7.21875 10.507812 C 7.148438 10.507812 7.09375 10.449219 7.09375 10.382812 C 7.09375 10.3125 7.148438 10.257812 7.21875 10.257812 C 7.285156 10.257812 7.34375 10.3125 7.34375 10.382812 Z M 7.34375 10.382812"/><path style="stroke:none;fill-rule:nonzero;fill:#e4a324;fill-opacity:1" d="M 7.648438 10.480469 C 7.648438 10.539062 7.597656 10.589844 7.535156 10.589844 C 7.476562 10.589844 7.425781 10.539062 7.425781 10.480469 C 7.425781 10.417969 7.476562 10.367188 7.535156 10.367188 C 7.597656 10.367188 7.648438 10.417969 7.648438 10.480469 Z M 7.648438 10.480469"/><path style="stroke:none;fill-rule:nonzero;fill:#e4a324;fill-opacity:1" d="M 8.199219 9.824219 C 8.199219 9.886719 8.148438 9.933594 8.085938 9.933594 C 8.023438 9.933594 7.976562 9.886719 7.976562 9.824219 C 7.976562 9.761719 8.023438 9.710938 8.085938 9.710938 C 8.148438 9.710938 8.199219 9.761719 8.199219 9.824219 Z M 8.199219 9.824219"/><path style="stroke:none;fill-rule:nonzero;fill:#e4a324;fill-opacity:1" d="M 7.246094 9.046875 C 7.246094 9.125 7.183594 9.1875 7.105469 9.1875 C 7.027344 9.1875 6.964844 9.125 6.964844 9.046875 C 6.964844 8.96875 7.027344 8.90625 7.105469 8.90625 C 7.183594 8.90625 7.246094 8.96875 7.246094 9.046875 Z M 7.246094 9.046875"/><path style="stroke:none;fill-rule:nonzero;fill:#e4a324;fill-opacity:1" d="M 7.859375 10.136719 C 7.859375 10.230469 7.78125 10.308594 7.6875 10.308594 C 7.59375 10.308594 7.515625 10.230469 7.515625 10.136719 C 7.515625 10.042969 7.59375 9.964844 7.6875 9.964844 C 7.78125 9.964844 7.859375 10.042969 7.859375 10.136719 Z M 7.859375 10.136719"/><path style="stroke:none;fill-rule:nonzero;fill:#e4a324;fill-opacity:1" d="M 7.472656 9.5625 C 7.472656 9.65625 7.394531 9.734375 7.300781 9.734375 C 7.210938 9.734375 7.132812 9.65625 7.132812 9.5625 C 7.132812 9.46875 7.210938 9.394531 7.300781 9.394531 C 7.394531 9.394531 7.472656 9.46875 7.472656 9.5625 Z M 7.472656 9.5625"/><path style="stroke:none;fill-rule:nonzero;fill:#e4a324;fill-opacity:1" d="M 8.019531 9.425781 C 8.019531 9.492188 7.964844 9.550781 7.894531 9.550781 C 7.824219 9.550781 7.769531 9.492188 7.769531 9.425781 C 7.769531 9.355469 7.824219 9.300781 7.894531 9.300781 C 7.964844 9.300781 8.019531 9.355469 8.019531 9.425781 Z M 8.019531 9.425781"/><path style="stroke:none;fill-rule:nonzero;fill:url(#linear2)" d="M 3.855469 5.4375 L 3.316406 4.972656 C 3.316406 4.972656 2.910156 5.363281 2.105469 5.410156 C 1.417969 5.449219 0.796875 5.59375 0.605469 7.839844 C 0.441406 9.800781 0.65625 10.277344 1.757812 10.675781 C 2.714844 11.019531 2.957031 11.277344 2.957031 11.277344 L 3.261719 11 L 3.515625 8.582031 Z M 2.054688 9.328125 C 1.484375 9.265625 1.550781 8.660156 1.636719 7.914062 C 1.722656 7.167969 1.792969 6.5625 2.363281 6.628906 C 2.9375 6.695312 2.867188 7.296875 2.78125 8.046875 C 2.695312 8.789062 2.589844 9.390625 2.054688 9.328125 Z M 2.054688 9.328125"/><use mask="url(#mask1)" xlink:href="#surface8"/><path style="stroke:none;fill-rule:nonzero;fill:url(#linear3)" d="M 3.121094 4.277344 C 3.171875 4.179688 3.1875 4.066406 3.160156 3.957031 C 3.140625 3.859375 3.132812 3.753906 3.140625 3.648438 C 3.179688 3.167969 3.578125 2.789062 4.066406 2.769531 C 4.125 2.765625 4.1875 2.769531 4.246094 2.777344 C 4.390625 2.796875 4.539062 2.773438 4.65625 2.6875 C 4.839844 2.550781 5.074219 2.484375 5.324219 2.503906 C 5.398438 2.511719 5.472656 2.527344 5.542969 2.546875 C 5.796875 2.382812 6.113281 2.296875 6.449219 2.328125 C 6.835938 2.363281 7.183594 2.546875 7.4375 2.816406 C 7.664062 2.703125 7.925781 2.652344 8.203125 2.675781 C 8.796875 2.730469 9.289062 3.121094 9.507812 3.640625 C 9.554688 3.636719 9.605469 3.636719 9.65625 3.640625 C 10.21875 3.691406 10.65625 4.1875 10.636719 4.75 C 10.632812 4.785156 10.628906 4.824219 10.625 4.859375 C 10.820312 5.015625 10.929688 5.273438 10.871094 5.539062 C 10.8125 5.792969 10.59375 5.984375 10.332031 6.007812 C 10.246094 6.015625 10.144531 6.011719 10.0625 5.976562 L 10.035156 5.960938 C 9.917969 6.167969 9.710938 6.320312 9.46875 6.359375 C 9.390625 6.386719 9.316406 6.402344 9.246094 6.441406 C 8.878906 6.636719 9.0625 7.660156 8.128906 7.574219 C 7.503906 7.515625 7.382812 7.015625 7.355469 6.683594 C 7.339844 6.503906 7.277344 6.316406 7.203125 6.128906 C 7.171875 6.050781 7.078125 6.023438 7.007812 6.066406 C 6.746094 6.234375 6.425781 6.308594 6.109375 6.28125 C 5.730469 6.246094 5.394531 6.074219 5.140625 5.820312 C 4.976562 5.65625 4.730469 5.601562 4.535156 5.703125 C 4.339844 5.804688 4.109375 5.839844 3.863281 5.789062 C 3.421875 5.699219 3.066406 5.316406 3.015625 4.871094 C 2.984375 4.648438 3.027344 4.445312 3.121094 4.277344 Z M 3.121094 4.277344"/><use mask="url(#mask2)" xlink:href="#surface11"/><path style="stroke:none;fill-rule:nonzero;fill:#f44336;fill-opacity:1" d="M 10.445312 1.703125 L 11.269531 1.554688 C 11.308594 1.546875 11.347656 1.582031 11.34375 1.621094 L 11.226562 3.34375 C 11.222656 3.410156 11.132812 3.425781 11.105469 3.367188 L 10.398438 1.792969 C 10.382812 1.753906 10.40625 1.710938 10.445312 1.703125 Z M 10.445312 1.703125"/><path style="stroke:none;fill-rule:nonzero;fill:#f44336;fill-opacity:1" d="M 12.566406 1.679688 L 13.253906 2.15625 C 13.289062 2.179688 13.292969 2.230469 13.261719 2.257812 L 11.957031 3.394531 C 11.910156 3.4375 11.835938 3.386719 11.859375 3.324219 L 12.472656 1.707031 C 12.484375 1.671875 12.535156 1.65625 12.566406 1.679688 Z M 12.566406 1.679688"/><path style="stroke:none;fill-rule:nonzero;fill:#f44336;fill-opacity:1" d="M 13.914062 3.234375 L 14.058594 4.0625 C 14.066406 4.101562 14.035156 4.140625 13.992188 4.136719 L 12.269531 4.019531 C 12.203125 4.015625 12.191406 3.925781 12.25 3.898438 L 13.824219 3.191406 C 13.859375 3.171875 13.90625 3.195312 13.914062 3.234375 Z M 13.914062 3.234375"/><path style="stroke:none;fill-rule:nonzero;fill:url(#linear4)" d="M 12.179688 7.335938 L 9.550781 7.640625 L 6.921875 7.941406 L 6.492188 7.988281 L 7.320312 14.261719 C 7.441406 15.320312 9.347656 15.5 10.480469 15.367188 C 11.609375 15.238281 13.386719 14.625 13.265625 13.566406 L 12.617188 7.285156 Z M 12.179688 7.335938"/><use mask="url(#mask3)" xlink:href="#surface14"/><path style="stroke:none;fill-rule:nonzero;fill:url(#linear5)" d="M 12.023438 7.574219 L 12.640625 13.230469 C 12.640625 13.425781 12.503906 13.636719 12.292969 13.761719 C 11.921875 13.988281 11.171875 14.253906 10.316406 14.355469 C 9.503906 14.449219 8.792969 14.363281 8.367188 14.242188 C 8.101562 14.164062 7.871094 13.96875 7.820312 13.789062 L 7.132812 8.136719 Z M 12.023438 7.574219"/><path style="stroke:none;fill-rule:nonzero;fill:#e4a324;fill-opacity:1" d="M 9.257812 13.867188 C 9.257812 13.933594 9.203125 13.984375 9.140625 13.984375 C 9.074219 13.984375 9.019531 13.933594 9.019531 13.867188 C 9.019531 13.800781 9.074219 13.75 9.140625 13.75 C 9.203125 13.75 9.257812 13.800781 9.257812 13.867188 Z M 9.257812 13.867188"/><path style="stroke:none;fill-rule:nonzero;fill:#e4a324;fill-opacity:1" d="M 8.921875 13.578125 C 8.921875 13.621094 8.886719 13.65625 8.84375 13.65625 C 8.796875 13.65625 8.761719 13.621094 8.761719 13.578125 C 8.761719 13.53125 8.796875 13.496094 8.84375 13.496094 C 8.886719 13.496094 8.921875 13.53125 8.921875 13.578125 Z M 8.921875 13.578125"/><path style="stroke:none;fill-rule:nonzero;fill:#e4a324;fill-opacity:1" d="M 9.484375 13.367188 C 9.484375 13.445312 9.421875 13.511719 9.34375 13.511719 C 9.265625 13.511719 9.199219 13.445312 9.199219 13.367188 C 9.199219 13.289062 9.265625 13.226562 9.34375 13.226562 C 9.421875 13.226562 9.484375 13.289062 9.484375 13.367188 Z M 9.484375 13.367188"/><path style="stroke:none;fill-rule:nonzero;fill:#e4a324;fill-opacity:1" d="M 8.980469 13.277344 C 8.980469 13.359375 8.914062 13.421875 8.835938 13.421875 C 8.753906 13.421875 8.6875 13.359375 8.6875 13.277344 C 8.6875 13.195312 8.753906 13.132812 8.835938 13.132812 C 8.914062 13.132812 8.980469 13.195312 8.980469 13.277344 Z M 8.980469 13.277344"/><path style="stroke:none;fill-rule:nonzero;fill:#e4a324;fill-opacity:1" d="M 9.347656 12.601562 C 9.347656 12.667969 9.292969 12.71875 9.230469 12.71875 C 9.164062 12.71875 9.113281 12.667969 9.113281 12.601562 C 9.113281 12.535156 9.164062 12.484375 9.230469 12.484375 C 9.292969 12.484375 9.347656 12.535156 9.347656 12.601562 Z M 9.347656 12.601562"/><path style="stroke:none;fill-rule:nonzero;fill:#e4a324;fill-opacity:1" d="M 9.03125 12.691406 C 9.03125 12.75 8.984375 12.796875 8.925781 12.796875 C 8.871094 12.796875 8.824219 12.75 8.824219 12.691406 C 8.824219 12.632812 8.871094 12.585938 8.925781 12.585938 C 8.984375 12.585938 9.03125 12.632812 9.03125 12.691406 Z M 9.03125 12.691406"/><path style="stroke:none;fill-rule:nonzero;fill:#e4a324;fill-opacity:1" d="M 8.515625 12.074219 C 8.515625 12.132812 8.46875 12.179688 8.410156 12.179688 C 8.351562 12.179688 8.304688 12.132812 8.304688 12.074219 C 8.304688 12.015625 8.351562 11.96875 8.410156 11.96875 C 8.46875 11.96875 8.515625 12.015625 8.515625 12.074219 Z M 8.515625 12.074219"/><path style="stroke:none;fill-rule:nonzero;fill:#e4a324;fill-opacity:1" d="M 9.46875 11.339844 C 9.46875 11.414062 9.410156 11.472656 9.335938 11.472656 C 9.261719 11.472656 9.203125 11.414062 9.203125 11.339844 C 9.203125 11.269531 9.261719 11.207031 9.335938 11.207031 C 9.410156 11.207031 9.46875 11.269531 9.46875 11.339844 Z M 9.46875 11.339844"/><path style="stroke:none;fill-rule:nonzero;fill:#e4a324;fill-opacity:1" d="M 8.945312 12.371094 C 8.945312 12.460938 8.875 12.53125 8.785156 12.53125 C 8.695312 12.53125 8.625 12.460938 8.625 12.371094 C 8.625 12.28125 8.695312 12.210938 8.785156 12.210938 C 8.875 12.210938 8.945312 12.28125 8.945312 12.371094 Z M 8.945312 12.371094"/><path style="stroke:none;fill-rule:nonzero;fill:#e4a324;fill-opacity:1" d="M 9.308594 11.828125 C 9.308594 11.917969 9.238281 11.988281 9.148438 11.988281 C 9.0625 11.988281 8.988281 11.917969 8.988281 11.828125 C 8.988281 11.742188 9.0625 11.671875 9.148438 11.671875 C 9.238281 11.671875 9.308594 11.742188 9.308594 11.828125 Z M 9.308594 11.828125"/><path style="stroke:none;fill-rule:nonzero;fill:#e4a324;fill-opacity:1" d="M 8.707031 11.699219 C 8.707031 11.761719 8.65625 11.816406 8.589844 11.816406 C 8.523438 11.816406 8.472656 11.761719 8.472656 11.699219 C 8.472656 11.632812 8.523438 11.582031 8.589844 11.582031 C 8.65625 11.582031 8.707031 11.632812 8.707031 11.699219 Z M 8.707031 11.699219"/><path style="stroke:none;fill-rule:nonzero;fill:url(#linear6)" d="M 12.71875 10.902344 L 12.960938 13.183594 L 13.25 13.445312 C 13.25 13.445312 13.480469 13.203125 14.382812 12.878906 C 15.421875 12.5 15.625 12.054688 15.46875 10.203125 C 15.289062 8.082031 14.703125 7.945312 14.050781 7.910156 C 13.292969 7.863281 12.914062 7.492188 12.914062 7.492188 L 12.40625 7.933594 Z M 13.417969 10.394531 C 13.335938 9.691406 13.269531 9.121094 13.808594 9.058594 C 14.347656 8.996094 14.414062 9.566406 14.496094 10.269531 C 14.578125 10.972656 14.640625 11.546875 14.101562 11.609375 C 13.597656 11.667969 13.496094 11.101562 13.417969 10.394531 Z M 13.417969 10.394531"/><use mask="url(#mask4)" xlink:href="#surface17"/><use mask="url(#mask5)" xlink:href="#surface20"/><use mask="url(#mask6)" xlink:href="#surface23"/><path style="stroke:none;fill-rule:nonzero;fill:url(#linear7)" d="M 13.394531 6.902344 C 13.339844 6.804688 13.328125 6.691406 13.351562 6.582031 C 13.375 6.484375 13.382812 6.378906 13.375 6.273438 C 13.332031 5.792969 12.9375 5.414062 12.449219 5.394531 C 12.386719 5.390625 12.328125 5.394531 12.265625 5.402344 C 12.121094 5.421875 11.972656 5.398438 11.859375 5.3125 C 11.675781 5.175781 11.441406 5.109375 11.1875 5.128906 C 11.113281 5.136719 11.042969 5.152344 10.972656 5.171875 C 10.714844 5.007812 10.402344 4.921875 10.066406 4.953125 C 9.675781 4.988281 9.328125 5.171875 9.074219 5.441406 C 8.847656 5.328125 8.585938 5.277344 8.308594 5.300781 C 7.71875 5.355469 7.226562 5.746094 7.003906 6.265625 C 6.957031 6.261719 6.910156 6.261719 6.859375 6.265625 C 6.296875 6.316406 5.859375 6.8125 5.878906 7.375 C 5.878906 7.410156 5.882812 7.449219 5.890625 7.484375 C 5.695312 7.640625 5.582031 7.898438 5.640625 8.164062 C 5.699219 8.417969 5.917969 8.609375 6.179688 8.632812 C 6.265625 8.640625 6.367188 8.636719 6.453125 8.601562 L 6.480469 8.585938 C 6.597656 8.792969 6.800781 8.945312 7.046875 8.984375 C 7.121094 9.011719 7.199219 9.027344 7.265625 9.066406 C 7.636719 9.261719 7.453125 10.285156 8.386719 10.199219 C 9.011719 10.140625 9.132812 9.640625 9.160156 9.308594 C 9.171875 9.128906 9.238281 8.941406 9.3125 8.753906 C 9.34375 8.675781 9.4375 8.648438 9.507812 8.691406 C 9.769531 8.859375 10.085938 8.933594 10.40625 8.90625 C 10.78125 8.871094 11.121094 8.699219 11.371094 8.445312 C 11.535156 8.28125 11.78125 8.226562 11.980469 8.328125 C 12.171875 8.429688 12.40625 8.464844 12.652344 8.414062 C 13.09375 8.324219 13.445312 7.941406 13.5 7.496094 C 13.527344 7.273438 13.484375 7.070312 13.394531 6.902344 Z M 13.394531 6.902344"/><use mask="url(#mask7)" xlink:href="#surface26"/><path style="stroke:none;fill-rule:nonzero;fill:#e4a324;fill-opacity:1" d="M 5.273438 8.386719 C 5.273438 8.449219 5.222656 8.503906 5.15625 8.503906 C 5.09375 8.503906 5.039062 8.449219 5.039062 8.386719 C 5.039062 8.320312 5.09375 8.265625 5.15625 8.265625 C 5.222656 8.265625 5.273438 8.320312 5.273438 8.386719 Z M 5.273438 8.386719"/><path style="stroke:none;fill-rule:nonzero;fill:#e4a324;fill-opacity:1" d="M 5.453125 8.738281 C 5.453125 8.785156 5.417969 8.820312 5.371094 8.820312 C 5.328125 8.820312 5.292969 8.785156 5.292969 8.738281 C 5.292969 8.695312 5.328125 8.660156 5.371094 8.660156 C 5.417969 8.660156 5.453125 8.695312 5.453125 8.738281 Z M 5.453125 8.738281"/><path style="stroke:none;fill-rule:nonzero;fill:#e4a324;fill-opacity:1" d="M 4.980469 8.820312 C 4.980469 8.898438 4.914062 8.960938 4.835938 8.960938 C 4.757812 8.960938 4.695312 8.898438 4.695312 8.820312 C 4.695312 8.742188 4.757812 8.675781 4.835938 8.675781 C 4.914062 8.675781 4.980469 8.742188 4.980469 8.820312 Z M 4.980469 8.820312"/><path style="stroke:none;fill-rule:nonzero;fill:#e4a324;fill-opacity:1" d="M 5.453125 9.03125 C 5.453125 9.113281 5.386719 9.175781 5.308594 9.175781 C 5.226562 9.175781 5.160156 9.113281 5.160156 9.03125 C 5.160156 8.949219 5.226562 8.886719 5.308594 8.886719 C 5.386719 8.886719 5.453125 8.949219 5.453125 9.03125 Z M 5.453125 9.03125"/><path style="stroke:none;fill-rule:nonzero;fill:#e4a324;fill-opacity:1" d="M 4.875 9.589844 C 4.875 9.65625 4.824219 9.707031 4.757812 9.707031 C 4.691406 9.707031 4.640625 9.65625 4.640625 9.589844 C 4.640625 9.523438 4.691406 9.472656 4.757812 9.472656 C 4.824219 9.472656 4.875 9.523438 4.875 9.589844 Z M 4.875 9.589844"/><path style="stroke:none;fill-rule:nonzero;fill:#e4a324;fill-opacity:1" d="M 5.175781 9.574219 C 5.175781 9.632812 5.128906 9.679688 5.074219 9.679688 C 5.015625 9.679688 4.96875 9.632812 4.96875 9.574219 C 4.96875 9.515625 5.015625 9.46875 5.074219 9.46875 C 5.128906 9.46875 5.175781 9.515625 5.175781 9.574219 Z M 5.175781 9.574219"/><path style="stroke:none;fill-rule:nonzero;fill:#e4a324;fill-opacity:1" d="M 5.527344 10.300781 C 5.527344 10.359375 5.480469 10.40625 5.421875 10.40625 C 5.363281 10.40625 5.316406 10.359375 5.316406 10.300781 C 5.316406 10.246094 5.363281 10.199219 5.421875 10.199219 C 5.480469 10.199219 5.527344 10.246094 5.527344 10.300781 Z M 5.527344 10.300781"/><path style="stroke:none;fill-rule:nonzero;fill:#e4a324;fill-opacity:1" d="M 4.476562 10.785156 C 4.476562 10.855469 4.414062 10.917969 4.34375 10.917969 C 4.269531 10.917969 4.210938 10.855469 4.210938 10.785156 C 4.210938 10.710938 4.269531 10.652344 4.34375 10.652344 C 4.414062 10.652344 4.476562 10.710938 4.476562 10.785156 Z M 4.476562 10.785156"/><path style="stroke:none;fill-rule:nonzero;fill:#e4a324;fill-opacity:1" d="M 5.292969 9.921875 C 5.292969 10.011719 5.21875 10.082031 5.128906 10.082031 C 5.039062 10.082031 4.96875 10.011719 4.96875 9.921875 C 4.96875 9.832031 5.039062 9.761719 5.128906 9.761719 C 5.21875 9.761719 5.292969 9.832031 5.292969 9.921875 Z M 5.292969 9.921875"/><path style="stroke:none;fill-rule:nonzero;fill:#e4a324;fill-opacity:1" d="M 4.800781 10.359375 C 4.800781 10.445312 4.730469 10.515625 4.644531 10.515625 C 4.554688 10.515625 4.484375 10.445312 4.484375 10.359375 C 4.484375 10.269531 4.554688 10.199219 4.644531 10.199219 C 4.730469 10.199219 4.800781 10.269531 4.800781 10.359375 Z M 4.800781 10.359375"/><path style="stroke:none;fill-rule:nonzero;fill:#e4a324;fill-opacity:1" d="M 5.269531 10.621094 C 5.269531 10.6875 5.21875 10.738281 5.152344 10.738281 C 5.089844 10.738281 5.035156 10.6875 5.035156 10.621094 C 5.035156 10.554688 5.089844 10.503906 5.152344 10.503906 C 5.21875 10.503906 5.269531 10.554688 5.269531 10.621094 Z M 5.269531 10.621094"/></g></svg>