<svg xmlns="http://www.w3.org/2000/svg" xmlns:xlink="http://www.w3.org/1999/xlink" width="16pt" height="16pt" version="1.1" viewBox="0 0 16 16"><defs><linearGradient id="linear0" x1="67.838" x2="104" y1="11.342" y2="46.521" gradientTransform="matrix(0.125,0,0,0.125,0,0)" gradientUnits="userSpaceOnUse"><stop offset=".123" style="stop-color:#689f38;stop-opacity:1"/><stop offset=".322" style="stop-color:#73a743;stop-opacity:1"/><stop offset=".668" style="stop-color:#8ebd60;stop-opacity:1"/><stop offset=".993" style="stop-color:#aed581;stop-opacity:1"/></linearGradient><filter id="alpha" width="100%" height="100%" x="0%" y="0%" filterUnits="objectBoundingBox"><feColorMatrix in="SourceGraphic" type="matrix" values="0 0 0 0 1 0 0 0 0 1 0 0 0 0 1 0 0 0 1 0"/></filter><mask id="mask0"><g filter="url(#alpha)"><rect width="16" height="16" x="0" y="0" style="fill:#000;fill-opacity:.2;stroke:none"/></g></mask><clipPath id="clip1"><rect width="16" height="16" x="0" y="0"/></clipPath><g id="surface5" clip-path="url(#clip1)"><path style="stroke:none;fill-rule:nonzero;fill:#424242;fill-opacity:1" d="M 9.976562 1.820312 L 9.976562 2.195312 C 10.527344 2.195312 11.589844 2.339844 12.496094 3.304688 C 12.925781 3.761719 13.054688 4.378906 13.191406 5.035156 C 13.289062 5.5 13.386719 5.972656 13.601562 6.382812 C 13.453125 6.363281 13.308594 6.339844 13.160156 6.3125 C 12.136719 6.128906 10.972656 5.917969 10.171875 5.085938 C 9.3125 4.199219 9.222656 2.960938 9.242188 2.289062 C 9.449219 2.226562 9.707031 2.195312 9.976562 2.195312 L 9.976562 1.820312 M 9.976562 1.820312 C 9.515625 1.820312 9.128906 1.90625 8.882812 2.023438 C 8.847656 2.457031 8.753906 4.160156 9.902344 5.347656 C 10.789062 6.265625 12.039062 6.492188 13.09375 6.683594 C 13.65625 6.785156 14.136719 6.8125 14.484375 6.820312 C 13.304688 6.0625 13.828125 4.175781 12.769531 3.046875 C 11.890625 2.109375 10.8125 1.820312 9.976562 1.820312 Z M 9.976562 1.820312"/></g><linearGradient id="linear1" x1="63.444" x2="63.444" y1="6.595" y2="85.465" gradientTransform="matrix(0.124975,-0.0024,0.0024,0.124975,-0.148487,0.155087)" gradientUnits="userSpaceOnUse"><stop offset=".003" style="stop-color:#a67c52;stop-opacity:1"/><stop offset=".214" style="stop-color:#9f754c;stop-opacity:1"/><stop offset=".523" style="stop-color:#8b623a;stop-opacity:1"/><stop offset=".892" style="stop-color:#6b431d;stop-opacity:1"/><stop offset="1" style="stop-color:#603813;stop-opacity:1"/></linearGradient><mask id="mask1"><g filter="url(#alpha)"><rect width="16" height="16" x="0" y="0" style="fill:#000;fill-opacity:.2;stroke:none"/></g></mask><clipPath id="clip2"><rect width="16" height="16" x="0" y="0"/></clipPath><g id="surface8" clip-path="url(#clip2)"><path style="stroke:none;fill-rule:nonzero;fill:#424242;fill-opacity:1" d="M 7.621094 1.035156 C 8.882812 5.9375 10.507812 8.59375 11.199219 9.566406 C 9.671875 8.050781 8.15625 4.367188 8.023438 3.574219 C 8.007812 3.453125 7.90625 3.367188 7.789062 3.363281 L 7.777344 3.363281 C 7.664062 3.363281 7.5625 3.441406 7.535156 3.554688 L 7.53125 3.578125 C 7.15625 5.148438 6.535156 7.757812 4.796875 10.222656 L 4.675781 10.199219 C 5.285156 9.335938 6.808594 6.8125 7.453125 2.394531 C 7.460938 2.351562 7.457031 2.3125 7.441406 2.273438 C 7.28125 1.832031 7.089844 1.445312 6.953125 1.195312 L 7.621094 1.035156 M 7.800781 0.738281 L 6.574219 1.027344 C 6.574219 1.027344 6.941406 1.621094 7.207031 2.359375 C 6.410156 7.816406 4.234375 10.375 4.234375 10.375 L 4.910156 10.496094 C 6.753906 7.945312 7.386719 5.265625 7.777344 3.613281 C 7.914062 4.449219 9.632812 8.699219 11.367188 10.050781 L 11.714844 9.835938 C 11.714844 9.835938 9.421875 7.175781 7.800781 0.738281 Z M 7.800781 0.738281"/></g><radialGradient id="radial0" cx="82.352" cy="90.475" r="19.968" fx="82.352" fy="90.475" gradientTransform="matrix(0.122412,-0.0253,0.0253,0.122412,-2.1995,2.589875)" gradientUnits="userSpaceOnUse"><stop offset=".007" style="stop-color:#ff817d;stop-opacity:1"/><stop offset="1" style="stop-color:#cd0000;stop-opacity:1"/></radialGradient><mask id="mask2"><g filter="url(#alpha)"><rect width="16" height="16" x="0" y="0" style="fill:#000;fill-opacity:.2;stroke:none"/></g></mask><clipPath id="clip3"><rect width="16" height="16" x="0" y="0"/></clipPath><g id="surface11" clip-path="url(#clip3)"><path style="stroke:none;fill-rule:nonzero;fill:#424242;fill-opacity:1" d="M 12.535156 9.109375 C 13.019531 9.109375 13.496094 9.285156 13.875 9.605469 C 14.304688 9.960938 14.582031 10.476562 14.6875 11.09375 C 14.902344 12.417969 13.890625 14.21875 12.78125 14.449219 C 12.671875 14.46875 12.609375 14.5 12.535156 14.5 L 12.476562 14.5 C 12.363281 14.5 12.222656 14.476562 12.003906 14.519531 C 11.765625 14.570312 11.632812 14.613281 11.523438 14.660156 C 11.4375 14.695312 11.378906 14.714844 11.257812 14.738281 C 11.164062 14.757812 11.066406 14.765625 10.964844 14.765625 C 9.855469 14.765625 8.480469 13.609375 8.1875 12.4375 C 7.972656 11.574219 8.203125 10.949219 8.4375 10.578125 C 8.742188 10.09375 9.21875 9.753906 9.753906 9.644531 C 10.011719 9.589844 10.210938 9.585938 10.402344 9.582031 C 10.582031 9.578125 10.765625 9.574219 10.980469 9.53125 C 11.191406 9.484375 11.363281 9.417969 11.527344 9.347656 C 11.703125 9.277344 11.886719 9.203125 12.144531 9.148438 C 12.273438 9.125 12.402344 9.109375 12.535156 9.109375 M 12.535156 8.726562 C 12.378906 8.726562 12.222656 8.742188 12.070312 8.773438 C 11.527344 8.886719 11.289062 9.074219 10.902344 9.152344 C 10.515625 9.234375 10.21875 9.15625 9.675781 9.265625 C 8.449219 9.519531 7.390625 10.820312 7.816406 12.527344 C 8.144531 13.851562 9.660156 15.144531 10.96875 15.144531 C 11.09375 15.144531 11.214844 15.132812 11.335938 15.109375 C 11.667969 15.039062 11.695312 14.972656 12.082031 14.890625 C 12.265625 14.855469 12.375 14.875 12.476562 14.875 L 12.535156 14.875 C 12.625 14.875 12.714844 14.847656 12.859375 14.816406 C 14.230469 14.535156 15.308594 12.519531 15.0625 11.042969 C 14.8125 9.519531 13.644531 8.726562 12.535156 8.726562 Z M 12.535156 8.726562"/></g><radialGradient id="radial1" cx="26.446" cy="87.138" r="28.724" fx="26.446" fy="87.138" gradientTransform="matrix(0.1238,-0.0172875,0.0172875,0.1238,-1.528125,0.805325)" gradientUnits="userSpaceOnUse"><stop offset=".007" style="stop-color:#ff817d;stop-opacity:1"/><stop offset=".393" style="stop-color:#ed524f;stop-opacity:1"/><stop offset="1" style="stop-color:#cd0000;stop-opacity:1"/></radialGradient><mask id="mask3"><g filter="url(#alpha)"><rect width="16" height="16" x="0" y="0" style="fill:#000;fill-opacity:.2;stroke:none"/></g></mask><clipPath id="clip4"><rect width="16" height="16" x="0" y="0"/></clipPath><g id="surface14" clip-path="url(#clip4)"><path style="stroke:none;fill-rule:nonzero;fill:#424242;fill-opacity:1" d="M 3.621094 9.207031 C 3.714844 9.207031 3.8125 9.214844 3.902344 9.230469 C 4.164062 9.265625 4.351562 9.332031 4.535156 9.394531 C 4.703125 9.453125 4.878906 9.515625 5.09375 9.546875 C 5.207031 9.5625 5.320312 9.570312 5.453125 9.570312 C 5.523438 9.570312 5.597656 9.570312 5.671875 9.566406 C 5.742188 9.5625 5.816406 9.5625 5.894531 9.5625 C 6.042969 9.5625 6.175781 9.570312 6.320312 9.59375 C 6.855469 9.671875 7.351562 9.984375 7.675781 10.445312 C 7.929688 10.804688 8.199219 11.417969 8.03125 12.292969 C 7.796875 13.519531 6.417969 14.769531 5.300781 14.769531 C 5.230469 14.769531 5.160156 14.765625 5.09375 14.753906 C 4.972656 14.734375 4.910156 14.710938 4.828125 14.679688 C 4.71875 14.640625 4.582031 14.589844 4.339844 14.554688 C 4.214844 14.535156 4.109375 14.527344 4 14.527344 C 3.9375 14.527344 3.882812 14.527344 3.835938 14.53125 C 3.800781 14.535156 3.765625 14.535156 3.726562 14.535156 C 3.671875 14.535156 3.621094 14.53125 3.558594 14.519531 C 2.4375 14.351562 1.324219 12.640625 1.472656 11.308594 C 1.625 9.863281 2.695312 9.207031 3.621094 9.207031 M 3.621094 8.824219 C 2.472656 8.824219 1.261719 9.671875 1.085938 11.265625 C 0.925781 12.753906 2.113281 14.695312 3.5 14.902344 C 3.589844 14.914062 3.664062 14.917969 3.726562 14.917969 C 3.820312 14.917969 3.898438 14.910156 4 14.910156 C 4.074219 14.910156 4.164062 14.914062 4.285156 14.933594 C 4.675781 14.992188 4.703125 15.082031 5.039062 15.132812 C 5.125 15.144531 5.210938 15.148438 5.300781 15.148438 C 6.632812 15.148438 8.140625 13.738281 8.40625 12.363281 C 8.738281 10.632812 7.613281 9.394531 6.375 9.210938 C 6.1875 9.183594 6.035156 9.175781 5.894531 9.175781 C 5.734375 9.175781 5.59375 9.183594 5.453125 9.183594 C 5.355469 9.183594 5.257812 9.179688 5.148438 9.164062 C 4.757812 9.105469 4.507812 8.929688 3.960938 8.847656 C 3.847656 8.832031 3.734375 8.824219 3.621094 8.824219 Z M 3.621094 8.824219"/></g></defs><g id="surface1"><path style="stroke:none;fill-rule:nonzero;fill:#558b2f;fill-opacity:1" d="M 9.261719 1.925781 C 9.324219 1.972656 9.386719 2.027344 9.394531 2.105469 C 9.402344 2.179688 9.355469 2.246094 9.3125 2.308594 C 9.273438 2.359375 9.230469 2.410156 9.171875 2.421875 C 9.109375 2.433594 9.046875 2.398438 8.992188 2.363281 C 8.738281 2.1875 8.5 1.949219 8.191406 1.917969 C 8.085938 1.90625 7.789062 1.886719 7.863281 1.699219 C 7.910156 1.582031 8.128906 1.578125 8.230469 1.578125 C 8.59375 1.578125 8.964844 1.710938 9.261719 1.925781 Z M 9.261719 1.925781"/><path style="stroke:none;fill-rule:nonzero;fill:url(#linear0)" d="M 8.882812 2.023438 C 9.570312 1.691406 11.40625 1.59375 12.769531 3.046875 C 13.828125 4.175781 13.304688 6.0625 14.484375 6.820312 C 14.140625 6.8125 13.65625 6.785156 13.09375 6.683594 C 12.039062 6.492188 10.789062 6.265625 9.902344 5.347656 C 8.753906 4.160156 8.847656 2.457031 8.882812 2.023438 Z M 8.882812 2.023438"/><use mask="url(#mask0)" xlink:href="#surface5"/><path style="stroke:none;fill-rule:nonzero;fill:#558b2f;fill-opacity:1" d="M 9.386719 2.226562 C 9.386719 2.226562 9.476562 2.234375 9.621094 2.28125 C 9.695312 2.304688 9.78125 2.339844 9.878906 2.378906 C 9.976562 2.425781 10.085938 2.476562 10.199219 2.546875 C 10.3125 2.613281 10.425781 2.699219 10.546875 2.792969 C 10.601562 2.84375 10.660156 2.894531 10.71875 2.949219 C 10.773438 3.007812 10.832031 3.0625 10.886719 3.125 C 10.996094 3.25 11.101562 3.390625 11.191406 3.53125 C 11.28125 3.671875 11.375 3.820312 11.460938 3.964844 C 11.550781 4.109375 11.636719 4.257812 11.722656 4.398438 C 11.808594 4.542969 11.898438 4.675781 11.988281 4.804688 C 12.078125 4.933594 12.171875 5.050781 12.265625 5.160156 C 12.363281 5.265625 12.457031 5.363281 12.550781 5.445312 C 12.644531 5.53125 12.734375 5.601562 12.816406 5.667969 C 12.902344 5.726562 12.976562 5.777344 13.035156 5.820312 C 13.160156 5.902344 13.234375 5.949219 13.234375 5.949219 L 13.230469 5.949219 C 13.230469 5.949219 13.152344 5.914062 13.015625 5.851562 C 12.953125 5.820312 12.871094 5.773438 12.777344 5.722656 C 12.691406 5.667969 12.585938 5.609375 12.484375 5.53125 C 12.429688 5.492188 12.378906 5.449219 12.324219 5.40625 C 12.269531 5.359375 12.214844 5.3125 12.160156 5.261719 C 12.050781 5.160156 11.949219 5.039062 11.84375 4.914062 C 11.636719 4.664062 11.453125 4.371094 11.265625 4.085938 C 11.171875 3.945312 11.082031 3.804688 10.988281 3.667969 C 10.894531 3.53125 10.800781 3.40625 10.699219 3.289062 C 10.597656 3.171875 10.492188 3.066406 10.390625 2.972656 C 10.28125 2.878906 10.179688 2.792969 10.078125 2.722656 C 9.882812 2.574219 9.699219 2.46875 9.570312 2.402344 C 9.441406 2.335938 9.363281 2.304688 9.363281 2.304688 Z M 9.386719 2.226562"/><path style="stroke:none;fill-rule:nonzero;fill:url(#linear1)" d="M 7.800781 0.738281 L 6.574219 1.027344 C 6.574219 1.027344 6.941406 1.621094 7.207031 2.359375 C 6.410156 7.816406 4.234375 10.375 4.234375 10.375 L 4.910156 10.496094 C 6.753906 7.945312 7.386719 5.265625 7.777344 3.613281 C 7.914062 4.449219 9.632812 8.699219 11.367188 10.050781 L 11.714844 9.835938 C 11.714844 9.835938 9.421875 7.175781 7.800781 0.738281 Z M 7.800781 0.738281"/><use mask="url(#mask1)" xlink:href="#surface8"/><path style="stroke:none;fill-rule:nonzero;fill:url(#radial0)" d="M 12.070312 8.773438 C 11.527344 8.886719 11.289062 9.074219 10.902344 9.152344 C 10.515625 9.234375 10.21875 9.15625 9.675781 9.265625 C 8.449219 9.519531 7.390625 10.820312 7.816406 12.527344 C 8.175781 13.980469 9.960938 15.390625 11.335938 15.105469 C 11.667969 15.039062 11.695312 14.945312 12.082031 14.863281 C 12.46875 14.785156 12.527344 14.859375 12.859375 14.792969 C 14.230469 14.507812 15.304688 12.503906 15.0625 11.03125 C 14.777344 9.292969 13.296875 8.519531 12.070312 8.773438 Z M 12.070312 8.773438"/><use mask="url(#mask2)" xlink:href="#surface11"/><path style="stroke:none;fill-rule:nonzero;fill:url(#radial1)" d="M 6.375 9.210938 C 5.828125 9.128906 5.542969 9.222656 5.152344 9.164062 C 4.761719 9.105469 4.507812 8.929688 3.960938 8.847656 C 2.722656 8.664062 1.277344 9.515625 1.085938 11.265625 C 0.925781 12.753906 2.113281 14.695312 3.5 14.902344 C 3.832031 14.953125 3.890625 14.875 4.285156 14.933594 C 4.675781 14.992188 4.703125 15.082031 5.035156 15.132812 C 6.421875 15.339844 8.125 13.832031 8.40625 12.363281 C 8.738281 10.636719 7.613281 9.398438 6.375 9.210938 Z M 6.375 9.210938"/><use mask="url(#mask3)" xlink:href="#surface14"/></g></svg>