<svg xmlns="http://www.w3.org/2000/svg" xmlns:xlink="http://www.w3.org/1999/xlink" width="16pt" height="16pt" version="1.1" viewBox="0 0 16 16"><defs><linearGradient id="linear0" x1="100.07" x2="129.83" y1="25.355" y2="41.351" gradientTransform="matrix(0.124875,-0.005625,0.005625,0.124875,-0.330188,0.387525)" gradientUnits="userSpaceOnUse"><stop offset=".005" style="stop-color:#a0bd46;stop-opacity:1"/><stop offset=".424" style="stop-color:#7f972d;stop-opacity:1"/><stop offset=".926" style="stop-color:#52650b;stop-opacity:1"/></linearGradient><filter id="alpha" width="100%" height="100%" x="0%" y="0%" filterUnits="objectBoundingBox"><feColorMatrix in="SourceGraphic" type="matrix" values="0 0 0 0 1 0 0 0 0 1 0 0 0 0 1 0 0 0 1 0"/></filter><mask id="mask0"><g filter="url(#alpha)"><rect width="16" height="16" x="0" y="0" style="fill:#000;fill-opacity:.2;stroke:none"/></g></mask><clipPath id="clip1"><rect width="16" height="16" x="0" y="0"/></clipPath><g id="surface5" clip-path="url(#clip1)"><path style="stroke:none;fill-rule:nonzero;fill:#424242;fill-opacity:1" d="M 13.175781 1.742188 C 13.375 1.742188 13.636719 1.824219 13.738281 2.210938 C 13.789062 2.402344 13.828125 2.765625 13.867188 3.152344 C 13.964844 4.054688 14.042969 4.667969 14.253906 4.957031 L 14.285156 4.996094 C 14.355469 5.09375 14.410156 5.171875 14.460938 5.234375 C 14.140625 5.226562 13.777344 5.15625 13.6875 5.109375 C 13.589844 5.058594 13.484375 5.039062 13.390625 5.035156 C 13.394531 5.03125 13.398438 5.023438 13.40625 5.019531 C 13.613281 4.753906 13.804688 3.605469 13.6875 3.003906 C 13.578125 2.453125 13.207031 2.121094 12.984375 1.921875 C 12.953125 1.890625 12.925781 1.867188 12.902344 1.84375 C 12.9375 1.808594 13.015625 1.757812 13.113281 1.75 C 13.132812 1.742188 13.15625 1.742188 13.175781 1.742188 M 13.175781 1.492188 C 13.144531 1.492188 13.117188 1.492188 13.085938 1.496094 C 12.789062 1.527344 12.515625 1.796875 12.6875 1.980469 C 12.859375 2.164062 13.328125 2.46875 13.441406 3.046875 C 13.554688 3.628906 13.347656 4.683594 13.207031 4.859375 C 13.160156 4.921875 13.046875 4.945312 12.925781 4.945312 C 12.703125 4.945312 12.445312 4.875 12.445312 4.875 C 12.445312 4.875 12.484375 5.089844 12.761719 5.21875 C 12.875 5.273438 12.992188 5.28125 13.109375 5.28125 C 13.175781 5.28125 13.242188 5.28125 13.304688 5.28125 C 13.402344 5.28125 13.496094 5.289062 13.570312 5.328125 C 13.726562 5.410156 14.175781 5.484375 14.507812 5.484375 C 14.617188 5.484375 14.714844 5.472656 14.78125 5.453125 C 15.007812 5.386719 15.144531 5.382812 15.183594 5.382812 L 15.191406 5.382812 C 15.191406 5.382812 15.261719 5.292969 15.011719 5.265625 C 14.761719 5.234375 14.753906 5.214844 14.457031 4.808594 C 14.15625 4.398438 14.128906 2.714844 13.980469 2.148438 C 13.84375 1.632812 13.46875 1.492188 13.175781 1.492188 Z M 13.175781 1.492188"/></g><linearGradient id="linear1" x1="50.173" x2="90.802" y1="63.088" y2="120.79" gradientTransform="matrix(0.124875,-0.005625,0.005625,0.124875,-0.330188,0.387525)" gradientUnits="userSpaceOnUse"><stop offset=".281" style="stop-color:#ff1744;stop-opacity:1"/><stop offset=".654" style="stop-color:#b20500;stop-opacity:1"/><stop offset="1" style="stop-color:#eb382f;stop-opacity:1"/></linearGradient><mask id="mask1"><g filter="url(#alpha)"><rect width="16" height="16" x="0" y="0" style="fill:#000;fill-opacity:.2;stroke:none"/></g></mask><clipPath id="clip2"><rect width="16" height="16" x="0" y="0"/></clipPath><g id="surface8" clip-path="url(#clip2)"><path style="stroke:none;fill-rule:nonzero;fill:#424242;fill-opacity:1" d="M 12.78125 5.492188 C 12.925781 5.492188 13.089844 5.523438 13.273438 5.578125 C 13.441406 5.632812 13.609375 5.636719 13.75 5.636719 L 13.917969 5.636719 C 14.207031 5.636719 14.453125 5.660156 14.722656 5.933594 C 15.144531 6.371094 14.976562 7.164062 14.582031 8.773438 L 14.5625 8.847656 C 13.886719 11.625 11.585938 13.152344 10.628906 13.679688 C 10.605469 13.695312 10.585938 13.703125 10.570312 13.710938 C 9.871094 14.113281 8.566406 14.863281 6.945312 14.863281 C 6.800781 14.863281 6.660156 14.855469 6.515625 14.84375 C 5.546875 14.765625 4.632812 14.691406 3.710938 14.140625 C 3.304688 13.898438 2.695312 13.640625 2.039062 13.433594 C 1.804688 13.359375 1.578125 13.324219 1.367188 13.324219 C 1.324219 13.324219 1.285156 13.324219 1.242188 13.328125 C 1.46875 13.203125 1.8125 13.085938 2.324219 13.085938 C 2.359375 13.085938 2.390625 13.085938 2.429688 13.085938 L 2.875 13.101562 C 3.515625 13.121094 4.019531 13.136719 4.484375 13.136719 C 5.078125 13.136719 5.550781 13.109375 6.007812 13.042969 C 7.019531 12.898438 8.257812 12.625 9.757812 11.660156 C 10.894531 10.933594 11.605469 9.753906 11.867188 8.152344 C 11.925781 7.808594 11.921875 7.488281 11.917969 7.183594 C 11.910156 6.792969 11.902344 6.453125 12.023438 6.113281 C 12.027344 6.109375 12.027344 6.101562 12.03125 6.097656 C 12.085938 5.910156 12.179688 5.765625 12.304688 5.671875 C 12.316406 5.664062 12.328125 5.652344 12.34375 5.640625 C 12.421875 5.582031 12.53125 5.492188 12.78125 5.492188 M 12.78125 5.117188 C 12.355469 5.117188 12.164062 5.308594 12.078125 5.375 C 11.832031 5.558594 11.722656 5.824219 11.671875 5.988281 C 11.421875 6.6875 11.621094 7.347656 11.5 8.09375 C 11.375 8.839844 11.019531 10.410156 9.554688 11.347656 C 8.09375 12.285156 6.921875 12.535156 5.953125 12.671875 C 5.480469 12.738281 5.019531 12.761719 4.480469 12.761719 C 3.917969 12.761719 3.273438 12.738281 2.4375 12.710938 C 2.398438 12.710938 2.359375 12.710938 2.320312 12.710938 C 0.78125 12.710938 0.257812 13.675781 0.457031 13.996094 C 0.457031 13.996094 0.480469 14.066406 0.53125 14.066406 C 0.5625 14.066406 0.597656 14.046875 0.644531 13.988281 C 0.738281 13.867188 0.96875 13.699219 1.367188 13.699219 C 1.523438 13.699219 1.710938 13.726562 1.925781 13.792969 C 2.625 14.011719 3.191406 14.265625 3.519531 14.460938 C 4.511719 15.054688 5.488281 15.136719 6.484375 15.21875 C 6.640625 15.230469 6.792969 15.234375 6.941406 15.234375 C 8.664062 15.234375 10.035156 14.449219 10.753906 14.035156 C 11.039062 13.875 14.097656 12.324219 14.925781 8.933594 C 15.335938 7.257812 15.582031 6.285156 14.988281 5.671875 C 14.613281 5.289062 14.242188 5.261719 13.914062 5.261719 C 13.859375 5.261719 13.804688 5.261719 13.75 5.261719 C 13.617188 5.261719 13.496094 5.257812 13.382812 5.222656 C 13.144531 5.148438 12.945312 5.117188 12.78125 5.117188 Z M 12.78125 5.117188"/></g></defs><g id="surface1"><path style="stroke:none;fill-rule:nonzero;fill:url(#linear0)" d="M 12.445312 4.875 C 12.445312 4.875 13.066406 5.039062 13.207031 4.859375 C 13.347656 4.683594 13.554688 3.628906 13.441406 3.046875 C 13.324219 2.464844 12.859375 2.164062 12.6875 1.980469 C 12.511719 1.796875 12.785156 1.527344 13.085938 1.496094 C 13.386719 1.46875 13.828125 1.578125 13.980469 2.148438 C 14.128906 2.714844 14.15625 4.402344 14.457031 4.808594 C 14.753906 5.214844 14.761719 5.234375 15.011719 5.265625 C 15.261719 5.292969 15.191406 5.382812 15.191406 5.382812 C 15.191406 5.382812 15.046875 5.375 14.78125 5.453125 C 14.519531 5.53125 13.777344 5.4375 13.570312 5.328125 C 13.363281 5.21875 13.039062 5.351562 12.761719 5.222656 C 12.484375 5.089844 12.445312 4.875 12.445312 4.875 Z M 12.445312 4.875"/><use mask="url(#mask0)" xlink:href="#surface5"/><path style="stroke:none;fill-rule:nonzero;fill:url(#linear1)" d="M 11.671875 5.988281 C 11.425781 6.6875 11.621094 7.351562 11.5 8.09375 C 11.378906 8.839844 11.019531 10.410156 9.558594 11.347656 C 8.09375 12.285156 6.921875 12.539062 5.953125 12.671875 C 4.988281 12.808594 4.074219 12.765625 2.441406 12.710938 C 0.808594 12.660156 0.253906 13.667969 0.457031 14 C 0.457031 14 0.507812 14.164062 0.644531 13.988281 C 0.78125 13.816406 1.175781 13.558594 1.925781 13.792969 C 2.628906 14.015625 3.191406 14.269531 3.519531 14.464844 C 4.511719 15.058594 5.492188 15.136719 6.484375 15.21875 C 8.421875 15.378906 9.976562 14.484375 10.757812 14.039062 C 11.039062 13.875 14.097656 12.324219 14.925781 8.9375 C 15.335938 7.257812 15.585938 6.289062 14.988281 5.675781 C 14.394531 5.0625 13.804688 5.355469 13.382812 5.222656 C 12.519531 4.953125 12.195312 5.289062 12.078125 5.375 C 11.832031 5.558594 11.722656 5.824219 11.671875 5.988281 Z M 11.671875 5.988281"/><use mask="url(#mask1)" xlink:href="#surface8"/></g></svg>