<svg xmlns="http://www.w3.org/2000/svg" xmlns:xlink="http://www.w3.org/1999/xlink" width="16pt" height="16pt" version="1.1" viewBox="0 0 16 16"><defs><linearGradient id="linear0" x1="63.678" x2="63.678" y1="112.76" y2="123.88" gradientTransform="matrix(0.125,0,0,0.125,0,0)" gradientUnits="userSpaceOnUse"><stop offset="0" style="stop-color:#f2f3ed;stop-opacity:1"/><stop offset="1" style="stop-color:#c8c6b9;stop-opacity:1"/></linearGradient><linearGradient id="linear1" x1="64" x2="64" y1="6.94" y2="116.96" gradientTransform="matrix(0.125,0,0,0.125,0,0)" gradientUnits="userSpaceOnUse"><stop offset="0" style="stop-color:#f2f3ed;stop-opacity:1"/><stop offset=".76" style="stop-color:#c8c6b9;stop-opacity:1"/><stop offset=".995" style="stop-color:#fffcec;stop-opacity:1"/></linearGradient><linearGradient id="linear2" x1="63.83" x2="63.83" y1="18.132" y2="48.712" gradientTransform="matrix(0.125,0,0,0.125,0,0)" gradientUnits="userSpaceOnUse"><stop offset="0" style="stop-color:#e8ffa1;stop-opacity:1"/><stop offset="1" style="stop-color:#9ba269;stop-opacity:1"/></linearGradient><filter id="alpha" width="100%" height="100%" x="0%" y="0%" filterUnits="objectBoundingBox"><feColorMatrix in="SourceGraphic" type="matrix" values="0 0 0 0 1 0 0 0 0 1 0 0 0 0 1 0 0 0 1 0"/></filter><mask id="mask0"><g filter="url(#alpha)"><rect width="16" height="16" x="0" y="0" style="fill:#000;fill-opacity:.521569;stroke:none"/></g></mask><clipPath id="clip1"><rect width="16" height="16" x="0" y="0"/></clipPath><g id="surface5" clip-path="url(#clip1)"><path style="stroke:none;fill-rule:nonzero;fill:#e6eecb;fill-opacity:1" d="M 11.488281 2.699219 C 11.488281 2.421875 9.921875 2.199219 7.992188 2.199219 C 6.058594 2.199219 4.492188 2.421875 4.492188 2.699219 C 4.492188 2.976562 6.058594 3.199219 7.992188 3.199219 C 9.921875 3.199219 11.488281 2.976562 11.488281 2.699219 Z M 11.488281 2.699219"/></g><mask id="mask1"><g filter="url(#alpha)"><rect width="16" height="16" x="0" y="0" style="fill:#000;fill-opacity:.2;stroke:none"/></g></mask><clipPath id="clip2"><rect width="16" height="16" x="0" y="0"/></clipPath><g id="surface8" clip-path="url(#clip2)"><path style="stroke:none;fill-rule:nonzero;fill:#424242;fill-opacity:1" d="M 8.023438 0.996094 C 10.363281 0.996094 11.835938 1.21875 12.390625 1.394531 C 12.320312 1.480469 12.234375 1.582031 12.136719 1.699219 C 9.445312 4.863281 8.285156 6.355469 8.125 6.835938 C 8.0625 7.027344 8.015625 7.214844 7.972656 7.414062 C 7.929688 7.214844 7.882812 7.027344 7.820312 6.835938 C 7.660156 6.347656 6.503906 4.851562 3.835938 1.664062 C 3.757812 1.570312 3.683594 1.484375 3.621094 1.40625 C 4.144531 1.230469 5.632812 0.996094 8.023438 0.996094 M 7.972656 14.207031 C 8.019531 14.351562 8.152344 14.457031 8.308594 14.46875 C 9.023438 14.507812 9.488281 14.65625 9.675781 14.769531 C 9.472656 14.890625 8.910156 15.082031 7.960938 15.082031 C 7.007812 15.082031 6.449219 14.890625 6.246094 14.769531 C 6.433594 14.65625 6.90625 14.503906 7.636719 14.464844 C 7.792969 14.457031 7.925781 14.351562 7.972656 14.207031 M 8.023438 0.621094 C 5.539062 0.621094 3.488281 0.886719 3.164062 1.230469 C 3.109375 1.257812 3.078125 1.285156 3.070312 1.3125 L 3.066406 1.3125 L 3.070312 1.316406 C 3.070312 1.320312 3.066406 1.324219 3.066406 1.328125 C 3.066406 1.359375 7.203125 6.171875 7.460938 6.953125 C 7.742188 7.820312 7.769531 8.707031 7.746094 10.484375 C 7.726562 11.84375 7.648438 13.417969 7.613281 14.09375 C 6.585938 14.144531 5.800781 14.425781 5.800781 14.769531 C 5.800781 15.148438 6.765625 15.457031 7.957031 15.457031 C 9.148438 15.457031 10.113281 15.148438 10.113281 14.769531 C 10.113281 14.429688 9.34375 14.148438 8.328125 14.09375 C 8.292969 13.421875 8.214844 11.84375 8.195312 10.484375 C 8.171875 8.707031 8.199219 7.820312 8.480469 6.953125 C 8.710938 6.253906 12.128906 2.292969 12.808594 1.480469 C 12.882812 1.433594 12.921875 1.386719 12.925781 1.335938 C 12.925781 1.335938 12.929688 1.332031 12.929688 1.332031 L 12.929688 1.328125 C 12.929688 1.328125 12.929688 1.328125 12.929688 1.324219 C 12.929688 1.320312 12.929688 1.316406 12.929688 1.316406 C 12.929688 1.3125 12.929688 1.3125 12.929688 1.3125 L 12.925781 1.3125 C 12.882812 0.929688 10.703125 0.621094 8.023438 0.621094 Z M 8.023438 0.621094"/></g></defs><g id="surface1"><path style="stroke:none;fill-rule:nonzero;fill:url(#linear0)" d="M 10.117188 14.769531 C 10.117188 14.390625 9.152344 14.082031 7.960938 14.082031 C 6.769531 14.082031 5.804688 14.390625 5.804688 14.769531 C 5.804688 15.148438 6.769531 15.453125 7.960938 15.453125 C 9.152344 15.453125 10.117188 15.148438 10.117188 14.769531 Z M 10.117188 14.769531"/><path style="stroke:none;fill-rule:nonzero;fill:url(#linear1)" d="M 12.929688 1.3125 L 12.925781 1.3125 C 12.824219 1.050781 10.667969 0.839844 8.019531 0.839844 C 5.351562 0.839844 3.140625 1.046875 3.074219 1.3125 L 3.070312 1.3125 L 3.070312 1.316406 C 3.070312 1.320312 3.070312 1.320312 3.070312 1.324219 C 3.070312 1.359375 7.203125 6.171875 7.460938 6.953125 C 7.746094 7.816406 7.773438 8.703125 7.746094 10.484375 C 7.722656 12.265625 7.597656 14.425781 7.597656 14.425781 C 7.597656 14.425781 7.582031 14.730469 7.976562 14.730469 C 8.386719 14.730469 8.347656 14.425781 8.347656 14.425781 C 8.347656 14.425781 8.222656 12.265625 8.195312 10.484375 C 8.171875 8.703125 8.199219 7.816406 8.480469 6.953125 C 8.734375 6.171875 12.929688 1.367188 12.929688 1.332031 C 12.929688 1.328125 12.925781 1.320312 12.925781 1.316406 C 12.929688 1.316406 12.929688 1.3125 12.929688 1.3125 Z M 12.929688 1.3125"/><path style="stroke:none;fill-rule:nonzero;fill:url(#linear2)" d="M 11.488281 2.699219 C 11.488281 2.421875 9.921875 2.199219 7.992188 2.199219 C 6.066406 2.199219 4.503906 2.421875 4.492188 2.695312 L 4.46875 2.699219 C 4.46875 2.699219 6.882812 6.132812 7.976562 6.132812 C 8.957031 6.132812 11.003906 3.367188 11.414062 2.800781 C 11.464844 2.769531 11.488281 2.734375 11.488281 2.699219 Z M 11.488281 2.699219"/><path style="stroke:none;fill-rule:nonzero;fill:#fff;fill-opacity:1" d="M 12.929688 1.324219 C 12.929688 0.9375 10.734375 0.621094 8.023438 0.621094 C 5.316406 0.621094 3.121094 0.9375 3.121094 1.324219 C 3.121094 1.714844 5.316406 2.027344 8.023438 2.027344 C 10.734375 2.027344 12.929688 1.714844 12.929688 1.324219 Z M 12.929688 1.324219"/><path style="stroke:none;fill-rule:nonzero;fill:#8c6239;fill-opacity:1" d="M 7.855469 5.5625 C 7.855469 5.5625 8.027344 5.25 8.316406 4.800781 C 8.457031 4.574219 8.628906 4.316406 8.816406 4.042969 C 8.914062 3.90625 9.007812 3.761719 9.109375 3.621094 C 9.210938 3.476562 9.3125 3.332031 9.417969 3.191406 C 9.519531 3.046875 9.628906 2.90625 9.730469 2.765625 C 9.832031 2.625 9.941406 2.488281 10.039062 2.359375 C 10.242188 2.09375 10.4375 1.851562 10.605469 1.644531 C 10.945312 1.234375 11.1875 0.972656 11.1875 0.972656 C 11.1875 0.972656 11.015625 1.285156 10.726562 1.734375 C 10.585938 1.960938 10.414062 2.21875 10.226562 2.492188 C 10.132812 2.628906 10.035156 2.773438 9.933594 2.914062 C 9.832031 3.058594 9.730469 3.203125 9.625 3.34375 C 9.519531 3.488281 9.414062 3.628906 9.3125 3.769531 C 9.207031 3.910156 9.101562 4.046875 9 4.175781 C 8.796875 4.441406 8.605469 4.683594 8.433594 4.890625 C 8.101562 5.300781 7.855469 5.5625 7.855469 5.5625 Z M 7.855469 5.5625"/><path style="stroke:none;fill-rule:nonzero;fill:#81882d;fill-opacity:1" d="M 9.609375 3.90625 C 9.507812 3.441406 8.964844 3.167969 8.402344 3.292969 C 7.84375 3.417969 7.472656 3.898438 7.578125 4.367188 C 7.679688 4.832031 8.222656 5.105469 8.785156 4.980469 C 9.34375 4.855469 9.714844 4.375 9.609375 3.90625 Z M 9.609375 3.90625"/><path style="stroke:none;fill-rule:nonzero;fill:#727724;fill-opacity:1" d="M 10.425781 2.824219 C 10.347656 2.476562 9.945312 2.273438 9.527344 2.367188 C 9.109375 2.460938 8.832031 2.820312 8.910156 3.164062 C 8.988281 3.511719 9.390625 3.71875 9.808594 3.625 C 10.226562 3.53125 10.503906 3.171875 10.425781 2.824219 Z M 10.425781 2.824219"/><path style="stroke:none;fill-rule:nonzero;fill:#85471b;fill-opacity:1" d="M 8.792969 3.738281 C 8.628906 3.578125 8.332031 3.609375 8.128906 3.8125 C 7.925781 4.015625 7.890625 4.316406 8.054688 4.476562 C 8.21875 4.640625 8.515625 4.609375 8.71875 4.402344 C 8.921875 4.199219 8.957031 3.902344 8.792969 3.738281 Z M 8.792969 3.738281"/><path style="stroke:none;fill-rule:nonzero;fill:#85471b;fill-opacity:1" d="M 9.691406 2.714844 C 9.582031 2.605469 9.382812 2.625 9.242188 2.765625 C 9.105469 2.902344 9.082031 3.105469 9.191406 3.214844 C 9.304688 3.324219 9.503906 3.300781 9.640625 3.164062 C 9.78125 3.027344 9.804688 2.824219 9.691406 2.714844 Z M 9.691406 2.714844"/><use mask="url(#mask0)" xlink:href="#surface5"/><use mask="url(#mask1)" xlink:href="#surface8"/></g></svg>