<svg xmlns="http://www.w3.org/2000/svg" xmlns:xlink="http://www.w3.org/1999/xlink" width="16pt" height="16pt" version="1.1" viewBox="0 0 16 16"><defs><radialGradient id="radial0" cx="63.138" cy="96.922" r="57.66" fx="63.138" fy="96.922" gradientTransform="matrix(0.126825,0,0,0.0669875,-0.0072875,5.039)" gradientUnits="userSpaceOnUse"><stop offset="0" style="stop-color:#fff;stop-opacity:1"/><stop offset="1" style="stop-color:#e3e3e3;stop-opacity:1"/></radialGradient><filter id="alpha" width="100%" height="100%" x="0%" y="0%" filterUnits="objectBoundingBox"><feColorMatrix in="SourceGraphic" type="matrix" values="0 0 0 0 1 0 0 0 0 1 0 0 0 0 1 0 0 0 1 0"/></filter><mask id="mask0"><g filter="url(#alpha)"><rect width="16" height="16" x="0" y="0" style="fill:#000;fill-opacity:.490196;stroke:none"/></g></mask><linearGradient id="linear0" x1="63.125" x2="63.125" y1="76.604" y2="106.51" gradientTransform="matrix(0.125,0,0,0.125,0,0)" gradientUnits="userSpaceOnUse"><stop offset="0" style="stop-color:#fff;stop-opacity:1"/><stop offset=".212" style="stop-color:#e2e2e2;stop-opacity:1"/><stop offset=".559" style="stop-color:#b8b8b8;stop-opacity:1"/><stop offset=".832" style="stop-color:#9e9e9e;stop-opacity:1"/><stop offset=".995" style="stop-color:#949494;stop-opacity:1"/></linearGradient><clipPath id="clip1"><rect width="16" height="16"/></clipPath><g id="surface6" clip-path="url(#clip1)"><path style="stroke:none;fill-rule:nonzero;fill:url(#linear0)" d="M 12.4375 11.136719 C 12.4375 12.371094 10.402344 13.5 7.890625 13.5 C 5.378906 13.5 3.34375 12.367188 3.34375 11.136719 C 3.34375 9.90625 5.378906 8.90625 7.890625 8.90625 C 10.402344 8.90625 12.4375 9.90625 12.4375 11.136719 Z M 12.4375 11.136719"/></g><mask id="mask1"><g filter="url(#alpha)"><rect width="16" height="16" x="0" y="0" style="fill:#000;fill-opacity:.2;stroke:none"/></g></mask><clipPath id="clip2"><rect width="16" height="16"/></clipPath><g id="surface12" clip-path="url(#clip2)"><path style="stroke:none;fill-rule:nonzero;fill:#424242;fill-opacity:1" d="M 8 8.03125 C 9.925781 8.03125 11.730469 8.417969 13.078125 9.125 C 14.355469 9.789062 15.054688 10.640625 15.054688 11.53125 C 15.054688 12.421875 14.355469 13.273438 13.078125 13.9375 C 11.730469 14.644531 9.925781 15.03125 8 15.03125 C 6.074219 15.03125 4.269531 14.644531 2.921875 13.9375 C 1.644531 13.273438 0.945312 12.421875 0.945312 11.53125 C 0.945312 10.640625 1.644531 9.789062 2.921875 9.125 C 4.269531 8.417969 6.074219 8.03125 8 8.03125 M 8 7.65625 C 3.894531 7.65625 0.570312 9.390625 0.570312 11.53125 C 0.570312 13.671875 3.894531 15.40625 8 15.40625 C 12.105469 15.40625 15.429688 13.671875 15.429688 11.53125 C 15.429688 9.390625 12.105469 7.65625 8 7.65625 Z M 8 7.65625"/></g><radialGradient id="radial1" cx="62.548" cy="66.739" r="42.384" fx="62.548" fy="66.739" gradientTransform="matrix(0.125,0,0,0.122688,0,0.0790875)" gradientUnits="userSpaceOnUse"><stop offset=".005" style="stop-color:#fff;stop-opacity:1"/><stop offset=".276" style="stop-color:#fbfbfb;stop-opacity:1"/><stop offset=".565" style="stop-color:#eee;stop-opacity:1"/><stop offset=".861" style="stop-color:#d9d9d9;stop-opacity:1"/><stop offset="1" style="stop-color:#ccc;stop-opacity:1"/></radialGradient><linearGradient id="linear1" x1="62.637" x2="62.637" y1="28.365" y2="53.127" gradientTransform="matrix(0.125,0,0,0.125,0,0)" gradientUnits="userSpaceOnUse"><stop offset=".005" style="stop-color:#fff;stop-opacity:1"/><stop offset=".276" style="stop-color:#fbfbfb;stop-opacity:1"/><stop offset=".565" style="stop-color:#eee;stop-opacity:1"/><stop offset=".861" style="stop-color:#d9d9d9;stop-opacity:1"/><stop offset="1" style="stop-color:#ccc;stop-opacity:1"/></linearGradient><mask id="mask2"><g filter="url(#alpha)"><rect width="16" height="16" x="0" y="0" style="fill:#000;fill-opacity:.2;stroke:none"/></g></mask><clipPath id="clip3"><rect width="16" height="16"/></clipPath><g id="surface15" clip-path="url(#clip3)"><path style="stroke:none;fill-rule:nonzero;fill:#424242;fill-opacity:1" d="M 7.808594 4.703125 C 10.386719 4.703125 11.984375 5.519531 12.195312 6.296875 C 12.203125 6.355469 12.214844 6.4375 12.214844 6.464844 C 12.214844 6.496094 12.207031 6.890625 12.199219 7.128906 C 12.195312 7.253906 12.257812 7.371094 12.359375 7.445312 C 12.421875 7.488281 12.5 7.515625 12.578125 7.515625 C 12.621094 7.515625 12.667969 7.503906 12.714844 7.488281 C 12.996094 7.378906 13.359375 7.3125 13.710938 7.3125 C 13.875 7.3125 14.027344 7.328125 14.148438 7.355469 C 14.375 7.40625 14.574219 7.535156 14.683594 7.707031 C 14.785156 7.871094 14.8125 8.070312 14.757812 8.304688 C 14.621094 8.921875 14.003906 10.023438 11.433594 10.476562 C 11.335938 10.496094 11.25 10.546875 11.195312 10.628906 C 10.453125 11.65625 9.3125 12.175781 7.8125 12.175781 C 6.523438 12.175781 5.5 11.796875 4.777344 11.046875 C 3.476562 9.707031 3.40625 7.511719 3.4375 6.628906 L 3.4375 6.609375 C 3.433594 6.429688 3.449219 6.308594 3.453125 6.273438 C 3.695312 5.378906 5.5625 4.703125 7.808594 4.703125 M 7.808594 4.328125 C 5.367188 4.328125 3.363281 5.066406 3.082031 6.199219 C 3.082031 6.199219 3.058594 6.355469 3.0625 6.613281 C 3.015625 7.960938 3.171875 12.554688 7.808594 12.554688 C 9.65625 12.554688 10.796875 11.820312 11.496094 10.847656 C 14.160156 10.378906 14.941406 9.191406 15.121094 8.390625 C 15.304688 7.574219 14.753906 7.105469 14.230469 6.988281 C 14.078125 6.957031 13.898438 6.941406 13.707031 6.941406 C 13.335938 6.941406 12.921875 7.003906 12.574219 7.140625 C 12.582031 6.90625 12.589844 6.503906 12.589844 6.464844 C 12.589844 6.386719 12.5625 6.21875 12.5625 6.21875 C 12.28125 5.085938 10.25 4.328125 7.808594 4.328125 Z M 7.808594 4.328125"/></g><clipPath id="clip4"><path d="M 3 5 L 12 5 L 12 9 L 3 9 Z M 3 5"/></clipPath><clipPath id="clip5"><path d="M 12.488281 6.46875 C 12.488281 7.644531 10.371094 8.507812 7.816406 8.507812 C 5.261719 8.507812 3.121094 7.644531 3.121094 6.46875 C 3.121094 5.292969 5.261719 4.339844 7.816406 4.339844 C 10.371094 4.339844 12.488281 5.292969 12.488281 6.46875 Z M 12.488281 6.46875"/></clipPath><linearGradient id="linear2" x1="62.53" x2="62.53" y1="46.75" y2="74.84" gradientTransform="matrix(0.125,0,0,0.125,0,0)" gradientUnits="userSpaceOnUse"><stop offset="0" style="stop-color:#7b402b;stop-opacity:1"/><stop offset=".094" style="stop-color:#6f3a28;stop-opacity:1"/><stop offset=".504" style="stop-color:#3f241a;stop-opacity:1"/><stop offset=".818" style="stop-color:#211611;stop-opacity:1"/><stop offset=".995" style="stop-color:#16110e;stop-opacity:1"/></linearGradient><mask id="mask3"><g filter="url(#alpha)"><rect width="16" height="16" x="0" y="0" style="fill:#000;fill-opacity:.580392;stroke:none"/></g></mask><clipPath id="clip6"><rect width="16" height="16"/></clipPath><g id="surface18" clip-path="url(#clip6)"><path style="stroke:none;fill-rule:nonzero;fill:#d7ccc8;fill-opacity:1" d="M 6.613281 5.554688 C 6.484375 5.980469 6.890625 6.453125 7.140625 6.679688 C 7.167969 6.703125 7.144531 6.75 7.109375 6.738281 C 6.804688 6.664062 6.265625 6.519531 6.070312 5.921875 C 5.953125 5.558594 6.125 5.167969 6.457031 4.601562 C 6.648438 4.265625 6.742188 3.953125 6.765625 3.582031 C 6.796875 3.203125 6.703125 2.914062 6.539062 2.722656 C 6.511719 2.691406 6.542969 2.648438 6.578125 2.667969 C 6.863281 2.820312 7.1875 3.105469 7.265625 3.566406 C 7.265625 3.566406 7.265625 3.566406 7.269531 3.570312 C 7.351562 4.367188 6.84375 4.785156 6.613281 5.554688 Z M 6.613281 5.554688"/></g><mask id="mask4"><g filter="url(#alpha)"><rect width="16" height="16" x="0" y="0" style="fill:#000;fill-opacity:.580392;stroke:none"/></g></mask><clipPath id="clip7"><rect width="16" height="16"/></clipPath><g id="surface21" clip-path="url(#clip7)"><path style="stroke:none;fill-rule:nonzero;fill:#d7ccc8;fill-opacity:1" d="M 8.261719 5.386719 C 7.957031 6.019531 8.476562 6.859375 8.804688 7.273438 C 8.839844 7.320312 8.796875 7.386719 8.742188 7.363281 C 8.285156 7.171875 7.480469 6.8125 7.324219 5.824219 C 7.230469 5.234375 7.597656 4.664062 8.253906 3.859375 C 8.640625 3.378906 8.863281 2.914062 8.996094 2.34375 C 9.136719 1.753906 9.058594 1.28125 8.851562 0.941406 C 8.820312 0.886719 8.878906 0.828125 8.929688 0.863281 C 9.332031 1.171875 9.769531 1.703125 9.78125 2.441406 L 9.78125 2.449219 C 9.710938 3.714844 8.816406 4.238281 8.261719 5.386719 Z M 8.261719 5.386719"/></g></defs><g id="surface1"><path style="stroke:none;fill-rule:nonzero;fill:url(#radial0)" d="M 15.429688 11.53125 C 15.429688 9.390625 12.101562 7.65625 8 7.65625 C 3.898438 7.65625 0.570312 9.390625 0.570312 11.53125 C 0.570312 13.671875 3.898438 15.40625 8 15.40625 C 12.101562 15.40625 15.429688 13.671875 15.429688 11.53125 Z M 15.429688 11.53125"/><use mask="url(#mask0)" xlink:href="#surface6"/><use mask="url(#mask1)" xlink:href="#surface12"/><path style="stroke:none;fill-rule:nonzero;fill:url(#radial1)" d="M 14.242188 7.019531 C 13.804688 6.921875 13.113281 6.964844 12.585938 7.171875 C 12.605469 6.589844 12.558594 6.207031 12.558594 6.207031 L 7.8125 6.199219 L 3.082031 6.203125 C 3.082031 6.203125 2.390625 12.546875 7.8125 12.546875 C 9.664062 12.546875 10.804688 11.820312 11.507812 10.855469 C 14.175781 10.386719 14.957031 9.210938 15.140625 8.414062 C 15.324219 7.601562 14.765625 7.136719 14.242188 7.019531 Z M 14.304688 8.53125 C 14.238281 8.667969 13.589844 9.550781 12.324219 9.660156 C 12.324219 9.660156 12.773438 7.722656 13.71875 7.703125 C 14.660156 7.683594 14.375 8.394531 14.304688 8.53125 Z M 14.304688 8.53125"/><path style="stroke:none;fill-rule:nonzero;fill:url(#linear1)" d="M 12.589844 6.46875 C 12.589844 7.683594 10.453125 8.667969 7.816406 8.667969 C 5.179688 8.667969 3.066406 7.679688 3.066406 6.464844 C 3.066406 5.25 5.179688 4.269531 7.816406 4.269531 C 10.453125 4.269531 12.589844 5.253906 12.589844 6.46875 Z M 12.589844 6.46875"/><use mask="url(#mask2)" xlink:href="#surface15"/><g clip-path="url(#clip4)" clip-rule="nonzero"><g clip-path="url(#clip5)" clip-rule="nonzero"><path style="stroke:none;fill-rule:nonzero;fill:url(#linear2)" d="M 11.90625 7.613281 C 11.90625 6.570312 10.074219 5.730469 7.816406 5.730469 C 5.558594 5.730469 3.726562 6.570312 3.726562 7.613281 C 3.726562 8.652344 5.558594 9.496094 7.816406 9.496094 C 10.074219 9.496094 11.90625 8.652344 11.90625 7.613281 Z M 11.90625 7.613281"/></g></g><use mask="url(#mask3)" xlink:href="#surface18"/><use mask="url(#mask4)" xlink:href="#surface21"/><path style="stroke:none;fill-rule:nonzero;fill:#fff;fill-opacity:1" d="M 8.007812 14.644531 C 5.351562 14.644531 2.8125 14.1875 1.742188 13.089844 C 2.710938 14.21875 5.148438 15.019531 8.007812 15.019531 C 10.863281 15.019531 13.300781 14.21875 14.269531 13.089844 C 12.832031 14.144531 10.660156 14.644531 8.007812 14.644531 Z M 8.007812 14.644531"/></g></svg>