<svg xmlns="http://www.w3.org/2000/svg" xmlns:xlink="http://www.w3.org/1999/xlink" width="16pt" height="16pt" version="1.1" viewBox="0 0 16 16"><defs><linearGradient id="linear0" x1="64" x2="64" y1="19.717" y2="107.7" gradientTransform="matrix(0.125,0,0,0.125,0,0)" gradientUnits="userSpaceOnUse"><stop offset=".5" style="stop-color:#fee133;stop-opacity:1"/><stop offset=".612" style="stop-color:#fede32;stop-opacity:1"/><stop offset=".708" style="stop-color:#fcd32f;stop-opacity:1"/><stop offset=".797" style="stop-color:#fac12b;stop-opacity:1"/><stop offset=".883" style="stop-color:#f7a924;stop-opacity:1"/><stop offset=".9" style="stop-color:#f6a323;stop-opacity:1"/></linearGradient></defs><g id="surface1"><path style="stroke:none;fill-rule:nonzero;fill:url(#linear0)" d="M 8 14.984375 C 4.507812 14.984375 0.75 12.800781 0.75 8 C 0.75 3.199219 4.507812 1.015625 8 1.015625 C 9.933594 1.015625 11.726562 1.652344 13.046875 2.816406 C 14.488281 4.089844 15.25 5.882812 15.25 8 C 15.25 10.109375 14.488281 11.894531 13.046875 13.171875 C 11.722656 14.34375 9.929688 14.984375 8 14.984375 Z M 8 14.984375"/><path style="stroke:none;fill-rule:nonzero;fill:#eb8f00;fill-opacity:1" d="M 8 1.265625 C 9.875 1.265625 11.609375 1.882812 12.878906 3.003906 C 14.265625 4.230469 15 5.957031 15 8 C 15 10.035156 14.265625 11.757812 12.878906 12.984375 C 11.601562 14.113281 9.871094 14.734375 8 14.734375 C 6.121094 14.734375 4.386719 14.121094 3.121094 13.007812 C 1.734375 11.789062 1 10.058594 1 8 C 1 5.933594 1.734375 4.199219 3.121094 2.980469 C 4.382812 1.875 6.117188 1.265625 8 1.265625 M 8 0.765625 C 4.105469 0.765625 0.5 3.265625 0.5 8 C 0.5 12.710938 4.105469 15.234375 8 15.234375 C 11.894531 15.234375 15.5 12.644531 15.5 8 C 15.5 3.328125 11.894531 0.765625 8 0.765625 Z M 8 0.765625"/><path style="stroke:none;fill-rule:nonzero;fill:#242424;fill-opacity:1" d="M 7.800781 9.566406 C 9.238281 9.285156 10.410156 9.828125 10.8125 10.238281 C 10.964844 10.398438 11.027344 10.589844 10.976562 10.753906 C 10.9375 10.875 10.84375 10.960938 10.710938 10.988281 C 10.667969 10.996094 10.621094 10.996094 10.570312 10.992188 C 9.800781 10.90625 8.949219 10.953125 8.101562 11.117188 C 7.261719 11.28125 6.457031 11.566406 5.78125 11.933594 C 5.734375 11.957031 5.691406 11.972656 5.648438 11.984375 C 5.515625 12.007812 5.394531 11.964844 5.3125 11.863281 C 5.203125 11.734375 5.1875 11.53125 5.269531 11.328125 C 5.488281 10.796875 6.363281 9.851562 7.800781 9.566406 Z M 7.800781 9.566406"/><path style="stroke:none;fill-rule:nonzero;fill:#242424;fill-opacity:1" d="M 10.34375 5.398438 C 10.867188 5.398438 11.34375 5.839844 11.34375 6.578125 C 11.34375 7.3125 10.867188 7.753906 10.34375 7.753906 C 9.820312 7.753906 9.34375 7.3125 9.34375 6.578125 C 9.34375 5.839844 9.820312 5.398438 10.34375 5.398438 Z M 10.34375 5.398438"/><path style="stroke:none;fill-rule:nonzero;fill:#242424;fill-opacity:1" d="M 5.648438 5.398438 C 5.125 5.398438 4.648438 5.839844 4.648438 6.578125 C 4.648438 7.3125 5.125 7.753906 5.648438 7.753906 C 6.171875 7.753906 6.648438 7.3125 6.648438 6.578125 C 6.648438 5.839844 6.171875 5.398438 5.648438 5.398438 Z M 5.648438 5.398438"/></g></svg>