<svg xmlns="http://www.w3.org/2000/svg" xmlns:xlink="http://www.w3.org/1999/xlink" width="16pt" height="16pt" version="1.1" viewBox="0 0 16 16"><defs><linearGradient id="linear0" x1="64" x2="64" y1="19.717" y2="107.7" gradientTransform="matrix(0.125,0,0,0.125,0,0)" gradientUnits="userSpaceOnUse"><stop offset=".5" style="stop-color:#fee133;stop-opacity:1"/><stop offset=".612" style="stop-color:#fede32;stop-opacity:1"/><stop offset=".708" style="stop-color:#fcd32f;stop-opacity:1"/><stop offset=".797" style="stop-color:#fac12b;stop-opacity:1"/><stop offset=".883" style="stop-color:#f7a924;stop-opacity:1"/><stop offset=".9" style="stop-color:#f6a323;stop-opacity:1"/></linearGradient></defs><g id="surface1"><path style="stroke:none;fill-rule:nonzero;fill:url(#linear0)" d="M 8 14.984375 C 4.507812 14.984375 0.75 12.800781 0.75 8 C 0.75 3.199219 4.507812 1.015625 8 1.015625 C 9.933594 1.015625 11.726562 1.652344 13.046875 2.816406 C 14.488281 4.089844 15.25 5.882812 15.25 8 C 15.25 10.109375 14.488281 11.894531 13.046875 13.171875 C 11.722656 14.34375 9.929688 14.984375 8 14.984375 Z M 8 14.984375"/><path style="stroke:none;fill-rule:nonzero;fill:#eb8f00;fill-opacity:1" d="M 8 1.265625 C 9.875 1.265625 11.609375 1.882812 12.878906 3.003906 C 14.265625 4.230469 15 5.957031 15 8 C 15 10.035156 14.265625 11.757812 12.878906 12.984375 C 11.601562 14.113281 9.871094 14.734375 8 14.734375 C 6.121094 14.734375 4.386719 14.121094 3.121094 13.007812 C 1.734375 11.789062 1 10.058594 1 8 C 1 5.933594 1.734375 4.199219 3.121094 2.980469 C 4.382812 1.875 6.117188 1.265625 8 1.265625 M 8 0.765625 C 4.105469 0.765625 0.5 3.265625 0.5 8 C 0.5 12.710938 4.105469 15.234375 8 15.234375 C 11.894531 15.234375 15.5 12.644531 15.5 8 C 15.5 3.328125 11.894531 0.765625 8 0.765625 Z M 8 0.765625"/><path style="fill-rule:nonzero;fill:#eb8f00;fill-opacity:1;stroke-width:1;stroke-linecap:butt;stroke-linejoin:miter;stroke:#eb8f00;stroke-opacity:1;stroke-miterlimit:10" d="M 75.65625 20.90625 C 75.625 20.90625 75.59375 20.90625 75.53125 20.90625 C 73.34375 20.78125 72.84375 17.625 75.28125 17.25 C 77.15625 17.03125 79.15625 17.0625 81.125 17.40625 C 86.625 18.375 91.34375 21.46875 94.21875 25.40625 C 95.625 27.40625 93 29.28125 91.40625 27.75 C 87.3125 23.9375 81.6875 21.375 75.65625 20.90625 Z M 75.65625 20.90625" transform="matrix(0.125,0,0,0.125,0,0)"/><path style="fill-rule:nonzero;fill:#eb8f00;fill-opacity:1;stroke-width:1;stroke-linecap:butt;stroke-linejoin:miter;stroke:#eb8f00;stroke-opacity:1;stroke-miterlimit:10" d="M 31.6875 31.1875 C 31.625 31.1875 31.59375 31.1875 31.5625 31.21875 C 29.375 31.625 29.34375 34.84375 31.78125 34.875 C 33.6875 34.84375 35.65625 34.53125 37.59375 33.90625 C 42.875 32.21875 47.15625 28.5 49.46875 24.21875 C 50.59375 22.03125 47.71875 20.5625 46.34375 22.28125 C 42.8125 26.625 37.59375 29.9375 31.6875 31.1875 Z M 31.6875 31.1875" transform="matrix(0.125,0,0,0.125,0,0)"/><path style="stroke:none;fill-rule:nonzero;fill:#fff;fill-opacity:1" d="M 5.027344 8.890625 C 3.765625 8.890625 2.742188 7.863281 2.742188 6.605469 C 2.742188 5.34375 3.769531 4.320312 5.027344 4.320312 C 6.285156 4.320312 7.3125 5.347656 7.3125 6.605469 C 7.3125 7.863281 6.289062 8.890625 5.027344 8.890625 Z M 5.027344 8.890625"/><path style="stroke:none;fill-rule:nonzero;fill:#eb8f00;fill-opacity:1" d="M 5.027344 4.554688 C 6.15625 4.554688 7.078125 5.476562 7.078125 6.605469 C 7.078125 7.734375 6.15625 8.652344 5.027344 8.652344 C 3.898438 8.652344 2.980469 7.734375 2.980469 6.605469 C 2.980469 5.476562 3.898438 4.554688 5.027344 4.554688 M 5.027344 4.085938 C 3.636719 4.085938 2.507812 5.214844 2.507812 6.605469 C 2.507812 7.996094 3.636719 9.125 5.027344 9.125 C 6.417969 9.125 7.546875 7.996094 7.546875 6.605469 C 7.546875 5.214844 6.417969 4.085938 5.027344 4.085938 Z M 5.027344 4.085938"/><path style="stroke:none;fill-rule:nonzero;fill:#242424;fill-opacity:1" d="M 5.722656 5.011719 C 5.316406 4.953125 4.886719 5.320312 4.785156 6.011719 C 4.683594 6.707031 4.996094 7.175781 5.402344 7.234375 C 5.808594 7.296875 6.238281 6.929688 6.339844 6.234375 C 6.441406 5.542969 6.128906 5.070312 5.722656 5.011719 Z M 5.722656 5.011719"/><path style="stroke:none;fill-rule:nonzero;fill:#eb8f00;fill-opacity:1" d="M 7.253906 5.875 C 7.132812 5.03125 6.183594 4.378906 5.027344 4.378906 C 3.871094 4.378906 2.921875 5.035156 2.800781 5.875 Z M 7.253906 5.875"/><path style="stroke:none;fill-rule:nonzero;fill:#fff;fill-opacity:1" d="M 11.027344 9.027344 C 9.828125 9.027344 8.855469 8.050781 8.855469 6.855469 C 8.855469 5.65625 9.828125 4.683594 11.027344 4.683594 C 12.226562 4.683594 13.199219 5.65625 13.199219 6.855469 C 13.199219 8.050781 12.226562 9.027344 11.027344 9.027344 Z M 11.027344 9.027344"/><path style="stroke:none;fill-rule:nonzero;fill:#eb8f00;fill-opacity:1" d="M 11.027344 4.910156 C 12.101562 4.910156 12.972656 5.78125 12.972656 6.855469 C 12.972656 7.925781 12.101562 8.800781 11.027344 8.800781 C 9.953125 8.800781 9.082031 7.925781 9.082031 6.855469 C 9.082031 5.78125 9.953125 4.910156 11.027344 4.910156 M 11.027344 4.460938 C 9.703125 4.460938 8.632812 5.53125 8.632812 6.855469 C 8.632812 8.175781 9.703125 9.25 11.027344 9.25 C 12.351562 9.25 13.421875 8.175781 13.421875 6.855469 C 13.421875 5.53125 12.351562 4.460938 11.027344 4.460938 Z M 11.027344 4.460938"/><path style="stroke:none;fill-rule:nonzero;fill:#242424;fill-opacity:1" d="M 9.328125 5.929688 C 9.164062 6.136719 9.0625 6.453125 9.070312 6.851562 C 9.089844 7.582031 9.480469 8.011719 9.898438 8 C 10.316406 7.988281 10.683594 7.539062 10.664062 6.808594 C 10.660156 6.675781 10.644531 6.554688 10.617188 6.441406 C 10.183594 6.285156 9.753906 6.113281 9.328125 5.929688 Z M 9.328125 5.929688"/><path style="fill:none;stroke-width:4.4377;stroke-linecap:round;stroke-linejoin:round;stroke:#242424;stroke-opacity:1;stroke-miterlimit:10" d="M 32 90.78125 C 32.84375 95 38.03125 96.78125 42.3125 96.4375 C 46.59375 96.125 50.8125 94.5 55.0625 95.125 C 57.25 95.46875 59.375 96.40625 61.59375 96.21875 C 65.8125 95.90625 68.65625 91.8125 72.46875 89.9375 C 75.53125 88.40625 79.09375 88.40625 82.5 88.5 C 85.9375 88.59375 89.46875 88.75 92.625 87.5 C 95.8125 86.21875 98.5625 83.125 98.21875 79.75" transform="matrix(0.125,0,0,0.125,0,0)"/><path style="fill:none;stroke-width:4.4377;stroke-linecap:round;stroke-linejoin:round;stroke:#242424;stroke-opacity:1;stroke-miterlimit:10" d="M 28.1875 92.34375 C 29.03125 89.78125 31.5 87.8125 34.21875 87.59375" transform="matrix(0.125,0,0,0.125,0,0)"/><path style="fill:none;stroke-width:4.4377;stroke-linecap:round;stroke-linejoin:round;stroke:#242424;stroke-opacity:1;stroke-miterlimit:10" d="M 93.25 77.09375 C 96.53125 77.46875 99.625 79.15625 101.78125 81.6875" transform="matrix(0.125,0,0,0.125,0,0)"/><path style="stroke:none;fill-rule:nonzero;fill:#eb8f00;fill-opacity:1" d="M 13.070312 7.210938 C 13.242188 6.171875 12.628906 5.152344 11.621094 4.871094 C 10.609375 4.59375 9.5625 5.152344 9.175781 6.136719 Z M 13.070312 7.210938"/></g></svg>