<svg xmlns="http://www.w3.org/2000/svg" xmlns:xlink="http://www.w3.org/1999/xlink" width="16pt" height="16pt" version="1.1" viewBox="0 0 16 16"><defs><linearGradient id="linear0" x1="45.224" x2="84.433" y1="17.039" y2="115.36" gradientTransform="matrix(0.125,0,0,0.125,0,0)" gradientUnits="userSpaceOnUse"><stop offset=".275" style="stop-color:#fecc81;stop-opacity:1"/><stop offset=".415" style="stop-color:#fdbe64;stop-opacity:1"/><stop offset=".558" style="stop-color:#fcb44b;stop-opacity:1"/><stop offset=".704" style="stop-color:#fbac38;stop-opacity:1"/><stop offset=".85" style="stop-color:#faa82d;stop-opacity:1"/><stop offset="1" style="stop-color:#faa629;stop-opacity:1"/></linearGradient><linearGradient id="linear1" x1="70.118" x2="84.912" y1="24.4" y2="39.194" gradientTransform="matrix(0.125,0,0,0.125,0,0)" gradientUnits="userSpaceOnUse"><stop offset=".061" style="stop-color:#d38a29;stop-opacity:1"/><stop offset=".238" style="stop-color:#d48c2b;stop-opacity:1"/><stop offset=".411" style="stop-color:#d89232;stop-opacity:1"/><stop offset=".584" style="stop-color:#de9c41;stop-opacity:1"/><stop offset=".754" style="stop-color:#e6ac58;stop-opacity:1"/><stop offset=".895" style="stop-color:#f0bd71;stop-opacity:1"/></linearGradient><radialGradient id="radial0" cx="78.327" cy="29.424" r="8.713" fx="78.327" fy="29.424" gradientTransform="matrix(0.125,0,0,0.125,0,0)" gradientUnits="userSpaceOnUse"><stop offset=".109" style="stop-color:#8e513c;stop-opacity:1"/><stop offset=".12" style="stop-color:#8d503b;stop-opacity:1"/><stop offset=".784" style="stop-color:#6c3825;stop-opacity:1"/></radialGradient><linearGradient id="linear2" x1="24.008" x2="35.675" y1="35.983" y2="47.65" gradientTransform="matrix(0.123713,-0.01785,0.01785,0.123713,-0.746037,-0.28005)" gradientUnits="userSpaceOnUse"><stop offset=".061" style="stop-color:#d38a29;stop-opacity:1"/><stop offset=".238" style="stop-color:#d48c2b;stop-opacity:1"/><stop offset=".411" style="stop-color:#d89232;stop-opacity:1"/><stop offset=".584" style="stop-color:#de9c41;stop-opacity:1"/><stop offset=".754" style="stop-color:#e6ac58;stop-opacity:1"/><stop offset=".895" style="stop-color:#f0bd71;stop-opacity:1"/></linearGradient><radialGradient id="radial1" cx="30.482" cy="39.946" r="6.872" fx="30.482" fy="39.946" gradientTransform="matrix(0.123713,-0.01785,0.01785,0.123713,-0.746037,-0.28005)" gradientUnits="userSpaceOnUse"><stop offset=".109" style="stop-color:#8e513c;stop-opacity:1"/><stop offset=".12" style="stop-color:#8d503b;stop-opacity:1"/><stop offset=".784" style="stop-color:#6c3825;stop-opacity:1"/></radialGradient><linearGradient id="linear3" x1="68.791" x2="82.69" y1="84.798" y2="98.696" gradientTransform="matrix(0.1046,0.06845,-0.06845,0.1046,5.44475,-2.176125)" gradientUnits="userSpaceOnUse"><stop offset=".061" style="stop-color:#d38a29;stop-opacity:1"/><stop offset=".238" style="stop-color:#d48c2b;stop-opacity:1"/><stop offset=".411" style="stop-color:#d89232;stop-opacity:1"/><stop offset=".584" style="stop-color:#de9c41;stop-opacity:1"/><stop offset=".754" style="stop-color:#e6ac58;stop-opacity:1"/><stop offset=".895" style="stop-color:#f0bd71;stop-opacity:1"/></linearGradient><radialGradient id="radial2" cx="76.503" cy="89.518" r="8.186" fx="76.503" fy="89.518" gradientTransform="matrix(0.1046,0.06845,-0.06845,0.1046,5.44475,-2.176125)" gradientUnits="userSpaceOnUse"><stop offset=".109" style="stop-color:#8e513c;stop-opacity:1"/><stop offset=".12" style="stop-color:#8d503b;stop-opacity:1"/><stop offset=".784" style="stop-color:#6c3825;stop-opacity:1"/></radialGradient><linearGradient id="linear4" x1="122.81" x2="139.94" y1="80.374" y2="97.506" gradientTransform="matrix(0.119825,-0.035575,0.035575,0.119825,-7.52525,4.465625)" gradientUnits="userSpaceOnUse"><stop offset=".061" style="stop-color:#d38a29;stop-opacity:1"/><stop offset=".238" style="stop-color:#d48c2b;stop-opacity:1"/><stop offset=".411" style="stop-color:#d89232;stop-opacity:1"/><stop offset=".584" style="stop-color:#de9c41;stop-opacity:1"/><stop offset=".754" style="stop-color:#e6ac58;stop-opacity:1"/><stop offset=".895" style="stop-color:#f0bd71;stop-opacity:1"/></linearGradient><radialGradient id="radial3" cx="132.31" cy="86.193" r="10.09" fx="132.31" fy="86.193" gradientTransform="matrix(0.119825,-0.035575,0.035575,0.119825,-7.52525,4.465625)" gradientUnits="userSpaceOnUse"><stop offset=".109" style="stop-color:#8e513c;stop-opacity:1"/><stop offset=".12" style="stop-color:#8d503b;stop-opacity:1"/><stop offset=".784" style="stop-color:#6c3825;stop-opacity:1"/></radialGradient><linearGradient id="linear5" x1="57.414" x2="75.398" y1="60.835" y2="78.818" gradientTransform="matrix(0.115588,0.047575,-0.047575,0.115588,2.140125,-3.872375)" gradientUnits="userSpaceOnUse"><stop offset=".061" style="stop-color:#d38a29;stop-opacity:1"/><stop offset=".238" style="stop-color:#d48c2b;stop-opacity:1"/><stop offset=".411" style="stop-color:#d89232;stop-opacity:1"/><stop offset=".584" style="stop-color:#de9c41;stop-opacity:1"/><stop offset=".754" style="stop-color:#e6ac58;stop-opacity:1"/><stop offset=".895" style="stop-color:#f0bd71;stop-opacity:1"/></linearGradient><radialGradient id="radial4" cx="67.393" cy="66.942" r="10.592" fx="67.393" fy="66.942" gradientTransform="matrix(0.115588,0.047575,-0.047575,0.115588,2.140125,-3.872375)" gradientUnits="userSpaceOnUse"><stop offset=".109" style="stop-color:#8e513c;stop-opacity:1"/><stop offset=".12" style="stop-color:#8d503b;stop-opacity:1"/><stop offset=".784" style="stop-color:#6c3825;stop-opacity:1"/></radialGradient><linearGradient id="linear6" x1="37.522" x2="51.14" y1="104.36" y2="117.98" gradientTransform="matrix(0.122712,-0.0238375,0.0238375,0.122712,-5.162375,-2.484125)" gradientUnits="userSpaceOnUse"><stop offset=".061" style="stop-color:#d38a29;stop-opacity:1"/><stop offset=".238" style="stop-color:#d48c2b;stop-opacity:1"/><stop offset=".411" style="stop-color:#d89232;stop-opacity:1"/><stop offset=".584" style="stop-color:#de9c41;stop-opacity:1"/><stop offset=".754" style="stop-color:#e6ac58;stop-opacity:1"/><stop offset=".895" style="stop-color:#f0bd71;stop-opacity:1"/></linearGradient><radialGradient id="radial5" cx="45.078" cy="108.99" r="8.021" fx="45.078" fy="108.99" gradientTransform="matrix(0.122712,-0.0238375,0.0238375,0.122712,-5.162375,-2.484125)" gradientUnits="userSpaceOnUse"><stop offset=".109" style="stop-color:#8e513c;stop-opacity:1"/><stop offset=".12" style="stop-color:#8d503b;stop-opacity:1"/><stop offset=".784" style="stop-color:#6c3825;stop-opacity:1"/></radialGradient><linearGradient id="linear7" x1="121.33" x2="131.42" y1="98.609" y2="108.7" gradientTransform="matrix(0.122712,-0.0238375,0.0238375,0.122712,-5.162375,-2.484125)" gradientUnits="userSpaceOnUse"><stop offset=".061" style="stop-color:#d38a29;stop-opacity:1"/><stop offset=".238" style="stop-color:#d48c2b;stop-opacity:1"/><stop offset=".411" style="stop-color:#d89232;stop-opacity:1"/><stop offset=".584" style="stop-color:#de9c41;stop-opacity:1"/><stop offset=".754" style="stop-color:#e6ac58;stop-opacity:1"/><stop offset=".895" style="stop-color:#f0bd71;stop-opacity:1"/></linearGradient><radialGradient id="radial6" cx="126.93" cy="102.03" r="5.94" fx="126.93" fy="102.03" gradientTransform="matrix(0.122712,-0.0238375,0.0238375,0.122712,-5.162375,-2.484125)" gradientUnits="userSpaceOnUse"><stop offset=".109" style="stop-color:#8e513c;stop-opacity:1"/><stop offset=".12" style="stop-color:#8d503b;stop-opacity:1"/><stop offset=".784" style="stop-color:#6c3825;stop-opacity:1"/></radialGradient><filter id="alpha" width="100%" height="100%" x="0%" y="0%" filterUnits="objectBoundingBox"><feColorMatrix in="SourceGraphic" type="matrix" values="0 0 0 0 1 0 0 0 0 1 0 0 0 0 1 0 0 0 1 0"/></filter><mask id="mask0"><g filter="url(#alpha)"><rect width="16" height="16" x="0" y="0" style="fill:#000;fill-opacity:.2;stroke:none"/></g></mask><clipPath id="clip1"><rect width="16" height="16" x="0" y="0"/></clipPath><g id="surface5" clip-path="url(#clip1)"><path style="stroke:none;fill-rule:nonzero;fill:#434343;fill-opacity:1" d="M 8.878906 0.875 C 8.972656 0.875 9.070312 0.875 9.167969 0.878906 C 9.207031 0.878906 9.25 0.878906 9.289062 0.878906 L 9.519531 0.878906 C 9.765625 0.878906 10.023438 0.886719 10.257812 0.964844 C 10.578125 1.074219 10.867188 1.257812 11.117188 1.507812 C 11.308594 1.695312 13.28125 3.316406 13.546875 3.484375 C 14.328125 3.988281 14.804688 5.007812 14.785156 6.148438 C 14.78125 6.34375 14.953125 7.765625 15.003906 7.960938 C 15.191406 8.671875 15.15625 9.484375 14.90625 10.238281 C 14.65625 10.988281 14.226562 11.628906 13.664062 12.085938 C 13.609375 12.128906 13.578125 12.171875 13.484375 12.304688 C 12.214844 14.03125 10.953125 14.90625 9.71875 14.90625 C 9.660156 14.90625 9.59375 14.917969 9.382812 14.945312 C 8.953125 15.003906 8.054688 15.125 7.175781 15.125 C 6.53125 15.125 6.011719 15.0625 5.632812 14.933594 C 4.601562 14.582031 3.375 13.367188 2.785156 12.785156 C 2.554688 12.554688 2.472656 12.476562 2.398438 12.425781 C 1.636719 11.933594 1.175781 10.980469 1.167969 9.871094 C 1.167969 9.6875 0.953125 7.8125 0.925781 7.652344 C 0.820312 7.019531 0.878906 6.339844 1.09375 5.695312 C 1.289062 5.101562 1.609375 4.566406 2.015625 4.140625 C 2.066406 4.089844 2.167969 3.949219 2.644531 3.261719 C 2.851562 2.960938 3.109375 2.589844 3.15625 2.53125 C 3.558594 2.03125 4.914062 0.875 8.878906 0.875 M 8.878906 0.5 C 5.320312 0.5 3.5625 1.421875 2.863281 2.292969 C 2.746094 2.4375 1.820312 3.800781 1.746094 3.878906 C 1.3125 4.332031 0.957031 4.90625 0.738281 5.574219 C 0.496094 6.304688 0.445312 7.042969 0.554688 7.710938 C 0.582031 7.875 0.792969 9.71875 0.792969 9.875 C 0.800781 11.089844 1.316406 12.175781 2.195312 12.742188 C 2.402344 12.875 4.089844 14.804688 5.511719 15.285156 C 5.984375 15.445312 6.582031 15.5 7.179688 15.5 C 8.386719 15.5 9.585938 15.28125 9.71875 15.28125 L 9.722656 15.28125 C 12.050781 15.28125 13.785156 12.46875 13.898438 12.378906 C 14.492188 11.894531 14.984375 11.199219 15.261719 10.359375 C 15.546875 9.496094 15.566406 8.625 15.367188 7.863281 C 15.328125 7.707031 15.15625 6.320312 15.160156 6.152344 C 15.183594 4.890625 14.660156 3.75 13.75 3.167969 C 13.523438 3.023438 11.566406 1.417969 11.386719 1.238281 C 11.105469 0.957031 10.765625 0.738281 10.378906 0.609375 C 10.097656 0.511719 9.808594 0.5 9.519531 0.5 C 9.445312 0.5 9.367188 0.503906 9.289062 0.503906 C 9.25 0.503906 9.210938 0.503906 9.171875 0.5 C 9.074219 0.5 8.976562 0.5 8.878906 0.5 Z M 8.878906 0.5"/></g></defs><g id="surface1"><path style="stroke:none;fill-rule:nonzero;fill:url(#linear0)" d="M 13.898438 12.378906 C 14.492188 11.894531 14.984375 11.199219 15.261719 10.359375 C 15.546875 9.496094 15.566406 8.625 15.367188 7.863281 C 15.328125 7.707031 15.15625 6.320312 15.160156 6.152344 C 15.183594 4.890625 14.660156 3.75 13.75 3.167969 C 13.523438 3.023438 11.566406 1.417969 11.386719 1.238281 C 11.105469 0.957031 10.765625 0.738281 10.378906 0.609375 C 9.984375 0.472656 9.578125 0.507812 9.171875 0.5 C 5.417969 0.449219 3.582031 1.398438 2.867188 2.292969 C 2.75 2.4375 1.820312 3.800781 1.746094 3.878906 C 1.3125 4.332031 0.960938 4.90625 0.738281 5.574219 C 0.496094 6.304688 0.445312 7.042969 0.554688 7.710938 C 0.582031 7.875 0.792969 9.71875 0.792969 9.875 C 0.800781 11.089844 1.316406 12.175781 2.195312 12.742188 C 2.402344 12.875 4.089844 14.804688 5.511719 15.285156 C 6.9375 15.769531 9.519531 15.28125 9.71875 15.28125 C 12.050781 15.285156 13.785156 12.472656 13.898438 12.378906 Z M 13.898438 12.378906"/><path style="stroke:none;fill-rule:nonzero;fill:url(#linear1)" d="M 10.574219 3.964844 C 11.03125 4.6875 10.324219 5.066406 9.617188 4.976562 C 9.066406 4.902344 8.820312 4.636719 8.925781 4.207031 C 9.039062 3.734375 9.203125 2.835938 9.761719 2.835938 C 10.320312 2.835938 10.335938 3.59375 10.574219 3.964844 Z M 10.574219 3.964844"/><path style="stroke:none;fill-rule:nonzero;fill:url(#radial0)" d="M 10.417969 3.953125 C 10.78125 4.53125 10.21875 4.832031 9.65625 4.761719 C 9.214844 4.703125 9.023438 4.488281 9.105469 4.148438 C 9.199219 3.769531 9.328125 3.054688 9.773438 3.054688 C 10.21875 3.054688 10.230469 3.660156 10.417969 3.953125 Z M 10.417969 3.953125"/><path style="stroke:none;fill-rule:nonzero;fill:url(#linear2)" d="M 4.378906 4.253906 C 4.820312 4.765625 4.308594 5.140625 3.75 5.148438 C 3.308594 5.15625 3.089844 4.976562 3.121094 4.628906 C 3.160156 4.246094 3.1875 3.527344 3.621094 3.464844 C 4.058594 3.402344 4.15625 3.988281 4.378906 4.253906 Z M 4.378906 4.253906"/><path style="stroke:none;fill-rule:nonzero;fill:url(#radial1)" d="M 4.257812 4.261719 C 4.609375 4.671875 4.203125 4.96875 3.757812 4.976562 C 3.40625 4.984375 3.230469 4.835938 3.257812 4.5625 C 3.285156 4.257812 3.304688 3.683594 3.65625 3.636719 C 4 3.582031 4.078125 4.050781 4.257812 4.261719 Z M 4.257812 4.261719"/><path style="stroke:none;fill-rule:nonzero;fill:url(#linear3)" d="M 7.785156 13.050781 C 7.773438 13.855469 7.023438 13.789062 6.515625 13.355469 C 6.117188 13.015625 6.0625 12.679688 6.363281 12.394531 C 6.703125 12.082031 7.292969 11.460938 7.730469 11.75 C 8.167969 12.035156 7.792969 12.636719 7.785156 13.050781 Z M 7.785156 13.050781"/><path style="stroke:none;fill-rule:nonzero;fill:url(#radial2)" d="M 7.671875 12.960938 C 7.660156 13.605469 7.0625 13.550781 6.65625 13.203125 C 6.339844 12.933594 6.296875 12.667969 6.539062 12.441406 C 6.804688 12.191406 7.273438 11.695312 7.625 11.925781 C 7.976562 12.152344 7.675781 12.632812 7.671875 12.960938 Z M 7.671875 12.960938"/><path style="stroke:none;fill-rule:nonzero;fill:url(#linear4)" d="M 12.359375 10.144531 C 13.105469 10.796875 12.445312 11.453125 11.632812 11.582031 C 10.992188 11.6875 10.636719 11.46875 10.609375 10.960938 C 10.582031 10.394531 10.46875 9.347656 11.085938 9.164062 C 11.707031 8.980469 11.976562 9.8125 12.359375 10.144531 Z M 12.359375 10.144531"/><path style="stroke:none;fill-rule:nonzero;fill:url(#radial3)" d="M 12.183594 10.1875 C 12.777344 10.703125 12.25 11.226562 11.605469 11.332031 C 11.097656 11.414062 10.8125 11.238281 10.789062 10.835938 C 10.765625 10.382812 10.675781 9.546875 11.171875 9.402344 C 11.667969 9.253906 11.878906 9.921875 12.183594 10.1875 Z M 12.183594 10.1875"/><path style="stroke:none;fill-rule:nonzero;fill:url(#linear5)" d="M 7.492188 7.753906 C 7.671875 8.78125 6.703125 8.878906 5.953125 8.453125 C 5.359375 8.113281 5.210938 7.703125 5.527344 7.269531 C 5.875 6.789062 6.476562 5.855469 7.105469 6.113281 C 7.730469 6.371094 7.398438 7.230469 7.492188 7.753906 Z M 7.492188 7.753906"/><path style="stroke:none;fill-rule:nonzero;fill:url(#radial4)" d="M 7.320312 7.671875 C 7.464844 8.488281 6.691406 8.566406 6.09375 8.226562 C 5.625 7.957031 5.503906 7.628906 5.753906 7.285156 C 6.035156 6.898438 6.511719 6.15625 7.011719 6.363281 C 7.511719 6.570312 7.246094 7.253906 7.320312 7.671875 Z M 7.320312 7.671875"/><path style="stroke:none;fill-rule:nonzero;fill:url(#linear6)" d="M 3.722656 9.9375 C 4.265625 10.507812 3.691406 10.976562 3.039062 11.015625 C 2.523438 11.050781 2.257812 10.851562 2.277344 10.449219 C 2.296875 9.996094 2.289062 9.15625 2.792969 9.058594 C 3.296875 8.960938 3.445312 9.640625 3.722656 9.9375 Z M 3.722656 9.9375"/><path style="stroke:none;fill-rule:nonzero;fill:url(#radial5)" d="M 3.582031 9.953125 C 4.011719 10.410156 3.554688 10.78125 3.035156 10.816406 C 2.628906 10.84375 2.414062 10.683594 2.429688 10.359375 C 2.445312 10 2.4375 9.332031 2.839844 9.253906 C 3.242188 9.175781 3.359375 9.71875 3.582031 9.953125 Z M 3.582031 9.953125"/><path style="stroke:none;fill-rule:nonzero;fill:url(#linear7)" d="M 13.40625 7.101562 C 13.804688 7.523438 13.382812 7.871094 12.898438 7.902344 C 12.519531 7.925781 12.320312 7.777344 12.335938 7.480469 C 12.351562 7.144531 12.34375 6.523438 12.71875 6.453125 C 13.089844 6.378906 13.199219 6.882812 13.40625 7.101562 Z M 13.40625 7.101562"/><path style="stroke:none;fill-rule:nonzero;fill:url(#radial6)" d="M 13.300781 7.113281 C 13.617188 7.453125 13.28125 7.726562 12.894531 7.753906 C 12.59375 7.773438 12.4375 7.652344 12.449219 7.417969 C 12.460938 7.148438 12.453125 6.65625 12.753906 6.597656 C 13.046875 6.539062 13.136719 6.941406 13.300781 7.113281 Z M 13.300781 7.113281"/><use mask="url(#mask0)" xlink:href="#surface5"/></g></svg>