<svg xmlns="http://www.w3.org/2000/svg" xmlns:xlink="http://www.w3.org/1999/xlink" width="16pt" height="16pt" version="1.1" viewBox="0 0 16 16"><defs><linearGradient id="linear0" x1="64" x2="64" y1="19.717" y2="107.7" gradientTransform="matrix(0.125,0,0,0.125,0,0)" gradientUnits="userSpaceOnUse"><stop offset=".566" style="stop-color:#f6a323;stop-opacity:1"/><stop offset=".917" style="stop-color:#fee133;stop-opacity:1"/></linearGradient><clipPath id="clip1"><path d="M 4 8 L 12 8 L 12 13 L 4 13 Z M 4 8"/></clipPath><clipPath id="clip2"><path d="M 4.703125 12.136719 C 5.074219 12.679688 5.796875 12.855469 6.375 12.542969 C 6.863281 12.277344 7.414062 12.128906 8 12.128906 C 8.585938 12.128906 9.136719 12.277344 9.625 12.542969 C 10.203125 12.855469 10.925781 12.679688 11.296875 12.136719 C 11.5625 11.742188 11.585938 11.234375 11.363281 10.8125 C 10.679688 9.507812 9.429688 8.632812 8 8.632812 C 6.570312 8.632812 5.320312 9.507812 4.636719 10.8125 C 4.414062 11.234375 4.4375 11.742188 4.703125 12.136719 Z M 4.703125 12.136719"/></clipPath><filter id="alpha" width="100%" height="100%" x="0%" y="0%" filterUnits="objectBoundingBox"><feColorMatrix in="SourceGraphic" type="matrix" values="0 0 0 0 1 0 0 0 0 1 0 0 0 0 1 0 0 0 1 0"/></filter><mask id="mask0"><g filter="url(#alpha)"><rect width="16" height="16" x="0" y="0" style="fill:#000;fill-opacity:.6;stroke:none"/></g></mask><clipPath id="clip3"><rect width="16" height="16" x="0" y="0"/></clipPath><g id="surface5" clip-path="url(#clip3)"><path style="stroke:none;fill-rule:nonzero;fill:#000;fill-opacity:1" d="M 8.296875 9.269531 C 8.296875 9.820312 8.246094 9.984375 8.5 10.507812 C 8.542969 10.59375 8.566406 10.6875 8.566406 10.792969 C 8.566406 11.152344 8.277344 11.441406 7.917969 11.441406 C 7.554688 11.441406 7.265625 11.152344 7.265625 10.792969 C 7.265625 10.6875 7.292969 10.59375 7.332031 10.507812 C 7.582031 9.984375 7.535156 9.808594 7.535156 9.269531 C 6.511719 9.449219 5.734375 10.339844 5.734375 11.417969 C 5.734375 12.625 6.710938 13.605469 7.917969 13.605469 C 9.125 13.605469 10.101562 12.625 10.101562 11.417969 C 10.101562 10.339844 9.320312 9.449219 8.296875 9.269531 Z M 8.296875 9.269531"/></g></defs><g id="surface1"><path style="stroke:none;fill-rule:nonzero;fill:url(#linear0)" d="M 8 14.984375 C 4.507812 14.984375 0.75 12.800781 0.75 8 C 0.75 3.199219 4.507812 1.015625 8 1.015625 C 9.933594 1.015625 11.726562 1.652344 13.046875 2.816406 C 14.488281 4.089844 15.25 5.882812 15.25 8 C 15.25 10.109375 14.488281 11.894531 13.046875 13.171875 C 11.722656 14.34375 9.929688 14.984375 8 14.984375 Z M 8 14.984375"/><path style="stroke:none;fill-rule:nonzero;fill:#eb8f00;fill-opacity:1" d="M 8 1.265625 C 9.875 1.265625 11.609375 1.882812 12.878906 3.003906 C 14.265625 4.230469 15 5.957031 15 8 C 15 10.035156 14.265625 11.757812 12.878906 12.984375 C 11.601562 14.113281 9.871094 14.734375 8 14.734375 C 6.121094 14.734375 4.386719 14.121094 3.121094 13.007812 C 1.734375 11.789062 1 10.058594 1 8 C 1 5.933594 1.734375 4.199219 3.121094 2.980469 C 4.382812 1.875 6.117188 1.265625 8 1.265625 M 8 0.765625 C 4.105469 0.765625 0.5 3.265625 0.5 8 C 0.5 12.710938 4.105469 15.234375 8 15.234375 C 11.894531 15.234375 15.5 12.644531 15.5 8 C 15.5 3.328125 11.894531 0.765625 8 0.765625 Z M 8 0.765625"/><g clip-path="url(#clip1)" clip-rule="nonzero"><g clip-path="url(#clip2)" clip-rule="nonzero"><path style="stroke:none;fill-rule:nonzero;fill:#242424;fill-opacity:1" d="M 4.703125 12.136719 C 5.074219 12.679688 5.796875 12.855469 6.375 12.542969 C 6.863281 12.277344 7.414062 12.128906 8 12.128906 C 8.585938 12.128906 9.136719 12.277344 9.625 12.542969 C 10.203125 12.855469 10.925781 12.679688 11.296875 12.136719 C 11.5625 11.742188 11.585938 11.234375 11.363281 10.8125 C 10.679688 9.507812 9.429688 8.632812 8 8.632812 C 6.570312 8.632812 5.320312 9.507812 4.636719 10.8125 C 4.414062 11.234375 4.4375 11.742188 4.703125 12.136719 Z M 4.703125 12.136719"/><use mask="url(#mask0)" xlink:href="#surface5"/></g></g><path style="stroke:none;fill-rule:nonzero;fill:#6d4c41;fill-opacity:1" d="M 6.046875 2.84375 C 6.050781 2.839844 6.058594 2.839844 6.0625 2.839844 C 6.335938 2.800781 6.363281 2.402344 6.058594 2.382812 C 5.820312 2.371094 5.574219 2.398438 5.328125 2.460938 C 4.65625 2.636719 4.097656 3.070312 3.78125 3.589844 C 3.625 3.855469 3.976562 4.058594 4.15625 3.855469 C 4.625 3.335938 5.300781 2.957031 6.046875 2.84375 Z M 6.046875 2.84375"/><path style="stroke:none;fill-rule:nonzero;fill:#6d4c41;fill-opacity:1" d="M 9.953125 2.84375 C 9.949219 2.839844 9.941406 2.839844 9.9375 2.839844 C 9.664062 2.800781 9.636719 2.402344 9.941406 2.382812 C 10.179688 2.371094 10.425781 2.398438 10.671875 2.460938 C 11.34375 2.636719 11.902344 3.070312 12.21875 3.589844 C 12.375 3.855469 12.023438 4.058594 11.84375 3.855469 C 11.375 3.335938 10.699219 2.957031 9.953125 2.84375 Z M 9.953125 2.84375"/><path style="stroke:none;fill-rule:nonzero;fill:#5f7aff;fill-opacity:1" d="M 4.484375 15.292969 C 3.300781 15.292969 2.546875 14.878906 2.546875 14.59375 C 2.546875 14.578125 2.554688 14.554688 2.5625 14.527344 C 2.585938 14.464844 2.585938 14.394531 2.554688 14.332031 C 2.527344 14.269531 2.476562 14.226562 2.410156 14.203125 C 2.070312 14.085938 1.945312 13.941406 1.945312 13.871094 C 1.945312 13.722656 2.410156 13.421875 3.265625 13.402344 C 3.398438 13.398438 3.503906 13.28125 3.511719 13.148438 L 3.808594 5.375 L 5.140625 5.375 L 5.484375 13.8125 C 5.488281 13.917969 5.558594 14.015625 5.664062 14.046875 C 6.183594 14.203125 6.421875 14.4375 6.421875 14.589844 C 6.421875 14.875 5.667969 15.292969 4.484375 15.292969 Z M 4.484375 15.292969"/><path style="stroke:none;fill-rule:nonzero;fill:#4864ed;fill-opacity:1" d="M 4.902344 5.625 L 5.234375 13.820312 C 5.242188 14.035156 5.386719 14.222656 5.589844 14.285156 C 5.957031 14.394531 6.113281 14.53125 6.160156 14.589844 C 6.054688 14.734375 5.476562 15.042969 4.484375 15.042969 C 3.484375 15.042969 2.90625 14.734375 2.804688 14.589844 C 2.84375 14.46875 2.835938 14.339844 2.78125 14.226562 C 2.722656 14.101562 2.617188 14.007812 2.488281 13.964844 C 2.394531 13.933594 2.324219 13.898438 2.273438 13.871094 C 2.441406 13.773438 2.789062 13.660156 3.269531 13.652344 C 3.535156 13.644531 3.746094 13.421875 3.757812 13.160156 L 4.050781 5.625 L 4.875 5.625 M 5.382812 5.125 L 3.570312 5.125 L 3.261719 13.140625 C 2.386719 13.160156 1.695312 13.484375 1.695312 13.867188 C 1.695312 14.097656 1.945312 14.304688 2.328125 14.4375 C 2.3125 14.484375 2.296875 14.539062 2.296875 14.589844 C 2.296875 15.113281 3.277344 15.539062 4.484375 15.539062 C 5.691406 15.539062 6.671875 15.113281 6.671875 14.589844 C 6.671875 14.265625 6.300781 13.96875 5.734375 13.796875 Z M 5.382812 5.125"/><path style="stroke:none;fill-rule:nonzero;fill:#5f7aff;fill-opacity:1" d="M 11.550781 15.292969 C 10.371094 15.292969 9.617188 14.875 9.617188 14.589844 C 9.617188 14.441406 9.855469 14.207031 10.375 14.050781 C 10.476562 14.019531 10.546875 13.917969 10.550781 13.808594 L 10.894531 5.375 L 12.226562 5.375 L 12.527344 13.152344 C 12.53125 13.285156 12.640625 13.394531 12.769531 13.394531 C 13.625 13.417969 14.09375 13.722656 14.09375 13.871094 C 14.09375 13.941406 13.96875 14.085938 13.625 14.203125 C 13.5625 14.222656 13.511719 14.269531 13.480469 14.332031 C 13.453125 14.390625 13.449219 14.460938 13.472656 14.527344 C 13.484375 14.554688 13.488281 14.574219 13.488281 14.589844 C 13.488281 14.878906 12.734375 15.292969 11.550781 15.292969 Z M 11.550781 15.292969"/><path style="stroke:none;fill-rule:nonzero;fill:#4864ed;fill-opacity:1" d="M 11.984375 5.625 L 12.277344 13.160156 C 12.289062 13.425781 12.5 13.640625 12.765625 13.648438 C 13.25 13.660156 13.597656 13.777344 13.761719 13.871094 C 13.710938 13.898438 13.640625 13.933594 13.546875 13.96875 C 13.417969 14.011719 13.3125 14.105469 13.253906 14.226562 C 13.203125 14.339844 13.191406 14.472656 13.230469 14.589844 C 13.128906 14.734375 12.546875 15.042969 11.550781 15.042969 C 10.5625 15.042969 9.984375 14.738281 9.875 14.59375 C 9.921875 14.535156 10.078125 14.402344 10.445312 14.289062 C 10.648438 14.230469 10.792969 14.035156 10.800781 13.820312 L 11.136719 5.625 L 12 5.625 M 12.46875 5.125 L 10.65625 5.125 L 10.300781 13.800781 C 9.734375 13.972656 9.367188 14.265625 9.367188 14.585938 C 9.367188 15.109375 10.34375 15.539062 11.550781 15.539062 C 12.761719 15.539062 13.738281 15.113281 13.738281 14.589844 C 13.738281 14.539062 13.726562 14.488281 13.707031 14.4375 C 14.09375 14.308594 14.34375 14.105469 14.34375 13.875 C 14.34375 13.488281 13.648438 13.160156 12.777344 13.140625 Z M 12.46875 5.125"/><path style="stroke:none;fill-rule:nonzero;fill:#242424;fill-opacity:1" d="M 5.269531 6.140625 C 5.269531 6.140625 5.261719 6.128906 5.246094 6.109375 C 5.238281 6.101562 5.230469 6.089844 5.21875 6.078125 C 5.207031 6.0625 5.199219 6.046875 5.1875 6.042969 L 5.109375 5.964844 C 5.078125 5.933594 5.042969 5.898438 5.003906 5.863281 C 4.921875 5.796875 4.828125 5.734375 4.726562 5.691406 C 4.625 5.648438 4.523438 5.625 4.421875 5.625 C 4.464844 5.625 4.433594 5.625 4.441406 5.625 L 4.40625 5.625 L 4.371094 5.628906 C 4.335938 5.628906 4.34375 5.628906 4.332031 5.632812 C 4.324219 5.628906 4.289062 5.640625 4.265625 5.640625 C 4.214844 5.65625 4.164062 5.671875 4.113281 5.691406 C 4.015625 5.734375 3.917969 5.796875 3.839844 5.863281 C 3.761719 5.933594 3.695312 6 3.648438 6.046875 C 3.605469 6.101562 3.578125 6.128906 3.578125 6.128906 L 3.542969 6.171875 C 3.390625 6.34375 3.125 6.359375 2.953125 6.207031 C 2.824219 6.089844 2.785156 5.910156 2.839844 5.757812 C 2.839844 5.757812 2.84375 5.742188 2.851562 5.714844 C 2.863281 5.691406 2.875 5.648438 2.894531 5.601562 C 2.9375 5.503906 3.007812 5.367188 3.125 5.21875 C 3.238281 5.066406 3.40625 4.902344 3.628906 4.773438 C 3.738281 4.714844 3.863281 4.65625 4 4.617188 C 4.070312 4.601562 4.128906 4.585938 4.214844 4.578125 C 4.253906 4.570312 4.308594 4.566406 4.324219 4.566406 L 4.421875 4.558594 C 4.5625 4.5625 4.703125 4.582031 4.839844 4.617188 C 4.976562 4.652344 5.101562 4.710938 5.210938 4.773438 C 5.433594 4.902344 5.601562 5.066406 5.714844 5.21875 C 5.773438 5.292969 5.820312 5.363281 5.859375 5.429688 C 5.894531 5.492188 5.921875 5.554688 5.949219 5.609375 C 5.960938 5.636719 5.96875 5.65625 5.972656 5.671875 C 5.976562 5.6875 5.984375 5.703125 5.984375 5.714844 L 5.996094 5.746094 C 6.070312 5.96875 5.949219 6.207031 5.726562 6.277344 C 5.554688 6.332031 5.375 6.269531 5.269531 6.140625 Z M 5.269531 6.140625"/><path style="stroke:none;fill-rule:nonzero;fill:#242424;fill-opacity:1" d="M 12.433594 6.140625 C 12.433594 6.140625 12.425781 6.128906 12.414062 6.109375 C 12.40625 6.101562 12.394531 6.089844 12.386719 6.078125 C 12.375 6.0625 12.363281 6.046875 12.355469 6.042969 L 12.277344 5.964844 C 12.246094 5.933594 12.207031 5.898438 12.167969 5.863281 C 12.089844 5.796875 11.992188 5.734375 11.894531 5.691406 C 11.792969 5.648438 11.691406 5.625 11.585938 5.625 C 11.632812 5.625 11.597656 5.625 11.609375 5.625 L 11.574219 5.625 L 11.535156 5.628906 C 11.503906 5.628906 11.511719 5.628906 11.5 5.632812 C 11.492188 5.628906 11.457031 5.640625 11.433594 5.640625 C 11.382812 5.65625 11.328125 5.671875 11.28125 5.691406 C 11.179688 5.734375 11.085938 5.796875 11.003906 5.863281 C 10.925781 5.933594 10.859375 6 10.816406 6.046875 C 10.769531 6.101562 10.742188 6.128906 10.742188 6.128906 L 10.707031 6.171875 C 10.554688 6.34375 10.292969 6.359375 10.121094 6.207031 C 9.988281 6.089844 9.949219 5.910156 10.003906 5.757812 C 10.003906 5.757812 10.007812 5.742188 10.015625 5.714844 C 10.027344 5.691406 10.039062 5.648438 10.0625 5.601562 C 10.101562 5.503906 10.171875 5.367188 10.289062 5.21875 C 10.402344 5.066406 10.570312 4.902344 10.792969 4.773438 C 10.90625 4.714844 11.027344 4.65625 11.164062 4.617188 C 11.234375 4.601562 11.292969 4.585938 11.382812 4.578125 C 11.417969 4.570312 11.472656 4.566406 11.488281 4.566406 L 11.585938 4.558594 C 11.726562 4.5625 11.871094 4.582031 12.007812 4.617188 C 12.140625 4.652344 12.265625 4.710938 12.378906 4.773438 C 12.601562 4.902344 12.765625 5.066406 12.882812 5.21875 C 12.941406 5.292969 12.984375 5.363281 13.023438 5.429688 C 13.058594 5.492188 13.089844 5.554688 13.113281 5.609375 C 13.125 5.636719 13.132812 5.65625 13.136719 5.671875 C 13.140625 5.6875 13.148438 5.703125 13.152344 5.714844 L 13.164062 5.746094 C 13.234375 5.96875 13.113281 6.207031 12.890625 6.277344 C 12.722656 6.332031 12.542969 6.269531 12.433594 6.140625 Z M 12.433594 6.140625"/></g></svg>