<svg xmlns="http://www.w3.org/2000/svg" xmlns:xlink="http://www.w3.org/1999/xlink" width="16pt" height="16pt" version="1.1" viewBox="0 0 16 16"><defs><radialGradient id="radial0" cx="63.667" cy="67.667" r="26.685" fx="63.667" fy="67.667" gradientTransform="matrix(0,0.125,-0.195725,0,21.2025,0.5)" gradientUnits="userSpaceOnUse"><stop offset="0" style="stop-color:#be5d23;stop-opacity:1"/><stop offset=".158" style="stop-color:#b65b25;stop-opacity:1"/><stop offset=".407" style="stop-color:#9f552a;stop-opacity:1"/><stop offset=".715" style="stop-color:#7a4c33;stop-opacity:1"/><stop offset=".999" style="stop-color:#52423c;stop-opacity:1"/></radialGradient><linearGradient id="linear0" x1="22.114" x2="102.08" y1="61.979" y2="61.979" gradientTransform="matrix(0.125,0,0,0.125,0,0)" gradientUnits="userSpaceOnUse"><stop offset="0" style="stop-color:#ff85ae;stop-opacity:1"/><stop offset=".317" style="stop-color:#ff7da9;stop-opacity:1"/><stop offset=".816" style="stop-color:#ff669a;stop-opacity:1"/><stop offset="1" style="stop-color:#ff5c93;stop-opacity:1"/></linearGradient><linearGradient id="linear1" x1="21.117" x2="99.384" y1="47.691" y2="47.691" gradientTransform="matrix(0.125,0,0,0.125,0,0)" gradientUnits="userSpaceOnUse"><stop offset=".003" style="stop-color:#ffb0cb;stop-opacity:1"/><stop offset=".792" style="stop-color:#f383a9;stop-opacity:1"/><stop offset="1" style="stop-color:#f0769f;stop-opacity:1"/></linearGradient><linearGradient id="linear2" x1="55.086" x2="87.012" y1="24.14" y2="24.14" gradientTransform="matrix(0.125,0,0,0.125,0,0)" gradientUnits="userSpaceOnUse"><stop offset="0" style="stop-color:#f697b7;stop-opacity:1"/><stop offset=".335" style="stop-color:#f78fb2;stop-opacity:1"/><stop offset=".862" style="stop-color:#f878a3;stop-opacity:1"/><stop offset="1" style="stop-color:#f9719f;stop-opacity:1"/></linearGradient><linearGradient id="linear3" x1="23.961" x2="95.222" y1="40.522" y2="40.522" gradientTransform="matrix(0.125,0,0,0.125,0,0)" gradientUnits="userSpaceOnUse"><stop offset="0" style="stop-color:#f78fb2;stop-opacity:1"/><stop offset=".272" style="stop-color:#f887ad;stop-opacity:1"/><stop offset=".703" style="stop-color:#fc709f;stop-opacity:1"/><stop offset="1" style="stop-color:#ff5c93;stop-opacity:1"/></linearGradient><linearGradient id="linear4" x1="64" x2="64" y1="83" y2="119.62" gradientTransform="matrix(0.125,0,0,0.125,0,0)" gradientUnits="userSpaceOnUse"><stop offset="0" style="stop-color:#4fe8ff;stop-opacity:1"/><stop offset=".497" style="stop-color:#4bddf3;stop-opacity:1"/><stop offset="1" style="stop-color:#45cee3;stop-opacity:1"/></linearGradient><filter id="alpha" width="100%" height="100%" x="0%" y="0%" filterUnits="objectBoundingBox"><feColorMatrix in="SourceGraphic" type="matrix" values="0 0 0 0 1 0 0 0 0 1 0 0 0 0 1 0 0 0 1 0"/></filter><mask id="mask0"><g filter="url(#alpha)"><rect width="16" height="16" x="0" y="0" style="fill:#000;fill-opacity:.560784;stroke:none"/></g></mask><clipPath id="clip1"><rect width="16" height="16" x="0" y="0"/></clipPath><g id="surface5" clip-path="url(#clip1)"><path style="fill:none;stroke-width:3;stroke-linecap:round;stroke-linejoin:round;stroke:#49a5b0;stroke-opacity:1;stroke-miterlimit:10" d="M 28.5 85.5 L 34.5 111.25" transform="matrix(0.125,0,0,0.125,0,0)"/></g><mask id="mask1"><g filter="url(#alpha)"><rect width="16" height="16" x="0" y="0" style="fill:#000;fill-opacity:.560784;stroke:none"/></g></mask><clipPath id="clip2"><rect width="16" height="16" x="0" y="0"/></clipPath><g id="surface8" clip-path="url(#clip2)"><path style="fill:none;stroke-width:3;stroke-linecap:round;stroke-linejoin:round;stroke:#49a5b0;stroke-opacity:1;stroke-miterlimit:10" d="M 99.5 85.59375 L 93.5 111.5" transform="matrix(0.125,0,0,0.125,0,0)"/></g><mask id="mask2"><g filter="url(#alpha)"><rect width="16" height="16" x="0" y="0" style="fill:#000;fill-opacity:.560784;stroke:none"/></g></mask><clipPath id="clip3"><rect width="16" height="16" x="0" y="0"/></clipPath><g id="surface11" clip-path="url(#clip3)"><path style="fill:none;stroke-width:3;stroke-linecap:round;stroke-linejoin:round;stroke:#49a5b0;stroke-opacity:1;stroke-miterlimit:10" d="M 40.96875 89.59375 L 44.46875 115.09375" transform="matrix(0.125,0,0,0.125,0,0)"/></g><mask id="mask3"><g filter="url(#alpha)"><rect width="16" height="16" x="0" y="0" style="fill:#000;fill-opacity:.560784;stroke:none"/></g></mask><clipPath id="clip4"><rect width="16" height="16" x="0" y="0"/></clipPath><g id="surface14" clip-path="url(#clip4)"><path style="fill:none;stroke-width:3;stroke-linecap:round;stroke-linejoin:round;stroke:#49a5b0;stroke-opacity:1;stroke-miterlimit:10" d="M 87.03125 88.65625 L 83.53125 114.15625" transform="matrix(0.125,0,0,0.125,0,0)"/></g><mask id="mask4"><g filter="url(#alpha)"><rect width="16" height="16" x="0" y="0" style="fill:#000;fill-opacity:.560784;stroke:none"/></g></mask><clipPath id="clip5"><rect width="16" height="16" x="0" y="0"/></clipPath><g id="surface17" clip-path="url(#clip5)"><path style="fill:none;stroke-width:3;stroke-linecap:round;stroke-linejoin:round;stroke:#49a5b0;stroke-opacity:1;stroke-miterlimit:10" d="M 51.84375 91 L 54.15625 117.15625" transform="matrix(0.125,0,0,0.125,0,0)"/></g><mask id="mask5"><g filter="url(#alpha)"><rect width="16" height="16" x="0" y="0" style="fill:#000;fill-opacity:.560784;stroke:none"/></g></mask><clipPath id="clip6"><rect width="16" height="16" x="0" y="0"/></clipPath><g id="surface20" clip-path="url(#clip6)"><path style="fill:none;stroke-width:3;stroke-linecap:round;stroke-linejoin:round;stroke:#49a5b0;stroke-opacity:1;stroke-miterlimit:10" d="M 76.15625 90.09375 L 73.84375 116.25" transform="matrix(0.125,0,0,0.125,0,0)"/></g><mask id="mask6"><g filter="url(#alpha)"><rect width="16" height="16" x="0" y="0" style="fill:#000;fill-opacity:.560784;stroke:none"/></g></mask><clipPath id="clip7"><rect width="16" height="16" x="0" y="0"/></clipPath><g id="surface23" clip-path="url(#clip7)"><path style="fill:none;stroke-width:3;stroke-linecap:round;stroke-linejoin:round;stroke:#49a5b0;stroke-opacity:1;stroke-miterlimit:10" d="M 64.15625 92.65625 L 64.5 117.84375" transform="matrix(0.125,0,0,0.125,0,0)"/></g><mask id="mask7"><g filter="url(#alpha)"><rect width="16" height="16" x="0" y="0" style="fill:#000;fill-opacity:.2;stroke:none"/></g></mask><clipPath id="clip8"><rect width="16" height="16" x="0" y="0"/></clipPath><g id="surface26" clip-path="url(#clip8)"><path style="stroke:none;fill-rule:nonzero;fill:#424242;fill-opacity:1" d="M 8.292969 1.261719 C 8.777344 1.535156 9.21875 1.886719 9.609375 2.3125 C 9.785156 2.5 9.941406 2.78125 10.054688 3.105469 C 10.097656 3.226562 10.195312 3.316406 10.320312 3.34375 C 10.449219 3.378906 11.113281 3.558594 11.390625 3.984375 C 11.4375 4.054688 11.46875 4.128906 11.488281 4.207031 C 11.5 4.257812 11.507812 4.308594 11.515625 4.363281 C 11.527344 4.453125 11.570312 4.535156 11.636719 4.59375 C 11.789062 4.734375 12.046875 5.058594 12.046875 5.648438 C 12.046875 5.785156 12.03125 5.917969 11.992188 6.042969 C 11.953125 6.175781 11.988281 6.320312 12.089844 6.417969 C 12.140625 6.464844 12.199219 6.496094 12.261719 6.511719 C 12.347656 6.570312 12.425781 6.632812 12.492188 6.699219 C 12.886719 7.097656 12.757812 7.554688 12.582031 7.867188 C 12.515625 7.992188 12.519531 8.140625 12.601562 8.257812 C 12.671875 8.363281 12.789062 8.425781 12.910156 8.425781 C 12.925781 8.425781 12.941406 8.421875 12.953125 8.421875 C 12.964844 8.421875 12.976562 8.421875 12.984375 8.421875 C 13.066406 8.421875 13.132812 8.457031 13.183594 8.535156 C 13.199219 8.554688 13.214844 8.578125 13.230469 8.597656 C 13.28125 8.664062 13.28125 8.671875 13.285156 8.691406 C 13.285156 8.828125 13.359375 8.953125 13.480469 9.015625 C 13.515625 9.039062 13.558594 9.050781 13.601562 9.058594 C 13.570312 9.148438 13.535156 9.246094 13.5 9.347656 C 13.457031 9.480469 13.488281 9.625 13.585938 9.722656 C 13.609375 9.75 13.636719 9.769531 13.664062 9.789062 L 13.578125 10.035156 C 13.246094 11.011719 12.902344 12.019531 12.609375 13.03125 C 12.59375 13.078125 12.582031 13.125 12.570312 13.171875 C 12.453125 13.585938 12.320312 14.054688 12.042969 14.277344 C 11.785156 14.484375 11.445312 14.609375 11.148438 14.710938 C 10.308594 14.988281 9.324219 15.125 8.144531 15.125 C 8.089844 15.125 8.035156 15.125 7.984375 15.125 C 6.492188 15.109375 5.378906 14.914062 4.480469 14.507812 C 4.117188 14.34375 3.851562 14.179688 3.734375 13.910156 C 3.503906 13.375 3.324219 12.792969 3.144531 12.230469 C 3.109375 12.109375 3.070312 11.988281 3.03125 11.871094 C 2.953125 11.613281 2.875 11.34375 2.800781 11.085938 C 2.65625 10.585938 2.511719 10.070312 2.316406 9.582031 C 2.328125 9.570312 2.335938 9.558594 2.34375 9.542969 C 2.414062 9.445312 2.433594 9.320312 2.394531 9.207031 L 2.34375 9.0625 C 2.339844 9.054688 2.339844 9.042969 2.335938 9.035156 C 2.359375 9.019531 2.378906 9.003906 2.398438 8.984375 C 2.492188 8.894531 2.535156 8.765625 2.507812 8.636719 C 2.476562 8.492188 2.496094 8.398438 2.53125 8.367188 C 2.570312 8.332031 2.597656 8.320312 2.613281 8.320312 C 2.613281 8.320312 2.617188 8.320312 2.625 8.324219 C 2.671875 8.34375 2.71875 8.351562 2.765625 8.351562 C 2.835938 8.351562 2.910156 8.332031 2.96875 8.292969 C 3.074219 8.226562 3.136719 8.113281 3.140625 7.992188 C 3.144531 7.933594 3.171875 7.871094 3.191406 7.832031 C 3.234375 7.785156 3.265625 7.722656 3.28125 7.65625 C 3.300781 7.554688 3.277344 7.449219 3.21875 7.367188 C 3.117188 7.222656 2.980469 6.941406 3.023438 6.753906 C 3.035156 6.703125 3.0625 6.632812 3.183594 6.5625 C 3.292969 6.5 3.363281 6.390625 3.371094 6.265625 C 3.382812 6.15625 3.421875 5.871094 3.59375 5.613281 C 3.777344 5.347656 4.066406 5.191406 4.453125 5.152344 C 4.628906 5.132812 4.769531 4.988281 4.785156 4.8125 L 4.785156 4.804688 C 4.832031 4.398438 5.015625 3.945312 6.015625 3.386719 C 6.363281 3.191406 6.664062 3.050781 6.929688 2.929688 C 7.449219 2.6875 7.855469 2.496094 8.132812 2.105469 C 8.292969 1.882812 8.347656 1.59375 8.292969 1.261719 M 7.941406 0.679688 C 7.914062 0.679688 7.886719 0.691406 7.859375 0.703125 C 7.796875 0.738281 7.761719 0.8125 7.792969 0.890625 C 7.917969 1.1875 8.027344 1.605469 7.828125 1.890625 C 7.488281 2.367188 6.859375 2.488281 5.835938 3.058594 C 4.859375 3.605469 4.480469 4.125 4.414062 4.777344 L 4.414062 4.78125 C 3.832031 4.839844 3.488281 5.109375 3.285156 5.40625 C 3.0625 5.734375 3.011719 6.09375 3 6.238281 C 2.285156 6.648438 2.84375 7.488281 2.910156 7.582031 C 2.90625 7.585938 2.902344 7.589844 2.898438 7.589844 C 2.898438 7.589844 2.773438 7.769531 2.765625 7.976562 C 2.714844 7.957031 2.664062 7.945312 2.609375 7.945312 C 2.5 7.945312 2.386719 7.992188 2.277344 8.089844 C 2.152344 8.203125 2.078125 8.410156 2.140625 8.714844 C 2.101562 8.703125 2.070312 8.699219 2.039062 8.699219 C 1.910156 8.699219 1.855469 8.796875 1.914062 8.96875 C 1.957031 9.085938 1.996094 9.207031 2.039062 9.328125 C 1.914062 9.328125 1.859375 9.421875 1.914062 9.59375 C 2.234375 10.351562 2.421875 11.199219 2.671875 11.984375 C 2.890625 12.675781 3.101562 13.390625 3.386719 14.058594 C 3.5625 14.460938 3.929688 14.671875 4.320312 14.851562 C 5.445312 15.359375 6.757812 15.488281 7.976562 15.5 C 8.03125 15.5 8.085938 15.5 8.140625 15.5 C 9.1875 15.5 10.265625 15.398438 11.265625 15.066406 C 11.617188 14.949219 11.980469 14.804688 12.273438 14.570312 C 12.683594 14.242188 12.828125 13.621094 12.964844 13.136719 C 13.300781 11.984375 13.695312 10.855469 14.082031 9.71875 C 14.140625 9.546875 14.085938 9.449219 13.953125 9.449219 C 13.925781 9.449219 13.890625 9.453125 13.855469 9.464844 C 13.921875 9.253906 14 9.046875 14.082031 8.84375 C 14.140625 8.671875 14.085938 8.578125 13.957031 8.578125 C 13.898438 8.578125 13.828125 8.597656 13.742188 8.640625 C 13.710938 8.652344 13.683594 8.671875 13.65625 8.6875 C 13.652344 8.503906 13.558594 8.417969 13.488281 8.320312 C 13.355469 8.128906 13.167969 8.046875 12.984375 8.046875 C 12.957031 8.046875 12.933594 8.046875 12.910156 8.050781 C 13.226562 7.480469 13.203125 6.886719 12.757812 6.4375 C 12.652344 6.328125 12.523438 6.230469 12.371094 6.140625 C 12.371094 6.140625 12.363281 6.144531 12.351562 6.148438 C 12.398438 5.980469 12.421875 5.808594 12.421875 5.648438 C 12.421875 4.914062 12.085938 4.5 11.886719 4.316406 C 11.878906 4.25 11.867188 4.183594 11.851562 4.121094 C 11.820312 3.992188 11.765625 3.878906 11.699219 3.777344 C 11.355469 3.25 10.617188 3.035156 10.40625 2.980469 C 10.285156 2.628906 10.105469 2.296875 9.886719 2.058594 C 9.355469 1.488281 8.730469 1.023438 8.007812 0.699219 C 7.988281 0.6875 7.964844 0.679688 7.941406 0.679688 Z M 7.941406 0.679688"/></g></defs><g id="surface1"><path style="stroke:none;fill-rule:nonzero;fill:#48a2ad;fill-opacity:1" d="M 13.742188 8.640625 C 13.714844 8.652344 13.683594 8.671875 13.65625 8.6875 C 13.65625 8.503906 13.558594 8.417969 13.492188 8.320312 C 13.167969 7.855469 12.539062 8.03125 12.355469 8.457031 C 12.328125 8.515625 12.734375 9.046875 12.71875 9.105469 C 12.449219 9.226562 12.1875 9.507812 12.136719 9.75 C 12.191406 9.5 12.003906 9.382812 11.71875 9.476562 C 11.433594 9.570312 11.167969 9.839844 11.128906 10.089844 C 11.167969 9.839844 10.964844 9.703125 10.675781 9.773438 C 10.386719 9.84375 10.125 10.089844 10.101562 10.339844 C 10.125 10.089844 9.910156 9.933594 9.617188 9.980469 C 9.324219 10.023438 9.074219 10.25 9.0625 10.496094 C 9.074219 10.25 8.84375 10.074219 8.546875 10.089844 C 8.253906 10.105469 8.015625 10.308594 8.015625 10.558594 C 8.015625 10.3125 7.769531 10.109375 7.476562 10.101562 C 7.179688 10.089844 6.953125 10.273438 6.96875 10.519531 C 6.953125 10.273438 6.699219 10.050781 6.40625 10.015625 C 6.113281 9.976562 5.898438 10.136719 5.929688 10.386719 C 5.898438 10.136719 5.632812 9.890625 5.34375 9.828125 C 5.054688 9.765625 4.855469 9.90625 4.898438 10.15625 C 4.855469 9.90625 4.578125 9.640625 4.292969 9.550781 C 4.007812 9.464844 3.824219 9.585938 3.882812 9.835938 C 3.824219 9.585938 3.191406 8.53125 3.125 8.375 C 2.9375 7.945312 2.582031 7.8125 2.277344 8.089844 C 2.152344 8.203125 2.074219 8.410156 2.140625 8.710938 C 1.941406 8.65625 1.839844 8.753906 1.914062 8.964844 C 2.308594 10.121094 2.703125 11.300781 3.027344 12.484375 C 3.164062 12.988281 3.308594 13.644531 3.714844 14.023438 C 4.007812 14.292969 4.375 14.480469 4.726562 14.632812 C 5.773438 15.082031 6.9375 15.21875 8.019531 15.226562 C 9.179688 15.234375 10.65625 14.953125 11.683594 14.371094 C 12.070312 14.152344 12.441406 13.894531 12.613281 13.464844 C 12.902344 12.75 13.109375 12 13.328125 11.28125 C 13.578125 10.464844 13.765625 9.601562 14.085938 8.839844 C 14.167969 8.589844 14.015625 8.503906 13.742188 8.640625 Z M 13.742188 8.640625"/><path style="stroke:none;fill-rule:nonzero;fill:url(#radial0)" d="M 13.609375 9.664062 C 13.609375 8.414062 11.089844 7.402344 7.984375 7.402344 C 4.875 7.402344 2.355469 8.414062 2.355469 9.664062 C 2.355469 10.914062 4.875 11.925781 7.984375 11.925781 C 11.089844 11.925781 13.609375 10.914062 13.609375 9.664062 Z M 13.609375 9.664062"/><path style="stroke:none;fill-rule:nonzero;fill:url(#linear0)" d="M 12.761719 6.433594 C 12.65625 6.328125 12.527344 6.230469 12.371094 6.140625 C 12.371094 6.140625 8.789062 7.308594 6.292969 7.179688 C 3.796875 7.054688 4.164062 6.78125 2.898438 7.589844 C 2.898438 7.589844 2.550781 8.085938 2.972656 8.386719 C 3.527344 8.78125 4.222656 9.105469 4.988281 9.351562 C 5.082031 9.285156 5.171875 9.242188 5.253906 9.242188 C 7.632812 8.417969 12.257812 9.464844 12.761719 6.433594 Z M 12.761719 6.433594"/><path style="stroke:none;fill-rule:nonzero;fill:#eb5e8e;fill-opacity:1" d="M 12.761719 6.433594 C 12.257812 9.464844 7.632812 8.417969 5.253906 9.242188 C 5.175781 9.242188 5.082031 9.285156 4.988281 9.351562 C 6.910156 9.972656 9.257812 10.097656 10.824219 9.578125 C 12.792969 8.925781 13.679688 7.367188 12.761719 6.433594 Z M 12.761719 6.433594"/><path style="stroke:none;fill-rule:nonzero;fill:url(#linear1)" d="M 11.742188 4.203125 C 11.742188 4.203125 12.421875 4.605469 12.421875 5.648438 C 12.421875 6.6875 11.554688 8.039062 7.710938 7.652344 C 3.902344 7.269531 2.917969 7.59375 2.917969 7.59375 C 2.917969 7.59375 1.75 6.007812 4.191406 6.015625 C 6.375 6.023438 9.621094 6.28125 10.386719 5.796875 C 11.527344 5.074219 11.570312 5.050781 11.742188 4.203125 Z M 11.742188 4.203125"/><path style="stroke:none;fill-rule:nonzero;fill:#f77ca5;fill-opacity:1" d="M 7.304688 3.429688 C 8.488281 2.691406 8.425781 1.617188 7.859375 0.703125 C 7.800781 0.738281 7.765625 0.8125 7.796875 0.890625 C 7.917969 1.1875 8.027344 1.605469 7.828125 1.890625 C 7.488281 2.367188 6.863281 2.488281 5.835938 3.058594 C 4.859375 3.605469 4.480469 4.125 4.414062 4.777344 C 4.40625 4.839844 4.441406 4.898438 4.5 4.925781 C 4.609375 4.980469 4.820312 5.070312 5.136719 5.152344 C 5.480469 4.300781 6.519531 3.824219 7.304688 3.429688 Z M 7.304688 3.429688"/><path style="stroke:none;fill-rule:nonzero;fill:url(#linear2)" d="M 9.886719 2.054688 C 9.359375 1.484375 8.734375 1.019531 8.007812 0.695312 C 7.957031 0.671875 7.902344 0.679688 7.859375 0.703125 C 8.421875 1.617188 8.488281 2.691406 7.304688 3.429688 C 6.519531 3.824219 5.480469 4.300781 5.136719 5.152344 C 5.480469 5.242188 5.953125 5.324219 6.566406 5.34375 C 8.074219 5.390625 10.105469 5.304688 10.453125 4.714844 C 10.796875 4.125 10.507812 2.726562 9.886719 2.054688 Z M 9.886719 2.054688"/><path style="stroke:none;fill-rule:nonzero;fill:#f79ebc;fill-opacity:1" d="M 11.636719 4 C 11.667969 3.925781 11.6875 3.851562 11.703125 3.777344 C 11.296875 3.15625 10.351562 2.96875 10.351562 2.96875 C 11.378906 5.15625 6.03125 4.679688 4.515625 4.769531 C 3.871094 4.808594 3.5 5.089844 3.285156 5.40625 C 3.601562 5.242188 3.972656 5.148438 4.34375 5.027344 C 6.734375 4.457031 10.609375 6.851562 11.636719 4 Z M 11.636719 4"/><path style="stroke:none;fill-rule:nonzero;fill:url(#linear3)" d="M 11.851562 4.121094 C 11.824219 3.992188 11.769531 3.878906 11.703125 3.777344 C 11.6875 3.855469 11.667969 3.925781 11.636719 4 C 10.609375 6.851562 6.734375 4.457031 4.34375 5.027344 C 3.972656 5.148438 3.601562 5.238281 3.285156 5.40625 C 2.996094 5.828125 2.996094 6.308594 2.996094 6.308594 C 4.554688 5.835938 5.703125 6.308594 8.699219 6.355469 C 11.695312 6.394531 12.066406 5.015625 11.851562 4.121094 Z M 11.851562 4.121094"/><path style="stroke:none;fill-rule:nonzero;fill:url(#linear4)" d="M 13.746094 9.503906 C 13.472656 9.632812 13.183594 9.925781 13.113281 10.167969 C 13.1875 9.925781 13.015625 9.820312 12.738281 9.925781 C 12.457031 10.027344 12.175781 10.296875 12.117188 10.535156 C 12.175781 10.296875 11.992188 10.179688 11.703125 10.257812 C 11.417969 10.339844 11.144531 10.585938 11.101562 10.820312 C 11.144531 10.585938 10.945312 10.449219 10.65625 10.507812 C 10.367188 10.5625 10.101562 10.789062 10.070312 11.019531 C 10.101562 10.789062 9.886719 10.636719 9.59375 10.667969 C 9.300781 10.699219 9.046875 10.90625 9.03125 11.136719 C 9.046875 10.90625 8.820312 10.734375 8.527344 10.742188 C 8.230469 10.75 7.988281 10.9375 7.984375 11.167969 C 7.988281 10.9375 7.75 10.746094 7.453125 10.730469 C 7.160156 10.714844 6.929688 10.882812 6.941406 11.113281 C 6.929688 10.882812 6.679688 10.671875 6.386719 10.636719 C 6.09375 10.597656 5.878906 10.746094 5.902344 10.976562 C 5.878906 10.746094 5.617188 10.515625 5.328125 10.453125 C 5.039062 10.390625 4.835938 10.519531 4.875 10.757812 C 4.835938 10.519531 4.570312 10.269531 4.285156 10.183594 C 4 10.097656 3.8125 10.214844 3.867188 10.453125 C 3.8125 10.214844 3.539062 9.9375 3.257812 9.828125 C 2.980469 9.722656 2.808594 9.820312 2.878906 10.066406 C 2.808594 9.820312 2.53125 9.523438 2.257812 9.390625 C 1.988281 9.257812 1.835938 9.34375 1.914062 9.59375 C 2.238281 10.351562 2.425781 11.203125 2.675781 11.984375 C 2.894531 12.675781 3.101562 13.394531 3.390625 14.058594 C 3.5625 14.460938 3.929688 14.675781 4.324219 14.851562 C 5.449219 15.359375 6.761719 15.488281 7.976562 15.5 C 9.078125 15.511719 10.21875 15.417969 11.265625 15.066406 C 11.617188 14.949219 11.984375 14.804688 12.277344 14.570312 C 12.683594 14.242188 12.828125 13.621094 12.96875 13.136719 C 13.300781 11.984375 13.695312 10.855469 14.082031 9.71875 C 14.167969 9.464844 14.019531 9.378906 13.746094 9.503906 Z M 13.746094 9.503906"/><path style="stroke:none;fill-rule:nonzero;fill:#b8eb96;fill-opacity:1" d="M 4.84375 6.15625 C 4.84375 6.292969 4.730469 6.40625 4.59375 6.40625 C 4.457031 6.40625 4.34375 6.292969 4.34375 6.15625 C 4.34375 6.019531 4.457031 5.90625 4.59375 5.90625 C 4.730469 5.90625 4.84375 6.019531 4.84375 6.15625 Z M 4.84375 6.15625"/><path style="stroke:none;fill-rule:nonzero;fill:#ebd3db;fill-opacity:1" d="M 6.46875 7.0625 C 6.46875 7.199219 6.355469 7.3125 6.21875 7.3125 C 6.082031 7.3125 5.96875 7.199219 5.96875 7.0625 C 5.96875 6.925781 6.082031 6.8125 6.21875 6.8125 C 6.355469 6.8125 6.46875 6.925781 6.46875 7.0625 Z M 6.46875 7.0625"/><path style="stroke:none;fill-rule:nonzero;fill:#eb5e8e;fill-opacity:1" d="M 4.90625 8 C 4.90625 8.136719 4.792969 8.25 4.65625 8.25 C 4.519531 8.25 4.40625 8.136719 4.40625 8 C 4.40625 7.863281 4.519531 7.75 4.65625 7.75 C 4.792969 7.75 4.90625 7.863281 4.90625 8 Z M 4.90625 8"/><path style="stroke:none;fill-rule:nonzero;fill:#3dc2eb;fill-opacity:1" d="M 6.75 4.3125 C 6.75 4.449219 6.636719 4.5625 6.5 4.5625 C 6.363281 4.5625 6.25 4.449219 6.25 4.3125 C 6.25 4.175781 6.363281 4.0625 6.5 4.0625 C 6.636719 4.0625 6.75 4.175781 6.75 4.3125 Z M 6.75 4.3125"/><path style="stroke:none;fill-rule:nonzero;fill:#ffa600;fill-opacity:1" d="M 8.09375 6.03125 C 8.09375 6.167969 7.980469 6.28125 7.84375 6.28125 C 7.707031 6.28125 7.59375 6.167969 7.59375 6.03125 C 7.59375 5.894531 7.707031 5.78125 7.84375 5.78125 C 7.980469 5.78125 8.09375 5.894531 8.09375 6.03125 Z M 8.09375 6.03125"/><path style="stroke:none;fill-rule:nonzero;fill:#79eb2d;fill-opacity:1" d="M 12.1875 7.90625 C 12.1875 8.042969 12.074219 8.15625 11.9375 8.15625 C 11.800781 8.15625 11.6875 8.042969 11.6875 7.90625 C 11.6875 7.769531 11.800781 7.65625 11.9375 7.65625 C 12.074219 7.65625 12.1875 7.769531 12.1875 7.90625 Z M 12.1875 7.90625"/><path style="stroke:none;fill-rule:nonzero;fill:#fff000;fill-opacity:1" d="M 9.125 3.40625 C 9.125 3.542969 9.011719 3.65625 8.875 3.65625 C 8.738281 3.65625 8.625 3.542969 8.625 3.40625 C 8.625 3.269531 8.738281 3.15625 8.875 3.15625 C 9.011719 3.15625 9.125 3.269531 9.125 3.40625 Z M 9.125 3.40625"/><path style="stroke:none;fill-rule:nonzero;fill:#8052ff;fill-opacity:1" d="M 10.4375 6.3125 C 10.4375 6.449219 10.324219 6.5625 10.1875 6.5625 C 10.050781 6.5625 9.9375 6.449219 9.9375 6.3125 C 9.9375 6.175781 10.050781 6.0625 10.1875 6.0625 C 10.324219 6.0625 10.4375 6.175781 10.4375 6.3125 Z M 10.4375 6.3125"/><path style="stroke:none;fill-rule:nonzero;fill:#5eebb3;fill-opacity:1" d="M 11.0625 4.4375 C 11.0625 4.574219 10.949219 4.6875 10.8125 4.6875 C 10.675781 4.6875 10.5625 4.574219 10.5625 4.4375 C 10.5625 4.300781 10.675781 4.1875 10.8125 4.1875 C 10.949219 4.1875 11.0625 4.300781 11.0625 4.4375 Z M 11.0625 4.4375"/><path style="stroke:none;fill-rule:nonzero;fill:#a45eeb;fill-opacity:1" d="M 9.28125 8.21875 C 9.28125 8.355469 9.167969 8.46875 9.03125 8.46875 C 8.894531 8.46875 8.78125 8.355469 8.78125 8.21875 C 8.78125 8.082031 8.894531 7.96875 9.03125 7.96875 C 9.167969 7.96875 9.28125 8.082031 9.28125 8.21875 Z M 9.28125 8.21875"/><use mask="url(#mask0)" xlink:href="#surface5"/><use mask="url(#mask1)" xlink:href="#surface8"/><use mask="url(#mask2)" xlink:href="#surface11"/><use mask="url(#mask3)" xlink:href="#surface14"/><use mask="url(#mask4)" xlink:href="#surface17"/><use mask="url(#mask5)" xlink:href="#surface20"/><use mask="url(#mask6)" xlink:href="#surface23"/><use mask="url(#mask7)" xlink:href="#surface26"/></g></svg>