<svg xmlns="http://www.w3.org/2000/svg" xmlns:xlink="http://www.w3.org/1999/xlink" width="16pt" height="16pt" version="1.1" viewBox="0 0 16 16"><defs><linearGradient id="linear0" x1="64.495" x2="64.495" y1="19.717" y2="107.7" gradientTransform="matrix(0.125,0,0,0.125,0,0)" gradientUnits="userSpaceOnUse"><stop offset=".5" style="stop-color:#fee133;stop-opacity:1"/><stop offset=".612" style="stop-color:#fede32;stop-opacity:1"/><stop offset=".708" style="stop-color:#fcd32f;stop-opacity:1"/><stop offset=".797" style="stop-color:#fac12b;stop-opacity:1"/><stop offset=".883" style="stop-color:#f7a924;stop-opacity:1"/><stop offset=".9" style="stop-color:#f6a323;stop-opacity:1"/></linearGradient><filter id="alpha" width="100%" height="100%" x="0%" y="0%" filterUnits="objectBoundingBox"><feColorMatrix in="SourceGraphic" type="matrix" values="0 0 0 0 1 0 0 0 0 1 0 0 0 0 1 0 0 0 1 0"/></filter><mask id="mask0"><g filter="url(#alpha)"><rect width="16" height="16" x="0" y="0" style="fill:#000;fill-opacity:.8;stroke:none"/></g></mask><radialGradient id="radial0" cx="25.701" cy="66.546" r="19.444" fx="25.701" fy="66.546" gradientTransform="matrix(0.122388,0,0,0.116263,0.260887,0.991725)" gradientUnits="userSpaceOnUse"><stop offset="0" style="stop-color:#ed7770;stop-opacity:1"/><stop offset=".9" style="stop-color:#ed7770;stop-opacity:0"/></radialGradient><clipPath id="clip1"><rect width="16" height="16" x="0" y="0"/></clipPath><g id="surface5" clip-path="url(#clip1)"><path style="stroke:none;fill-rule:nonzero;fill:url(#radial0)" d="M 5.59375 8.730469 C 5.59375 9.9375 4.613281 10.917969 3.40625 10.917969 C 2.199219 10.917969 1.21875 9.9375 1.21875 8.730469 C 1.21875 7.519531 2.199219 6.542969 3.40625 6.542969 C 4.613281 6.542969 5.59375 7.519531 5.59375 8.730469 Z M 5.59375 8.730469"/></g><mask id="mask1"><g filter="url(#alpha)"><rect width="16" height="16" x="0" y="0" style="fill:#000;fill-opacity:.8;stroke:none"/></g></mask><radialGradient id="radial1" cx="100.77" cy="66.546" r="19.444" fx="100.77" fy="66.546" gradientTransform="matrix(0.122388,0,0,0.116263,0.260887,0.991725)" gradientUnits="userSpaceOnUse"><stop offset="0" style="stop-color:#ed7770;stop-opacity:1"/><stop offset=".9" style="stop-color:#ed7770;stop-opacity:0"/></radialGradient><clipPath id="clip2"><rect width="16" height="16" x="0" y="0"/></clipPath><g id="surface8" clip-path="url(#clip2)"><path style="stroke:none;fill-rule:nonzero;fill:url(#radial1)" d="M 14.78125 8.730469 C 14.78125 9.9375 13.800781 10.917969 12.59375 10.917969 C 11.386719 10.917969 10.40625 9.9375 10.40625 8.730469 C 10.40625 7.519531 11.386719 6.542969 12.59375 6.542969 C 13.800781 6.542969 14.78125 7.519531 14.78125 8.730469 Z M 14.78125 8.730469"/></g></defs><g id="surface1"><path style="stroke:none;fill-rule:nonzero;fill:url(#linear0)" d="M 8.0625 14.984375 C 4.570312 14.984375 0.8125 12.800781 0.8125 8 C 0.8125 3.199219 4.570312 1.015625 8.0625 1.015625 C 9.996094 1.015625 11.789062 1.652344 13.109375 2.816406 C 14.546875 4.089844 15.3125 5.882812 15.3125 8 C 15.3125 10.109375 14.550781 11.894531 13.109375 13.171875 C 11.785156 14.34375 9.992188 14.984375 8.0625 14.984375 Z M 8.0625 14.984375"/><path style="stroke:none;fill-rule:nonzero;fill:#eb8f00;fill-opacity:1" d="M 8.0625 1.265625 C 9.9375 1.265625 11.671875 1.882812 12.941406 3.003906 C 14.328125 4.230469 15.0625 5.957031 15.0625 8 C 15.0625 10.035156 14.328125 11.757812 12.941406 12.984375 C 11.664062 14.113281 9.933594 14.734375 8.0625 14.734375 C 6.183594 14.734375 4.449219 14.121094 3.183594 13.007812 C 1.796875 11.789062 1.0625 10.058594 1.0625 8 C 1.0625 5.933594 1.796875 4.199219 3.183594 2.980469 C 4.445312 1.875 6.179688 1.265625 8.0625 1.265625 M 8.0625 0.765625 C 4.167969 0.765625 0.5625 3.265625 0.5625 8 C 0.5625 12.710938 4.167969 15.234375 8.0625 15.234375 C 11.957031 15.234375 15.5625 12.644531 15.5625 8 C 15.5625 3.328125 11.957031 0.765625 8.0625 0.765625 Z M 8.0625 0.765625"/><path style="stroke:none;fill-rule:nonzero;fill:#242424;fill-opacity:1" d="M 7.996094 12.082031 C 6.402344 12.082031 5.269531 11.257812 4.925781 10.734375 C 4.796875 10.535156 4.769531 10.316406 4.859375 10.152344 C 4.925781 10.027344 5.046875 9.957031 5.191406 9.957031 C 5.242188 9.957031 5.292969 9.964844 5.34375 9.980469 C 6.144531 10.234375 7.066406 10.363281 8.003906 10.363281 C 8.933594 10.363281 9.851562 10.234375 10.652344 9.980469 C 10.703125 9.964844 10.753906 9.957031 10.800781 9.957031 C 10.945312 9.957031 11.070312 10.027344 11.136719 10.152344 C 11.222656 10.316406 11.199219 10.535156 11.066406 10.734375 C 10.722656 11.257812 9.589844 12.082031 7.996094 12.082031 Z M 7.996094 12.082031"/><use mask="url(#mask0)" xlink:href="#surface5"/><use mask="url(#mask1)" xlink:href="#surface8"/><path style="fill-rule:nonzero;fill:#eb8f00;fill-opacity:1;stroke-width:1;stroke-linecap:butt;stroke-linejoin:miter;stroke:#eb8f00;stroke-opacity:1;stroke-miterlimit:10" d="M 49.625 36.625 C 51.875 37 53.03125 33.96875 50.6875 33.09375 C 48.9375 32.4375 46.96875 32.09375 44.96875 32.03125 C 39.375 31.75 34.1875 33.84375 30.5 37.0625 C 28.65625 38.6875 30.875 41.09375 32.78125 39.9375 C 37.625 37.125 43.65625 35.71875 49.625 36.625 Z M 49.625 36.625" transform="matrix(0.125,0,0,0.125,0,0)"/><path style="fill-rule:nonzero;fill:#eb8f00;fill-opacity:1;stroke-width:1;stroke-linecap:butt;stroke-linejoin:miter;stroke:#eb8f00;stroke-opacity:1;stroke-miterlimit:10" d="M 79.1875 36.625 C 76.90625 37 75.75 33.96875 78.09375 33.09375 C 79.84375 32.4375 81.84375 32.09375 83.84375 32.03125 C 89.4375 31.75 94.625 33.84375 98.28125 37.0625 C 100.125 38.6875 97.90625 41.09375 96.03125 39.9375 C 91.15625 37.125 85.125 35.71875 79.1875 36.625 Z M 79.1875 36.625" transform="matrix(0.125,0,0,0.125,0,0)"/><path style="stroke:none;fill-rule:nonzero;fill:#242424;fill-opacity:1" d="M 6.269531 7.386719 C 6.269531 7.386719 6.261719 7.378906 6.246094 7.359375 C 6.238281 7.351562 6.230469 7.339844 6.21875 7.328125 C 6.207031 7.3125 6.199219 7.296875 6.1875 7.289062 L 6.109375 7.210938 C 6.078125 7.179688 6.042969 7.148438 6.003906 7.113281 C 5.921875 7.046875 5.828125 6.984375 5.726562 6.941406 C 5.625 6.898438 5.523438 6.875 5.421875 6.875 C 5.464844 6.875 5.433594 6.875 5.441406 6.875 L 5.371094 6.875 C 5.335938 6.875 5.34375 6.878906 5.332031 6.878906 C 5.324219 6.878906 5.289062 6.886719 5.265625 6.890625 C 5.214844 6.902344 5.164062 6.917969 5.113281 6.941406 C 5.015625 6.984375 4.917969 7.046875 4.839844 7.113281 C 4.761719 7.179688 4.695312 7.246094 4.648438 7.296875 C 4.605469 7.347656 4.578125 7.378906 4.578125 7.378906 L 4.542969 7.421875 C 4.390625 7.589844 4.125 7.609375 3.953125 7.453125 C 3.824219 7.339844 3.785156 7.160156 3.839844 7.003906 C 3.839844 7.003906 3.84375 6.992188 3.851562 6.964844 C 3.863281 6.9375 3.875 6.898438 3.894531 6.851562 C 3.9375 6.753906 4.007812 6.617188 4.125 6.464844 C 4.238281 6.316406 4.40625 6.152344 4.628906 6.023438 C 4.738281 5.960938 4.863281 5.902344 5 5.867188 C 5.070312 5.851562 5.128906 5.835938 5.214844 5.824219 C 5.253906 5.820312 5.308594 5.8125 5.324219 5.8125 L 5.421875 5.808594 C 5.5625 5.8125 5.703125 5.832031 5.839844 5.867188 C 5.976562 5.902344 6.101562 5.960938 6.210938 6.023438 C 6.433594 6.152344 6.601562 6.316406 6.714844 6.464844 C 6.773438 6.542969 6.820312 6.613281 6.859375 6.679688 C 6.894531 6.742188 6.921875 6.804688 6.949219 6.859375 C 6.960938 6.886719 6.96875 6.90625 6.972656 6.921875 C 6.976562 6.9375 6.984375 6.953125 6.984375 6.960938 L 6.996094 6.996094 C 7.070312 7.21875 6.949219 7.453125 6.726562 7.527344 C 6.554688 7.578125 6.375 7.519531 6.269531 7.386719 Z M 6.269531 7.386719"/><path style="stroke:none;fill-rule:nonzero;fill:#242424;fill-opacity:1" d="M 11.683594 7.386719 C 11.683594 7.386719 11.675781 7.378906 11.664062 7.359375 C 11.65625 7.351562 11.644531 7.339844 11.636719 7.328125 C 11.625 7.3125 11.613281 7.296875 11.605469 7.289062 L 11.527344 7.210938 C 11.496094 7.179688 11.457031 7.148438 11.417969 7.113281 C 11.339844 7.046875 11.242188 6.984375 11.144531 6.941406 C 11.042969 6.898438 10.941406 6.875 10.835938 6.875 C 10.882812 6.875 10.847656 6.875 10.859375 6.875 L 10.785156 6.875 C 10.753906 6.875 10.761719 6.878906 10.75 6.878906 C 10.742188 6.878906 10.707031 6.886719 10.683594 6.890625 C 10.632812 6.902344 10.578125 6.917969 10.53125 6.941406 C 10.429688 6.984375 10.335938 7.046875 10.253906 7.113281 C 10.175781 7.179688 10.109375 7.246094 10.066406 7.296875 C 10.019531 7.347656 9.992188 7.378906 9.992188 7.378906 L 9.957031 7.421875 C 9.804688 7.589844 9.542969 7.609375 9.371094 7.453125 C 9.238281 7.339844 9.199219 7.160156 9.253906 7.003906 C 9.253906 7.003906 9.257812 6.992188 9.265625 6.964844 C 9.277344 6.9375 9.289062 6.898438 9.3125 6.851562 C 9.351562 6.753906 9.421875 6.617188 9.539062 6.464844 C 9.652344 6.316406 9.820312 6.152344 10.042969 6.023438 C 10.15625 5.960938 10.277344 5.902344 10.414062 5.867188 C 10.484375 5.851562 10.542969 5.835938 10.632812 5.824219 C 10.667969 5.820312 10.722656 5.8125 10.738281 5.8125 L 10.835938 5.808594 C 10.976562 5.8125 11.121094 5.832031 11.257812 5.867188 C 11.390625 5.902344 11.515625 5.960938 11.628906 6.023438 C 11.851562 6.152344 12.015625 6.316406 12.132812 6.464844 C 12.191406 6.542969 12.234375 6.613281 12.273438 6.679688 C 12.308594 6.742188 12.339844 6.804688 12.363281 6.859375 C 12.375 6.886719 12.382812 6.90625 12.386719 6.921875 C 12.390625 6.9375 12.398438 6.953125 12.402344 6.960938 L 12.414062 6.996094 C 12.484375 7.21875 12.363281 7.453125 12.140625 7.527344 C 11.972656 7.578125 11.792969 7.519531 11.683594 7.386719 Z M 11.683594 7.386719"/></g></svg>