<svg xmlns="http://www.w3.org/2000/svg" xmlns:xlink="http://www.w3.org/1999/xlink" viewBox="0 0 16 16"><linearGradient id="a" x1="64.116" x2="64.116" y1="22.925" y2="104.55" gradientTransform="matrix(.122 -.026 .026 .122 -1.513 1.859)" gradientUnits="userSpaceOnUse"><stop offset=".505" stop-color="#fee133"/><stop offset=".615" stop-color="#fede32"/><stop offset=".71" stop-color="#fcd32f"/><stop offset=".799" stop-color="#fac12b"/><stop offset=".883" stop-color="#f7a924"/><stop offset=".9" stop-color="#f6a323"/></linearGradient><filter id="b" width="100%" height="100%" x="0%" y="0%"><feColorMatrix in="SourceGraphic" type="matrix" values="0 0 0 0 1 0 0 0 0 1 0 0 0 0 1 0 0 0 1 0"/></filter><mask id="c"><g filter="url(#b)"><path fill-opacity=".8" d="m0 0h16v16h-16z"/></g></mask><linearGradient id="d" gradientUnits="userSpaceOnUse"><stop offset="0" stop-color="#ed7770"/><stop offset=".9" stop-color="#ed7770" stop-opacity="0"/></linearGradient><radialGradient id="e" cx="28.543" cy="57.614" r="18.103" gradientTransform="matrix(.12 -.023 .021 .114 -.958 2.076)" xlink:href="#d"/><clipPath id="f"><path d="m0 0h16v16h-16z"/></clipPath><mask id="g"><g filter="url(#b)"><path fill-opacity=".8" d="m0 0h16v16h-16z"/></g></mask><radialGradient id="h" cx="98.434" cy="57.614" r="18.103" gradientTransform="matrix(.12 -.023 .021 .114 -.958 2.076)" xlink:href="#d"/><clipPath id="i"><path d="m0 0h16v16h-16z"/></clipPath><linearGradient id="j" gradientUnits="userSpaceOnUse"><stop offset="0" stop-color="#f6a323"/><stop offset=".158" stop-color="#fabe2a"/><stop offset=".338" stop-color="#fdd831"/><stop offset=".448" stop-color="#fee133"/></linearGradient><linearGradient id="k" x1="32.968" x2="22.054" y1="119.85" y2="92.836" gradientTransform="matrix(.125 -.009 .009 .125 -.91 .377)" xlink:href="#j"/><linearGradient id="l" x1="48.085" x2="37.17" y1="121" y2="93.98" gradientTransform="matrix(-.125 -.009 -.009 .125 18.805 .377)" xlink:href="#j"/><path fill="url(#a)" d="m7.715 14.516c-2.512 0-5.48-1.344-6.289-5.105-.934-4.352 2.047-7.07 5.215-7.75.543-.113 1.09-.176 1.629-.176 2.52 0 5.5 1.344 6.309 5.102.41 1.91.066 3.684-.992 5.121-.973 1.32-2.473 2.254-4.223 2.629-.547.117-1.102.18-1.649.18zm0 0"/><path fill="#eb8f00" d="m8.273 1.719c2.43 0 5.301 1.293 6.078 4.918.395 1.844.066 3.551-.953 4.934-.938 1.274-2.387 2.172-4.082 2.539-.531.113-1.07.172-1.602.172-1.438 0-2.754-.418-3.801-1.203-1.141-.859-1.922-2.145-2.262-3.719-.402-1.875-.074-3.59.945-4.961.93-1.254 2.387-2.145 4.094-2.508.523-.113 1.055-.172 1.582-.172m0-.465c-.559 0-1.121.059-1.68.18-3.535.758-6.317 3.731-5.395 8.027.77 3.59 3.551 5.285 6.516 5.285.563 0 1.133-.063 1.699-.184 3.531-.758 6.297-3.809 5.391-8.023-.766-3.57-3.559-5.285-6.531-5.285zm0 0"/><g clip-path="url(#f)" mask="url(#c)"><path fill="url(#e)" d="m5.746 8.016c0 1.125-.914 2.035-2.039 2.035-1.121 0-2.035-.91-2.035-2.035s.914-2.035 2.035-2.035c1.125 0 2.039.91 2.039 2.035zm0 0"/></g><g clip-path="url(#i)" mask="url(#g)"><path fill="url(#h)" d="m14.152 6.441c0 1.125-.91 2.035-2.035 2.035s-2.039-.91-2.039-2.035.914-2.035 2.039-2.035 2.035.91 2.035 2.035zm0 0"/></g><g fill="#242424"><path d="m12.109 6.172c-.957.895-2.231 1.586-3.703 1.926-1.477.34-2.922.273-4.172-.113-.231-.07-.387.234-.191.375 1.266.938 2.949 1.336 4.641.945s3.031-1.481 3.762-2.879c.109-.211-.16-.414-.336-.254zm0 0"/><path d="m6.066 5.895s-.008-.008-.02-.02c-.016-.012-.035-.031-.063-.051-.02-.016-.043-.035-.074-.055-.027-.023-.063-.047-.098-.07-.039-.023-.078-.047-.113-.063-.035-.023-.074-.035-.105-.047-.035-.012-.063-.012-.082-.012-.008-.004-.016 0-.023 0-.004 0-.008 0-.012 0h-.008c.016 0-.031.008.031-.004l-.063.012c-.016.004-.004.004-.004.004.004 0 .008 0 .008-.004.012-.004 0 0 0 .004-.004 0-.008 0-.016.004-.016.008-.043.02-.066.043-.027.02-.059.047-.086.078s-.055.067-.078.102c-.051.07-.09.141-.117.188-.031.051-.047.082-.047.082l-.02.035c-.121.211-.402.301-.629.191-.152-.07-.242-.211-.242-.363 0 0-.004-.047.004-.133s.027-.211.078-.363c.055-.148.137-.328.301-.512.082-.09.184-.184.313-.258.031-.016.063-.035.098-.051.039-.02.066-.035.113-.051l.07-.023c.023-.008.055-.016.059-.02l.063-.016.035-.008h.004l.02-.004.031-.004.059-.008c.039-.004.078-.004.117-.004.078 0 .156.004.231.016.145.02.273.07.383.121.219.109.363.246.469.367.055.059.098.117.129.168.035.047.063.102.086.141.02.039.023.063.031.082.008.016.012.027.012.027.086.223-.043.473-.285.559-.18.066-.367.027-.492-.082zm0 0"/><path d="m10.352 5.07s-.008-.008-.024-.023c-.012-.012-.035-.027-.059-.051-.02-.016-.047-.031-.074-.055-.031-.02-.066-.047-.102-.07-.035-.02-.074-.043-.109-.063-.039-.02-.078-.031-.109-.043s-.059-.012-.078-.016c-.012 0-.02 0-.027 0-.004.004-.004 0-.008.004h-.008c.012-.004-.031.008.031-.008l-.063.016c-.02.004-.008.004-.004.004 0 0 .004-.004.008-.004.008-.004 0 0-.004 0s-.008.004-.012.004c-.016.012-.043.02-.07.043-.023.023-.055.051-.082.082s-.055.066-.078.102c-.051.07-.09.137-.121.188-.027.051-.043.078-.043.078l-.02.035c-.121.215-.402.301-.629.195-.152-.07-.242-.215-.246-.367 0 0 0-.047.008-.133s.023-.211.078-.359c.051-.148.137-.332.301-.516.082-.09.184-.18.313-.254.031-.02.063-.039.098-.055s.063-.031.113-.051l.07-.023c.02-.008.051-.016.055-.016l.063-.016.035-.008h.004l.023-.004.031-.004.059-.008c.039-.004.078-.004.117-.008.078 0 .156.004.227.016.149.023.277.07.383.125.223.106.367.242.473.363.051.063.094.117.129.168.031.051.063.106.082.145.024.039.027.059.035.078.008.016.012.027.012.027.086.223-.043.473-.285.559-.184.066-.367.027-.492-.078zm0 0"/></g><path fill="url(#k)" d="m4.68 10.781c-.352-.453-.75-.676-.949-.371-.27.406.598.789.57 1.188-.004.109-.113.133-.16.082-.691-.777-1.281-1.547-1.289-1.555-.117-.145-.328-.168-.469-.051-.145.113-.148.297-.023.52.004.008.262.477 1.008 1.215.039.039.035.106-.004.145-.047.051-.125.059-.18.02-.918-.672-1.379-1.477-1.387-1.492-.098-.156-.305-.207-.461-.109-.16.098-.207.305-.109.461.031.047.535.93 1.563 1.68.055.043.07.121.039.18 0 0-.004 0-.004.004-.035.063-.117.082-.18.043-.832-.535-1.293-1.145-1.305-1.16-.113-.145-.324-.172-.469-.059-.148.117-.172.324-.059.469.035.047.594.789 1.594 1.387.047.031.094.094.035.188-.027.043-.109.047-.164.016-.602-.336-.727-.453-.895-.566-.164-.113-.336-.188-.512-.059-.106.078-.113.309.051.481.938 1.008 1.797 1.457 2.453 1.57.953.16 1.5-.223 1.887-.645 1.352-1.481-.426-3.379-.582-3.578zm0 0"/><path fill="#eb8f00" d="m2.59 10c.098 0 .195.043.262.125.008.008.598.777 1.289 1.555.016.02.039.027.063.027.047 0 .094-.035.098-.109.027-.399-.84-.781-.57-1.188.063-.094.145-.141.242-.141.203 0 .469.203.707.512.156.199 1.934 2.098.586 3.578-.328.355-.766.684-1.461.684-.133 0-.273-.012-.43-.039-.656-.113-1.512-.563-2.453-1.566-.16-.176-.156-.402-.047-.484.063-.047.129-.066.191-.066.106 0 .215.059.32.129.164.109.293.231.895.566.023.012.047.02.074.02.035 0 .07-.012.086-.039.059-.094.012-.156-.035-.184-.996-.602-1.559-1.34-1.594-1.387-.113-.145-.086-.356.059-.469.063-.047.137-.07.207-.07.098 0 .195.043.262.129.012.012.473.625 1.309 1.156.02.016.043.023.066.023.047 0 .09-.023.113-.066.035-.063.02-.141-.035-.18-1.031-.754-1.535-1.633-1.566-1.684-.098-.156-.047-.363.109-.457.055-.035.113-.051.176-.051.109 0 .219.055.285.16.008.016.469.816 1.387 1.488.023.02.051.027.078.027.039 0 .074-.016.102-.043v-.004c.035-.039.043-.102.004-.141-.746-.742-1.004-1.207-1.008-1.219-.125-.223-.125-.402.023-.52.059-.051.133-.074.207-.074m0-.375c-.16 0-.316.055-.441.156-.055.043-.16.141-.219.305-.117-.09-.262-.137-.418-.137-.129 0-.258.035-.371.106-.16.098-.273.254-.316.438-.047.188-.016.375.086.539.008.016.02.035.035.055-.113.024-.215.07-.305.141-.148.113-.246.281-.27.469s.027.375.145.524c.055.066.152.188.293.34-.055.023-.106.055-.156.09-.129.098-.211.246-.227.422-.02.219.059.445.223.621 1.129 1.207 2.074 1.578 2.664 1.68.172.031.336.047.492.047.898 0 1.422-.461 1.734-.809.555-.606 1.227-1.938-.524-4.012-.016-.02-.031-.035-.039-.047-.234-.297-.598-.656-1.004-.656-.231 0-.426.113-.559.309-.004.008-.008.012-.012.02-.129-.16-.219-.277-.254-.324l-.004-.004c-.137-.172-.34-.27-.555-.27zm0 0"/><path fill="#eb8f00" d="m4.141 13.625c-.691-.906-.301-1.574-.184-1.781.113-.207.301-.426.301-.426.109.172.195.316.094.508-.047.09-.617.707-.043 1.586.035.051.02.129-.02.156-.047.02-.117-.004-.149-.043zm0 0"/><path fill="url(#l)" d="m11.32 10.781c.352-.453.75-.676.949-.371.27.406-.598.789-.57 1.188.004.109.113.133.16.082.691-.777 1.281-1.547 1.289-1.555.117-.145.328-.168.469-.051.145.113.148.297.023.52-.004.008-.262.477-1.008 1.215-.039.039-.035.106.004.145.047.051.125.059.18.02.918-.672 1.379-1.477 1.387-1.492.098-.156.305-.207.461-.109.16.098.207.305.109.461-.031.047-.535.93-1.563 1.68-.055.043-.07.121-.039.18 0 0 .004 0 .004.004.035.063.117.082.18.043.832-.535 1.293-1.145 1.305-1.16.113-.145.324-.172.469-.059.148.117.172.324.059.469-.035.047-.594.789-1.594 1.387-.047.031-.094.094-.035.188.027.043.109.047.164.016.602-.336.727-.453.895-.566.164-.113.336-.188.512-.059.106.078.113.309-.051.481-.938 1.008-1.797 1.457-2.453 1.57-.953.16-1.5-.223-1.887-.645-1.352-1.481.426-3.379.582-3.578zm0 0"/><g fill="#eb8f00"><path d="m13.41 10c.074 0 .148.023.207.074.145.113.148.297.023.52-.004.008-.262.477-1.008 1.219-.039.039-.035.102.004.141.027.031.063.047.102.047.027 0 .055-.012.078-.027.918-.672 1.379-1.477 1.387-1.492.066-.102.176-.156.285-.156.063 0 .121.016.176.047.16.098.207.305.109.461-.031.047-.535.93-1.563 1.68-.055.043-.07.121-.039.18 0 0 .004 0 .004.004.023.039.066.063.109.063.023 0 .047-.008.07-.02.832-.535 1.293-1.145 1.305-1.16.066-.086.164-.129.266-.129.07 0 .145.024.203.07.148.117.172.324.059.469-.035.047-.594.789-1.594 1.387-.047.031-.094.094-.035.188.016.023.051.035.086.035.027 0 .055-.004.078-.02.602-.336.727-.453.895-.566.106-.07.211-.125.32-.125.063 0 .125.02.191.066.109.078.113.309-.051.481-.938 1.008-1.793 1.457-2.453 1.57-.152.023-.293.035-.426.035-.695 0-1.137-.324-1.461-.68-1.348-1.481.43-3.379.582-3.578.242-.313.504-.512.711-.512.094 0 .18.043.242.141.27.402-.598.785-.574 1.188.004.074.055.105.098.105.023 0 .047-.008.063-.027.691-.777 1.285-1.543 1.293-1.555.063-.078.16-.121.258-.121m0-.375c-.215 0-.418.098-.555.266v.004l-.004.004c-.039.047-.129.164-.254.324-.004-.008-.008-.012-.012-.02-.133-.195-.328-.309-.559-.309-.406 0-.77.359-1.004.656-.008.012-.02.027-.039.047-1.75 2.074-1.078 3.406-.524 4.012.313.348.836.809 1.734.809.156 0 .32-.016.492-.047.59-.102 1.535-.473 2.664-1.68.164-.176.242-.398.223-.621-.016-.176-.098-.324-.227-.422-.051-.039-.102-.066-.156-.09.141-.148.238-.27.289-.336.117-.152.168-.336.145-.527-.023-.188-.117-.356-.266-.473-.09-.066-.191-.113-.305-.137.016-.02.023-.039.035-.055.102-.164.133-.356.086-.539-.043-.184-.156-.34-.316-.441-.113-.066-.242-.102-.371-.102-.156 0-.301.047-.418.133-.059-.16-.164-.258-.219-.305-.121-.098-.281-.152-.441-.152zm0 0"/><path d="m11.859 13.625c.691-.906.301-1.574.184-1.781-.113-.207-.301-.426-.301-.426-.109.172-.195.316-.094.508.047.09.617.707.043 1.586-.035.051-.02.129.02.156.047.02.117-.004.149-.043zm0 0"/></g></svg>