<svg xmlns="http://www.w3.org/2000/svg" xmlns:xlink="http://www.w3.org/1999/xlink" width="16pt" height="16pt" version="1.1" viewBox="0 0 16 16"><defs><linearGradient id="linear0" x1="63.991" x2="63.991" y1="29.862" y2="110.91" gradientTransform="matrix(0.125,0,0,0.125,0,0)" gradientUnits="userSpaceOnUse"><stop offset=".076" style="stop-color:#792d85;stop-opacity:1"/><stop offset=".308" style="stop-color:#ac1cb3;stop-opacity:1"/><stop offset=".543" style="stop-color:#d90ddc;stop-opacity:1"/><stop offset=".725" style="stop-color:#f503f6;stop-opacity:1"/><stop offset=".831" style="stop-color:#f0f;stop-opacity:1"/></linearGradient></defs><g id="surface1"><path style="stroke:none;fill-rule:nonzero;fill:#873191;fill-opacity:1" d="M 2.390625 5.554688 C 2.324219 5.554688 2.253906 5.546875 2.1875 5.539062 C 1.398438 4.589844 0.847656 2.640625 0.933594 1.097656 C 2.28125 2.46875 3.8125 3.257812 5.136719 3.257812 C 5.167969 3.257812 5.199219 3.257812 5.226562 3.257812 C 4.6875 4.367188 3.507812 5.554688 2.390625 5.554688 Z M 2.390625 5.554688"/><path style="stroke:none;fill-rule:nonzero;fill:#6f21a1;fill-opacity:1" d="M 1.179688 1.683594 C 2.359375 2.75 3.644531 3.390625 4.8125 3.492188 C 4.246094 4.433594 3.261719 5.304688 2.390625 5.304688 C 2.367188 5.304688 2.34375 5.300781 2.324219 5.300781 C 1.691406 4.488281 1.234375 3.007812 1.179688 1.683594 M 0.933594 0.847656 C 0.8125 0.847656 0.691406 0.941406 0.683594 1.082031 C 0.589844 2.726562 1.171875 4.710938 2.003906 5.703125 C 2.042969 5.75 2.09375 5.777344 2.152344 5.789062 C 2.234375 5.796875 2.3125 5.804688 2.390625 5.804688 C 3.59375 5.804688 4.859375 4.582031 5.453125 3.363281 C 5.535156 3.199219 5.414062 3.007812 5.230469 3.007812 L 5.222656 3.007812 C 5.191406 3.007812 5.164062 3.007812 5.136719 3.007812 C 3.722656 3.007812 2.238281 2.074219 1.109375 0.921875 C 1.058594 0.871094 0.996094 0.847656 0.933594 0.847656 Z M 0.933594 0.847656"/><path style="stroke:none;fill-rule:nonzero;fill:#873191;fill-opacity:1" d="M 13.601562 5.585938 C 12.484375 5.585938 11.308594 4.398438 10.765625 3.285156 C 10.796875 3.289062 10.828125 3.289062 10.859375 3.289062 C 12.179688 3.289062 13.714844 2.503906 15.0625 1.128906 C 15.148438 2.671875 14.59375 4.621094 13.800781 5.574219 C 13.738281 5.578125 13.671875 5.585938 13.601562 5.585938 Z M 13.601562 5.585938"/><path style="stroke:none;fill-rule:nonzero;fill:#6f21a1;fill-opacity:1" d="M 14.8125 1.714844 C 14.761719 3.039062 14.300781 4.519531 13.671875 5.332031 C 13.648438 5.335938 13.625 5.335938 13.601562 5.335938 C 12.730469 5.335938 11.75 4.464844 11.179688 3.523438 C 12.347656 3.421875 13.636719 2.78125 14.8125 1.714844 M 15.058594 0.878906 C 14.996094 0.878906 14.933594 0.902344 14.882812 0.953125 C 13.753906 2.105469 12.269531 3.039062 10.855469 3.039062 C 10.828125 3.039062 10.800781 3.039062 10.769531 3.039062 L 10.765625 3.039062 C 10.578125 3.039062 10.457031 3.230469 10.539062 3.394531 C 11.132812 4.613281 12.394531 5.835938 13.601562 5.835938 C 13.679688 5.835938 13.761719 5.828125 13.839844 5.820312 C 13.898438 5.808594 13.953125 5.78125 13.988281 5.734375 C 14.820312 4.742188 15.402344 2.757812 15.308594 1.113281 C 15.300781 0.972656 15.183594 0.878906 15.058594 0.878906 Z M 15.058594 0.878906"/><path style="stroke:none;fill-rule:nonzero;fill:url(#linear0)" d="M 8 14.742188 C 4.925781 14.742188 1.621094 12.820312 1.621094 8.601562 C 1.621094 4.378906 4.925781 2.457031 8 2.457031 C 9.703125 2.457031 11.277344 3.019531 12.4375 4.042969 C 13.703125 5.164062 14.375 6.738281 14.375 8.601562 C 14.375 10.453125 13.703125 12.027344 12.4375 13.148438 C 11.273438 14.175781 9.699219 14.742188 8 14.742188 Z M 8 14.742188"/><path style="stroke:none;fill-rule:nonzero;fill:#6f21a1;fill-opacity:1" d="M 8 2.707031 C 9.640625 2.707031 11.15625 3.246094 12.269531 4.230469 C 13.484375 5.300781 14.125 6.8125 14.125 8.601562 C 14.125 10.378906 13.484375 11.890625 12.269531 12.960938 C 11.15625 13.949219 9.636719 14.492188 8 14.492188 C 6.351562 14.492188 4.835938 13.957031 3.726562 12.984375 C 2.515625 11.917969 1.871094 10.402344 1.871094 8.601562 C 1.871094 6.792969 2.515625 5.273438 3.726562 4.210938 C 4.832031 3.242188 6.347656 2.707031 8 2.707031 M 8 2.207031 C 4.558594 2.207031 1.371094 4.417969 1.371094 8.601562 C 1.371094 12.761719 4.558594 14.992188 8 14.992188 C 11.4375 14.992188 14.625 12.703125 14.625 8.601562 C 14.625 4.472656 11.4375 2.207031 8 2.207031 Z M 8 2.207031"/><path style="stroke:none;fill-rule:nonzero;fill:#242424;fill-opacity:1" d="M 10.160156 10.941406 C 10.3125 10.941406 10.449219 11.023438 10.519531 11.15625 C 10.609375 11.320312 10.589844 11.535156 10.460938 11.726562 C 10.1875 12.148438 9.273438 12.816406 8 12.816406 C 6.726562 12.816406 5.816406 12.148438 5.539062 11.726562 C 5.410156 11.535156 5.390625 11.320312 5.480469 11.15625 C 5.550781 11.023438 5.6875 10.945312 5.839844 10.945312 C 5.890625 10.945312 5.941406 10.953125 5.992188 10.96875 C 6.597656 11.15625 7.292969 11.257812 8.003906 11.257812 C 8.707031 11.257812 9.398438 11.15625 10.003906 10.96875 C 10.058594 10.949219 10.109375 10.941406 10.160156 10.941406 Z M 10.160156 10.941406"/><path style="stroke:none;fill-rule:nonzero;fill:#242424;fill-opacity:1" d="M 6.886719 9.027344 C 6.800781 9.027344 6.71875 8.996094 6.652344 8.9375 C 6.277344 8.621094 5.058594 7.949219 4.609375 7.726562 C 4.441406 7.644531 4.363281 7.480469 4.402344 7.3125 C 4.441406 7.144531 4.582031 7.027344 4.75 7.027344 C 4.78125 7.027344 4.8125 7.03125 4.84375 7.042969 C 5.007812 7.082031 5.171875 7.140625 5.324219 7.210938 C 5.742188 7.40625 6.894531 8.085938 7.175781 8.4375 C 7.265625 8.550781 7.28125 8.691406 7.21875 8.820312 C 7.15625 8.945312 7.027344 9.027344 6.886719 9.027344 Z M 6.886719 9.027344"/><path style="stroke:none;fill-rule:nonzero;fill:#242424;fill-opacity:1" d="M 9.113281 9.027344 C 9.199219 9.027344 9.28125 8.996094 9.347656 8.9375 C 9.722656 8.621094 10.941406 7.949219 11.390625 7.726562 C 11.558594 7.644531 11.636719 7.480469 11.597656 7.3125 C 11.558594 7.144531 11.417969 7.027344 11.25 7.027344 C 11.21875 7.027344 11.1875 7.03125 11.15625 7.042969 C 10.992188 7.082031 10.828125 7.140625 10.675781 7.210938 C 10.257812 7.40625 9.105469 8.085938 8.824219 8.4375 C 8.734375 8.550781 8.71875 8.691406 8.78125 8.820312 C 8.84375 8.945312 8.972656 9.027344 9.113281 9.027344 Z M 9.113281 9.027344"/><path style="stroke:none;fill-rule:nonzero;fill:#242424;fill-opacity:1" d="M 5.035156 9.230469 C 5.035156 9.765625 5.453125 10.203125 5.972656 10.203125 C 6.488281 10.203125 6.910156 9.765625 6.910156 9.230469 L 6.910156 9.046875 C 6.910156 8.511719 6.488281 8.078125 5.972656 8.078125 C 5.453125 8.078125 5.035156 8.511719 5.035156 9.046875 Z M 5.035156 9.230469"/><path style="stroke:none;fill-rule:nonzero;fill:#242424;fill-opacity:1" d="M 9.089844 9.230469 C 9.089844 9.765625 9.511719 10.203125 10.027344 10.203125 C 10.546875 10.203125 10.964844 9.765625 10.964844 9.230469 L 10.964844 9.046875 C 10.964844 8.511719 10.546875 8.078125 10.027344 8.078125 C 9.511719 8.078125 9.089844 8.511719 9.089844 9.046875 Z M 9.089844 9.230469"/></g></svg>