<svg xmlns="http://www.w3.org/2000/svg" xmlns:xlink="http://www.w3.org/1999/xlink" width="16pt" height="16pt" version="1.1" viewBox="0 0 16 16"><defs><linearGradient id="linear0" x1="4.111" x2="123.89" y1="64" y2="64" gradientTransform="matrix(0.125,0,0,0.125,0,0)" gradientUnits="userSpaceOnUse"><stop offset=".001" style="stop-color:#81d4fa;stop-opacity:1"/><stop offset="1" style="stop-color:#29b6f6;stop-opacity:1"/></linearGradient><linearGradient id="linear1" x1="63.599" x2="63.599" y1="123.89" y2="36.003" gradientTransform="matrix(0.125,0,0,0.125,0,0)" gradientUnits="userSpaceOnUse"><stop offset="0" style="stop-color:#81d4fa;stop-opacity:1"/><stop offset=".221" style="stop-color:#7dd3fa;stop-opacity:1"/><stop offset=".431" style="stop-color:#72cff9;stop-opacity:1"/><stop offset=".638" style="stop-color:#5ec8f8;stop-opacity:1"/><stop offset=".841" style="stop-color:#44bff7;stop-opacity:1"/><stop offset="1" style="stop-color:#29b6f6;stop-opacity:1"/></linearGradient><linearGradient id="linear2" x1="93.897" x2="93.897" y1="123.91" y2="36" gradientTransform="matrix(0.125,0,0,0.125,0,0)" gradientUnits="userSpaceOnUse"><stop offset="0" style="stop-color:#039be5;stop-opacity:1"/><stop offset=".369" style="stop-color:#0398e2;stop-opacity:1"/><stop offset=".638" style="stop-color:#0390d9;stop-opacity:1"/><stop offset=".874" style="stop-color:#0282c9;stop-opacity:1"/><stop offset="1" style="stop-color:#0277bd;stop-opacity:1"/></linearGradient><linearGradient id="linear3" x1="33.944" x2="33.944" y1="123.91" y2="35.968" gradientTransform="matrix(0.125,0,0,0.125,0,0)" gradientUnits="userSpaceOnUse"><stop offset="0" style="stop-color:#29b6f6;stop-opacity:1"/><stop offset=".331" style="stop-color:#25b3f4;stop-opacity:1"/><stop offset=".646" style="stop-color:#1aabef;stop-opacity:1"/><stop offset=".954" style="stop-color:#079ee7;stop-opacity:1"/><stop offset="1" style="stop-color:#039be5;stop-opacity:1"/></linearGradient><linearGradient id="linear4" x1="29.51" x2="21.783" y1="5.457" y2="36.366" gradientTransform="matrix(0.125,0,0,0.125,0,0)" gradientUnits="userSpaceOnUse"><stop offset=".005" style="stop-color:#b3e5fc;stop-opacity:1"/><stop offset="1" style="stop-color:#4fc3f7;stop-opacity:1"/></linearGradient><linearGradient id="linear5" x1="105.87" x2="105.87" y1="7.06" y2="37.027" gradientTransform="matrix(0.125,0,0,0.125,0,0)" gradientUnits="userSpaceOnUse"><stop offset=".009" style="stop-color:#81d4fa;stop-opacity:1"/><stop offset="1" style="stop-color:#29b6f6;stop-opacity:1"/></linearGradient><linearGradient id="linear6" x1="63.644" x2="63.644" y1="6.738" y2="35.715" gradientTransform="matrix(0.125,0,0,0.125,0,0)" gradientUnits="userSpaceOnUse"><stop offset="0" style="stop-color:#e1f5fe;stop-opacity:1"/><stop offset=".275" style="stop-color:#d3f0fd;stop-opacity:1"/><stop offset="1" style="stop-color:#b3e5fc;stop-opacity:1"/></linearGradient><linearGradient id="linear7" x1="47.868" x2="47.868" y1="4.484" y2="37.34" gradientTransform="matrix(0.125,0,0,0.125,0,0)" gradientUnits="userSpaceOnUse"><stop offset=".009" style="stop-color:#81d4fa;stop-opacity:1"/><stop offset="1" style="stop-color:#29b6f6;stop-opacity:1"/></linearGradient><linearGradient id="linear8" x1="63.736" x2="96" y1="20.023" y2="20.023" gradientTransform="matrix(0.125,0,0,0.125,0,0)" gradientUnits="userSpaceOnUse"><stop offset=".011" style="stop-color:#4fc3f7;stop-opacity:1"/><stop offset="1" style="stop-color:#29b6f6;stop-opacity:1"/></linearGradient><filter id="alpha" width="100%" height="100%" x="0%" y="0%" filterUnits="objectBoundingBox"><feColorMatrix in="SourceGraphic" type="matrix" values="0 0 0 0 1 0 0 0 0 1 0 0 0 0 1 0 0 0 1 0"/></filter><mask id="mask0"><g filter="url(#alpha)"><rect width="16" height="16" x="0" y="0" style="fill:#000;fill-opacity:.2;stroke:none"/></g></mask><clipPath id="clip1"><rect width="16" height="16" x="0" y="0"/></clipPath><g id="surface5" clip-path="url(#clip1)"><path style="stroke:none;fill-rule:nonzero;fill:#424242;fill-opacity:1" d="M 11.832031 0.875 L 15.023438 4.523438 L 7.972656 14.828125 L 0.96875 4.523438 L 4.171875 0.875 L 11.832031 0.875 M 12.003906 0.5 L 4 0.5 L 0.5 4.492188 L 0.5 4.496094 L 0.503906 4.503906 L 7.972656 15.492188 L 15.492188 4.503906 L 15.5 4.5 L 15.5 4.496094 Z M 12.003906 0.5"/></g></defs><g id="surface1"><path style="stroke:none;fill-rule:nonzero;fill:#81d4fa;fill-opacity:1" d="M 7.980469 15.480469 L 15.492188 4.503906 L 15.5 4.503906 L 15.5 4.5 L 12.003906 0.5 L 4 0.5 L 0.5 4.492188 L 0.5 4.496094 L 0.503906 4.503906 L 7.929688 15.433594 L 7.972656 15.488281 L 7.980469 15.480469 L 7.953125 15.375 Z M 7.980469 15.480469"/><path style="stroke:none;fill-rule:nonzero;fill:url(#linear0)" d="M 7.972656 15.492188 L 0.515625 4.503906 L 4 0.507812 L 12.003906 0.507812 L 15.484375 4.503906 Z M 7.972656 15.492188"/><path style="stroke:none;fill-rule:nonzero;fill:url(#linear1)" d="M 7.972656 15.484375 L 10.945312 4.5 L 4.957031 4.507812 Z M 7.972656 15.484375"/><path style="stroke:none;fill-rule:nonzero;fill:#81d4fa;fill-opacity:1" d="M 10.945312 4.5 L 10.992188 4.5 L 10.957031 4.453125 Z M 10.945312 4.5"/><path style="stroke:none;fill-rule:nonzero;fill:url(#linear2)" d="M 15.5 4.503906 L 10.949219 4.5 L 7.972656 15.488281 Z M 15.5 4.503906"/><path style="stroke:none;fill-rule:nonzero;fill:url(#linear3)" d="M 4.984375 4.574219 L 4.875 4.71875 L 4.984375 4.574219 L 4.960938 4.496094 L 0.519531 4.496094 L 0.515625 4.503906 L 7.972656 15.488281 Z M 4.984375 4.574219"/><path style="stroke:none;fill-rule:nonzero;fill:url(#linear4)" d="M 5 4.5 L 4 0.511719 L 0.46875 4.507812 Z M 5 4.5"/><path style="stroke:none;fill-rule:nonzero;fill:url(#linear5)" d="M 10.96875 4.5 L 11.96875 0.511719 L 15.5 4.507812 Z M 10.96875 4.5"/><path style="stroke:none;fill-rule:nonzero;fill:url(#linear6)" d="M 4.96875 4.5 L 7.96875 0.503906 L 10.945312 4.5 Z M 4.96875 4.5"/><path style="stroke:none;fill-rule:nonzero;fill:url(#linear7)" d="M 8 0.503906 L 5 4.507812 L 3.96875 0.5 Z M 8 0.503906"/><path style="stroke:none;fill-rule:nonzero;fill:url(#linear8)" d="M 7.96875 0.503906 L 10.96875 4.507812 L 12 0.5 Z M 7.96875 0.503906"/><use mask="url(#mask0)" xlink:href="#surface5"/></g></svg>