<svg xmlns="http://www.w3.org/2000/svg" xmlns:xlink="http://www.w3.org/1999/xlink" width="16pt" height="16pt" version="1.1" viewBox="0 0 16 16"><defs><linearGradient id="linear0" x1="64" x2="64" y1="28.939" y2="75.018" gradientTransform="matrix(0.125,0,0,0.125,0,0)" gradientUnits="userSpaceOnUse"><stop offset="0" style="stop-color:#f8981d;stop-opacity:1"/><stop offset=".191" style="stop-color:#f8951d;stop-opacity:1"/><stop offset=".378" style="stop-color:#f68d1e;stop-opacity:1"/><stop offset=".562" style="stop-color:#f47f20;stop-opacity:1"/><stop offset=".59" style="stop-color:#f47c20;stop-opacity:1"/></linearGradient><radialGradient id="radial0" cx="54.048" cy="102.3" r="59.884" fx="54.048" fy="102.3" gradientTransform="matrix(0.125,0,0,0.059225,0,6.729375)" gradientUnits="userSpaceOnUse"><stop offset=".001" style="stop-color:#faa629;stop-opacity:1"/><stop offset=".251" style="stop-color:#faa327;stop-opacity:1"/><stop offset=".496" style="stop-color:#f99b23;stop-opacity:1"/><stop offset=".738" style="stop-color:#f78d1f;stop-opacity:1"/><stop offset=".751" style="stop-color:#f78c1e;stop-opacity:1"/></radialGradient><filter id="alpha" width="100%" height="100%" x="0%" y="0%" filterUnits="objectBoundingBox"><feColorMatrix in="SourceGraphic" type="matrix" values="0 0 0 0 1 0 0 0 0 1 0 0 0 0 1 0 0 0 1 0"/></filter><mask id="mask0"><g filter="url(#alpha)"><rect width="16" height="16" x="0" y="0" style="fill:#000;fill-opacity:.2;stroke:none"/></g></mask><clipPath id="clip1"><rect width="16" height="16" x="0" y="0"/></clipPath><g id="surface5" clip-path="url(#clip1)"><path style="stroke:none;fill-rule:nonzero;fill:#434343;fill-opacity:1" d="M 15.097656 8.226562 C 15.109375 8.671875 15.125 9.398438 15.125 9.648438 C 15.125 10.890625 14.515625 12.039062 13.410156 12.878906 C 12.128906 13.851562 10.257812 14.367188 8 14.367188 C 5.742188 14.367188 3.871094 13.851562 2.589844 12.878906 C 1.484375 12.039062 0.875 10.890625 0.875 9.648438 C 0.875 9.398438 0.886719 8.675781 0.890625 8.226562 Z M 15.464844 7.851562 L 0.523438 7.851562 C 0.523438 7.851562 0.5 9.269531 0.5 9.648438 C 0.5 12.265625 2.96875 14.742188 8 14.742188 C 13.03125 14.742188 15.5 12.265625 15.5 9.648438 C 15.5 9.269531 15.464844 7.851562 15.464844 7.851562 Z M 15.464844 7.851562"/></g><mask id="mask1"><g filter="url(#alpha)"><rect width="16" height="16" x="0" y="0" style="fill:#000;fill-opacity:.2;stroke:none"/></g></mask><clipPath id="clip2"><rect width="16" height="16" x="0" y="0"/></clipPath><g id="surface8" clip-path="url(#clip2)"><path style="stroke:none;fill-rule:nonzero;fill:#4e352e;fill-opacity:1" d="M 15.5 7.078125 C 15.5 4.460938 12.140625 2.339844 8 2.339844 C 3.882812 2.339844 0.542969 4.433594 0.503906 7.027344 C 0.503906 7.105469 0.484375 8.429688 0.53125 8.992188 C 0.554688 9.273438 0.960938 10.8125 1.75 10.621094 C 4.0625 10.058594 4.144531 12.089844 5.679688 12.214844 C 7.433594 12.359375 7.4375 11.167969 8.75 11.121094 C 10.574219 11.054688 10.988281 12.21875 12.472656 11.902344 C 13.800781 11.621094 13.753906 9.664062 14.398438 9.929688 C 15.09375 10.214844 15.457031 9.597656 15.457031 9.597656 C 15.457031 9.597656 15.5 7.832031 15.5 7.078125 Z M 7.960938 3.90625 C 11.3125 3.90625 11.394531 5.550781 11.394531 6.5625 C 11.394531 7.574219 9.582031 8.140625 7.960938 8.140625 C 6.339844 8.140625 4.527344 7.574219 4.527344 6.5625 C 4.527344 5.554688 4.609375 3.90625 7.960938 3.90625 Z M 7.960938 3.90625"/></g><mask id="mask2"><g filter="url(#alpha)"><rect width="16" height="16" x="0" y="0" style="fill:#000;fill-opacity:.2;stroke:none"/></g></mask><clipPath id="clip3"><rect width="16" height="16" x="0" y="0"/></clipPath><g id="surface11" clip-path="url(#clip3)"><path style="stroke:none;fill-rule:nonzero;fill:#434343;fill-opacity:1" d="M 8 4.050781 C 9.554688 4.050781 11.136719 4.566406 12.460938 5.5 C 13.480469 6.222656 14.289062 7.144531 14.738281 8.097656 L 9.761719 8.097656 C 10.304688 7.824219 10.636719 7.421875 10.636719 6.957031 C 10.636719 6.09375 9.488281 5.441406 7.960938 5.441406 C 6.4375 5.441406 5.289062 6.09375 5.289062 6.957031 C 5.289062 7.421875 5.621094 7.824219 6.164062 8.097656 L 1.265625 8.097656 C 1.710938 7.144531 2.519531 6.222656 3.539062 5.5 C 4.863281 4.566406 6.445312 4.050781 8 4.050781 M 8 3.675781 C 4.460938 3.675781 1.496094 6.125 0.707031 8.472656 L 15.292969 8.472656 C 14.503906 6.125 11.539062 3.675781 8 3.675781 Z M 7.960938 8.097656 C 6.691406 8.097656 5.664062 7.585938 5.664062 6.957031 C 5.664062 6.328125 6.691406 5.816406 7.960938 5.816406 C 9.230469 5.816406 10.261719 6.328125 10.261719 6.957031 C 10.261719 7.585938 9.230469 8.097656 7.960938 8.097656 Z M 7.960938 8.097656"/></g><radialGradient id="radial1" cx="63.661" cy="47.552" r="51.811" fx="63.661" fy="47.552" gradientTransform="matrix(0.125,0,0,0.0688875,0,2.668125)" gradientUnits="userSpaceOnUse"><stop offset="0" style="stop-color:#8d6e63;stop-opacity:1"/><stop offset=".353" style="stop-color:#795649;stop-opacity:1"/><stop offset=".524" style="stop-color:#775447;stop-opacity:1"/><stop offset=".691" style="stop-color:#6e4d42;stop-opacity:1"/><stop offset=".857" style="stop-color:#61433a;stop-opacity:1"/><stop offset=".895" style="stop-color:#5d4137;stop-opacity:1"/></radialGradient><mask id="mask3"><g filter="url(#alpha)"><rect width="16" height="16" x="0" y="0" style="fill:#000;fill-opacity:.2;stroke:none"/></g></mask><clipPath id="clip4"><rect width="16" height="16" x="0" y="0"/></clipPath><g id="surface14" clip-path="url(#clip4)"><path style="stroke:none;fill-rule:nonzero;fill:#434343;fill-opacity:1" d="M 7.996094 2.335938 C 9.929688 2.335938 11.742188 2.808594 13.101562 3.667969 C 14.402344 4.488281 15.121094 5.566406 15.121094 6.699219 C 15.121094 7.324219 15.097656 8.652344 15.089844 9.070312 C 15.015625 9.148438 14.886719 9.253906 14.761719 9.253906 C 14.730469 9.253906 14.695312 9.246094 14.660156 9.234375 C 14.546875 9.183594 14.4375 9.160156 14.328125 9.160156 C 13.820312 9.160156 13.589844 9.628906 13.371094 10.082031 C 13.140625 10.558594 12.90625 11.050781 12.390625 11.160156 C 12.246094 11.191406 12.109375 11.203125 11.976562 11.203125 C 11.566406 11.203125 11.238281 11.050781 10.859375 10.871094 C 10.355469 10.632812 9.78125 10.363281 8.890625 10.363281 C 8.839844 10.363281 8.789062 10.367188 8.734375 10.367188 C 8.027344 10.390625 7.628906 10.699219 7.273438 10.96875 C 6.917969 11.238281 6.609375 11.472656 5.957031 11.472656 C 5.878906 11.472656 5.792969 11.46875 5.707031 11.460938 C 5.207031 11.421875 4.890625 11.113281 4.523438 10.757812 C 4.042969 10.292969 3.5 9.765625 2.492188 9.765625 C 2.234375 9.765625 1.953125 9.804688 1.65625 9.875 C 1.644531 9.878906 1.636719 9.878906 1.628906 9.878906 C 1.421875 9.878906 1.078125 9.265625 0.917969 8.601562 C 0.898438 7.847656 0.875 6.738281 0.875 6.652344 C 0.914062 4.273438 4.109375 2.335938 7.996094 2.335938 M 7.996094 1.960938 C 3.878906 1.960938 0.539062 4.054688 0.5 6.652344 C 0.5 6.726562 0.542969 8.652344 0.542969 8.652344 C 0.542969 8.652344 0.917969 10.257812 1.628906 10.257812 C 1.667969 10.257812 1.703125 10.253906 1.746094 10.242188 C 2.027344 10.175781 2.273438 10.144531 2.496094 10.144531 C 4.101562 10.144531 4.328125 11.726562 5.675781 11.835938 C 5.777344 11.847656 5.871094 11.851562 5.957031 11.851562 C 7.433594 11.851562 7.507812 10.789062 8.746094 10.742188 C 8.796875 10.742188 8.84375 10.738281 8.890625 10.738281 C 10.382812 10.738281 10.898438 11.578125 11.976562 11.578125 C 12.128906 11.578125 12.289062 11.5625 12.46875 11.523438 C 13.691406 11.265625 13.691406 9.535156 14.328125 9.535156 C 14.382812 9.535156 14.445312 9.546875 14.511719 9.578125 C 14.597656 9.613281 14.683594 9.628906 14.761719 9.628906 C 15.171875 9.628906 15.460938 9.207031 15.460938 9.207031 C 15.460938 9.207031 15.496094 7.457031 15.496094 6.699219 C 15.496094 4.082031 12.140625 1.960938 7.996094 1.960938 Z M 7.996094 1.960938"/></g></defs><g id="surface1"><path style="stroke:none;fill-rule:nonzero;fill:#fbac35;fill-opacity:1" d="M 0.5 6.929688 L 1.9375 6.929688 L 1.9375 10.027344 L 0.5 10.027344 Z M 0.5 6.929688"/><path style="stroke:none;fill-rule:nonzero;fill:#fbac35;fill-opacity:1" d="M 14.0625 6.929688 L 15.5 6.929688 L 15.5 10.027344 L 14.0625 10.027344 Z M 14.0625 6.929688"/><path style="stroke:none;fill-rule:nonzero;fill:url(#linear0)" d="M 8 3.675781 C 4.460938 3.675781 1.496094 6.125 0.707031 8.472656 L 15.292969 8.472656 C 14.503906 6.125 11.539062 3.675781 8 3.675781 Z M 7.960938 8.097656 C 6.691406 8.097656 5.664062 7.585938 5.664062 6.957031 C 5.664062 6.328125 6.691406 5.816406 7.960938 5.816406 C 9.230469 5.816406 10.261719 6.328125 10.261719 6.957031 C 10.261719 7.585938 9.230469 8.097656 7.960938 8.097656 Z M 7.960938 8.097656"/><path style="stroke:none;fill-rule:nonzero;fill:url(#radial0)" d="M 0.707031 8.472656 C 0.574219 8.871094 0.5 9.269531 0.5 9.648438 C 0.5 12.265625 2.96875 14.742188 8 14.742188 C 13.03125 14.742188 15.5 12.265625 15.5 9.648438 C 15.5 9.269531 15.425781 8.871094 15.292969 8.472656 Z M 0.707031 8.472656"/><use mask="url(#mask0)" xlink:href="#surface5"/><use mask="url(#mask1)" xlink:href="#surface8"/><use mask="url(#mask2)" xlink:href="#surface11"/><path style="stroke:none;fill-rule:nonzero;fill:url(#radial1)" d="M 15.5 6.699219 C 15.5 4.082031 12.140625 1.960938 8 1.960938 C 3.882812 1.960938 0.542969 4.054688 0.503906 6.648438 C 0.503906 6.726562 0.484375 8.050781 0.53125 8.613281 C 0.554688 8.894531 0.960938 10.433594 1.75 10.242188 C 4.0625 9.679688 4.144531 11.710938 5.679688 11.835938 C 7.433594 11.980469 7.4375 10.789062 8.75 10.742188 C 10.574219 10.675781 10.988281 11.839844 12.472656 11.523438 C 13.800781 11.242188 13.753906 9.285156 14.398438 9.550781 C 15.09375 9.835938 15.457031 9.21875 15.457031 9.21875 C 15.457031 9.21875 15.5 7.453125 15.5 6.699219 Z M 7.960938 4.355469 C 9.582031 4.355469 10.894531 5.175781 10.894531 6.183594 C 10.894531 7.195312 9.582031 7.765625 7.960938 7.765625 C 6.339844 7.765625 5.027344 7.195312 5.027344 6.183594 C 5.027344 5.175781 6.339844 4.355469 7.960938 4.355469 Z M 7.960938 4.355469"/><path style="stroke:none;fill-rule:nonzero;fill:#84d2f6;fill-opacity:1" d="M 5.316406 3.886719 L 4.535156 3.589844 C 4.386719 3.53125 4.3125 3.367188 4.367188 3.21875 C 4.425781 3.070312 4.589844 2.996094 4.738281 3.054688 L 5.519531 3.351562 C 5.667969 3.410156 5.742188 3.574219 5.683594 3.722656 C 5.628906 3.871094 5.460938 3.945312 5.316406 3.886719 Z M 5.316406 3.886719"/><path style="stroke:none;fill-rule:nonzero;fill:#ec407a;fill-opacity:1" d="M 6.242188 10.972656 L 5.507812 10.570312 C 5.371094 10.492188 5.320312 10.320312 5.394531 10.179688 C 5.472656 10.042969 5.644531 9.992188 5.785156 10.070312 L 6.515625 10.472656 C 6.65625 10.546875 6.707031 10.722656 6.628906 10.859375 C 6.554688 11 6.378906 11.050781 6.242188 10.972656 Z M 6.242188 10.972656"/><path style="stroke:none;fill-rule:nonzero;fill:#44b3e6;fill-opacity:1" d="M 3.519531 9.46875 L 2.730469 9.742188 C 2.582031 9.796875 2.417969 9.71875 2.363281 9.566406 C 2.3125 9.417969 2.390625 9.253906 2.542969 9.203125 L 3.332031 8.925781 C 3.480469 8.875 3.644531 8.953125 3.695312 9.105469 C 3.75 9.253906 3.671875 9.417969 3.519531 9.46875 Z M 3.519531 9.46875"/><path style="stroke:none;fill-rule:nonzero;fill:#44b3e6;fill-opacity:1" d="M 12.632812 10.113281 L 11.960938 10.613281 C 11.835938 10.710938 11.65625 10.683594 11.5625 10.554688 C 11.464844 10.429688 11.492188 10.25 11.621094 10.15625 L 12.289062 9.65625 C 12.417969 9.5625 12.597656 9.585938 12.691406 9.714844 C 12.785156 9.839844 12.757812 10.019531 12.632812 10.113281 Z M 12.632812 10.113281"/><path style="stroke:none;fill-rule:nonzero;fill:#ec407a;fill-opacity:1" d="M 14.566406 7.726562 L 14.492188 8.371094 C 14.476562 8.488281 14.367188 8.578125 14.25 8.5625 C 14.132812 8.546875 14.046875 8.4375 14.058594 8.320312 L 14.136719 7.675781 C 14.148438 7.554688 14.257812 7.46875 14.378906 7.484375 C 14.496094 7.5 14.582031 7.609375 14.566406 7.726562 Z M 14.566406 7.726562"/><path style="stroke:none;fill-rule:nonzero;fill:#ec407a;fill-opacity:1" d="M 1.148438 7.726562 L 1.613281 8.339844 C 1.664062 8.410156 1.648438 8.507812 1.582031 8.558594 L 1.484375 8.632812 C 1.414062 8.6875 1.316406 8.671875 1.265625 8.601562 L 0.800781 7.984375 C 0.75 7.917969 0.765625 7.820312 0.832031 7.765625 L 0.929688 7.695312 C 1 7.640625 1.097656 7.65625 1.148438 7.726562 Z M 1.148438 7.726562"/><path style="stroke:none;fill-rule:nonzero;fill:#84d2f6;fill-opacity:1" d="M 11.738281 3.976562 L 10.957031 3.675781 C 10.808594 3.621094 10.734375 3.453125 10.792969 3.304688 C 10.847656 3.160156 11.015625 3.085938 11.164062 3.140625 L 11.945312 3.441406 C 12.089844 3.496094 12.164062 3.664062 12.109375 3.808594 C 12.050781 3.957031 11.886719 4.03125 11.738281 3.976562 Z M 11.738281 3.976562"/><path style="stroke:none;fill-rule:nonzero;fill:#f48fb1;fill-opacity:1" d="M 14.070312 4.9375 L 13.449219 5.390625 C 13.320312 5.484375 13.140625 5.457031 13.046875 5.328125 C 12.953125 5.203125 12.984375 5.023438 13.109375 4.929688 L 13.734375 4.476562 C 13.859375 4.382812 14.039062 4.410156 14.132812 4.539062 C 14.226562 4.664062 14.199219 4.84375 14.070312 4.9375 Z M 14.070312 4.9375"/><path style="stroke:none;fill-rule:nonzero;fill:#f48fb1;fill-opacity:1" d="M 8.578125 3.109375 L 7.921875 3.230469 C 7.769531 3.257812 7.617188 3.15625 7.589844 3 C 7.5625 2.84375 7.664062 2.695312 7.820312 2.664062 L 8.476562 2.546875 C 8.628906 2.515625 8.78125 2.617188 8.808594 2.773438 C 8.835938 2.929688 8.734375 3.078125 8.578125 3.109375 Z M 8.578125 3.109375"/><path style="stroke:none;fill-rule:nonzero;fill:#f06392;fill-opacity:1" d="M 10.21875 8.390625 L 10.464844 7.660156 C 10.515625 7.511719 10.675781 7.429688 10.828125 7.480469 C 10.976562 7.53125 11.058594 7.695312 11.007812 7.84375 L 10.761719 8.574219 C 10.710938 8.722656 10.550781 8.804688 10.398438 8.753906 C 10.25 8.703125 10.171875 8.542969 10.21875 8.390625 Z M 10.21875 8.390625"/><path style="stroke:none;fill-rule:nonzero;fill:#f48fb1;fill-opacity:1" d="M 2.746094 5.136719 L 2.121094 5.589844 C 1.996094 5.683594 1.816406 5.65625 1.722656 5.527344 C 1.628906 5.402344 1.65625 5.222656 1.785156 5.128906 L 2.40625 4.675781 C 2.535156 4.582031 2.714844 4.609375 2.808594 4.738281 C 2.898438 4.863281 2.871094 5.046875 2.746094 5.136719 Z M 2.746094 5.136719"/><path style="stroke:none;fill-rule:nonzero;fill:#f48fb1;fill-opacity:1" d="M 3.988281 7.140625 L 3.257812 6.902344 C 3.105469 6.855469 3.023438 6.691406 3.074219 6.542969 C 3.121094 6.390625 3.285156 6.308594 3.433594 6.359375 L 4.167969 6.597656 C 4.316406 6.648438 4.398438 6.808594 4.347656 6.960938 C 4.296875 7.109375 4.136719 7.191406 3.988281 7.140625 Z M 3.988281 7.140625"/><path style="stroke:none;fill-rule:nonzero;fill:#84d2f6;fill-opacity:1" d="M 7.042969 8.738281 L 6.273438 8.742188 C 6.113281 8.742188 5.984375 8.617188 5.984375 8.457031 C 5.984375 8.300781 6.109375 8.171875 6.269531 8.171875 L 7.039062 8.167969 C 7.199219 8.164062 7.328125 8.292969 7.328125 8.453125 C 7.328125 8.609375 7.199219 8.738281 7.042969 8.738281 Z M 7.042969 8.738281"/><path style="stroke:none;fill-rule:nonzero;fill:#84d2f6;fill-opacity:1" d="M 12.691406 7.078125 L 11.960938 6.839844 C 11.808594 6.792969 11.726562 6.628906 11.777344 6.480469 C 11.828125 6.328125 11.988281 6.246094 12.140625 6.296875 L 12.871094 6.535156 C 13.019531 6.585938 13.101562 6.746094 13.050781 6.898438 C 13.003906 7.046875 12.839844 7.128906 12.691406 7.078125 Z M 12.691406 7.078125"/><use mask="url(#mask3)" xlink:href="#surface14"/></g></svg>