<svg xmlns="http://www.w3.org/2000/svg" xmlns:xlink="http://www.w3.org/1999/xlink" width="16pt" height="16pt" version="1.1" viewBox="0 0 16 16"><defs><linearGradient id="linear0" x1="91.244" x2="122.67" y1="41.823" y2="6.63" gradientTransform="matrix(0.00000000000561213,0.125,-0.125,0.00000000000561213,16.34375,-0.368038)" gradientUnits="userSpaceOnUse"><stop offset="0" style="stop-color:#000;stop-opacity:1"/><stop offset="1" style="stop-color:#4d4d4d;stop-opacity:1"/></linearGradient><filter id="alpha" width="100%" height="100%" x="0%" y="0%" filterUnits="objectBoundingBox"><feColorMatrix in="SourceGraphic" type="matrix" values="0 0 0 0 1 0 0 0 0 1 0 0 0 0 1 0 0 0 1 0"/></filter><mask id="mask0"><g filter="url(#alpha)"><rect width="16" height="16" x="0" y="0" style="fill:#000;fill-opacity:.2;stroke:none"/></g></mask><clipPath id="clip1"><rect width="16" height="16" x="0" y="0"/></clipPath><g id="surface5" clip-path="url(#clip1)"><path style="stroke:none;fill-rule:nonzero;fill:#eee;fill-opacity:1" d="M 10.578125 10.203125 L 10.921875 10.542969 C 10.945312 10.566406 10.980469 10.582031 11.019531 10.582031 C 11.054688 10.582031 11.085938 10.570312 11.113281 10.546875 L 11.390625 10.824219 C 11.417969 10.851562 11.453125 10.863281 11.492188 10.863281 L 11.503906 10.863281 C 11.546875 10.863281 11.945312 10.898438 13.214844 12.082031 L 13.457031 12.304688 C 14.730469 13.492188 15.652344 14.347656 15.3125 14.828125 C 15.261719 14.902344 15.191406 14.933594 15.089844 14.933594 C 14.859375 14.933594 14.59375 14.757812 14.59375 14.757812 C 14.589844 14.753906 14.585938 14.753906 14.582031 14.75 C 13.0625 13.902344 11.21875 11.785156 11.117188 11.582031 C 11.085938 11.515625 11.066406 11.453125 11.0625 11.394531 C 11.058594 11.34375 11.019531 11.296875 10.96875 11.277344 C 10.953125 11.269531 10.9375 11.265625 10.921875 11.265625 L 10.910156 11.265625 L 10.652344 11.007812 C 10.671875 10.984375 10.683594 10.949219 10.683594 10.917969 C 10.683594 10.878906 10.667969 10.84375 10.640625 10.820312 L 10.300781 10.480469 L 10.578125 10.203125 M 10.578125 10.003906 L 10.105469 10.480469 L 10.546875 10.917969 L 10.453125 11.007812 L 10.890625 11.441406 L 10.921875 11.40625 C 10.925781 11.472656 10.945312 11.550781 10.992188 11.644531 C 11.109375 11.886719 12.960938 14.007812 14.515625 14.871094 C 14.515625 14.871094 14.8125 15.074219 15.089844 15.074219 C 15.21875 15.074219 15.339844 15.03125 15.425781 14.910156 C 15.859375 14.292969 14.800781 13.367188 13.308594 11.980469 C 12.066406 10.820312 11.617188 10.726562 11.503906 10.726562 L 11.488281 10.726562 L 11.113281 10.347656 L 11.019531 10.441406 Z M 10.578125 10.003906"/></g><mask id="mask1"><g filter="url(#alpha)"><rect width="16" height="16" x="0" y="0" style="fill:#000;fill-opacity:.2;stroke:none"/></g></mask><clipPath id="clip2"><rect width="16" height="16" x="0" y="0"/></clipPath><g id="surface8" clip-path="url(#clip2)"><path style="stroke:none;fill-rule:nonzero;fill:#eee;fill-opacity:1" d="M 6.222656 0.925781 C 9.277344 0.925781 11.761719 3.414062 11.761719 6.46875 C 11.761719 9.523438 9.277344 12.007812 6.222656 12.007812 C 3.167969 12.007812 0.683594 9.523438 0.683594 6.46875 C 0.683594 3.414062 3.167969 0.925781 6.222656 0.925781 M 6.222656 0.789062 C 3.085938 0.789062 0.542969 3.332031 0.542969 6.46875 C 0.542969 9.605469 3.085938 12.148438 6.222656 12.148438 C 9.359375 12.148438 11.902344 9.605469 11.902344 6.46875 C 11.902344 3.332031 9.359375 0.789062 6.222656 0.789062 Z M 6.222656 0.789062"/></g><radialGradient id="radial0" cx="54.857" cy="81.09" r="28.39" fx="54.857" fy="81.09" gradientTransform="matrix(0.00000000000561213,0.125,-0.125,0.00000000000561213,16.34375,-0.368038)" gradientUnits="userSpaceOnUse"><stop offset="0" style="stop-color:#fff;stop-opacity:1"/><stop offset=".479" style="stop-color:#fdfdfd;stop-opacity:1"/><stop offset=".69" style="stop-color:#f8f6f6;stop-opacity:1"/><stop offset=".849" style="stop-color:#eeebe9;stop-opacity:1"/><stop offset=".981" style="stop-color:#e1dad7;stop-opacity:1"/><stop offset="1" style="stop-color:#ded7d4;stop-opacity:1"/></radialGradient><mask id="mask2"><g filter="url(#alpha)"><rect width="16" height="16" x="0" y="0" style="fill:#000;fill-opacity:.431373;stroke:none"/></g></mask><clipPath id="clip3"><rect width="16" height="16" x="0" y="0"/></clipPath><g id="surface11" clip-path="url(#clip3)"><path style="stroke:none;fill-rule:nonzero;fill:#e6ddd6;fill-opacity:1" d="M 6.226562 4.445312 C 7.4375 4.445312 8.21875 5.175781 8.21875 6.386719 C 8.21875 7.597656 7.625 8.105469 6.441406 8.355469 C 5.207031 8.617188 4.164062 7.574219 4.164062 6.363281 C 4.164062 5.152344 5.015625 4.445312 6.226562 4.445312 Z M 6.226562 4.445312"/></g><radialGradient id="radial1" cx="41.607" cy="46.81" r="18.766" fx="41.607" fy="46.81" gradientTransform="matrix(0.125,0,0,0.125,0,0)" gradientUnits="userSpaceOnUse"><stop offset=".005" style="stop-color:#fdbf00;stop-opacity:1"/><stop offset=".167" style="stop-color:#fcb70b;stop-opacity:1"/><stop offset=".555" style="stop-color:#fba822;stop-opacity:1"/><stop offset=".803" style="stop-color:#faa32a;stop-opacity:1"/><stop offset="1" style="stop-color:#fc923b;stop-opacity:1"/></radialGradient></defs><g id="surface1"><path style="stroke:none;fill-rule:nonzero;fill:#343434;fill-opacity:1" d="M 11.113281 10.339844 L 11.546875 10.773438 L 10.886719 11.433594 L 10.453125 11 Z M 11.113281 10.339844"/><path style="stroke:none;fill-rule:nonzero;fill:#212121;fill-opacity:1" d="M 10.582031 9.996094 L 11.074219 10.492188 L 10.601562 10.964844 L 10.105469 10.46875 Z M 10.582031 9.996094"/><path style="stroke:none;fill-rule:nonzero;fill:url(#linear0)" d="M 15.425781 14.898438 C 15.859375 14.285156 14.800781 13.355469 13.308594 11.96875 C 11.820312 10.582031 11.472656 10.71875 11.472656 10.71875 L 10.941406 11.234375 C 10.941406 11.234375 10.871094 11.390625 10.992188 11.632812 C 11.109375 11.871094 12.960938 13.996094 14.515625 14.859375 C 14.515625 14.863281 15.148438 15.292969 15.425781 14.898438 Z M 14.808594 14.566406 C 14.808594 14.449219 14.902344 14.355469 15.019531 14.355469 C 15.140625 14.355469 15.234375 14.449219 15.234375 14.566406 C 15.234375 14.683594 15.140625 14.777344 15.019531 14.777344 C 14.902344 14.777344 14.808594 14.683594 14.808594 14.566406 Z M 14.808594 14.566406"/><use mask="url(#mask0)" xlink:href="#surface5"/><path style="stroke:none;fill-rule:nonzero;fill:#252525;fill-opacity:1" d="M 11.902344 6.46875 C 11.902344 9.605469 9.359375 12.148438 6.222656 12.148438 C 3.085938 12.148438 0.542969 9.605469 0.542969 6.46875 C 0.542969 3.332031 3.085938 0.789062 6.222656 0.789062 C 9.359375 0.789062 11.902344 3.332031 11.902344 6.46875 Z M 11.902344 6.46875"/><use mask="url(#mask1)" xlink:href="#surface8"/><path style="stroke:none;fill-rule:nonzero;fill:#575757;fill-opacity:1" d="M 10.757812 6.46875 C 10.757812 8.972656 8.726562 11.003906 6.222656 11.003906 C 3.71875 11.003906 1.6875 8.972656 1.6875 6.46875 C 1.6875 3.960938 3.71875 1.933594 6.222656 1.933594 C 8.726562 1.933594 10.757812 3.960938 10.757812 6.46875 Z M 10.757812 6.46875"/><path style="stroke:none;fill-rule:nonzero;fill:url(#radial0)" d="M 6.492188 2.960938 C 5.832031 2.839844 5.175781 3.136719 4.570312 3.425781 C 4 3.695312 3.390625 4.003906 3.09375 4.558594 C 2.78125 5.152344 2.894531 5.867188 2.785156 6.527344 C 2.71875 6.925781 2.574219 7.355469 2.753906 7.71875 C 2.894531 8.003906 3.210938 8.167969 3.367188 8.445312 C 3.484375 8.660156 3.496094 8.917969 3.574219 9.148438 C 3.679688 9.480469 3.925781 9.761719 4.234375 9.914062 C 4.546875 10.066406 4.917969 10.085938 5.246094 9.96875 C 5.554688 9.859375 5.832031 9.632812 6.160156 9.628906 C 6.386719 9.628906 6.597656 9.734375 6.824219 9.773438 C 7.171875 9.828125 7.53125 9.703125 7.820312 9.496094 C 8.109375 9.292969 8.332031 9.007812 8.539062 8.71875 C 8.742188 8.429688 8.933594 8.132812 9.125 7.832031 C 9.304688 7.550781 9.484375 7.265625 9.601562 6.953125 C 9.84375 6.304688 9.785156 5.546875 9.445312 4.941406 C 9.121094 4.363281 8.621094 4.058594 8.027344 3.8125 C 7.472656 3.585938 7.125 3.074219 6.492188 2.960938 Z M 6.492188 2.960938"/><path style="stroke:none;fill-rule:nonzero;fill:#a3a3a3;fill-opacity:1" d="M 4.042969 4.875 C 4.007812 4.859375 3.957031 4.867188 3.933594 4.898438 C 3.90625 4.929688 3.90625 4.984375 3.933594 5.011719 C 3.960938 5.042969 4.015625 5.046875 4.042969 5.019531 C 4.074219 4.992188 4.078125 4.9375 4.046875 4.910156"/><path style="stroke:none;fill-rule:nonzero;fill:#a3a3a3;fill-opacity:1" d="M 4.050781 4.453125 C 4 4.453125 3.945312 4.488281 3.929688 4.542969 C 3.914062 4.59375 3.949219 4.660156 4.003906 4.660156 C 4.050781 4.664062 4.089844 4.625 4.097656 4.582031 C 4.109375 4.539062 4.089844 4.492188 4.066406 4.453125"/><path style="stroke:none;fill-rule:nonzero;fill:#a3a3a3;fill-opacity:1" d="M 4.226562 4.257812 C 4.199219 4.242188 4.15625 4.265625 4.15625 4.300781 C 4.15625 4.332031 4.199219 4.359375 4.226562 4.34375 C 4.257812 4.328125 4.261719 4.28125 4.234375 4.261719"/><path style="stroke:none;fill-rule:nonzero;fill:#a3a3a3;fill-opacity:1" d="M 4.503906 3.988281 C 4.472656 3.957031 4.40625 3.976562 4.398438 4.019531 C 4.390625 4.066406 4.4375 4.109375 4.480469 4.097656 C 4.523438 4.085938 4.546875 4.027344 4.523438 3.988281"/><path style="stroke:none;fill-rule:nonzero;fill:#a3a3a3;fill-opacity:1" d="M 5.007812 3.816406 C 4.976562 3.804688 4.9375 3.832031 4.941406 3.867188 C 4.949219 3.898438 4.996094 3.914062 5.019531 3.890625 C 5.039062 3.863281 5.015625 3.816406 4.984375 3.820312"/><path style="stroke:none;fill-rule:nonzero;fill:#a3a3a3;fill-opacity:1" d="M 3.546875 7.335938 C 3.59375 7.367188 3.609375 7.4375 3.578125 7.484375 C 3.546875 7.535156 3.476562 7.550781 3.425781 7.523438 C 3.378906 7.496094 3.359375 7.425781 3.382812 7.375 C 3.410156 7.324219 3.476562 7.300781 3.527344 7.324219"/><path style="stroke:none;fill-rule:nonzero;fill:#a3a3a3;fill-opacity:1" d="M 3.617188 7.644531 C 3.59375 7.609375 3.53125 7.609375 3.511719 7.648438 C 3.492188 7.6875 3.523438 7.738281 3.566406 7.738281 C 3.609375 7.738281 3.640625 7.683594 3.617188 7.648438"/><path style="stroke:none;fill-rule:nonzero;fill:#a3a3a3;fill-opacity:1" d="M 3.816406 8.167969 C 3.785156 8.128906 3.71875 8.125 3.683594 8.160156 C 3.648438 8.195312 3.652344 8.261719 3.691406 8.292969 C 3.730469 8.324219 3.796875 8.3125 3.820312 8.269531 C 3.847656 8.226562 3.824219 8.164062 3.78125 8.144531"/><path style="stroke:none;fill-rule:nonzero;fill:#a3a3a3;fill-opacity:1" d="M 3.445312 5.964844 C 3.402344 5.953125 3.355469 5.976562 3.339844 6.015625 C 3.324219 6.058594 3.347656 6.109375 3.386719 6.121094 C 3.429688 6.136719 3.480469 6.109375 3.484375 6.0625 C 3.488281 6.03125 3.46875 6 3.445312 5.984375 C 3.417969 5.964844 3.386719 5.957031 3.355469 5.957031"/><path style="stroke:none;fill-rule:nonzero;fill:#a3a3a3;fill-opacity:1" d="M 3.21875 6.277344 C 3.195312 6.277344 3.171875 6.277344 3.144531 6.277344 C 3.128906 6.292969 3.132812 6.328125 3.15625 6.339844 C 3.175781 6.351562 3.207031 6.332031 3.210938 6.308594 C 3.214844 6.285156 3.1875 6.261719 3.160156 6.265625"/><path style="stroke:none;fill-rule:nonzero;fill:#a3a3a3;fill-opacity:1" d="M 3.144531 6.40625 C 3.125 6.382812 3.082031 6.386719 3.066406 6.414062 C 3.050781 6.441406 3.070312 6.480469 3.097656 6.484375 C 3.125 6.484375 3.152344 6.457031 3.144531 6.429688 C 3.140625 6.40625 3.105469 6.390625 3.078125 6.402344"/><path style="stroke:none;fill-rule:nonzero;fill:#a3a3a3;fill-opacity:1" d="M 3.195312 6.628906 C 3.179688 6.609375 3.144531 6.609375 3.128906 6.632812 C 3.113281 6.652344 3.117188 6.683594 3.136719 6.699219 C 3.171875 6.703125 3.199219 6.65625 3.175781 6.628906"/><path style="stroke:none;fill-rule:nonzero;fill:#a3a3a3;fill-opacity:1" d="M 5.464844 3.945312 C 5.421875 3.925781 5.367188 3.953125 5.355469 3.996094 C 5.34375 4.039062 5.378906 4.089844 5.421875 4.097656 C 5.46875 4.101562 5.511719 4.058594 5.507812 4.011719 C 5.503906 3.96875 5.449219 3.933594 5.40625 3.953125"/><path style="stroke:none;fill-rule:nonzero;fill:#a3a3a3;fill-opacity:1" d="M 5.617188 3.753906 C 5.59375 3.738281 5.554688 3.761719 5.550781 3.789062 C 5.546875 3.820312 5.578125 3.847656 5.605469 3.84375 C 5.636719 3.84375 5.660156 3.8125 5.660156 3.785156 C 5.65625 3.753906 5.632812 3.726562 5.605469 3.722656"/><path style="stroke:none;fill-rule:nonzero;fill:#a3a3a3;fill-opacity:1" d="M 8.996094 7.046875 C 8.964844 7.019531 8.910156 7.035156 8.890625 7.070312 C 8.867188 7.105469 8.871094 7.152344 8.898438 7.183594 C 8.921875 7.214844 8.957031 7.234375 8.992188 7.230469 C 9.027344 7.226562 9.0625 7.203125 9.074219 7.167969 C 9.082031 7.132812 9.0625 7.089844 9.027344 7.078125"/><path style="stroke:none;fill-rule:nonzero;fill:#a3a3a3;fill-opacity:1" d="M 9.0625 7.320312 C 9.019531 7.304688 8.96875 7.34375 8.96875 7.386719 C 8.964844 7.433594 9.015625 7.472656 9.0625 7.457031 C 9.105469 7.445312 9.125 7.382812 9.097656 7.347656"/><path style="stroke:none;fill-rule:nonzero;fill:#a3a3a3;fill-opacity:1" d="M 9.046875 7.621094 C 9.023438 7.59375 8.976562 7.589844 8.953125 7.617188 C 8.929688 7.644531 8.941406 7.695312 8.972656 7.710938 C 9.007812 7.726562 9.050781 7.703125 9.054688 7.667969"/><path style="stroke:none;fill-rule:nonzero;fill:#a3a3a3;fill-opacity:1" d="M 8.667969 7.808594 C 8.644531 7.789062 8.601562 7.796875 8.59375 7.828125 C 8.582031 7.855469 8.609375 7.890625 8.640625 7.886719 C 8.671875 7.882812 8.691406 7.84375 8.675781 7.820312 C 8.671875 7.816406 8.664062 7.816406 8.660156 7.816406"/><path style="stroke:none;fill-rule:nonzero;fill:#a3a3a3;fill-opacity:1" d="M 8.203125 8.125 C 8.167969 8.097656 8.109375 8.121094 8.105469 8.164062 C 8.097656 8.203125 8.144531 8.246094 8.183594 8.230469 C 8.226562 8.214844 8.238281 8.152344 8.203125 8.125"/><path style="stroke:none;fill-rule:nonzero;fill:#a3a3a3;fill-opacity:1" d="M 9.179688 5.296875 C 9.15625 5.265625 9.109375 5.253906 9.078125 5.269531 C 9.042969 5.285156 9.023438 5.328125 9.039062 5.363281 C 9.050781 5.398438 9.09375 5.421875 9.128906 5.40625 C 9.164062 5.390625 9.179688 5.339844 9.15625 5.3125"/><use mask="url(#mask2)" xlink:href="#surface11"/><path style="stroke:none;fill-rule:nonzero;fill:url(#radial1)" d="M 8.027344 6.375 C 8.027344 7.363281 7.226562 8.164062 6.238281 8.164062 C 5.25 8.164062 4.449219 7.363281 4.449219 6.375 C 4.449219 5.386719 5.25 4.585938 6.238281 4.585938 C 7.226562 4.585938 8.027344 5.386719 8.027344 6.375 Z M 8.027344 6.375"/></g></svg>