<svg xmlns="http://www.w3.org/2000/svg" xmlns:xlink="http://www.w3.org/1999/xlink" width="16pt" height="16pt" version="1.1" viewBox="0 0 16 16"><defs><linearGradient id="linear0" x1="64" x2="64" y1="19.717" y2="107.7" gradientTransform="matrix(0.125,0,0,0.125,0,0)" gradientUnits="userSpaceOnUse"><stop offset=".5" style="stop-color:#fee133;stop-opacity:1"/><stop offset=".612" style="stop-color:#fede32;stop-opacity:1"/><stop offset=".708" style="stop-color:#fcd32f;stop-opacity:1"/><stop offset=".797" style="stop-color:#fac12b;stop-opacity:1"/><stop offset=".883" style="stop-color:#f7a924;stop-opacity:1"/><stop offset=".9" style="stop-color:#f6a323;stop-opacity:1"/></linearGradient><filter id="alpha" width="100%" height="100%" x="0%" y="0%" filterUnits="objectBoundingBox"><feColorMatrix in="SourceGraphic" type="matrix" values="0 0 0 0 1 0 0 0 0 1 0 0 0 0 1 0 0 0 1 0"/></filter><mask id="mask0"><g filter="url(#alpha)"><rect width="16" height="16" x="0" y="0" style="fill:#000;fill-opacity:.8;stroke:none"/></g></mask><radialGradient id="radial0" cx="25.701" cy="65.316" r="19.444" fx="25.701" fy="65.316" gradientTransform="matrix(0.122388,0,0,0.116263,0.260887,0.926475)" gradientUnits="userSpaceOnUse"><stop offset="0" style="stop-color:#ed7770;stop-opacity:1"/><stop offset=".9" style="stop-color:#ed7770;stop-opacity:0"/></radialGradient><clipPath id="clip1"><rect width="16" height="16" x="0" y="0"/></clipPath><g id="surface5" clip-path="url(#clip1)"><path style="stroke:none;fill-rule:nonzero;fill:url(#radial0)" d="M 5.59375 8.519531 C 5.59375 9.726562 4.613281 10.707031 3.40625 10.707031 C 2.199219 10.707031 1.21875 9.726562 1.21875 8.519531 C 1.21875 7.3125 2.199219 6.332031 3.40625 6.332031 C 4.613281 6.332031 5.59375 7.3125 5.59375 8.519531 Z M 5.59375 8.519531"/></g><mask id="mask1"><g filter="url(#alpha)"><rect width="16" height="16" x="0" y="0" style="fill:#000;fill-opacity:.8;stroke:none"/></g></mask><radialGradient id="radial1" cx="100.77" cy="65.316" r="19.444" fx="100.77" fy="65.316" gradientTransform="matrix(0.122388,0,0,0.116263,0.260887,0.926475)" gradientUnits="userSpaceOnUse"><stop offset="0" style="stop-color:#ed7770;stop-opacity:1"/><stop offset=".9" style="stop-color:#ed7770;stop-opacity:0"/></radialGradient><clipPath id="clip2"><rect width="16" height="16" x="0" y="0"/></clipPath><g id="surface8" clip-path="url(#clip2)"><path style="stroke:none;fill-rule:nonzero;fill:url(#radial1)" d="M 14.78125 8.519531 C 14.78125 9.726562 13.800781 10.707031 12.59375 10.707031 C 11.386719 10.707031 10.40625 9.726562 10.40625 8.519531 C 10.40625 7.3125 11.386719 6.332031 12.59375 6.332031 C 13.800781 6.332031 14.78125 7.3125 14.78125 8.519531 Z M 14.78125 8.519531"/></g><radialGradient id="radial2" cx="92.422" cy="70.397" r="57.806" fx="92.422" fy="70.397" gradientTransform="matrix(-0.5231,-0.8522,-0.8522,0.5231,187.66,122.43)" gradientUnits="userSpaceOnUse"><stop offset=".668" style="stop-color:#fee133;stop-opacity:1"/><stop offset=".872" style="stop-color:#f9b928;stop-opacity:1"/></radialGradient></defs><g id="surface1"><path style="stroke:none;fill-rule:nonzero;fill:url(#linear0)" d="M 8 14.984375 C 4.507812 14.984375 0.75 12.800781 0.75 8 C 0.75 3.199219 4.507812 1.015625 8 1.015625 C 9.933594 1.015625 11.726562 1.652344 13.046875 2.816406 C 14.488281 4.089844 15.25 5.882812 15.25 8 C 15.25 10.109375 14.488281 11.894531 13.046875 13.171875 C 11.722656 14.34375 9.929688 14.984375 8 14.984375 Z M 8 14.984375"/><path style="stroke:none;fill-rule:nonzero;fill:#eb8f00;fill-opacity:1" d="M 8 1.265625 C 9.875 1.265625 11.609375 1.882812 12.878906 3.003906 C 14.265625 4.230469 15 5.957031 15 8 C 15 10.035156 14.265625 11.757812 12.878906 12.984375 C 11.601562 14.113281 9.871094 14.734375 8 14.734375 C 6.121094 14.734375 4.386719 14.121094 3.121094 13.007812 C 1.734375 11.789062 1 10.058594 1 8 C 1 5.933594 1.734375 4.199219 3.121094 2.980469 C 4.382812 1.875 6.117188 1.265625 8 1.265625 M 8 0.765625 C 4.105469 0.765625 0.5 3.265625 0.5 8 C 0.5 12.710938 4.105469 15.234375 8 15.234375 C 11.894531 15.234375 15.5 12.644531 15.5 8 C 15.5 3.328125 11.894531 0.765625 8 0.765625 Z M 8 0.765625"/><use mask="url(#mask0)" xlink:href="#surface5"/><use mask="url(#mask1)" xlink:href="#surface8"/><path style="fill-rule:nonzero;fill:url(#radial2);stroke-width:4;stroke-linecap:round;stroke-linejoin:round;stroke:#eb8f00;stroke-opacity:1;stroke-miterlimit:10" d="M 45.71875 57.40625 C 48.25 56.875 50.28125 60.875 50.75 62.8125 C 52 67.8125 48.21875 70.59375 47.46875 75.125 C 47.3125 76.125 47.5625 77.375 48.375 76.78125 C 48.71875 76.5 73.09375 61.84375 73.09375 61.84375 C 75.75 60.21875 78.875 60.5 80.5 63.125 C 82.125 65.78125 80.96875 68.71875 78.3125 70.34375 L 59.96875 81.9375 L 84.9375 67.03125 C 87.59375 65.40625 90.75 65.6875 92.375 68.34375 C 94 70.96875 92.84375 73.90625 90.15625 75.53125 L 65.40625 91.15625 L 85.8125 79 C 88.46875 77.375 91.625 77.65625 93.25 80.28125 C 94.875 82.9375 93.6875 85.875 91.03125 87.5 L 70.875 100.3125 L 83.3125 93 C 85.96875 91.375 89.09375 91.65625 90.71875 94.3125 C 92.34375 96.9375 90.875 99.34375 88.21875 100.96875 C 88.21875 100.96875 57.65625 119.21875 54.71875 120.59375 C 49.875 122.875 39.625 125.65625 30.6875 111.125 C 19.1875 92.375 29.84375 84.71875 32.75 79.9375 C 35.0625 76.1875 37.96875 72.40625 39.90625 68.3125 C 41.625 64.71875 41.125 58.34375 45.71875 57.40625 Z M 45.71875 57.40625" transform="matrix(0.125,0,0,0.125,0,0)"/><path style="stroke:none;fill-rule:nonzero;fill:#242424;fill-opacity:1" d="M 6.195312 6.140625 C 6.195312 6.140625 6.1875 6.132812 6.175781 6.113281 C 6.164062 6.097656 6.144531 6.078125 6.121094 6.046875 C 6.105469 6.027344 6.082031 6.003906 6.054688 5.976562 C 6.027344 5.945312 5.996094 5.914062 5.964844 5.882812 C 5.929688 5.851562 5.894531 5.820312 5.859375 5.792969 C 5.824219 5.765625 5.785156 5.742188 5.753906 5.726562 C 5.722656 5.703125 5.691406 5.699219 5.671875 5.695312 C 5.664062 5.691406 5.652344 5.691406 5.644531 5.6875 C 5.640625 5.691406 5.640625 5.6875 5.636719 5.6875 L 5.628906 5.691406 L 5.625 5.691406 C 5.640625 5.691406 5.59375 5.691406 5.660156 5.6875 L 5.589844 5.691406 C 5.574219 5.691406 5.585938 5.691406 5.585938 5.691406 C 5.589844 5.691406 5.59375 5.691406 5.59375 5.691406 C 5.605469 5.6875 5.59375 5.691406 5.59375 5.691406 C 5.589844 5.691406 5.582031 5.691406 5.578125 5.695312 C 5.558594 5.703125 5.527344 5.707031 5.496094 5.726562 C 5.464844 5.742188 5.425781 5.765625 5.390625 5.792969 C 5.359375 5.820312 5.320312 5.851562 5.289062 5.882812 C 5.222656 5.949219 5.164062 6.011719 5.125 6.058594 C 5.082031 6.105469 5.0625 6.132812 5.0625 6.132812 L 5.03125 6.167969 C 4.859375 6.367188 4.546875 6.398438 4.328125 6.242188 C 4.183594 6.136719 4.117188 5.96875 4.144531 5.808594 C 4.144531 5.808594 4.15625 5.757812 4.179688 5.667969 C 4.207031 5.578125 4.25 5.453125 4.335938 5.304688 C 4.421875 5.15625 4.546875 4.984375 4.757812 4.824219 C 4.863281 4.746094 4.988281 4.667969 5.140625 4.617188 C 5.175781 4.601562 5.214844 4.589844 5.253906 4.578125 C 5.296875 4.570312 5.328125 4.558594 5.382812 4.550781 L 5.460938 4.539062 C 5.484375 4.539062 5.519531 4.535156 5.523438 4.535156 L 5.59375 4.527344 L 5.660156 4.527344 L 5.691406 4.53125 L 5.757812 4.535156 C 5.796875 4.539062 5.839844 4.546875 5.882812 4.550781 C 5.960938 4.566406 6.042969 4.585938 6.117188 4.613281 C 6.265625 4.667969 6.394531 4.742188 6.496094 4.824219 C 6.707031 4.980469 6.832031 5.15625 6.921875 5.300781 C 6.964844 5.375 6.996094 5.445312 7.019531 5.507812 C 7.046875 5.566406 7.066406 5.628906 7.078125 5.675781 C 7.09375 5.71875 7.09375 5.742188 7.101562 5.765625 C 7.105469 5.785156 7.105469 5.796875 7.105469 5.796875 C 7.152344 6.046875 6.964844 6.289062 6.691406 6.328125 C 6.492188 6.359375 6.304688 6.28125 6.195312 6.140625 Z M 6.195312 6.140625"/><path style="stroke:none;fill-rule:nonzero;fill:#242424;fill-opacity:1" d="M 10.882812 6.140625 C 10.882812 6.140625 10.875 6.132812 10.863281 6.113281 C 10.851562 6.097656 10.832031 6.078125 10.808594 6.046875 C 10.792969 6.027344 10.769531 6.003906 10.742188 5.976562 C 10.714844 5.945312 10.683594 5.914062 10.652344 5.882812 C 10.617188 5.851562 10.582031 5.820312 10.546875 5.792969 C 10.511719 5.765625 10.472656 5.742188 10.441406 5.726562 C 10.410156 5.703125 10.378906 5.699219 10.359375 5.695312 C 10.351562 5.691406 10.339844 5.691406 10.332031 5.6875 C 10.328125 5.691406 10.328125 5.6875 10.324219 5.6875 L 10.316406 5.691406 L 10.3125 5.691406 C 10.328125 5.691406 10.277344 5.691406 10.347656 5.6875 L 10.277344 5.691406 C 10.261719 5.691406 10.269531 5.691406 10.273438 5.691406 C 10.277344 5.691406 10.277344 5.691406 10.28125 5.691406 C 10.292969 5.6875 10.28125 5.691406 10.277344 5.691406 C 10.273438 5.691406 10.269531 5.691406 10.265625 5.695312 C 10.246094 5.703125 10.214844 5.707031 10.183594 5.726562 C 10.152344 5.742188 10.113281 5.765625 10.078125 5.792969 C 10.042969 5.820312 10.007812 5.851562 9.972656 5.882812 C 9.910156 5.949219 9.851562 6.011719 9.8125 6.058594 C 9.769531 6.105469 9.746094 6.132812 9.746094 6.132812 L 9.71875 6.167969 C 9.546875 6.367188 9.234375 6.398438 9.015625 6.242188 C 8.867188 6.136719 8.804688 5.96875 8.832031 5.808594 C 8.832031 5.808594 8.839844 5.757812 8.867188 5.667969 C 8.890625 5.578125 8.9375 5.453125 9.023438 5.304688 C 9.109375 5.15625 9.234375 4.984375 9.445312 4.824219 C 9.546875 4.746094 9.675781 4.667969 9.824219 4.617188 C 9.859375 4.601562 9.898438 4.589844 9.941406 4.578125 C 9.980469 4.570312 10.015625 4.558594 10.070312 4.550781 L 10.148438 4.539062 C 10.171875 4.539062 10.207031 4.535156 10.210938 4.535156 L 10.28125 4.527344 L 10.347656 4.527344 L 10.378906 4.53125 L 10.441406 4.535156 C 10.484375 4.539062 10.527344 4.546875 10.566406 4.550781 C 10.648438 4.566406 10.730469 4.585938 10.804688 4.613281 C 10.953125 4.667969 11.078125 4.742188 11.183594 4.824219 C 11.394531 4.980469 11.519531 5.15625 11.605469 5.300781 C 11.648438 5.375 11.683594 5.445312 11.707031 5.507812 C 11.734375 5.566406 11.75 5.628906 11.765625 5.675781 C 11.78125 5.71875 11.78125 5.742188 11.785156 5.765625 C 11.789062 5.785156 11.792969 5.796875 11.792969 5.796875 C 11.835938 6.046875 11.652344 6.289062 11.378906 6.328125 C 11.179688 6.359375 10.988281 6.28125 10.882812 6.140625 Z M 10.882812 6.140625"/></g></svg>