<svg xmlns="http://www.w3.org/2000/svg" xmlns:xlink="http://www.w3.org/1999/xlink" width="16pt" height="16pt" version="1.1" viewBox="0 0 16 16"><defs><linearGradient id="linear0" x1="64" x2="64" y1="88.452" y2="31.207" gradientTransform="matrix(0.125,0,0,0.125,0,0)" gradientUnits="userSpaceOnUse"><stop offset=".228" style="stop-color:#fb8c00;stop-opacity:1"/><stop offset=".714" style="stop-color:#ef6c00;stop-opacity:1"/></linearGradient><linearGradient id="linear1" x1="64" x2="64" y1="121.87" y2="65.176" gradientTransform="matrix(0.125,0,0,0.125,0,0)" gradientUnits="userSpaceOnUse"><stop offset="0" style="stop-color:#ffb300;stop-opacity:1"/><stop offset=".025" style="stop-color:#ffb504;stop-opacity:1"/><stop offset=".311" style="stop-color:#ffce28;stop-opacity:1"/><stop offset=".577" style="stop-color:#ffe042;stop-opacity:1"/><stop offset=".815" style="stop-color:#ffea52;stop-opacity:1"/><stop offset="1" style="stop-color:#ffee58;stop-opacity:1"/></linearGradient><filter id="alpha" width="100%" height="100%" x="0%" y="0%" filterUnits="objectBoundingBox"><feColorMatrix in="SourceGraphic" type="matrix" values="0 0 0 0 1 0 0 0 0 1 0 0 0 0 1 0 0 0 1 0"/></filter><mask id="mask0"><g filter="url(#alpha)"><rect width="16" height="16" x="0" y="0" style="fill:#000;fill-opacity:.2;stroke:none"/></g></mask><clipPath id="clip1"><rect width="16" height="16"/></clipPath><g id="surface6" clip-path="url(#clip1)"><path style="stroke:none;fill-rule:nonzero;fill:#424242;fill-opacity:1" d="M 9.074219 1.34375 C 9.0625 1.679688 9.082031 2.097656 9.167969 2.585938 C 9.277344 3.226562 9.730469 4.085938 10.160156 4.847656 C 11.136719 6.574219 10.613281 8.117188 10.59375 8.179688 C 10.507812 8.421875 10.613281 8.6875 10.847656 8.800781 C 10.917969 8.832031 10.988281 8.847656 11.0625 8.847656 C 11.230469 8.847656 11.394531 8.761719 11.488281 8.609375 C 11.492188 8.601562 11.953125 7.851562 12.515625 6.917969 C 12.570312 6.832031 12.625 6.753906 12.679688 6.675781 C 12.667969 6.8125 12.65625 6.960938 12.644531 7.121094 C 12.605469 7.769531 12.722656 8.414062 12.835938 9.039062 C 12.960938 9.71875 13.089844 10.425781 13.007812 11.132812 C 12.796875 12.890625 10.921875 14.523438 9.382812 14.808594 C 8.917969 14.890625 8.511719 14.933594 8.132812 14.933594 C 7.308594 14.933594 6.578125 14.738281 5.828125 14.324219 C 4.890625 13.800781 4.128906 13.007812 3.621094 12.035156 C 3.152344 11.132812 2.921875 10.09375 2.972656 9.109375 C 3.007812 8.402344 3.226562 7.664062 3.472656 7.050781 C 3.882812 8.199219 4.835938 8.8125 4.890625 8.847656 C 4.972656 8.898438 5.066406 8.921875 5.160156 8.921875 C 5.257812 8.921875 5.359375 8.894531 5.445312 8.835938 C 5.609375 8.722656 5.6875 8.519531 5.648438 8.324219 C 5.644531 8.296875 5.121094 5.648438 6.410156 3.6875 C 7.210938 2.464844 8.332031 1.730469 9.074219 1.34375 M 9.691406 0.527344 C 9.691406 0.527344 7.40625 1.257812 5.988281 3.414062 C 4.574219 5.570312 5.160156 8.425781 5.160156 8.425781 C 5.160156 8.425781 3.410156 7.328125 3.863281 5.296875 C 3.867188 5.277344 3.867188 5.269531 3.859375 5.269531 C 3.765625 5.269531 2.5625 7.261719 2.472656 9.085938 C 2.367188 11.207031 3.421875 13.554688 5.585938 14.761719 C 6.472656 15.257812 7.308594 15.433594 8.132812 15.433594 C 8.578125 15.433594 9.023438 15.382812 9.472656 15.300781 C 11.238281 14.976562 13.269531 13.164062 13.503906 11.191406 C 13.675781 9.75 13.066406 8.4375 13.144531 7.152344 C 13.234375 5.699219 13.503906 5.308594 13.503906 5.308594 C 13.503906 5.308594 12.664062 5.714844 12.089844 6.660156 C 11.519531 7.605469 11.0625 8.347656 11.0625 8.347656 C 11.0625 8.347656 11.703125 6.566406 10.59375 4.601562 C 10.234375 3.960938 9.761719 3.078125 9.660156 2.5 C 9.441406 1.238281 9.691406 0.527344 9.691406 0.527344 Z M 13.503906 5.25 Z M 13.503906 5.25"/></g><mask id="mask1"><g filter="url(#alpha)"><rect width="16" height="16" x="0" y="0" style="fill:#000;fill-opacity:.2;stroke:none"/></g></mask><clipPath id="clip2"><rect width="16" height="16"/></clipPath><g id="surface9" clip-path="url(#clip2)"><path style="stroke:none;fill-rule:nonzero;fill:#424242;fill-opacity:1" d="M 8.246094 6.734375 C 8.546875 7.148438 8.859375 7.675781 9.046875 8.265625 C 9.785156 10.617188 8.601562 11.675781 8.554688 11.714844 C 8.378906 11.863281 8.324219 12.109375 8.425781 12.320312 C 8.511719 12.492188 8.6875 12.601562 8.875 12.601562 C 8.910156 12.601562 8.945312 12.597656 8.984375 12.589844 C 9.058594 12.570312 9.753906 12.402344 10.222656 11.640625 C 10.289062 11.53125 10.34375 11.425781 10.390625 11.324219 C 10.460938 11.453125 10.527344 11.601562 10.574219 11.773438 C 10.828125 12.703125 10.742188 13.453125 10.324219 14.003906 C 9.777344 14.71875 8.777344 14.972656 8.085938 14.972656 C 8.046875 14.972656 8.011719 14.972656 7.976562 14.96875 C 7.515625 14.953125 6.109375 14.75 5.703125 14.101562 C 5.207031 13.308594 5.148438 12.359375 5.546875 11.5 C 5.761719 11.035156 6.175781 10.585938 6.574219 10.15625 C 6.890625 9.816406 7.191406 9.492188 7.40625 9.152344 C 7.921875 8.339844 8.148438 7.445312 8.246094 6.734375 M 7.808594 5.464844 C 7.808594 5.464844 7.953125 7.359375 6.984375 8.882812 C 6.515625 9.617188 5.515625 10.375 5.089844 11.292969 C 4.667969 12.207031 4.640625 13.347656 5.277344 14.367188 C 5.878906 15.324219 7.734375 15.460938 7.953125 15.472656 C 7.996094 15.472656 8.042969 15.472656 8.085938 15.472656 C 9.519531 15.472656 11.847656 14.546875 11.054688 11.644531 C 10.796875 10.703125 10.128906 10.296875 10.128906 10.296875 C 10.128906 10.296875 10.167969 10.773438 9.796875 11.378906 C 9.421875 11.980469 8.875 12.101562 8.875 12.101562 C 8.875 12.101562 10.382812 10.847656 9.523438 8.113281 C 9.046875 6.605469 7.808594 5.464844 7.808594 5.464844 Z M 7.808594 5.464844"/></g></defs><g id="surface1"><path style="stroke:none;fill-rule:nonzero;fill:url(#linear0)" d="M 9.691406 0.527344 C 9.691406 0.527344 9.441406 1.238281 9.660156 2.5 C 9.757812 3.078125 10.234375 3.964844 10.59375 4.601562 C 11.703125 6.566406 11.0625 8.347656 11.0625 8.347656 C 11.0625 8.347656 11.519531 7.605469 12.089844 6.660156 C 12.664062 5.714844 13.503906 5.308594 13.503906 5.308594 C 13.503906 5.308594 13.234375 5.699219 13.144531 7.152344 C 13.066406 8.4375 13.671875 9.75 13.503906 11.191406 C 13.269531 13.164062 11.234375 14.976562 9.472656 15.300781 C 8.191406 15.535156 6.953125 15.523438 5.582031 14.761719 C 3.421875 13.554688 2.367188 11.207031 2.472656 9.085938 C 2.570312 7.140625 3.929688 5.007812 3.863281 5.296875 C 3.410156 7.328125 5.160156 8.425781 5.160156 8.425781 C 5.160156 8.425781 4.574219 5.570312 5.988281 3.414062 C 7.40625 1.257812 9.691406 0.527344 9.691406 0.527344 Z M 9.691406 0.527344"/><path style="stroke:none;fill-rule:nonzero;fill:url(#linear1)" d="M 7.808594 5.464844 C 7.808594 5.464844 7.953125 7.359375 6.984375 8.882812 C 6.515625 9.617188 5.515625 10.375 5.089844 11.292969 C 4.667969 12.207031 4.640625 13.347656 5.277344 14.367188 C 5.878906 15.324219 7.734375 15.460938 7.953125 15.472656 C 9.371094 15.527344 11.871094 14.632812 11.054688 11.644531 C 10.796875 10.703125 10.128906 10.296875 10.128906 10.296875 C 10.128906 10.296875 10.167969 10.773438 9.796875 11.378906 C 9.421875 11.984375 8.875 12.101562 8.875 12.101562 C 8.875 12.101562 10.382812 10.847656 9.523438 8.113281 C 9.046875 6.605469 7.808594 5.464844 7.808594 5.464844 Z M 7.808594 5.464844"/><use mask="url(#mask0)" xlink:href="#surface6"/><use mask="url(#mask1)" xlink:href="#surface9"/></g></svg>