<svg xmlns="http://www.w3.org/2000/svg" xmlns:xlink="http://www.w3.org/1999/xlink" width="16pt" height="16pt" version="1.1" viewBox="0 0 16 16"><defs><linearGradient id="linear0" x1="63.995" x2="63.995" y1="120.79" y2="79.168" gradientTransform="matrix(0.125,0,0,0.125,0,0)" gradientUnits="userSpaceOnUse"><stop offset="0" style="stop-color:#c9c4b2;stop-opacity:1"/><stop offset=".137" style="stop-color:#d8d3bf;stop-opacity:1"/><stop offset=".382" style="stop-color:#eee7d2;stop-opacity:1"/><stop offset=".62" style="stop-color:#fbf4dd;stop-opacity:1"/><stop offset=".842" style="stop-color:#fff8e1;stop-opacity:1"/></linearGradient><linearGradient id="linear1" x1="64" x2="64" y1="23.66" y2="106.2" gradientTransform="matrix(0.125,0,0,0.125,0,0)" gradientUnits="userSpaceOnUse"><stop offset=".152" style="stop-color:#ff5e20;stop-opacity:1"/><stop offset=".464" style="stop-color:#e7551d;stop-opacity:1"/><stop offset=".999" style="stop-color:#c24719;stop-opacity:1"/></linearGradient><linearGradient id="linear2" x1="64" x2="64" y1="94.336" y2="104.55" gradientTransform="matrix(0.125,0,0,0.125,0,0)" gradientUnits="userSpaceOnUse"><stop offset=".163" style="stop-color:#4d4d4d;stop-opacity:1"/><stop offset=".367" style="stop-color:#373737;stop-opacity:1"/><stop offset=".784" style="stop-color:#0f0f0f;stop-opacity:1"/><stop offset="1" style="stop-color:#000;stop-opacity:1"/></linearGradient></defs><g id="surface1"><path style="stroke:none;fill-rule:nonzero;fill:url(#linear0)" d="M 8.003906 15.097656 C 7.796875 15.074219 5.125 14.71875 3.210938 12.800781 C 1.585938 11.175781 0.886719 10.128906 0.679688 9.785156 C 0.882812 9.597656 1.335938 9.167969 1.878906 8.566406 C 2.011719 8.417969 2.148438 8.261719 2.292969 8.101562 C 3.71875 6.488281 5.671875 4.28125 8 4.28125 C 10.5 4.28125 12.660156 6.714844 14.070312 8.546875 C 14.535156 9.148438 15.078125 9.621094 15.320312 9.816406 C 15.121094 10.164062 14.449219 11.210938 12.75 12.910156 C 10.738281 14.921875 8.203125 15.089844 8.003906 15.097656 Z M 8.003906 15.097656"/><path style="stroke:none;fill-rule:nonzero;fill:#cfc6aa;fill-opacity:1" d="M 8 4.46875 C 10.417969 4.46875 12.539062 6.859375 13.921875 8.660156 C 14.328125 9.1875 14.796875 9.617188 15.078125 9.859375 C 14.808594 10.289062 14.121094 11.273438 12.617188 12.777344 C 10.691406 14.703125 8.277344 14.894531 8.011719 14.910156 C 7.730469 14.875 5.183594 14.507812 3.34375 12.667969 C 1.898438 11.222656 1.195312 10.242188 0.921875 9.816406 C 1.15625 9.59375 1.554688 9.203125 2.015625 8.691406 C 2.148438 8.542969 2.289062 8.386719 2.433594 8.222656 C 3.835938 6.640625 5.757812 4.46875 8 4.46875 M 8 4.09375 C 5.351562 4.09375 3.21875 6.796875 1.738281 8.441406 C 1.015625 9.242188 0.441406 9.75 0.441406 9.75 C 0.441406 9.75 1.023438 10.878906 3.078125 12.933594 C 5.136719 14.992188 8 15.285156 8 15.285156 C 8 15.285156 10.714844 15.207031 12.882812 13.042969 C 15.050781 10.875 15.558594 9.765625 15.558594 9.765625 C 15.558594 9.765625 14.816406 9.207031 14.21875 8.429688 C 12.863281 6.667969 10.632812 4.09375 8 4.09375 Z M 8 4.09375"/><path style="stroke:none;fill-rule:nonzero;fill:#ff5e21;fill-opacity:1" d="M 5.820312 3.8125 C 6.351562 5.789062 5.488281 7.613281 5.488281 7.613281 C 5.488281 7.613281 2.105469 7.25 1.308594 5.363281 C 0.519531 3.484375 1.363281 0.714844 1.363281 0.714844 C 1.363281 0.714844 5.292969 1.835938 5.820312 3.8125 Z M 5.820312 3.8125"/><path style="stroke:none;fill-rule:nonzero;fill:#881d05;fill-opacity:1" d="M 4.402344 3.570312 C 4.746094 4.691406 3.871094 5.785156 3.871094 5.785156 C 3.871094 5.785156 2.488281 5.488281 1.953125 4.445312 C 1.457031 3.484375 1.894531 1.832031 1.894531 1.832031 C 1.894531 1.832031 4.054688 2.449219 4.402344 3.570312 Z M 4.402344 3.570312"/><path style="stroke:none;fill-rule:nonzero;fill:#ff5e21;fill-opacity:1" d="M 10.179688 3.8125 C 9.648438 5.789062 10.511719 7.613281 10.511719 7.613281 C 10.511719 7.613281 13.894531 7.25 14.691406 5.363281 C 15.480469 3.484375 14.636719 0.714844 14.636719 0.714844 C 14.636719 0.714844 10.707031 1.835938 10.179688 3.8125 Z M 10.179688 3.8125"/><path style="stroke:none;fill-rule:nonzero;fill:#881d05;fill-opacity:1" d="M 11.597656 3.570312 C 11.253906 4.691406 12.128906 5.785156 12.128906 5.785156 C 12.128906 5.785156 13.511719 5.488281 14.046875 4.445312 C 14.542969 3.484375 14.105469 1.832031 14.105469 1.832031 C 14.105469 1.832031 11.945312 2.449219 11.597656 3.570312 Z M 11.597656 3.570312"/><path style="stroke:none;fill-rule:nonzero;fill:url(#linear1)" d="M 15.492188 8.335938 L 14.804688 7.433594 C 14.335938 6.820312 13.925781 6.183594 13.535156 5.539062 C 12.574219 3.957031 10.648438 2.980469 7.996094 2.957031 C 5.25 2.933594 3.347656 3.960938 2.371094 5.609375 C 1.980469 6.269531 1.5625 6.921875 1.082031 7.546875 L 0.457031 8.367188 C 0.40625 8.433594 1.671875 8.523438 1.671875 8.523438 C 1.675781 8.609375 0.75 9.242188 0.4375 9.707031 C 0.390625 9.777344 4.117188 6.890625 5.964844 8.175781 C 7.476562 9.230469 7.996094 13.730469 7.996094 13.730469 C 7.996094 13.730469 8.496094 9.207031 9.976562 8.144531 C 11.652344 6.941406 15.59375 9.761719 15.554688 9.707031 C 15.261719 9.28125 14.242188 8.59375 14.25 8.523438 C 14.253906 8.523438 15.558594 8.417969 15.492188 8.335938 Z M 15.492188 8.335938"/><path style="stroke:none;fill-rule:nonzero;fill:#cc3e0a;fill-opacity:1" d="M 1.605469 1.222656 C 2.449219 1.511719 4.511719 2.3125 5.238281 3.492188 C 5.308594 3.605469 5.429688 3.671875 5.558594 3.671875 C 5.59375 3.671875 5.628906 3.664062 5.660156 3.65625 C 6.339844 3.460938 7.09375 3.363281 7.902344 3.363281 L 7.992188 3.363281 C 8.816406 3.371094 9.585938 3.476562 10.28125 3.675781 C 10.316406 3.683594 10.351562 3.691406 10.386719 3.691406 C 10.515625 3.691406 10.636719 3.625 10.707031 3.507812 C 11.425781 2.320312 13.507812 1.511719 14.355469 1.222656 C 14.542969 2.011719 14.890625 3.898438 14.324219 5.246094 C 14.207031 5.523438 14.011719 5.78125 13.742188 6.015625 C 13.605469 6.140625 13.574219 6.347656 13.675781 6.503906 C 13.972656 6.960938 14.234375 7.339844 14.503906 7.691406 L 14.832031 8.121094 C 14.640625 8.140625 14.417969 8.164062 14.21875 8.179688 C 14.097656 8.1875 13.988281 8.257812 13.929688 8.359375 C 12.796875 7.792969 11.816406 7.5 11.039062 7.5 C 10.53125 7.5 10.097656 7.625 9.757812 7.871094 C 9.070312 8.363281 8.5 9.511719 8.066406 11.273438 C 8.039062 11.386719 8.011719 11.496094 7.988281 11.605469 C 7.964844 11.5 7.9375 11.390625 7.910156 11.285156 C 7.464844 9.527344 6.882812 8.386719 6.179688 7.898438 C 5.800781 7.632812 5.335938 7.5 4.796875 7.5 C 3.90625 7.5 2.90625 7.867188 1.984375 8.347656 C 1.921875 8.25 1.816406 8.183594 1.695312 8.175781 C 1.511719 8.164062 1.3125 8.148438 1.132812 8.128906 L 1.382812 7.804688 C 1.671875 7.421875 1.96875 6.992188 2.28125 6.496094 C 2.382812 6.339844 2.351562 6.132812 2.210938 6.011719 C 1.945312 5.777344 1.75 5.519531 1.632812 5.242188 C 1.070312 3.902344 1.417969 2.011719 1.605469 1.222656 M 14.617188 0.746094 C 14.617188 0.746094 11.382812 1.671875 10.390625 3.316406 C 9.675781 3.109375 8.878906 2.996094 8 2.988281 L 7.902344 2.988281 C 7.035156 2.988281 6.253906 3.097656 5.558594 3.296875 C 4.546875 1.664062 1.34375 0.746094 1.34375 0.746094 C 1.34375 0.746094 0.5 3.515625 1.289062 5.394531 C 1.4375 5.746094 1.675781 6.046875 1.96875 6.296875 C 1.695312 6.734375 1.402344 7.164062 1.085938 7.578125 L 0.457031 8.398438 C 0.40625 8.464844 1.671875 8.554688 1.671875 8.554688 C 1.679688 8.640625 0.75 9.273438 0.441406 9.738281 C 0.472656 9.738281 2.910156 7.875 4.800781 7.875 C 5.230469 7.875 5.628906 7.972656 5.964844 8.207031 C 7.476562 9.261719 7.996094 13.761719 7.996094 13.761719 C 7.996094 13.761719 8.496094 9.238281 9.976562 8.175781 C 10.273438 7.964844 10.636719 7.875 11.039062 7.875 C 12.898438 7.875 15.527344 9.738281 15.558594 9.738281 C 15.265625 9.3125 14.246094 8.625 14.25 8.550781 C 14.25 8.550781 15.554688 8.449219 15.492188 8.363281 L 14.800781 7.460938 C 14.511719 7.082031 14.246094 6.691406 13.988281 6.296875 C 14.28125 6.042969 14.519531 5.742188 14.667969 5.390625 C 15.460938 3.515625 14.617188 0.746094 14.617188 0.746094 Z M 14.617188 0.746094"/><path style="stroke:none;fill-rule:nonzero;fill:#000;fill-opacity:1" d="M 5.441406 10.308594 C 5.441406 10.308594 5.433594 10.300781 5.421875 10.285156 C 5.417969 10.277344 5.410156 10.269531 5.402344 10.257812 C 5.394531 10.25 5.390625 10.246094 5.386719 10.238281 C 5.367188 10.226562 5.347656 10.207031 5.328125 10.183594 C 5.300781 10.160156 5.273438 10.136719 5.238281 10.109375 C 5.171875 10.054688 5.089844 9.996094 4.992188 9.941406 C 4.941406 9.914062 4.890625 9.886719 4.835938 9.859375 C 4.78125 9.835938 4.726562 9.8125 4.667969 9.792969 C 4.652344 9.785156 4.59375 9.761719 4.578125 9.757812 C 4.550781 9.75 4.527344 9.742188 4.496094 9.734375 C 4.4375 9.71875 4.382812 9.703125 4.328125 9.691406 C 4.21875 9.671875 4.113281 9.660156 4.03125 9.65625 C 3.945312 9.652344 3.878906 9.65625 3.832031 9.660156 C 3.785156 9.664062 3.757812 9.664062 3.757812 9.664062 L 3.699219 9.671875 C 3.515625 9.699219 3.34375 9.570312 3.316406 9.386719 C 3.296875 9.246094 3.367188 9.113281 3.480469 9.046875 C 3.480469 9.046875 3.492188 9.039062 3.511719 9.027344 C 3.535156 9.015625 3.566406 8.996094 3.605469 8.976562 C 3.6875 8.9375 3.808594 8.894531 3.953125 8.867188 C 4.097656 8.839844 4.265625 8.832031 4.441406 8.851562 C 4.53125 8.859375 4.621094 8.871094 4.710938 8.894531 C 4.753906 8.902344 4.800781 8.917969 4.851562 8.929688 C 4.90625 8.949219 4.917969 8.953125 4.976562 8.972656 C 5.0625 9.007812 5.148438 9.042969 5.230469 9.085938 C 5.3125 9.128906 5.386719 9.179688 5.457031 9.230469 C 5.601562 9.332031 5.726562 9.449219 5.816406 9.566406 C 5.863281 9.621094 5.902344 9.679688 5.933594 9.734375 C 5.964844 9.789062 5.984375 9.832031 6.007812 9.878906 C 6.019531 9.902344 6.027344 9.925781 6.035156 9.941406 C 6.039062 9.953125 6.039062 9.964844 6.042969 9.972656 C 6.046875 9.992188 6.050781 10 6.050781 10 C 6.101562 10.183594 5.996094 10.375 5.8125 10.425781 C 5.671875 10.472656 5.523438 10.417969 5.441406 10.308594 Z M 5.441406 10.308594"/><path style="stroke:none;fill-rule:nonzero;fill:#000;fill-opacity:1" d="M 12.265625 9.675781 C 12.265625 9.675781 12.257812 9.675781 12.238281 9.671875 C 12.230469 9.667969 12.21875 9.667969 12.207031 9.664062 C 12.195312 9.664062 12.191406 9.664062 12.179688 9.664062 C 12.15625 9.664062 12.128906 9.660156 12.097656 9.660156 C 12.066406 9.660156 12.027344 9.660156 11.984375 9.660156 C 11.898438 9.664062 11.796875 9.671875 11.6875 9.695312 C 11.632812 9.703125 11.574219 9.71875 11.515625 9.734375 C 11.457031 9.75 11.398438 9.769531 11.34375 9.792969 C 11.328125 9.796875 11.265625 9.820312 11.25 9.828125 C 11.226562 9.835938 11.203125 9.847656 11.171875 9.859375 C 11.121094 9.886719 11.066406 9.910156 11.015625 9.9375 C 10.921875 9.992188 10.832031 10.050781 10.765625 10.105469 C 10.703125 10.15625 10.652344 10.203125 10.617188 10.234375 C 10.585938 10.269531 10.570312 10.289062 10.570312 10.289062 L 10.527344 10.332031 C 10.40625 10.476562 10.191406 10.488281 10.046875 10.363281 C 9.941406 10.269531 9.910156 10.125 9.953125 10 C 9.953125 10 9.953125 9.988281 9.964844 9.964844 C 9.972656 9.941406 9.984375 9.90625 10.003906 9.863281 C 10.039062 9.78125 10.101562 9.671875 10.195312 9.554688 C 10.289062 9.441406 10.410156 9.324219 10.554688 9.222656 C 10.628906 9.171875 10.707031 9.121094 10.789062 9.082031 C 10.828125 9.058594 10.871094 9.039062 10.921875 9.019531 C 10.972656 8.996094 10.988281 8.992188 11.042969 8.96875 C 11.128906 8.9375 11.21875 8.910156 11.308594 8.890625 C 11.398438 8.867188 11.488281 8.859375 11.578125 8.847656 C 11.753906 8.832031 11.925781 8.84375 12.070312 8.871094 C 12.140625 8.882812 12.207031 8.902344 12.265625 8.921875 C 12.328125 8.941406 12.371094 8.960938 12.421875 8.984375 C 12.445312 8.996094 12.464844 9.007812 12.480469 9.015625 C 12.492188 9.023438 12.5 9.027344 12.507812 9.035156 C 12.523438 9.042969 12.53125 9.046875 12.53125 9.046875 C 12.691406 9.15625 12.734375 9.371094 12.628906 9.527344 C 12.546875 9.652344 12.402344 9.707031 12.265625 9.675781 Z M 12.265625 9.675781"/><path style="fill:none;stroke-width:3;stroke-linecap:round;stroke-linejoin:round;stroke:#404040;stroke-opacity:1;stroke-miterlimit:10" d="M 53.8125 113.1875 C 59.15625 113.1875 63.5 108.78125 63.5 103.5 L 63.5 96" transform="matrix(0.125,0,0,0.125,0,0)"/><path style="fill:none;stroke-width:3;stroke-linecap:round;stroke-linejoin:round;stroke:#404040;stroke-opacity:1;stroke-miterlimit:10" d="M 73.1875 113.1875 C 67.84375 113.1875 63.5 108.78125 63.5 103.5 L 63.5 96" transform="matrix(0.125,0,0,0.125,0,0)"/><path style="stroke:none;fill-rule:nonzero;fill:url(#linear2)" d="M 7.25 11.75 C 7 11.75 6.832031 11.988281 6.921875 12.222656 C 7.105469 12.71875 7.441406 13.082031 7.976562 13.082031 C 7.984375 13.082031 7.992188 13.078125 8 13.078125 L 8.023438 13.078125 C 8.5625 13.078125 8.894531 12.71875 9.082031 12.222656 C 9.167969 11.988281 9 11.75 8.75 11.75 Z M 7.25 11.75"/></g></svg>