<svg xmlns="http://www.w3.org/2000/svg" xmlns:xlink="http://www.w3.org/1999/xlink" width="16pt" height="16pt" version="1.1" viewBox="0 0 16 16"><defs><linearGradient id="linear0" x1="64" x2="64" y1="19.717" y2="107.7" gradientTransform="matrix(0.125,0,0,0.125,0,0)" gradientUnits="userSpaceOnUse"><stop offset=".566" style="stop-color:#f6a323;stop-opacity:1"/><stop offset=".917" style="stop-color:#fee133;stop-opacity:1"/></linearGradient><clipPath id="clip1"><path d="M 3 8 L 13 8 L 13 14 L 3 14 Z M 3 8"/></clipPath><clipPath id="clip2"><path d="M 8 8.109375 C 5.996094 8.109375 3.820312 10.132812 3.820312 12.625 C 3.820312 13.324219 4.484375 13.730469 5.078125 13.445312 C 5.808594 13.097656 6.890625 12.402344 8 12.402344 C 9.109375 12.402344 10.191406 13.097656 10.921875 13.445312 C 11.515625 13.730469 12.179688 13.324219 12.179688 12.625 C 12.179688 10.132812 9.851562 8.109375 8 8.109375 Z M 8 8.109375"/></clipPath><clipPath id="clip3"><path d="M 4 8 L 12 8 L 12 11 L 4 11 Z M 4 8"/></clipPath><clipPath id="clip4"><path d="M 8 8.109375 C 5.996094 8.109375 3.820312 10.132812 3.820312 12.625 C 3.820312 13.324219 4.484375 13.730469 5.078125 13.445312 C 5.808594 13.097656 6.890625 12.402344 8 12.402344 C 9.109375 12.402344 10.191406 13.097656 10.921875 13.445312 C 11.515625 13.730469 12.179688 13.324219 12.179688 12.625 C 12.179688 10.132812 9.851562 8.109375 8 8.109375 Z M 8 8.109375"/></clipPath><clipPath id="clip5"><path d="M 4 8 L 12 8 L 12 11 L 4 11 Z M 4 8"/></clipPath><clipPath id="clip6"><path d="M 8 8.109375 C 5.996094 8.109375 3.820312 10.132812 3.820312 12.625 C 3.820312 13.324219 4.484375 13.730469 5.078125 13.445312 C 5.808594 13.097656 6.890625 12.402344 8 12.402344 C 9.109375 12.402344 10.191406 13.097656 10.921875 13.445312 C 11.515625 13.730469 12.179688 13.324219 12.179688 12.625 C 12.179688 10.132812 9.851562 8.109375 8 8.109375 Z M 8 8.109375"/></clipPath><clipPath id="clip7"><path d="M 8 9.847656 C 9.46875 9.847656 10.832031 10.078125 11.90625 10.5 L 11.90625 6.417969 L 4.09375 6.417969 L 4.09375 10.5 C 5.167969 10.078125 6.53125 9.847656 8 9.847656 Z M 8 9.847656"/></clipPath></defs><g id="surface1"><path style="stroke:none;fill-rule:nonzero;fill:url(#linear0)" d="M 8 14.984375 C 4.507812 14.984375 0.75 12.800781 0.75 8 C 0.75 3.199219 4.507812 1.015625 8 1.015625 C 9.933594 1.015625 11.726562 1.652344 13.046875 2.816406 C 14.488281 4.089844 15.25 5.882812 15.25 8 C 15.25 10.109375 14.488281 11.894531 13.046875 13.171875 C 11.722656 14.34375 9.929688 14.984375 8 14.984375 Z M 8 14.984375"/><path style="stroke:none;fill-rule:nonzero;fill:#eb8f00;fill-opacity:1" d="M 8 1.265625 C 9.875 1.265625 11.609375 1.882812 12.878906 3.003906 C 14.265625 4.230469 15 5.957031 15 8 C 15 10.035156 14.265625 11.757812 12.878906 12.984375 C 11.601562 14.113281 9.871094 14.734375 8 14.734375 C 6.121094 14.734375 4.386719 14.121094 3.121094 13.007812 C 1.734375 11.789062 1 10.058594 1 8 C 1 5.933594 1.734375 4.199219 3.121094 2.980469 C 4.382812 1.875 6.117188 1.265625 8 1.265625 M 8 0.765625 C 4.105469 0.765625 0.5 3.265625 0.5 8 C 0.5 12.710938 4.105469 15.234375 8 15.234375 C 11.894531 15.234375 15.5 12.644531 15.5 8 C 15.5 3.328125 11.894531 0.765625 8 0.765625 Z M 8 0.765625"/><path style="fill:none;stroke-width:5;stroke-linecap:round;stroke-linejoin:round;stroke:#242424;stroke-opacity:1;stroke-miterlimit:10" d="M 102.1875 50.46875 C 102.1875 41.53125 94.96875 34.25 86 34.25 C 78.84375 34.21875 73.03125 40 73.03125 47.15625 C 73 52.90625 77.625 57.5625 83.375 57.5625 C 87.9375 57.5625 91.65625 53.875 91.6875 49.28125 C 91.6875 45.625 88.71875 42.625 85.0625 42.625 C 82.125 42.625 79.75 45 79.75 47.9375" transform="matrix(0.125,0,0,0.125,0,0)"/><path style="fill:none;stroke-width:5;stroke-linecap:round;stroke-linejoin:round;stroke:#242424;stroke-opacity:1;stroke-miterlimit:10" d="M 30.3125 33.8125 C 25.15625 41.125 26.90625 51.21875 34.21875 56.375 C 40.0625 60.5 48.15625 59.125 52.28125 53.25 C 55.59375 48.59375 54.46875 42.125 49.78125 38.8125 C 46.03125 36.15625 40.875 37.0625 38.21875 40.8125 C 36.125 43.8125 36.8125 47.9375 39.8125 50.0625 C 42.21875 51.75 45.53125 51.1875 47.21875 48.78125" transform="matrix(0.125,0,0,0.125,0,0)"/><g clip-path="url(#clip1)" clip-rule="nonzero"><g clip-path="url(#clip2)" clip-rule="nonzero"><path style="stroke:none;fill-rule:nonzero;fill:#242424;fill-opacity:1" d="M 8 8.109375 C 5.996094 8.109375 3.820312 10.132812 3.820312 12.625 C 3.820312 13.324219 4.484375 13.730469 5.078125 13.445312 C 5.808594 13.097656 6.890625 12.742188 8 12.742188 C 9.109375 12.742188 10.191406 13.09375 10.921875 13.445312 C 11.515625 13.730469 12.179688 13.324219 12.179688 12.625 C 12.179688 10.132812 9.851562 8.109375 8 8.109375 Z M 8 8.109375"/></g></g><g clip-path="url(#clip3)" clip-rule="nonzero"><g clip-path="url(#clip4)" clip-rule="nonzero"><path style="stroke:none;fill-rule:nonzero;fill:#fff;fill-opacity:1" d="M 8 9.847656 C 9.46875 9.847656 10.832031 10.078125 11.90625 10.5 L 11.90625 6.417969 L 4.09375 6.417969 L 4.09375 10.5 C 5.167969 10.078125 6.53125 9.847656 8 9.847656 Z M 8 9.847656"/></g></g><g clip-path="url(#clip5)" clip-rule="nonzero"><g clip-path="url(#clip6)" clip-rule="nonzero"><g clip-path="url(#clip7)" clip-rule="nonzero"><path style="stroke:none;fill-rule:nonzero;fill:#eb8f00;fill-opacity:1" d="M 8 8.675781 C 8.761719 8.675781 9.671875 9.117188 10.382812 9.832031 C 11.175781 10.628906 11.613281 11.621094 11.613281 12.628906 C 11.613281 12.863281 11.457031 12.972656 11.316406 12.972656 C 11.265625 12.972656 11.214844 12.960938 11.167969 12.9375 C 10.691406 12.707031 9.429688 12.179688 8 12.179688 C 6.570312 12.179688 5.308594 12.707031 4.832031 12.9375 C 4.785156 12.960938 4.734375 12.972656 4.683594 12.972656 C 4.542969 12.972656 4.386719 12.863281 4.386719 12.628906 C 4.386719 10.402344 6.328125 8.675781 8 8.675781 M 8 8.109375 C 5.996094 8.109375 3.820312 10.132812 3.820312 12.625 C 3.820312 13.171875 4.226562 13.539062 4.683594 13.539062 C 4.8125 13.539062 4.949219 13.507812 5.078125 13.445312 C 5.808594 13.097656 6.890625 12.742188 8 12.742188 C 9.109375 12.742188 10.191406 13.09375 10.921875 13.445312 C 11.050781 13.507812 11.1875 13.539062 11.316406 13.539062 C 11.773438 13.539062 12.179688 13.171875 12.179688 12.625 C 12.179688 10.132812 9.851562 8.109375 8 8.109375 Z M 8 8.109375"/></g></g></g></g></svg>