<svg xmlns="http://www.w3.org/2000/svg" xmlns:xlink="http://www.w3.org/1999/xlink" width="16pt" height="16pt" version="1.1" viewBox="0 0 16 16"><defs><linearGradient id="linear0" x1="64.44" x2="64.44" y1="14.199" y2="115.76" gradientTransform="matrix(0.125,0,0,0.125,0,0)" gradientUnits="userSpaceOnUse"><stop offset=".001" style="stop-color:#9cd18d;stop-opacity:1"/><stop offset=".544" style="stop-color:#6aae74;stop-opacity:1"/><stop offset="1" style="stop-color:#3c8f5e;stop-opacity:1"/></linearGradient><clipPath id="clip1"><path d="M 3 9 L 13 9 L 13 14 L 3 14 Z M 3 9"/></clipPath><clipPath id="clip2"><path d="M 9.125 12.945312 C 11.140625 12.582031 12.476562 11.265625 12.789062 9.785156 C 12.847656 9.515625 12.578125 9.28125 12.277344 9.328125 C 11.050781 9.535156 9.578125 9.652344 8 9.652344 C 6.417969 9.652344 4.949219 9.535156 3.722656 9.328125 C 3.417969 9.28125 3.148438 9.519531 3.210938 9.789062 C 3.617188 11.574219 5.582031 13.042969 7.996094 13.042969 C 8.390625 13.042969 8.769531 13.007812 9.125 12.945312"/></clipPath><clipPath id="clip3"><path d="M 3 9 L 13 9 L 13 11 L 3 11 Z M 3 9"/></clipPath><clipPath id="clip4"><path d="M 9.125 12.945312 C 11.140625 12.582031 12.476562 11.265625 12.789062 9.785156 C 12.847656 9.515625 12.578125 9.28125 12.277344 9.328125 C 11.050781 9.535156 9.578125 9.652344 8 9.652344 C 6.417969 9.652344 4.949219 9.535156 3.722656 9.328125 C 3.417969 9.28125 3.148438 9.519531 3.210938 9.789062 C 3.617188 11.574219 5.582031 13.042969 7.996094 13.042969 C 8.390625 13.042969 8.769531 13.007812 9.125 12.945312"/></clipPath><clipPath id="clip5"><path d="M 5 11 L 11 11 L 11 14 L 5 14 Z M 5 11"/></clipPath><clipPath id="clip6"><path d="M 9.125 12.945312 C 11.140625 12.582031 12.476562 11.265625 12.789062 9.785156 C 12.847656 9.515625 12.578125 9.28125 12.277344 9.328125 C 11.050781 9.535156 9.578125 9.652344 8 9.652344 C 6.417969 9.652344 4.949219 9.535156 3.722656 9.328125 C 3.417969 9.28125 3.148438 9.519531 3.210938 9.789062 C 3.617188 11.574219 5.582031 13.042969 7.996094 13.042969 C 8.390625 13.042969 8.769531 13.007812 9.125 12.945312"/></clipPath></defs><g id="surface1"><path style="stroke:none;fill-rule:nonzero;fill:url(#linear0)" d="M 8.054688 14.464844 C 4.332031 14.464844 1.304688 12.171875 1.304688 9.359375 C 1.304688 8.296875 1.730469 7.277344 2.539062 6.414062 C 2.757812 6.183594 2.777344 5.824219 2.585938 5.558594 C 2.273438 5.121094 2.109375 4.605469 2.109375 4.066406 C 2.109375 2.640625 3.273438 1.484375 4.703125 1.484375 C 6.136719 1.484375 7.300781 2.640625 7.300781 4.066406 L 7.300781 4.082031 C 7.300781 4.132812 7.320312 4.183594 7.359375 4.21875 C 7.394531 4.25 7.441406 4.269531 7.488281 4.269531 L 7.5 4.269531 C 7.703125 4.257812 7.886719 4.25 8.054688 4.25 C 8.238281 4.25 8.429688 4.257812 8.640625 4.269531 L 8.652344 4.269531 C 8.703125 4.269531 8.75 4.253906 8.785156 4.21875 C 8.820312 4.183594 8.84375 4.132812 8.839844 4.078125 L 8.839844 4.066406 C 8.839844 2.640625 10.003906 1.484375 11.4375 1.484375 C 12.867188 1.484375 14.03125 2.640625 14.03125 4.066406 C 14.03125 4.609375 13.863281 5.128906 13.542969 5.570312 C 13.351562 5.835938 13.371094 6.195312 13.585938 6.425781 C 14.386719 7.289062 14.808594 8.300781 14.808594 9.355469 C 14.804688 12.171875 11.777344 14.464844 8.054688 14.464844 Z M 8.054688 14.464844"/><path style="stroke:none;fill-rule:nonzero;fill:#388558;fill-opacity:1" d="M 11.433594 1.671875 C 12.761719 1.671875 13.839844 2.746094 13.839844 4.066406 C 13.839844 4.570312 13.683594 5.050781 13.390625 5.460938 C 13.144531 5.796875 13.171875 6.257812 13.449219 6.554688 C 14.214844 7.382812 14.617188 8.347656 14.617188 9.355469 C 14.617188 12.066406 11.675781 14.273438 8.054688 14.273438 C 4.433594 14.273438 1.492188 12.070312 1.492188 9.355469 C 1.492188 8.34375 1.902344 7.371094 2.675781 6.542969 C 2.953125 6.246094 2.980469 5.785156 2.738281 5.449219 C 2.449219 5.042969 2.296875 4.566406 2.296875 4.066406 C 2.296875 2.742188 3.375 1.671875 4.703125 1.671875 C 6.03125 1.671875 7.109375 2.742188 7.109375 4.0625 L 7.109375 4.078125 C 7.109375 4.183594 7.152344 4.285156 7.230469 4.355469 C 7.296875 4.421875 7.390625 4.457031 7.484375 4.457031 C 7.492188 4.457031 7.5 4.457031 7.511719 4.457031 C 7.710938 4.445312 7.890625 4.4375 8.054688 4.4375 C 8.234375 4.4375 8.421875 4.445312 8.628906 4.457031 C 8.636719 4.457031 8.644531 4.457031 8.652344 4.457031 C 8.746094 4.457031 8.839844 4.421875 8.910156 4.355469 C 8.984375 4.285156 9.027344 4.183594 9.027344 4.082031 L 9.027344 4.066406 C 9.027344 2.746094 10.105469 1.671875 11.433594 1.671875 M 11.433594 1.296875 C 9.898438 1.296875 8.652344 2.535156 8.652344 4.066406 L 8.652344 4.082031 C 8.453125 4.070312 8.257812 4.0625 8.054688 4.0625 C 7.863281 4.0625 7.671875 4.070312 7.484375 4.078125 L 7.484375 4.0625 C 7.484375 2.535156 6.238281 1.292969 4.703125 1.292969 C 3.167969 1.292969 1.921875 2.535156 1.921875 4.0625 C 1.921875 4.660156 2.109375 5.210938 2.433594 5.664062 C 2.570312 5.855469 2.5625 6.113281 2.402344 6.285156 C 1.59375 7.152344 1.117188 8.210938 1.117188 9.355469 C 1.117188 12.28125 4.222656 14.648438 8.054688 14.648438 C 11.886719 14.648438 14.992188 12.28125 14.992188 9.355469 C 14.992188 8.21875 14.523438 7.164062 13.722656 6.300781 C 13.5625 6.128906 13.558594 5.871094 13.695312 5.679688 C 14.023438 5.226562 14.214844 4.667969 14.214844 4.066406 C 14.214844 2.535156 12.96875 1.296875 11.433594 1.296875 Z M 11.433594 1.296875"/><path style="stroke:none;fill-rule:nonzero;fill:#fff;fill-opacity:1" d="M 6.402344 4.296875 C 6.402344 5.195312 5.675781 5.921875 4.777344 5.921875 C 3.882812 5.921875 3.152344 5.195312 3.152344 4.296875 C 3.152344 3.398438 3.882812 2.671875 4.777344 2.671875 C 5.675781 2.671875 6.402344 3.398438 6.402344 4.296875 Z M 6.402344 4.296875"/><path style="stroke:none;fill-rule:nonzero;fill:#404040;fill-opacity:1" d="M 5.578125 4.296875 C 5.578125 4.738281 5.21875 5.09375 4.777344 5.09375 C 4.339844 5.09375 3.980469 4.738281 3.980469 4.296875 C 3.980469 3.855469 4.339844 3.5 4.777344 3.5 C 5.21875 3.5 5.578125 3.855469 5.578125 4.296875 Z M 5.578125 4.296875"/><path style="stroke:none;fill-rule:nonzero;fill:#fff;fill-opacity:1" d="M 13 4.296875 C 13 5.195312 12.269531 5.921875 11.375 5.921875 C 10.476562 5.921875 9.75 5.195312 9.75 4.296875 C 9.75 3.398438 10.476562 2.671875 11.375 2.671875 C 12.269531 2.671875 13 3.398438 13 4.296875 Z M 13 4.296875"/><path style="stroke:none;fill-rule:nonzero;fill:#404040;fill-opacity:1" d="M 12.171875 4.296875 C 12.171875 4.738281 11.8125 5.09375 11.375 5.09375 C 10.933594 5.09375 10.578125 4.738281 10.578125 4.296875 C 10.578125 3.855469 10.933594 3.5 11.375 3.5 C 11.8125 3.5 12.171875 3.855469 12.171875 4.296875 Z M 12.171875 4.296875"/><path style="stroke:none;fill-rule:nonzero;fill:#404040;fill-opacity:1" d="M 7.699219 7.871094 C 7.699219 7.601562 7.5625 7.386719 7.394531 7.386719 C 7.230469 7.386719 7.09375 7.601562 7.09375 7.871094 C 7.09375 8.136719 7.230469 8.355469 7.394531 8.355469 C 7.5625 8.355469 7.699219 8.136719 7.699219 7.871094 Z M 7.699219 7.871094"/><path style="stroke:none;fill-rule:nonzero;fill:#404040;fill-opacity:1" d="M 8.996094 7.871094 C 8.996094 7.601562 8.863281 7.386719 8.695312 7.386719 C 8.53125 7.386719 8.394531 7.601562 8.394531 7.871094 C 8.394531 8.136719 8.53125 8.355469 8.695312 8.355469 C 8.863281 8.355469 8.996094 8.136719 8.996094 7.871094 Z M 8.996094 7.871094"/><g clip-path="url(#clip1)" clip-rule="nonzero"><g clip-path="url(#clip2)" clip-rule="nonzero"><path style="fill-rule:nonzero;fill:#404040;fill-opacity:1;stroke-width:1.297;stroke-linecap:butt;stroke-linejoin:miter;stroke:#404040;stroke-opacity:1;stroke-miterlimit:10" d="M 64 77.21875 C 51.34375 77.21875 39.59375 76.28125 29.78125 74.625 C 27.34375 74.25 25.1875 76.15625 25.6875 78.3125 C 28.9375 92.59375 44.65625 104.34375 63.96875 104.34375 C 85.125 104.34375 99.34375 92.21875 102.3125 78.28125 C 102.75 76.125 100.625 74.25 98.1875 74.625 C 88.40625 76.28125 76.65625 77.21875 64 77.21875 Z M 64 77.21875" transform="matrix(0.125,0,0,0.125,0,0)"/></g></g><g clip-path="url(#clip3)" clip-rule="nonzero"><g clip-path="url(#clip4)" clip-rule="nonzero"><path style="stroke:none;fill-rule:nonzero;fill:#fff;fill-opacity:1" d="M 13.375 9.292969 L 13.375 8 L 2.625 8 L 2.625 9.292969 C 4.25 10.160156 6.101562 10.640625 8 10.640625 C 9.898438 10.640625 11.75 10.160156 13.375 9.292969 Z M 13.375 9.292969"/></g></g><g clip-path="url(#clip5)" clip-rule="nonzero"><g clip-path="url(#clip6)" clip-rule="nonzero"><path style="stroke:none;fill-rule:nonzero;fill:#ff4f4f;fill-opacity:1" d="M 8 11.804688 C 6.816406 11.804688 5.78125 12.382812 5.230469 13.242188 C 5.945312 13.59375 6.921875 13.808594 8 13.808594 C 9.078125 13.808594 10.054688 13.59375 10.769531 13.242188 C 10.21875 12.382812 9.183594 11.804688 8 11.804688 Z M 8 11.804688"/></g></g></g></svg>