<svg xmlns="http://www.w3.org/2000/svg" xmlns:xlink="http://www.w3.org/1999/xlink" width="16pt" height="16pt" version="1.1" viewBox="0 0 16 16"><defs><radialGradient id="radial0" cx="63.47" cy="85.108" r="57.963" fx="63.47" fy="85.108" gradientTransform="matrix(0.125,0,0,0.125,0,0)" gradientUnits="userSpaceOnUse"><stop offset=".011" style="stop-color:#fafafa;stop-opacity:1"/><stop offset=".999" style="stop-color:#debcc0;stop-opacity:1"/></radialGradient><linearGradient id="linear0" x1="26.975" x2="26.975" y1="51.531" y2="131.29" gradientTransform="matrix(0.125,0,0,0.125,0,0)" gradientUnits="userSpaceOnUse"><stop offset=".01" style="stop-color:#efd3d7;stop-opacity:1"/><stop offset=".205" style="stop-color:#e3c5ca;stop-opacity:1"/><stop offset=".435" style="stop-color:#d1afb5;stop-opacity:1"/><stop offset=".953" style="stop-color:#907894;stop-opacity:1"/></linearGradient><linearGradient id="linear1" x1="51.62" x2="51.62" y1="130.55" y2="11.535" gradientTransform="matrix(0.125,0,0,0.125,0,0)" gradientUnits="userSpaceOnUse"><stop offset=".01" style="stop-color:#efd3d7;stop-opacity:1"/><stop offset=".232" style="stop-color:#ddbec3;stop-opacity:1"/><stop offset=".435" style="stop-color:#d1afb5;stop-opacity:1"/><stop offset="1" style="stop-color:#907894;stop-opacity:1"/></linearGradient><linearGradient id="linear2" x1="79.244" x2="79.244" y1="54.661" y2="128.91" gradientTransform="matrix(0.125,0,0,0.125,0,0)" gradientUnits="userSpaceOnUse"><stop offset=".01" style="stop-color:#efd3d7;stop-opacity:1"/><stop offset=".205" style="stop-color:#e3c5ca;stop-opacity:1"/><stop offset=".435" style="stop-color:#d1afb5;stop-opacity:1"/><stop offset=".953" style="stop-color:#907894;stop-opacity:1"/></linearGradient><linearGradient id="linear3" x1="102.06" x2="102.06" y1="41.459" y2="126.19" gradientTransform="matrix(0.125,0,0,0.125,0,0)" gradientUnits="userSpaceOnUse"><stop offset=".01" style="stop-color:#efd3d7;stop-opacity:1"/><stop offset=".205" style="stop-color:#e3c5ca;stop-opacity:1"/><stop offset=".435" style="stop-color:#d1afb5;stop-opacity:1"/><stop offset=".953" style="stop-color:#907894;stop-opacity:1"/></linearGradient><linearGradient id="linear4" x1="64" x2="64" y1="5.219" y2="112.26" gradientTransform="matrix(0.125,0,0,0.125,0,0)" gradientUnits="userSpaceOnUse"><stop offset="0" style="stop-color:#e2d3f5;stop-opacity:1"/><stop offset="1" style="stop-color:#9f88ba;stop-opacity:1"/></linearGradient></defs><g id="surface1"><path style="stroke:none;fill-rule:nonzero;fill:url(#radial0)" d="M 7.367188 1.355469 C 7.324219 1.375 7.292969 1.421875 7.296875 1.472656 C 7.3125 1.945312 7.265625 4.289062 4.90625 5.984375 C 3.128906 7.261719 1.144531 8.417969 1.144531 10.714844 C 1.144531 13.28125 3.277344 13.417969 3.277344 13.417969 C 3.277344 13.417969 3.242188 14.039062 4.101562 14.617188 C 5.230469 15.375 6.539062 14.765625 6.539062 14.765625 C 6.539062 14.765625 7.03125 15.445312 8.167969 15.445312 C 9.671875 15.445312 10.164062 14.542969 10.164062 14.542969 C 10.164062 14.542969 10.8125 14.917969 11.503906 14.769531 C 12.910156 14.464844 13.050781 13.25 13.050781 13.25 C 13.050781 13.25 14.386719 13.363281 14.789062 11.515625 C 15.140625 9.894531 13.898438 8.296875 11.929688 6.929688 C 9.957031 5.566406 9.3125 5.171875 9.171875 3.957031 C 9.0625 3.003906 9.261719 1.378906 9.359375 0.726562 C 9.378906 0.601562 9.234375 0.527344 9.117188 0.578125 Z M 7.367188 1.355469"/><path style="stroke:none;fill-rule:nonzero;fill:url(#linear0)" d="M 2.40625 13.144531 C 2.769531 13.339844 3.152344 13.402344 3.277344 13.417969 C 2.949219 11.378906 3.816406 10.128906 4.582031 8.820312 C 3.371094 9.929688 1.488281 11.507812 2.40625 13.144531 Z M 2.40625 13.144531"/><path style="stroke:none;fill-rule:nonzero;fill:url(#linear1)" d="M 7.082031 2.992188 C 7.078125 3.546875 6.996094 4.238281 6.585938 5.398438 C 6.078125 6.835938 5.039062 8.382812 5.039062 8.382812 C 5.039062 8.382812 6.207031 6.945312 7.039062 5.757812 C 7.332031 7.507812 4.726562 9.902344 4.726562 12.132812 C 4.726562 14.652344 6.527344 14.761719 6.527344 14.761719 C 6.527344 14.761719 4.886719 13.6875 6.476562 10.257812 C 8.082031 6.796875 8.503906 3.851562 7.941406 1.101562 L 7.644531 1.230469 C 7.4375 1.324219 7.300781 1.527344 7.292969 1.753906 C 7.28125 2.042969 7.234375 2.480469 7.082031 2.992188 Z M 7.082031 2.992188"/><path style="stroke:none;fill-rule:nonzero;fill:url(#linear2)" d="M 11.046875 11.570312 C 10.425781 8.570312 8.894531 8.300781 9.019531 5.550781 C 8.457031 7.886719 8.613281 9.488281 9.519531 10.992188 C 10.742188 13.023438 10.167969 14.542969 10.167969 14.542969 C 10.242188 14.578125 11.425781 13.417969 11.046875 11.570312 Z M 11.046875 11.570312"/><path style="stroke:none;fill-rule:nonzero;fill:url(#linear3)" d="M 13.175781 9.054688 L 13.539062 10.570312 C 13.539062 10.570312 12.472656 8.71875 11.121094 7.609375 C 11.121094 7.609375 12.757812 9.585938 13.050781 11.429688 C 13.195312 12.351562 13.050781 13.253906 13.050781 13.253906 C 13.050781 13.253906 13.8125 13.261719 14.285156 12.550781 C 14.832031 10.195312 13.175781 9.054688 13.175781 9.054688 Z M 13.175781 9.054688"/><path style="stroke:none;fill-rule:nonzero;fill:url(#linear4)" d="M 8.949219 1.046875 C 8.84375 1.867188 8.597656 3.117188 8.691406 3.914062 C 8.855469 5.332031 9.621094 5.859375 11.46875 7.136719 L 11.734375 7.320312 C 13.703125 8.683594 14.667969 9.667969 14.488281 11.253906 C 14.320312 12.769531 13.199219 12.953125 13.085938 12.960938 C 13.085938 12.960938 13.007812 14.203125 11.613281 14.359375 C 10.652344 14.460938 10.277344 14.027344 10.277344 14.027344 C 10.277344 14.027344 9.789062 15.070312 8.171875 15.109375 C 6.996094 15.140625 6.199219 14.410156 6.199219 14.410156 C 6.199219 14.410156 5.640625 14.71875 4.828125 14.546875 C 4.265625 14.433594 3.765625 14.101562 3.453125 13.617188 C 3.234375 13.273438 3.230469 13.070312 3.230469 13.070312 C 2.910156 13.035156 1.453125 12.835938 1.488281 10.777344 C 1.488281 8.914062 3 7.847656 4.601562 6.722656 C 4.777344 6.597656 4.957031 6.472656 5.128906 6.347656 C 7.457031 4.675781 7.640625 2.441406 7.664062 1.554688 L 8.816406 1.101562 Z M 9.347656 0.585938 C 9.277344 0.546875 9.191406 0.546875 9.117188 0.578125 L 7.335938 1.367188 C 7.308594 1.382812 7.292969 1.410156 7.292969 1.441406 C 7.3125 1.820312 7.328125 4.242188 4.90625 5.984375 C 3.128906 7.261719 1.144531 8.417969 1.144531 10.714844 C 1.144531 13.019531 2.652344 13.324219 3 13.371094 C 3 13.371094 3.019531 13.9375 3.929688 14.542969 C 4.363281 14.832031 4.996094 15 5.394531 15 C 5.921875 15 6.066406 14.914062 6.320312 14.859375 C 6.320312 14.859375 6.84375 15.445312 8.167969 15.445312 C 9.761719 15.445312 10.316406 14.617188 10.316406 14.617188 C 10.457031 14.6875 10.734375 14.804688 11.167969 14.804688 C 12.878906 15.007812 13.324219 13.253906 13.324219 13.253906 C 13.605469 13.226562 14.632812 12.996094 14.832031 11.234375 C 15.039062 9.394531 13.902344 8.296875 11.929688 6.929688 C 9.957031 5.566406 9.3125 5.171875 9.171875 3.957031 C 9.042969 2.855469 9.332031 0.996094 9.386719 0.664062 C 9.390625 0.632812 9.375 0.601562 9.347656 0.585938 Z M 9.347656 0.585938"/></g></svg>