<svg xmlns="http://www.w3.org/2000/svg" xmlns:xlink="http://www.w3.org/1999/xlink" width="16pt" height="16pt" version="1.1" viewBox="0 0 16 16"><defs><linearGradient id="linear0" x1="64" x2="64" y1="8.531" y2="121.13" gradientTransform="matrix(0.125,0,0,0.125,0,0)" gradientUnits="userSpaceOnUse"><stop offset=".001" style="stop-color:#c7c7c7;stop-opacity:1"/><stop offset=".28" style="stop-color:#cacaca;stop-opacity:1"/><stop offset=".525" style="stop-color:#d5d5d5;stop-opacity:1"/><stop offset=".758" style="stop-color:#e7e7e7;stop-opacity:1"/><stop offset=".947" style="stop-color:#fcfcfc;stop-opacity:1"/></linearGradient><clipPath id="clip1"><path d="M 4 7 L 12 7 L 12 11 L 4 11 Z M 4 7"/></clipPath><clipPath id="clip2"><path d="M 8 7.710938 C 6.808594 7.710938 5.707031 7.613281 4.785156 7.441406 C 4.554688 7.398438 4.351562 7.601562 4.398438 7.828125 C 4.707031 9.328125 6.179688 10.558594 7.996094 10.558594 C 9.984375 10.558594 11.324219 9.289062 11.601562 7.824219 C 11.640625 7.597656 11.441406 7.398438 11.214844 7.441406 C 10.292969 7.613281 9.1875 7.710938 8 7.710938 Z M 8 7.710938"/></clipPath><filter id="alpha" width="100%" height="100%" x="0%" y="0%" filterUnits="objectBoundingBox"><feColorMatrix in="SourceGraphic" type="matrix" values="0 0 0 0 1 0 0 0 0 1 0 0 0 0 1 0 0 0 1 0"/></filter><mask id="mask0"><g filter="url(#alpha)"><rect width="16" height="16" x="0" y="0" style="fill:#000;fill-opacity:.2;stroke:none"/></g></mask><clipPath id="clip3"><rect width="16" height="16" x="0" y="0"/></clipPath><g id="surface5" clip-path="url(#clip3)"><path style="stroke:none;fill-rule:nonzero;fill:#000;fill-opacity:1" d="M 11.21875 7.824219 C 11.082031 8.453125 10.722656 9.027344 10.203125 9.449219 C 9.609375 9.929688 8.847656 10.183594 7.996094 10.183594 C 6.464844 10.183594 5.097656 9.171875 4.78125 7.824219 C 5.742188 7.996094 6.855469 8.085938 8 8.085938 C 9.144531 8.085938 10.257812 7.996094 11.21875 7.824219 M 11.277344 7.4375 C 11.257812 7.4375 11.234375 7.4375 11.214844 7.441406 C 10.292969 7.613281 9.1875 7.710938 8 7.710938 C 6.808594 7.710938 5.707031 7.613281 4.785156 7.441406 C 4.761719 7.4375 4.742188 7.4375 4.722656 7.4375 C 4.519531 7.4375 4.359375 7.621094 4.398438 7.828125 C 4.707031 9.328125 6.179688 10.558594 7.996094 10.558594 C 9.984375 10.558594 11.324219 9.289062 11.601562 7.824219 C 11.640625 7.617188 11.476562 7.4375 11.277344 7.4375 Z M 11.277344 7.4375"/></g><clipPath id="clip4"><path d="M 6 7 L 10 7 L 10 12 L 6 12 Z M 6 7"/></clipPath><clipPath id="clip5"><path d="M 4.785156 7.890625 L 4.785156 12.019531 L 11.144531 12.019531 L 11.144531 7.890625 C 10.199219 8.054688 9.113281 8.144531 8 8.144531 C 6.886719 8.144531 5.800781 8.058594 4.859375 7.894531"/></clipPath><clipPath id="clip6"><path d="M 4 7 L 12 7 L 12 13 L 4 13 Z M 4 7"/></clipPath><clipPath id="clip7"><path d="M 4.785156 7.890625 L 4.785156 12.019531 L 11.144531 12.019531 L 11.144531 7.890625 C 10.199219 8.054688 9.113281 8.144531 8 8.144531 C 6.886719 8.144531 5.800781 8.058594 4.859375 7.894531"/></clipPath><mask id="mask1"><g filter="url(#alpha)"><rect width="16" height="16" x="0" y="0" style="fill:#000;fill-opacity:.301961;stroke:none"/></g></mask><clipPath id="clip8"><rect width="16" height="16" x="0" y="0"/></clipPath><g id="surface8" clip-path="url(#clip8)"><path style="stroke:none;fill-rule:nonzero;fill:#ab3f2e;fill-opacity:1" d="M 9.472656 7.109375 L 9.472656 10.53125 C 9.472656 11.136719 8.980469 11.628906 8.375 11.628906 L 7.761719 11.628906 C 7.152344 11.628906 6.660156 11.136719 6.660156 10.53125 L 6.660156 7.109375 L 9.472656 7.109375 M 9.828125 6.753906 L 6.304688 6.753906 L 6.304688 10.53125 C 6.304688 11.332031 6.957031 11.984375 7.761719 11.984375 L 8.375 11.984375 C 9.175781 11.984375 9.828125 11.332031 9.828125 10.53125 Z M 9.828125 6.753906"/></g><mask id="mask2"><g filter="url(#alpha)"><rect width="16" height="16" x="0" y="0" style="fill:#000;fill-opacity:.301961;stroke:none"/></g></mask><clipPath id="clip9"><rect width="16" height="16" x="0" y="0"/></clipPath><g id="surface11" clip-path="url(#clip9)"><path style="fill:none;stroke-width:3;stroke-linecap:round;stroke-linejoin:miter;stroke:#ab3f2e;stroke-opacity:1;stroke-miterlimit:10" d="M 64.53125 54.03125 L 64.53125 79.5625" transform="matrix(0.125,0,0,0.125,0,0)"/></g></defs><g id="surface1"><path style="stroke:none;fill-rule:nonzero;fill:url(#linear0)" d="M 12.628906 15.347656 C 12.503906 15.347656 12.210938 15.191406 11.953125 15.050781 C 11.464844 14.792969 10.859375 14.472656 10.261719 14.472656 C 9.730469 14.472656 9.335938 14.726562 8.984375 14.949219 C 8.671875 15.148438 8.375 15.335938 8 15.34375 C 7.597656 15.335938 7.300781 15.140625 6.984375 14.9375 C 6.628906 14.707031 6.265625 14.472656 5.742188 14.472656 C 5.144531 14.472656 4.535156 14.792969 4.046875 15.050781 C 3.789062 15.1875 3.488281 15.34375 3.363281 15.34375 C 3.214844 15.34375 2.960938 15.21875 2.949219 15.152344 C 2.949219 15.144531 2.953125 15.128906 2.957031 15.121094 C 2.957031 15.109375 3.222656 13.832031 3.433594 12.554688 C 3.894531 9.785156 3.691406 9.703125 3.476562 9.613281 C 2.019531 9.019531 0.640625 6.898438 0.675781 5.75 C 0.679688 5.503906 0.773438 5.238281 0.917969 5.226562 C 0.929688 5.222656 0.941406 5.222656 0.949219 5.222656 C 0.992188 5.222656 1.003906 5.230469 1.128906 5.386719 C 1.203125 5.480469 1.296875 5.59375 1.433594 5.726562 C 2.074219 6.347656 2.601562 6.625 3.4375 6.785156 C 3.453125 6.785156 3.46875 6.789062 3.484375 6.789062 C 3.542969 6.789062 3.597656 6.769531 3.640625 6.730469 C 3.699219 6.683594 3.734375 6.613281 3.734375 6.539062 L 3.734375 4.824219 C 3.734375 3.789062 4.164062 2.761719 4.917969 2 C 5.71875 1.195312 6.804688 0.75 7.984375 0.75 C 10.316406 0.75 12.285156 2.617188 12.285156 4.824219 L 12.285156 6.539062 C 12.285156 6.613281 12.320312 6.6875 12.378906 6.734375 C 12.421875 6.769531 12.476562 6.789062 12.535156 6.789062 C 12.550781 6.789062 12.570312 6.785156 12.589844 6.78125 C 13.398438 6.597656 14.011719 6.269531 14.574219 5.726562 C 14.710938 5.59375 14.804688 5.476562 14.878906 5.382812 C 15.007812 5.222656 15.015625 5.222656 15.054688 5.222656 C 15.066406 5.222656 15.074219 5.222656 15.085938 5.222656 C 15.230469 5.238281 15.320312 5.503906 15.328125 5.746094 C 15.355469 6.898438 13.976562 9.019531 12.523438 9.613281 C 12.304688 9.703125 12.101562 9.785156 12.5625 12.558594 C 12.777344 13.835938 13.039062 15.109375 13.042969 15.121094 C 13.042969 15.132812 13.046875 15.140625 13.046875 15.148438 C 13.035156 15.21875 12.78125 15.347656 12.628906 15.347656 Z M 12.628906 15.347656"/><path style="stroke:none;fill-rule:nonzero;fill:#a1a1a1;fill-opacity:1" d="M 7.984375 1 C 10.175781 1 12.03125 2.75 12.03125 4.824219 L 12.03125 6.539062 C 12.03125 6.691406 12.101562 6.835938 12.21875 6.929688 C 12.308594 7 12.421875 7.039062 12.53125 7.039062 C 12.570312 7.039062 12.605469 7.035156 12.644531 7.027344 C 13.5 6.828125 14.148438 6.484375 14.746094 5.90625 C 14.882812 5.777344 14.976562 5.660156 15.050781 5.566406 C 15.0625 5.617188 15.074219 5.683594 15.078125 5.753906 C 15.089844 6.304688 14.765625 7.078125 14.210938 7.828125 C 13.667969 8.558594 12.984375 9.152344 12.425781 9.382812 C 11.996094 9.558594 11.867188 9.898438 12.316406 12.597656 C 12.492188 13.65625 12.703125 14.707031 12.773438 15.054688 C 12.726562 15.078125 12.667969 15.09375 12.636719 15.097656 C 12.539062 15.078125 12.265625 14.9375 12.070312 14.832031 C 11.558594 14.558594 10.925781 14.222656 10.265625 14.222656 C 9.660156 14.222656 9.230469 14.496094 8.851562 14.738281 C 8.558594 14.925781 8.304688 15.085938 8.007812 15.097656 C 7.671875 15.085938 7.429688 14.929688 7.121094 14.730469 C 6.757812 14.492188 6.34375 14.222656 5.746094 14.222656 C 5.082031 14.222656 4.445312 14.558594 3.933594 14.832031 C 3.734375 14.9375 3.464844 15.078125 3.363281 15.097656 C 3.328125 15.09375 3.273438 15.078125 3.226562 15.054688 C 3.296875 14.710938 3.507812 13.65625 3.683594 12.601562 C 4.132812 9.898438 4 9.558594 3.570312 9.382812 C 3.015625 9.15625 2.332031 8.5625 1.789062 7.832031 C 1.234375 7.082031 0.910156 6.304688 0.925781 5.753906 C 0.925781 5.679688 0.9375 5.613281 0.953125 5.5625 C 1.023438 5.65625 1.125 5.773438 1.261719 5.90625 C 1.941406 6.566406 2.5 6.859375 3.390625 7.027344 C 3.421875 7.035156 3.453125 7.039062 3.484375 7.039062 C 3.597656 7.039062 3.710938 6.996094 3.800781 6.921875 C 3.917969 6.828125 3.984375 6.6875 3.984375 6.539062 L 3.984375 4.824219 C 3.984375 3.855469 4.390625 2.890625 5.097656 2.175781 C 5.84375 1.417969 6.871094 1 7.984375 1 M 7.984375 0.5 C 5.332031 0.5 3.484375 2.589844 3.484375 4.824219 L 3.484375 6.539062 C 2.660156 6.382812 2.195312 6.113281 1.609375 5.546875 C 1.253906 5.207031 1.214844 4.972656 0.949219 4.972656 C 0.929688 4.972656 0.914062 4.972656 0.890625 4.976562 C 0.566406 5.011719 0.433594 5.414062 0.425781 5.742188 C 0.386719 7.183594 2.046875 9.300781 3.382812 9.847656 C 3.757812 10 2.710938 15.074219 2.710938 15.074219 C 2.609375 15.398438 3.140625 15.597656 3.367188 15.597656 C 3.820312 15.597656 4.828125 14.722656 5.742188 14.722656 C 6.648438 14.722656 7.046875 15.578125 8.007812 15.59375 C 8.902344 15.578125 9.355469 14.722656 10.261719 14.722656 C 11.175781 14.722656 12.175781 15.597656 12.628906 15.597656 C 12.855469 15.597656 13.390625 15.398438 13.285156 15.074219 C 13.285156 15.074219 12.238281 10 12.617188 9.847656 C 13.949219 9.300781 15.613281 7.183594 15.574219 5.742188 C 15.566406 5.414062 15.433594 5.011719 15.109375 4.976562 C 15.089844 4.972656 15.070312 4.972656 15.050781 4.972656 C 14.785156 4.972656 14.75 5.207031 14.398438 5.546875 C 13.808594 6.113281 13.214844 6.382812 12.53125 6.539062 L 12.53125 4.824219 C 12.53125 2.550781 10.542969 0.5 7.984375 0.5 Z M 7.984375 0.5"/><g clip-path="url(#clip1)" clip-rule="nonzero"><g clip-path="url(#clip2)" clip-rule="nonzero"><path style="stroke:none;fill-rule:nonzero;fill:#242424;fill-opacity:1" d="M 8 7.710938 C 6.808594 7.710938 5.707031 7.613281 4.785156 7.441406 C 4.554688 7.398438 4.351562 7.601562 4.398438 7.828125 C 4.707031 9.328125 6.179688 10.558594 7.996094 10.558594 C 9.984375 10.558594 11.324219 9.289062 11.601562 7.824219 C 11.640625 7.597656 11.441406 7.398438 11.214844 7.441406 C 10.292969 7.613281 9.1875 7.710938 8 7.710938 Z M 8 7.710938"/><use mask="url(#mask0)" xlink:href="#surface5"/></g></g><g clip-path="url(#clip4)" clip-rule="nonzero"><g clip-path="url(#clip5)" clip-rule="nonzero"><path style="stroke:none;fill-rule:nonzero;fill:#e04c74;fill-opacity:1" d="M 8.375 11.984375 L 7.761719 11.984375 C 6.957031 11.984375 6.304688 11.332031 6.304688 10.53125 L 6.304688 6.753906 L 9.828125 6.753906 L 9.828125 10.53125 C 9.828125 11.332031 9.175781 11.984375 8.375 11.984375 Z M 8.375 11.984375"/></g></g><g clip-path="url(#clip6)" clip-rule="nonzero"><g clip-path="url(#clip7)" clip-rule="nonzero"><use mask="url(#mask1)" xlink:href="#surface8"/><use mask="url(#mask2)" xlink:href="#surface11"/></g></g><path style="stroke:none;fill-rule:nonzero;fill:#fff;fill-opacity:1" d="M 11.519531 5.234375 C 11.519531 6.324219 10.636719 7.207031 9.546875 7.207031 C 8.453125 7.207031 7.570312 6.324219 7.570312 5.234375 C 7.570312 4.140625 8.453125 3.257812 9.546875 3.257812 C 10.636719 3.257812 11.519531 4.140625 11.519531 5.234375 Z M 11.519531 5.234375"/><path style="stroke:none;fill-rule:nonzero;fill:#a1a1a1;fill-opacity:1" d="M 9.546875 3.757812 C 10.359375 3.757812 11.019531 4.421875 11.019531 5.234375 C 11.019531 6.046875 10.359375 6.710938 9.546875 6.710938 C 8.730469 6.710938 8.070312 6.046875 8.070312 5.234375 C 8.070312 4.421875 8.730469 3.757812 9.546875 3.757812 M 9.546875 3.257812 C 8.453125 3.257812 7.570312 4.140625 7.570312 5.234375 C 7.570312 6.324219 8.453125 7.210938 9.546875 7.210938 C 10.636719 7.210938 11.519531 6.324219 11.519531 5.234375 C 11.519531 4.140625 10.636719 3.257812 9.546875 3.257812 Z M 9.546875 3.257812"/><path style="stroke:none;fill-rule:nonzero;fill:#242424;fill-opacity:1" d="M 10.234375 5.234375 C 10.234375 4.84375 9.925781 4.53125 9.546875 4.53125 C 9.164062 4.53125 8.855469 4.84375 8.855469 5.234375 C 8.855469 5.621094 9.164062 5.933594 9.546875 5.933594 C 9.925781 5.933594 10.234375 5.621094 10.234375 5.234375 Z M 10.234375 5.234375"/><path style="stroke:none;fill-rule:nonzero;fill:#242424;fill-opacity:1" d="M 6.761719 6.03125 C 6.761719 6.03125 6.753906 6.027344 6.734375 6.019531 C 6.730469 6.015625 6.71875 6.011719 6.707031 6.007812 C 6.699219 6.003906 6.691406 6 6.679688 6 C 6.660156 5.992188 6.628906 5.984375 6.59375 5.972656 C 6.558594 5.964844 6.519531 5.957031 6.472656 5.949219 C 6.382812 5.929688 6.273438 5.921875 6.15625 5.917969 C 6.039062 5.917969 5.910156 5.925781 5.78125 5.945312 C 5.757812 5.949219 5.707031 5.953125 5.683594 5.957031 C 5.65625 5.964844 5.625 5.96875 5.59375 5.976562 C 5.53125 5.988281 5.472656 6.003906 5.417969 6.019531 C 5.300781 6.054688 5.203125 6.09375 5.117188 6.136719 C 5.039062 6.175781 4.976562 6.214844 4.933594 6.242188 C 4.914062 6.253906 4.898438 6.265625 4.886719 6.273438 C 4.878906 6.28125 4.871094 6.289062 4.871094 6.289062 L 4.84375 6.304688 C 4.742188 6.382812 4.597656 6.359375 4.523438 6.257812 C 4.460938 6.175781 4.464844 6.0625 4.523438 5.984375 C 4.523438 5.984375 4.527344 5.976562 4.542969 5.957031 C 4.554688 5.941406 4.574219 5.914062 4.601562 5.886719 C 4.628906 5.855469 4.660156 5.820312 4.703125 5.785156 C 4.742188 5.75 4.789062 5.710938 4.84375 5.675781 C 4.949219 5.601562 5.082031 5.53125 5.230469 5.476562 C 5.300781 5.449219 5.378906 5.421875 5.457031 5.402344 C 5.496094 5.394531 5.539062 5.386719 5.582031 5.375 C 5.628906 5.367188 5.652344 5.363281 5.703125 5.355469 C 5.863281 5.332031 6.03125 5.328125 6.1875 5.339844 C 6.34375 5.355469 6.492188 5.386719 6.613281 5.425781 C 6.675781 5.449219 6.734375 5.472656 6.78125 5.496094 C 6.832031 5.515625 6.867188 5.542969 6.90625 5.566406 C 6.925781 5.578125 6.941406 5.585938 6.957031 5.597656 C 6.964844 5.605469 6.976562 5.613281 6.980469 5.617188 C 6.996094 5.628906 7.003906 5.632812 7.003906 5.632812 C 7.101562 5.714844 7.117188 5.859375 7.039062 5.960938 C 6.96875 6.046875 6.855469 6.070312 6.761719 6.03125 Z M 6.761719 6.03125"/><path style="stroke:none;fill-rule:nonzero;fill:#242424;fill-opacity:1" d="M 6.699219 5.945312 C 6.699219 5.945312 6.691406 5.941406 6.679688 5.925781 C 6.664062 5.914062 6.648438 5.902344 6.628906 5.886719 C 6.585938 5.851562 6.523438 5.796875 6.441406 5.734375 C 6.355469 5.675781 6.257812 5.605469 6.144531 5.535156 C 6.089844 5.5 6.03125 5.464844 5.972656 5.425781 C 5.914062 5.390625 5.847656 5.355469 5.789062 5.324219 C 5.722656 5.285156 5.664062 5.25 5.601562 5.21875 C 5.542969 5.1875 5.480469 5.15625 5.421875 5.125 C 5.300781 5.066406 5.191406 5.015625 5.097656 4.976562 C 5.003906 4.933594 4.925781 4.90625 4.871094 4.886719 C 4.820312 4.871094 4.789062 4.859375 4.789062 4.859375 L 4.765625 4.855469 C 4.644531 4.816406 4.578125 4.683594 4.617188 4.5625 C 4.648438 4.460938 4.742188 4.398438 4.84375 4.402344 C 4.84375 4.402344 4.855469 4.402344 4.875 4.402344 C 4.898438 4.402344 4.929688 4.40625 4.964844 4.410156 C 5.042969 4.417969 5.148438 4.433594 5.265625 4.464844 C 5.386719 4.496094 5.523438 4.542969 5.660156 4.597656 C 5.730469 4.628906 5.800781 4.660156 5.871094 4.695312 C 5.941406 4.730469 6.015625 4.769531 6.078125 4.800781 C 6.152344 4.84375 6.21875 4.886719 6.285156 4.925781 C 6.351562 4.96875 6.414062 5.015625 6.476562 5.058594 C 6.597656 5.148438 6.703125 5.242188 6.792969 5.328125 C 6.878906 5.414062 6.949219 5.496094 6.992188 5.558594 C 7.019531 5.589844 7.039062 5.617188 7.046875 5.632812 C 7.054688 5.648438 7.058594 5.65625 7.058594 5.65625 C 7.125 5.765625 7.089844 5.910156 6.980469 5.976562 C 6.890625 6.03125 6.773438 6.015625 6.699219 5.945312 Z M 6.699219 5.945312"/></g></svg>