<svg xmlns="http://www.w3.org/2000/svg" xmlns:xlink="http://www.w3.org/1999/xlink" width="16pt" height="16pt" version="1.1" viewBox="0 0 16 16"><defs><linearGradient id="linear0" x1="63.742" x2="63.742" y1="18.823" y2="106.85" gradientTransform="matrix(0.125,0,0,0.125,0,0)" gradientUnits="userSpaceOnUse"><stop offset=".5" style="stop-color:#fee133;stop-opacity:1"/><stop offset=".612" style="stop-color:#fede32;stop-opacity:1"/><stop offset=".708" style="stop-color:#fcd32f;stop-opacity:1"/><stop offset=".797" style="stop-color:#fac12b;stop-opacity:1"/><stop offset=".883" style="stop-color:#f7a924;stop-opacity:1"/><stop offset=".9" style="stop-color:#f6a323;stop-opacity:1"/></linearGradient><clipPath id="clip1"><path d="M 2 8 L 14 8 L 14 14 L 2 14 Z M 2 8"/></clipPath><clipPath id="clip2"><path d="M 8 8.679688 C 6.035156 8.679688 4.210938 8.515625 2.6875 8.234375 C 2.308594 8.164062 1.976562 8.496094 2.050781 8.875 C 2.558594 11.351562 4.996094 13.382812 7.996094 13.382812 C 11.28125 13.382812 13.488281 11.285156 13.949219 8.863281 C 14.019531 8.492188 13.683594 8.164062 13.3125 8.234375 C 11.789062 8.515625 9.964844 8.679688 8 8.679688 Z M 8 8.679688"/></clipPath><clipPath id="clip3"><path d="M 2 8 L 14 8 L 14 11 L 2 11 Z M 2 8"/></clipPath><clipPath id="clip4"><path d="M 8 8.679688 C 6.035156 8.679688 4.210938 8.515625 2.6875 8.234375 C 2.308594 8.164062 1.976562 8.496094 2.050781 8.875 C 2.558594 11.351562 4.996094 13.382812 7.996094 13.382812 C 11.28125 13.382812 13.488281 11.285156 13.949219 8.863281 C 14.019531 8.492188 13.683594 8.164062 13.3125 8.234375 C 11.789062 8.515625 9.964844 8.679688 8 8.679688 Z M 8 8.679688"/></clipPath><clipPath id="clip5"><path d="M 4 11 L 12 11 L 12 14 L 4 14 Z M 4 11"/></clipPath><clipPath id="clip6"><path d="M 8 8.679688 C 6.035156 8.679688 4.210938 8.515625 2.6875 8.234375 C 2.308594 8.164062 1.976562 8.496094 2.050781 8.875 C 2.558594 11.351562 4.996094 13.382812 7.996094 13.382812 C 11.28125 13.382812 13.488281 11.285156 13.949219 8.863281 C 14.019531 8.492188 13.683594 8.164062 13.3125 8.234375 C 11.789062 8.515625 9.964844 8.679688 8 8.679688 Z M 8 8.679688"/></clipPath><clipPath id="clip7"><path d="M 2 8 L 14 8 L 14 14 L 2 14 Z M 2 8"/></clipPath><clipPath id="clip8"><path d="M 8 8.679688 C 6.035156 8.679688 4.210938 8.515625 2.6875 8.234375 C 2.308594 8.164062 1.976562 8.496094 2.050781 8.875 C 2.558594 11.351562 4.996094 13.382812 7.996094 13.382812 C 11.28125 13.382812 13.488281 11.285156 13.949219 8.863281 C 14.019531 8.492188 13.683594 8.164062 13.3125 8.234375 C 11.789062 8.515625 9.964844 8.679688 8 8.679688 Z M 8 8.679688"/></clipPath><clipPath id="clip9"><path d="M 1.34375 6.675781 L 1.34375 8.539062 C 3.390625 9.738281 5.640625 10.410156 8 10.410156 C 10.359375 10.410156 12.609375 9.738281 14.65625 8.539062 L 14.65625 6.675781 Z M 8 11.667969 C 6.527344 11.667969 5.242188 12.46875 4.558594 13.660156 C 5.449219 14.144531 6.664062 14.445312 8 14.445312 C 9.339844 14.445312 10.550781 14.144531 11.441406 13.660156 C 10.757812 12.46875 9.472656 11.667969 8 11.667969 Z M 8 11.667969"/></clipPath><linearGradient id="linear1" x1="10.672" x2="10.672" y1="35.665" y2="35.582" gradientTransform="matrix(0.125,0,0,0.125,0,0)" gradientUnits="userSpaceOnUse"><stop offset="0" style="stop-color:#9e9e9e;stop-opacity:1"/><stop offset="1" style="stop-color:#616161;stop-opacity:1"/></linearGradient><linearGradient id="linear2" x1="10.296" x2="10.296" y1="35.92" y2="35.673" gradientTransform="matrix(0.125,0,0,0.125,0,0)" gradientUnits="userSpaceOnUse"><stop offset="0" style="stop-color:#9e9e9e;stop-opacity:1"/><stop offset="1" style="stop-color:#616161;stop-opacity:1"/></linearGradient><linearGradient id="linear3" x1="229.46" x2="229.46" y1="35.665" y2="35.582" gradientTransform="matrix(-0.125,0,0,0.125,43.39,0)" gradientUnits="userSpaceOnUse"><stop offset="0" style="stop-color:#9e9e9e;stop-opacity:1"/><stop offset="1" style="stop-color:#616161;stop-opacity:1"/></linearGradient><linearGradient id="linear4" x1="229.08" x2="229.08" y1="35.92" y2="35.673" gradientTransform="matrix(-0.125,0,0,0.125,43.39,0)" gradientUnits="userSpaceOnUse"><stop offset="0" style="stop-color:#9e9e9e;stop-opacity:1"/><stop offset="1" style="stop-color:#616161;stop-opacity:1"/></linearGradient></defs><g id="surface1"><path style="stroke:none;fill-rule:nonzero;fill:url(#linear0)" d="M 7.96875 14.878906 C 4.472656 14.878906 0.714844 12.691406 0.714844 7.890625 C 0.714844 3.085938 4.476562 0.902344 7.96875 0.902344 C 9.902344 0.902344 11.695312 1.542969 13.015625 2.707031 C 14.457031 3.980469 15.222656 5.773438 15.222656 7.890625 C 15.222656 10 14.457031 11.789062 13.015625 13.066406 C 11.691406 14.234375 9.898438 14.878906 7.96875 14.878906 Z M 7.96875 14.878906"/><path style="stroke:none;fill-rule:nonzero;fill:#eb8f00;fill-opacity:1" d="M 7.96875 1.152344 C 9.84375 1.152344 11.578125 1.769531 12.847656 2.894531 C 14.234375 4.117188 14.96875 5.847656 14.96875 7.890625 C 14.96875 9.925781 14.234375 11.652344 12.847656 12.878906 C 11.570312 14.007812 9.835938 14.632812 7.964844 14.632812 C 6.085938 14.632812 4.351562 14.015625 3.082031 12.902344 C 1.699219 11.683594 0.964844 9.949219 0.964844 7.890625 C 0.964844 5.820312 1.699219 4.085938 3.085938 2.867188 C 4.351562 1.761719 6.082031 1.152344 7.96875 1.152344 M 7.96875 0.652344 C 4.074219 0.652344 0.464844 3.152344 0.464844 7.890625 C 0.464844 12.605469 4.074219 15.132812 7.96875 15.132812 C 11.863281 15.132812 15.46875 12.539062 15.46875 7.890625 C 15.472656 3.21875 11.863281 0.652344 7.96875 0.652344 Z M 7.96875 0.652344"/><path style="stroke:none;fill-rule:nonzero;fill:#242424;fill-opacity:1" d="M 11.179688 5.390625 C 11.664062 5.390625 12.105469 5.800781 12.105469 6.480469 C 12.105469 7.160156 11.664062 7.570312 11.179688 7.570312 C 10.691406 7.570312 10.25 7.160156 10.25 6.480469 C 10.25 5.800781 10.695312 5.390625 11.179688 5.390625 Z M 11.179688 5.390625"/><path style="stroke:none;fill-rule:nonzero;fill:#242424;fill-opacity:1" d="M 4.820312 5.390625 C 4.335938 5.390625 3.894531 5.800781 3.894531 6.480469 C 3.894531 7.160156 4.335938 7.570312 4.820312 7.570312 C 5.308594 7.570312 5.75 7.160156 5.75 6.480469 C 5.75 5.800781 5.304688 5.390625 4.820312 5.390625 Z M 4.820312 5.390625"/><g clip-path="url(#clip1)" clip-rule="nonzero"><g clip-path="url(#clip2)" clip-rule="nonzero"><path style="stroke:none;fill-rule:nonzero;fill:#242424;fill-opacity:1" d="M 8 8.679688 C 6.035156 8.679688 4.210938 8.515625 2.6875 8.234375 C 2.308594 8.164062 1.976562 8.496094 2.050781 8.875 C 2.558594 11.351562 4.996094 13.382812 7.996094 13.382812 C 11.28125 13.382812 13.488281 11.285156 13.949219 8.863281 C 14.019531 8.492188 13.683594 8.164062 13.3125 8.234375 C 11.789062 8.515625 9.964844 8.679688 8 8.679688 Z M 8 8.679688"/></g></g><g clip-path="url(#clip3)" clip-rule="nonzero"><g clip-path="url(#clip4)" clip-rule="nonzero"><path style="stroke:none;fill-rule:nonzero;fill:#fff;fill-opacity:1" d="M 14.65625 8.539062 L 14.65625 6.675781 L 1.34375 6.675781 L 1.34375 8.539062 C 3.390625 9.738281 5.640625 10.410156 8 10.410156 C 10.359375 10.410156 12.609375 9.738281 14.65625 8.539062 Z M 14.65625 8.539062"/></g></g><g clip-path="url(#clip5)" clip-rule="nonzero"><g clip-path="url(#clip6)" clip-rule="nonzero"><path style="stroke:none;fill-rule:nonzero;fill:#ed7770;fill-opacity:1" d="M 8 11.667969 C 6.527344 11.667969 5.242188 12.46875 4.558594 13.660156 C 5.449219 14.144531 6.664062 14.445312 8 14.445312 C 9.335938 14.445312 10.550781 14.144531 11.441406 13.660156 C 10.757812 12.46875 9.472656 11.667969 8 11.667969 Z M 8 11.667969"/></g></g><g clip-path="url(#clip7)" clip-rule="nonzero"><g clip-path="url(#clip8)" clip-rule="nonzero"><g clip-path="url(#clip9)" clip-rule="nonzero"><path style="stroke:none;fill-rule:nonzero;fill:#eb8f00;fill-opacity:1" d="M 13.414062 8.75 C 13.421875 8.75 13.429688 8.761719 13.429688 8.765625 C 13.222656 9.871094 12.605469 10.886719 11.699219 11.621094 C 10.703125 12.429688 9.421875 12.855469 7.996094 12.855469 C 6.6875 12.855469 5.417969 12.425781 4.414062 11.640625 C 3.449219 10.886719 2.792969 9.867188 2.566406 8.765625 C 2.570312 8.761719 2.578125 8.75 2.589844 8.75 C 4.199219 9.046875 6.070312 9.207031 8 9.207031 C 9.929688 9.207031 11.800781 9.046875 13.410156 8.75 C 13.410156 8.75 13.414062 8.75 13.414062 8.75 M 13.414062 8.226562 C 13.378906 8.226562 13.347656 8.226562 13.3125 8.234375 C 11.789062 8.515625 9.964844 8.683594 8 8.683594 C 6.035156 8.683594 4.210938 8.515625 2.6875 8.234375 C 2.652344 8.230469 2.621094 8.226562 2.585938 8.226562 C 2.253906 8.226562 1.984375 8.53125 2.050781 8.875 C 2.558594 11.351562 4.996094 13.382812 7.996094 13.382812 C 11.28125 13.382812 13.488281 11.285156 13.949219 8.863281 C 14.011719 8.523438 13.742188 8.226562 13.414062 8.226562 Z M 13.414062 8.226562"/></g></g></g><path style="stroke:none;fill-rule:nonzero;fill:#000;fill-opacity:1" d="M 9.394531 4.691406 C 9.335938 4.636719 9.253906 4.625 9.1875 4.660156 C 9.183594 4.664062 8.957031 4.78125 8.671875 4.761719 L 8.636719 4.757812 C 8.394531 4.742188 8.171875 4.730469 7.921875 4.730469 L 7.910156 4.730469 C 7.765625 4.730469 7.457031 4.746094 7.234375 4.761719 C 6.957031 4.777344 6.761719 4.667969 6.761719 4.667969 C 6.691406 4.625 6.605469 4.632812 6.542969 4.6875 C 6.484375 4.746094 6.457031 4.835938 6.484375 4.921875 L 6.859375 6.148438 C 6.882812 6.226562 6.945312 6.28125 7.019531 6.292969 C 7.09375 6.300781 7.164062 6.261719 7.203125 6.191406 C 7.207031 6.1875 7.4375 5.789062 7.980469 5.78125 C 8.515625 5.789062 8.75 6.175781 8.757812 6.191406 C 8.792969 6.257812 8.855469 6.292969 8.921875 6.292969 C 8.929688 6.292969 8.9375 6.292969 8.945312 6.292969 C 9.019531 6.28125 9.082031 6.222656 9.105469 6.144531 L 9.453125 4.917969 C 9.476562 4.835938 9.453125 4.746094 9.394531 4.691406 Z M 9.394531 4.691406"/><path style="stroke:none;fill-rule:nonzero;fill:#000;fill-opacity:1" d="M 7.382812 4.800781 C 7.382812 4.800781 6.382812 3.636719 2.800781 3.972656 C 0.410156 4.195312 0.28125 4.417969 0.28125 4.417969 L 0.265625 5.320312 C 0.265625 5.320312 0.621094 5.421875 0.855469 5.707031 C 1.082031 5.988281 1.191406 7.570312 1.566406 8.316406 C 2.144531 9.46875 5.019531 9.175781 5.019531 9.175781 C 5.019531 9.175781 6.195312 9.269531 6.765625 8.28125 C 7.339844 7.296875 7.515625 5.871094 7.515625 5.871094 Z M 6.542969 6.90625 C 6.316406 7.960938 6.03125 8.679688 4.078125 8.570312 C 2.824219 8.496094 1.949219 8.5 1.746094 6.667969 C 1.625 5.527344 1.761719 5.097656 1.855469 4.960938 C 1.949219 4.824219 2.285156 4.429688 4.226562 4.5 C 6.171875 4.566406 6.449219 5.003906 6.5625 5.203125 C 6.679688 5.398438 6.773438 5.851562 6.542969 6.90625 Z M 6.542969 6.90625"/><path style="stroke:none;fill-rule:nonzero;fill:#000;fill-opacity:1" d="M 8.484375 5.871094 C 8.484375 5.871094 8.660156 7.296875 9.234375 8.28125 C 9.804688 9.269531 10.980469 9.175781 10.980469 9.175781 C 10.980469 9.175781 13.855469 9.46875 14.433594 8.316406 C 14.808594 7.570312 14.917969 5.988281 15.144531 5.707031 C 15.375 5.421875 15.734375 5.320312 15.734375 5.320312 L 15.71875 4.417969 C 15.71875 4.417969 15.589844 4.195312 13.199219 3.972656 C 9.617188 3.636719 8.617188 4.800781 8.617188 4.800781 Z M 9.433594 5.203125 C 9.546875 5.003906 9.828125 4.566406 11.769531 4.5 C 13.714844 4.429688 14.050781 4.824219 14.144531 4.960938 C 14.238281 5.097656 14.375 5.527344 14.25 6.667969 C 14.050781 8.5 13.175781 8.496094 11.921875 8.570312 C 9.96875 8.679688 9.683594 7.960938 9.457031 6.90625 C 9.226562 5.851562 9.320312 5.398438 9.433594 5.203125 Z M 9.433594 5.203125"/><path style="stroke:none;fill-rule:nonzero;fill:url(#linear1)" d="M 1.355469 4.449219 C 1.339844 4.449219 1.328125 4.453125 1.3125 4.457031 C 1.328125 4.453125 1.339844 4.449219 1.355469 4.449219 Z M 1.355469 4.449219"/><path style="stroke:none;fill-rule:nonzero;fill:url(#linear2)" d="M 1.269531 4.484375 C 1.28125 4.472656 1.292969 4.464844 1.304688 4.460938 C 1.292969 4.464844 1.28125 4.472656 1.269531 4.484375 Z M 1.269531 4.484375"/><path style="stroke:none;fill-rule:nonzero;fill:url(#linear3)" d="M 14.6875 4.449219 C 14.703125 4.449219 14.714844 4.453125 14.726562 4.457031 C 14.714844 4.453125 14.703125 4.449219 14.6875 4.449219 Z M 14.6875 4.449219"/><path style="stroke:none;fill-rule:nonzero;fill:url(#linear4)" d="M 14.773438 4.484375 C 14.761719 4.472656 14.75 4.464844 14.738281 4.460938 C 14.75 4.464844 14.761719 4.472656 14.773438 4.484375 Z M 14.773438 4.484375"/><path style="stroke:none;fill-rule:nonzero;fill:#fff;fill-opacity:1" d="M 0.945312 5.03125 L 0.726562 5.03125 C 0.621094 5.03125 0.535156 4.945312 0.535156 4.839844 C 0.535156 4.734375 0.621094 4.644531 0.726562 4.644531 L 0.945312 4.644531 C 1.050781 4.644531 1.136719 4.734375 1.136719 4.839844 C 1.136719 4.945312 1.050781 5.03125 0.945312 5.03125 Z M 0.945312 5.03125"/><path style="stroke:none;fill-rule:nonzero;fill:#fff;fill-opacity:1" d="M 15.273438 5.03125 L 15.054688 5.03125 C 14.949219 5.03125 14.863281 4.945312 14.863281 4.839844 C 14.863281 4.734375 14.949219 4.644531 15.054688 4.644531 L 15.273438 4.644531 C 15.378906 4.644531 15.464844 4.734375 15.464844 4.839844 C 15.464844 4.945312 15.378906 5.03125 15.273438 5.03125 Z M 15.273438 5.03125"/></g></svg>