<svg xmlns="http://www.w3.org/2000/svg" xmlns:xlink="http://www.w3.org/1999/xlink" width="16pt" height="16pt" version="1.1" viewBox="0 0 16 16"><defs><radialGradient id="radial0" cx="51.77" cy="31.401" r="87.039" fx="51.77" fy="31.401" gradientTransform="matrix(-0.000275,0.125,-0.0984125,-0.0002125,9.5755,-2.539375)" gradientUnits="userSpaceOnUse"><stop offset=".6" style="stop-color:#e0bb95;stop-opacity:1"/><stop offset="1" style="stop-color:#cca47a;stop-opacity:1"/></radialGradient><radialGradient id="radial1" cx="1968" cy="-697.5" r="20.331" fx="1968" fy="-697.5" gradientTransform="matrix(-0.173537,0.009925,-0.004675,-0.084925,351.125,-71.43)" gradientUnits="userSpaceOnUse"><stop offset=".5" style="stop-color:#e0bb95;stop-opacity:1"/><stop offset=".995" style="stop-color:#cca47a;stop-opacity:1"/></radialGradient><radialGradient id="radial2" cx="2030.2" cy="-819.12" r="18.753" fx="2030.2" fy="-819.12" gradientTransform="matrix(-0.212088,-0.0002375,0.0003625,-0.08505,444.3125,-59.42375)" gradientUnits="userSpaceOnUse"><stop offset=".5" style="stop-color:#e0bb95;stop-opacity:1"/><stop offset=".703" style="stop-color:#deb892;stop-opacity:1"/><stop offset=".868" style="stop-color:#d6b088;stop-opacity:1"/><stop offset=".995" style="stop-color:#cca47a;stop-opacity:1"/></radialGradient><radialGradient id="radial3" cx="2072.2" cy="-723.45" r="20.446" fx="2072.2" fy="-723.45" gradientTransform="matrix(-0.163362,-0.0007875,0.0005625,-0.08505,351.5875,-45.835)" gradientUnits="userSpaceOnUse"><stop offset=".5" style="stop-color:#e0bb95;stop-opacity:1"/><stop offset=".703" style="stop-color:#deb892;stop-opacity:1"/><stop offset=".868" style="stop-color:#d6b088;stop-opacity:1"/><stop offset=".995" style="stop-color:#cca47a;stop-opacity:1"/></radialGradient><radialGradient id="radial4" cx="2051.2" cy="-807.84" r="18.611" fx="2051.2" fy="-807.84" gradientTransform="matrix(-0.204475,-0.0002375,0.00035,-0.08505,432.8375,-56.19)" gradientUnits="userSpaceOnUse"><stop offset=".5" style="stop-color:#e0bb95;stop-opacity:1"/><stop offset=".703" style="stop-color:#deb892;stop-opacity:1"/><stop offset=".868" style="stop-color:#d6b088;stop-opacity:1"/><stop offset=".995" style="stop-color:#cca47a;stop-opacity:1"/></radialGradient></defs><g id="surface1"><path style="stroke:none;fill-rule:nonzero;fill:url(#radial0)" d="M 10.691406 15.207031 C 9.609375 15.199219 7.992188 15.15625 6.398438 15.007812 C 5.304688 14.902344 4.171875 14.738281 3.3125 14.253906 C 3.070312 14.113281 2.804688 14.082031 2.570312 14.050781 C 2.46875 14.039062 2.375 14.027344 2.296875 14.011719 C 1.683594 13.867188 1.257812 13.339844 1.257812 12.726562 L 1.246094 8.632812 C 1.246094 8.066406 1.648438 7.59375 2.207031 7.507812 C 2.21875 7.503906 2.226562 7.503906 2.238281 7.5 C 2.304688 7.476562 3.949219 6.941406 5.1875 5.976562 C 5.769531 5.519531 6.265625 4.820312 6.519531 4.101562 C 6.773438 3.382812 6.773438 2.601562 6.769531 1.976562 C 6.769531 1.570312 6.769531 1.066406 6.878906 0.992188 C 7.148438 0.816406 7.441406 0.726562 7.757812 0.726562 C 8.722656 0.726562 9.707031 1.609375 9.746094 2.503906 C 9.773438 3.128906 9.5625 3.863281 9.363281 4.574219 C 9.125 5.414062 8.917969 6.140625 9.105469 6.632812 C 9.132812 6.707031 9.203125 6.753906 9.28125 6.753906 C 9.28125 6.753906 10.191406 6.722656 10.191406 6.722656 L 10.199219 6.722656 C 11.21875 6.722656 12.050781 7.554688 12.050781 8.574219 L 12.058594 13.847656 C 12.058594 14.210938 11.917969 14.554688 11.660156 14.808594 C 11.402344 15.066406 11.0625 15.207031 10.699219 15.207031 Z M 10.691406 15.207031"/><path style="stroke:none;fill-rule:nonzero;fill:#ba8f63;fill-opacity:1" d="M 7.757812 0.914062 C 8.613281 0.914062 9.523438 1.722656 9.558594 2.511719 C 9.582031 3.105469 9.378906 3.824219 9.183594 4.519531 C 8.933594 5.394531 8.722656 6.148438 8.929688 6.699219 C 8.984375 6.84375 9.125 6.941406 9.28125 6.941406 L 9.296875 6.941406 L 10.195312 6.910156 L 10.203125 6.910156 C 11.117188 6.910156 11.863281 7.65625 11.867188 8.574219 L 11.871094 13.847656 C 11.871094 14.160156 11.75 14.457031 11.53125 14.675781 C 11.308594 14.898438 11.015625 15.019531 10.703125 15.019531 L 10.691406 15.019531 C 9.617188 15.011719 8.003906 14.96875 6.417969 14.820312 C 5.34375 14.71875 4.234375 14.558594 3.402344 14.089844 C 3.128906 13.933594 2.832031 13.898438 2.59375 13.867188 C 2.496094 13.855469 2.410156 13.84375 2.339844 13.828125 C 1.8125 13.703125 1.445312 13.25 1.445312 12.726562 L 1.433594 8.632812 C 1.433594 8.160156 1.769531 7.765625 2.238281 7.691406 C 2.257812 7.691406 2.277344 7.683594 2.292969 7.679688 C 2.363281 7.65625 4.035156 7.109375 5.300781 6.121094 C 5.910156 5.644531 6.429688 4.914062 6.695312 4.164062 C 6.960938 3.417969 6.957031 2.617188 6.957031 1.976562 C 6.957031 1.671875 6.957031 1.257812 7.007812 1.132812 C 7.238281 0.984375 7.488281 0.914062 7.757812 0.914062 M 7.757812 0.539062 C 7.425781 0.539062 7.089844 0.628906 6.777344 0.835938 C 6.371094 1.105469 6.808594 2.714844 6.34375 4.035156 C 6.0625 4.828125 5.53125 5.46875 5.070312 5.828125 C 3.84375 6.785156 2.179688 7.320312 2.179688 7.320312 C 1.535156 7.421875 1.058594 7.980469 1.058594 8.636719 L 1.070312 12.730469 C 1.074219 13.433594 1.566406 14.03125 2.253906 14.191406 C 2.53125 14.257812 2.910156 14.238281 3.21875 14.417969 C 4.046875 14.886719 5.109375 15.074219 6.382812 15.195312 C 7.957031 15.34375 9.558594 15.386719 10.6875 15.394531 L 10.703125 15.394531 C 11.554688 15.394531 12.25 14.703125 12.246094 13.847656 L 12.242188 8.574219 C 12.238281 7.445312 11.328125 6.535156 10.203125 6.535156 L 10.1875 6.535156 L 9.28125 6.566406 C 8.96875 5.738281 9.992188 3.871094 9.933594 2.496094 C 9.890625 1.519531 8.847656 0.539062 7.757812 0.539062 Z M 7.757812 0.539062"/><path style="stroke:none;fill-rule:nonzero;fill:#ba8f63;fill-opacity:1" d="M 8.265625 7.8125 C 8.5 8.4375 8.503906 9.414062 8.265625 10.015625 C 7.921875 10.886719 7.078125 11.644531 6.109375 11.78125 C 5.871094 11.8125 6.011719 12.03125 6.25 12 C 7.300781 11.855469 8.722656 11.425781 9.09375 10.484375 C 10.109375 7.890625 8.921875 6.53125 8.390625 6.9375 C 8.136719 7.132812 8.132812 7.457031 8.265625 7.8125 Z M 8.265625 7.8125"/><path style="stroke:none;fill-rule:nonzero;fill:url(#radial1)" d="M 10.785156 8.738281 C 9.738281 8.738281 8.484375 8.546875 8.429688 7.621094 C 8.414062 7.355469 8.496094 7.132812 8.675781 6.941406 C 9.148438 6.4375 10.3125 6.164062 11.953125 6.164062 C 12.546875 6.164062 12.980469 6.203125 12.984375 6.203125 L 13.015625 6.203125 C 13.03125 6.199219 13.046875 6.199219 13.066406 6.199219 C 13.597656 6.199219 14.039062 6.679688 14.078125 7.289062 C 14.113281 7.921875 13.699219 8.460938 13.148438 8.492188 L 13.136719 8.496094 L 13.121094 8.496094 C 13.109375 8.5 11.953125 8.738281 10.785156 8.738281 Z M 10.785156 8.738281"/><path style="stroke:none;fill-rule:nonzero;fill:#ba8f63;fill-opacity:1" d="M 11.953125 6.351562 C 12.539062 6.351562 12.964844 6.386719 12.96875 6.386719 L 12.996094 6.390625 L 13.023438 6.390625 C 13.039062 6.386719 13.050781 6.386719 13.066406 6.386719 C 13.496094 6.386719 13.859375 6.789062 13.890625 7.300781 C 13.921875 7.828125 13.582031 8.28125 13.136719 8.304688 L 13.082031 8.3125 C 13.070312 8.316406 11.929688 8.550781 10.785156 8.550781 C 10.121094 8.550781 9.59375 8.476562 9.21875 8.324219 C 8.703125 8.113281 8.628906 7.816406 8.617188 7.609375 C 8.605469 7.394531 8.667969 7.226562 8.8125 7.070312 C 9.242188 6.613281 10.390625 6.351562 11.953125 6.351562 M 11.953125 5.976562 C 10.527344 5.976562 8.160156 6.191406 8.242188 7.632812 C 8.304688 8.671875 9.558594 8.925781 10.785156 8.925781 C 11.984375 8.925781 13.160156 8.679688 13.160156 8.679688 C 13.8125 8.640625 14.308594 8.015625 14.265625 7.277344 C 14.222656 6.566406 13.691406 6.011719 13.066406 6.011719 C 13.046875 6.011719 13.023438 6.011719 13.003906 6.015625 C 13.003906 6.015625 12.566406 5.976562 11.953125 5.976562 Z M 11.953125 5.976562"/><path style="stroke:none;fill-rule:nonzero;fill:url(#radial2)" d="M 11.570312 11.117188 C 10.203125 11.117188 8.578125 10.890625 8.578125 9.796875 C 8.578125 8.703125 10.203125 8.476562 11.570312 8.476562 C 12.726562 8.476562 13.777344 8.644531 13.789062 8.644531 L 13.804688 8.648438 L 13.820312 8.648438 C 14.371094 8.648438 14.753906 9.230469 14.753906 9.753906 C 14.753906 10.304688 14.34375 10.945312 13.820312 10.945312 L 13.804688 10.945312 L 13.789062 10.949219 C 13.777344 10.949219 12.722656 11.117188 11.570312 11.117188 Z M 11.570312 11.117188"/><path style="stroke:none;fill-rule:nonzero;fill:#ba8f63;fill-opacity:1" d="M 11.570312 8.664062 C 12.707031 8.664062 13.75 8.832031 13.757812 8.832031 L 13.789062 8.835938 L 13.820312 8.835938 C 14.246094 8.835938 14.566406 9.324219 14.566406 9.753906 C 14.566406 10.207031 14.222656 10.757812 13.820312 10.757812 L 13.789062 10.757812 L 13.757812 10.765625 C 13.75 10.765625 12.707031 10.929688 11.570312 10.929688 C 10.714844 10.929688 10.035156 10.839844 9.550781 10.664062 C 8.847656 10.40625 8.765625 10.046875 8.765625 9.796875 C 8.765625 9.546875 8.847656 9.191406 9.550781 8.933594 C 10.035156 8.753906 10.714844 8.664062 11.570312 8.664062 M 11.570312 8.289062 C 10.078125 8.289062 8.390625 8.5625 8.390625 9.796875 C 8.390625 11.035156 10.078125 11.308594 11.570312 11.308594 C 12.753906 11.308594 13.820312 11.136719 13.820312 11.136719 C 14.464844 11.136719 14.941406 10.394531 14.941406 9.757812 C 14.941406 9.117188 14.464844 8.464844 13.820312 8.464844 C 13.820312 8.460938 12.753906 8.289062 11.570312 8.289062 Z M 11.570312 8.289062"/><path style="stroke:none;fill-rule:nonzero;fill:url(#radial3)" d="M 12.609375 15.273438 C 12.082031 15.273438 9.414062 15.234375 8.609375 14.421875 C 8.464844 14.28125 8.398438 14.128906 8.398438 13.957031 C 8.402344 13.300781 9.523438 12.925781 11.480469 12.925781 C 12.179688 12.925781 12.71875 12.976562 12.726562 12.976562 L 12.742188 12.976562 C 13.035156 12.976562 13.3125 13.097656 13.515625 13.3125 C 13.726562 13.53125 13.839844 13.820312 13.839844 14.128906 C 13.835938 14.757812 13.34375 15.269531 12.738281 15.269531 C 12.730469 15.273438 12.683594 15.273438 12.609375 15.273438 Z M 12.609375 15.273438"/><path style="stroke:none;fill-rule:nonzero;fill:#ba8f63;fill-opacity:1" d="M 11.484375 13.113281 C 12.167969 13.113281 12.703125 13.164062 12.707031 13.164062 L 12.738281 13.164062 C 12.980469 13.167969 13.207031 13.265625 13.378906 13.445312 C 13.554688 13.625 13.652344 13.871094 13.648438 14.128906 C 13.648438 14.65625 13.238281 15.085938 12.734375 15.085938 L 12.726562 15.085938 C 12.722656 15.085938 12.679688 15.085938 12.605469 15.085938 C 10.335938 15.085938 9.105469 14.660156 8.738281 14.292969 C 8.601562 14.152344 8.585938 14.035156 8.585938 13.960938 C 8.589844 13.4375 9.699219 13.113281 11.484375 13.113281 M 11.484375 12.738281 C 10.140625 12.738281 8.214844 12.917969 8.210938 13.957031 C 8.207031 15.390625 11.875 15.460938 12.609375 15.460938 C 12.6875 15.460938 12.734375 15.460938 12.734375 15.460938 L 12.738281 15.460938 C 13.449219 15.460938 14.023438 14.863281 14.027344 14.128906 C 14.027344 13.390625 13.453125 12.792969 12.742188 12.789062 C 12.742188 12.789062 12.195312 12.738281 11.484375 12.738281 Z M 11.484375 12.738281"/><path style="stroke:none;fill-rule:nonzero;fill:url(#radial4)" d="M 12.140625 13.289062 C 11.015625 13.289062 8.402344 13.164062 8.402344 11.980469 C 8.402344 10.988281 10.289062 10.839844 11.410156 10.839844 C 12.40625 10.839844 13.261719 10.953125 13.269531 10.953125 L 13.296875 10.953125 C 13.816406 10.953125 14.421875 11.210938 14.421875 11.9375 C 14.421875 12.625 13.886719 13.25 13.296875 13.25 L 13.28125 13.25 C 13.273438 13.25 12.792969 13.289062 12.140625 13.289062 Z M 12.140625 13.289062"/><path style="stroke:none;fill-rule:nonzero;fill:#ba8f63;fill-opacity:1" d="M 11.410156 10.65625 L 11.410156 11.03125 C 12.390625 11.03125 13.238281 11.140625 13.246094 11.140625 L 13.292969 11.140625 C 13.746094 11.140625 14.234375 11.351562 14.234375 11.9375 C 14.234375 12.515625 13.777344 13.0625 13.292969 13.0625 L 13.277344 13.0625 L 13.261719 13.066406 C 13.257812 13.066406 12.785156 13.105469 12.140625 13.105469 C 11.457031 13.105469 10.484375 13.058594 9.710938 12.855469 C 8.96875 12.65625 8.589844 12.363281 8.589844 11.984375 C 8.589844 11.867188 8.589844 11.515625 9.382812 11.265625 C 9.878906 11.109375 10.558594 11.03125 11.410156 11.03125 Z M 11.410156 10.65625 C 9.964844 10.65625 8.214844 10.882812 8.214844 11.984375 C 8.214844 13.277344 10.640625 13.480469 12.140625 13.480469 C 12.808594 13.480469 13.292969 13.4375 13.292969 13.4375 C 14 13.4375 14.609375 12.710938 14.609375 11.9375 C 14.609375 11.167969 14 10.765625 13.292969 10.765625 C 13.292969 10.765625 12.425781 10.65625 11.410156 10.65625 Z M 11.410156 10.65625"/><path style="stroke:none;fill-rule:nonzero;fill:#ba8f63;fill-opacity:1" d="M 3.472656 14.363281 L 2.875 12 L 2.625 14.125 Z M 3.472656 14.363281"/></g></svg>