<svg xmlns="http://www.w3.org/2000/svg" xmlns:xlink="http://www.w3.org/1999/xlink" width="16pt" height="16pt" version="1.1" viewBox="0 0 16 16"><defs><linearGradient id="linear0" x1="2495.9" x2="2568.3" y1="-119.34" y2="-119.34" gradientTransform="matrix(-0.122875,0.0164625,0.016325,0.123912,323.975,-20.94375)" gradientUnits="userSpaceOnUse"><stop offset="0" style="stop-color:#edc391;stop-opacity:1"/><stop offset=".007" style="stop-color:#edc492;stop-opacity:1"/><stop offset=".164" style="stop-color:#f2cfa5;stop-opacity:1"/><stop offset=".346" style="stop-color:#f6d7b3;stop-opacity:1"/><stop offset=".575" style="stop-color:#f8dcbb;stop-opacity:1"/><stop offset="1" style="stop-color:#f9ddbd;stop-opacity:1"/></linearGradient><linearGradient id="linear1" x1="233.93" x2="343.48" y1="195.87" y2="195.87" gradientTransform="matrix(0.122875,0.0164625,-0.016325,0.123912,-25.1075,-20.94375)" gradientUnits="userSpaceOnUse"><stop offset="0" style="stop-color:#f9ddbd;stop-opacity:1"/><stop offset=".327" style="stop-color:#f8dbba;stop-opacity:1"/><stop offset=".604" style="stop-color:#f5d5af;stop-opacity:1"/><stop offset=".862" style="stop-color:#f0cb9e;stop-opacity:1"/><stop offset="1" style="stop-color:#edc391;stop-opacity:1"/></linearGradient><radialGradient id="radial0" cx="2113.8" cy="196" r="16.524" fx="2113.8" fy="196" gradientTransform="matrix(-0.10255,0.0724875,-0.047575,-0.067825,231.4125,-130.9875)" gradientUnits="userSpaceOnUse"><stop offset=".5" style="stop-color:#f9ddbd;stop-opacity:1"/><stop offset="1" style="stop-color:#edc391;stop-opacity:1"/></radialGradient><radialGradient id="radial1" cx="1576" cy="632.2" r="16.282" fx="1576" fy="632.2" gradientTransform="matrix(-0.0716625,0.0832375,-0.06225,-0.0544125,159.8875,-85.69)" gradientUnits="userSpaceOnUse"><stop offset=".5" style="stop-color:#f9ddbd;stop-opacity:1"/><stop offset="1" style="stop-color:#edc391;stop-opacity:1"/></radialGradient><radialGradient id="radial2" cx="2191.9" cy="324.78" r="13.76" fx="2191.9" fy="324.78" gradientTransform="matrix(-0.0976625,0.0607125,-0.0442375,-0.0724125,232.25,-101.4875)" gradientUnits="userSpaceOnUse"><stop offset=".5" style="stop-color:#f9ddbd;stop-opacity:1"/><stop offset="1" style="stop-color:#edc391;stop-opacity:1"/></radialGradient><radialGradient id="radial3" cx="1695.7" cy="291.65" r="16.872" fx="1695.7" fy="291.65" gradientTransform="matrix(0.0745625,0.0751875,-0.0894875,0.0902375,-93.68625,-143.975)" gradientUnits="userSpaceOnUse"><stop offset=".5" style="stop-color:#f9ddbd;stop-opacity:1"/><stop offset="1" style="stop-color:#edc391;stop-opacity:1"/></radialGradient><clipPath id="clip1"><path d="M 5 3 L 11 3 L 11 7 L 5 7 Z M 5 3"/></clipPath><clipPath id="clip2"><path d="M 5.605469 5.839844 C 5.324219 5.355469 5.484375 4.789062 6.007812 4.464844 L 8.917969 3.167969 C 9.234375 3.050781 9.59375 3.816406 9.59375 3.816406 L 10.105469 4.75 C 10.105469 4.75 10.558594 5.417969 10.609375 5.480469 C 10.867188 5.792969 10.476562 5.390625 9.945312 5.273438 C 9 5.066406 7.574219 6.207031 6.890625 6.328125 C 6.207031 6.449219 5.886719 6.328125 5.605469 5.839844 Z M 5.605469 5.839844"/></clipPath></defs><g id="surface1"><path style="stroke:none;fill-rule:nonzero;fill:url(#linear0)" d="M 6.242188 5.015625 C 6.714844 4.609375 7.910156 3.636719 8.910156 3.378906 C 9.164062 3.3125 9.394531 3.28125 9.613281 3.28125 C 10 3.28125 10.28125 3.386719 10.550781 3.484375 C 10.792969 3.574219 11.042969 3.664062 11.339844 3.664062 C 11.472656 3.664062 11.601562 3.648438 11.738281 3.613281 C 11.910156 3.566406 12.085938 3.453125 12.269531 3.332031 C 12.542969 3.15625 12.847656 2.953125 13.179688 2.953125 C 13.453125 2.953125 13.722656 3.085938 14.007812 3.359375 L 14.882812 4.183594 C 15.316406 4.617188 15.34375 5.214844 15.292969 5.636719 C 15.164062 6.671875 14.386719 7.894531 13.5 8.472656 Z M 6.242188 5.015625"/><path style="stroke:none;fill-rule:nonzero;fill:#e6b77e;fill-opacity:1" d="M 13.179688 3.140625 C 13.402344 3.140625 13.628906 3.257812 13.878906 3.5 L 14.746094 4.316406 C 15.054688 4.628906 15.171875 5.0625 15.105469 5.613281 C 14.984375 6.566406 14.289062 7.6875 13.480469 8.257812 L 6.582031 4.972656 C 7.128906 4.515625 8.117188 3.773438 8.953125 3.558594 C 9.195312 3.5 9.410156 3.46875 9.613281 3.46875 C 9.964844 3.46875 10.21875 3.558594 10.484375 3.660156 C 10.742188 3.753906 11.007812 3.851562 11.339844 3.851562 C 11.484375 3.851562 11.632812 3.832031 11.785156 3.792969 C 11.988281 3.738281 12.175781 3.617188 12.375 3.488281 C 12.636719 3.320312 12.902344 3.140625 13.179688 3.140625 M 13.179688 2.765625 C 12.554688 2.765625 12.070312 3.332031 11.691406 3.429688 C 11.5625 3.464844 11.449219 3.476562 11.339844 3.476562 C 10.769531 3.476562 10.394531 3.09375 9.613281 3.09375 C 9.398438 3.09375 9.152344 3.121094 8.859375 3.195312 C 7.527344 3.539062 5.90625 5.0625 5.90625 5.0625 L 13.511719 8.683594 C 14.953125 7.820312 16.230469 5.273438 15.011719 4.046875 L 14.136719 3.226562 C 13.785156 2.886719 13.46875 2.765625 13.179688 2.765625 Z M 13.179688 2.765625"/><path style="stroke:none;fill-rule:nonzero;fill:url(#linear1)" d="M 8.3125 12.953125 C 8.117188 12.953125 7.925781 12.886719 7.78125 12.757812 L 1.816406 7.484375 C 1.132812 6.882812 0.710938 6.125 0.6875 5.460938 C 0.671875 4.988281 0.855469 4.558594 1.230469 4.179688 L 2.101562 3.363281 C 2.386719 3.089844 2.65625 2.957031 2.929688 2.957031 C 3.261719 2.957031 3.566406 3.15625 3.835938 3.332031 C 4.023438 3.453125 4.199219 3.570312 4.371094 3.613281 C 4.507812 3.648438 4.636719 3.667969 4.769531 3.667969 C 5.066406 3.667969 5.316406 3.574219 5.554688 3.484375 C 5.828125 3.386719 6.105469 3.285156 6.492188 3.285156 C 6.710938 3.285156 6.941406 3.316406 7.199219 3.382812 C 8.46875 3.707031 10.058594 5.1875 10.074219 5.203125 L 13.597656 8.339844 C 13.949219 8.640625 13.992188 9.167969 13.699219 9.515625 L 13.671875 9.546875 C 13.515625 9.734375 13.289062 9.839844 13.046875 9.839844 C 12.914062 9.839844 12.785156 9.808594 12.671875 9.75 C 12.640625 9.734375 12.613281 9.726562 12.582031 9.726562 C 12.542969 9.726562 12.5 9.742188 12.46875 9.769531 C 12.410156 9.816406 12.382812 9.890625 12.402344 9.960938 C 12.46875 10.222656 12.40625 10.503906 12.234375 10.707031 L 12.207031 10.734375 C 12.050781 10.921875 11.824219 11.027344 11.582031 11.027344 C 11.398438 11.027344 11.222656 10.96875 11.078125 10.855469 C 11.046875 10.828125 11.003906 10.816406 10.964844 10.816406 C 10.929688 10.816406 10.898438 10.824219 10.867188 10.84375 C 10.800781 10.882812 10.765625 10.957031 10.777344 11.035156 C 10.816406 11.273438 10.75 11.519531 10.59375 11.703125 L 10.570312 11.734375 C 10.414062 11.921875 10.183594 12.027344 9.941406 12.027344 C 9.765625 12.027344 9.597656 11.96875 9.453125 11.863281 C 9.421875 11.839844 9.382812 11.828125 9.34375 11.828125 C 9.3125 11.828125 9.28125 11.835938 9.253906 11.851562 C 9.1875 11.886719 9.148438 11.957031 9.15625 12.03125 C 9.171875 12.253906 9.105469 12.464844 8.960938 12.636719 L 8.9375 12.664062 C 8.78125 12.847656 8.554688 12.953125 8.3125 12.953125 Z M 8.3125 12.953125"/><path style="stroke:none;fill-rule:nonzero;fill:#e6b77e;fill-opacity:1" d="M 2.925781 3.140625 C 3.203125 3.140625 3.472656 3.320312 3.734375 3.488281 C 3.933594 3.617188 4.121094 3.742188 4.324219 3.792969 C 4.476562 3.832031 4.621094 3.851562 4.769531 3.851562 C 5.097656 3.851562 5.363281 3.753906 5.621094 3.660156 C 5.886719 3.5625 6.140625 3.46875 6.492188 3.46875 C 6.695312 3.46875 6.910156 3.5 7.152344 3.5625 C 8.375 3.875 9.929688 5.324219 9.945312 5.339844 C 9.949219 5.339844 9.953125 5.34375 9.953125 5.34375 L 13.476562 8.480469 L 13.480469 8.484375 C 13.75 8.714844 13.78125 9.121094 13.554688 9.394531 L 13.527344 9.425781 C 13.40625 9.570312 13.234375 9.652344 13.046875 9.652344 C 12.945312 9.652344 12.84375 9.628906 12.757812 9.582031 C 12.703125 9.554688 12.640625 9.539062 12.582031 9.539062 C 12.5 9.539062 12.417969 9.566406 12.351562 9.621094 C 12.234375 9.710938 12.183594 9.863281 12.21875 10.007812 C 12.269531 10.210938 12.222656 10.425781 12.089844 10.585938 L 12.0625 10.613281 C 11.941406 10.757812 11.765625 10.839844 11.582031 10.839844 C 11.441406 10.839844 11.304688 10.796875 11.195312 10.707031 C 11.125 10.65625 11.046875 10.628906 10.964844 10.628906 C 10.898438 10.628906 10.832031 10.644531 10.773438 10.679688 C 10.640625 10.761719 10.570312 10.910156 10.59375 11.0625 C 10.625 11.25 10.570312 11.441406 10.449219 11.582031 L 10.425781 11.613281 C 10.304688 11.757812 10.128906 11.839844 9.941406 11.839844 C 9.804688 11.839844 9.675781 11.796875 9.566406 11.714844 C 9.5 11.667969 9.421875 11.640625 9.34375 11.640625 C 9.28125 11.640625 9.21875 11.65625 9.160156 11.6875 C 9.03125 11.757812 8.957031 11.898438 8.96875 12.046875 C 8.984375 12.214844 8.929688 12.382812 8.820312 12.515625 L 8.792969 12.542969 C 8.671875 12.6875 8.496094 12.769531 8.308594 12.769531 C 8.160156 12.769531 8.015625 12.714844 7.902344 12.621094 L 1.9375 7.347656 C 1.292969 6.777344 0.894531 6.070312 0.875 5.457031 C 0.859375 5.035156 1.019531 4.664062 1.359375 4.320312 L 2.230469 3.5 C 2.480469 3.257812 2.707031 3.140625 2.925781 3.140625 M 2.925781 2.765625 C 2.640625 2.765625 2.324219 2.886719 1.972656 3.226562 L 1.097656 4.046875 C -0.121094 5.277344 0.753906 6.800781 1.691406 7.625 L 7.65625 12.902344 C 7.847656 13.0625 8.078125 13.144531 8.3125 13.144531 C 8.597656 13.144531 8.882812 13.019531 9.082031 12.785156 L 9.109375 12.753906 C 9.289062 12.539062 9.363281 12.273438 9.34375 12.015625 C 9.523438 12.148438 9.734375 12.210938 9.941406 12.210938 C 10.230469 12.210938 10.511719 12.089844 10.710938 11.851562 L 10.738281 11.824219 C 10.9375 11.585938 11.007812 11.285156 10.964844 11.003906 C 11.148438 11.144531 11.363281 11.214844 11.582031 11.214844 C 11.867188 11.214844 12.152344 11.09375 12.351562 10.855469 L 12.375 10.828125 C 12.597656 10.566406 12.664062 10.222656 12.582031 9.914062 C 12.730469 9.988281 12.886719 10.023438 13.042969 10.023438 C 13.328125 10.023438 13.613281 9.902344 13.8125 9.667969 L 13.839844 9.636719 C 14.199219 9.207031 14.148438 8.5625 13.722656 8.199219 L 10.203125 5.066406 C 10.203125 5.066406 8.578125 3.539062 7.246094 3.199219 C 6.957031 3.121094 6.710938 3.09375 6.492188 3.09375 C 5.710938 3.09375 5.339844 3.480469 4.765625 3.480469 C 4.660156 3.480469 4.542969 3.464844 4.417969 3.433594 C 4.035156 3.332031 3.550781 2.765625 2.925781 2.765625 Z M 2.925781 2.765625"/><path style="stroke:none;fill-rule:nonzero;fill:url(#radial0)" d="M 3.792969 10.855469 C 3.527344 10.855469 3.28125 10.726562 3.132812 10.507812 C 2.886719 10.140625 2.976562 9.636719 3.339844 9.386719 L 4.714844 8.4375 C 4.847656 8.34375 5.003906 8.296875 5.164062 8.296875 C 5.425781 8.296875 5.671875 8.425781 5.820312 8.644531 C 6.070312 9.011719 5.976562 9.515625 5.613281 9.765625 L 4.238281 10.714844 C 4.109375 10.808594 3.953125 10.855469 3.792969 10.855469 Z M 3.792969 10.855469"/><path style="stroke:none;fill-rule:nonzero;fill:#e6b77e;fill-opacity:1" d="M 5.164062 8.484375 C 5.363281 8.484375 5.550781 8.582031 5.664062 8.75 C 5.855469 9.035156 5.785156 9.421875 5.507812 9.613281 L 4.132812 10.5625 C 4.03125 10.632812 3.914062 10.667969 3.792969 10.667969 C 3.589844 10.667969 3.402344 10.570312 3.289062 10.402344 C 3.097656 10.117188 3.167969 9.734375 3.449219 9.539062 L 4.820312 8.589844 C 4.921875 8.519531 5.039062 8.484375 5.164062 8.484375 M 5.164062 8.109375 C 4.972656 8.109375 4.777344 8.164062 4.605469 8.28125 L 3.234375 9.230469 C 2.785156 9.542969 2.671875 10.160156 2.976562 10.609375 C 3.167969 10.890625 3.476562 11.042969 3.792969 11.042969 C 3.984375 11.042969 4.175781 10.984375 4.347656 10.867188 L 5.71875 9.921875 C 6.167969 9.609375 6.285156 8.992188 5.976562 8.539062 C 5.785156 8.261719 5.476562 8.109375 5.164062 8.109375 Z M 5.164062 8.109375"/><path style="stroke:none;fill-rule:nonzero;fill:url(#radial1)" d="M 6.632812 13.046875 C 6.4375 13.046875 6.25 12.972656 6.105469 12.839844 C 5.773438 12.546875 5.746094 12.035156 6.039062 11.703125 L 6.835938 10.796875 C 6.988281 10.625 7.203125 10.527344 7.429688 10.527344 C 7.625 10.527344 7.8125 10.601562 7.960938 10.730469 C 8.289062 11.027344 8.320312 11.539062 8.027344 11.871094 L 7.226562 12.773438 C 7.078125 12.945312 6.859375 13.046875 6.632812 13.046875 Z M 6.632812 13.046875"/><path style="stroke:none;fill-rule:nonzero;fill:#e6b77e;fill-opacity:1" d="M 7.433594 10.714844 C 7.582031 10.714844 7.726562 10.769531 7.835938 10.871094 C 8.089844 11.097656 8.109375 11.492188 7.886719 11.746094 L 7.085938 12.652344 C 6.972656 12.78125 6.804688 12.859375 6.632812 12.859375 C 6.484375 12.859375 6.339844 12.800781 6.230469 12.703125 C 5.976562 12.476562 5.953125 12.082031 6.179688 11.828125 L 6.976562 10.921875 C 7.09375 10.792969 7.257812 10.714844 7.433594 10.714844 M 7.433594 10.339844 C 7.160156 10.339844 6.890625 10.453125 6.695312 10.671875 L 5.898438 11.578125 C 5.535156 11.988281 5.574219 12.617188 5.980469 12.980469 C 6.167969 13.148438 6.398438 13.230469 6.632812 13.230469 C 6.902344 13.230469 7.171875 13.117188 7.367188 12.898438 L 8.167969 11.992188 C 8.527344 11.582031 8.492188 10.957031 8.085938 10.59375 C 7.898438 10.421875 7.664062 10.339844 7.433594 10.339844 Z M 7.433594 10.339844"/><path style="stroke:none;fill-rule:nonzero;fill:url(#radial2)" d="M 2.789062 9.527344 C 2.511719 9.527344 2.261719 9.386719 2.117188 9.152344 C 1.886719 8.777344 2 8.28125 2.371094 8.050781 L 3.207031 7.527344 C 3.332031 7.449219 3.476562 7.40625 3.625 7.40625 C 3.898438 7.40625 4.152344 7.546875 4.296875 7.785156 C 4.527344 8.160156 4.410156 8.652344 4.039062 8.886719 L 3.203125 9.40625 C 3.078125 9.488281 2.933594 9.527344 2.789062 9.527344 Z M 2.789062 9.527344"/><path style="stroke:none;fill-rule:nonzero;fill:#e6b77e;fill-opacity:1" d="M 3.625 7.597656 C 3.832031 7.597656 4.027344 7.703125 4.136719 7.886719 C 4.3125 8.171875 4.226562 8.550781 3.941406 8.730469 L 3.105469 9.25 C 3.011719 9.308594 2.902344 9.339844 2.789062 9.339844 C 2.578125 9.339844 2.386719 9.234375 2.277344 9.050781 C 2.101562 8.765625 2.1875 8.386719 2.472656 8.207031 L 3.308594 7.6875 C 3.402344 7.628906 3.511719 7.597656 3.625 7.597656 M 3.625 7.222656 C 3.449219 7.222656 3.269531 7.269531 3.109375 7.367188 L 2.273438 7.890625 C 1.816406 8.175781 1.671875 8.785156 1.957031 9.25 C 2.140625 9.550781 2.460938 9.714844 2.789062 9.714844 C 2.964844 9.714844 3.144531 9.667969 3.304688 9.570312 L 4.140625 9.046875 C 4.597656 8.761719 4.742188 8.152344 4.457031 7.6875 C 4.269531 7.386719 3.953125 7.222656 3.625 7.222656 Z M 3.625 7.222656"/><path style="stroke:none;fill-rule:nonzero;fill:url(#radial3)" d="M 4.957031 12.308594 C 4.753906 12.308594 4.558594 12.226562 4.410156 12.078125 C 4.109375 11.773438 4.109375 11.277344 4.410156 10.972656 L 5.878906 9.492188 C 6.023438 9.34375 6.21875 9.261719 6.425781 9.261719 C 6.632812 9.261719 6.828125 9.34375 6.972656 9.492188 C 7.277344 9.796875 7.277344 10.292969 6.972656 10.601562 L 5.507812 12.078125 C 5.359375 12.226562 5.164062 12.308594 4.957031 12.308594 Z M 4.957031 12.308594"/><path style="stroke:none;fill-rule:nonzero;fill:#e6b77e;fill-opacity:1" d="M 6.425781 9.449219 C 6.582031 9.449219 6.730469 9.511719 6.839844 9.625 C 7.074219 9.855469 7.074219 10.234375 6.839844 10.46875 L 5.371094 11.949219 C 5.261719 12.058594 5.113281 12.121094 4.957031 12.121094 C 4.800781 12.121094 4.652344 12.058594 4.542969 11.949219 C 4.3125 11.714844 4.3125 11.335938 4.542969 11.101562 L 6.011719 9.621094 C 6.121094 9.511719 6.269531 9.449219 6.425781 9.449219 M 6.425781 9.074219 C 6.179688 9.074219 5.933594 9.171875 5.746094 9.359375 L 4.277344 10.839844 C 3.902344 11.21875 3.902344 11.832031 4.277344 12.210938 C 4.464844 12.402344 4.710938 12.496094 4.957031 12.496094 C 5.203125 12.496094 5.453125 12.398438 5.640625 12.210938 L 7.109375 10.730469 C 7.484375 10.351562 7.484375 9.738281 7.109375 9.359375 C 6.917969 9.171875 6.671875 9.074219 6.425781 9.074219 Z M 6.425781 9.074219"/><g clip-path="url(#clip1)" clip-rule="nonzero"><g clip-path="url(#clip2)" clip-rule="nonzero"><path style="stroke:none;fill-rule:nonzero;fill:#f9ddbd;fill-opacity:1" d="M 6.460938 6.183594 C 6.132812 6.183594 5.953125 6.070312 5.765625 5.746094 C 5.535156 5.347656 5.667969 4.898438 6.09375 4.628906 L 8.984375 3.34375 C 9.101562 3.300781 9.292969 3.277344 9.503906 3.277344 C 10.136719 3.277344 10.734375 3.46875 10.816406 3.699219 C 10.820312 3.710938 10.828125 3.71875 10.832031 3.730469 L 11.753906 5.292969 C 11.757812 5.300781 11.757812 5.308594 11.757812 5.308594 C 11.75 5.308594 11.679688 5.359375 11.433594 5.359375 C 11.078125 5.359375 10.527344 5.257812 9.996094 5.09375 C 9.886719 5.058594 9.765625 5.042969 9.640625 5.042969 C 9.046875 5.042969 8.367188 5.40625 7.773438 5.726562 C 7.414062 5.921875 7.070312 6.101562 6.855469 6.140625 C 6.703125 6.171875 6.574219 6.183594 6.460938 6.183594 Z M 6.460938 6.183594"/><path style="stroke:none;fill-rule:nonzero;fill:#e6b77e;fill-opacity:1" d="M 9.507812 3.464844 C 10.128906 3.464844 10.59375 3.65625 10.640625 3.761719 C 10.648438 3.785156 10.660156 3.804688 10.671875 3.828125 L 11.464844 5.171875 L 11.4375 5.171875 C 11.097656 5.171875 10.570312 5.074219 10.054688 4.914062 C 9.925781 4.875 9.789062 4.855469 9.640625 4.855469 C 9 4.855469 8.300781 5.230469 7.6875 5.5625 C 7.355469 5.742188 7.011719 5.925781 6.824219 5.957031 C 6.679688 5.984375 6.5625 5.996094 6.460938 5.996094 C 6.230469 5.996094 6.097656 5.945312 5.929688 5.652344 C 5.75 5.347656 5.851562 5.011719 6.183594 4.796875 L 9.054688 3.515625 C 9.152344 3.484375 9.320312 3.464844 9.507812 3.464844 M 9.507812 3.089844 C 9.269531 3.089844 9.058594 3.113281 8.914062 3.167969 L 6.003906 4.460938 C 5.484375 4.785156 5.320312 5.355469 5.601562 5.839844 C 5.816406 6.210938 6.054688 6.371094 6.460938 6.371094 C 6.585938 6.371094 6.726562 6.355469 6.890625 6.328125 C 7.5 6.21875 8.726562 5.230469 9.640625 5.230469 C 9.746094 5.230469 9.847656 5.242188 9.945312 5.273438 C 10.4375 5.425781 11.027344 5.546875 11.433594 5.546875 C 11.789062 5.546875 12.011719 5.453125 11.925781 5.214844 L 10.992188 3.636719 C 10.863281 3.265625 10.109375 3.089844 9.507812 3.089844 Z M 9.507812 3.089844"/></g></g></g></svg>