<svg xmlns="http://www.w3.org/2000/svg" xmlns:xlink="http://www.w3.org/1999/xlink" width="16pt" height="16pt" version="1.1" viewBox="0 0 16 16"><defs><linearGradient id="linear0" x1="14.568" x2="34.854" y1="21.21" y2="21.21" gradientTransform="matrix(0.125,0,0,0.125,0,0)" gradientUnits="userSpaceOnUse"><stop offset="0" style="stop-color:#e4c7ff;stop-opacity:1"/><stop offset="1" style="stop-color:#997fb3;stop-opacity:1"/></linearGradient><linearGradient id="linear1" x1="93.146" x2="113.43" y1="21.21" y2="21.21" gradientTransform="matrix(0.125,0,0,0.125,0,0)" gradientUnits="userSpaceOnUse"><stop offset="0" style="stop-color:#997fb3;stop-opacity:1"/><stop offset="1" style="stop-color:#e4c7ff;stop-opacity:1"/></linearGradient><linearGradient id="linear2" x1="64" x2="64" y1="10.827" y2="78.082" gradientTransform="matrix(0.125,0,0,0.125,0,0)" gradientUnits="userSpaceOnUse"><stop offset="0" style="stop-color:#e4c7ff;stop-opacity:1"/><stop offset="1" style="stop-color:#997fb3;stop-opacity:1"/></linearGradient><linearGradient id="linear3" x1="64" x2="64" y1="72.133" y2="143.24" gradientTransform="matrix(0.125,0,0,0.125,0,0)" gradientUnits="userSpaceOnUse"><stop offset=".001" style="stop-color:#decef2;stop-opacity:1"/><stop offset=".515" style="stop-color:#cbbbdf;stop-opacity:1"/><stop offset=".997" style="stop-color:#bdadd1;stop-opacity:1"/></linearGradient><linearGradient id="linear4" x1="16.835" x2="30.062" y1="61.578" y2="72.496" gradientTransform="matrix(0.125,0,0,0.125,0,0)" gradientUnits="userSpaceOnUse"><stop offset="0" style="stop-color:#f5edff;stop-opacity:1"/><stop offset="1" style="stop-color:#dbcbef;stop-opacity:1"/></linearGradient><linearGradient id="linear5" x1="26.368" x2="35.359" y1="67.302" y2="74.724" gradientTransform="matrix(0.125,0,0,0.125,0,0)" gradientUnits="userSpaceOnUse"><stop offset=".213" style="stop-color:#3b393d;stop-opacity:1"/><stop offset=".397" style="stop-color:#343235;stop-opacity:1"/><stop offset=".676" style="stop-color:#1f1e20;stop-opacity:1"/><stop offset=".998" style="stop-color:#000;stop-opacity:1"/></linearGradient><linearGradient id="linear6" x1="1160.1" x2="1173.3" y1="61.578" y2="72.496" gradientTransform="matrix(-0.125,0,0,0.125,158.9,0)" gradientUnits="userSpaceOnUse"><stop offset="0" style="stop-color:#f5edff;stop-opacity:1"/><stop offset="1" style="stop-color:#dbcbef;stop-opacity:1"/></linearGradient><linearGradient id="linear7" x1="1169.6" x2="1178.6" y1="67.302" y2="74.724" gradientTransform="matrix(-0.125,0,0,0.125,158.9,0)" gradientUnits="userSpaceOnUse"><stop offset=".213" style="stop-color:#3b393d;stop-opacity:1"/><stop offset=".397" style="stop-color:#343235;stop-opacity:1"/><stop offset=".676" style="stop-color:#1f1e20;stop-opacity:1"/><stop offset=".998" style="stop-color:#000;stop-opacity:1"/></linearGradient></defs><g id="surface1"><path style="stroke:none;fill-rule:nonzero;fill:#a37dc7;fill-opacity:1" d="M 2.21875 1.84375 C 2.421875 1.84375 2.589844 2.03125 2.746094 2.15625 C 2.765625 2.171875 2.785156 2.183594 2.804688 2.199219 C 3.011719 2.332031 3.234375 2.445312 3.46875 2.523438 C 3.695312 2.605469 4.296875 2.671875 4.351562 2.949219 C 4.386719 3.128906 4.214844 3.285156 4.082031 3.375 C 4.042969 3.402344 3.996094 3.429688 3.949219 3.457031 C 3.703125 3.59375 3.378906 3.703125 3.101562 3.703125 C 3.058594 3.703125 3.015625 3.703125 2.976562 3.695312 C 2.476562 3.628906 2.042969 3.242188 1.882812 2.765625 C 1.851562 2.664062 1.828125 2.558594 1.824219 2.449219 C 1.808594 2.195312 1.921875 1.886719 2.175781 1.847656 C 2.191406 1.84375 2.203125 1.84375 2.21875 1.84375 M 2.21875 1.484375 C 2.1875 1.484375 2.15625 1.484375 2.125 1.488281 C 1.664062 1.554688 1.4375 2.042969 1.460938 2.464844 C 1.46875 2.601562 1.496094 2.742188 1.539062 2.878906 C 1.742188 3.496094 2.300781 3.964844 2.925781 4.050781 C 2.980469 4.058594 3.039062 4.0625 3.097656 4.0625 C 3.414062 4.0625 3.796875 3.953125 4.125 3.769531 C 4.1875 3.734375 4.238281 3.703125 4.289062 3.671875 C 4.726562 3.371094 4.738281 3.046875 4.707031 2.882812 C 4.621094 2.4375 4.101562 2.3125 3.757812 2.230469 C 3.691406 2.210938 3.625 2.195312 3.589844 2.183594 C 3.382812 2.113281 3.1875 2.015625 3.003906 1.894531 C 2.992188 1.890625 2.980469 1.878906 2.96875 1.871094 C 2.941406 1.847656 2.910156 1.824219 2.882812 1.796875 C 2.726562 1.664062 2.511719 1.484375 2.21875 1.484375 Z M 2.21875 1.484375"/><path style="stroke:none;fill-rule:nonzero;fill:#a37dc7;fill-opacity:1" d="M 13.78125 1.84375 C 13.796875 1.84375 13.808594 1.84375 13.824219 1.847656 C 14.078125 1.882812 14.191406 2.195312 14.175781 2.449219 C 14.171875 2.558594 14.148438 2.664062 14.117188 2.765625 C 13.957031 3.242188 13.523438 3.628906 13.023438 3.695312 C 12.984375 3.699219 12.945312 3.703125 12.898438 3.703125 C 12.621094 3.703125 12.296875 3.59375 12.050781 3.457031 C 12.003906 3.429688 11.957031 3.402344 11.917969 3.375 C 11.789062 3.285156 11.613281 3.128906 11.648438 2.949219 C 11.699219 2.671875 12.300781 2.601562 12.53125 2.523438 C 12.765625 2.441406 12.988281 2.332031 13.195312 2.195312 C 13.214844 2.183594 13.234375 2.167969 13.253906 2.152344 C 13.410156 2.03125 13.578125 1.84375 13.78125 1.84375 M 13.78125 1.484375 C 13.488281 1.484375 13.273438 1.664062 13.121094 1.796875 C 13.089844 1.824219 13.058594 1.847656 13.03125 1.871094 C 13.019531 1.878906 13.007812 1.886719 12.996094 1.894531 C 12.8125 2.015625 12.617188 2.113281 12.414062 2.183594 C 12.375 2.195312 12.308594 2.210938 12.242188 2.230469 C 11.898438 2.3125 11.378906 2.4375 11.296875 2.882812 C 11.265625 3.046875 11.277344 3.371094 11.714844 3.671875 C 11.761719 3.703125 11.8125 3.734375 11.875 3.769531 C 12.203125 3.953125 12.585938 4.0625 12.902344 4.0625 C 12.960938 4.0625 13.019531 4.058594 13.074219 4.050781 C 13.699219 3.964844 14.257812 3.496094 14.460938 2.878906 C 14.507812 2.742188 14.53125 2.601562 14.539062 2.464844 C 14.5625 2.042969 14.339844 1.554688 13.878906 1.488281 C 13.84375 1.484375 13.8125 1.484375 13.78125 1.484375 Z M 13.78125 1.484375"/><path style="stroke:none;fill-rule:nonzero;fill:#c9bda2;fill-opacity:1" d="M 3.375 13.40625 C 3.414062 13.40625 3.453125 13.410156 3.492188 13.421875 L 3.542969 13.4375 C 3.765625 13.503906 3.894531 13.738281 3.828125 13.960938 L 3.652344 14.5625 C 3.601562 14.746094 3.429688 14.867188 3.25 14.867188 C 3.210938 14.867188 3.171875 14.859375 3.128906 14.847656 L 3.078125 14.832031 C 2.855469 14.769531 2.726562 14.535156 2.792969 14.308594 L 2.96875 13.710938 C 3.023438 13.527344 3.191406 13.40625 3.375 13.40625 M 3.375 13.167969 C 3.082031 13.167969 2.820312 13.363281 2.738281 13.640625 L 2.5625 14.242188 C 2.511719 14.414062 2.53125 14.589844 2.617188 14.746094 C 2.703125 14.902344 2.839844 15.015625 3.011719 15.0625 L 3.0625 15.078125 C 3.125 15.097656 3.1875 15.105469 3.25 15.105469 C 3.542969 15.105469 3.800781 14.910156 3.886719 14.628906 L 4.0625 14.027344 C 4.109375 13.859375 4.089844 13.679688 4.007812 13.523438 C 3.921875 13.371094 3.78125 13.257812 3.609375 13.207031 L 3.558594 13.191406 C 3.5 13.175781 3.4375 13.167969 3.375 13.167969 Z M 3.375 13.167969"/><path style="stroke:none;fill-rule:nonzero;fill:#c9bda2;fill-opacity:1" d="M 12.625 13.40625 C 12.808594 13.40625 12.976562 13.527344 13.03125 13.710938 L 13.207031 14.308594 C 13.273438 14.535156 13.144531 14.769531 12.921875 14.832031 L 12.871094 14.847656 C 12.828125 14.859375 12.789062 14.867188 12.75 14.867188 C 12.570312 14.867188 12.398438 14.746094 12.347656 14.5625 L 12.171875 13.960938 C 12.105469 13.738281 12.234375 13.503906 12.457031 13.4375 L 12.507812 13.421875 C 12.546875 13.414062 12.585938 13.40625 12.625 13.40625 M 12.625 13.167969 C 12.5625 13.167969 12.5 13.175781 12.441406 13.191406 L 12.390625 13.207031 C 12.039062 13.308594 11.835938 13.679688 11.9375 14.03125 L 12.113281 14.628906 C 12.199219 14.910156 12.457031 15.105469 12.75 15.105469 C 12.8125 15.105469 12.875 15.097656 12.9375 15.078125 L 12.988281 15.066406 C 13.160156 15.015625 13.296875 14.902344 13.382812 14.746094 C 13.46875 14.59375 13.488281 14.414062 13.4375 14.242188 L 13.261719 13.644531 C 13.179688 13.363281 12.917969 13.167969 12.625 13.167969 Z M 12.625 13.167969"/><path style="stroke:none;fill-rule:nonzero;fill:#f7f1e3;fill-opacity:1" d="M 3.128906 14.847656 L 3.078125 14.832031 C 2.855469 14.769531 2.726562 14.535156 2.792969 14.308594 L 2.96875 13.710938 C 3.035156 13.484375 3.269531 13.359375 3.492188 13.421875 L 3.542969 13.4375 C 3.765625 13.503906 3.894531 13.738281 3.828125 13.960938 L 3.652344 14.5625 C 3.589844 14.785156 3.355469 14.914062 3.128906 14.847656 Z M 3.128906 14.847656"/><path style="stroke:none;fill-rule:nonzero;fill:#f7f1e3;fill-opacity:1" d="M 12.871094 14.847656 L 12.921875 14.832031 C 13.144531 14.769531 13.273438 14.535156 13.207031 14.308594 L 13.03125 13.710938 C 12.964844 13.484375 12.730469 13.359375 12.507812 13.421875 L 12.457031 13.4375 C 12.234375 13.503906 12.105469 13.738281 12.171875 13.960938 L 12.347656 14.5625 C 12.410156 14.785156 12.644531 14.914062 12.871094 14.847656 Z M 12.871094 14.847656"/><path style="stroke:none;fill-rule:nonzero;fill:url(#linear0)" d="M 3.949219 3.457031 C 3.996094 3.429688 4.042969 3.402344 4.082031 3.375 C 4.210938 3.285156 4.386719 3.128906 4.351562 2.949219 C 4.300781 2.671875 3.699219 2.601562 3.46875 2.523438 C 3.234375 2.441406 3.011719 2.332031 2.804688 2.195312 C 2.785156 2.183594 2.765625 2.167969 2.746094 2.152344 C 2.578125 2.019531 2.398438 1.8125 2.175781 1.847656 C 1.921875 1.882812 1.808594 2.191406 1.824219 2.449219 C 1.828125 2.554688 1.851562 2.664062 1.882812 2.765625 C 2.4375 3.261719 3.203125 3.492188 3.949219 3.457031 Z M 3.949219 3.457031"/><path style="stroke:none;fill-rule:nonzero;fill:#f7f1e3;fill-opacity:1" d="M 1.882812 2.765625 C 2.042969 3.242188 2.476562 3.625 2.976562 3.695312 C 3.277344 3.734375 3.664062 3.613281 3.949219 3.457031 C 3.203125 3.492188 2.4375 3.261719 1.882812 2.765625 Z M 1.882812 2.765625"/><path style="stroke:none;fill-rule:nonzero;fill:url(#linear1)" d="M 12.050781 3.457031 C 12.003906 3.429688 11.957031 3.402344 11.917969 3.375 C 11.789062 3.285156 11.613281 3.128906 11.648438 2.949219 C 11.699219 2.671875 12.300781 2.601562 12.53125 2.523438 C 12.765625 2.441406 12.988281 2.332031 13.195312 2.195312 C 13.214844 2.183594 13.234375 2.167969 13.253906 2.152344 C 13.421875 2.019531 13.601562 1.8125 13.824219 1.847656 C 14.078125 1.882812 14.191406 2.191406 14.175781 2.449219 C 14.171875 2.554688 14.148438 2.664062 14.117188 2.765625 C 13.5625 3.261719 12.796875 3.492188 12.050781 3.457031 Z M 12.050781 3.457031"/><path style="stroke:none;fill-rule:nonzero;fill:#f7f1e3;fill-opacity:1" d="M 14.117188 2.765625 C 13.957031 3.242188 13.523438 3.625 13.023438 3.695312 C 12.722656 3.734375 12.335938 3.613281 12.050781 3.457031 C 12.796875 3.492188 13.5625 3.261719 14.117188 2.765625 Z M 14.117188 2.765625"/><path style="stroke:none;fill-rule:nonzero;fill:url(#linear2)" d="M 8.535156 12.558594 L 7.464844 12.558594 C 4.398438 12.558594 1.890625 10.46875 1.890625 7.402344 L 1.890625 6.960938 C 1.890625 3.894531 4.398438 1.386719 7.464844 1.386719 L 8.535156 1.386719 C 11.601562 1.386719 14.109375 3.894531 14.109375 6.960938 L 14.109375 7.402344 C 14.109375 10.46875 11.601562 12.558594 8.535156 12.558594 Z M 8.535156 12.558594"/><path style="stroke:none;fill-rule:nonzero;fill:url(#linear3)" d="M 8 14.40625 C 3.035156 14.40625 0.792969 12.667969 0.792969 10.96875 C 0.792969 9.273438 2.75 7.476562 8 7.476562 C 13.25 7.476562 15.207031 9.273438 15.207031 10.96875 C 15.207031 12.667969 12.964844 14.40625 8 14.40625 Z M 8 14.40625"/><path style="stroke:none;fill-rule:nonzero;fill:#a37dc7;fill-opacity:1" d="M 8.535156 1.382812 C 11.601562 1.382812 14.109375 3.894531 14.109375 6.960938 L 14.109375 7.398438 C 14.109375 7.898438 14.042969 8.367188 13.921875 8.808594 C 14.816406 9.4375 15.207031 10.210938 15.207031 10.96875 C 15.207031 12.664062 12.964844 14.402344 8 14.402344 C 3.035156 14.402344 0.792969 12.664062 0.792969 10.96875 C 0.792969 10.210938 1.179688 9.4375 2.078125 8.808594 C 1.953125 8.367188 1.890625 7.894531 1.890625 7.398438 L 1.890625 6.960938 C 1.890625 3.890625 4.398438 1.382812 7.464844 1.382812 L 8.535156 1.382812 M 8.535156 1.023438 L 7.464844 1.023438 C 4.191406 1.023438 1.527344 3.6875 1.527344 6.960938 L 1.527344 7.402344 C 1.527344 7.832031 1.574219 8.257812 1.671875 8.664062 C 0.867188 9.296875 0.429688 10.109375 0.429688 10.96875 C 0.429688 12.859375 2.769531 14.765625 8 14.765625 C 10.34375 14.765625 12.296875 14.375 13.640625 13.640625 C 15.320312 12.722656 15.570312 11.574219 15.570312 10.96875 C 15.570312 10.109375 15.132812 9.296875 14.328125 8.664062 C 14.421875 8.257812 14.472656 7.832031 14.472656 7.402344 L 14.472656 6.960938 C 14.472656 3.6875 11.808594 1.023438 8.535156 1.023438 Z M 8.535156 1.023438"/><path style="stroke:none;fill-rule:nonzero;fill:#000;fill-opacity:1" d="M 5.234375 6.8125 C 5.234375 7.054688 5.039062 7.25 4.796875 7.25 C 4.558594 7.25 4.363281 7.054688 4.363281 6.8125 C 4.363281 6.570312 4.558594 6.375 4.796875 6.375 C 5.039062 6.375 5.234375 6.570312 5.234375 6.8125 Z M 5.234375 6.8125"/><path style="stroke:none;fill-rule:nonzero;fill:#000;fill-opacity:1" d="M 11.636719 6.8125 C 11.636719 7.054688 11.441406 7.25 11.203125 7.25 C 10.960938 7.25 10.765625 7.054688 10.765625 6.8125 C 10.765625 6.570312 10.960938 6.375 11.203125 6.375 C 11.441406 6.375 11.636719 6.570312 11.636719 6.8125 Z M 11.636719 6.8125"/><path style="stroke:none;fill-rule:nonzero;fill:url(#linear4)" d="M 3.273438 10.183594 C 2.488281 9.945312 2.015625 9.207031 2.21875 8.535156 C 2.421875 7.863281 3.226562 7.515625 4.011719 7.753906 C 4.796875 7.992188 5.269531 8.730469 5.066406 9.398438 C 4.863281 10.070312 4.0625 10.421875 3.273438 10.183594 Z M 3.273438 10.183594"/><path style="stroke:none;fill-rule:nonzero;fill:url(#linear5)" d="M 3.613281 9.214844 C 3.285156 8.980469 3.132812 8.636719 3.265625 8.449219 C 3.402344 8.261719 3.777344 8.300781 4.105469 8.539062 C 4.429688 8.773438 4.585938 9.117188 4.449219 9.304688 C 4.3125 9.492188 3.9375 9.453125 3.613281 9.214844 Z M 3.613281 9.214844"/><path style="stroke:none;fill-rule:nonzero;fill:url(#linear6)" d="M 12.726562 10.183594 C 13.511719 9.945312 13.984375 9.207031 13.78125 8.535156 C 13.578125 7.863281 12.773438 7.515625 11.988281 7.753906 C 11.203125 7.992188 10.730469 8.730469 10.933594 9.398438 C 11.136719 10.070312 11.9375 10.421875 12.726562 10.183594 Z M 12.726562 10.183594"/><path style="stroke:none;fill-rule:nonzero;fill:url(#linear7)" d="M 12.386719 9.214844 C 12.714844 8.980469 12.867188 8.636719 12.734375 8.449219 C 12.597656 8.261719 12.222656 8.300781 11.894531 8.539062 C 11.570312 8.773438 11.414062 9.117188 11.550781 9.304688 C 11.6875 9.492188 12.0625 9.453125 12.386719 9.214844 Z M 12.386719 9.214844"/><path style="stroke:none;fill-rule:nonzero;fill:#9785ab;fill-opacity:1" d="M 4.71875 11.097656 C 4.585938 11.097656 4.476562 11.207031 4.476562 11.34375 C 4.476562 11.480469 4.585938 11.589844 4.71875 11.589844 C 4.855469 11.589844 4.964844 11.480469 4.964844 11.34375 C 4.964844 11.207031 4.855469 11.097656 4.71875 11.097656 Z M 4.71875 11.097656"/><path style="stroke:none;fill-rule:nonzero;fill:#9785ab;fill-opacity:1" d="M 4.5625 12.175781 C 4.425781 12.175781 4.316406 12.285156 4.316406 12.421875 C 4.316406 12.554688 4.425781 12.664062 4.5625 12.664062 C 4.699219 12.664062 4.808594 12.554688 4.808594 12.421875 C 4.808594 12.285156 4.699219 12.175781 4.5625 12.175781 Z M 4.5625 12.175781"/><path style="stroke:none;fill-rule:nonzero;fill:#9785ab;fill-opacity:1" d="M 3.828125 11.484375 C 3.691406 11.484375 3.582031 11.59375 3.582031 11.730469 C 3.582031 11.863281 3.691406 11.972656 3.828125 11.972656 C 3.960938 11.972656 4.074219 11.863281 4.074219 11.730469 C 4.074219 11.59375 3.960938 11.484375 3.828125 11.484375 Z M 3.828125 11.484375"/><path style="stroke:none;fill-rule:nonzero;fill:#9785ab;fill-opacity:1" d="M 5.453125 11.886719 C 5.320312 11.886719 5.207031 11.996094 5.207031 12.132812 C 5.207031 12.265625 5.320312 12.375 5.453125 12.375 C 5.589844 12.375 5.699219 12.265625 5.699219 12.132812 C 5.699219 11.996094 5.589844 11.886719 5.453125 11.886719 Z M 5.453125 11.886719"/><path style="stroke:none;fill-rule:nonzero;fill:#9785ab;fill-opacity:1" d="M 11.523438 11.34375 C 11.523438 11.207031 11.414062 11.097656 11.28125 11.097656 C 11.144531 11.097656 11.035156 11.207031 11.035156 11.34375 C 11.035156 11.480469 11.144531 11.589844 11.28125 11.589844 C 11.417969 11.589844 11.523438 11.480469 11.523438 11.34375 Z M 11.523438 11.34375"/><path style="stroke:none;fill-rule:nonzero;fill:#9785ab;fill-opacity:1" d="M 11.4375 12.175781 C 11.300781 12.175781 11.191406 12.285156 11.191406 12.421875 C 11.191406 12.554688 11.300781 12.664062 11.4375 12.664062 C 11.574219 12.664062 11.683594 12.554688 11.683594 12.421875 C 11.683594 12.285156 11.574219 12.175781 11.4375 12.175781 Z M 11.4375 12.175781"/><path style="stroke:none;fill-rule:nonzero;fill:#9785ab;fill-opacity:1" d="M 12.171875 11.484375 C 12.039062 11.484375 11.925781 11.59375 11.925781 11.730469 C 11.925781 11.863281 12.039062 11.972656 12.171875 11.972656 C 12.308594 11.972656 12.417969 11.863281 12.417969 11.730469 C 12.417969 11.59375 12.308594 11.484375 12.171875 11.484375 Z M 12.171875 11.484375"/><path style="stroke:none;fill-rule:nonzero;fill:#9785ab;fill-opacity:1" d="M 10.546875 11.886719 C 10.410156 11.886719 10.300781 11.996094 10.300781 12.132812 C 10.300781 12.265625 10.410156 12.375 10.546875 12.375 C 10.679688 12.375 10.792969 12.265625 10.792969 12.132812 C 10.789062 11.996094 10.679688 11.886719 10.546875 11.886719 Z M 10.546875 11.886719"/></g></svg>