<svg xmlns="http://www.w3.org/2000/svg" xmlns:xlink="http://www.w3.org/1999/xlink" width="16pt" height="16pt" version="1.1" viewBox="0 0 16 16"><defs><linearGradient id="linear0" x1="83.2" x2="46.534" y1="111.65" y2="20.316" gradientTransform="matrix(0.125,0,0,0.125,0,0)" gradientUnits="userSpaceOnUse"><stop offset=".002" style="stop-color:#bbdefb;stop-opacity:1"/><stop offset="1" style="stop-color:#e3f2fd;stop-opacity:1"/></linearGradient><linearGradient id="linear1" x1="64.395" x2="64.395" y1="38.333" y2="114.21" gradientTransform="matrix(0.125,0,0,0.125,0,0)" gradientUnits="userSpaceOnUse"><stop offset="0" style="stop-color:#ffca7b;stop-opacity:1"/><stop offset=".254" style="stop-color:#ffa726;stop-opacity:1"/><stop offset=".469" style="stop-color:#ffcc80;stop-opacity:1"/><stop offset=".659" style="stop-color:#ffc875;stop-opacity:1"/><stop offset=".867" style="stop-color:#ffa726;stop-opacity:1"/></linearGradient><filter id="alpha" width="100%" height="100%" x="0%" y="0%" filterUnits="objectBoundingBox"><feColorMatrix in="SourceGraphic" type="matrix" values="0 0 0 0 1 0 0 0 0 1 0 0 0 0 1 0 0 0 1 0"/></filter><mask id="mask0"><g filter="url(#alpha)"><rect width="16" height="16" x="0" y="0" style="fill:#000;fill-opacity:.2;stroke:none"/></g></mask><clipPath id="clip1"><rect width="16" height="16"/></clipPath><g id="surface6" clip-path="url(#clip1)"><path style="stroke:none;fill-rule:nonzero;fill:#424242;fill-opacity:1" d="M 3.683594 1.441406 L 12.316406 1.453125 L 12.28125 1.75 C 12.28125 1.765625 12.28125 1.777344 12.28125 1.792969 C 12.28125 4.300781 11.078125 6.140625 8.804688 7.121094 C 8.578125 7.214844 8.429688 7.445312 8.425781 7.703125 C 8.421875 7.960938 8.566406 8.195312 8.789062 8.296875 C 8.820312 8.3125 8.859375 8.328125 8.90625 8.351562 C 9.761719 8.730469 12.351562 9.882812 12.351562 14.046875 L 12.355469 14.515625 L 3.648438 14.503906 L 3.660156 14.046875 L 3.660156 14.039062 C 3.660156 12.269531 4.148438 10.828125 5.113281 9.746094 C 5.882812 8.882812 6.75 8.484375 7.121094 8.316406 C 7.152344 8.300781 7.179688 8.289062 7.203125 8.277344 C 7.425781 8.175781 7.566406 7.941406 7.5625 7.683594 C 7.558594 7.425781 7.414062 7.199219 7.1875 7.101562 C 6.144531 6.65625 3.722656 5.242188 3.722656 1.808594 C 3.722656 1.796875 3.722656 1.78125 3.722656 1.769531 L 3.683594 1.441406 M 3.265625 1.0625 L 3.347656 1.808594 C 3.347656 5.773438 6.394531 7.171875 7.039062 7.449219 C 7.234375 7.53125 7.238281 7.847656 7.046875 7.9375 C 6.402344 8.238281 3.285156 9.488281 3.285156 14.039062 L 3.265625 14.878906 L 12.734375 14.894531 L 12.726562 14.046875 C 12.726562 9.410156 9.59375 8.257812 8.945312 7.957031 C 8.753906 7.867188 8.757812 7.546875 8.953125 7.464844 C 9.59375 7.191406 12.65625 5.882812 12.65625 1.792969 L 12.734375 1.078125 Z M 3.265625 1.0625"/></g><mask id="mask1"><g filter="url(#alpha)"><rect width="16" height="16" x="0" y="0" style="fill:#000;fill-opacity:.2;stroke:none"/></g></mask><clipPath id="clip2"><rect width="16" height="16"/></clipPath><g id="surface9" clip-path="url(#clip2)"><path style="stroke:none;fill-rule:nonzero;fill:#424242;fill-opacity:1" d="M 12.871094 0.875 C 13.082031 0.875 13.25 1.046875 13.25 1.253906 C 13.25 1.460938 13.078125 1.628906 12.871094 1.628906 L 3.128906 1.628906 C 2.917969 1.628906 2.75 1.460938 2.75 1.253906 C 2.75 1.046875 2.921875 0.875 3.128906 0.875 Z M 12.871094 0.5 L 3.128906 0.5 C 2.710938 0.5 2.375 0.835938 2.375 1.253906 C 2.375 1.667969 2.710938 2.003906 3.128906 2.003906 L 12.871094 2.003906 C 13.289062 2.003906 13.625 1.667969 13.625 1.253906 C 13.625 0.835938 13.289062 0.5 12.871094 0.5 Z M 12.871094 0.5"/></g><mask id="mask2"><g filter="url(#alpha)"><rect width="16" height="16" x="0" y="0" style="fill:#000;fill-opacity:.2;stroke:none"/></g></mask><clipPath id="clip3"><rect width="16" height="16"/></clipPath><g id="surface12" clip-path="url(#clip3)"><path style="stroke:none;fill-rule:nonzero;fill:#424242;fill-opacity:1" d="M 10.929688 4.828125 C 10.773438 5.390625 10.113281 5.769531 9.472656 6.140625 C 8.765625 6.546875 8.097656 6.933594 8.097656 7.585938 L 8.097656 11.882812 C 8.097656 12.019531 8.210938 12.125 8.347656 12.125 L 10.378906 12.125 C 11.121094 12.125 11.488281 12.558594 11.734375 13.714844 L 11.960938 14.765625 L 4.136719 14.746094 L 4.347656 13.734375 C 4.582031 12.578125 4.960938 12.125 5.703125 12.125 L 7.691406 12.125 C 7.757812 12.125 7.820312 12.105469 7.867188 12.058594 C 7.914062 12.011719 7.941406 11.949219 7.941406 11.882812 L 7.9375 7.597656 C 7.9375 6.945312 7.265625 6.546875 6.558594 6.125 C 5.929688 5.75 5.285156 5.363281 5.128906 4.828125 Z M 11.210938 4.574219 L 4.84375 4.578125 C 4.84375 6.089844 7.6875 6.488281 7.6875 7.59375 L 7.691406 11.875 L 5.703125 11.875 C 4.710938 11.875 4.324219 12.589844 4.101562 13.683594 L 3.828125 14.992188 L 12.269531 15.015625 L 11.980469 13.664062 C 11.75 12.578125 11.367188 11.875 10.378906 11.875 L 8.347656 11.875 L 8.347656 7.582031 C 8.347656 6.464844 11.210938 6.144531 11.210938 4.574219 Z M 11.210938 4.574219"/></g><mask id="mask3"><g filter="url(#alpha)"><rect width="16" height="16" x="0" y="0" style="fill:#000;fill-opacity:.2;stroke:none"/></g></mask><clipPath id="clip4"><rect width="16" height="16"/></clipPath><g id="surface15" clip-path="url(#clip4)"><path style="stroke:none;fill-rule:nonzero;fill:#424242;fill-opacity:1" d="M 12.890625 14.414062 C 13.089844 14.414062 13.25 14.574219 13.25 14.769531 C 13.25 14.964844 13.089844 15.125 12.890625 15.125 L 3.109375 15.125 C 2.910156 15.125 2.75 14.964844 2.75 14.769531 C 2.75 14.574219 2.910156 14.414062 3.109375 14.414062 Z M 12.890625 14.039062 L 3.109375 14.039062 C 2.703125 14.039062 2.375 14.367188 2.375 14.769531 C 2.375 15.171875 2.703125 15.5 3.109375 15.5 L 12.890625 15.5 C 13.296875 15.5 13.625 15.171875 13.625 14.769531 C 13.625 14.367188 13.296875 14.039062 12.890625 14.039062 Z M 12.890625 14.039062"/></g></defs><g id="surface1"><path style="stroke:none;fill-rule:nonzero;fill:url(#linear0)" d="M 7.039062 7.449219 C 7.234375 7.53125 7.238281 7.847656 7.046875 7.9375 C 6.402344 8.238281 3.285156 9.488281 3.285156 14.039062 L 3.265625 14.878906 L 12.734375 14.894531 L 12.730469 14.046875 C 12.730469 9.410156 9.59375 8.257812 8.949219 7.957031 C 8.753906 7.867188 8.757812 7.546875 8.953125 7.464844 C 9.59375 7.191406 12.65625 5.882812 12.65625 1.792969 L 12.734375 1.078125 L 3.265625 1.0625 L 3.347656 1.808594 C 3.347656 5.773438 6.394531 7.171875 7.039062 7.449219 Z M 7.039062 7.449219"/><path style="stroke:none;fill-rule:nonzero;fill:url(#linear1)" d="M 11.980469 13.664062 C 11.75 12.578125 11.367188 11.875 10.378906 11.875 L 8.347656 11.875 L 8.347656 7.582031 C 8.347656 6.464844 11.210938 6.140625 11.210938 4.574219 L 4.84375 4.578125 C 4.84375 6.089844 7.6875 6.484375 7.6875 7.59375 L 7.691406 11.875 L 5.703125 11.875 C 4.710938 11.875 4.324219 12.589844 4.101562 13.683594 L 3.828125 14.992188 L 12.269531 15.015625 Z M 11.980469 13.664062"/><use mask="url(#mask0)" xlink:href="#surface6"/><path style="stroke:none;fill-rule:nonzero;fill:#795548;fill-opacity:1" d="M 3.128906 0.5 L 12.871094 0.5 C 13.289062 0.5 13.625 0.835938 13.625 1.253906 C 13.625 1.667969 13.289062 2.003906 12.871094 2.003906 L 3.128906 2.003906 C 2.710938 2.003906 2.375 1.667969 2.375 1.253906 C 2.375 0.835938 2.710938 0.5 3.128906 0.5 Z M 3.128906 0.5"/><use mask="url(#mask1)" xlink:href="#surface9"/><use mask="url(#mask2)" xlink:href="#surface12"/><path style="stroke:none;fill-rule:nonzero;fill:#795548;fill-opacity:1" d="M 3.109375 14.039062 L 12.890625 14.039062 C 13.296875 14.039062 13.625 14.367188 13.625 14.769531 C 13.625 15.171875 13.296875 15.5 12.890625 15.5 L 3.109375 15.5 C 2.703125 15.5 2.375 15.171875 2.375 14.769531 C 2.375 14.363281 2.703125 14.039062 3.109375 14.039062 Z M 3.109375 14.039062"/><use mask="url(#mask3)" xlink:href="#surface15"/></g></svg>