<svg xmlns="http://www.w3.org/2000/svg" xmlns:xlink="http://www.w3.org/1999/xlink" width="16pt" height="16pt" version="1.1" viewBox="0 0 16 16"><defs><linearGradient id="linear0" x1="64" x2="64" y1="19.717" y2="107.7" gradientTransform="matrix(0.125,0,0,0.125,0,0)" gradientUnits="userSpaceOnUse"><stop offset=".5" style="stop-color:#fee133;stop-opacity:1"/><stop offset=".612" style="stop-color:#fede32;stop-opacity:1"/><stop offset=".708" style="stop-color:#fcd32f;stop-opacity:1"/><stop offset=".797" style="stop-color:#fac12b;stop-opacity:1"/><stop offset=".883" style="stop-color:#f7a924;stop-opacity:1"/><stop offset=".9" style="stop-color:#f6a323;stop-opacity:1"/></linearGradient><clipPath id="clip1"><path d="M 1 7 L 14 7 L 14 13 L 1 13 Z M 1 7"/></clipPath><clipPath id="clip2"><path d="M 7.933594 7.816406 C 5.96875 7.816406 4.144531 7.652344 2.621094 7.371094 C 2.246094 7.300781 1.910156 7.632812 1.988281 8.007812 C 2.492188 10.484375 4.929688 12.519531 7.929688 12.519531 C 11.214844 12.519531 13.421875 10.417969 13.882812 8 C 13.953125 7.625 13.621094 7.300781 13.246094 7.371094 C 11.722656 7.652344 9.898438 7.816406 7.933594 7.816406 Z M 7.933594 7.816406"/></clipPath><clipPath id="clip3"><path d="M 1 7 L 14 7 L 14 10 L 1 10 Z M 1 7"/></clipPath><clipPath id="clip4"><path d="M 7.933594 7.816406 C 5.96875 7.816406 4.144531 7.652344 2.621094 7.371094 C 2.246094 7.300781 1.910156 7.632812 1.988281 8.007812 C 2.492188 10.484375 4.929688 12.519531 7.929688 12.519531 C 11.214844 12.519531 13.421875 10.417969 13.882812 8 C 13.953125 7.625 13.621094 7.300781 13.246094 7.371094 C 11.722656 7.652344 9.898438 7.816406 7.933594 7.816406 Z M 7.933594 7.816406"/></clipPath><clipPath id="clip5"><path d="M 4 10 L 12 10 L 12 13 L 4 13 Z M 4 10"/></clipPath><clipPath id="clip6"><path d="M 7.933594 7.816406 C 5.96875 7.816406 4.144531 7.652344 2.621094 7.371094 C 2.246094 7.300781 1.910156 7.632812 1.988281 8.007812 C 2.492188 10.484375 4.929688 12.519531 7.929688 12.519531 C 11.214844 12.519531 13.421875 10.417969 13.882812 8 C 13.953125 7.625 13.621094 7.300781 13.246094 7.371094 C 11.722656 7.652344 9.898438 7.816406 7.933594 7.816406 Z M 7.933594 7.816406"/></clipPath><clipPath id="clip7"><path d="M 1 7 L 14 7 L 14 13 L 1 13 Z M 1 7"/></clipPath><clipPath id="clip8"><path d="M 7.933594 7.816406 C 5.96875 7.816406 4.144531 7.652344 2.621094 7.371094 C 2.246094 7.300781 1.910156 7.632812 1.988281 8.007812 C 2.492188 10.484375 4.929688 12.519531 7.929688 12.519531 C 11.214844 12.519531 13.421875 10.417969 13.882812 8 C 13.953125 7.625 13.621094 7.300781 13.246094 7.371094 C 11.722656 7.652344 9.898438 7.816406 7.933594 7.816406 Z M 7.933594 7.816406"/></clipPath><clipPath id="clip9"><path d="M 1.28125 5.8125 L 1.28125 7.671875 C 3.328125 8.875 5.574219 9.542969 7.933594 9.542969 C 10.296875 9.542969 12.542969 8.875 14.589844 7.671875 L 14.589844 5.8125 Z M 7.933594 10.800781 C 6.460938 10.800781 5.179688 11.605469 4.492188 12.796875 C 5.382812 13.28125 6.597656 13.582031 7.933594 13.582031 C 9.273438 13.582031 10.484375 13.28125 11.375 12.796875 C 10.691406 11.605469 9.40625 10.800781 7.933594 10.800781 Z M 7.933594 10.800781"/></clipPath></defs><g id="surface1"><path style="stroke:none;fill-rule:nonzero;fill:url(#linear0)" d="M 8 14.984375 C 4.507812 14.984375 0.75 12.800781 0.75 8 C 0.75 3.199219 4.507812 1.015625 8 1.015625 C 9.933594 1.015625 11.726562 1.652344 13.046875 2.816406 C 14.488281 4.089844 15.25 5.882812 15.25 8 C 15.25 10.109375 14.488281 11.894531 13.046875 13.171875 C 11.722656 14.34375 9.929688 14.984375 8 14.984375 Z M 8 14.984375"/><path style="stroke:none;fill-rule:nonzero;fill:#eb8f00;fill-opacity:1" d="M 8 1.265625 C 9.875 1.265625 11.609375 1.882812 12.878906 3.003906 C 14.265625 4.230469 15 5.957031 15 8 C 15 10.035156 14.265625 11.757812 12.878906 12.984375 C 11.601562 14.113281 9.871094 14.734375 8 14.734375 C 6.121094 14.734375 4.386719 14.121094 3.121094 13.007812 C 1.734375 11.789062 1 10.058594 1 8 C 1 5.933594 1.734375 4.199219 3.121094 2.980469 C 4.382812 1.875 6.117188 1.265625 8 1.265625 M 8 0.765625 C 4.105469 0.765625 0.5 3.265625 0.5 8 C 0.5 12.710938 4.105469 15.234375 8 15.234375 C 11.894531 15.234375 15.5 12.644531 15.5 8 C 15.5 3.328125 11.894531 0.765625 8 0.765625 Z M 8 0.765625"/><g clip-path="url(#clip1)" clip-rule="nonzero"><g clip-path="url(#clip2)" clip-rule="nonzero"><path style="stroke:none;fill-rule:nonzero;fill:#242424;fill-opacity:1" d="M 7.933594 7.816406 C 5.96875 7.816406 4.144531 7.652344 2.621094 7.371094 C 2.246094 7.300781 1.910156 7.632812 1.988281 8.007812 C 2.492188 10.484375 4.929688 12.519531 7.929688 12.519531 C 11.214844 12.519531 13.421875 10.417969 13.882812 8 C 13.953125 7.625 13.621094 7.300781 13.246094 7.371094 C 11.722656 7.652344 9.898438 7.816406 7.933594 7.816406 Z M 7.933594 7.816406"/></g></g><g clip-path="url(#clip3)" clip-rule="nonzero"><g clip-path="url(#clip4)" clip-rule="nonzero"><path style="stroke:none;fill-rule:nonzero;fill:#fff;fill-opacity:1" d="M 14.589844 7.671875 L 14.589844 5.8125 L 1.28125 5.8125 L 1.28125 7.671875 C 3.328125 8.875 5.574219 9.542969 7.933594 9.542969 C 10.296875 9.542969 12.542969 8.875 14.589844 7.671875 Z M 14.589844 7.671875"/></g></g><g clip-path="url(#clip5)" clip-rule="nonzero"><g clip-path="url(#clip6)" clip-rule="nonzero"><path style="stroke:none;fill-rule:nonzero;fill:#ed7770;fill-opacity:1" d="M 7.933594 10.800781 C 6.460938 10.800781 5.179688 11.605469 4.492188 12.796875 C 5.382812 13.28125 6.597656 13.582031 7.933594 13.582031 C 9.273438 13.582031 10.484375 13.28125 11.375 12.796875 C 10.691406 11.605469 9.40625 10.800781 7.933594 10.800781 Z M 7.933594 10.800781"/></g></g><g clip-path="url(#clip7)" clip-rule="nonzero"><g clip-path="url(#clip8)" clip-rule="nonzero"><g clip-path="url(#clip9)" clip-rule="nonzero"><path style="stroke:none;fill-rule:nonzero;fill:#eb8f00;fill-opacity:1" d="M 13.347656 7.886719 C 13.359375 7.886719 13.367188 7.894531 13.367188 7.902344 C 13.15625 9.007812 12.542969 10.019531 11.636719 10.757812 C 10.640625 11.5625 9.359375 11.992188 7.929688 11.992188 C 6.625 11.992188 5.351562 11.558594 4.347656 10.777344 C 3.382812 10.023438 2.726562 9.003906 2.503906 7.898438 C 2.503906 7.894531 2.511719 7.886719 2.523438 7.886719 L 2.527344 7.886719 C 4.132812 8.183594 6.003906 8.339844 7.933594 8.339844 C 9.863281 8.339844 11.734375 8.183594 13.34375 7.886719 C 13.34375 7.886719 13.347656 7.886719 13.347656 7.886719 M 13.347656 7.359375 C 13.316406 7.359375 13.28125 7.363281 13.246094 7.371094 C 11.726562 7.652344 9.898438 7.816406 7.933594 7.816406 C 5.96875 7.816406 4.144531 7.652344 2.621094 7.371094 C 2.589844 7.363281 2.554688 7.359375 2.519531 7.359375 C 2.1875 7.359375 1.917969 7.667969 1.988281 8.007812 C 2.492188 10.484375 4.929688 12.519531 7.929688 12.519531 C 11.214844 12.519531 13.421875 10.417969 13.882812 8 C 13.949219 7.660156 13.679688 7.359375 13.347656 7.359375 Z M 13.347656 7.359375"/></g></g></g><path style="fill-rule:nonzero;fill:#cc1775;fill-opacity:1;stroke-width:4;stroke-linecap:butt;stroke-linejoin:miter;stroke:#b3005c;stroke-opacity:1;stroke-miterlimit:10" d="M 32.09375 17.125 L 40.125 27.84375 C 40.53125 28.375 41.15625 28.65625 41.8125 28.625 L 55.1875 28.0625 C 56.875 27.96875 57.875 29.84375 56.90625 31.1875 L 49.21875 42.15625 C 48.84375 42.71875 48.75 43.40625 49 44.03125 L 53.65625 56.5625 C 54.25 58.125 52.8125 59.65625 51.21875 59.1875 L 38.40625 55.25 C 37.78125 55.0625 37.09375 55.1875 36.5625 55.625 L 26.09375 63.9375 C 24.8125 64.96875 22.875 64.0625 22.875 62.40625 L 22.625 49 C 22.625 48.34375 22.28125 47.71875 21.75 47.375 L 10.59375 39.96875 C 9.1875 39.0625 9.46875 36.9375 11.03125 36.40625 L 23.6875 32.0625 C 24.3125 31.84375 24.8125 31.34375 24.96875 30.6875 L 28.5625 17.78125 C 29 16.1875 31.09375 15.8125 32.09375 17.125 Z M 32.09375 17.125" transform="matrix(0.125,0,0,0.125,0,0)"/><path style="fill-rule:nonzero;fill:#cc1775;fill-opacity:1;stroke-width:4;stroke-linecap:butt;stroke-linejoin:miter;stroke:#b3005c;stroke-opacity:1;stroke-miterlimit:10" d="M 95.90625 17.125 L 87.875 27.84375 C 87.46875 28.375 86.84375 28.65625 86.1875 28.625 L 72.8125 28.0625 C 71.125 27.96875 70.125 29.84375 71.09375 31.1875 L 78.78125 42.15625 C 79.15625 42.71875 79.25 43.40625 79 44.03125 L 74.34375 56.5625 C 73.75 58.125 75.1875 59.65625 76.78125 59.1875 L 89.59375 55.25 C 90.21875 55.0625 90.90625 55.1875 91.4375 55.625 L 101.90625 63.9375 C 103.21875 64.96875 105.125 64.0625 105.15625 62.40625 L 105.375 49 C 105.375 48.34375 105.71875 47.71875 106.25 47.375 L 117.40625 39.96875 C 118.8125 39.0625 118.53125 36.9375 116.96875 36.40625 L 104.3125 32.0625 C 103.6875 31.84375 103.1875 31.34375 103.03125 30.6875 L 99.4375 17.78125 C 99 16.1875 96.90625 15.8125 95.90625 17.125 Z M 95.90625 17.125" transform="matrix(0.125,0,0,0.125,0,0)"/></g></svg>