<svg xmlns="http://www.w3.org/2000/svg" xmlns:xlink="http://www.w3.org/1999/xlink" width="16pt" height="16pt" version="1.1" viewBox="0 0 16 16"><defs><linearGradient id="linear0" x1="64" x2="64" y1="19.698" y2="107.72" gradientTransform="matrix(0.125,0,0,0.125,0,0)" gradientUnits="userSpaceOnUse"><stop offset=".5" style="stop-color:#fee133;stop-opacity:1"/><stop offset=".612" style="stop-color:#fede32;stop-opacity:1"/><stop offset=".708" style="stop-color:#fcd32f;stop-opacity:1"/><stop offset=".797" style="stop-color:#fac12b;stop-opacity:1"/><stop offset=".883" style="stop-color:#f7a924;stop-opacity:1"/><stop offset=".9" style="stop-color:#f6a323;stop-opacity:1"/></linearGradient></defs><g id="surface1"><path style="stroke:none;fill-rule:nonzero;fill:url(#linear0)" d="M 8 14.988281 C 4.507812 14.988281 0.746094 12.800781 0.746094 8 C 0.746094 3.199219 4.507812 1.011719 8 1.011719 C 9.9375 1.011719 11.730469 1.652344 13.046875 2.816406 C 14.492188 4.089844 15.253906 5.882812 15.253906 8 C 15.253906 10.109375 14.492188 11.898438 13.046875 13.175781 C 11.726562 14.34375 9.933594 14.988281 8 14.988281 Z M 8 14.988281"/><path style="stroke:none;fill-rule:nonzero;fill:#eb8f00;fill-opacity:1" d="M 8 1.261719 C 9.875 1.261719 11.609375 1.878906 12.882812 3.003906 C 14.269531 4.226562 15.003906 5.953125 15.003906 8 C 15.003906 10.035156 14.269531 11.761719 12.878906 12.988281 C 11.605469 14.117188 9.871094 14.738281 8 14.738281 C 6.117188 14.738281 4.382812 14.125 3.117188 13.011719 C 1.730469 11.792969 0.996094 10.058594 0.996094 8 C 0.996094 5.929688 1.730469 4.195312 3.117188 2.980469 C 4.382812 1.871094 6.117188 1.261719 8 1.261719 M 8 0.761719 C 4.105469 0.761719 0.496094 3.261719 0.496094 8 C 0.496094 12.710938 4.105469 15.238281 8 15.238281 C 11.894531 15.238281 15.503906 12.648438 15.503906 8 C 15.503906 3.328125 11.894531 0.761719 8 0.761719 Z M 8 0.761719"/><path style="stroke:none;fill-rule:nonzero;fill:#eb8f00;fill-opacity:1" d="M 9.292969 3.0625 C 9.40625 2.96875 9.523438 2.882812 9.640625 2.792969 C 9.765625 2.710938 9.898438 2.636719 10.03125 2.5625 C 10.3125 2.433594 10.609375 2.3125 10.964844 2.300781 C 11.050781 2.292969 11.144531 2.308594 11.234375 2.316406 C 11.328125 2.320312 11.417969 2.355469 11.507812 2.382812 C 11.53125 2.390625 11.554688 2.394531 11.578125 2.402344 L 11.640625 2.4375 L 11.765625 2.503906 C 11.84375 2.558594 11.921875 2.617188 11.984375 2.679688 C 12.117188 2.8125 12.214844 2.964844 12.285156 3.113281 C 12.320312 3.191406 12.351562 3.265625 12.371094 3.34375 C 12.394531 3.417969 12.414062 3.496094 12.421875 3.546875 L 12.429688 3.582031 C 12.457031 3.734375 12.359375 3.878906 12.207031 3.90625 C 12.082031 3.929688 11.964844 3.867188 11.90625 3.765625 C 11.867188 3.683594 11.839844 3.632812 11.808594 3.578125 C 11.777344 3.523438 11.746094 3.476562 11.714844 3.429688 C 11.652344 3.335938 11.578125 3.261719 11.507812 3.203125 C 11.492188 3.183594 11.46875 3.175781 11.449219 3.164062 C 11.429688 3.152344 11.414062 3.136719 11.394531 3.128906 C 11.375 3.121094 11.355469 3.113281 11.332031 3.105469 L 11.304688 3.089844 C 11.296875 3.085938 11.28125 3.085938 11.273438 3.082031 C 11.1875 3.058594 11.09375 3.046875 10.992188 3.054688 C 10.789062 3.050781 10.554688 3.136719 10.320312 3.210938 C 10.203125 3.265625 10.082031 3.308594 9.964844 3.363281 C 9.847656 3.421875 9.730469 3.480469 9.605469 3.53125 L 9.582031 3.542969 C 9.4375 3.601562 9.273438 3.53125 9.214844 3.390625 C 9.164062 3.269531 9.199219 3.140625 9.292969 3.0625 Z M 9.292969 3.0625"/><path style="stroke:none;fill-rule:nonzero;fill:#eb8f00;fill-opacity:1" d="M 5.703125 4.816406 C 5.601562 4.839844 5.535156 4.851562 5.453125 4.855469 C 5.371094 4.863281 5.292969 4.863281 5.210938 4.859375 C 5.054688 4.855469 4.890625 4.828125 4.742188 4.792969 C 4.492188 4.734375 4.242188 4.691406 4.03125 4.6875 C 3.925781 4.691406 3.828125 4.699219 3.757812 4.726562 C 3.679688 4.75 3.621094 4.78125 3.558594 4.84375 C 3.429688 4.960938 3.3125 5.1875 3.1875 5.421875 C 3.113281 5.5625 2.941406 5.613281 2.804688 5.542969 C 2.695312 5.484375 2.640625 5.359375 2.660156 5.242188 C 2.683594 5.101562 2.71875 4.957031 2.777344 4.808594 C 2.832031 4.664062 2.90625 4.507812 3.03125 4.363281 C 3.148438 4.21875 3.320312 4.09375 3.507812 4.027344 C 3.691406 3.957031 3.875 3.9375 4.042969 3.941406 C 4.378906 3.953125 4.667969 4.039062 4.941406 4.140625 C 5.054688 4.183594 5.160156 4.210938 5.277344 4.234375 C 5.335938 4.242188 5.390625 4.25 5.449219 4.257812 C 5.503906 4.261719 5.574219 4.265625 5.609375 4.265625 L 5.65625 4.269531 C 5.8125 4.273438 5.929688 4.402344 5.925781 4.558594 C 5.917969 4.683594 5.824219 4.789062 5.703125 4.816406 Z M 5.703125 4.816406"/><path style="stroke:none;fill-rule:nonzero;fill:#242424;fill-opacity:1" d="M 5.496094 11.410156 C 5.71875 11.164062 6.320312 10.867188 7.164062 10.890625 C 8.273438 10.917969 8.882812 11.414062 8.882812 11.414062 C 9.242188 11.71875 9.078125 12.179688 8.691406 12.136719 C 8.070312 12.0625 8.097656 11.949219 6.980469 11.925781 C 6.167969 11.914062 5.777344 12.039062 5.742188 12.042969 C 5.523438 12.046875 5.429688 11.972656 5.390625 11.820312 C 5.355469 11.691406 5.390625 11.53125 5.496094 11.410156 Z M 5.496094 11.410156"/><path style="stroke:none;fill-rule:nonzero;fill:#303030;fill-opacity:1" d="M 10.289062 5.472656 C 10.84375 5.472656 11.347656 5.941406 11.347656 6.714844 C 11.347656 7.488281 10.84375 7.957031 10.289062 7.957031 C 9.738281 7.957031 9.234375 7.488281 9.234375 6.714844 C 9.234375 5.941406 9.738281 5.472656 10.289062 5.472656 Z M 10.289062 5.472656"/><path style="stroke:none;fill-rule:nonzero;fill:#242424;fill-opacity:1" d="M 4.652344 5.6875 C 4.128906 5.6875 3.652344 6.128906 3.652344 6.863281 C 3.652344 7.597656 4.128906 8.042969 4.652344 8.042969 C 5.175781 8.042969 5.652344 7.597656 5.652344 6.863281 C 5.652344 6.128906 5.175781 5.6875 4.652344 5.6875 Z M 4.652344 5.6875"/><path style="fill-rule:nonzero;fill:#ccc;fill-opacity:.501961;stroke-width:3.5;stroke-linecap:butt;stroke-linejoin:miter;stroke:#404040;stroke-opacity:1;stroke-miterlimit:10" d="M 100.15625 53.6875 C 100.15625 65.0625 90.9375 74.28125 79.5625 74.28125 C 68.1875 74.28125 58.96875 65.0625 58.96875 53.6875 C 58.96875 42.3125 68.1875 33.09375 79.5625 33.09375 C 90.9375 33.09375 100.15625 42.3125 100.15625 53.6875 Z M 100.15625 53.6875" transform="matrix(0.125,0,0,0.125,0,0)"/><path style="stroke:none;fill-rule:nonzero;fill:#404040;fill-opacity:1" d="M 13.3125 6.234375 L 12.617188 6.234375 L 12.617188 7.359375 L 13.3125 7.359375 C 13.648438 7.359375 13.992188 7.152344 13.992188 6.816406 L 13.992188 6.769531 C 13.992188 6.433594 13.648438 6.234375 13.3125 6.234375 Z M 13.253906 7.199219 C 13.015625 7.199219 12.820312 7.011719 12.820312 6.78125 C 12.820312 6.550781 13.015625 6.367188 13.253906 6.367188 C 13.492188 6.367188 13.683594 6.550781 13.683594 6.78125 C 13.683594 7.011719 13.492188 7.199219 13.253906 7.199219 Z M 13.253906 7.199219"/><path style="stroke:none;fill-rule:nonzero;fill:#fff;fill-opacity:1" d="M 11.851562 6.558594 C 11.808594 6.085938 11.589844 5.644531 11.242188 5.347656 C 10.898438 5.050781 10.445312 4.886719 9.988281 4.890625 C 9.535156 4.886719 9.078125 5.039062 8.730469 5.332031 C 8.375 5.621094 8.15625 6.0625 8.113281 6.535156 C 8.109375 6.566406 8.078125 6.589844 8.046875 6.585938 C 8.015625 6.585938 7.996094 6.558594 7.992188 6.53125 C 7.984375 6.28125 8.03125 6.023438 8.125 5.785156 C 8.222656 5.546875 8.375 5.328125 8.566406 5.148438 C 8.945312 4.789062 9.472656 4.609375 9.992188 4.609375 C 10.511719 4.609375 11.035156 4.804688 11.410156 5.171875 C 11.59375 5.351562 11.742188 5.570312 11.839844 5.808594 C 11.933594 6.046875 11.980469 6.304688 11.96875 6.554688 C 11.96875 6.585938 11.941406 6.613281 11.910156 6.609375 C 11.878906 6.609375 11.855469 6.585938 11.851562 6.558594 Z M 11.851562 6.558594"/><path style="stroke:none;fill-rule:nonzero;fill:#404040;fill-opacity:1" d="M 13.265625 8.84375 L 13.261719 8.84375 C 13.226562 8.84375 13.199219 8.816406 13.199219 8.78125 L 13.199219 8.203125 C 13.199219 8.167969 13.226562 8.140625 13.261719 8.140625 L 13.265625 8.140625 C 13.300781 8.140625 13.328125 8.167969 13.328125 8.203125 L 13.328125 8.78125 C 13.328125 8.816406 13.300781 8.84375 13.265625 8.84375 Z M 13.265625 8.84375"/><path style="stroke:none;fill-rule:nonzero;fill:#404040;fill-opacity:1" d="M 13.265625 9.804688 L 13.261719 9.804688 C 13.226562 9.804688 13.199219 9.777344 13.199219 9.742188 L 13.199219 9.164062 C 13.199219 9.128906 13.226562 9.101562 13.261719 9.101562 L 13.265625 9.101562 C 13.300781 9.101562 13.328125 9.128906 13.328125 9.164062 L 13.328125 9.742188 C 13.328125 9.777344 13.300781 9.804688 13.265625 9.804688 Z M 13.265625 9.804688"/><path style="stroke:none;fill-rule:nonzero;fill:#404040;fill-opacity:1" d="M 13.265625 10.765625 L 13.261719 10.765625 C 13.226562 10.765625 13.199219 10.738281 13.199219 10.703125 L 13.199219 10.128906 C 13.199219 10.09375 13.226562 10.066406 13.261719 10.066406 L 13.265625 10.066406 C 13.300781 10.066406 13.328125 10.09375 13.328125 10.128906 L 13.328125 10.703125 C 13.328125 10.738281 13.300781 10.765625 13.265625 10.765625 Z M 13.265625 10.765625"/><path style="stroke:none;fill-rule:nonzero;fill:#404040;fill-opacity:1" d="M 13.265625 11.730469 L 13.261719 11.730469 C 13.226562 11.730469 13.199219 11.703125 13.199219 11.667969 L 13.199219 11.085938 C 13.199219 11.050781 13.226562 11.023438 13.261719 11.023438 L 13.265625 11.023438 C 13.300781 11.023438 13.328125 11.050781 13.328125 11.085938 L 13.328125 11.664062 C 13.328125 11.699219 13.300781 11.730469 13.265625 11.730469 Z M 13.265625 11.730469"/><path style="stroke:none;fill-rule:nonzero;fill:#404040;fill-opacity:1" d="M 13.265625 12.691406 L 13.261719 12.691406 C 13.226562 12.691406 13.199219 12.664062 13.199219 12.628906 L 13.199219 12.050781 C 13.199219 12.015625 13.226562 11.988281 13.261719 11.988281 L 13.265625 11.988281 C 13.300781 11.988281 13.328125 12.015625 13.328125 12.050781 L 13.328125 12.628906 C 13.328125 12.660156 13.300781 12.691406 13.265625 12.691406 Z M 13.265625 12.691406"/><path style="stroke:none;fill-rule:nonzero;fill:#404040;fill-opacity:1" d="M 13.265625 13.652344 L 13.261719 13.652344 C 13.226562 13.652344 13.199219 13.621094 13.199219 13.589844 L 13.199219 13.011719 C 13.199219 12.976562 13.226562 12.949219 13.261719 12.949219 L 13.265625 12.949219 C 13.300781 12.949219 13.328125 12.976562 13.328125 13.011719 L 13.328125 13.589844 C 13.328125 13.621094 13.300781 13.652344 13.265625 13.652344 Z M 13.265625 13.652344"/><path style="stroke:none;fill-rule:nonzero;fill:#404040;fill-opacity:1" d="M 13.265625 14.613281 L 13.261719 14.613281 C 13.226562 14.613281 13.199219 14.582031 13.199219 14.550781 L 13.199219 13.972656 C 13.199219 13.9375 13.226562 13.910156 13.261719 13.910156 L 13.265625 13.910156 C 13.300781 13.910156 13.328125 13.9375 13.328125 13.972656 L 13.328125 14.550781 C 13.328125 14.585938 13.300781 14.613281 13.265625 14.613281 Z M 13.265625 14.613281"/><path style="stroke:none;fill-rule:nonzero;fill:#404040;fill-opacity:1" d="M 13.265625 7.832031 L 13.261719 7.832031 C 13.226562 7.832031 13.199219 7.800781 13.199219 7.769531 L 13.199219 7.191406 C 13.199219 7.15625 13.226562 7.128906 13.261719 7.128906 L 13.265625 7.128906 C 13.300781 7.128906 13.328125 7.15625 13.328125 7.191406 L 13.328125 7.769531 C 13.328125 7.800781 13.300781 7.832031 13.265625 7.832031 Z M 13.265625 7.832031"/><path style="fill:none;stroke-width:1;stroke-linecap:butt;stroke-linejoin:miter;stroke:#404040;stroke-opacity:1;stroke-miterlimit:10" d="M 108.71875 64.09375 C 108.71875 65.53125 107.53125 66.71875 106.09375 66.71875 C 104.65625 66.71875 103.5 65.53125 103.5 64.09375 C 103.5 62.65625 104.65625 61.5 106.09375 61.5 C 107.53125 61.5 108.71875 62.65625 108.71875 64.09375 Z M 108.71875 64.09375" transform="matrix(0.125,0,0,0.125,0,0)"/><path style="fill:none;stroke-width:1;stroke-linecap:butt;stroke-linejoin:miter;stroke:#404040;stroke-opacity:1;stroke-miterlimit:10" d="M 108.71875 71.75 C 108.71875 73.1875 107.53125 74.375 106.09375 74.375 C 104.65625 74.375 103.5 73.1875 103.5 71.75 C 103.5 70.3125 104.65625 69.125 106.09375 69.125 C 107.53125 69.125 108.71875 70.3125 108.71875 71.75 Z M 108.71875 71.75" transform="matrix(0.125,0,0,0.125,0,0)"/><path style="fill:none;stroke-width:1;stroke-linecap:butt;stroke-linejoin:miter;stroke:#404040;stroke-opacity:1;stroke-miterlimit:10" d="M 108.71875 79.40625 C 108.71875 80.84375 107.53125 82.03125 106.09375 82.03125 C 104.65625 82.03125 103.5 80.84375 103.5 79.40625 C 103.5 77.96875 104.65625 76.8125 106.09375 76.8125 C 107.53125 76.8125 108.71875 77.96875 108.71875 79.40625 Z M 108.71875 79.40625" transform="matrix(0.125,0,0,0.125,0,0)"/><path style="fill:none;stroke-width:1;stroke-linecap:butt;stroke-linejoin:miter;stroke:#404040;stroke-opacity:1;stroke-miterlimit:10" d="M 108.71875 87.0625 C 108.71875 88.5 107.53125 89.65625 106.09375 89.65625 C 104.65625 89.65625 103.5 88.5 103.5 87.0625 C 103.5 85.625 104.65625 84.4375 106.09375 84.4375 C 107.53125 84.4375 108.71875 85.625 108.71875 87.0625 Z M 108.71875 87.0625" transform="matrix(0.125,0,0,0.125,0,0)"/><path style="fill:none;stroke-width:1;stroke-linecap:butt;stroke-linejoin:miter;stroke:#404040;stroke-opacity:1;stroke-miterlimit:10" d="M 108.71875 94.71875 C 108.71875 96.15625 107.53125 97.34375 106.09375 97.34375 C 104.65625 97.34375 103.5 96.15625 103.5 94.71875 C 103.5 93.28125 104.65625 92.125 106.09375 92.125 C 107.53125 92.125 108.71875 93.28125 108.71875 94.71875 Z M 108.71875 94.71875" transform="matrix(0.125,0,0,0.125,0,0)"/><path style="fill:none;stroke-width:1;stroke-linecap:butt;stroke-linejoin:miter;stroke:#404040;stroke-opacity:1;stroke-miterlimit:10" d="M 108.71875 102.375 C 108.71875 103.8125 107.53125 105 106.09375 105 C 104.65625 105 103.5 103.8125 103.5 102.375 C 103.5 100.9375 104.65625 99.78125 106.09375 99.78125 C 107.53125 99.78125 108.71875 100.9375 108.71875 102.375 Z M 108.71875 102.375" transform="matrix(0.125,0,0,0.125,0,0)"/><path style="fill:none;stroke-width:1;stroke-linecap:butt;stroke-linejoin:miter;stroke:#404040;stroke-opacity:1;stroke-miterlimit:10" d="M 108.71875 110.03125 C 108.71875 111.46875 107.53125 112.625 106.09375 112.625 C 104.65625 112.625 103.5 111.46875 103.5 110.03125 C 103.5 108.59375 104.65625 107.40625 106.09375 107.40625 C 107.53125 107.40625 108.71875 108.59375 108.71875 110.03125 Z M 108.71875 110.03125" transform="matrix(0.125,0,0,0.125,0,0)"/><path style="fill:none;stroke-width:1;stroke-linecap:butt;stroke-linejoin:miter;stroke:#404040;stroke-opacity:1;stroke-miterlimit:10" d="M 108.71875 117.6875 C 108.71875 119.125 107.53125 120.3125 106.09375 120.3125 C 104.65625 120.3125 103.5 119.125 103.5 117.6875 C 103.5 116.25 104.65625 115.09375 106.09375 115.09375 C 107.53125 115.09375 108.71875 116.25 108.71875 117.6875 Z M 108.71875 117.6875" transform="matrix(0.125,0,0,0.125,0,0)"/></g></svg>