<svg xmlns="http://www.w3.org/2000/svg" xmlns:xlink="http://www.w3.org/1999/xlink" width="16pt" height="16pt" version="1.1" viewBox="0 0 16 16"><defs><linearGradient id="linear0" x1="64" x2="64" y1="122.24" y2="5.643" gradientTransform="matrix(0.125,0,0,0.125,0,0)" gradientUnits="userSpaceOnUse"><stop offset=".07" style="stop-color:#603813;stop-opacity:1"/><stop offset=".834" style="stop-color:#8c6239;stop-opacity:1"/></linearGradient><linearGradient id="linear1" x1="64" x2="64" y1="101.46" y2="27.886" gradientTransform="matrix(0.125,0,0,0.125,0,0)" gradientUnits="userSpaceOnUse"><stop offset="0" style="stop-color:#e6a500;stop-opacity:1"/><stop offset=".077" style="stop-color:#eaac0d;stop-opacity:1"/><stop offset=".302" style="stop-color:#f3be2d;stop-opacity:1"/><stop offset=".52" style="stop-color:#facb44;stop-opacity:1"/><stop offset=".723" style="stop-color:#fed252;stop-opacity:1"/><stop offset=".899" style="stop-color:#ffd557;stop-opacity:1"/></linearGradient><linearGradient id="linear2" x1="64" x2="64" y1="66.629" y2="75.856" gradientTransform="matrix(0.125,0,0,0.125,0,0)" gradientUnits="userSpaceOnUse"><stop offset=".163" style="stop-color:#4d4d4d;stop-opacity:1"/><stop offset=".367" style="stop-color:#373737;stop-opacity:1"/><stop offset=".784" style="stop-color:#0f0f0f;stop-opacity:1"/><stop offset="1" style="stop-color:#000;stop-opacity:1"/></linearGradient></defs><g id="surface1"><path style="stroke:none;fill-rule:nonzero;fill:url(#linear0)" d="M 7.988281 15.28125 C 7.703125 15.171875 6.617188 14.722656 5.640625 14.09375 C 4.953125 13.648438 4.449219 13.0625 4.148438 12.710938 C 3.90625 12.433594 3.828125 12.339844 3.695312 12.339844 C 3.636719 12.339844 3.582031 12.363281 3.546875 12.402344 C 3.484375 12.46875 3.480469 12.550781 3.480469 12.609375 C 3.484375 12.71875 3.472656 12.800781 3.453125 12.859375 C 2.378906 12.03125 1.96875 11.070312 1.820312 10.566406 C 1.777344 10.421875 1.675781 10.332031 1.554688 10.332031 C 1.453125 10.332031 1.363281 10.390625 1.285156 10.511719 C 1.277344 10.527344 1.265625 10.550781 1.261719 10.566406 C 1.222656 10.671875 1.152344 10.753906 1.085938 10.8125 C 0.417969 9.117188 1.125 7.519531 1.464844 6.90625 C 1.515625 6.816406 1.511719 6.710938 1.460938 6.625 C 1.410156 6.535156 1.3125 6.484375 1.210938 6.484375 C 1.179688 6.484375 1.152344 6.484375 1.125 6.496094 L 0.75 6.605469 C 0.804688 5.140625 1.777344 4.046875 2.203125 3.640625 C 2.28125 3.566406 2.3125 3.453125 2.277344 3.351562 C 2.242188 3.246094 2.152344 3.171875 2.042969 3.152344 C 1.917969 3.136719 1.789062 3.09375 1.695312 3.054688 C 2.859375 1.117188 4.585938 0.707031 5.839844 0.707031 C 6.824219 0.707031 7.621094 0.949219 7.871094 1.039062 C 7.90625 1.070312 7.953125 1.085938 8 1.085938 C 8.046875 1.085938 8.09375 1.070312 8.128906 1.035156 C 8.378906 0.949219 9.175781 0.703125 10.164062 0.703125 C 11.417969 0.703125 13.140625 1.113281 14.304688 3.050781 C 14.210938 3.089844 14.082031 3.136719 13.960938 3.152344 C 13.847656 3.167969 13.757812 3.242188 13.722656 3.347656 C 13.691406 3.453125 13.71875 3.566406 13.796875 3.640625 C 14.222656 4.046875 15.199219 5.136719 15.253906 6.605469 L 14.875 6.492188 C 14.847656 6.484375 14.820312 6.480469 14.792969 6.480469 C 14.6875 6.480469 14.59375 6.535156 14.539062 6.625 C 14.488281 6.710938 14.488281 6.816406 14.535156 6.90625 C 14.878906 7.519531 15.582031 9.117188 14.914062 10.8125 C 14.847656 10.753906 14.777344 10.671875 14.734375 10.558594 C 14.730469 10.546875 14.71875 10.519531 14.710938 10.511719 C 14.636719 10.394531 14.546875 10.332031 14.445312 10.332031 C 14.320312 10.332031 14.222656 10.421875 14.179688 10.566406 C 14.03125 11.074219 13.621094 12.035156 12.539062 12.867188 C 12.511719 12.792969 12.5 12.707031 12.503906 12.609375 C 12.503906 12.578125 12.507812 12.480469 12.4375 12.40625 C 12.398438 12.367188 12.34375 12.34375 12.289062 12.34375 C 12.15625 12.34375 12.066406 12.445312 11.828125 12.714844 C 11.511719 13.074219 10.980469 13.671875 10.261719 14.089844 C 9.261719 14.671875 8.253906 15.152344 7.988281 15.28125 Z M 7.988281 15.28125"/><path style="stroke:none;fill-rule:nonzero;fill:#61422a;fill-opacity:1" d="M 10.160156 0.890625 C 11.828125 0.890625 13.125 1.585938 14.019531 2.949219 C 13.988281 2.957031 13.960938 2.960938 13.933594 2.964844 C 13.75 2.992188 13.601562 3.113281 13.546875 3.289062 C 13.488281 3.460938 13.535156 3.648438 13.667969 3.773438 C 14.050781 4.140625 14.894531 5.082031 15.042969 6.347656 L 14.925781 6.3125 C 14.882812 6.300781 14.835938 6.292969 14.789062 6.292969 C 14.621094 6.292969 14.464844 6.382812 14.378906 6.527344 C 14.292969 6.671875 14.289062 6.847656 14.371094 6.996094 C 14.675781 7.546875 15.28125 8.90625 14.859375 10.390625 C 14.71875 10.1875 14.554688 10.144531 14.445312 10.144531 C 14.28125 10.144531 14.078125 10.242188 14 10.511719 C 13.867188 10.953125 13.53125 11.757812 12.683594 12.5 C 12.667969 12.414062 12.632812 12.335938 12.574219 12.277344 C 12.5 12.199219 12.394531 12.152344 12.289062 12.152344 C 12.074219 12.152344 11.953125 12.289062 11.6875 12.585938 C 11.378906 12.9375 10.859375 13.523438 10.167969 13.925781 C 9.25 14.460938 8.328125 14.910156 7.984375 15.074219 C 7.621094 14.933594 6.636719 14.507812 5.742188 13.933594 C 5.074219 13.503906 4.582031 12.933594 4.289062 12.589844 C 4.03125 12.289062 3.914062 12.152344 3.695312 12.152344 C 3.585938 12.152344 3.484375 12.195312 3.410156 12.273438 C 3.351562 12.332031 3.316406 12.40625 3.300781 12.492188 C 2.464844 11.75 2.128906 10.953125 2 10.515625 C 1.921875 10.242188 1.71875 10.144531 1.554688 10.144531 C 1.441406 10.144531 1.28125 10.191406 1.140625 10.390625 C 0.71875 8.90625 1.324219 7.546875 1.628906 6.996094 C 1.710938 6.847656 1.707031 6.675781 1.621094 6.53125 C 1.539062 6.386719 1.378906 6.296875 1.210938 6.296875 C 1.164062 6.296875 1.117188 6.300781 1.074219 6.316406 L 0.957031 6.347656 C 1.105469 5.082031 1.953125 4.140625 2.332031 3.777344 C 2.464844 3.648438 2.511719 3.464844 2.453125 3.292969 C 2.398438 3.117188 2.25 2.992188 2.066406 2.96875 C 2.039062 2.964844 2.007812 2.957031 1.980469 2.953125 C 2.875 1.585938 4.171875 0.890625 5.839844 0.890625 C 6.757812 0.890625 7.503906 1.109375 7.777344 1.203125 C 7.839844 1.25 7.917969 1.273438 8 1.273438 C 8.082031 1.273438 8.160156 1.25 8.222656 1.203125 C 8.496094 1.109375 9.242188 0.890625 10.160156 0.890625 M 10.160156 0.515625 C 9.121094 0.515625 8.28125 0.78125 8.046875 0.867188 C 8.027344 0.875 8.011719 0.886719 8 0.898438 C 7.988281 0.886719 7.972656 0.871094 7.953125 0.867188 C 7.71875 0.785156 6.878906 0.515625 5.839844 0.515625 C 4.4375 0.515625 2.664062 0.996094 1.480469 3.046875 C 1.453125 3.097656 1.472656 3.160156 1.527344 3.183594 C 1.636719 3.234375 1.824219 3.3125 2.015625 3.339844 C 2.097656 3.351562 2.132812 3.449219 2.074219 3.503906 C 1.632812 3.925781 0.5625 5.117188 0.558594 6.71875 C 0.558594 6.777344 0.605469 6.820312 0.660156 6.820312 C 0.671875 6.820312 0.679688 6.820312 0.691406 6.816406 L 1.175781 6.671875 C 1.1875 6.671875 1.199219 6.667969 1.207031 6.667969 C 1.28125 6.667969 1.335938 6.742188 1.296875 6.8125 C 0.96875 7.40625 0.171875 9.15625 0.953125 10.988281 C 0.96875 11.027344 1.007812 11.046875 1.046875 11.046875 C 1.070312 11.046875 1.089844 11.042969 1.109375 11.03125 C 1.210938 10.960938 1.363281 10.828125 1.4375 10.621094 C 1.441406 10.617188 1.441406 10.613281 1.441406 10.613281 C 1.484375 10.546875 1.523438 10.519531 1.554688 10.519531 C 1.59375 10.519531 1.625 10.566406 1.640625 10.617188 C 1.792969 11.140625 2.234375 12.191406 3.425781 13.074219 C 3.445312 13.089844 3.464844 13.09375 3.488281 13.09375 C 3.523438 13.09375 3.558594 13.078125 3.578125 13.042969 C 3.625 12.960938 3.675781 12.816406 3.667969 12.601562 C 3.664062 12.550781 3.671875 12.527344 3.691406 12.527344 C 3.824219 12.527344 4.453125 13.5625 5.535156 14.257812 C 6.699219 15.007812 7.980469 15.5 8 15.5 C 8.019531 15.5 9.171875 14.949219 10.355469 14.261719 C 11.476562 13.609375 12.148438 12.535156 12.285156 12.535156 C 12.304688 12.535156 12.316406 12.554688 12.3125 12.601562 C 12.300781 12.820312 12.363281 12.960938 12.410156 13.046875 C 12.429688 13.078125 12.464844 13.09375 12.503906 13.09375 C 12.527344 13.09375 12.546875 13.085938 12.570312 13.074219 C 13.757812 12.191406 14.203125 11.140625 14.359375 10.617188 C 14.375 10.566406 14.402344 10.519531 14.445312 10.519531 C 14.476562 10.519531 14.511719 10.542969 14.554688 10.609375 C 14.558594 10.613281 14.558594 10.617188 14.558594 10.621094 C 14.636719 10.828125 14.785156 10.960938 14.890625 11.027344 C 14.90625 11.042969 14.929688 11.046875 14.949219 11.046875 C 14.988281 11.046875 15.027344 11.023438 15.042969 10.984375 C 15.824219 9.152344 15.027344 7.40625 14.699219 6.8125 C 14.660156 6.742188 14.714844 6.667969 14.789062 6.667969 C 14.796875 6.667969 14.808594 6.667969 14.820312 6.671875 L 15.304688 6.8125 C 15.316406 6.816406 15.328125 6.820312 15.335938 6.820312 C 15.390625 6.820312 15.441406 6.773438 15.441406 6.71875 C 15.433594 5.113281 14.367188 3.925781 13.925781 3.503906 C 13.863281 3.445312 13.898438 3.347656 13.984375 3.335938 C 14.171875 3.3125 14.363281 3.234375 14.472656 3.183594 C 14.523438 3.15625 14.542969 3.097656 14.515625 3.046875 C 13.335938 0.996094 11.5625 0.515625 10.160156 0.515625 Z M 10.160156 0.515625"/><path style="fill-rule:nonzero;fill:#fbb03b;fill-opacity:1;stroke-width:3;stroke-linecap:butt;stroke-linejoin:round;stroke:#e68d00;stroke-opacity:1;stroke-miterlimit:10" d="M 48.40625 36 C 48.40625 42.0625 43.5 46.96875 37.4375 46.96875 C 31.40625 46.96875 26.5 42.0625 26.5 36 C 26.5 29.9375 31.40625 25.03125 37.4375 25.03125 C 43.5 25.03125 48.40625 29.9375 48.40625 36 Z M 48.40625 36" transform="matrix(0.125,0,0,0.125,0,0)"/><path style="stroke:none;fill-rule:nonzero;fill:#fff;fill-opacity:1" d="M 5.460938 4.5 C 5.460938 4.929688 5.113281 5.28125 4.679688 5.28125 C 4.25 5.28125 3.898438 4.929688 3.898438 4.5 C 3.898438 4.070312 4.25 3.71875 4.679688 3.71875 C 5.113281 3.71875 5.460938 4.070312 5.460938 4.5 Z M 5.460938 4.5"/><path style="fill-rule:nonzero;fill:#fbb03b;fill-opacity:1;stroke-width:3;stroke-linecap:butt;stroke-linejoin:round;stroke:#e68d00;stroke-opacity:1;stroke-miterlimit:10" d="M 101.5 36 C 101.5 42.0625 96.59375 46.96875 90.5625 46.96875 C 84.5 46.96875 79.59375 42.0625 79.59375 36 C 79.59375 29.9375 84.5 25.03125 90.5625 25.03125 C 96.59375 25.03125 101.5 29.9375 101.5 36 Z M 101.5 36" transform="matrix(0.125,0,0,0.125,0,0)"/><path style="stroke:none;fill-rule:nonzero;fill:#fff;fill-opacity:1" d="M 12.101562 4.5 C 12.101562 4.929688 11.75 5.28125 11.320312 5.28125 C 10.886719 5.28125 10.539062 4.929688 10.539062 4.5 C 10.539062 4.070312 10.886719 3.71875 11.320312 3.71875 C 11.75 3.71875 12.101562 4.070312 12.101562 4.5 Z M 12.101562 4.5"/><path style="stroke:none;fill-rule:nonzero;fill:url(#linear1)" d="M 8 12.683594 C 5.074219 12.683594 3.179688 10.921875 3.179688 8.195312 C 3.179688 5.332031 5.074219 3.484375 8 3.484375 C 10.925781 3.484375 12.820312 5.332031 12.820312 8.195312 C 12.820312 10.921875 10.925781 12.683594 8 12.683594 Z M 8 12.683594"/><path style="stroke:none;fill-rule:nonzero;fill:#e68d00;fill-opacity:1" d="M 8 3.671875 C 10.8125 3.671875 12.632812 5.449219 12.632812 8.195312 C 12.632812 10.847656 10.855469 12.496094 8 12.496094 C 5.144531 12.496094 3.367188 10.847656 3.367188 8.195312 C 3.367188 5.449219 5.1875 3.671875 8 3.671875 M 8 3.296875 C 4.800781 3.296875 2.992188 5.429688 2.992188 8.195312 C 2.992188 10.960938 4.855469 12.871094 8 12.871094 C 11.144531 12.871094 13.007812 10.960938 13.007812 8.195312 C 13.007812 5.429688 11.199219 3.296875 8 3.296875 Z M 8 3.296875"/><path style="fill:none;stroke-width:3;stroke-linecap:round;stroke-linejoin:round;stroke:#000;stroke-opacity:1;stroke-miterlimit:10" d="M 64 92.375 L 64 82.875" transform="matrix(0.125,0,0,0.125,0,0)"/><path style="stroke:none;fill-rule:nonzero;fill:#404040;fill-opacity:1" d="M 6.335938 7.222656 C 6.335938 6.738281 5.992188 6.34375 5.5625 6.34375 C 5.132812 6.34375 4.789062 6.738281 4.789062 7.222656 C 4.789062 7.707031 5.132812 8.097656 5.5625 8.097656 C 5.992188 8.097656 6.335938 7.707031 6.335938 7.222656 Z M 6.335938 7.222656"/><path style="stroke:none;fill-rule:nonzero;fill:#404040;fill-opacity:1" d="M 11.210938 7.222656 C 11.210938 6.738281 10.867188 6.34375 10.4375 6.34375 C 10.007812 6.34375 9.664062 6.738281 9.664062 7.222656 C 9.664062 7.707031 10.007812 8.097656 10.4375 8.097656 C 10.867188 8.097656 11.210938 7.707031 11.210938 7.222656 Z M 11.210938 7.222656"/><path style="stroke:none;fill-rule:nonzero;fill:#fff;fill-opacity:1" d="M 8.328125 9.949219 C 8.328125 9.140625 7.625 8.488281 6.757812 8.488281 C 5.890625 8.488281 5.1875 9.140625 5.1875 9.949219 C 5.1875 10.753906 5.890625 11.410156 6.757812 11.410156 C 7.625 11.410156 8.328125 10.753906 8.328125 9.949219 Z M 8.328125 9.949219"/><path style="stroke:none;fill-rule:nonzero;fill:#fff;fill-opacity:1" d="M 10.8125 9.949219 C 10.8125 9.140625 10.109375 8.488281 9.242188 8.488281 C 8.375 8.488281 7.671875 9.140625 7.671875 9.949219 C 7.671875 10.753906 8.375 11.410156 9.242188 11.410156 C 10.109375 11.410156 10.8125 10.753906 10.8125 9.949219 Z M 10.8125 9.949219"/><path style="stroke:none;fill-rule:nonzero;fill:url(#linear2)" d="M 8 9.4375 C 8.378906 9.4375 8.726562 9.042969 8.9375 8.730469 C 9.042969 8.578125 8.933594 8.375 8.746094 8.375 L 7.253906 8.375 C 7.070312 8.375 6.957031 8.578125 7.0625 8.730469 C 7.273438 9.042969 7.621094 9.4375 8 9.4375 Z M 8 9.4375"/><path style="fill:none;stroke-width:3;stroke-linecap:round;stroke-linejoin:round;stroke:#000;stroke-opacity:1;stroke-miterlimit:10" d="M 55.78125 96.21875 L 63.71875 92.5" transform="matrix(0.125,0,0,0.125,0,0)"/><path style="fill:none;stroke-width:3;stroke-linecap:round;stroke-linejoin:round;stroke:#000;stroke-opacity:1;stroke-miterlimit:10" d="M 72.21875 96.21875 L 63.78125 92.5" transform="matrix(0.125,0,0,0.125,0,0)"/></g></svg>