<svg xmlns="http://www.w3.org/2000/svg" xmlns:xlink="http://www.w3.org/1999/xlink" width="16pt" height="16pt" version="1.1" viewBox="0 0 16 16"><defs><linearGradient id="linear0" x1="64" x2="64" y1="38.902" y2="103.02" gradientTransform="matrix(0.125,0,0,0.125,0,0)" gradientUnits="userSpaceOnUse"><stop offset="0" style="stop-color:#e91e63;stop-opacity:1"/><stop offset=".76" style="stop-color:#f06292;stop-opacity:1"/></linearGradient><linearGradient id="linear1" x1="63.938" x2="63.938" y1="43.543" y2="60.137" gradientTransform="matrix(0.125,0,0,0.125,0,0)" gradientUnits="userSpaceOnUse"><stop offset=".107" style="stop-color:#e0e0e0;stop-opacity:1"/><stop offset=".455" style="stop-color:#fafafa;stop-opacity:1"/></linearGradient><clipPath id="clip1"><path d="M 2 6 L 14 6 L 14 10 L 2 10 Z M 2 6"/></clipPath><clipPath id="clip2"><path d="M 7.984375 9.542969 C 4.074219 9.542969 2.226562 8.730469 2.226562 8.730469 C 2.226562 8.730469 4.765625 5.414062 7.984375 5.414062 C 11.203125 5.414062 13.761719 8.71875 13.761719 8.71875 C 13.761719 8.71875 11.894531 9.542969 7.984375 9.542969 Z M 7.984375 9.542969"/></clipPath><linearGradient id="linear2" x1="63.994" x2="63.994" y1="50.542" y2="72.417" gradientTransform="matrix(0.125,0,0,0.125,0,0)" gradientUnits="userSpaceOnUse"><stop offset=".545" style="stop-color:#632627;stop-opacity:1"/><stop offset=".893" style="stop-color:#522627;stop-opacity:1"/></linearGradient><filter id="alpha" width="100%" height="100%" x="0%" y="0%" filterUnits="objectBoundingBox"><feColorMatrix in="SourceGraphic" type="matrix" values="0 0 0 0 1 0 0 0 0 1 0 0 0 0 1 0 0 0 1 0"/></filter><mask id="mask0"><g filter="url(#alpha)"><rect width="16" height="16" x="0" y="0" style="fill:#000;fill-opacity:.2;stroke:none"/></g></mask><clipPath id="clip3"><rect width="16" height="16"/></clipPath><g id="surface6" clip-path="url(#clip3)"><path style="stroke:none;fill-rule:nonzero;fill:#424242;fill-opacity:1" d="M 9.558594 3.925781 C 9.992188 3.925781 11.019531 4.265625 13.019531 6.527344 C 13.847656 7.460938 14.554688 8.410156 14.90625 8.894531 C 14.542969 9.109375 13.941406 9.507812 13.148438 10.140625 C 13.003906 10.257812 12.851562 10.382812 12.695312 10.515625 C 11.605469 11.433594 10.246094 12.574219 8.015625 12.574219 C 5.394531 12.574219 4.175781 11.429688 3.097656 10.417969 C 3.003906 10.328125 2.910156 10.242188 2.816406 10.15625 C 2.144531 9.539062 1.488281 9.097656 1.09375 8.855469 C 1.453125 8.375 2.167969 7.445312 3 6.519531 C 5.027344 4.277344 6.042969 3.941406 6.464844 3.941406 C 7.054688 3.941406 7.390625 4.152344 7.566406 4.328125 C 7.6875 4.453125 7.855469 4.523438 8.027344 4.523438 C 8.191406 4.523438 8.347656 4.460938 8.46875 4.351562 C 8.683594 4.15625 9.042969 3.925781 9.558594 3.925781 M 9.558594 3.550781 C 8.902344 3.550781 8.453125 3.855469 8.21875 4.078125 C 8.164062 4.125 8.097656 4.148438 8.03125 4.148438 C 7.960938 4.148438 7.890625 4.121094 7.832031 4.066406 C 7.621094 3.851562 7.203125 3.566406 6.46875 3.566406 C 4.382812 3.566406 0.546875 8.972656 0.546875 8.972656 C 0.546875 8.972656 1.542969 9.488281 2.566406 10.429688 C 3.699219 11.472656 5.003906 12.949219 8.015625 12.949219 C 10.722656 12.949219 12.230469 11.359375 13.386719 10.429688 C 14.675781 9.398438 15.453125 9.015625 15.453125 9.015625 C 15.453125 9.015625 11.695312 3.550781 9.558594 3.550781 Z M 9.558594 3.550781"/></g><mask id="mask1"><g filter="url(#alpha)"><rect width="16" height="16" x="0" y="0" style="fill:#000;fill-opacity:.2;stroke:none"/></g></mask><clipPath id="clip4"><rect width="16" height="16"/></clipPath><g id="surface9" clip-path="url(#clip4)"><path style="stroke:none;fill-rule:nonzero;fill:#424242;fill-opacity:1" d="M 7.984375 5.789062 C 10.324219 5.789062 12.332031 7.695312 13.113281 8.546875 C 12.894531 8.613281 12.597656 8.691406 12.226562 8.769531 C 11.378906 8.953125 9.953125 9.167969 7.984375 9.167969 C 5.332031 9.167969 3.640625 8.785156 2.871094 8.554688 C 3.644531 7.699219 5.648438 5.789062 7.984375 5.789062 M 7.984375 5.414062 C 4.765625 5.414062 2.226562 8.730469 2.226562 8.730469 C 2.226562 8.730469 4.074219 9.542969 7.984375 9.542969 C 11.894531 9.542969 13.757812 8.71875 13.757812 8.71875 C 13.757812 8.71875 11.203125 5.414062 7.984375 5.414062 Z M 7.984375 5.414062"/></g></defs><g id="surface1"><path style="stroke:none;fill-rule:nonzero;fill:url(#linear0)" d="M 8.015625 12.949219 C 5.003906 12.949219 3.699219 11.472656 2.566406 10.429688 C 1.542969 9.488281 0.546875 8.972656 0.546875 8.972656 C 0.546875 8.972656 4.382812 3.566406 6.46875 3.566406 C 7.203125 3.566406 7.621094 3.851562 7.832031 4.066406 C 7.9375 4.171875 8.109375 4.175781 8.21875 4.078125 C 8.457031 3.855469 8.902344 3.550781 9.558594 3.550781 C 11.695312 3.550781 15.453125 9.015625 15.453125 9.015625 C 15.453125 9.015625 14.675781 9.398438 13.386719 10.429688 C 12.230469 11.359375 10.722656 12.949219 8.015625 12.949219 Z M 8.015625 12.949219"/><path style="stroke:none;fill-rule:nonzero;fill:url(#linear1)" d="M 7.984375 9.542969 C 4.074219 9.542969 2.226562 8.730469 2.226562 8.730469 C 2.226562 8.730469 4.765625 5.414062 7.984375 5.414062 C 11.203125 5.414062 13.761719 8.71875 13.761719 8.71875 C 13.761719 8.71875 11.894531 9.542969 7.984375 9.542969 Z M 7.984375 9.542969"/><g clip-path="url(#clip1)" clip-rule="nonzero"><g clip-path="url(#clip2)" clip-rule="nonzero"><path style="stroke:none;fill-rule:nonzero;fill:url(#linear2)" d="M 15.796875 10.226562 C 15.796875 12.816406 12.304688 14.914062 8 14.914062 C 3.695312 14.914062 0.203125 12.816406 0.203125 10.226562 C 0.203125 8.84375 4.027344 6.746094 4.027344 6.746094 C 4.027344 6.746094 5.054688 7.195312 8 7.195312 C 10.941406 7.195312 12.035156 6.777344 12.035156 6.777344 C 12.035156 6.777344 15.796875 8.863281 15.796875 10.226562 Z M 15.796875 10.226562"/></g></g><use mask="url(#mask0)" xlink:href="#surface6"/><use mask="url(#mask1)" xlink:href="#surface9"/></g></svg>