<svg xmlns="http://www.w3.org/2000/svg" xmlns:xlink="http://www.w3.org/1999/xlink" width="16pt" height="16pt" version="1.1" viewBox="0 0 16 16"><defs><linearGradient id="linear0" x1="64.071" x2="64.071" y1="113.87" y2="13.865" gradientTransform="matrix(0.125,0,0,0.125,0,0)" gradientUnits="userSpaceOnUse"><stop offset="0" style="stop-color:#825c40;stop-opacity:1"/><stop offset=".167" style="stop-color:#855f41;stop-opacity:1"/><stop offset=".31" style="stop-color:#906746;stop-opacity:1"/><stop offset=".445" style="stop-color:#a2764d;stop-opacity:1"/><stop offset=".488" style="stop-color:#a97c50;stop-opacity:1"/></linearGradient><linearGradient id="linear1" x1="64.071" x2="64.071" y1="36.395" y2="109.5" gradientTransform="matrix(0.125,0,0,0.125,0,0)" gradientUnits="userSpaceOnUse"><stop offset=".259" style="stop-color:#e6b175;stop-opacity:1"/><stop offset=".455" style="stop-color:#e2ac70;stop-opacity:1"/><stop offset=".686" style="stop-color:#d59e62;stop-opacity:1"/><stop offset=".935" style="stop-color:#c0884a;stop-opacity:1"/><stop offset=".969" style="stop-color:#bd8446;stop-opacity:1"/></linearGradient><clipPath id="clip1"><path d="M 4 9 L 12 9 L 12 13 L 4 13 Z M 4 9"/></clipPath><clipPath id="clip2"><path d="M 8.820312 12.847656 C 10.292969 12.554688 11.265625 11.480469 11.492188 10.273438 C 11.535156 10.050781 11.339844 9.859375 11.121094 9.902344 C 10.226562 10.070312 9.152344 10.164062 8 10.164062 C 6.84375 10.164062 5.773438 10.070312 4.878906 9.902344 C 4.65625 9.859375 4.460938 10.054688 4.507812 10.277344 C 4.804688 11.734375 6.234375 12.925781 7.996094 12.925781 C 8.285156 12.925781 8.5625 12.898438 8.820312 12.847656"/></clipPath><clipPath id="clip3"><path d="M 4 9 L 12 9 L 12 11 L 4 11 Z M 4 9"/></clipPath><clipPath id="clip4"><path d="M 8.820312 12.847656 C 10.292969 12.554688 11.265625 11.480469 11.492188 10.273438 C 11.535156 10.050781 11.339844 9.859375 11.121094 9.902344 C 10.226562 10.070312 9.152344 10.164062 8 10.164062 C 6.84375 10.164062 5.773438 10.070312 4.878906 9.902344 C 4.65625 9.859375 4.460938 10.054688 4.507812 10.277344 C 4.804688 11.734375 6.234375 12.925781 7.996094 12.925781 C 8.285156 12.925781 8.5625 12.898438 8.820312 12.847656"/></clipPath><clipPath id="clip5"><path d="M 5 11 L 11 11 L 11 13 L 5 13 Z M 5 11"/></clipPath><clipPath id="clip6"><path d="M 8.820312 12.847656 C 10.292969 12.554688 11.265625 11.480469 11.492188 10.273438 C 11.535156 10.050781 11.339844 9.859375 11.121094 9.902344 C 10.226562 10.070312 9.152344 10.164062 8 10.164062 C 6.84375 10.164062 5.773438 10.070312 4.878906 9.902344 C 4.65625 9.859375 4.460938 10.054688 4.507812 10.277344 C 4.804688 11.734375 6.234375 12.925781 7.996094 12.925781 C 8.285156 12.925781 8.5625 12.898438 8.820312 12.847656"/></clipPath></defs><g id="surface1"><path style="stroke:none;fill-rule:nonzero;fill:#e6b175;fill-opacity:1" d="M 6.289062 8.25 C 6.289062 6.515625 5.035156 5.109375 3.488281 5.109375 C 1.941406 5.109375 0.6875 6.515625 0.6875 8.25 C 0.6875 9.984375 1.941406 11.390625 3.488281 11.390625 C 5.035156 11.390625 6.289062 9.984375 6.289062 8.25 Z M 6.289062 8.25"/><path style="stroke:none;fill-rule:nonzero;fill:#8b5e3c;fill-opacity:1" d="M 3.488281 5.296875 C 4.929688 5.296875 6.101562 6.621094 6.101562 8.25 C 6.101562 9.878906 4.929688 11.203125 3.488281 11.203125 C 2.046875 11.203125 0.875 9.878906 0.875 8.25 C 0.875 6.621094 2.046875 5.296875 3.488281 5.296875 M 3.488281 4.921875 C 1.839844 4.921875 0.5 6.410156 0.5 8.25 C 0.5 10.089844 1.839844 11.578125 3.488281 11.578125 C 5.140625 11.578125 6.476562 10.089844 6.476562 8.25 C 6.476562 6.410156 5.140625 4.921875 3.488281 4.921875 Z M 3.488281 4.921875"/><path style="stroke:none;fill-rule:nonzero;fill:#e6b175;fill-opacity:1" d="M 12.511719 11.390625 C 10.964844 11.390625 9.710938 9.984375 9.710938 8.25 C 9.710938 6.515625 10.964844 5.109375 12.511719 5.109375 C 14.054688 5.109375 15.3125 6.515625 15.3125 8.25 C 15.3125 9.984375 14.054688 11.390625 12.511719 11.390625 Z M 12.511719 11.390625"/><path style="stroke:none;fill-rule:nonzero;fill:#8b5e3c;fill-opacity:1" d="M 12.511719 5.296875 C 13.953125 5.296875 15.125 6.621094 15.125 8.25 C 15.125 9.878906 13.953125 11.203125 12.511719 11.203125 C 11.070312 11.203125 9.898438 9.878906 9.898438 8.25 C 9.898438 6.621094 11.070312 5.296875 12.511719 5.296875 M 12.511719 4.921875 C 10.859375 4.921875 9.523438 6.410156 9.523438 8.25 C 9.523438 10.089844 10.859375 11.578125 12.511719 11.578125 C 14.160156 11.578125 15.5 10.089844 15.5 8.25 C 15.5 6.410156 14.160156 4.921875 12.511719 4.921875 Z M 12.511719 4.921875"/><path style="stroke:none;fill-rule:nonzero;fill:url(#linear0)" d="M 8.007812 14.234375 C 6.214844 14.234375 4.675781 13.550781 3.554688 12.261719 C 2.515625 11.066406 1.945312 9.472656 1.945312 7.765625 C 1.945312 4.765625 3.820312 1.734375 8.007812 1.734375 C 12.195312 1.734375 14.070312 4.765625 14.070312 7.765625 C 14.070312 9.472656 13.5 11.066406 12.464844 12.261719 C 11.34375 13.550781 9.800781 14.234375 8.007812 14.234375 Z M 8.007812 14.234375"/><path style="stroke:none;fill-rule:nonzero;fill:#8b5e3c;fill-opacity:1" d="M 8.007812 1.921875 C 9.800781 1.921875 11.304688 2.511719 12.359375 3.625 C 13.34375 4.667969 13.882812 6.136719 13.882812 7.765625 C 13.882812 9.425781 13.328125 10.976562 12.324219 12.136719 C 11.238281 13.386719 9.746094 14.046875 8.007812 14.046875 C 6.269531 14.046875 4.78125 13.386719 3.695312 12.136719 C 2.6875 10.976562 2.132812 9.425781 2.132812 7.765625 C 2.132812 6.136719 2.675781 4.667969 3.660156 3.625 C 4.710938 2.511719 6.214844 1.921875 8.007812 1.921875 M 8.007812 1.546875 C 4.015625 1.546875 1.757812 4.332031 1.757812 7.765625 C 1.757812 11.203125 4.082031 14.421875 8.007812 14.421875 C 11.933594 14.421875 14.257812 11.203125 14.257812 7.765625 C 14.257812 4.332031 12.003906 1.546875 8.007812 1.546875 Z M 8.007812 1.546875"/><path style="stroke:none;fill-rule:nonzero;fill:url(#linear1)" d="M 13.148438 7.027344 C 13.148438 5.660156 11.996094 4.550781 10.574219 4.550781 C 9.304688 4.550781 8.253906 5.429688 8.039062 6.589844 C 8.027344 6.589844 8.011719 6.585938 8 6.585938 L 7.980469 6.585938 C 7.761719 5.429688 6.710938 4.550781 5.445312 4.550781 C 4.023438 4.550781 2.867188 5.660156 2.867188 7.027344 C 2.867188 7.761719 3.203125 8.417969 3.734375 8.871094 C 3.589844 9.195312 3.511719 9.542969 3.511719 9.902344 C 3.511719 11.734375 5.519531 13.6875 8 13.6875 C 10.480469 13.6875 12.488281 11.734375 12.488281 9.902344 C 12.488281 9.546875 12.414062 9.203125 12.273438 8.882812 C 12.808594 8.429688 13.148438 7.765625 13.148438 7.027344 Z M 13.148438 7.027344"/><path style="stroke:none;fill-rule:nonzero;fill:#404040;fill-opacity:1" d="M 6.160156 7.375 C 6.160156 6.761719 5.71875 6.261719 5.175781 6.261719 C 4.632812 6.261719 4.191406 6.761719 4.191406 7.375 C 4.191406 7.992188 4.632812 8.488281 5.175781 8.488281 C 5.71875 8.488281 6.160156 7.992188 6.160156 7.375 Z M 6.160156 7.375"/><path style="stroke:none;fill-rule:nonzero;fill:#404040;fill-opacity:1" d="M 11.808594 7.375 C 11.808594 6.761719 11.367188 6.261719 10.824219 6.261719 C 10.28125 6.261719 9.839844 6.761719 9.839844 7.375 C 9.839844 7.992188 10.28125 8.488281 10.824219 8.488281 C 11.367188 8.488281 11.808594 7.992188 11.808594 7.375 Z M 11.808594 7.375"/><g clip-path="url(#clip1)" clip-rule="nonzero"><g clip-path="url(#clip2)" clip-rule="nonzero"><path style="fill-rule:nonzero;fill:#404040;fill-opacity:1;stroke-width:1;stroke-linecap:butt;stroke-linejoin:miter;stroke:#404040;stroke-opacity:1;stroke-miterlimit:10" d="M 64 81.3125 C 54.75 81.3125 46.1875 80.5625 39.03125 79.21875 C 37.25 78.875 35.6875 80.4375 36.0625 82.21875 C 38.4375 93.875 49.875 103.40625 63.96875 103.40625 C 79.40625 103.40625 89.78125 93.53125 91.9375 82.1875 C 92.28125 80.40625 90.71875 78.875 88.96875 79.21875 C 81.8125 80.53125 73.21875 81.3125 64 81.3125 Z M 64 81.3125" transform="matrix(0.125,0,0,0.125,0,0)"/></g></g><g clip-path="url(#clip3)" clip-rule="nonzero"><g clip-path="url(#clip4)" clip-rule="nonzero"><path style="stroke:none;fill-rule:nonzero;fill:#fff;fill-opacity:1" d="M 11.875 9.871094 L 11.875 8.75 L 4.125 8.75 L 4.125 9.871094 C 5.25 10.578125 6.613281 10.972656 8 10.972656 C 9.386719 10.972656 10.75 10.578125 11.875 9.871094 Z M 11.875 9.871094"/></g></g><g clip-path="url(#clip5)" clip-rule="nonzero"><g clip-path="url(#clip6)" clip-rule="nonzero"><path style="stroke:none;fill-rule:nonzero;fill:#ff4f4f;fill-opacity:1" d="M 8 11.917969 C 7.136719 11.917969 6.382812 12.390625 5.980469 13.089844 C 6.5 13.375 7.214844 13.550781 8 13.550781 C 8.785156 13.550781 9.5 13.375 10.019531 13.089844 C 9.617188 12.390625 8.863281 11.917969 8 11.917969 Z M 8 11.917969"/></g></g><path style="stroke:none;fill-rule:nonzero;fill:#404040;fill-opacity:1" d="M 7.648438 8.765625 C 7.648438 8.496094 7.511719 8.277344 7.34375 8.277344 C 7.175781 8.277344 7.039062 8.496094 7.039062 8.765625 C 7.039062 9.035156 7.175781 9.253906 7.34375 9.253906 C 7.511719 9.253906 7.648438 9.035156 7.648438 8.765625 Z M 7.648438 8.765625"/><path style="stroke:none;fill-rule:nonzero;fill:#404040;fill-opacity:1" d="M 8.960938 8.765625 C 8.960938 8.496094 8.824219 8.277344 8.65625 8.277344 C 8.488281 8.277344 8.351562 8.496094 8.351562 8.765625 C 8.351562 9.035156 8.488281 9.253906 8.65625 9.253906 C 8.824219 9.253906 8.960938 9.035156 8.960938 8.765625 Z M 8.960938 8.765625"/></g></svg>