<svg xmlns="http://www.w3.org/2000/svg" xmlns:xlink="http://www.w3.org/1999/xlink" width="16pt" height="16pt" version="1.1" viewBox="0 0 16 16"><defs><linearGradient id="linear0" x1="54.15" x2="92.65" y1="53.435" y2="88.435" gradientTransform="matrix(0.125,0,0,0.125,0,0)" gradientUnits="userSpaceOnUse"><stop offset="0" style="stop-color:#f4c676;stop-opacity:1"/><stop offset=".132" style="stop-color:#eebd68;stop-opacity:1"/><stop offset=".381" style="stop-color:#dfa544;stop-opacity:1"/><stop offset=".717" style="stop-color:#c67e0a;stop-opacity:1"/><stop offset=".739" style="stop-color:#c47b06;stop-opacity:1"/><stop offset=".985" style="stop-color:#e08b04;stop-opacity:1"/></linearGradient><filter id="alpha" width="100%" height="100%" x="0%" y="0%" filterUnits="objectBoundingBox"><feColorMatrix in="SourceGraphic" type="matrix" values="0 0 0 0 1 0 0 0 0 1 0 0 0 0 1 0 0 0 1 0"/></filter><mask id="mask0"><g filter="url(#alpha)"><rect width="16" height="16" x="0" y="0" style="fill:#000;fill-opacity:.2;stroke:none"/></g></mask><clipPath id="clip1"><rect width="16" height="16" x="0" y="0"/></clipPath><g id="surface5" clip-path="url(#clip1)"><path style="stroke:none;fill-rule:nonzero;fill:#424242;fill-opacity:1" d="M 13.285156 1.394531 C 13.316406 1.394531 13.347656 1.394531 13.378906 1.398438 C 13.449219 1.402344 13.484375 1.414062 13.503906 1.421875 C 13.542969 1.441406 13.582031 1.496094 13.671875 1.625 L 13.714844 1.695312 C 13.894531 1.957031 14.121094 2.308594 14.300781 2.691406 C 14.640625 3.414062 14.976562 4.527344 14.640625 5.714844 C 14.484375 6.269531 14.222656 7.207031 13.769531 7.691406 C 12.292969 9.28125 11.164062 9.734375 10.335938 10.0625 C 9.867188 10.25 9.496094 10.398438 9.230469 10.699219 C 8.921875 11.042969 8.78125 11.441406 8.648438 11.828125 C 8.628906 11.890625 8.605469 11.953125 8.582031 12.015625 C 8.457031 12.359375 8.238281 12.707031 7.886719 13.113281 C 6.964844 14.175781 5.738281 14.832031 4.605469 14.867188 C 4.574219 14.867188 4.546875 14.867188 4.519531 14.867188 C 3.765625 14.867188 3.015625 14.578125 2.34375 14.035156 C 1.492188 13.34375 1.027344 12.417969 1.042969 11.425781 C 1.058594 10.160156 1.941406 8.832031 3.191406 8.199219 C 3.65625 7.960938 4.167969 7.839844 4.703125 7.714844 C 5.371094 7.554688 6.0625 7.390625 6.695312 6.992188 C 7.394531 6.558594 7.742188 5.707031 8.023438 5.023438 C 8.046875 4.96875 8.070312 4.914062 8.09375 4.859375 L 8.121094 4.792969 C 8.449219 4.007812 8.785156 3.195312 9.433594 2.699219 C 9.992188 2.273438 10.738281 2.0625 11.457031 1.863281 C 11.730469 1.789062 12.007812 1.707031 12.273438 1.621094 C 12.613281 1.511719 12.960938 1.394531 13.285156 1.394531 M 13.285156 1.019531 C 12.898438 1.019531 12.515625 1.144531 12.160156 1.265625 C 11.183594 1.589844 10.046875 1.761719 9.207031 2.402344 C 8.460938 2.972656 8.101562 3.871094 7.75 4.714844 C 7.46875 5.386719 7.148438 6.269531 6.5 6.675781 C 5.421875 7.347656 4.125 7.304688 3.023438 7.863281 C 1.734375 8.523438 0.6875 9.953125 0.667969 11.421875 C 0.652344 12.585938 1.21875 13.605469 2.109375 14.328125 C 2.796875 14.886719 3.628906 15.246094 4.519531 15.246094 C 4.550781 15.246094 4.582031 15.246094 4.613281 15.242188 C 5.984375 15.203125 7.296875 14.371094 8.171875 13.359375 C 8.484375 12.996094 8.769531 12.597656 8.933594 12.144531 C 9.085938 11.726562 9.203125 11.289062 9.507812 10.949219 C 10.117188 10.269531 11.699219 10.464844 14.042969 7.949219 C 14.535156 7.421875 14.804688 6.515625 15 5.816406 C 15.308594 4.714844 15.117188 3.554688 14.640625 2.53125 C 14.464844 2.164062 14.253906 1.820312 14.023438 1.484375 C 13.894531 1.292969 13.820312 1.15625 13.660156 1.082031 C 13.59375 1.050781 13.511719 1.035156 13.402344 1.023438 C 13.363281 1.019531 13.324219 1.019531 13.285156 1.019531 Z M 13.285156 1.019531"/></g><mask id="mask1"><g filter="url(#alpha)"><rect width="16" height="16" x="0" y="0" style="fill:#000;fill-opacity:.560784;stroke:none"/></g></mask><clipPath id="clip2"><rect width="16" height="16" x="0" y="0"/></clipPath><g id="surface8" clip-path="url(#clip2)"><path style="stroke:none;fill-rule:nonzero;fill:#ffcf7a;fill-opacity:1" d="M 11.132812 3.605469 C 11.648438 4.011719 12.101562 3.046875 12.210938 2.683594 C 12.21875 2.660156 12.21875 2.640625 12.21875 2.621094 C 12.246094 2.574219 12.25 2.515625 12.21875 2.472656 C 12.128906 2.34375 11.984375 2.273438 11.828125 2.335938 C 11.792969 2.355469 11.757812 2.378906 11.730469 2.40625 C 11.394531 2.578125 10.671875 3.246094 11.132812 3.605469 Z M 11.132812 3.605469"/></g><mask id="mask2"><g filter="url(#alpha)"><rect width="16" height="16" x="0" y="0" style="fill:#000;fill-opacity:.560784;stroke:none"/></g></mask><clipPath id="clip3"><rect width="16" height="16" x="0" y="0"/></clipPath><g id="surface11" clip-path="url(#clip3)"><path style="stroke:none;fill-rule:nonzero;fill:#ffcf7a;fill-opacity:1" d="M 10.511719 5.035156 C 10.824219 5.160156 11.003906 4.839844 11.148438 4.621094 C 11.210938 4.527344 11.292969 4.410156 11.316406 4.300781 C 11.414062 4.253906 11.460938 4.09375 11.34375 4.007812 C 10.921875 3.699219 10.261719 3.890625 10.207031 4.453125 C 10.183594 4.679688 10.285156 4.945312 10.511719 5.035156 Z M 10.511719 5.035156"/></g><mask id="mask3"><g filter="url(#alpha)"><rect width="16" height="16" x="0" y="0" style="fill:#000;fill-opacity:.560784;stroke:none"/></g></mask><clipPath id="clip4"><rect width="16" height="16" x="0" y="0"/></clipPath><g id="surface14" clip-path="url(#clip4)"><path style="stroke:none;fill-rule:nonzero;fill:#ffcf7a;fill-opacity:1" d="M 9.550781 6.519531 C 9.746094 6.601562 9.957031 6.5 10.105469 6.375 C 10.265625 6.242188 10.507812 5.992188 10.480469 5.765625 C 10.476562 5.738281 10.46875 5.710938 10.460938 5.6875 C 10.457031 5.660156 10.445312 5.628906 10.417969 5.601562 C 10.046875 5.210938 9.441406 5.503906 9.324219 5.976562 C 9.273438 6.183594 9.335938 6.429688 9.550781 6.519531 Z M 9.550781 6.519531"/></g><mask id="mask4"><g filter="url(#alpha)"><rect width="16" height="16" x="0" y="0" style="fill:#000;fill-opacity:.560784;stroke:none"/></g></mask><clipPath id="clip5"><rect width="16" height="16" x="0" y="0"/></clipPath><g id="surface17" clip-path="url(#clip5)"><path style="stroke:none;fill-rule:nonzero;fill:#ffcf7a;fill-opacity:1" d="M 9.046875 7.730469 C 9.203125 7.648438 9.371094 7.511719 9.40625 7.328125 C 9.421875 7.242188 9.40625 7.15625 9.363281 7.082031 C 9.367188 6.917969 9.230469 6.773438 9.066406 6.753906 C 8.863281 6.730469 8.691406 6.882812 8.617188 7.0625 C 8.550781 7.226562 8.496094 7.492188 8.597656 7.65625 C 8.699219 7.816406 8.894531 7.8125 9.046875 7.730469 Z M 9.046875 7.730469"/></g><mask id="mask5"><g filter="url(#alpha)"><rect width="16" height="16" x="0" y="0" style="fill:#000;fill-opacity:.560784;stroke:none"/></g></mask><clipPath id="clip6"><rect width="16" height="16" x="0" y="0"/></clipPath><g id="surface20" clip-path="url(#clip6)"><path style="stroke:none;fill-rule:nonzero;fill:#ffcf7a;fill-opacity:1" d="M 7.699219 9.253906 C 8.003906 9.246094 8.164062 8.890625 8.179688 8.628906 C 8.1875 8.539062 8.164062 8.441406 8.101562 8.382812 C 7.980469 8.269531 7.78125 8.316406 7.652344 8.417969 C 7.40625 8.609375 7.183594 9.265625 7.699219 9.253906 Z M 7.699219 9.253906"/></g><mask id="mask6"><g filter="url(#alpha)"><rect width="16" height="16" x="0" y="0" style="fill:#000;fill-opacity:.560784;stroke:none"/></g></mask><clipPath id="clip7"><rect width="16" height="16" x="0" y="0"/></clipPath><g id="surface23" clip-path="url(#clip7)"><path style="stroke:none;fill-rule:nonzero;fill:#ffcf7a;fill-opacity:1" d="M 5.816406 10.355469 C 5.953125 10.347656 6.074219 10.269531 6.191406 10.203125 C 6.382812 10.097656 6.574219 9.988281 6.765625 9.878906 C 6.804688 9.855469 6.828125 9.820312 6.839844 9.785156 C 6.949219 9.757812 7.027344 9.625 6.925781 9.519531 C 6.707031 9.300781 6.40625 9.421875 6.140625 9.484375 C 5.871094 9.546875 5.433594 9.566406 5.382812 9.914062 C 5.347656 10.167969 5.570312 10.367188 5.816406 10.355469 Z M 5.816406 10.355469"/></g><mask id="mask7"><g filter="url(#alpha)"><rect width="16" height="16" x="0" y="0" style="fill:#000;fill-opacity:.560784;stroke:none"/></g></mask><clipPath id="clip8"><rect width="16" height="16" x="0" y="0"/></clipPath><g id="surface26" clip-path="url(#clip8)"><path style="stroke:none;fill-rule:nonzero;fill:#ffcf7a;fill-opacity:1" d="M 4.066406 10.398438 C 4.234375 10.597656 4.492188 10.859375 4.769531 10.875 C 4.980469 10.890625 5.1875 10.722656 5.175781 10.519531 C 5.214844 10.464844 5.222656 10.390625 5.15625 10.328125 C 4.859375 10.070312 4.476562 10.003906 4.109375 10.144531 C 4.003906 10.183594 4.003906 10.328125 4.066406 10.398438 Z M 4.066406 10.398438"/></g><mask id="mask8"><g filter="url(#alpha)"><rect width="16" height="16" x="0" y="0" style="fill:#000;fill-opacity:.560784;stroke:none"/></g></mask><clipPath id="clip9"><rect width="16" height="16" x="0" y="0"/></clipPath><g id="surface29" clip-path="url(#clip9)"><path style="stroke:none;fill-rule:nonzero;fill:#ffcf7a;fill-opacity:1" d="M 3.121094 11.628906 C 3.226562 11.6875 3.339844 11.730469 3.429688 11.746094 C 3.707031 11.792969 4.125 11.671875 4.097656 11.324219 C 4.09375 11.253906 4.070312 11.195312 4.03125 11.148438 C 3.964844 10.914062 3.847656 10.6875 3.59375 10.617188 C 3.34375 10.546875 3 10.722656 2.839844 10.90625 C 2.550781 11.234375 2.792969 11.511719 3.121094 11.628906 Z M 3.121094 11.628906"/></g><mask id="mask9"><g filter="url(#alpha)"><rect width="16" height="16" x="0" y="0" style="fill:#000;fill-opacity:.560784;stroke:none"/></g></mask><clipPath id="clip10"><rect width="16" height="16" x="0" y="0"/></clipPath><g id="surface32" clip-path="url(#clip10)"><path style="stroke:none;fill-rule:nonzero;fill:#ffcf7a;fill-opacity:1" d="M 2.179688 12.324219 C 2.328125 12.300781 2.460938 12.214844 2.515625 12.082031 C 2.542969 12.058594 2.5625 12.027344 2.570312 11.984375 C 2.601562 11.792969 2.472656 11.605469 2.296875 11.53125 C 2.101562 11.453125 1.875 11.519531 1.71875 11.652344 C 1.570312 11.777344 1.472656 11.996094 1.601562 12.171875 C 1.722656 12.332031 1.996094 12.351562 2.179688 12.324219 Z M 2.179688 12.324219"/></g></defs><g id="surface1"><path style="stroke:none;fill-rule:nonzero;fill:url(#linear0)" d="M 13.664062 1.082031 C 13.820312 1.15625 13.894531 1.292969 14.027344 1.484375 C 14.257812 1.820312 14.46875 2.164062 14.640625 2.53125 C 15.121094 3.554688 15.3125 4.714844 15.003906 5.816406 C 14.808594 6.515625 14.539062 7.417969 14.046875 7.949219 C 11.703125 10.464844 10.117188 10.269531 9.507812 10.949219 C 9.203125 11.289062 9.085938 11.722656 8.9375 12.140625 C 8.769531 12.597656 8.484375 12.992188 8.171875 13.359375 C 7.296875 14.371094 5.984375 15.203125 4.617188 15.242188 C 3.691406 15.269531 2.820312 14.90625 2.109375 14.328125 C 1.222656 13.605469 0.65625 12.585938 0.671875 11.421875 C 0.6875 9.949219 1.734375 8.519531 3.023438 7.867188 C 4.125 7.308594 5.421875 7.351562 6.5 6.675781 C 7.148438 6.273438 7.46875 5.386719 7.75 4.714844 C 8.101562 3.871094 8.460938 2.972656 9.207031 2.402344 C 10.046875 1.761719 11.183594 1.589844 12.160156 1.265625 C 12.554688 1.132812 12.980469 0.992188 13.40625 1.023438 C 13.511719 1.03125 13.59375 1.050781 13.664062 1.082031 Z M 13.664062 1.082031"/><use mask="url(#mask0)" xlink:href="#surface5"/><path style="stroke:none;fill-rule:nonzero;fill:#a37c57;fill-opacity:1" d="M 13.984375 1.363281 C 13.984375 1.363281 14 1.4375 14.027344 1.578125 C 14.039062 1.648438 14.0625 1.734375 14.070312 1.839844 C 14.082031 1.941406 14.097656 2.0625 14.109375 2.195312 C 14.117188 2.328125 14.121094 2.476562 14.128906 2.636719 C 14.125 2.71875 14.121094 2.800781 14.117188 2.890625 C 14.117188 2.976562 14.113281 3.066406 14.101562 3.160156 C 14.078125 3.53125 13.996094 3.949219 13.867188 4.390625 C 13.742188 4.832031 13.546875 5.296875 13.285156 5.753906 C 13.023438 6.214844 12.691406 6.667969 12.277344 7.074219 C 12.226562 7.125 12.175781 7.175781 12.125 7.226562 C 12.070312 7.273438 12.015625 7.320312 11.957031 7.367188 C 11.902344 7.417969 11.847656 7.464844 11.789062 7.511719 C 11.730469 7.558594 11.671875 7.601562 11.613281 7.644531 C 11.375 7.824219 11.125 7.988281 10.867188 8.148438 C 10.355469 8.464844 9.824219 8.765625 9.335938 9.125 C 8.84375 9.480469 8.414062 9.910156 8.007812 10.351562 C 7.601562 10.792969 7.207031 11.238281 6.785156 11.628906 C 6.675781 11.726562 6.570312 11.820312 6.457031 11.910156 C 6.34375 12 6.234375 12.078125 6.125 12.164062 C 6.007812 12.238281 5.894531 12.316406 5.777344 12.386719 C 5.65625 12.453125 5.546875 12.523438 5.425781 12.582031 C 4.953125 12.824219 4.480469 12.988281 4.03125 13.089844 C 3.582031 13.195312 3.15625 13.234375 2.785156 13.234375 C 2.410156 13.226562 2.085938 13.199219 1.824219 13.144531 C 1.691406 13.128906 1.574219 13.09375 1.472656 13.070312 C 1.371094 13.050781 1.289062 13.023438 1.21875 13 C 1.082031 12.957031 1.011719 12.9375 1.011719 12.9375 C 1.011719 12.9375 1.082031 12.957031 1.222656 12.996094 C 1.289062 13.015625 1.375 13.039062 1.476562 13.058594 C 1.578125 13.078125 1.695312 13.109375 1.828125 13.125 C 2.089844 13.167969 2.414062 13.191406 2.785156 13.1875 C 3.152344 13.175781 3.570312 13.128906 4.015625 13.023438 C 4.457031 12.914062 4.921875 12.746094 5.382812 12.5 C 5.5 12.445312 5.609375 12.367188 5.726562 12.304688 C 5.839844 12.234375 5.949219 12.15625 6.0625 12.078125 C 6.171875 11.996094 6.285156 11.914062 6.390625 11.828125 C 6.5 11.738281 6.605469 11.644531 6.710938 11.550781 C 7.128906 11.164062 7.515625 10.71875 7.921875 10.273438 C 8.328125 9.828125 8.761719 9.386719 9.261719 9.023438 C 9.761719 8.664062 10.296875 8.363281 10.804688 8.050781 C 11.0625 7.890625 11.3125 7.730469 11.546875 7.558594 C 11.605469 7.515625 11.664062 7.46875 11.722656 7.425781 C 11.777344 7.382812 11.832031 7.332031 11.886719 7.285156 L 12.050781 7.144531 C 12.101562 7.097656 12.152344 7.046875 12.203125 6.996094 C 12.605469 6.597656 12.941406 6.160156 13.207031 5.710938 C 13.46875 5.261719 13.671875 4.804688 13.800781 4.371094 C 13.84375 4.261719 13.863281 4.152344 13.890625 4.046875 C 13.921875 3.945312 13.949219 3.839844 13.964844 3.738281 C 13.984375 3.636719 14.007812 3.535156 14.023438 3.441406 C 14.035156 3.34375 14.046875 3.246094 14.058594 3.15625 C 14.074219 3.0625 14.078125 2.972656 14.082031 2.886719 C 14.085938 2.800781 14.09375 2.71875 14.097656 2.636719 C 14.09375 2.476562 14.09375 2.328125 14.09375 2.195312 C 14.082031 2.0625 14.070312 1.945312 14.0625 1.839844 C 14.054688 1.738281 14.03125 1.652344 14.023438 1.578125 C 13.996094 1.4375 13.984375 1.363281 13.984375 1.363281 Z M 13.984375 1.363281"/><path style="stroke:none;fill-rule:nonzero;fill:#a67e58;fill-opacity:1" d="M 8.613281 12.839844 C 8.613281 12.839844 8.589844 12.859375 8.546875 12.898438 C 8.503906 12.9375 8.441406 13 8.351562 13.0625 C 8.265625 13.132812 8.152344 13.210938 8.023438 13.296875 C 7.957031 13.335938 7.890625 13.378906 7.816406 13.425781 C 7.738281 13.46875 7.660156 13.511719 7.574219 13.554688 C 7.488281 13.597656 7.398438 13.640625 7.308594 13.6875 C 7.210938 13.726562 7.117188 13.769531 7.015625 13.808594 C 6.808594 13.890625 6.59375 13.96875 6.363281 14.03125 C 6.132812 14.097656 5.894531 14.160156 5.644531 14.203125 C 5.398438 14.25 5.144531 14.28125 4.890625 14.300781 C 4.828125 14.304688 4.765625 14.3125 4.699219 14.3125 L 4.507812 14.316406 C 4.378906 14.3125 4.25 14.308594 4.125 14.296875 C 3.875 14.28125 3.628906 14.242188 3.394531 14.191406 C 3.160156 14.140625 2.9375 14.074219 2.730469 14.003906 C 2.523438 13.933594 2.332031 13.851562 2.160156 13.769531 C 1.984375 13.691406 1.832031 13.605469 1.703125 13.527344 C 1.570312 13.449219 1.453125 13.375 1.363281 13.3125 C 1.273438 13.25 1.207031 13.195312 1.160156 13.160156 C 1.113281 13.121094 1.085938 13.101562 1.085938 13.101562 C 1.085938 13.101562 1.113281 13.117188 1.164062 13.148438 C 1.214844 13.179688 1.289062 13.226562 1.386719 13.28125 C 1.574219 13.390625 1.855469 13.535156 2.203125 13.671875 C 2.378906 13.742188 2.570312 13.808594 2.773438 13.871094 C 2.980469 13.929688 3.199219 13.984375 3.429688 14.027344 C 3.65625 14.074219 3.894531 14.101562 4.140625 14.117188 C 4.261719 14.128906 4.382812 14.128906 4.507812 14.132812 L 4.695312 14.125 C 4.753906 14.125 4.816406 14.117188 4.878906 14.113281 C 5.125 14.097656 5.375 14.070312 5.613281 14.023438 C 5.855469 13.984375 6.09375 13.933594 6.320312 13.875 C 6.546875 13.816406 6.761719 13.75 6.964844 13.679688 C 7.167969 13.609375 7.355469 13.535156 7.527344 13.460938 C 7.613281 13.421875 7.695312 13.382812 7.773438 13.347656 C 7.847656 13.308594 7.921875 13.273438 7.988281 13.238281 C 8.121094 13.164062 8.238281 13.097656 8.328125 13.035156 C 8.421875 12.976562 8.492188 12.925781 8.542969 12.890625 C 8.589844 12.859375 8.613281 12.839844 8.613281 12.839844 Z M 8.613281 12.839844"/><path style="stroke:none;fill-rule:nonzero;fill:#a37c57;fill-opacity:1" d="M 13.496094 1.046875 C 13.496094 1.046875 13.390625 1.308594 13.207031 1.765625 C 13.015625 2.226562 12.75 2.882812 12.390625 3.652344 C 12.03125 4.421875 11.589844 5.308594 11.019531 6.210938 C 10.734375 6.660156 10.421875 7.113281 10.074219 7.550781 C 9.722656 7.984375 9.351562 8.414062 8.941406 8.8125 C 8.542969 9.214844 8.109375 9.582031 7.671875 9.933594 C 7.230469 10.273438 6.785156 10.597656 6.328125 10.875 C 6.214844 10.945312 6.105469 11.015625 5.992188 11.082031 C 5.878906 11.144531 5.765625 11.207031 5.652344 11.269531 C 5.429688 11.398438 5.203125 11.503906 4.984375 11.609375 C 4.542969 11.824219 4.117188 11.996094 3.714844 12.136719 C 3.515625 12.214844 3.320312 12.265625 3.132812 12.324219 C 3.042969 12.351562 2.953125 12.382812 2.863281 12.40625 C 2.773438 12.425781 2.6875 12.445312 2.601562 12.464844 C 2.265625 12.554688 1.96875 12.597656 1.726562 12.640625 C 1.605469 12.667969 1.492188 12.671875 1.398438 12.683594 C 1.300781 12.695312 1.222656 12.703125 1.15625 12.710938 C 1.023438 12.722656 0.953125 12.730469 0.953125 12.730469 C 0.953125 12.730469 1.023438 12.722656 1.15625 12.703125 C 1.285156 12.683594 1.480469 12.667969 1.722656 12.617188 C 1.964844 12.570312 2.261719 12.515625 2.589844 12.421875 C 2.675781 12.398438 2.761719 12.375 2.847656 12.355469 C 2.9375 12.328125 3.023438 12.296875 3.117188 12.265625 C 3.300781 12.207031 3.496094 12.152344 3.691406 12.070312 C 4.089844 11.925781 4.511719 11.746094 4.945312 11.527344 C 5.160156 11.421875 5.386719 11.308594 5.605469 11.179688 C 5.714844 11.117188 5.828125 11.054688 5.9375 10.988281 C 6.046875 10.921875 6.160156 10.851562 6.269531 10.78125 C 6.722656 10.503906 7.160156 10.179688 7.601562 9.839844 C 8.03125 9.488281 8.460938 9.125 8.855469 8.722656 C 9.261719 8.332031 9.628906 7.90625 9.984375 7.476562 C 10.332031 7.046875 10.644531 6.597656 10.929688 6.152344 C 11.5 5.261719 11.960938 4.382812 12.328125 3.621094 C 12.699219 2.855469 12.988281 2.210938 13.1875 1.757812 C 13.382812 1.304688 13.496094 1.046875 13.496094 1.046875 Z M 13.496094 1.046875"/><path style="stroke:none;fill-rule:nonzero;fill:#a37c57;fill-opacity:1" d="M 13.1875 1.046875 C 13.1875 1.046875 13.128906 1.082031 13.019531 1.148438 C 12.910156 1.210938 12.753906 1.316406 12.554688 1.445312 C 12.457031 1.515625 12.351562 1.59375 12.234375 1.675781 C 12.121094 1.765625 11.996094 1.855469 11.871094 1.960938 C 11.613281 2.171875 11.339844 2.425781 11.054688 2.714844 C 10.492188 3.300781 9.902344 4.058594 9.433594 4.957031 C 9.316406 5.183594 9.207031 5.417969 9.105469 5.660156 C 9.007812 5.902344 8.914062 6.148438 8.816406 6.398438 C 8.625 6.898438 8.40625 7.414062 8.0625 7.851562 C 7.976562 7.960938 7.882812 8.0625 7.777344 8.160156 C 7.726562 8.203125 7.675781 8.25 7.625 8.292969 L 7.457031 8.421875 C 7.230469 8.578125 6.984375 8.703125 6.730469 8.804688 C 6.230469 9.011719 5.710938 9.132812 5.21875 9.265625 C 4.726562 9.394531 4.25 9.523438 3.839844 9.734375 C 3.421875 9.941406 3.054688 10.1875 2.734375 10.4375 C 2.414062 10.6875 2.136719 10.9375 1.902344 11.171875 C 1.664062 11.402344 1.472656 11.617188 1.320312 11.800781 C 1.164062 11.980469 1.050781 12.128906 0.972656 12.230469 C 0.894531 12.332031 0.855469 12.386719 0.855469 12.386719 C 0.855469 12.386719 0.894531 12.332031 0.964844 12.226562 C 1.039062 12.121094 1.148438 11.96875 1.296875 11.785156 C 1.449219 11.597656 1.636719 11.375 1.867188 11.136719 C 2.097656 10.898438 2.367188 10.636719 2.6875 10.382812 C 3.007812 10.125 3.375 9.871094 3.796875 9.652344 C 4.21875 9.429688 4.695312 9.292969 5.191406 9.160156 C 5.683594 9.023438 6.195312 8.898438 6.683594 8.695312 C 6.929688 8.59375 7.167969 8.472656 7.386719 8.320312 L 7.542969 8.203125 C 7.59375 8.160156 7.644531 8.109375 7.695312 8.066406 C 7.789062 7.980469 7.878906 7.875 7.964844 7.773438 C 8.296875 7.355469 8.511719 6.851562 8.707031 6.355469 C 8.804688 6.109375 8.898438 5.859375 9 5.613281 C 9.105469 5.371094 9.214844 5.136719 9.335938 4.90625 C 9.816406 3.996094 10.429688 3.25 11.003906 2.667969 C 11.296875 2.378906 11.578125 2.128906 11.839844 1.925781 C 11.96875 1.820312 12.097656 1.730469 12.210938 1.644531 C 12.332031 1.5625 12.441406 1.488281 12.539062 1.421875 C 12.742188 1.296875 12.902344 1.199219 13.015625 1.140625 C 13.128906 1.078125 13.1875 1.046875 13.1875 1.046875 Z M 13.1875 1.046875"/><path style="stroke:none;fill-rule:nonzero;fill:#ba7404;fill-opacity:1" d="M 14.109375 4.835938 C 14.144531 4.871094 14.203125 4.890625 14.253906 4.882812 C 14.296875 4.902344 14.34375 4.90625 14.390625 4.878906 L 14.480469 4.828125 C 14.554688 4.785156 14.570312 4.714844 14.554688 4.648438 C 14.582031 4.605469 14.605469 4.550781 14.613281 4.492188 C 14.632812 4.367188 14.578125 4.246094 14.476562 4.179688 L 14.4375 4.125 C 14.390625 4.066406 14.304688 4.070312 14.242188 4.09375 C 13.945312 4.214844 13.878906 4.617188 14.109375 4.835938 Z M 14.109375 4.835938"/><path style="stroke:none;fill-rule:nonzero;fill:#ba7404;fill-opacity:1" d="M 13.570312 6.21875 C 13.578125 6.234375 13.589844 6.25 13.601562 6.265625 C 13.601562 6.265625 13.605469 6.269531 13.609375 6.269531 C 13.628906 6.292969 13.648438 6.3125 13.675781 6.328125 C 13.6875 6.335938 13.699219 6.34375 13.710938 6.351562 C 13.722656 6.355469 13.734375 6.359375 13.746094 6.363281 C 13.765625 6.371094 13.789062 6.378906 13.8125 6.378906 C 13.816406 6.378906 13.820312 6.382812 13.828125 6.382812 C 13.988281 6.390625 14.109375 6.269531 14.175781 6.136719 C 14.234375 6.007812 14.28125 5.84375 14.253906 5.703125 C 14.226562 5.554688 14.113281 5.425781 13.960938 5.417969 C 13.640625 5.394531 13.480469 5.777344 13.507812 6.042969 C 13.511719 6.078125 13.523438 6.113281 13.535156 6.148438 C 13.539062 6.152344 13.535156 6.160156 13.539062 6.164062 C 13.546875 6.179688 13.554688 6.191406 13.5625 6.203125 C 13.5625 6.210938 13.566406 6.214844 13.570312 6.21875 Z M 13.570312 6.21875"/><path style="stroke:none;fill-rule:nonzero;fill:#ba7404;fill-opacity:1" d="M 12.816406 7.582031 C 13.035156 7.769531 13.335938 7.675781 13.429688 7.460938 C 13.492188 7.433594 13.542969 7.371094 13.535156 7.285156 C 13.511719 7.066406 13.472656 6.832031 13.292969 6.683594 C 13.164062 6.574219 12.96875 6.527344 12.808594 6.601562 C 12.441406 6.769531 12.566406 7.367188 12.816406 7.582031 Z M 12.816406 7.582031"/><path style="stroke:none;fill-rule:nonzero;fill:#ba7404;fill-opacity:1" d="M 12.445312 8.480469 C 12.472656 8.421875 12.484375 8.359375 12.480469 8.296875 C 12.558594 8.234375 12.589844 8.097656 12.484375 8.019531 C 12.261719 7.859375 11.984375 7.726562 11.703125 7.796875 C 11.484375 7.855469 11.28125 8.046875 11.265625 8.28125 C 11.226562 8.921875 12.21875 9 12.445312 8.480469 Z M 12.445312 8.480469"/><path style="stroke:none;fill-rule:nonzero;fill:#ba7404;fill-opacity:1" d="M 10.730469 9.894531 C 10.875 9.828125 11.007812 9.710938 11.078125 9.566406 C 11.140625 9.511719 11.195312 9.453125 11.230469 9.398438 C 11.253906 9.355469 11.257812 9.300781 11.242188 9.25 C 11.226562 9.039062 11.074219 8.851562 10.867188 8.78125 C 10.597656 8.691406 10.3125 8.828125 10.140625 9.042969 C 9.976562 9.242188 9.898438 9.558594 10.070312 9.78125 C 10.226562 9.988281 10.511719 10 10.730469 9.894531 Z M 10.730469 9.894531"/><path style="stroke:none;fill-rule:nonzero;fill:#ba7404;fill-opacity:1" d="M 9.074219 10.554688 C 9.183594 10.539062 9.277344 10.46875 9.335938 10.382812 C 9.367188 10.367188 9.394531 10.351562 9.421875 10.332031 C 9.523438 10.257812 9.574219 10.152344 9.578125 10.046875 C 9.640625 9.921875 9.597656 9.753906 9.476562 9.667969 C 9.214844 9.484375 8.894531 9.621094 8.6875 9.839844 C 8.554688 9.949219 8.445312 10.097656 8.484375 10.25 C 8.539062 10.460938 8.875 10.585938 9.074219 10.554688 Z M 9.074219 10.554688"/><path style="stroke:none;fill-rule:nonzero;fill:#ba7404;fill-opacity:1" d="M 7.585938 12.265625 C 7.808594 12.425781 8.101562 12.363281 8.261719 12.167969 C 8.347656 12.097656 8.40625 11.992188 8.402344 11.84375 C 8.402344 11.796875 8.394531 11.753906 8.382812 11.710938 C 8.359375 11.421875 8.078125 11.179688 7.773438 11.296875 C 7.675781 11.332031 7.601562 11.394531 7.546875 11.472656 C 7.3125 11.679688 7.316406 12.070312 7.585938 12.265625 Z M 7.585938 12.265625"/><path style="stroke:none;fill-rule:nonzero;fill:#ba7404;fill-opacity:1" d="M 6.160156 13.394531 C 6.425781 13.691406 6.738281 13.414062 6.851562 13.132812 C 6.886719 13.050781 6.894531 12.964844 6.882812 12.882812 C 6.914062 12.742188 6.84375 12.582031 6.710938 12.5 C 6.613281 12.4375 6.472656 12.382812 6.339844 12.382812 C 6.203125 12.335938 6.054688 12.359375 5.960938 12.480469 C 5.773438 12.726562 5.984375 13.199219 6.160156 13.394531 Z M 6.160156 13.394531"/><path style="stroke:none;fill-rule:nonzero;fill:#ba7404;fill-opacity:1" d="M 4.945312 13.925781 C 4.992188 13.953125 5.039062 13.949219 5.074219 13.933594 C 5.167969 13.953125 5.246094 13.929688 5.316406 13.882812 L 5.328125 13.875 C 5.328125 13.875 5.328125 13.871094 5.332031 13.871094 C 5.40625 13.820312 5.464844 13.746094 5.484375 13.65625 C 5.5 13.601562 5.496094 13.542969 5.480469 13.488281 C 5.464844 13.394531 5.410156 13.304688 5.300781 13.246094 C 5.121094 13.152344 4.875 13.214844 4.78125 13.40625 C 4.695312 13.589844 4.765625 13.828125 4.945312 13.925781 Z M 4.945312 13.925781"/><path style="stroke:none;fill-rule:nonzero;fill:#ba7404;fill-opacity:1" d="M 3.335938 13.84375 C 3.429688 13.957031 3.59375 13.972656 3.730469 13.949219 C 3.761719 13.941406 3.785156 13.933594 3.8125 13.921875 C 3.949219 13.898438 4.078125 13.835938 4.117188 13.6875 C 4.164062 13.523438 4.03125 13.378906 3.878906 13.347656 C 3.785156 13.328125 3.671875 13.332031 3.566406 13.359375 C 3.523438 13.363281 3.480469 13.371094 3.433594 13.394531 C 3.339844 13.441406 3.285156 13.535156 3.28125 13.632812 C 3.269531 13.703125 3.285156 13.78125 3.335938 13.84375 Z M 3.335938 13.84375"/><path style="stroke:none;fill-rule:nonzero;fill:#c97d04;fill-opacity:1" d="M 13.324219 2.609375 C 13.449219 2.648438 13.53125 2.542969 13.527344 2.4375 C 13.578125 2.382812 13.601562 2.292969 13.535156 2.21875 C 13.507812 2.1875 13.480469 2.15625 13.453125 2.128906 C 13.390625 2.054688 13.292969 2.070312 13.226562 2.121094 C 13.042969 2.253906 13.128906 2.546875 13.324219 2.609375 Z M 13.324219 2.609375"/><path style="stroke:none;fill-rule:nonzero;fill:#c97d04;fill-opacity:1" d="M 13.332031 3.953125 C 13.527344 3.824219 13.613281 3.347656 13.359375 3.25 C 13.320312 3.203125 13.265625 3.171875 13.195312 3.167969 C 13.019531 3.152344 12.894531 3.300781 12.871094 3.460938 C 12.851562 3.585938 12.867188 3.742188 12.925781 3.855469 C 13.011719 4.003906 13.191406 4.042969 13.332031 3.953125 Z M 13.332031 3.953125"/><path style="stroke:none;fill-rule:nonzero;fill:#c97d04;fill-opacity:1" d="M 12.660156 5.453125 C 12.851562 5.421875 12.96875 5.234375 13.042969 5.070312 C 13.117188 4.914062 13.125 4.726562 13.003906 4.585938 C 12.980469 4.484375 12.90625 4.394531 12.796875 4.359375 C 12.613281 4.304688 12.445312 4.410156 12.378906 4.578125 C 12.285156 4.835938 12.203125 5.523438 12.660156 5.453125 Z M 12.660156 5.453125"/><path style="stroke:none;fill-rule:nonzero;fill:#c97d04;fill-opacity:1" d="M 11.753906 6.5 C 12.160156 6.546875 12.566406 6.132812 12.421875 5.792969 C 12.386719 5.433594 11.859375 5.335938 11.546875 5.636719 C 11.230469 5.9375 11.328125 6.457031 11.753906 6.5 Z M 11.753906 6.5"/><path style="stroke:none;fill-rule:nonzero;fill:#c97d04;fill-opacity:1" d="M 11.035156 7.519531 C 11.195312 7.496094 11.425781 7.304688 11.511719 7.109375 C 11.546875 7.078125 11.570312 7.027344 11.554688 6.96875 C 11.546875 6.949219 11.542969 6.929688 11.535156 6.910156 C 11.53125 6.894531 11.523438 6.878906 11.515625 6.863281 C 11.367188 6.574219 10.960938 6.519531 10.734375 6.777344 C 10.488281 7.050781 10.601562 7.582031 11.035156 7.519531 Z M 11.035156 7.519531"/><path style="stroke:none;fill-rule:nonzero;fill:#c97d04;fill-opacity:1" d="M 6.230469 11.558594 C 6.335938 11.515625 6.417969 11.441406 6.484375 11.347656 C 6.589844 11.191406 6.378906 11.042969 6.25 11.136719 C 6.214844 11.136719 6.183594 11.148438 6.15625 11.179688 L 6.042969 11.296875 C 5.914062 11.433594 6.0625 11.628906 6.230469 11.558594 Z M 6.230469 11.558594"/><path style="stroke:none;fill-rule:nonzero;fill:#c97d04;fill-opacity:1" d="M 4.941406 12.234375 C 5.128906 12.414062 5.472656 12.324219 5.578125 12.101562 C 5.609375 12.089844 5.636719 12.070312 5.660156 12.027344 C 5.726562 11.902344 5.703125 11.761719 5.597656 11.664062 C 5.484375 11.554688 5.328125 11.554688 5.191406 11.609375 C 5.078125 11.652344 4.949219 11.730469 4.886719 11.835938 C 4.804688 11.964844 4.832031 12.132812 4.941406 12.234375 Z M 4.941406 12.234375"/><path style="stroke:none;fill-rule:nonzero;fill:#c97d04;fill-opacity:1" d="M 3.574219 12.800781 C 3.792969 12.976562 4.128906 12.839844 4.367188 12.671875 C 4.425781 12.640625 4.484375 12.59375 4.523438 12.539062 C 4.53125 12.535156 4.539062 12.527344 4.542969 12.519531 C 4.800781 12.25 4.167969 12.128906 4.011719 12.160156 C 3.78125 12.203125 3.265625 12.554688 3.574219 12.800781 Z M 3.574219 12.800781"/><use mask="url(#mask1)" xlink:href="#surface8"/><use mask="url(#mask2)" xlink:href="#surface11"/><use mask="url(#mask3)" xlink:href="#surface14"/><use mask="url(#mask4)" xlink:href="#surface17"/><use mask="url(#mask5)" xlink:href="#surface20"/><use mask="url(#mask6)" xlink:href="#surface23"/><use mask="url(#mask7)" xlink:href="#surface26"/><use mask="url(#mask8)" xlink:href="#surface29"/><use mask="url(#mask9)" xlink:href="#surface32"/><path style="stroke:none;fill-rule:nonzero;fill:#c97d04;fill-opacity:1" d="M 2.523438 13.097656 C 2.671875 13.089844 2.808594 13.015625 2.84375 12.859375 C 2.90625 12.5625 2.488281 12.421875 2.28125 12.582031 C 2.273438 12.585938 2.261719 12.589844 2.253906 12.59375 C 2.121094 12.664062 2.0625 12.828125 2.140625 12.957031 C 2.21875 13.089844 2.386719 13.109375 2.523438 13.097656 Z M 2.523438 13.097656"/><path style="stroke:none;fill-rule:nonzero;fill:#ffcf7a;fill-opacity:1" d="M 10.042969 3.125 C 10.199219 3.054688 10.300781 2.878906 10.238281 2.730469 C 10.234375 2.714844 10.238281 2.703125 10.234375 2.6875 C 10.21875 2.605469 10.125 2.539062 10.042969 2.5625 L 10.039062 2.5625 C 9.871094 2.515625 9.710938 2.632812 9.605469 2.78125 C 9.53125 2.835938 9.457031 2.90625 9.453125 3.003906 C 9.441406 3.320312 9.878906 3.199219 10.042969 3.125 Z M 10.042969 3.125"/><path style="stroke:none;fill-rule:nonzero;fill:#ffcf7a;fill-opacity:1" d="M 8.996094 4.875 C 9.214844 4.875 9.433594 4.699219 9.519531 4.496094 C 9.609375 4.351562 9.636719 4.15625 9.53125 4.015625 C 9.488281 3.957031 9.425781 3.90625 9.363281 3.882812 C 9.359375 3.878906 9.359375 3.871094 9.359375 3.871094 C 9.234375 3.71875 9.011719 3.738281 8.875 3.859375 C 8.730469 3.988281 8.609375 4.265625 8.625 4.460938 C 8.640625 4.664062 8.792969 4.875 8.996094 4.875 Z M 8.996094 4.875"/><path style="stroke:none;fill-rule:nonzero;fill:#ffcf7a;fill-opacity:1" d="M 8.273438 6.351562 C 8.386719 6.378906 8.511719 6.355469 8.597656 6.277344 C 8.835938 6.070312 8.839844 5.191406 8.367188 5.316406 C 8.003906 5.414062 7.828125 6.050781 8.152344 6.292969 C 8.1875 6.320312 8.230469 6.339844 8.273438 6.351562 Z M 8.273438 6.351562"/><path style="stroke:none;fill-rule:nonzero;fill:#ffcf7a;fill-opacity:1" d="M 7.105469 7.878906 C 7.324219 7.890625 7.578125 7.695312 7.695312 7.519531 C 7.796875 7.371094 7.804688 7.144531 7.671875 7.015625 C 7.605469 6.824219 7.398438 6.722656 7.199219 6.78125 C 6.945312 6.855469 6.847656 7.121094 6.8125 7.359375 C 6.78125 7.589844 6.820312 7.859375 7.105469 7.878906 Z M 7.105469 7.878906"/><path style="stroke:none;fill-rule:nonzero;fill:#ffcf7a;fill-opacity:1" d="M 5.125 8.34375 C 5.128906 8.347656 5.128906 8.355469 5.132812 8.359375 C 5.164062 8.421875 5.21875 8.460938 5.277344 8.480469 C 5.355469 8.589844 5.527344 8.597656 5.640625 8.527344 C 5.769531 8.445312 5.828125 8.308594 5.816406 8.175781 C 5.816406 8.171875 5.816406 8.167969 5.816406 8.164062 C 5.832031 7.996094 5.703125 7.867188 5.542969 7.84375 C 5.449219 7.828125 5.363281 7.859375 5.292969 7.90625 C 5.21875 7.945312 5.160156 8.003906 5.125 8.074219 C 5.109375 8.09375 5.097656 8.109375 5.085938 8.128906 C 5.042969 8.195312 5.0625 8.296875 5.125 8.34375 Z M 5.125 8.34375"/><path style="stroke:none;fill-rule:nonzero;fill:#ffcf7a;fill-opacity:1" d="M 4.355469 9.222656 C 4.386719 9.21875 4.417969 9.207031 4.445312 9.195312 C 4.609375 9.128906 4.800781 8.84375 4.707031 8.660156 C 4.636719 8.519531 4.394531 8.519531 4.261719 8.515625 C 4.015625 8.515625 3.449219 8.601562 3.644531 8.976562 C 3.691406 9.070312 3.789062 9.125 3.886719 9.164062 C 4.035156 9.222656 4.203125 9.257812 4.355469 9.222656 Z M 4.355469 9.222656"/><path style="stroke:none;fill-rule:nonzero;fill:#ffcf7a;fill-opacity:1" d="M 2.75 10.144531 C 2.769531 10.140625 2.792969 10.132812 2.8125 10.117188 C 2.816406 10.113281 2.824219 10.109375 2.828125 10.105469 C 2.855469 10.082031 2.871094 10.058594 2.878906 10.035156 C 3.027344 9.84375 3.171875 9.65625 3.320312 9.464844 C 3.382812 9.386719 3.34375 9.300781 3.273438 9.257812 C 3.242188 9.207031 3.1875 9.175781 3.113281 9.191406 C 2.742188 9.269531 2.460938 9.621094 2.484375 10.007812 C 2.492188 10.132812 2.65625 10.234375 2.75 10.144531 Z M 2.75 10.144531"/></g></svg>