<svg xmlns="http://www.w3.org/2000/svg" xmlns:xlink="http://www.w3.org/1999/xlink" width="16pt" height="16pt" version="1.1" viewBox="0 0 16 16"><defs><linearGradient id="linear0" x1="64" x2="64" y1="28.991" y2="110.68" gradientTransform="matrix(0.125,0,0,0.125,0,0)" gradientUnits="userSpaceOnUse"><stop offset=".5" style="stop-color:#fee133;stop-opacity:1"/><stop offset=".612" style="stop-color:#fede32;stop-opacity:1"/><stop offset=".708" style="stop-color:#fcd32f;stop-opacity:1"/><stop offset=".797" style="stop-color:#fac12b;stop-opacity:1"/><stop offset=".883" style="stop-color:#f7a924;stop-opacity:1"/><stop offset=".9" style="stop-color:#f6a323;stop-opacity:1"/></linearGradient><filter id="alpha" width="100%" height="100%" x="0%" y="0%" filterUnits="objectBoundingBox"><feColorMatrix in="SourceGraphic" type="matrix" values="0 0 0 0 1 0 0 0 0 1 0 0 0 0 1 0 0 0 1 0"/></filter><mask id="mask0"><g filter="url(#alpha)"><rect width="16" height="16" x="0" y="0" style="fill:#000;fill-opacity:.8;stroke:none"/></g></mask><radialGradient id="radial0" cx="35.994" cy="68.577" r="19.444" fx="35.994" fy="68.577" gradientTransform="matrix(0.122388,0,0,0.109625,-0.18635,1.43)" gradientUnits="userSpaceOnUse"><stop offset="0" style="stop-color:#ed7770;stop-opacity:1"/><stop offset=".9" style="stop-color:#ed7770;stop-opacity:0"/></radialGradient><clipPath id="clip1"><rect width="16" height="16"/></clipPath><g id="surface6" clip-path="url(#clip1)"><path style="stroke:none;fill-rule:nonzero;fill:url(#radial0)" d="M 6.40625 8.949219 C 6.40625 7.808594 5.425781 6.886719 4.21875 6.886719 C 3.011719 6.886719 2.03125 7.808594 2.03125 8.949219 C 2.03125 10.085938 3.011719 11.011719 4.21875 11.011719 C 5.425781 11.011719 6.40625 10.085938 6.40625 8.949219 Z M 6.40625 8.949219"/></g><mask id="mask1"><g filter="url(#alpha)"><rect width="16" height="16" x="0" y="0" style="fill:#000;fill-opacity:.8;stroke:none"/></g></mask><radialGradient id="radial1" cx="97.787" cy="68.577" r="19.444" fx="97.787" fy="68.577" gradientTransform="matrix(0.122388,0,0,0.109625,-0.18635,1.43)" gradientUnits="userSpaceOnUse"><stop offset="0" style="stop-color:#ed7770;stop-opacity:1"/><stop offset=".9" style="stop-color:#ed7770;stop-opacity:0"/></radialGradient><clipPath id="clip2"><rect width="16" height="16"/></clipPath><g id="surface9" clip-path="url(#clip2)"><path style="stroke:none;fill-rule:nonzero;fill:url(#radial1)" d="M 13.96875 8.949219 C 13.96875 7.808594 12.988281 6.886719 11.78125 6.886719 C 10.574219 6.886719 9.59375 7.808594 9.59375 8.949219 C 9.59375 10.085938 10.574219 11.011719 11.78125 11.011719 C 12.988281 11.011719 13.96875 10.085938 13.96875 8.949219 Z M 13.96875 8.949219"/></g><clipPath id="clip3"><path d="M 10 1 L 15 1 L 15 4 L 10 4 Z M 10 1"/></clipPath><clipPath id="clip4"><path d="M 14.339844 1.6875 L 10.15625 4.046875 C 10.15625 4.046875 10.355469 4.59375 11.453125 5.4375 C 12.546875 6.285156 13.164062 6.363281 13.164062 6.363281 Z M 14.339844 1.6875"/></clipPath><clipPath id="clip5"><path d="M 10 2 L 15 2 L 15 5 L 10 5 Z M 10 2"/></clipPath><clipPath id="clip6"><path d="M 14.339844 1.6875 L 10.15625 4.046875 C 10.15625 4.046875 10.355469 4.59375 11.453125 5.4375 C 12.546875 6.285156 13.164062 6.363281 13.164062 6.363281 Z M 14.339844 1.6875"/></clipPath><clipPath id="clip7"><path d="M 10 2 L 15 2 L 15 6 L 10 6 Z M 10 2"/></clipPath><clipPath id="clip8"><path d="M 14.339844 1.6875 L 10.15625 4.046875 C 10.15625 4.046875 10.355469 4.59375 11.453125 5.4375 C 12.546875 6.285156 13.164062 6.363281 13.164062 6.363281 Z M 14.339844 1.6875"/></clipPath><clipPath id="clip9"><path d="M 10 4 L 15 4 L 15 7 L 10 7 Z M 10 4"/></clipPath><clipPath id="clip10"><path d="M 14.339844 1.6875 L 10.15625 4.046875 C 10.15625 4.046875 10.355469 4.59375 11.453125 5.4375 C 12.546875 6.285156 13.164062 6.363281 13.164062 6.363281 Z M 14.339844 1.6875"/></clipPath><clipPath id="clip11"><path d="M 10 1 L 15 1 L 15 4 L 10 4 Z M 10 1"/></clipPath><clipPath id="clip12"><path d="M 14.339844 1.6875 L 10.15625 4.046875 C 10.15625 4.046875 10.355469 4.59375 11.453125 5.4375 C 12.546875 6.285156 13.164062 6.363281 13.164062 6.363281 Z M 14.339844 1.6875"/></clipPath><clipPath id="clip13"><path d="M 10 3 L 15 3 L 15 5 L 10 5 Z M 10 3"/></clipPath><clipPath id="clip14"><path d="M 14.339844 1.6875 L 10.15625 4.046875 C 10.15625 4.046875 10.355469 4.59375 11.453125 5.4375 C 12.546875 6.285156 13.164062 6.363281 13.164062 6.363281 Z M 14.339844 1.6875"/></clipPath><clipPath id="clip15"><path d="M 10 4 L 15 4 L 15 7 L 10 7 Z M 10 4"/></clipPath><clipPath id="clip16"><path d="M 14.339844 1.6875 L 10.15625 4.046875 C 10.15625 4.046875 10.355469 4.59375 11.453125 5.4375 C 12.546875 6.285156 13.164062 6.363281 13.164062 6.363281 Z M 14.339844 1.6875"/></clipPath><linearGradient id="linear1" x1="82.033" x2="119.38" y1="82.759" y2="82.759" gradientTransform="matrix(0.125,0,0,0.125,0,0)" gradientUnits="userSpaceOnUse"><stop offset="0" style="stop-color:#004054;stop-opacity:1"/><stop offset=".994" style="stop-color:#45a4ff;stop-opacity:1"/></linearGradient></defs><g id="surface1"><path style="stroke:none;fill-rule:nonzero;fill:url(#linear0)" d="M 8 15.25 C 4.757812 15.25 1.269531 13.21875 1.269531 8.765625 C 1.269531 4.308594 4.757812 2.277344 8 2.277344 C 9.796875 2.277344 11.460938 2.871094 12.683594 3.953125 C 14.023438 5.132812 14.734375 6.796875 14.734375 8.761719 C 14.734375 10.71875 14.023438 12.378906 12.683594 13.566406 C 11.457031 14.652344 9.792969 15.25 8 15.25 Z M 8 15.25"/><path style="stroke:none;fill-rule:nonzero;fill:#eb8f00;fill-opacity:1" d="M 8 2.527344 C 9.734375 2.527344 11.339844 3.097656 12.519531 4.140625 C 13.800781 5.269531 14.480469 6.871094 14.480469 8.765625 C 14.480469 10.648438 13.800781 12.242188 12.519531 13.378906 C 11.335938 14.421875 9.734375 15 8 15 C 6.257812 15 4.652344 14.433594 3.480469 13.398438 C 2.195312 12.269531 1.519531 10.667969 1.519531 8.761719 C 1.519531 6.847656 2.199219 5.242188 3.480469 4.117188 C 4.648438 3.089844 6.253906 2.527344 8 2.527344 M 8 2.027344 C 4.375 2.027344 1.019531 4.355469 1.019531 8.761719 C 1.019531 13.148438 4.375 15.5 8 15.5 C 11.625 15.5 14.980469 13.089844 14.980469 8.765625 C 14.980469 4.414062 11.625 2.027344 8 2.027344 Z M 8 2.027344"/><use mask="url(#mask0)" xlink:href="#surface6"/><use mask="url(#mask1)" xlink:href="#surface9"/><path style="stroke:none;fill-rule:nonzero;fill:#242424;fill-opacity:1" d="M 6.195312 8.171875 C 6.195312 8.171875 6.1875 8.164062 6.175781 8.148438 C 6.164062 8.132812 6.144531 8.109375 6.121094 8.078125 C 6.105469 8.058594 6.082031 8.035156 6.054688 8.007812 C 6.027344 7.980469 5.996094 7.949219 5.964844 7.914062 C 5.929688 7.882812 5.894531 7.851562 5.859375 7.824219 C 5.824219 7.796875 5.785156 7.773438 5.753906 7.757812 C 5.722656 7.738281 5.691406 7.734375 5.671875 7.726562 C 5.664062 7.722656 5.652344 7.722656 5.644531 7.722656 C 5.640625 7.722656 5.640625 7.71875 5.636719 7.722656 L 5.625 7.722656 C 5.640625 7.722656 5.59375 7.722656 5.660156 7.722656 L 5.589844 7.722656 C 5.574219 7.722656 5.585938 7.726562 5.585938 7.726562 C 5.589844 7.726562 5.59375 7.726562 5.59375 7.722656 C 5.605469 7.71875 5.59375 7.722656 5.59375 7.722656 C 5.589844 7.722656 5.582031 7.726562 5.578125 7.726562 C 5.558594 7.734375 5.527344 7.738281 5.496094 7.757812 C 5.464844 7.777344 5.425781 7.796875 5.390625 7.828125 C 5.359375 7.855469 5.320312 7.886719 5.289062 7.917969 C 5.222656 7.980469 5.164062 8.042969 5.125 8.089844 C 5.082031 8.136719 5.0625 8.164062 5.0625 8.164062 L 5.03125 8.199219 C 4.859375 8.398438 4.546875 8.433594 4.328125 8.273438 C 4.183594 8.167969 4.117188 8 4.144531 7.839844 C 4.144531 7.839844 4.15625 7.789062 4.179688 7.699219 C 4.207031 7.609375 4.25 7.484375 4.335938 7.335938 C 4.421875 7.1875 4.546875 7.015625 4.757812 6.855469 C 4.863281 6.777344 4.988281 6.703125 5.140625 6.648438 C 5.175781 6.636719 5.214844 6.621094 5.253906 6.613281 C 5.296875 6.601562 5.328125 6.589844 5.382812 6.582031 L 5.460938 6.574219 C 5.484375 6.570312 5.519531 6.566406 5.523438 6.566406 L 5.59375 6.5625 L 5.632812 6.558594 L 5.644531 6.558594 L 5.660156 6.5625 L 5.691406 6.5625 L 5.757812 6.566406 C 5.796875 6.570312 5.839844 6.578125 5.882812 6.582031 C 5.960938 6.597656 6.042969 6.621094 6.117188 6.648438 C 6.265625 6.699219 6.394531 6.777344 6.496094 6.855469 C 6.707031 7.015625 6.832031 7.1875 6.921875 7.335938 C 6.964844 7.410156 6.996094 7.480469 7.019531 7.539062 C 7.046875 7.597656 7.066406 7.660156 7.078125 7.707031 C 7.09375 7.753906 7.09375 7.777344 7.101562 7.796875 C 7.105469 7.816406 7.105469 7.828125 7.105469 7.828125 C 7.152344 8.082031 6.964844 8.320312 6.691406 8.359375 C 6.492188 8.390625 6.304688 8.3125 6.195312 8.171875 Z M 6.195312 8.171875"/><path style="stroke:none;fill-rule:nonzero;fill:#242424;fill-opacity:1" d="M 10.882812 8.171875 C 10.882812 8.171875 10.875 8.164062 10.863281 8.148438 C 10.851562 8.132812 10.832031 8.109375 10.808594 8.078125 C 10.792969 8.058594 10.769531 8.035156 10.742188 8.007812 C 10.714844 7.980469 10.683594 7.949219 10.652344 7.914062 C 10.617188 7.882812 10.582031 7.851562 10.546875 7.824219 C 10.511719 7.796875 10.472656 7.773438 10.441406 7.757812 C 10.410156 7.738281 10.378906 7.734375 10.359375 7.726562 C 10.351562 7.722656 10.339844 7.722656 10.332031 7.722656 C 10.328125 7.722656 10.328125 7.71875 10.324219 7.722656 L 10.3125 7.722656 C 10.328125 7.722656 10.277344 7.722656 10.347656 7.722656 L 10.277344 7.722656 C 10.261719 7.722656 10.269531 7.726562 10.273438 7.726562 C 10.277344 7.726562 10.277344 7.726562 10.28125 7.722656 C 10.292969 7.71875 10.28125 7.722656 10.277344 7.722656 C 10.273438 7.722656 10.269531 7.726562 10.265625 7.726562 C 10.246094 7.734375 10.214844 7.738281 10.183594 7.757812 C 10.152344 7.777344 10.113281 7.796875 10.078125 7.828125 C 10.042969 7.855469 10.007812 7.886719 9.972656 7.917969 C 9.910156 7.980469 9.851562 8.042969 9.8125 8.089844 C 9.769531 8.136719 9.746094 8.164062 9.746094 8.164062 L 9.71875 8.199219 C 9.546875 8.398438 9.234375 8.433594 9.015625 8.273438 C 8.867188 8.167969 8.804688 8 8.832031 7.839844 C 8.832031 7.839844 8.839844 7.789062 8.867188 7.699219 C 8.890625 7.609375 8.9375 7.484375 9.023438 7.335938 C 9.109375 7.1875 9.234375 7.015625 9.445312 6.855469 C 9.546875 6.777344 9.675781 6.703125 9.824219 6.648438 C 9.859375 6.636719 9.898438 6.621094 9.941406 6.613281 C 9.980469 6.601562 10.015625 6.589844 10.070312 6.582031 L 10.148438 6.574219 C 10.171875 6.570312 10.207031 6.566406 10.210938 6.566406 L 10.28125 6.5625 L 10.320312 6.558594 L 10.328125 6.558594 L 10.347656 6.5625 L 10.378906 6.5625 L 10.441406 6.566406 C 10.484375 6.570312 10.527344 6.578125 10.566406 6.582031 C 10.648438 6.597656 10.730469 6.621094 10.804688 6.648438 C 10.953125 6.699219 11.078125 6.777344 11.183594 6.855469 C 11.394531 7.015625 11.519531 7.1875 11.605469 7.335938 C 11.648438 7.410156 11.683594 7.480469 11.707031 7.539062 C 11.734375 7.597656 11.75 7.660156 11.765625 7.707031 C 11.78125 7.753906 11.78125 7.777344 11.785156 7.796875 C 11.789062 7.816406 11.792969 7.828125 11.792969 7.828125 C 11.835938 8.082031 11.652344 8.320312 11.378906 8.359375 C 11.179688 8.390625 10.988281 8.3125 10.882812 8.171875 Z M 10.882812 8.171875"/><path style="stroke:none;fill-rule:nonzero;fill:#ff4545;fill-opacity:1" d="M 13.132812 6.609375 C 13.105469 6.605469 12.4375 6.511719 11.300781 5.636719 C 10.175781 4.773438 9.945312 4.195312 9.921875 4.132812 L 9.851562 3.933594 L 14.726562 1.183594 L 13.351562 6.640625 Z M 13.132812 6.609375"/><path style="stroke:none;fill-rule:nonzero;fill:#c93737;fill-opacity:1" d="M 14.339844 1.6875 L 13.164062 6.363281 C 13.164062 6.363281 12.546875 6.285156 11.453125 5.4375 C 10.355469 4.59375 10.15625 4.046875 10.15625 4.046875 Z M 15.109375 0.679688 L 14.09375 1.253906 L 9.910156 3.609375 L 9.542969 3.816406 L 9.6875 4.214844 C 9.726562 4.328125 9.992188 4.945312 11.144531 5.832031 C 12.316406 6.734375 13.023438 6.847656 13.101562 6.855469 L 13.539062 6.914062 L 13.648438 6.480469 L 14.824219 1.804688 Z M 15.109375 0.679688"/><g clip-path="url(#clip3)" clip-rule="nonzero"><g clip-path="url(#clip4)" clip-rule="nonzero"><path style="stroke:none;fill-rule:nonzero;fill:#ff0;fill-opacity:1" d="M 9.726562 2.792969 L 9.894531 1.625 L 15.828125 2.472656 L 15.660156 3.640625 Z M 9.726562 2.792969"/><path style="stroke:none;fill-rule:nonzero;fill:#c93737;fill-opacity:1" d="M 10.105469 1.90625 L 15.542969 2.683594 L 15.449219 3.355469 L 10.011719 2.578125 Z M 9.683594 1.339844 L 9.609375 1.832031 L 9.515625 2.507812 L 9.445312 3.003906 L 9.9375 3.074219 L 15.375 3.851562 L 15.871094 3.921875 L 15.941406 3.425781 L 16.039062 2.753906 L 16.109375 2.257812 L 15.613281 2.1875 L 10.175781 1.410156 Z M 9.683594 1.339844"/></g></g><g clip-path="url(#clip5)" clip-rule="nonzero"><g clip-path="url(#clip6)" clip-rule="nonzero"><path style="stroke:none;fill-rule:nonzero;fill:#ff0;fill-opacity:1" d="M 9.648438 4.070312 L 9.816406 2.902344 L 15.75 3.753906 L 15.582031 4.921875 Z M 9.648438 4.070312"/></g></g><g clip-path="url(#clip7)" clip-rule="nonzero"><g clip-path="url(#clip8)" clip-rule="nonzero"><path style="stroke:none;fill-rule:nonzero;fill:#c93737;fill-opacity:1" d="M 10.027344 3.1875 L 15.464844 3.964844 L 15.371094 4.640625 L 9.933594 3.859375 Z M 9.605469 2.621094 L 9.53125 3.117188 L 9.4375 3.789062 L 9.363281 4.285156 L 9.859375 4.355469 L 15.296875 5.132812 L 15.792969 5.203125 L 15.863281 4.710938 L 15.960938 4.035156 L 16.03125 3.542969 L 15.535156 3.46875 L 10.097656 2.691406 Z M 9.605469 2.621094"/></g></g><g clip-path="url(#clip9)" clip-rule="nonzero"><g clip-path="url(#clip10)" clip-rule="nonzero"><path style="stroke:none;fill-rule:nonzero;fill:#ff0;fill-opacity:1" d="M 9.34375 5.484375 L 9.507812 4.316406 L 15.441406 5.167969 L 15.273438 6.335938 Z M 9.34375 5.484375"/><path style="stroke:none;fill-rule:nonzero;fill:#c93737;fill-opacity:1" d="M 9.722656 4.601562 L 15.160156 5.378906 L 15.0625 6.050781 L 9.625 5.273438 Z M 9.296875 4.035156 L 9.226562 4.527344 L 9.128906 5.203125 L 9.058594 5.699219 L 9.550781 5.769531 L 14.988281 6.546875 L 15.484375 6.617188 L 15.554688 6.121094 L 15.652344 5.449219 L 15.722656 4.953125 L 15.230469 4.882812 L 9.792969 4.105469 Z M 9.296875 4.035156"/></g></g><path style="stroke:none;fill-rule:nonzero;fill:#ff4545;fill-opacity:1" d="M 14.339844 1.6875 L 10.15625 4.046875 C 10.15625 4.046875 10.355469 4.59375 11.453125 5.4375 C 12.546875 6.285156 13.164062 6.363281 13.164062 6.363281 Z M 14.339844 1.6875"/><g clip-path="url(#clip11)" clip-rule="nonzero"><g clip-path="url(#clip12)" clip-rule="nonzero"><path style="stroke:none;fill-rule:nonzero;fill:#ff9c9c;fill-opacity:1" d="M 10.105469 1.902344 L 15.542969 2.683594 L 15.445312 3.355469 L 10.007812 2.578125 Z M 10.105469 1.902344"/></g></g><g clip-path="url(#clip13)" clip-rule="nonzero"><g clip-path="url(#clip14)" clip-rule="nonzero"><path style="stroke:none;fill-rule:nonzero;fill:#ff9c9c;fill-opacity:1" d="M 10.027344 3.1875 L 15.464844 3.964844 L 15.367188 4.636719 L 9.933594 3.859375 Z M 10.027344 3.1875"/></g></g><g clip-path="url(#clip15)" clip-rule="nonzero"><g clip-path="url(#clip16)" clip-rule="nonzero"><path style="stroke:none;fill-rule:nonzero;fill:#ff9c9c;fill-opacity:1" d="M 9.722656 4.597656 L 15.15625 5.378906 L 15.0625 6.050781 L 9.625 5.273438 Z M 9.722656 4.597656"/></g></g><path style="stroke:none;fill-rule:nonzero;fill:#ff00a2;fill-opacity:1" d="M 3.875 1.875 C 3.875 1.53125 3.484375 1.25 3 1.25 C 2.515625 1.25 2.125 1.53125 2.125 1.875 C 2.125 2.21875 2.515625 2.5 3 2.5 C 3.484375 2.5 3.875 2.21875 3.875 1.875 Z M 3.875 1.875"/><path style="stroke:none;fill-rule:nonzero;fill:#fd3b3b;fill-opacity:1" d="M 6.5625 2.8125 C 6.292969 2.542969 5.910156 2.492188 5.707031 2.695312 C 5.503906 2.898438 5.558594 3.277344 5.828125 3.546875 C 6.09375 3.816406 6.476562 3.867188 6.679688 3.664062 C 6.882812 3.464844 6.832031 3.082031 6.5625 2.8125 Z M 6.5625 2.8125"/><path style="stroke:none;fill-rule:nonzero;fill:#0ef;fill-opacity:1" d="M 9.898438 1.625 C 9.738281 1.414062 9.230469 1.53125 8.769531 1.886719 C 8.308594 2.246094 8.066406 2.703125 8.230469 2.917969 C 8.394531 3.128906 8.902344 3.007812 9.363281 2.652344 C 9.824219 2.296875 10.0625 1.835938 9.898438 1.625 Z M 9.898438 1.625"/><path style="stroke:none;fill-rule:nonzero;fill:#0048ff;fill-opacity:1" d="M 3.148438 10.027344 C 2.921875 9.636719 2.601562 9.40625 2.425781 9.503906 C 2.253906 9.605469 2.296875 10 2.519531 10.390625 C 2.746094 10.777344 3.066406 11.011719 3.238281 10.910156 C 3.414062 10.8125 3.371094 10.414062 3.148438 10.027344 Z M 3.148438 10.027344"/><path style="stroke:none;fill-rule:nonzero;fill:#f63bbe;fill-opacity:1" d="M 12.5 13.8125 C 12.5 13.433594 12.304688 13.125 12.0625 13.125 C 11.820312 13.125 11.625 13.433594 11.625 13.8125 C 11.625 14.191406 11.820312 14.5 12.0625 14.5 C 12.304688 14.5 12.5 14.191406 12.5 13.8125 Z M 12.5 13.8125"/><path style="stroke:none;fill-rule:nonzero;fill:#0c0;fill-opacity:1" d="M 15.085938 6.671875 C 15.007812 6.558594 14.644531 6.675781 14.277344 6.933594 C 13.910156 7.195312 13.675781 7.496094 13.757812 7.605469 C 13.835938 7.71875 14.199219 7.601562 14.566406 7.34375 C 14.933594 7.085938 15.164062 6.785156 15.085938 6.671875 Z M 15.085938 6.671875"/><path style="stroke:none;fill-rule:nonzero;fill:#0048ff;fill-opacity:1" d="M 2.667969 14.332031 C 2.441406 13.988281 2.136719 13.785156 1.992188 13.878906 C 1.851562 13.972656 1.917969 14.332031 2.144531 14.675781 C 2.371094 15.023438 2.671875 15.226562 2.816406 15.132812 C 2.960938 15.039062 2.894531 14.679688 2.667969 14.332031 Z M 2.667969 14.332031"/><path style="stroke:none;fill-rule:nonzero;fill:#7acded;fill-opacity:1" d="M 2.625 12.320312 C 2.609375 12.148438 2.265625 12.035156 1.851562 12.0625 C 1.441406 12.09375 1.113281 12.257812 1.125 12.429688 C 1.140625 12.601562 1.484375 12.714844 1.898438 12.6875 C 2.308594 12.65625 2.636719 12.496094 2.625 12.320312 Z M 2.625 12.320312"/><path style="stroke:none;fill-rule:nonzero;fill:#ff82b2;fill-opacity:1" d="M 3.894531 10.773438 C 3.886719 10.65625 3.480469 10.585938 2.984375 10.621094 C 2.488281 10.652344 2.09375 10.773438 2.101562 10.894531 C 2.109375 11.011719 2.519531 11.082031 3.015625 11.046875 C 3.507812 11.015625 3.902344 10.894531 3.894531 10.773438 Z M 3.894531 10.773438"/><path style="stroke:none;fill-rule:nonzero;fill:#7f0099;fill-opacity:1" d="M 8.921875 11.28125 L 8.96875 11.921875 L 10.28125 11.90625 C 10.277344 11.71875 10.261719 11.53125 10.253906 11.328125 C 9.515625 11.304688 8.921875 11.28125 8.921875 11.28125 Z M 8.921875 11.28125"/><path style="stroke:none;fill-rule:nonzero;fill:url(#linear1)" d="M 14.859375 9.777344 C 14.75 9.410156 14.503906 9.105469 14.167969 8.921875 C 13.585938 8.609375 12.863281 8.828125 12.550781 9.410156 C 12.289062 9.898438 12.472656 10.511719 12.957031 10.773438 C 13.15625 10.882812 13.382812 10.910156 13.597656 10.859375 C 13.820312 10.800781 14.003906 10.660156 14.113281 10.457031 C 14.226562 10.246094 14.21875 9.949219 14.089844 9.714844 C 13.980469 9.511719 13.789062 9.382812 13.566406 9.367188 C 13.4375 9.355469 13.324219 9.453125 13.316406 9.582031 C 13.304688 9.710938 13.402344 9.824219 13.53125 9.835938 C 13.554688 9.835938 13.625 9.84375 13.675781 9.941406 C 13.730469 10.039062 13.730469 10.171875 13.699219 10.234375 C 13.640625 10.339844 13.546875 10.382812 13.480469 10.398438 C 13.382812 10.421875 13.273438 10.410156 13.179688 10.359375 C 13.054688 10.292969 12.960938 10.179688 12.921875 10.042969 C 12.878906 9.90625 12.894531 9.761719 12.960938 9.632812 C 13.054688 9.460938 13.207031 9.335938 13.390625 9.28125 C 13.578125 9.226562 13.773438 9.246094 13.945312 9.335938 C 14.171875 9.460938 14.335938 9.664062 14.414062 9.914062 C 14.484375 10.160156 14.460938 10.421875 14.335938 10.648438 C 14.09375 11.105469 13.636719 11.394531 12.96875 11.40625 C 12.578125 11.410156 11.277344 11.367188 10.253906 11.332031 C 10.261719 11.53125 10.277344 11.722656 10.28125 11.910156 L 12.941406 11.882812 C 13.730469 11.882812 14.378906 11.566406 14.75 10.871094 C 14.929688 10.535156 14.972656 10.144531 14.859375 9.777344 Z M 14.859375 9.777344"/><path style="stroke:none;fill-rule:nonzero;fill:#242424;fill-opacity:1" d="M 7.972656 10.230469 L 8.109375 10.230469 C 8.164062 10.234375 8.21875 10.234375 8.269531 10.242188 C 8.378906 10.253906 8.484375 10.269531 8.597656 10.304688 C 8.710938 10.335938 8.828125 10.378906 8.945312 10.460938 C 9 10.496094 9.058594 10.550781 9.109375 10.605469 C 9.160156 10.667969 9.207031 10.730469 9.234375 10.804688 C 9.300781 10.949219 9.324219 11.09375 9.296875 11.257812 C 9.269531 11.425781 9.160156 11.589844 9.039062 11.675781 C 8.921875 11.769531 8.796875 11.8125 8.6875 11.84375 C 8.628906 11.859375 8.574219 11.867188 8.519531 11.875 C 8.460938 11.882812 8.414062 11.886719 8.34375 11.886719 L 8.355469 11.308594 C 8.4375 11.3125 8.488281 11.324219 8.550781 11.335938 C 8.613281 11.351562 8.675781 11.367188 8.738281 11.390625 C 8.859375 11.4375 8.988281 11.511719 9.09375 11.625 C 9.203125 11.734375 9.28125 11.894531 9.304688 12.042969 C 9.316406 12.082031 9.316406 12.117188 9.320312 12.15625 C 9.320312 12.195312 9.328125 12.222656 9.320312 12.269531 C 9.316406 12.3125 9.3125 12.355469 9.300781 12.398438 C 9.296875 12.441406 9.273438 12.484375 9.257812 12.527344 C 9.183594 12.691406 9.050781 12.820312 8.925781 12.890625 C 8.804688 12.964844 8.679688 13.011719 8.566406 13.042969 C 8.449219 13.078125 8.332031 13.097656 8.222656 13.109375 C 8.105469 13.125 8.003906 13.132812 7.875 13.132812 C 7.667969 13.132812 7.5 12.960938 7.5 12.753906 C 7.503906 12.546875 7.671875 12.382812 7.878906 12.382812 C 7.886719 12.382812 7.894531 12.382812 7.902344 12.382812 L 7.914062 12.386719 C 8.0625 12.394531 8.25 12.390625 8.394531 12.359375 C 8.546875 12.332031 8.648438 12.265625 8.65625 12.246094 C 8.65625 12.242188 8.664062 12.242188 8.664062 12.238281 C 8.664062 12.230469 8.664062 12.226562 8.667969 12.222656 C 8.671875 12.207031 8.671875 12.171875 8.671875 12.152344 C 8.667969 12.109375 8.65625 12.078125 8.632812 12.046875 C 8.609375 12.011719 8.5625 11.976562 8.503906 11.949219 C 8.476562 11.933594 8.445312 11.921875 8.410156 11.914062 C 8.378906 11.902344 8.332031 11.894531 8.316406 11.890625 L 8.304688 11.886719 C 8.144531 11.855469 8.046875 11.699219 8.078125 11.539062 C 8.105469 11.417969 8.207031 11.328125 8.328125 11.3125 C 8.347656 11.308594 8.390625 11.300781 8.421875 11.296875 C 8.453125 11.289062 8.488281 11.277344 8.515625 11.269531 C 8.578125 11.25 8.625 11.21875 8.644531 11.199219 C 8.664062 11.175781 8.65625 11.175781 8.65625 11.164062 C 8.660156 11.164062 8.652344 11.144531 8.652344 11.132812 C 8.640625 11.121094 8.644531 11.101562 8.632812 11.097656 C 8.625 11.078125 8.605469 11.066406 8.570312 11.046875 C 8.535156 11.023438 8.480469 11.007812 8.421875 10.996094 C 8.359375 10.984375 8.289062 10.976562 8.214844 10.976562 C 8.179688 10.972656 8.140625 10.976562 8.105469 10.976562 L 8.050781 10.980469 L 8.011719 10.984375 L 7.972656 10.984375 C 7.765625 10.984375 7.597656 10.820312 7.597656 10.609375 C 7.597656 10.394531 7.765625 10.230469 7.972656 10.230469 Z M 7.972656 10.230469"/><path style="stroke:none;fill-rule:nonzero;fill:#c93737;fill-opacity:1" d="M 15.691406 0.8125 C 15.691406 1.140625 15.421875 1.410156 15.09375 1.410156 C 14.765625 1.410156 14.496094 1.140625 14.496094 0.8125 C 14.496094 0.484375 14.765625 0.214844 15.09375 0.214844 C 15.421875 0.214844 15.691406 0.484375 15.691406 0.8125 Z M 15.691406 0.8125"/></g></svg>