<svg xmlns="http://www.w3.org/2000/svg" xmlns:xlink="http://www.w3.org/1999/xlink" width="16pt" height="16pt" version="1.1" viewBox="0 0 16 16"><defs><linearGradient id="linear0" x1="21.507" x2="64.841" y1="21.454" y2="21.454" gradientTransform="matrix(0.122063,-0.02695,0.02695,0.122063,-0.572675,1.299125)" gradientUnits="userSpaceOnUse"><stop offset=".123" style="stop-color:#689f38;stop-opacity:1"/><stop offset=".322" style="stop-color:#73a743;stop-opacity:1"/><stop offset=".668" style="stop-color:#8ebd60;stop-opacity:1"/><stop offset=".993" style="stop-color:#aed581;stop-opacity:1"/></linearGradient><filter id="alpha" width="100%" height="100%" x="0%" y="0%" filterUnits="objectBoundingBox"><feColorMatrix in="SourceGraphic" type="matrix" values="0 0 0 0 1 0 0 0 0 1 0 0 0 0 1 0 0 0 1 0"/></filter><mask id="mask0"><g filter="url(#alpha)"><rect width="16" height="16" x="0" y="0" style="fill:#000;fill-opacity:.2;stroke:none"/></g></mask><clipPath id="clip1"><rect width="16" height="16" x="0" y="0"/></clipPath><g id="surface5" clip-path="url(#clip1)"><path style="stroke:none;fill-rule:nonzero;fill:#424242;fill-opacity:1" d="M 2.835938 1.046875 C 3.46875 1.046875 4.378906 1.136719 5.542969 1.3125 C 7.105469 1.546875 7.847656 2.636719 7.777344 3.585938 C 7.710938 4.484375 6.980469 4.804688 6.320312 4.804688 C 6.273438 4.804688 6.222656 4.800781 6.171875 4.800781 C 4.140625 4.683594 2.949219 2.066406 2.5625 1.054688 C 2.636719 1.046875 2.726562 1.046875 2.835938 1.046875 M 2.835938 0.671875 C 2.179688 0.671875 2.0625 0.765625 2.0625 0.765625 C 2.0625 0.765625 3.34375 5.011719 6.148438 5.171875 C 6.207031 5.175781 6.265625 5.175781 6.320312 5.175781 C 8.953125 5.175781 8.792969 1.421875 5.597656 0.941406 C 4.207031 0.730469 3.355469 0.671875 2.835938 0.671875 Z M 2.835938 0.671875"/></g><linearGradient id="linear1" x1="41.596" x2="86.103" y1="25.334" y2="25.334" gradientTransform="matrix(-0.1238,-0.0172875,-0.0172875,0.1238,19.03375,0.8792)" gradientUnits="userSpaceOnUse"><stop offset=".123" style="stop-color:#689f38;stop-opacity:1"/><stop offset=".322" style="stop-color:#73a743;stop-opacity:1"/><stop offset=".668" style="stop-color:#8ebd60;stop-opacity:1"/><stop offset=".993" style="stop-color:#aed581;stop-opacity:1"/></linearGradient><mask id="mask1"><g filter="url(#alpha)"><rect width="16" height="16" x="0" y="0" style="fill:#000;fill-opacity:.2;stroke:none"/></g></mask><clipPath id="clip2"><rect width="16" height="16" x="0" y="0"/></clipPath><g id="surface8" clip-path="url(#clip2)"><path style="stroke:none;fill-rule:nonzero;fill:#424242;fill-opacity:1" d="M 13.347656 0.941406 C 13.035156 2 12.023438 4.800781 9.9375 5.085938 C 9.824219 5.105469 9.710938 5.109375 9.609375 5.109375 C 8.984375 5.109375 8.28125 4.792969 8.179688 3.902344 C 8.125 3.425781 8.277344 2.910156 8.597656 2.484375 C 8.976562 1.976562 9.566406 1.617188 10.296875 1.445312 C 12.019531 1.046875 12.902344 0.949219 13.347656 0.941406 M 13.402344 0.566406 C 12.953125 0.566406 12.035156 0.65625 10.214844 1.082031 C 7.070312 1.8125 7.117188 5.484375 9.609375 5.484375 C 9.730469 5.484375 9.859375 5.476562 9.992188 5.457031 C 12.851562 5.066406 13.820312 0.617188 13.820312 0.617188 C 13.820312 0.617188 13.746094 0.566406 13.402344 0.566406 Z M 13.402344 0.566406"/></g><radialGradient id="radial0" cx="90.293" cy="43.697" r="54.581" fx="90.293" fy="43.697" gradientTransform="matrix(0.125,0,0,0.125,0,0)" gradientUnits="userSpaceOnUse"><stop offset=".163" style="stop-color:#f7d3a8;stop-opacity:1"/><stop offset=".336" style="stop-color:#fbceaa;stop-opacity:1"/><stop offset=".442" style="stop-color:#ffc7ad;stop-opacity:1"/><stop offset=".514" style="stop-color:#ffb8a1;stop-opacity:1"/><stop offset=".652" style="stop-color:#ff9282;stop-opacity:1"/><stop offset=".839" style="stop-color:#ff5450;stop-opacity:1"/><stop offset=".892" style="stop-color:#ff4141;stop-opacity:1"/><stop offset=".929" style="stop-color:#fa4242;stop-opacity:1"/><stop offset=".971" style="stop-color:#ec4444;stop-opacity:1"/><stop offset=".984" style="stop-color:#e64545;stop-opacity:1"/></radialGradient><mask id="mask2"><g filter="url(#alpha)"><rect width="16" height="16" x="0" y="0" style="fill:#000;fill-opacity:.4;stroke:none"/></g></mask><clipPath id="clip3"><rect width="16" height="16" x="0" y="0"/></clipPath><g id="surface11" clip-path="url(#clip3)"><path style="stroke:none;fill-rule:nonzero;fill:#666;fill-opacity:1" d="M 2.238281 4.03125 C 1.21875 5.367188 0.953125 7.242188 1.390625 9.03125 C 1.832031 10.8125 2.878906 12.222656 4.386719 13.253906 C 7.980469 15.710938 8.269531 15.488281 8.269531 15.488281 C 8.269531 15.488281 11.171875 12.976562 11.265625 8.984375 C 11.328125 6.367188 10.335938 4.121094 8.480469 3.015625 C 6.765625 1.992188 5.015625 2.300781 4.847656 2.347656 C 3.707031 2.632812 2.839844 3.238281 2.238281 4.03125 Z M 2.238281 4.03125"/></g><radialGradient id="radial1" cx="43.901" cy="51.406" r="61.587" fx="43.901" fy="51.406" gradientTransform="matrix(0.03895,0.118775,-0.126287,0.0414125,10.27025,-0.917338)" gradientUnits="userSpaceOnUse"><stop offset=".163" style="stop-color:#f7d3a8;stop-opacity:1"/><stop offset=".336" style="stop-color:#fbceaa;stop-opacity:1"/><stop offset=".442" style="stop-color:#ffc7ad;stop-opacity:1"/><stop offset=".513" style="stop-color:#ffb8a1;stop-opacity:1"/><stop offset=".65" style="stop-color:#ff9282;stop-opacity:1"/><stop offset=".836" style="stop-color:#ff5450;stop-opacity:1"/><stop offset=".888" style="stop-color:#ff4141;stop-opacity:1"/><stop offset=".924" style="stop-color:#fa4242;stop-opacity:1"/><stop offset=".932" style="stop-color:#f84242;stop-opacity:1"/><stop offset=".984" style="stop-color:#e64545;stop-opacity:1"/></radialGradient><mask id="mask3"><g filter="url(#alpha)"><rect width="16" height="16" x="0" y="0" style="fill:#000;fill-opacity:.2;stroke:none"/></g></mask><clipPath id="clip4"><rect width="16" height="16" x="0" y="0"/></clipPath><g id="surface14" clip-path="url(#clip4)"><path style="stroke:none;fill-rule:nonzero;fill:#424242;fill-opacity:1" d="M 10.101562 2.476562 C 11.941406 2.476562 13.710938 3.4375 14.496094 4.871094 C 15.496094 6.691406 15.234375 9.253906 13.839844 11.246094 C 11.949219 13.953125 8.527344 15.042969 8.25 15.125 C 8.246094 15.125 8.238281 15.125 8.226562 15.125 C 8.109375 15.125 7.742188 15.09375 6.914062 14.78125 C 6.300781 14.546875 5.457031 14.066406 4.003906 13.121094 C 2.515625 12.148438 1.527344 10.730469 1.078125 8.894531 C 0.699219 7.351562 1.085938 5.617188 2.121094 4.257812 C 2.710938 3.480469 3.519531 2.957031 4.523438 2.707031 C 4.605469 2.683594 5.050781 2.582031 5.675781 2.582031 C 6.421875 2.582031 7.105469 2.726562 7.710938 3.015625 C 7.761719 3.042969 7.816406 3.054688 7.871094 3.054688 C 7.933594 3.054688 7.996094 3.039062 8.054688 3.007812 C 8.109375 2.976562 8.164062 2.945312 8.21875 2.914062 C 8.339844 2.839844 8.453125 2.773438 8.566406 2.734375 C 9.039062 2.5625 9.554688 2.476562 10.101562 2.476562 M 8.234375 15.128906 C 8.234375 15.128906 8.234375 15.128906 8.226562 15.132812 C 8.222656 15.132812 8.230469 15.128906 8.234375 15.128906 M 10.101562 2.101562 C 9.53125 2.101562 8.964844 2.191406 8.441406 2.378906 C 8.238281 2.449219 8.058594 2.578125 7.875 2.675781 C 7.097656 2.304688 6.304688 2.203125 5.675781 2.203125 C 5.003906 2.203125 4.515625 2.320312 4.433594 2.34375 C 3.292969 2.628906 2.425781 3.234375 1.824219 4.027344 C 0.808594 5.367188 0.273438 7.195312 0.714844 8.984375 C 1.152344 10.765625 2.109375 12.332031 3.800781 13.433594 C 5.148438 14.3125 6.09375 14.871094 6.785156 15.132812 C 7.632812 15.453125 8.050781 15.5 8.230469 15.5 C 8.308594 15.5 8.339844 15.492188 8.339844 15.492188 C 8.339844 15.492188 12.085938 14.421875 14.152344 11.460938 C 15.648438 9.316406 15.867188 6.582031 14.828125 4.691406 C 13.9375 3.074219 11.980469 2.101562 10.101562 2.101562 Z M 10.101562 2.101562"/></g></defs><g id="surface1"><path style="stroke:none;fill-rule:nonzero;fill:url(#linear0)" d="M 2.0625 0.765625 C 2.0625 0.765625 3.34375 5.011719 6.148438 5.171875 C 8.957031 5.335938 8.859375 1.433594 5.597656 0.941406 C 2.433594 0.460938 2.0625 0.765625 2.0625 0.765625 Z M 2.0625 0.765625"/><use mask="url(#mask0)" xlink:href="#surface5"/><path style="stroke:none;fill-rule:nonzero;fill:url(#linear1)" d="M 13.820312 0.617188 C 13.820312 0.617188 12.851562 5.066406 9.988281 5.457031 C 7.128906 5.851562 6.917969 1.847656 10.214844 1.082031 C 13.417969 0.335938 13.820312 0.617188 13.820312 0.617188 Z M 13.820312 0.617188"/><use mask="url(#mask1)" xlink:href="#surface8"/><path style="stroke:none;fill-rule:nonzero;fill:url(#radial0)" d="M 8.4375 2.421875 C 6.394531 3.15625 5.148438 5.554688 4.925781 7.609375 C 4.761719 9.121094 5.070312 10.289062 5.640625 11.5 C 7.496094 15.441406 8.351562 15.488281 8.351562 15.488281 C 8.351562 15.488281 12.085938 14.421875 14.148438 11.460938 C 15.648438 9.316406 15.867188 6.585938 14.828125 4.691406 C 13.667969 2.578125 10.695312 1.609375 8.4375 2.421875 Z M 8.4375 2.421875"/><use mask="url(#mask2)" xlink:href="#surface11"/><path style="stroke:none;fill-rule:nonzero;fill:url(#radial1)" d="M 1.824219 4.03125 C 0.808594 5.367188 0.273438 7.238281 0.714844 9.027344 C 1.152344 10.808594 2.160156 12.332031 3.800781 13.433594 C 7.429688 15.875 8.40625 15.464844 8.40625 15.464844 C 8.40625 15.464844 10.761719 12.976562 10.855469 8.984375 C 10.914062 6.367188 10.074219 3.980469 8.21875 2.871094 C 6.503906 1.851562 4.605469 2.304688 4.433594 2.347656 C 3.292969 2.632812 2.425781 3.238281 1.824219 4.03125 Z M 1.824219 4.03125"/><use mask="url(#mask3)" xlink:href="#surface14"/></g></svg>