<svg xmlns="http://www.w3.org/2000/svg" xmlns:xlink="http://www.w3.org/1999/xlink" width="16pt" height="16pt" version="1.1" viewBox="0 0 16 16"><defs><linearGradient id="linear0" x1="14.094" x2="93.971" y1="124.14" y2="24.147" gradientTransform="matrix(-0.125,0,0,0.125,15.9075,0)" gradientUnits="userSpaceOnUse"><stop offset="0" style="stop-color:#ffe165;stop-opacity:1"/><stop offset=".016" style="stop-color:#c7a259;stop-opacity:1"/><stop offset=".025" style="stop-color:#a67c52;stop-opacity:1"/><stop offset=".826" style="stop-color:#da8108;stop-opacity:1"/><stop offset=".911" style="stop-color:#e08200;stop-opacity:1"/><stop offset=".934" style="stop-color:#dd7e00;stop-opacity:1"/><stop offset=".956" style="stop-color:#d27300;stop-opacity:1"/><stop offset=".976" style="stop-color:#c16000;stop-opacity:1"/><stop offset=".996" style="stop-color:#aa4600;stop-opacity:1"/><stop offset="1" style="stop-color:#a44000;stop-opacity:1"/></linearGradient><linearGradient id="linear1" x1="15.502" x2="81.681" y1="117.97" y2="35.128" gradientTransform="matrix(-0.125,0,0,0.125,15.9075,0)" gradientUnits="userSpaceOnUse"><stop offset="0" style="stop-color:#ffe165;stop-opacity:1"/><stop offset=".499" style="stop-color:#ffdf64;stop-opacity:1"/><stop offset=".679" style="stop-color:#ffd85f;stop-opacity:1"/><stop offset=".808" style="stop-color:#fecc56;stop-opacity:1"/><stop offset=".911" style="stop-color:#febc4a;stop-opacity:1"/><stop offset="1" style="stop-color:#fda63a;stop-opacity:1"/></linearGradient><filter id="alpha" width="100%" height="100%" x="0%" y="0%" filterUnits="objectBoundingBox"><feColorMatrix in="SourceGraphic" type="matrix" values="0 0 0 0 1 0 0 0 0 1 0 0 0 0 1 0 0 0 1 0"/></filter><mask id="mask0"><g filter="url(#alpha)"><rect width="16" height="16" x="0" y="0" style="fill:#000;fill-opacity:.2;stroke:none"/></g></mask><clipPath id="clip1"><rect width="16" height="16"/></clipPath><g id="surface6" clip-path="url(#clip1)"><path style="stroke:none;fill-rule:nonzero;fill:#424242;fill-opacity:1" d="M 8.941406 0.9375 C 8.984375 1.058594 9.035156 1.175781 9.085938 1.296875 C 9.179688 1.507812 9.285156 1.746094 9.378906 2.09375 C 9.402344 2.191406 9.46875 2.273438 9.558594 2.324219 C 9.675781 2.390625 9.738281 2.566406 9.902344 3.109375 C 9.964844 3.316406 10.042969 3.574219 10.148438 3.882812 C 10.355469 4.503906 10.558594 4.96875 10.734375 5.378906 C 10.921875 5.8125 11.070312 6.15625 11.160156 6.527344 C 11.277344 7.03125 11.394531 7.207031 11.566406 7.355469 C 11.570312 7.359375 11.574219 7.359375 11.578125 7.363281 C 11.582031 7.375 11.59375 7.398438 11.605469 7.453125 C 11.773438 8.152344 11.925781 8.492188 12.300781 9.167969 L 12.304688 9.171875 C 12.828125 10.058594 12.957031 10.367188 12.972656 10.46875 C 12.964844 10.765625 13.144531 11.132812 13.445312 11.695312 C 13.605469 11.996094 13.789062 12.339844 13.824219 12.515625 C 13.855469 12.671875 13.925781 12.925781 14.015625 13.253906 C 14.078125 13.476562 14.148438 13.730469 14.210938 13.96875 L 14.21875 13.996094 C 14.308594 14.261719 14.414062 14.617188 14.40625 14.890625 C 14.214844 14.789062 13.921875 14.578125 13.8125 14.492188 C 13.785156 14.472656 13.753906 14.457031 13.726562 14.445312 C 13.136719 14.21875 12.40625 13.867188 11.675781 13.464844 C 11.546875 13.394531 11.410156 13.316406 11.261719 13.234375 C 10.003906 12.527344 8.917969 11.933594 8.328125 11.800781 C 7.738281 11.667969 5.398438 10.324219 4.675781 9.574219 C 3.859375 8.734375 3.230469 8.472656 2.816406 8.304688 L 2.792969 8.296875 C 2.59375 8.214844 2.464844 8.175781 2.359375 8.144531 C 2.242188 8.113281 2.160156 8.089844 2 8.007812 C 1.863281 7.941406 1.734375 7.902344 1.628906 7.871094 C 1.589844 7.859375 1.546875 7.84375 1.511719 7.832031 C 1.515625 7.808594 1.519531 7.777344 1.53125 7.734375 C 1.699219 7.171875 2.78125 5.101562 4.128906 3.632812 C 5.628906 1.992188 8.128906 1.046875 8.941406 0.9375 M 9.078125 0.550781 C 8.390625 0.550781 5.550781 1.527344 3.847656 3.378906 C 2.515625 4.832031 1.363281 6.964844 1.171875 7.628906 C 0.988281 8.242188 1.425781 8.140625 1.828125 8.339844 C 2.171875 8.515625 2.246094 8.476562 2.648438 8.640625 C 3.050781 8.804688 3.628906 9.035156 4.402344 9.835938 C 5.175781 10.636719 7.566406 12.011719 8.242188 12.167969 C 8.917969 12.320312 10.550781 13.269531 11.492188 13.792969 C 12.300781 14.238281 13.027344 14.578125 13.585938 14.796875 C 13.976562 15.082031 14.328125 15.320312 14.542969 15.320312 C 14.640625 15.320312 14.714844 15.265625 14.746094 15.144531 C 14.835938 14.808594 14.738281 14.367188 14.570312 13.875 C 14.421875 13.300781 14.238281 12.6875 14.1875 12.4375 C 14.085938 11.941406 13.328125 10.875 13.34375 10.46875 C 13.355469 10.253906 13.03125 9.667969 12.628906 8.984375 C 12.269531 8.34375 12.128906 8.023438 11.96875 7.363281 C 11.855469 6.894531 11.722656 7.28125 11.519531 6.4375 C 11.339844 5.671875 10.929688 5.035156 10.5 3.761719 C 10.117188 2.613281 10.09375 2.1875 9.738281 1.992188 C 9.550781 1.300781 9.324219 1.011719 9.230469 0.601562 C 9.222656 0.566406 9.171875 0.550781 9.078125 0.550781 Z M 9.078125 0.550781"/></g><radialGradient id="radial0" cx="59.419" cy="35.771" r="5.74" fx="59.419" fy="35.771" gradientTransform="matrix(-0.133337,-0.004775,-0.0040625,0.113363,16.785,0.8311)" gradientUnits="userSpaceOnUse"><stop offset="0" style="stop-color:#b9b789;stop-opacity:1"/><stop offset="1" style="stop-color:#000;stop-opacity:1"/></radialGradient><radialGradient id="radial1" cx="58.6" cy="84.185" r="5.227" fx="58.6" fy="84.185" gradientTransform="matrix(-0.119375,0.0370625,0.0370625,0.119375,12.3765,-1.674625)" gradientUnits="userSpaceOnUse"><stop offset="0" style="stop-color:#b9b789;stop-opacity:1"/><stop offset="1" style="stop-color:#000;stop-opacity:1"/></radialGradient></defs><g id="surface1"><path style="stroke:none;fill-rule:nonzero;fill:url(#linear0)" d="M 1.171875 7.628906 C 1.367188 6.964844 2.515625 4.832031 3.847656 3.378906 C 5.777344 1.277344 9.164062 0.304688 9.234375 0.601562 C 9.339844 1.074219 9.625 1.386719 9.824219 2.339844 C 10.019531 3.292969 10.882812 5.90625 11.53125 7.105469 C 12.179688 8.300781 13.363281 10.0625 13.347656 10.46875 C 13.328125 10.871094 14.089844 11.9375 14.191406 12.4375 C 14.292969 12.933594 14.914062 14.871094 14.742188 15.039062 C 14.570312 15.207031 13.222656 14.75 11.492188 13.789062 C 10.550781 13.269531 8.917969 12.320312 8.242188 12.164062 C 7.566406 12.011719 5.175781 10.636719 4.402344 9.835938 C 3.628906 9.035156 3.050781 8.808594 2.648438 8.640625 C 2.246094 8.476562 2.171875 8.515625 1.828125 8.34375 C 1.425781 8.140625 0.988281 8.242188 1.171875 7.628906 Z M 1.171875 7.628906"/><path style="stroke:none;fill-rule:nonzero;fill:url(#linear1)" d="M 2.78125 7.75 C 2.78125 7.75 2.988281 7.035156 4.207031 5.625 C 5.425781 4.214844 6.035156 3.542969 7.015625 3.109375 C 8.109375 2.625 9.019531 2.03125 9.609375 1.9375 C 9.890625 1.890625 10.074219 2.484375 10.5 3.761719 C 10.929688 5.035156 11.339844 5.671875 11.519531 6.4375 C 11.71875 7.28125 11.855469 6.894531 11.96875 7.363281 C 12.140625 8.070312 12.292969 8.386719 12.707031 9.121094 C 13.105469 9.828125 13.257812 10.632812 13.257812 10.632812 C 13.65625 11.273438 13.800781 11.773438 14.125 12.667969 C 14.46875 13.621094 14.90625 14.546875 14.746094 15.144531 C 14.589844 15.742188 13.523438 14.664062 12.632812 14.125 C 11.738281 13.585938 10.015625 12.867188 9.160156 12.207031 C 8.867188 11.984375 7.59375 11.671875 6.800781 11.226562 C 5.898438 10.722656 5.402344 10.46875 4.464844 9.6875 C 3.601562 8.96875 3.859375 9.078125 3.246094 8.65625 C 2.632812 8.230469 2.761719 8.21875 2.78125 7.75 Z M 2.78125 7.75"/><use mask="url(#mask0)" xlink:href="#surface6"/><path style="stroke:none;fill-rule:nonzero;fill:#da455a;fill-opacity:1" d="M 6.726562 11.167969 C 6.3125 10.988281 5.886719 10.730469 5.53125 10.5 C 5.089844 10.210938 4.648438 9.800781 4.175781 9.503906 C 4.488281 9.152344 5.011719 8.933594 5.566406 8.929688 C 6.457031 8.921875 7.304688 9.246094 7.1875 10.304688 C 7.148438 10.664062 6.980469 10.945312 6.726562 11.167969 Z M 6.726562 11.167969"/><path style="stroke:none;fill-rule:nonzero;fill:#de7c8a;fill-opacity:1" d="M 6.847656 9.9375 C 6.804688 9.886719 6.742188 9.839844 6.675781 9.859375 C 6.625 9.875 6.59375 9.9375 6.59375 9.992188 C 6.59375 10.046875 6.613281 10.101562 6.628906 10.15625 C 6.683594 10.335938 6.660156 10.496094 6.632812 10.675781 C 6.613281 10.8125 6.601562 10.933594 6.761719 10.855469 C 7.050781 10.710938 7.011719 10.148438 6.847656 9.9375 Z M 6.847656 9.9375"/><path style="stroke:none;fill-rule:nonzero;fill:#de7c8a;fill-opacity:1" d="M 5.59375 9.324219 C 5.511719 9.339844 5.429688 9.390625 5.398438 9.464844 C 5.375 9.539062 5.394531 9.617188 5.4375 9.683594 C 5.515625 9.808594 5.667969 9.890625 5.820312 9.882812 C 5.898438 9.878906 5.957031 9.871094 6.03125 9.910156 C 6.074219 9.929688 6.113281 10.019531 6.171875 10.015625 C 6.273438 10.007812 6.292969 9.835938 6.277344 9.761719 C 6.226562 9.484375 5.859375 9.265625 5.59375 9.324219 Z M 5.59375 9.324219"/><path style="stroke:none;fill-rule:nonzero;fill:#de7c8a;fill-opacity:1" d="M 5.484375 9.148438 C 5.339844 9.195312 5.1875 9.222656 5.035156 9.226562 C 5.011719 9.226562 4.984375 9.222656 4.976562 9.203125 C 4.96875 9.179688 4.992188 9.15625 5.015625 9.144531 C 5.105469 9.097656 5.195312 9.046875 5.296875 9.03125 C 5.394531 9.015625 5.507812 9.035156 5.574219 9.109375 C 5.554688 9.125 5.535156 9.136719 5.515625 9.148438"/><path style="stroke:none;fill-rule:nonzero;fill:#de7c8a;fill-opacity:1" d="M 6.6875 9.65625 C 6.605469 9.535156 6.503906 9.421875 6.390625 9.332031 C 6.351562 9.304688 6.289062 9.28125 6.261719 9.320312 C 6.25 9.339844 6.253906 9.371094 6.265625 9.394531 C 6.324219 9.550781 6.46875 9.675781 6.632812 9.710938"/><path style="stroke:none;fill-rule:nonzero;fill:#de7c8a;fill-opacity:1" d="M 6.148438 9.265625 C 6 9.257812 5.855469 9.195312 5.746094 9.09375 C 5.816406 9.046875 5.910156 9.03125 5.992188 9.058594 C 6.074219 9.085938 6.140625 9.152344 6.167969 9.234375"/><path style="stroke:none;fill-rule:nonzero;fill:#da455a;fill-opacity:1" d="M 7.328125 7.085938 C 7.53125 6.316406 7 5.519531 6.304688 5.335938 C 5.609375 5.152344 4.761719 5.566406 4.558594 6.339844 C 4.359375 7.109375 4.875 7.941406 5.574219 8.128906 C 6.269531 8.3125 7.128906 7.855469 7.328125 7.085938 Z M 7.328125 7.085938"/><path style="stroke:none;fill-rule:nonzero;fill:#de7c8a;fill-opacity:1" d="M 4.960938 6.105469 C 4.988281 6.0625 5.015625 6.019531 5.058594 5.988281 C 5.097656 5.960938 5.152344 5.941406 5.203125 5.957031 C 5.253906 5.972656 5.289062 6.015625 5.308594 6.0625 C 5.34375 6.152344 5.308594 6.265625 5.21875 6.300781 C 5.167969 6.320312 5.109375 6.316406 5.058594 6.339844 C 5.015625 6.363281 4.992188 6.410156 4.972656 6.453125 C 4.933594 6.546875 4.855469 6.664062 4.808594 6.515625 C 4.765625 6.398438 4.90625 6.199219 4.960938 6.105469 Z M 4.960938 6.105469"/><path style="stroke:none;fill-rule:nonzero;fill:#de7c8a;fill-opacity:1" d="M 6.097656 6.019531 C 6.085938 5.917969 5.972656 5.855469 5.867188 5.84375 C 5.671875 5.824219 5.285156 6.066406 5.53125 6.257812 C 5.695312 6.386719 6.125 6.242188 6.097656 6.019531 Z M 6.097656 6.019531"/><path style="stroke:none;fill-rule:nonzero;fill:#de7c8a;fill-opacity:1" d="M 6.09375 5.507812 C 6.144531 5.511719 6.199219 5.523438 6.238281 5.554688 C 6.277344 5.585938 6.296875 5.640625 6.269531 5.683594 C 6.238281 5.734375 6.160156 5.730469 6.097656 5.726562 C 5.980469 5.714844 5.585938 5.847656 5.542969 5.695312 C 5.492188 5.523438 5.984375 5.496094 6.09375 5.507812 Z M 6.09375 5.507812"/><path style="stroke:none;fill-rule:nonzero;fill:#de7c8a;fill-opacity:1" d="M 5.433594 6.816406 C 5.457031 6.785156 5.496094 6.765625 5.53125 6.773438 C 5.585938 6.789062 5.609375 6.847656 5.628906 6.898438 C 5.675781 7.003906 5.972656 7.511719 5.636719 7.425781 C 5.410156 7.371094 5.308594 6.976562 5.433594 6.816406 Z M 5.433594 6.816406"/><path style="stroke:none;fill-rule:nonzero;fill:#de7c8a;fill-opacity:1" d="M 6.835938 6.988281 C 6.835938 6.914062 6.816406 6.832031 6.75 6.789062 C 6.695312 6.75 6.613281 6.746094 6.546875 6.765625 C 6.410156 6.804688 6.304688 6.917969 6.277344 7.046875 C 6.261719 7.121094 6.253906 7.171875 6.203125 7.226562 C 6.171875 7.257812 6.078125 7.269531 6.070312 7.320312 C 6.050781 7.410156 6.203125 7.46875 6.277344 7.476562 C 6.542969 7.5 6.824219 7.234375 6.835938 6.988281 Z M 6.835938 6.988281"/><path style="stroke:none;fill-rule:nonzero;fill:#de7c8a;fill-opacity:1" d="M 6.855469 6.265625 C 6.824219 6.183594 6.78125 6.101562 6.714844 6.039062 C 6.648438 5.976562 6.5625 5.929688 6.46875 5.925781 C 6.375 5.925781 6.285156 5.972656 6.246094 6.054688 C 6.207031 6.132812 6.238281 6.242188 6.320312 6.285156 C 6.359375 6.304688 6.402344 6.3125 6.4375 6.328125 C 6.515625 6.359375 6.566406 6.425781 6.628906 6.480469 C 6.832031 6.648438 6.921875 6.445312 6.855469 6.265625 Z M 6.855469 6.265625"/><path style="stroke:none;fill-rule:nonzero;fill:#de7c8a;fill-opacity:1" d="M 7.019531 6.9375 C 7.011719 6.800781 7.023438 6.664062 7.054688 6.53125 C 7.058594 6.511719 7.070312 6.488281 7.089844 6.484375 C 7.113281 6.484375 7.125 6.511719 7.132812 6.535156 C 7.15625 6.625 7.179688 6.714844 7.171875 6.804688 C 7.160156 6.894531 7.117188 6.984375 7.03125 7.027344 C 7.023438 7.007812 7.019531 6.984375 7.011719 6.96875"/><path style="stroke:none;fill-rule:nonzero;fill:#de7c8a;fill-opacity:1" d="M 6.757812 7.484375 C 6.796875 7.359375 6.890625 7.246094 7.007812 7.179688 C 7.035156 7.253906 7.023438 7.335938 6.980469 7.402344 C 6.933594 7.464844 6.859375 7.507812 6.78125 7.511719"/><path style="stroke:none;fill-rule:nonzero;fill:#de7c8a;fill-opacity:1" d="M 6.414062 6.601562 C 6.464844 6.609375 6.519531 6.621094 6.570312 6.628906 C 6.5625 6.535156 6.453125 6.460938 6.359375 6.480469 C 6.359375 6.507812 6.359375 6.53125 6.359375 6.554688"/><path style="stroke:none;fill-rule:nonzero;fill:#de7c8a;fill-opacity:1" d="M 5.207031 5.816406 C 5.171875 5.769531 5.21875 5.699219 5.273438 5.699219 C 5.332031 5.699219 5.378906 5.765625 5.359375 5.820312 C 5.339844 5.871094 5.265625 5.890625 5.210938 5.863281"/><path style="stroke:none;fill-rule:nonzero;fill:#de7c8a;fill-opacity:1" d="M 5.730469 6.527344 C 5.761719 6.535156 5.792969 6.550781 5.820312 6.574219 C 5.90625 6.640625 6.1875 6.972656 5.925781 6.914062 C 5.796875 6.882812 5.496094 6.488281 5.730469 6.527344 Z M 5.730469 6.527344"/><path style="stroke:none;fill-rule:nonzero;fill:#de7c8a;fill-opacity:1" d="M 6.039062 6.636719 C 6.011719 6.585938 5.980469 6.539062 5.964844 6.484375 C 5.953125 6.429688 5.964844 6.367188 6.011719 6.339844 C 6.066406 6.304688 6.140625 6.332031 6.183594 6.382812 C 6.222656 6.429688 6.238281 6.492188 6.25 6.554688 C 6.265625 6.628906 6.332031 6.925781 6.214844 6.957031 C 6.089844 6.988281 6.070312 6.699219 6.039062 6.636719 Z M 6.039062 6.636719"/><path style="stroke:none;fill-rule:nonzero;fill:#da455a;fill-opacity:1" d="M 10.984375 8.183594 C 11.191406 7.371094 10.652344 6.535156 9.953125 6.339844 C 9.25 6.144531 8.390625 6.582031 8.183594 7.394531 C 7.980469 8.207031 8.503906 9.085938 9.207031 9.28125 C 9.914062 9.476562 10.78125 8.996094 10.984375 8.183594 Z M 10.984375 8.183594"/><path style="stroke:none;fill-rule:nonzero;fill:#de7c8a;fill-opacity:1" d="M 8.59375 7.148438 C 8.617188 7.105469 8.648438 7.058594 8.6875 7.027344 C 8.730469 6.992188 8.785156 6.976562 8.835938 6.992188 C 8.886719 7.007812 8.921875 7.054688 8.941406 7.105469 C 8.976562 7.199219 8.941406 7.320312 8.851562 7.355469 C 8.800781 7.378906 8.738281 7.371094 8.691406 7.398438 C 8.644531 7.421875 8.621094 7.472656 8.601562 7.519531 C 8.5625 7.613281 8.484375 7.738281 8.4375 7.585938 C 8.394531 7.460938 8.535156 7.25 8.59375 7.148438 Z M 8.59375 7.148438"/><path style="stroke:none;fill-rule:nonzero;fill:#de7c8a;fill-opacity:1" d="M 9.738281 7.058594 C 9.726562 6.953125 9.613281 6.882812 9.507812 6.875 C 9.308594 6.855469 8.917969 7.109375 9.167969 7.308594 C 9.332031 7.445312 9.769531 7.296875 9.738281 7.058594 Z M 9.738281 7.058594"/><path style="stroke:none;fill-rule:nonzero;fill:#de7c8a;fill-opacity:1" d="M 9.625 9.066406 C 9.683594 9.042969 9.742188 8.996094 9.738281 8.933594 C 9.734375 8.882812 9.6875 8.839844 9.636719 8.824219 C 9.585938 8.808594 9.53125 8.8125 9.480469 8.8125 C 9.300781 8.816406 9.160156 8.75 9 8.679688 C 8.878906 8.625 8.773438 8.582031 8.808594 8.746094 C 8.867188 9.050781 9.390625 9.164062 9.625 9.066406 Z M 9.625 9.066406"/><path style="stroke:none;fill-rule:nonzero;fill:#de7c8a;fill-opacity:1" d="M 9.070312 7.898438 C 9.089844 7.867188 9.128906 7.847656 9.167969 7.859375 C 9.222656 7.871094 9.246094 7.933594 9.265625 7.988281 C 9.3125 8.097656 9.613281 8.636719 9.273438 8.546875 C 9.046875 8.484375 8.941406 8.070312 9.070312 7.898438 Z M 9.070312 7.898438"/><path style="stroke:none;fill-rule:nonzero;fill:#de7c8a;fill-opacity:1" d="M 10.484375 8.082031 C 10.488281 8.003906 10.464844 7.917969 10.398438 7.871094 C 10.339844 7.828125 10.261719 7.828125 10.195312 7.847656 C 10.058594 7.886719 9.949219 8.003906 9.921875 8.144531 C 9.90625 8.21875 9.894531 8.273438 9.84375 8.332031 C 9.8125 8.367188 9.722656 8.378906 9.710938 8.429688 C 9.695312 8.527344 9.847656 8.589844 9.921875 8.597656 C 10.191406 8.621094 10.476562 8.34375 10.484375 8.082031 Z M 10.484375 8.082031"/><path style="stroke:none;fill-rule:nonzero;fill:#de7c8a;fill-opacity:1" d="M 10.507812 7.320312 C 10.476562 7.234375 10.429688 7.148438 10.363281 7.078125 C 10.296875 7.011719 10.207031 6.964844 10.117188 6.964844 C 10.023438 6.960938 9.929688 7.011719 9.890625 7.097656 C 9.855469 7.179688 9.886719 7.296875 9.964844 7.339844 C 10.003906 7.363281 10.046875 7.367188 10.085938 7.386719 C 10.160156 7.417969 10.210938 7.488281 10.277344 7.546875 C 10.480469 7.722656 10.574219 7.507812 10.507812 7.320312 Z M 10.507812 7.320312"/><path style="stroke:none;fill-rule:nonzero;fill:#de7c8a;fill-opacity:1" d="M 10.148438 6.8125 C 10.285156 6.847656 10.410156 6.933594 10.492188 7.050781 C 10.515625 7.082031 10.546875 7.121094 10.582031 7.117188 C 10.613281 7.109375 10.628906 7.078125 10.628906 7.046875 C 10.625 7.015625 10.609375 6.992188 10.589844 6.964844 C 10.507812 6.84375 10.394531 6.738281 10.269531 6.660156 C 10.214844 6.625 10.140625 6.601562 10.09375 6.640625 C 10.066406 6.667969 10.066406 6.714844 10.078125 6.75 C 10.09375 6.785156 10.117188 6.816406 10.144531 6.847656"/><path style="stroke:none;fill-rule:nonzero;fill:#de7c8a;fill-opacity:1" d="M 9.679688 7.707031 C 9.652344 7.65625 9.621094 7.609375 9.605469 7.550781 C 9.59375 7.496094 9.605469 7.425781 9.652344 7.398438 C 9.703125 7.363281 9.785156 7.390625 9.824219 7.441406 C 9.867188 7.492188 9.882812 7.5625 9.894531 7.625 C 9.910156 7.703125 9.976562 8.015625 9.855469 8.046875 C 9.730469 8.082031 9.710938 7.777344 9.679688 7.707031 Z M 9.679688 7.707031"/><path style="stroke:none;fill-rule:nonzero;fill:#da455a;fill-opacity:1" d="M 12.707031 11.769531 C 12.890625 11.046875 12.414062 10.296875 11.785156 10.125 C 11.160156 9.953125 10.394531 10.34375 10.214844 11.066406 C 10.03125 11.792969 10.5 12.574219 11.125 12.746094 C 11.75 12.917969 12.523438 12.492188 12.707031 11.769531 Z M 12.707031 11.769531"/><path style="stroke:none;fill-rule:nonzero;fill:#de7c8a;fill-opacity:1" d="M 10.578125 10.847656 C 10.601562 10.808594 10.625 10.765625 10.660156 10.738281 C 10.699219 10.707031 10.746094 10.691406 10.792969 10.707031 C 10.835938 10.722656 10.867188 10.761719 10.886719 10.804688 C 10.917969 10.890625 10.886719 10.996094 10.808594 11.03125 C 10.761719 11.050781 10.707031 11.042969 10.664062 11.066406 C 10.625 11.089844 10.601562 11.132812 10.585938 11.175781 C 10.546875 11.261719 10.480469 11.371094 10.4375 11.234375 C 10.402344 11.121094 10.523438 10.9375 10.578125 10.847656 Z M 10.578125 10.847656"/><path style="stroke:none;fill-rule:nonzero;fill:#de7c8a;fill-opacity:1" d="M 10.59375 12.003906 C 10.664062 12.0625 10.785156 12.066406 10.832031 11.988281 C 10.859375 11.941406 10.855469 11.882812 10.84375 11.824219 C 10.832031 11.75 10.820312 11.671875 10.808594 11.59375 C 10.804688 11.550781 10.796875 11.511719 10.773438 11.472656 C 10.679688 11.335938 10.503906 11.410156 10.480469 11.539062 C 10.453125 11.671875 10.488281 11.910156 10.59375 12.003906 Z M 10.59375 12.003906"/><path style="stroke:none;fill-rule:nonzero;fill:#de7c8a;fill-opacity:1" d="M 11.597656 10.765625 C 11.585938 10.671875 11.484375 10.609375 11.390625 10.601562 C 11.214844 10.582031 10.867188 10.808594 11.085938 10.988281 C 11.234375 11.109375 11.625 10.976562 11.597656 10.765625 Z M 11.597656 10.765625"/><path style="stroke:none;fill-rule:nonzero;fill:#de7c8a;fill-opacity:1" d="M 11.59375 10.285156 C 11.640625 10.292969 11.6875 10.300781 11.722656 10.328125 C 11.757812 10.359375 11.777344 10.414062 11.753906 10.453125 C 11.722656 10.5 11.652344 10.496094 11.59375 10.488281 C 11.492188 10.480469 11.136719 10.605469 11.097656 10.460938 C 11.054688 10.300781 11.496094 10.277344 11.59375 10.285156 Z M 11.59375 10.285156"/><path style="stroke:none;fill-rule:nonzero;fill:#de7c8a;fill-opacity:1" d="M 11.496094 12.554688 C 11.546875 12.53125 11.597656 12.492188 11.597656 12.433594 C 11.59375 12.386719 11.550781 12.351562 11.503906 12.335938 C 11.460938 12.324219 11.410156 12.328125 11.363281 12.328125 C 11.203125 12.328125 11.082031 12.269531 10.9375 12.207031 C 10.832031 12.160156 10.734375 12.121094 10.765625 12.269531 C 10.824219 12.539062 11.289062 12.640625 11.496094 12.554688 Z M 11.496094 12.554688"/><path style="stroke:none;fill-rule:nonzero;fill:#de7c8a;fill-opacity:1" d="M 11 11.515625 C 11.019531 11.484375 11.054688 11.46875 11.089844 11.476562 C 11.140625 11.488281 11.160156 11.546875 11.179688 11.589844 C 11.21875 11.691406 11.484375 12.167969 11.183594 12.085938 C 10.980469 12.035156 10.890625 11.664062 11 11.515625 Z M 11 11.515625"/><path style="stroke:none;fill-rule:nonzero;fill:#de7c8a;fill-opacity:1" d="M 12.261719 11.679688 C 12.265625 11.609375 12.242188 11.53125 12.183594 11.488281 C 12.132812 11.449219 12.0625 11.449219 12 11.46875 C 11.878906 11.503906 11.785156 11.609375 11.757812 11.734375 C 11.742188 11.796875 11.734375 11.847656 11.691406 11.898438 C 11.664062 11.929688 11.578125 11.941406 11.574219 11.988281 C 11.558594 12.074219 11.691406 12.128906 11.757812 12.132812 C 12 12.15625 12.253906 11.910156 12.261719 11.679688 Z M 12.261719 11.679688"/><path style="stroke:none;fill-rule:nonzero;fill:#de7c8a;fill-opacity:1" d="M 12.28125 11 C 12.253906 10.921875 12.210938 10.84375 12.152344 10.785156 C 12.09375 10.726562 12.015625 10.683594 11.933594 10.679688 C 11.851562 10.679688 11.765625 10.722656 11.734375 10.800781 C 11.699219 10.875 11.726562 10.976562 11.800781 11.015625 C 11.832031 11.035156 11.871094 11.042969 11.90625 11.054688 C 11.972656 11.085938 12.019531 11.148438 12.078125 11.199219 C 12.257812 11.359375 12.339844 11.167969 12.28125 11 Z M 12.28125 11"/><path style="stroke:none;fill-rule:nonzero;fill:#de7c8a;fill-opacity:1" d="M 12.425781 11.628906 C 12.421875 11.5 12.429688 11.371094 12.457031 11.246094 C 12.460938 11.226562 12.472656 11.207031 12.488281 11.203125 C 12.511719 11.203125 12.523438 11.230469 12.527344 11.25 C 12.550781 11.335938 12.570312 11.421875 12.5625 11.503906 C 12.554688 11.589844 12.515625 11.675781 12.4375 11.714844 C 12.429688 11.695312 12.425781 11.675781 12.421875 11.65625"/><path style="stroke:none;fill-rule:nonzero;fill:#de7c8a;fill-opacity:1" d="M 11.960938 10.546875 C 12.082031 10.578125 12.195312 10.65625 12.265625 10.757812 C 12.289062 10.789062 12.316406 10.824219 12.347656 10.816406 C 12.375 10.8125 12.390625 10.785156 12.386719 10.757812 C 12.386719 10.730469 12.371094 10.707031 12.355469 10.683594 C 12.277344 10.574219 12.179688 10.480469 12.066406 10.410156 C 12.019531 10.382812 11.953125 10.359375 11.914062 10.394531 C 11.890625 10.421875 11.886719 10.457031 11.898438 10.492188 C 11.910156 10.523438 11.933594 10.550781 11.957031 10.578125"/><path style="stroke:none;fill-rule:nonzero;fill:#de7c8a;fill-opacity:1" d="M 11.761719 12.488281 C 11.878906 12.453125 11.988281 12.398438 12.085938 12.324219 C 12.117188 12.300781 12.152344 12.253906 12.125 12.222656 C 12.109375 12.207031 12.085938 12.207031 12.0625 12.207031 C 11.921875 12.21875 11.789062 12.308594 11.726562 12.433594"/><path style="stroke:none;fill-rule:nonzero;fill:#de7c8a;fill-opacity:1" d="M 10.933594 10.578125 C 10.914062 10.628906 10.847656 10.648438 10.800781 10.621094"/><path style="stroke:none;fill-rule:nonzero;fill:#de7c8a;fill-opacity:1" d="M 10.796875 10.578125 C 10.765625 10.53125 10.804688 10.464844 10.859375 10.464844"/><path style="stroke:none;fill-rule:nonzero;fill:url(#radial0)" d="M 7.957031 4.574219 C 7.945312 4.9375 8.273438 5.242188 8.695312 5.257812 C 9.113281 5.269531 9.464844 4.988281 9.476562 4.628906 C 9.488281 4.265625 9.160156 3.960938 8.738281 3.949219 C 8.320312 3.933594 7.96875 4.214844 7.957031 4.574219 Z M 8.359375 4.589844 C 8.367188 4.421875 8.53125 4.289062 8.726562 4.296875 C 8.925781 4.300781 9.078125 4.445312 9.074219 4.613281 C 9.066406 4.785156 8.902344 4.914062 8.703125 4.910156 C 8.507812 4.902344 8.355469 4.757812 8.359375 4.589844 Z M 8.359375 4.589844"/><path style="stroke:none;fill-rule:nonzero;fill:url(#radial1)" d="M 7.890625 10.683594 C 7.996094 11.015625 8.398438 11.292969 8.726562 11.191406 C 9.054688 11.089844 9.183594 10.644531 9.082031 10.3125 C 8.976562 9.980469 8.628906 9.792969 8.296875 9.894531 C 7.96875 9.996094 7.789062 10.351562 7.890625 10.683594 Z M 8.207031 10.585938 C 8.160156 10.429688 8.246094 10.265625 8.398438 10.214844 C 8.550781 10.167969 8.714844 10.257812 8.765625 10.410156 C 8.8125 10.566406 8.726562 10.734375 8.574219 10.78125 C 8.421875 10.828125 8.257812 10.738281 8.207031 10.585938 Z M 8.207031 10.585938"/></g></svg>