<svg xmlns="http://www.w3.org/2000/svg" xmlns:xlink="http://www.w3.org/1999/xlink" width="16pt" height="16pt" version="1.1" viewBox="0 0 16 16"><defs><linearGradient id="linear0" x1="63.997" x2="63.997" y1="14.837" y2="122.33" gradientTransform="matrix(0.121345,0,0,0.121345,0.233731,-0.310944)" gradientUnits="userSpaceOnUse"><stop offset=".003" style="stop-color:#cca093;stop-opacity:1"/><stop offset=".842" style="stop-color:#8a533f;stop-opacity:1"/></linearGradient><clipPath id="clip1"><path d="M 4 10 L 12 10 L 12 14 L 4 14 Z M 4 10"/></clipPath><clipPath id="clip2"><path d="M 8 10.605469 C 6.84375 10.605469 5.769531 10.507812 4.875 10.34375 C 4.652344 10.300781 4.457031 10.496094 4.5 10.71875 C 4.796875 12.171875 6.234375 13.371094 7.996094 13.371094 C 9.929688 13.371094 11.230469 12.132812 11.5 10.710938 C 11.539062 10.492188 11.34375 10.300781 11.125 10.34375 C 10.230469 10.507812 9.15625 10.605469 8 10.605469 Z M 8 10.605469"/></clipPath></defs><g id="surface1"><path style="stroke:none;fill-rule:nonzero;fill:url(#linear0)" d="M 7.992188 14.535156 C 3.957031 14.535156 2.8125 14.203125 1.976562 13.960938 C 1.886719 13.933594 1.800781 13.90625 1.710938 13.882812 C 0.945312 13.671875 0.886719 12.671875 1.03125 12.09375 C 1.191406 11.457031 1.734375 10.957031 2.480469 10.757812 C 2.621094 10.722656 2.726562 10.625 2.78125 10.496094 C 2.835938 10.363281 2.820312 10.21875 2.75 10.097656 C 2.550781 9.765625 2.496094 9.378906 2.597656 9.027344 C 2.699219 8.675781 2.960938 8.347656 3.316406 8.132812 C 3.457031 8.046875 3.59375 8.007812 3.78125 7.964844 C 3.789062 7.964844 3.800781 7.960938 3.816406 7.960938 C 3.957031 7.9375 4.167969 7.902344 4.253906 7.730469 C 4.296875 7.644531 4.296875 7.542969 4.246094 7.453125 C 4.039062 7.054688 4.023438 6.59375 4.207031 6.15625 C 4.40625 5.671875 4.816406 5.296875 5.304688 5.148438 C 5.320312 5.144531 5.367188 5.136719 5.398438 5.132812 C 5.539062 5.117188 5.714844 5.09375 5.789062 4.9375 C 5.832031 4.851562 5.828125 4.753906 5.777344 4.667969 C 5.261719 3.769531 5.785156 3.375 6.246094 3.023438 C 6.464844 2.859375 6.636719 2.730469 6.667969 2.535156 C 6.738281 2.132812 6.691406 1.828125 6.507812 1.488281 C 7.25 1.710938 7.808594 1.917969 8.410156 2.277344 C 9.621094 3 10.128906 3.652344 9.957031 4.269531 C 9.953125 4.285156 9.949219 4.300781 9.941406 4.320312 C 9.921875 4.390625 9.894531 4.476562 9.894531 4.574219 C 9.894531 4.964844 10.386719 5.121094 10.746094 5.234375 C 10.835938 5.261719 10.929688 5.292969 10.964844 5.3125 C 11.269531 5.464844 11.523438 5.710938 11.679688 6.007812 C 11.828125 6.277344 11.894531 6.597656 11.875 6.910156 C 11.871094 6.9375 11.84375 7.027344 11.824219 7.082031 C 11.75 7.296875 11.671875 7.535156 11.769531 7.734375 C 11.820312 7.832031 11.902344 7.902344 12.011719 7.9375 C 12.722656 8.171875 13.109375 8.488281 13.269531 8.960938 C 13.371094 9.261719 13.363281 9.597656 13.25 9.894531 C 13.242188 9.914062 13.230469 9.941406 13.214844 9.96875 C 13.144531 10.125 13.039062 10.359375 13.144531 10.566406 C 13.183594 10.644531 13.269531 10.746094 13.453125 10.78125 C 14.226562 10.941406 14.78125 11.417969 14.972656 12.089844 C 14.980469 12.121094 14.988281 12.152344 14.996094 12.1875 C 15.09375 12.714844 15.015625 13.601562 14.398438 13.867188 C 13.640625 14.191406 11.140625 14.535156 7.992188 14.535156 Z M 7.992188 14.535156"/><path style="stroke:none;fill-rule:nonzero;fill:#703d2b;fill-opacity:1" d="M 6.910156 1.871094 C 7.414062 2.039062 7.839844 2.222656 8.285156 2.484375 C 9.375 3.136719 9.859375 3.714844 9.722656 4.207031 C 9.71875 4.21875 9.714844 4.234375 9.710938 4.246094 C 9.6875 4.328125 9.652344 4.441406 9.652344 4.578125 C 9.652344 5.144531 10.269531 5.335938 10.675781 5.464844 C 10.738281 5.488281 10.832031 5.515625 10.855469 5.527344 C 11.117188 5.660156 11.332031 5.871094 11.46875 6.121094 C 11.589844 6.347656 11.648438 6.617188 11.632812 6.878906 C 11.628906 6.90625 11.609375 6.964844 11.59375 7.007812 C 11.515625 7.238281 11.410156 7.550781 11.554688 7.84375 C 11.632812 8 11.765625 8.113281 11.933594 8.167969 C 12.566406 8.378906 12.90625 8.648438 13.039062 9.042969 C 13.121094 9.289062 13.117188 9.566406 13.023438 9.808594 C 13.015625 9.824219 13.007812 9.847656 12.996094 9.871094 C 12.910156 10.054688 12.769531 10.367188 12.925781 10.675781 C 13.019531 10.855469 13.1875 10.976562 13.402344 11.023438 C 13.804688 11.101562 14.511719 11.359375 14.738281 12.160156 C 14.746094 12.179688 14.75 12.203125 14.753906 12.234375 C 14.835938 12.667969 14.785156 13.4375 14.300781 13.644531 C 13.714844 13.894531 11.484375 14.292969 7.988281 14.292969 C 3.992188 14.292969 2.867188 13.964844 2.042969 13.730469 C 1.949219 13.703125 1.863281 13.675781 1.773438 13.652344 C 1.148438 13.480469 1.164062 12.570312 1.265625 12.15625 C 1.402344 11.609375 1.882812 11.175781 2.542969 10.996094 C 2.753906 10.941406 2.921875 10.792969 3.003906 10.589844 C 3.085938 10.386719 3.070312 10.164062 2.957031 9.976562 C 2.792969 9.703125 2.746094 9.382812 2.828125 9.097656 C 2.914062 8.804688 3.136719 8.53125 3.441406 8.34375 C 3.554688 8.277344 3.664062 8.242188 3.828125 8.207031 C 3.835938 8.207031 3.84375 8.207031 3.855469 8.203125 C 4.019531 8.175781 4.332031 8.125 4.472656 7.84375 C 4.546875 7.6875 4.546875 7.503906 4.460938 7.347656 C 4.285156 7.011719 4.277344 6.625 4.429688 6.253906 C 4.601562 5.84375 4.953125 5.519531 5.367188 5.386719 C 5.382812 5.386719 5.410156 5.382812 5.429688 5.378906 C 5.597656 5.359375 5.875 5.320312 6.007812 5.050781 C 6.085938 4.894531 6.078125 4.707031 5.988281 4.550781 C 5.601562 3.871094 5.890625 3.605469 6.394531 3.222656 C 6.632812 3.039062 6.859375 2.871094 6.90625 2.582031 C 6.953125 2.316406 6.953125 2.089844 6.910156 1.871094 M 6.421875 1.222656 C 6.273438 1.222656 6.167969 1.390625 6.253906 1.53125 C 6.445312 1.851562 6.496094 2.113281 6.429688 2.496094 C 6.367188 2.851562 4.710938 3.292969 5.566406 4.789062 C 5.628906 4.894531 5.347656 4.882812 5.234375 4.917969 C 4.148438 5.25 3.484375 6.523438 4.03125 7.566406 C 4.097656 7.6875 3.804688 7.714844 3.730469 7.730469 C 3.527344 7.773438 3.363281 7.820312 3.191406 7.925781 C 2.785156 8.171875 2.484375 8.546875 2.363281 8.960938 C 2.242188 9.382812 2.3125 9.839844 2.542969 10.222656 C 2.613281 10.339844 2.550781 10.492188 2.421875 10.527344 C 1.660156 10.730469 0.992188 11.253906 0.796875 12.039062 C 0.625 12.722656 0.722656 13.867188 1.644531 14.121094 C 2.570312 14.375 3.5 14.777344 7.992188 14.777344 C 11.289062 14.777344 13.734375 14.417969 14.492188 14.089844 C 15.25 13.765625 15.347656 12.75 15.234375 12.144531 C 15.226562 12.101562 15.214844 12.0625 15.207031 12.027344 C 14.976562 11.210938 14.308594 10.710938 13.5 10.546875 C 13.199219 10.484375 13.414062 10.148438 13.476562 9.984375 C 13.613281 9.632812 13.621094 9.238281 13.5 8.886719 C 13.28125 8.234375 12.707031 7.914062 12.089844 7.710938 C 11.808594 7.617188 12.105469 7.128906 12.117188 6.925781 C 12.140625 6.570312 12.066406 6.207031 11.894531 5.890625 C 11.714844 5.550781 11.421875 5.269531 11.078125 5.097656 C 10.871094 4.992188 10.140625 4.871094 10.140625 4.578125 C 10.140625 4.496094 10.171875 4.417969 10.191406 4.335938 C 10.472656 3.328125 9.257812 2.503906 8.535156 2.070312 C 7.867188 1.671875 7.253906 1.460938 6.484375 1.234375 C 6.464844 1.222656 6.441406 1.222656 6.421875 1.222656 Z M 6.421875 1.222656"/><path style="stroke:none;fill-rule:nonzero;fill:#fff;fill-opacity:1" d="M 11.460938 8.121094 C 11.460938 8.953125 10.789062 9.625 9.957031 9.625 C 9.125 9.625 8.453125 8.953125 8.453125 8.121094 C 8.453125 7.289062 9.125 6.617188 9.957031 6.617188 C 10.789062 6.617188 11.460938 7.289062 11.460938 8.121094 Z M 11.460938 8.121094"/><path style="stroke:none;fill-rule:nonzero;fill:#242424;fill-opacity:1" d="M 10.652344 8.121094 C 10.652344 7.730469 10.339844 7.414062 9.957031 7.414062 C 9.574219 7.414062 9.261719 7.730469 9.261719 8.121094 C 9.261719 8.511719 9.574219 8.828125 9.957031 8.828125 C 10.339844 8.828125 10.652344 8.511719 10.652344 8.121094 Z M 10.652344 8.121094"/><path style="stroke:none;fill-rule:nonzero;fill:#fff;fill-opacity:1" d="M 7.546875 8.121094 C 7.546875 8.953125 6.875 9.625 6.042969 9.625 C 5.210938 9.625 4.539062 8.953125 4.539062 8.121094 C 4.539062 7.289062 5.210938 6.617188 6.042969 6.617188 C 6.875 6.617188 7.546875 7.289062 7.546875 8.121094 Z M 7.546875 8.121094"/><path style="stroke:none;fill-rule:nonzero;fill:#242424;fill-opacity:1" d="M 6.738281 8.121094 C 6.738281 7.730469 6.425781 7.414062 6.042969 7.414062 C 5.660156 7.414062 5.347656 7.730469 5.347656 8.121094 C 5.347656 8.511719 5.660156 8.828125 6.042969 8.828125 C 6.425781 8.828125 6.738281 8.511719 6.738281 8.121094 Z M 6.738281 8.121094"/><g clip-path="url(#clip1)" clip-rule="nonzero"><g clip-path="url(#clip2)" clip-rule="nonzero"><path style="stroke:none;fill-rule:nonzero;fill:#000;fill-opacity:1" d="M 8 10.605469 C 6.84375 10.605469 5.769531 10.507812 4.875 10.34375 C 4.652344 10.300781 4.457031 10.496094 4.5 10.71875 C 4.796875 12.171875 6.234375 13.371094 7.996094 13.371094 C 9.929688 13.371094 11.230469 12.132812 11.5 10.710938 C 11.539062 10.492188 11.34375 10.300781 11.125 10.34375 C 10.230469 10.507812 9.15625 10.605469 8 10.605469 Z M 8 10.605469"/></g></g></g></svg>