<svg xmlns="http://www.w3.org/2000/svg" xmlns:xlink="http://www.w3.org/1999/xlink" width="16pt" height="16pt" version="1.1" viewBox="0 0 16 16"><defs><linearGradient id="linear0" x1="64" x2="64" y1="20.717" y2="108.7" gradientTransform="matrix(0.125,0,0,0.125,0,0)" gradientUnits="userSpaceOnUse"><stop offset=".451" style="stop-color:#fee133;stop-opacity:1"/><stop offset=".544" style="stop-color:#fdd831;stop-opacity:1"/><stop offset=".698" style="stop-color:#fabf2a;stop-opacity:1"/><stop offset=".837" style="stop-color:#f6a323;stop-opacity:1"/></linearGradient><linearGradient id="linear1" x1="14.615" x2="46.992" y1="115.8" y2="64.922" gradientTransform="matrix(0.125,0,0,0.125,0,0)" gradientUnits="userSpaceOnUse"><stop offset=".008" style="stop-color:#f6a323;stop-opacity:1"/><stop offset=".025" style="stop-color:#f7a724;stop-opacity:1"/><stop offset=".145" style="stop-color:#fac12b;stop-opacity:1"/><stop offset=".27" style="stop-color:#fcd32f;stop-opacity:1"/><stop offset=".401" style="stop-color:#fede32;stop-opacity:1"/><stop offset=".549" style="stop-color:#fee133;stop-opacity:1"/></linearGradient></defs><g id="surface1"><path style="stroke:none;fill-rule:nonzero;fill:url(#linear0)" d="M 8 15.109375 C 4.507812 15.109375 0.75 12.925781 0.75 8.125 C 0.75 3.324219 4.507812 1.140625 8 1.140625 C 9.933594 1.140625 11.726562 1.777344 13.046875 2.941406 C 14.488281 4.214844 15.25 6.007812 15.25 8.125 C 15.25 10.234375 14.488281 12.019531 13.046875 13.296875 C 11.722656 14.46875 9.929688 15.109375 8 15.109375 Z M 8 15.109375"/><path style="stroke:none;fill-rule:nonzero;fill:#eb8f00;fill-opacity:1" d="M 8 1.390625 C 9.875 1.390625 11.609375 2.007812 12.878906 3.128906 C 14.265625 4.355469 15 6.082031 15 8.125 C 15 10.160156 14.265625 11.882812 12.878906 13.109375 C 11.601562 14.238281 9.871094 14.859375 8 14.859375 C 6.121094 14.859375 4.386719 14.246094 3.121094 13.132812 C 1.734375 11.914062 1 10.183594 1 8.125 C 1 6.058594 1.734375 4.324219 3.121094 3.105469 C 4.382812 2 6.117188 1.390625 8 1.390625 M 8 0.890625 C 4.105469 0.890625 0.5 3.390625 0.5 8.125 C 0.5 12.835938 4.105469 15.359375 8 15.359375 C 11.894531 15.359375 15.5 12.769531 15.5 8.125 C 15.5 3.453125 11.894531 0.890625 8 0.890625 Z M 8 0.890625"/><path style="fill-rule:nonzero;fill:#eb8f00;fill-opacity:1;stroke-width:1;stroke-linecap:butt;stroke-linejoin:miter;stroke:#eb8f00;stroke-opacity:1;stroke-miterlimit:10" d="M 39.625 10.6875 C 39.1875 9.9375 39.125 9.03125 39.46875 8.25 C 39.8125 7.5 40.53125 6.96875 41.4375 6.8125 C 46.75 5.90625 52.40625 7.1875 57 10.34375 C 58.6875 11.5 60.21875 12.875 61.46875 14.46875 C 61.5625 14.59375 61.625 14.6875 61.6875 14.8125 C 62.375 15.9375 62.15625 17.25 61.15625 18.0625 C 60.28125 18.8125 58.75 19.03125 57.59375 18 L 58 17.3125 L 57.5 17.90625 C 53.1875 14.28125 47.5 12.125 41.9375 12 C 40.96875 12 40.125 11.5 39.625 10.6875 Z M 39.625 10.6875" transform="matrix(0.125,0,0,0.125,0,0)"/><path style="fill-rule:nonzero;fill:#eb8f00;fill-opacity:1;stroke-width:1;stroke-linecap:butt;stroke-linejoin:miter;stroke:#eb8f00;stroke-opacity:1;stroke-miterlimit:10" d="M 90.65625 18.28125 C 91.46875 18.625 92.0625 19.34375 92.21875 20.15625 C 92.375 21 92.125 21.8125 91.4375 22.5 C 87.65625 26.3125 82.28125 28.53125 76.71875 28.625 C 74.65625 28.65625 72.625 28.375 70.65625 27.8125 C 70.53125 27.78125 70.40625 27.71875 70.3125 27.65625 C 69.09375 27.125 68.53125 25.9375 68.84375 24.71875 C 69.15625 23.59375 70.25 22.53125 71.8125 22.6875 L 71.875 23.5 L 71.9375 22.71875 C 77.5625 23.1875 83.4375 21.65625 88.03125 18.5625 C 88.8125 18 89.78125 17.875 90.65625 18.28125 Z M 90.65625 18.28125" transform="matrix(0.125,0,0,0.125,0,0)"/><path style="stroke:none;fill-rule:nonzero;fill:#242424;fill-opacity:1" d="M 9.515625 8.6875 C 9.472656 8.679688 9.4375 8.660156 9.40625 8.632812 C 8.871094 8.171875 8.207031 7.84375 7.464844 7.679688 C 6.726562 7.511719 5.984375 7.519531 5.304688 7.707031 C 5.265625 7.71875 5.222656 7.71875 5.183594 7.710938 C 5.097656 7.6875 5.03125 7.617188 5.015625 7.527344 C 5 7.441406 5.035156 7.355469 5.109375 7.304688 C 5.847656 6.792969 6.769531 6.621094 7.660156 6.820312 C 8.546875 7.019531 9.304688 7.574219 9.753906 8.351562 C 9.800781 8.429688 9.796875 8.523438 9.742188 8.59375 C 9.691406 8.667969 9.601562 8.703125 9.515625 8.6875 Z M 9.515625 8.6875"/><path style="stroke:none;fill-rule:nonzero;fill:url(#linear1)" d="M 3.398438 15.441406 C 2.890625 15.441406 2.441406 15.296875 2.023438 15 C 1.246094 14.445312 1.113281 13.535156 1 12.734375 C 0.933594 12.285156 0.984375 12.003906 1.03125 11.753906 C 1.078125 11.488281 1.117188 11.257812 1.019531 10.828125 C 0.996094 10.730469 0.929688 10.574219 0.867188 10.425781 C 0.683594 10.007812 0.476562 9.53125 0.730469 9.226562 C 0.863281 9.0625 1.09375 8.96875 1.359375 8.96875 C 1.601562 8.96875 1.832031 9.046875 1.992188 9.1875 C 2.332031 9.480469 2.492188 9.796875 2.679688 10.535156 C 2.757812 10.839844 2.863281 10.929688 3.027344 10.992188 C 3.0625 11.007812 3.101562 11.015625 3.148438 11.015625 C 3.339844 11.015625 3.652344 10.914062 4.199219 10.679688 C 4.40625 10.589844 4.667969 10.464844 4.945312 10.328125 C 5.800781 9.90625 6.773438 9.433594 7.433594 9.433594 C 7.542969 9.433594 7.640625 9.445312 7.730469 9.472656 C 8.039062 9.558594 8.246094 9.765625 8.300781 10.03125 C 8.359375 10.300781 8.25 10.59375 8.027344 10.78125 C 7.796875 10.976562 6.777344 11.453125 6.15625 11.683594 C 6.207031 11.734375 6.25 11.789062 6.285156 11.851562 C 6.378906 12.039062 6.378906 12.269531 6.285156 12.558594 C 6.265625 12.613281 6.242188 12.660156 6.21875 12.695312 C 6.398438 12.917969 6.445312 13.1875 6.355469 13.476562 C 6.335938 13.542969 6.308594 13.597656 6.273438 13.644531 C 6.355469 13.734375 6.445312 13.890625 6.40625 14.140625 C 6.3125 14.726562 5.6875 14.910156 4.824219 15.164062 C 4.734375 15.191406 4.640625 15.21875 4.546875 15.246094 C 4.113281 15.378906 3.738281 15.441406 3.398438 15.441406 Z M 3.398438 15.441406"/><path style="stroke:none;fill-rule:nonzero;fill:#eb8f00;fill-opacity:1" d="M 1.359375 9.222656 C 1.527344 9.222656 1.703125 9.273438 1.828125 9.378906 C 2.125 9.636719 2.261719 9.90625 2.4375 10.601562 C 2.53125 10.972656 2.6875 11.132812 2.9375 11.230469 C 3 11.253906 3.070312 11.265625 3.148438 11.265625 C 3.390625 11.265625 3.730469 11.15625 4.296875 10.914062 C 5.105469 10.570312 6.613281 9.6875 7.433594 9.6875 C 7.515625 9.6875 7.59375 9.695312 7.660156 9.714844 C 8.171875 9.863281 8.152344 10.351562 7.863281 10.59375 C 7.664062 10.761719 6.53125 11.300781 5.914062 11.507812 C 5.46875 11.660156 5.382812 11.707031 5.390625 11.742188 C 5.390625 11.75 5.402344 11.753906 5.417969 11.753906 C 5.457031 11.753906 5.535156 11.738281 5.621094 11.738281 C 5.671875 11.738281 5.722656 11.742188 5.777344 11.761719 C 6.175781 11.882812 6.128906 12.222656 6.042969 12.484375 C 5.980469 12.671875 5.863281 12.640625 5.882812 12.734375 C 5.890625 12.773438 5.972656 12.800781 6 12.835938 C 6.125 12.976562 6.1875 13.160156 6.113281 13.40625 C 6.089844 13.476562 6.066406 13.515625 5.996094 13.558594 C 5.929688 13.601562 5.921875 13.65625 5.976562 13.714844 C 6.042969 13.789062 6.195312 13.84375 6.15625 14.105469 C 6.078125 14.578125 5.445312 14.71875 4.472656 15.007812 C 4.074219 15.128906 3.71875 15.191406 3.398438 15.191406 C 2.9375 15.191406 2.542969 15.0625 2.167969 14.796875 C 1.5 14.324219 1.371094 13.570312 1.246094 12.699219 C 1.117188 11.824219 1.46875 11.671875 1.261719 10.769531 C 1.175781 10.394531 0.691406 9.660156 0.917969 9.386719 C 1.011719 9.277344 1.179688 9.222656 1.359375 9.222656 M 1.359375 8.722656 C 1.015625 8.722656 0.714844 8.847656 0.535156 9.070312 C 0.183594 9.492188 0.433594 10.066406 0.636719 10.527344 C 0.695312 10.660156 0.757812 10.808594 0.777344 10.882812 C 0.863281 11.265625 0.828125 11.453125 0.785156 11.710938 C 0.738281 11.964844 0.679688 12.28125 0.75 12.769531 C 0.875 13.625 1.015625 14.589844 1.878906 15.207031 C 2.339844 15.53125 2.835938 15.691406 3.402344 15.691406 C 3.765625 15.691406 4.164062 15.625 4.617188 15.488281 C 4.710938 15.460938 4.800781 15.433594 4.890625 15.410156 C 5.808594 15.140625 6.53125 14.925781 6.652344 14.183594 C 6.691406 13.941406 6.640625 13.761719 6.566406 13.632812 C 6.578125 13.605469 6.585938 13.578125 6.59375 13.554688 C 6.691406 13.242188 6.65625 12.9375 6.503906 12.679688 C 6.511719 12.667969 6.515625 12.652344 6.519531 12.640625 C 6.558594 12.515625 6.679688 12.15625 6.535156 11.808594 C 7.148438 11.554688 7.960938 11.167969 8.1875 10.976562 C 8.484375 10.726562 8.621094 10.347656 8.546875 9.984375 C 8.46875 9.625 8.199219 9.351562 7.800781 9.234375 C 7.691406 9.203125 7.566406 9.1875 7.433594 9.1875 C 6.714844 9.1875 5.714844 9.675781 4.835938 10.105469 C 4.5625 10.238281 4.300781 10.367188 4.101562 10.453125 C 3.785156 10.585938 3.34375 10.765625 3.148438 10.765625 C 3.132812 10.765625 3.121094 10.761719 3.117188 10.761719 C 3.039062 10.734375 2.984375 10.710938 2.921875 10.476562 C 2.746094 9.769531 2.582031 9.371094 2.15625 9 C 1.949219 8.824219 1.660156 8.722656 1.359375 8.722656 Z M 1.359375 8.722656"/><path style="stroke:none;fill-rule:nonzero;fill:#242424;fill-opacity:1" d="M 10.097656 3.890625 C 10.621094 3.890625 11.097656 4.332031 11.097656 5.066406 C 11.097656 5.800781 10.621094 6.242188 10.097656 6.242188 C 9.574219 6.242188 9.097656 5.800781 9.097656 5.066406 C 9.097656 4.332031 9.574219 3.890625 10.097656 3.890625 Z M 10.097656 3.890625"/><path style="stroke:none;fill-rule:nonzero;fill:#242424;fill-opacity:1" d="M 5.765625 2.753906 C 5.242188 2.753906 4.765625 3.195312 4.765625 3.929688 C 4.765625 4.667969 5.242188 5.109375 5.765625 5.109375 C 6.292969 5.109375 6.765625 4.667969 6.765625 3.929688 C 6.765625 3.195312 6.292969 2.753906 5.765625 2.753906 Z M 5.765625 2.753906"/></g></svg>