<svg xmlns="http://www.w3.org/2000/svg" xmlns:xlink="http://www.w3.org/1999/xlink" width="16pt" height="16pt" version="1.1" viewBox="0 0 16 16"><defs><linearGradient id="linear0" x1="64" x2="64" y1="3.167" y2="124.88" gradientTransform="matrix(0.125,0,0,0.125,0,0)" gradientUnits="userSpaceOnUse"><stop offset="0" style="stop-color:#ffeb3b;stop-opacity:1"/><stop offset=".419" style="stop-color:#ffdc28;stop-opacity:1"/><stop offset=".995" style="stop-color:#ffc107;stop-opacity:1"/></linearGradient><filter id="alpha" width="100%" height="100%" x="0%" y="0%" filterUnits="objectBoundingBox"><feColorMatrix in="SourceGraphic" type="matrix" values="0 0 0 0 1 0 0 0 0 1 0 0 0 0 1 0 0 0 1 0"/></filter><mask id="mask0"><g filter="url(#alpha)"><rect width="16" height="16" x="0" y="0" style="fill:#000;fill-opacity:.2;stroke:none"/></g></mask><clipPath id="clip1"><rect width="16" height="16"/></clipPath><g id="surface6" clip-path="url(#clip1)"><path style="stroke:none;fill-rule:nonzero;fill:#424242;fill-opacity:1" d="M 8 0.875 C 11.929688 0.875 15.125 4.070312 15.125 8 C 15.125 11.929688 11.929688 15.125 8 15.125 C 4.070312 15.125 0.875 11.929688 0.875 8 C 0.875 4.070312 4.070312 0.875 8 0.875 M 8 0.5 C 3.859375 0.5 0.5 3.859375 0.5 8 C 0.5 12.140625 3.859375 15.5 8 15.5 C 12.140625 15.5 15.5 12.140625 15.5 8 C 15.5 3.859375 12.140625 0.5 8 0.5 Z M 8 0.5"/></g><mask id="mask1"><g filter="url(#alpha)"><rect width="16" height="16" x="0" y="0" style="fill:#000;fill-opacity:.2;stroke:none"/></g></mask><clipPath id="clip2"><rect width="16" height="16"/></clipPath><g id="surface9" clip-path="url(#clip2)"><path style="stroke:none;fill-rule:nonzero;fill:#424242;fill-opacity:1" d="M 11.015625 3.046875 C 11.058594 3.046875 11.101562 3.058594 11.140625 3.082031 C 12.71875 4.085938 13.792969 5.820312 13.871094 7.8125 C 13.875 7.9375 13.773438 8.046875 13.644531 8.046875 L 9.5625 8.046875 C 9.453125 8.046875 9.359375 7.96875 9.34375 7.859375 C 9.296875 7.507812 9.109375 7.195312 8.84375 6.984375 C 8.753906 6.914062 8.726562 6.792969 8.78125 6.691406 L 10.824219 3.15625 C 10.863281 3.085938 10.9375 3.046875 11.015625 3.046875 M 11.015625 2.671875 C 10.800781 2.671875 10.605469 2.785156 10.496094 2.96875 L 8.457031 6.507812 C 8.304688 6.765625 8.371094 7.089844 8.609375 7.28125 C 8.808594 7.4375 8.9375 7.664062 8.972656 7.914062 C 9.011719 8.203125 9.265625 8.421875 9.5625 8.421875 L 13.644531 8.421875 C 13.808594 8.421875 13.964844 8.355469 14.078125 8.238281 C 14.191406 8.121094 14.25 7.960938 14.246094 7.796875 C 14.164062 5.75 13.078125 3.867188 11.339844 2.765625 C 11.242188 2.703125 11.132812 2.671875 11.015625 2.671875 Z M 11.015625 2.671875"/><path style="stroke:none;fill-rule:nonzero;fill:#424242;fill-opacity:1" d="M 4.984375 3.046875 C 5.0625 3.046875 5.136719 3.085938 5.175781 3.15625 L 7.21875 6.695312 C 7.277344 6.792969 7.246094 6.914062 7.15625 6.984375 C 6.890625 7.199219 6.703125 7.507812 6.65625 7.859375 C 6.640625 7.96875 6.546875 8.046875 6.4375 8.046875 L 2.355469 8.046875 C 2.226562 8.046875 2.125 7.941406 2.128906 7.8125 C 2.207031 5.820312 3.277344 4.085938 4.859375 3.082031 C 4.898438 3.058594 4.941406 3.046875 4.984375 3.046875 M 4.984375 2.671875 C 4.867188 2.671875 4.757812 2.703125 4.660156 2.765625 C 2.921875 3.867188 1.835938 5.746094 1.753906 7.796875 C 1.75 7.957031 1.808594 8.121094 1.921875 8.238281 C 2.035156 8.355469 2.191406 8.421875 2.355469 8.421875 L 6.4375 8.421875 C 6.734375 8.421875 6.988281 8.203125 7.027344 7.910156 C 7.0625 7.660156 7.191406 7.4375 7.390625 7.277344 C 7.628906 7.089844 7.695312 6.765625 7.542969 6.503906 L 5.503906 2.96875 C 5.394531 2.785156 5.199219 2.671875 4.984375 2.671875 Z M 4.984375 2.671875"/><path style="stroke:none;fill-rule:nonzero;fill:#424242;fill-opacity:1" d="M 8.589844 9.289062 C 8.667969 9.289062 8.742188 9.328125 8.78125 9.398438 L 10.824219 12.9375 C 10.886719 13.046875 10.84375 13.1875 10.730469 13.246094 C 9.914062 13.675781 8.984375 13.921875 8 13.921875 C 7.011719 13.921875 6.082031 13.675781 5.265625 13.246094 C 5.152344 13.1875 5.109375 13.046875 5.175781 12.9375 L 7.21875 9.398438 C 7.261719 9.328125 7.332031 9.289062 7.410156 9.289062 C 7.4375 9.289062 7.464844 9.292969 7.492188 9.304688 C 7.648438 9.367188 7.820312 9.402344 8 9.402344 C 8.179688 9.402344 8.351562 9.367188 8.507812 9.304688 C 8.535156 9.292969 8.5625 9.289062 8.589844 9.289062 M 8.589844 8.914062 C 8.511719 8.914062 8.4375 8.925781 8.367188 8.957031 C 8.25 9.003906 8.125 9.027344 8 9.027344 C 7.875 9.027344 7.75 9.003906 7.632812 8.957031 C 7.5625 8.925781 7.488281 8.914062 7.410156 8.914062 C 7.199219 8.914062 7 9.027344 6.894531 9.210938 L 4.851562 12.75 C 4.769531 12.890625 4.75 13.054688 4.796875 13.214844 C 4.839844 13.371094 4.949219 13.503906 5.09375 13.578125 C 5.984375 14.046875 6.988281 14.296875 8 14.296875 C 9.011719 14.296875 10.015625 14.050781 10.90625 13.578125 C 11.050781 13.503906 11.160156 13.371094 11.203125 13.214844 C 11.25 13.054688 11.230469 12.890625 11.148438 12.75 L 9.105469 9.210938 C 9 9.027344 8.800781 8.914062 8.589844 8.914062 Z M 8.589844 8.914062"/><path style="stroke:none;fill-rule:nonzero;fill:#424242;fill-opacity:1" d="M 8 7.140625 C 8.5 7.140625 8.902344 7.546875 8.902344 8.046875 C 8.902344 8.546875 8.5 8.949219 8 8.949219 C 7.5 8.949219 7.097656 8.546875 7.097656 8.046875 C 7.097656 7.546875 7.5 7.140625 8 7.140625 M 8 6.765625 C 7.296875 6.765625 6.722656 7.339844 6.722656 8.046875 C 6.722656 8.75 7.296875 9.324219 8 9.324219 C 8.703125 9.324219 9.277344 8.75 9.277344 8.046875 C 9.277344 7.339844 8.703125 6.765625 8 6.765625 Z M 8 6.765625"/></g><linearGradient id="linear1" x1="90.488" x2="90.488" y1="22.5" y2="113.37" gradientTransform="matrix(0.125,0,0,0.125,0,0)" gradientUnits="userSpaceOnUse"><stop offset="0" style="stop-color:#616161;stop-opacity:1"/><stop offset=".495" style="stop-color:#3f3f3f;stop-opacity:1"/><stop offset="1" style="stop-color:#212121;stop-opacity:1"/></linearGradient><linearGradient id="linear2" x1="37.512" x2="37.512" y1="22.5" y2="113.37" gradientTransform="matrix(0.125,0,0,0.125,0,0)" gradientUnits="userSpaceOnUse"><stop offset="0" style="stop-color:#616161;stop-opacity:1"/><stop offset=".495" style="stop-color:#3f3f3f;stop-opacity:1"/><stop offset="1" style="stop-color:#212121;stop-opacity:1"/></linearGradient><linearGradient id="linear3" x1="64" x2="64" y1="22.5" y2="113.37" gradientTransform="matrix(0.125,0,0,0.125,0,0)" gradientUnits="userSpaceOnUse"><stop offset="0" style="stop-color:#616161;stop-opacity:1"/><stop offset=".495" style="stop-color:#3f3f3f;stop-opacity:1"/><stop offset="1" style="stop-color:#212121;stop-opacity:1"/></linearGradient><linearGradient id="linear4" x1="64" x2="64" y1="22.5" y2="113.37" gradientTransform="matrix(0.125,0,0,0.125,0,0)" gradientUnits="userSpaceOnUse"><stop offset="0" style="stop-color:#616161;stop-opacity:1"/><stop offset=".495" style="stop-color:#3f3f3f;stop-opacity:1"/><stop offset="1" style="stop-color:#212121;stop-opacity:1"/></linearGradient></defs><g id="surface1"><path style="stroke:none;fill-rule:nonzero;fill:url(#linear0)" d="M 15.5 8 C 15.5 12.140625 12.140625 15.5 8 15.5 C 3.859375 15.5 0.5 12.140625 0.5 8 C 0.5 3.859375 3.859375 0.5 8 0.5 C 12.140625 0.5 15.5 3.859375 15.5 8 Z M 15.5 8"/><use mask="url(#mask0)" xlink:href="#surface6"/><use mask="url(#mask1)" xlink:href="#surface9"/><path style="stroke:none;fill-rule:nonzero;fill:url(#linear1)" d="M 9.5625 8.046875 L 13.644531 8.046875 C 13.773438 8.046875 13.875 7.9375 13.871094 7.8125 C 13.792969 5.820312 12.722656 4.082031 11.140625 3.082031 C 11.03125 3.015625 10.886719 3.046875 10.824219 3.15625 L 8.78125 6.695312 C 8.722656 6.792969 8.753906 6.914062 8.84375 6.984375 C 9.109375 7.199219 9.296875 7.507812 9.34375 7.859375 C 9.359375 7.96875 9.453125 8.046875 9.5625 8.046875 Z M 9.5625 8.046875"/><path style="stroke:none;fill-rule:nonzero;fill:url(#linear2)" d="M 7.21875 6.695312 L 5.175781 3.15625 C 5.113281 3.046875 4.96875 3.015625 4.859375 3.082031 C 3.28125 4.085938 2.207031 5.820312 2.128906 7.8125 C 2.125 7.9375 2.226562 8.046875 2.355469 8.046875 L 6.4375 8.046875 C 6.546875 8.046875 6.640625 7.96875 6.65625 7.859375 C 6.703125 7.507812 6.890625 7.195312 7.15625 6.984375 C 7.246094 6.914062 7.277344 6.792969 7.21875 6.695312 Z M 7.21875 6.695312"/><path style="stroke:none;fill-rule:nonzero;fill:url(#linear3)" d="M 8 9.402344 C 7.820312 9.402344 7.648438 9.367188 7.492188 9.304688 C 7.390625 9.261719 7.273438 9.304688 7.21875 9.398438 L 5.175781 12.9375 C 5.113281 13.046875 5.15625 13.1875 5.269531 13.246094 C 6.085938 13.675781 7.015625 13.921875 8 13.921875 C 8.988281 13.921875 9.917969 13.675781 10.734375 13.246094 C 10.847656 13.1875 10.890625 13.046875 10.824219 12.9375 L 8.78125 9.398438 C 8.726562 9.304688 8.609375 9.261719 8.507812 9.304688 C 8.351562 9.367188 8.179688 9.402344 8 9.402344 Z M 8 9.402344"/><path style="stroke:none;fill-rule:nonzero;fill:url(#linear4)" d="M 8.902344 8.046875 C 8.902344 8.546875 8.5 8.949219 8 8.949219 C 7.5 8.949219 7.097656 8.546875 7.097656 8.046875 C 7.097656 7.546875 7.5 7.140625 8 7.140625 C 8.5 7.140625 8.902344 7.546875 8.902344 8.046875 Z M 8.902344 8.046875"/></g></svg>