<svg xmlns="http://www.w3.org/2000/svg" xmlns:xlink="http://www.w3.org/1999/xlink" width="16pt" height="16pt" version="1.1" viewBox="0 0 16 16"><defs><filter id="alpha" width="100%" height="100%" x="0%" y="0%" filterUnits="objectBoundingBox"><feColorMatrix in="SourceGraphic" type="matrix" values="0 0 0 0 1 0 0 0 0 1 0 0 0 0 1 0 0 0 1 0"/></filter><mask id="mask0"><g filter="url(#alpha)"><rect width="16" height="16" x="0" y="0" style="fill:#000;fill-opacity:.2;stroke:none"/></g></mask><clipPath id="clip1"><rect width="16" height="16"/></clipPath><g id="surface6" clip-path="url(#clip1)"><path style="stroke:none;fill-rule:nonzero;fill:#424242;fill-opacity:1" d="M 8.234375 10.691406 L 8.144531 12.34375 C 8.144531 12.394531 8.15625 12.445312 8.183594 12.488281 C 8.183594 12.488281 8.183594 12.488281 8.183594 12.492188 C 8.21875 12.546875 8.28125 12.652344 8.335938 12.746094 L 8.242188 12.828125 C 8.164062 12.871094 8.113281 12.949219 8.109375 13.039062 L 8.085938 13.425781 C 8.085938 13.441406 8.085938 13.453125 8.089844 13.46875 L 8.183594 14.257812 L 8.15625 14.613281 C 8.148438 14.71875 8.203125 14.8125 8.292969 14.859375 C 8.253906 14.894531 8.21875 14.929688 8.199219 14.953125 C 8.148438 14.992188 8.121094 15.054688 8.117188 15.117188 L 8.105469 15.25 L 7.863281 15.25 L 7.796875 14.601562 L 7.796875 14.542969 C 7.800781 14.449219 7.75 14.363281 7.671875 14.320312 C 7.632812 14.296875 7.574219 14.253906 7.515625 14.207031 C 7.597656 14.113281 7.671875 14.03125 7.703125 13.996094 C 7.714844 13.988281 7.726562 13.980469 7.734375 13.972656 C 7.785156 13.925781 7.816406 13.859375 7.816406 13.792969 L 7.828125 13.375 L 7.828125 13.359375 C 7.828125 13.273438 7.78125 13.191406 7.707031 13.144531 L 7.578125 13.070312 C 7.664062 12.960938 7.734375 12.875 7.757812 12.847656 C 7.800781 12.800781 7.828125 12.738281 7.832031 12.671875 L 7.84375 10.699219 Z M 8.5 10.4375 L 7.597656 10.453125 L 7.582031 12.667969 C 7.570312 12.675781 7.207031 13.136719 7.207031 13.136719 L 7.578125 13.359375 L 7.578125 13.375 L 7.570312 13.785156 C 7.539062 13.785156 7.164062 14.238281 7.164062 14.238281 C 7.164062 14.238281 7.40625 14.453125 7.550781 14.53125 L 7.546875 14.609375 L 7.640625 15.496094 L 8.335938 15.496094 L 8.363281 15.132812 C 8.460938 15.046875 8.703125 14.78125 8.703125 14.78125 C 8.703125 14.78125 8.449219 14.644531 8.402344 14.632812 L 8.433594 14.246094 L 8.335938 13.433594 L 8.359375 13.046875 C 8.371094 13.042969 8.382812 13.035156 8.390625 13.027344 C 8.480469 12.949219 8.65625 12.792969 8.65625 12.792969 C 8.65625 12.792969 8.457031 12.457031 8.394531 12.355469 L 8.394531 12.351562 Z M 8.5 10.4375"/></g><mask id="mask1"><g filter="url(#alpha)"><rect width="16" height="16" x="0" y="0" style="fill:#000;fill-opacity:.2;stroke:none"/></g></mask><clipPath id="clip2"><rect width="16" height="16"/></clipPath><g id="surface9" clip-path="url(#clip2)"><path style="stroke:none;fill-rule:nonzero;fill:#424242;fill-opacity:1" d="M 9.910156 10.921875 C 10.347656 10.921875 10.785156 11.316406 11.078125 11.648438 C 11.230469 11.824219 11.359375 12 11.457031 12.144531 C 11.050781 12.351562 10.433594 12.609375 9.964844 12.609375 C 9.886719 12.609375 9.816406 12.601562 9.753906 12.589844 C 9.003906 12.417969 8.691406 11.824219 8.578125 11.535156 C 8.796875 11.28125 9.136719 10.976562 9.859375 10.921875 C 9.875 10.921875 9.894531 10.921875 9.910156 10.921875 M 9.910156 10.546875 C 9.882812 10.546875 9.859375 10.546875 9.828125 10.546875 C 8.785156 10.628906 8.382812 11.179688 8.160156 11.453125 C 8.160156 11.453125 8.429688 12.667969 9.667969 12.953125 C 9.761719 12.972656 9.859375 12.984375 9.964844 12.984375 C 10.84375 12.984375 11.984375 12.277344 11.984375 12.277344 C 11.984375 12.277344 11.035156 10.546875 9.910156 10.546875 Z M 9.910156 10.546875"/></g><mask id="mask2"><g filter="url(#alpha)"><rect width="16" height="16" x="0" y="0" style="fill:#000;fill-opacity:.2;stroke:none"/></g></mask><clipPath id="clip3"><rect width="16" height="16"/></clipPath><g id="surface12" clip-path="url(#clip3)"><path style="stroke:none;fill-rule:nonzero;fill:#424242;fill-opacity:1" d="M 6.332031 10.589844 C 7.007812 10.589844 7.273438 10.914062 7.507812 11.203125 C 7.523438 11.21875 7.539062 11.238281 7.550781 11.257812 C 7.515625 11.539062 7.332031 12.21875 6.496094 12.535156 C 6.371094 12.585938 6.210938 12.609375 6.027344 12.609375 C 5.5 12.609375 4.898438 12.417969 4.527344 12.28125 C 4.625 12.085938 4.765625 11.832031 4.9375 11.578125 C 5.234375 11.148438 5.695312 10.625 6.203125 10.59375 C 6.246094 10.59375 6.292969 10.589844 6.332031 10.589844 M 6.332031 10.214844 C 6.285156 10.214844 6.234375 10.21875 6.179688 10.222656 C 4.902344 10.296875 4.019531 12.480469 4.019531 12.480469 C 4.019531 12.480469 5.109375 12.984375 6.027344 12.984375 C 6.242188 12.984375 6.449219 12.957031 6.632812 12.886719 C 7.953125 12.382812 7.9375 11.128906 7.9375 11.128906 C 7.679688 10.863281 7.359375 10.214844 6.332031 10.214844 Z M 6.332031 10.214844"/></g><mask id="mask3"><g filter="url(#alpha)"><rect width="16" height="16" x="0" y="0" style="fill:#000;fill-opacity:.2;stroke:none"/></g></mask><clipPath id="clip4"><rect width="16" height="16"/></clipPath><g id="surface15" clip-path="url(#clip4)"><path style="stroke:none;fill-rule:nonzero;fill:#424242;fill-opacity:1" d="M 7.925781 7.84375 C 9.113281 7.84375 10.082031 8.578125 10.082031 9.484375 C 10.082031 10.390625 9.113281 11.125 7.925781 11.125 C 6.738281 11.125 5.769531 10.390625 5.769531 9.484375 C 5.769531 8.578125 6.738281 7.84375 7.925781 7.84375 M 7.925781 7.46875 C 6.527344 7.46875 5.394531 8.371094 5.394531 9.484375 C 5.394531 10.597656 6.527344 11.5 7.925781 11.5 C 9.324219 11.5 10.457031 10.597656 10.457031 9.484375 C 10.457031 8.371094 9.324219 7.46875 7.925781 7.46875 Z M 7.925781 7.46875"/></g><linearGradient id="linear0" x1="55.927" x2="69.758" y1="29.759" y2="1.244" gradientTransform="matrix(0.125,0,0,0.125,0,0)" gradientUnits="userSpaceOnUse"><stop offset=".145" style="stop-color:#b71c1c;stop-opacity:1"/><stop offset=".294" style="stop-color:#c82723;stop-opacity:1"/><stop offset=".556" style="stop-color:#e0362e;stop-opacity:1"/><stop offset=".798" style="stop-color:#ef4034;stop-opacity:1"/><stop offset="1" style="stop-color:#f44336;stop-opacity:1"/></linearGradient><linearGradient id="linear1" x1="30.634" x2="80.591" y1="24.708" y2="24.708" gradientTransform="matrix(0.125,0,0,0.125,0,0)" gradientUnits="userSpaceOnUse"><stop offset="0" style="stop-color:#e53935;stop-opacity:1"/><stop offset=".238" style="stop-color:#e03632;stop-opacity:1"/><stop offset=".523" style="stop-color:#d12d2a;stop-opacity:1"/><stop offset=".832" style="stop-color:#b91d1d;stop-opacity:1"/><stop offset=".855" style="stop-color:#b71c1c;stop-opacity:1"/></linearGradient><mask id="mask4"><g filter="url(#alpha)"><rect width="16" height="16" x="0" y="0" style="fill:#000;fill-opacity:.2;stroke:none"/></g></mask><clipPath id="clip5"><rect width="16" height="16"/></clipPath><g id="surface18" clip-path="url(#clip5)"><path style="stroke:none;fill-rule:nonzero;fill:#424242;fill-opacity:1" d="M 6.667969 1.109375 C 6.800781 1.164062 6.964844 1.210938 7.148438 1.222656 C 7.171875 1.226562 7.195312 1.226562 7.21875 1.226562 C 7.332031 1.226562 7.441406 1.210938 7.542969 1.195312 C 7.628906 1.179688 7.710938 1.167969 7.785156 1.167969 C 7.886719 1.167969 7.976562 1.1875 8.09375 1.289062 C 8.335938 1.496094 8.625 1.644531 8.953125 1.734375 C 8.992188 1.746094 9.035156 1.75 9.078125 1.75 C 9.164062 1.75 9.25 1.726562 9.328125 1.679688 C 9.410156 1.625 9.492188 1.585938 9.570312 1.554688 C 9.683594 1.511719 9.8125 1.476562 9.949219 1.4375 C 10.128906 1.390625 10.324219 1.335938 10.515625 1.25 C 10.671875 1.453125 10.816406 1.667969 10.917969 1.886719 C 11.074219 2.21875 11.117188 2.546875 11.046875 2.808594 C 11.039062 2.835938 11.027344 2.867188 11.011719 2.902344 C 10.917969 3.132812 11.019531 3.398438 11.246094 3.511719 C 11.433594 3.601562 11.574219 3.796875 11.59375 4.003906 C 11.613281 4.214844 11.515625 4.4375 11.34375 4.5625 C 11.285156 4.605469 11.21875 4.640625 11.128906 4.671875 C 10.910156 4.757812 10.785156 4.984375 10.832031 5.214844 C 10.871094 5.40625 10.925781 5.582031 10.980469 5.753906 C 11.011719 5.855469 11.042969 5.953125 11.066406 6.046875 C 11.382812 7.230469 10.941406 8.597656 9.992188 9.375 C 9.496094 9.78125 8.738281 10.003906 7.859375 10.003906 C 7.355469 10.003906 6.847656 9.929688 6.425781 9.796875 C 6.015625 9.664062 5.632812 9.386719 5.382812 9.035156 C 5.015625 8.519531 4.824219 7.765625 4.910156 7.152344 C 4.929688 7.007812 4.882812 6.859375 4.777344 6.75 C 4.609375 6.578125 4.476562 6.40625 4.371094 6.226562 C 4.328125 6.152344 4.289062 6.074219 4.246094 5.988281 C 4.15625 5.808594 4.0625 5.625 3.925781 5.445312 C 3.796875 5.269531 3.640625 5.132812 3.472656 5.03125 C 3.527344 4.898438 3.582031 4.773438 3.605469 4.726562 C 3.835938 4.351562 4.164062 4.046875 4.550781 3.839844 C 4.679688 3.769531 4.773438 3.644531 4.796875 3.5 C 4.824219 3.355469 4.777344 3.203125 4.679688 3.09375 C 4.507812 2.90625 4.304688 2.628906 4.332031 2.371094 C 4.351562 2.171875 4.503906 1.960938 4.789062 1.75 C 4.859375 1.695312 5.070312 1.617188 5.304688 1.617188 C 5.410156 1.617188 5.480469 1.632812 5.523438 1.648438 C 5.601562 1.746094 5.71875 1.8125 5.851562 1.824219 C 5.863281 1.828125 5.882812 1.828125 5.894531 1.828125 C 6.078125 1.828125 6.246094 1.722656 6.328125 1.558594 C 6.402344 1.402344 6.515625 1.25 6.667969 1.109375 M 6.617188 0.527344 C 6.253906 0.796875 6.027344 1.078125 5.894531 1.351562 C 5.890625 1.332031 5.882812 1.316406 5.871094 1.304688 C 5.730469 1.1875 5.519531 1.140625 5.300781 1.140625 C 5 1.140625 4.679688 1.234375 4.5 1.367188 C 3.5625 2.0625 3.757812 2.796875 4.324219 3.417969 C 3.859375 3.664062 3.460938 4.039062 3.1875 4.488281 C 3.144531 4.558594 2.824219 5.332031 2.839844 5.332031 L 2.859375 5.332031 C 3.132812 5.332031 3.378906 5.515625 3.542969 5.734375 C 3.710938 5.957031 3.816406 6.222656 3.957031 6.464844 C 4.089844 6.695312 4.253906 6.898438 4.4375 7.085938 C 4.332031 7.832031 4.558594 8.707031 4.992188 9.3125 C 5.300781 9.746094 5.773438 10.089844 6.28125 10.253906 C 6.71875 10.394531 7.277344 10.484375 7.859375 10.484375 C 8.722656 10.484375 9.640625 10.285156 10.296875 9.746094 C 11.390625 8.851562 11.894531 7.292969 11.53125 5.925781 C 11.457031 5.65625 11.355469 5.390625 11.300781 5.121094 C 11.414062 5.078125 11.523438 5.023438 11.625 4.953125 C 11.929688 4.726562 12.105469 4.335938 12.070312 3.957031 C 12.03125 3.585938 11.792969 3.242188 11.457031 3.082031 C 11.476562 3.035156 11.492188 2.988281 11.503906 2.941406 C 11.621094 2.527344 11.535156 2.078125 11.351562 1.6875 C 11.167969 1.296875 10.898438 0.957031 10.628906 0.621094 C 10.292969 0.914062 9.808594 0.949219 9.390625 1.113281 C 9.28125 1.15625 9.175781 1.210938 9.074219 1.273438 C 8.855469 1.214844 8.613281 1.109375 8.402344 0.925781 C 8.183594 0.738281 7.976562 0.691406 7.785156 0.691406 C 7.578125 0.691406 7.386719 0.75 7.214844 0.75 C 7.203125 0.75 7.191406 0.75 7.175781 0.75 C 6.847656 0.726562 6.617188 0.527344 6.617188 0.527344 Z M 6.617188 0.527344"/></g></defs><g id="surface1"><path style="stroke:none;fill-rule:nonzero;fill:#7cb342;fill-opacity:1" d="M 8.402344 14.632812 L 8.433594 14.25 L 8.335938 13.4375 L 8.359375 13.050781 C 8.371094 13.046875 8.382812 13.039062 8.390625 13.027344 C 8.480469 12.953125 8.65625 12.796875 8.65625 12.796875 C 8.65625 12.796875 8.457031 12.460938 8.394531 12.355469 L 8.5 10.4375 L 7.597656 10.453125 L 7.582031 12.667969 C 7.570312 12.675781 7.207031 13.136719 7.207031 13.136719 L 7.578125 13.359375 L 7.578125 13.375 L 7.570312 13.785156 C 7.542969 13.785156 7.164062 14.238281 7.164062 14.238281 C 7.164062 14.238281 7.40625 14.453125 7.550781 14.53125 L 7.546875 14.609375 L 7.640625 15.496094 L 8.335938 15.496094 L 8.363281 15.132812 C 8.460938 15.046875 8.703125 14.78125 8.703125 14.78125 C 8.703125 14.78125 8.449219 14.648438 8.402344 14.632812 Z M 8.402344 14.632812"/><use mask="url(#mask0)" xlink:href="#surface6"/><path style="stroke:none;fill-rule:nonzero;fill:#7cb342;fill-opacity:1" d="M 8.160156 11.457031 C 8.160156 11.457031 8.429688 12.667969 9.667969 12.953125 C 10.558594 13.160156 11.984375 12.28125 11.984375 12.28125 C 11.984375 12.28125 10.988281 10.460938 9.828125 10.550781 C 8.785156 10.628906 8.382812 11.179688 8.160156 11.457031 Z M 8.160156 11.457031"/><use mask="url(#mask1)" xlink:href="#surface9"/><path style="stroke:none;fill-rule:nonzero;fill:#7cb342;fill-opacity:1" d="M 7.9375 11.128906 C 7.9375 11.128906 7.953125 12.382812 6.632812 12.886719 C 5.679688 13.25 4.019531 12.480469 4.019531 12.480469 C 4.019531 12.480469 4.902344 10.296875 6.179688 10.222656 C 7.328125 10.152344 7.667969 10.851562 7.9375 11.128906 Z M 7.9375 11.128906"/><use mask="url(#mask2)" xlink:href="#surface12"/><path style="stroke:none;fill-rule:nonzero;fill:#558b2f;fill-opacity:1" d="M 10.457031 9.484375 C 10.457031 8.371094 9.324219 7.46875 7.925781 7.46875 C 6.527344 7.46875 5.394531 8.371094 5.394531 9.484375 C 5.394531 10.597656 6.527344 11.5 7.925781 11.5 C 9.324219 11.5 10.457031 10.597656 10.457031 9.484375 Z M 10.457031 9.484375"/><use mask="url(#mask3)" xlink:href="#surface15"/><path style="stroke:none;fill-rule:nonzero;fill:#c40e00;fill-opacity:1" d="M 8.242188 2.199219 C 8.457031 1.707031 8.875 1.304688 9.371094 1.109375 C 9.789062 0.945312 10.269531 0.910156 10.609375 0.617188 C 10.878906 0.953125 11.148438 1.296875 11.332031 1.683594 C 11.511719 2.074219 11.601562 2.523438 11.484375 2.9375 C 11.390625 3.28125 11.15625 3.578125 10.871094 3.792969 C 10.585938 4.007812 10.25 4.144531 9.90625 4.234375 C 9.714844 4.285156 9.519531 4.320312 9.324219 4.292969 C 9.144531 4.265625 8.976562 4.183594 8.8125 4.101562 C 8.648438 4.019531 8.375 3.945312 8.246094 3.816406 C 8.148438 3.714844 8.125 3.496094 8.105469 3.363281 C 8.070312 3.167969 8.066406 2.960938 8.089844 2.761719 C 8.101562 2.664062 8.121094 2.570312 8.144531 2.476562 C 8.167969 2.398438 8.242188 2.277344 8.242188 2.199219 Z M 8.242188 2.199219"/><path style="stroke:none;fill-rule:nonzero;fill:#c90000;fill-opacity:1" d="M 5.09375 5.359375 C 4.917969 5.902344 4.519531 6.453125 4.425781 7.015625 C 4.296875 7.773438 4.523438 8.683594 4.972656 9.3125 C 5.28125 9.746094 5.753906 10.089844 6.261719 10.25 C 7.359375 10.605469 9.179688 10.640625 10.277344 9.746094 C 11.371094 8.847656 11.875 7.292969 11.511719 5.921875 C 11.414062 5.570312 11.265625 5.222656 11.246094 4.855469 C 11.214844 4.320312 11.273438 3.835938 11.515625 3.355469 C 10.984375 3.414062 10.6875 3.648438 10.175781 3.804688 C 9.382812 4.050781 8.421875 4.078125 7.71875 3.632812 C 5.882812 2.464844 4.953125 3.277344 5.003906 3.570312 C 5.183594 4.597656 5.207031 5.007812 5.09375 5.359375 Z M 5.09375 5.359375"/><path style="stroke:none;fill-rule:nonzero;fill:url(#linear0)" d="M 6.042969 3.03125 C 6.042969 3.03125 5.023438 1.695312 6.601562 0.527344 C 6.601562 0.527344 6.828125 0.726562 7.160156 0.746094 C 7.488281 0.765625 7.90625 0.515625 8.386719 0.925781 C 8.867188 1.335938 9.492188 1.363281 9.710938 1.324219 C 9.929688 1.285156 10.589844 1.824219 9.621094 2.523438 C 8.566406 3.285156 8.277344 3.300781 8.277344 3.300781 C 8.277344 3.300781 6.621094 3.210938 6.359375 3.160156 C 6.101562 3.109375 6.042969 3.03125 6.042969 3.03125 Z M 6.042969 3.03125"/><path style="stroke:none;fill-rule:nonzero;fill:#a62121;fill-opacity:1" d="M 6.867188 2.445312 C 6.867188 2.445312 8.035156 1.761719 8.75 2.230469 C 9.464844 2.695312 7.742188 2.910156 7.4375 2.886719 C 7.136719 2.859375 6.867188 2.445312 6.867188 2.445312 Z M 6.867188 2.445312"/><path style="stroke:none;fill-rule:nonzero;fill:#e50500;fill-opacity:1" d="M 2.820312 5.332031 C 3.101562 5.324219 3.355469 5.511719 3.523438 5.734375 C 3.691406 5.957031 3.796875 6.222656 3.9375 6.464844 C 4.367188 7.210938 5.117188 7.738281 5.929688 8.027344 C 6.742188 8.3125 7.617188 8.375 8.480469 8.355469 C 8.734375 8.351562 8.988281 8.335938 9.238281 8.375 C 9.488281 8.414062 9.738281 8.511719 9.917969 8.695312 C 9.914062 8.347656 9.703125 8.027344 9.429688 7.8125 C 9.160156 7.597656 8.828125 7.46875 8.507812 7.34375 C 7.910156 7.113281 7.3125 6.882812 6.714844 6.652344 C 6.398438 6.53125 6.082031 6.40625 5.800781 6.21875 C 5.519531 6.027344 5.398438 5.765625 5.296875 5.445312 C 5.1875 5.085938 5.132812 4.703125 5.144531 4.328125 C 5.15625 4.03125 5.113281 3.707031 4.941406 3.457031 C 4.777344 3.222656 4.585938 3.273438 4.359375 3.390625 C 3.867188 3.636719 3.453125 4.023438 3.167969 4.488281 C 3.125 4.554688 2.804688 5.332031 2.820312 5.332031 Z M 2.820312 5.332031"/><path style="stroke:none;fill-rule:nonzero;fill:#ef5350;fill-opacity:1" d="M 6.6875 2.398438 C 6.953125 2.289062 7.78125 2.6875 8.066406 2.730469 C 8.613281 2.808594 8.742188 2.851562 9.273438 2.601562 C 9.671875 2.414062 9.820312 2.320312 10.128906 1.851562 C 9.890625 2.386719 10.320312 2.976562 10.070312 3.449219 C 9.519531 4.496094 7.421875 3.847656 7.125 3.703125 C 6.890625 3.589844 6.210938 3.378906 6.6875 2.398438 Z M 6.6875 2.398438"/><path style="stroke:none;fill-rule:nonzero;fill:url(#linear1)" d="M 4.480469 1.367188 C 2.394531 2.921875 5.910156 4.660156 6.683594 4.898438 C 7.40625 5.121094 8.273438 5.078125 8.964844 4.769531 C 9.160156 4.683594 9.351562 4.585938 9.503906 4.441406 C 9.660156 4.300781 10.054688 3.871094 10.074219 3.664062 C 8.992188 4.039062 6.816406 3.847656 5.988281 2.582031 C 5.617188 2.015625 5.984375 1.417969 5.851562 1.304688 C 5.515625 1.027344 4.792969 1.136719 4.480469 1.367188 Z M 4.480469 1.367188"/><path style="stroke:none;fill-rule:nonzero;fill:#f41e0f;fill-opacity:1" d="M 9.449219 4.328125 C 10.605469 4.195312 10.859375 3.039062 11.417969 3.066406 C 11.761719 3.226562 12.011719 3.578125 12.046875 3.953125 C 12.085938 4.332031 11.90625 4.71875 11.605469 4.949219 C 10.140625 6.054688 9.695312 4.992188 9.367188 5.496094 C 8.835938 6.324219 8.128906 6.703125 7.425781 6.628906 C 6.308594 6.507812 5.550781 5.148438 5.832031 5.230469 C 7.507812 5.710938 7.695312 4.527344 9.449219 4.328125 Z M 9.449219 4.328125"/><use mask="url(#mask4)" xlink:href="#surface18"/></g></svg>