<svg xmlns="http://www.w3.org/2000/svg" xmlns:xlink="http://www.w3.org/1999/xlink" width="16pt" height="16pt" version="1.1" viewBox="0 0 16 16"><defs><linearGradient id="linear0" x1="64" x2="64" y1="-1028.9" y2="-1116.9" gradientTransform="matrix(0.125,0,0,-0.125,0,-126.15)" gradientUnits="userSpaceOnUse"><stop offset=".5" style="stop-color:#fee133;stop-opacity:1"/><stop offset=".612" style="stop-color:#fede32;stop-opacity:1"/><stop offset=".708" style="stop-color:#fcd32f;stop-opacity:1"/><stop offset=".797" style="stop-color:#fac12b;stop-opacity:1"/><stop offset=".883" style="stop-color:#f7a924;stop-opacity:1"/><stop offset=".9" style="stop-color:#f6a323;stop-opacity:1"/></linearGradient></defs><g id="surface1"><path style="stroke:none;fill-rule:nonzero;fill:url(#linear0)" d="M 8 14.988281 C 4.511719 14.988281 0.75 12.800781 0.75 8 C 0.75 3.199219 4.511719 1.011719 8 1.011719 C 9.9375 1.011719 11.726562 1.648438 13.050781 2.8125 C 14.488281 4.085938 15.25 5.886719 15.25 8 C 15.25 10.113281 14.488281 11.898438 13.050781 13.175781 C 11.726562 14.335938 9.925781 14.988281 8 14.988281 Z M 8 14.988281"/><path style="stroke:none;fill-rule:nonzero;fill:#eb8f00;fill-opacity:1" d="M 8 1.261719 C 9.875 1.261719 11.613281 1.875 12.875 3 C 14.261719 4.226562 15 5.949219 15 8 C 15 10.039062 14.261719 11.761719 12.875 12.988281 C 11.601562 14.113281 9.863281 14.738281 8 14.738281 C 6.125 14.738281 4.386719 14.125 3.125 13.011719 C 1.738281 11.789062 1 10.0625 1 8 C 1 5.9375 1.738281 4.199219 3.125 2.976562 C 4.386719 1.875 6.113281 1.261719 8 1.261719 M 8 0.761719 C 4.101562 0.761719 0.5 3.261719 0.5 8 C 0.5 12.710938 4.101562 15.238281 8 15.238281 C 11.898438 15.238281 15.5 12.648438 15.5 8 C 15.5 3.324219 11.898438 0.761719 8 0.761719 Z M 8 0.761719"/><path style="fill-rule:nonzero;fill:#eb8f00;fill-opacity:1;stroke-width:1;stroke-linecap:butt;stroke-linejoin:miter;stroke:#eb8f00;stroke-opacity:1;stroke-miterlimit:10" d="M 27.40625 34.8125 C 25.1875 35.1875 25.09375 38.40625 27.5 38.5 C 32.40625 38.59375 37.6875 36.8125 41.8125 33 C 43.3125 31.6875 44.59375 30.09375 45.5 28.5 C 46.6875 26.3125 43.90625 24.8125 42.5 26.40625 L 42.40625 26.5 C 38.40625 31 32.90625 33.90625 27.40625 34.8125 Z M 27.40625 34.8125" transform="matrix(0.125,0,0,0.125,0,0)"/><path style="fill-rule:nonzero;fill:#eb8f00;fill-opacity:1;stroke-width:1;stroke-linecap:butt;stroke-linejoin:miter;stroke:#eb8f00;stroke-opacity:1;stroke-miterlimit:10" d="M 84.5 26.40625 C 83.09375 24.6875 80.3125 26.3125 81.5 28.5 C 82.40625 30.09375 83.6875 31.6875 85.1875 33 C 89.1875 36.6875 94.59375 38.59375 99.5 38.5 C 102 38.40625 101.8125 35.1875 99.59375 34.8125 C 94 33.90625 88.5 31 84.5 26.40625" transform="matrix(0.125,0,0,0.125,0,0)"/><path style="stroke:none;fill-rule:nonzero;fill:#242424;fill-opacity:1" d="M 10.5 6.113281 C 11.023438 6.113281 11.5 6.550781 11.5 7.289062 C 11.5 8.023438 11.023438 8.460938 10.5 8.460938 C 9.976562 8.460938 9.5 8.023438 9.5 7.289062 C 9.5 6.550781 9.976562 6.113281 10.5 6.113281 Z M 10.5 6.113281"/><path style="stroke:none;fill-rule:nonzero;fill:#242424;fill-opacity:1" d="M 5.4375 6.113281 C 4.914062 6.113281 4.4375 6.550781 4.4375 7.289062 C 4.4375 8.023438 4.914062 8.460938 5.4375 8.460938 C 5.960938 8.460938 6.4375 8.023438 6.4375 7.289062 C 6.4375 6.550781 5.960938 6.113281 5.4375 6.113281 Z M 5.4375 6.113281"/><path style="stroke:none;fill-rule:nonzero;fill:#242424;fill-opacity:1" d="M 7.984375 10.25 C 6.675781 10.25 5.738281 11.035156 5.457031 11.472656 C 5.351562 11.640625 5.328125 11.824219 5.402344 11.960938 C 5.457031 12.066406 5.554688 12.125 5.675781 12.125 C 5.714844 12.125 5.757812 12.117188 5.800781 12.105469 C 6.460938 11.894531 7.039062 11.585938 7.984375 11.585938 C 8.945312 11.585938 9.515625 11.894531 10.171875 12.105469 C 10.214844 12.117188 10.257812 12.125 10.296875 12.125 C 10.417969 12.125 10.515625 12.066406 10.570312 11.960938 C 10.644531 11.824219 10.621094 11.640625 10.515625 11.472656 C 10.234375 11.035156 9.296875 10.25 7.984375 10.25 Z M 7.984375 10.25"/></g></svg>