<svg xmlns="http://www.w3.org/2000/svg" xmlns:xlink="http://www.w3.org/1999/xlink" width="16pt" height="16pt" version="1.1" viewBox="0 0 16 16"><defs><linearGradient id="linear0" x1="16.934" x2="16.934" y1="4.585" y2="27.865" gradientTransform="matrix(0.47244,0,0,0.47244,0,0)" gradientUnits="userSpaceOnUse"><stop offset=".5" style="stop-color:#fee133;stop-opacity:1"/><stop offset=".612" style="stop-color:#fede32;stop-opacity:1"/><stop offset=".708" style="stop-color:#fcd32f;stop-opacity:1"/><stop offset=".797" style="stop-color:#fac12b;stop-opacity:1"/><stop offset=".883" style="stop-color:#f7a924;stop-opacity:1"/><stop offset=".9" style="stop-color:#f6a323;stop-opacity:1"/></linearGradient><clipPath id="clip1"><path d="M 3 9 L 13 9 L 13 14 L 3 14 Z M 3 9"/></clipPath><clipPath id="clip2"><path d="M 7.835938 9.820312 C 6.242188 9.820312 4.765625 9.6875 3.535156 9.460938 C 3.226562 9.402344 2.957031 9.671875 3.019531 9.976562 C 3.429688 11.980469 5.402344 13.628906 7.832031 13.628906 C 10.492188 13.628906 12.28125 11.925781 12.652344 9.96875 C 12.710938 9.664062 12.441406 9.402344 12.136719 9.457031 C 10.902344 9.6875 9.425781 9.820312 7.835938 9.820312 Z M 7.835938 9.820312"/></clipPath><filter id="alpha" width="100%" height="100%" x="0%" y="0%" filterUnits="objectBoundingBox"><feColorMatrix in="SourceGraphic" type="matrix" values="0 0 0 0 1 0 0 0 0 1 0 0 0 0 1 0 0 0 1 0"/></filter><mask id="mask0"><g filter="url(#alpha)"><rect width="16" height="16" x="0" y="0" style="fill:#000;fill-opacity:.6;stroke:none"/></g></mask><clipPath id="clip3"><rect width="16" height="16"/></clipPath><g id="surface6" clip-path="url(#clip3)"><path style="stroke:none;fill-rule:nonzero;fill:#000;fill-opacity:1" d="M 12.140625 9.96875 C 11.960938 10.8125 11.480469 11.582031 10.785156 12.144531 C 9.992188 12.789062 8.96875 13.128906 7.832031 13.128906 C 5.78125 13.128906 3.949219 11.777344 3.527344 9.96875 C 4.816406 10.199219 6.300781 10.320312 7.835938 10.320312 C 9.367188 10.320312 10.855469 10.199219 12.140625 9.96875 M 12.21875 9.453125 C 12.191406 9.453125 12.164062 9.453125 12.136719 9.460938 C 10.902344 9.6875 9.425781 9.820312 7.832031 9.820312 C 6.242188 9.820312 4.765625 9.6875 3.53125 9.460938 C 3.503906 9.457031 3.476562 9.453125 3.449219 9.453125 C 3.179688 9.453125 2.960938 9.699219 3.019531 9.976562 C 3.425781 11.984375 5.402344 13.628906 7.832031 13.628906 C 10.488281 13.628906 12.277344 11.929688 12.648438 9.96875 C 12.703125 9.695312 12.484375 9.453125 12.21875 9.453125 Z M 12.21875 9.453125"/></g><clipPath id="clip4"><path d="M 5 10 L 11 10 L 11 16 L 5 16 Z M 5 10"/></clipPath><clipPath id="clip5"><path d="M 3.535156 10.0625 L 3.535156 15.582031 L 12.039062 15.582031 L 12.039062 10.0625 C 10.777344 10.28125 9.324219 10.398438 7.832031 10.398438 C 6.34375 10.398438 4.894531 10.28125 3.632812 10.0625"/></clipPath><clipPath id="clip6"><path d="M 3 10 L 13 10 L 13 16 L 3 16 Z M 3 10"/></clipPath><clipPath id="clip7"><path d="M 3.535156 10.0625 L 3.535156 15.582031 L 12.039062 15.582031 L 12.039062 10.0625 C 10.777344 10.28125 9.324219 10.398438 7.832031 10.398438 C 6.34375 10.398438 4.894531 10.28125 3.632812 10.0625"/></clipPath><mask id="mask1"><g filter="url(#alpha)"><rect width="16" height="16" x="0" y="0" style="fill:#000;fill-opacity:.301961;stroke:none"/></g></mask><clipPath id="clip8"><rect width="16" height="16"/></clipPath><g id="surface9" clip-path="url(#clip8)"><path style="fill:none;stroke-width:4;stroke-linecap:round;stroke-linejoin:miter;stroke:#ab3f2e;stroke-opacity:1;stroke-miterlimit:10" d="M 63.402319 87.170796 L 63.402319 104.232238" transform="matrix(0.125008,0,0,0.125008,0,-0.221244)"/></g></defs><g id="surface1"><path style="stroke:none;fill-rule:nonzero;fill:url(#linear0)" d="M 8 14.6875 C 4.507812 14.6875 0.75 12.503906 0.75 7.703125 C 0.75 2.902344 4.507812 0.714844 8 0.714844 C 9.933594 0.714844 11.726562 1.355469 13.046875 2.515625 C 14.488281 3.792969 15.25 5.582031 15.25 7.703125 C 15.25 9.808594 14.488281 11.597656 13.046875 12.875 C 11.722656 14.042969 9.929688 14.6875 8 14.6875 Z M 8 14.6875"/><path style="stroke:none;fill-rule:nonzero;fill:#eb8f00;fill-opacity:1" d="M 8 0.964844 C 9.875 0.964844 11.609375 1.582031 12.878906 2.703125 C 14.265625 3.929688 15 5.65625 15 7.699219 C 15 9.734375 14.265625 11.457031 12.878906 12.6875 C 11.605469 13.816406 9.871094 14.4375 8 14.4375 C 6.121094 14.4375 4.390625 13.824219 3.121094 12.710938 C 1.734375 11.492188 1 9.757812 1 7.699219 C 1 5.632812 1.734375 3.898438 3.121094 2.683594 C 4.382812 1.574219 6.117188 0.964844 8 0.964844 M 8 0.464844 C 4.105469 0.464844 0.5 2.964844 0.5 7.703125 C 0.5 12.410156 4.105469 14.9375 8 14.9375 C 11.894531 14.9375 15.5 12.347656 15.5 7.703125 C 15.5 3.03125 11.894531 0.464844 8 0.464844 Z M 8 0.464844"/><g clip-path="url(#clip1)" clip-rule="nonzero"><g clip-path="url(#clip2)" clip-rule="nonzero"><path style="stroke:none;fill-rule:nonzero;fill:#242424;fill-opacity:1" d="M 7.835938 9.820312 C 6.242188 9.820312 4.765625 9.6875 3.535156 9.460938 C 3.226562 9.402344 2.957031 9.671875 3.019531 9.976562 C 3.429688 11.980469 5.402344 13.628906 7.832031 13.628906 C 10.492188 13.628906 12.28125 11.925781 12.652344 9.96875 C 12.710938 9.664062 12.441406 9.402344 12.136719 9.457031 C 10.902344 9.6875 9.425781 9.820312 7.835938 9.820312 Z M 7.835938 9.820312"/><use mask="url(#mask0)" xlink:href="#surface6"/></g></g><g clip-path="url(#clip4)" clip-rule="nonzero"><g clip-path="url(#clip5)" clip-rule="nonzero"><path style="stroke:none;fill-rule:nonzero;fill:#e04c74;fill-opacity:1" d="M 8.128906 15.539062 L 7.71875 15.539062 C 6.53125 15.539062 5.566406 14.574219 5.566406 13.386719 L 5.566406 10.414062 L 10.230469 10.300781 L 10.28125 13.382812 C 10.28125 14.574219 9.316406 15.539062 8.128906 15.539062 Z M 8.128906 15.539062"/></g></g><g clip-path="url(#clip6)" clip-rule="nonzero"><g clip-path="url(#clip7)" clip-rule="nonzero"><use mask="url(#mask1)" xlink:href="#surface9"/></g></g><path style="stroke:none;fill-rule:nonzero;fill:#fff;fill-opacity:1" d="M 12.992188 6.496094 C 12.992188 7.972656 11.796875 9.171875 10.320312 9.171875 C 8.84375 9.171875 7.648438 7.972656 7.648438 6.496094 C 7.648438 5.023438 8.84375 3.824219 10.320312 3.824219 C 11.796875 3.824219 12.992188 5.023438 12.992188 6.496094 Z M 12.992188 6.496094"/><path style="stroke:none;fill-rule:nonzero;fill:#eb8f00;fill-opacity:1" d="M 10.320312 4.324219 C 11.515625 4.324219 12.492188 5.300781 12.492188 6.496094 C 12.492188 7.695312 11.515625 8.671875 10.320312 8.671875 C 9.121094 8.671875 8.148438 7.695312 8.148438 6.496094 C 8.148438 5.300781 9.121094 4.324219 10.320312 4.324219 M 10.320312 3.824219 C 8.84375 3.824219 7.648438 5.019531 7.648438 6.496094 C 7.648438 7.972656 8.84375 9.171875 10.320312 9.171875 C 11.796875 9.171875 12.992188 7.972656 12.992188 6.496094 C 12.992188 5.019531 11.796875 3.824219 10.320312 3.824219 Z M 10.320312 3.824219"/><path style="stroke:none;fill-rule:nonzero;fill:#242424;fill-opacity:1" d="M 11.347656 6.496094 C 11.347656 5.972656 10.929688 5.546875 10.414062 5.546875 C 9.898438 5.546875 9.480469 5.972656 9.480469 6.496094 C 9.480469 7.023438 9.898438 7.449219 10.414062 7.449219 C 10.929688 7.449219 11.347656 7.023438 11.347656 6.496094 Z M 11.347656 6.496094"/><path style="stroke:none;fill-rule:nonzero;fill:#242424;fill-opacity:1" d="M 6.175781 7.386719 C 6.175781 7.386719 6.164062 7.382812 6.144531 7.375 C 6.132812 7.371094 6.117188 7.363281 6.105469 7.355469 C 6.09375 7.355469 6.082031 7.351562 6.066406 7.34375 C 6.042969 7.339844 6 7.324219 5.953125 7.3125 C 5.90625 7.300781 5.855469 7.289062 5.796875 7.277344 C 5.675781 7.257812 5.53125 7.242188 5.371094 7.242188 C 5.214844 7.238281 5.042969 7.25 4.875 7.273438 C 4.84375 7.277344 4.777344 7.285156 4.742188 7.292969 C 4.707031 7.300781 4.667969 7.308594 4.625 7.316406 C 4.542969 7.335938 4.464844 7.355469 4.386719 7.375 C 4.238281 7.421875 4.101562 7.476562 3.992188 7.527344 C 3.882812 7.582031 3.800781 7.632812 3.746094 7.671875 C 3.71875 7.691406 3.699219 7.707031 3.683594 7.714844 C 3.671875 7.726562 3.664062 7.730469 3.664062 7.730469 L 3.628906 7.757812 C 3.492188 7.859375 3.300781 7.828125 3.199219 7.691406 C 3.117188 7.582031 3.121094 7.433594 3.199219 7.328125 C 3.199219 7.328125 3.210938 7.316406 3.226562 7.292969 C 3.242188 7.269531 3.269531 7.234375 3.304688 7.195312 C 3.339844 7.15625 3.382812 7.109375 3.4375 7.0625 C 3.492188 7.015625 3.554688 6.964844 3.625 6.917969 C 3.765625 6.816406 3.941406 6.726562 4.140625 6.652344 C 4.238281 6.613281 4.339844 6.578125 4.445312 6.554688 C 4.496094 6.539062 4.554688 6.527344 4.609375 6.519531 C 4.671875 6.503906 4.703125 6.5 4.769531 6.492188 C 4.988281 6.464844 5.207031 6.453125 5.417969 6.472656 C 5.625 6.488281 5.820312 6.527344 5.984375 6.585938 C 6.066406 6.613281 6.140625 6.644531 6.203125 6.675781 C 6.269531 6.707031 6.320312 6.738281 6.371094 6.769531 C 6.398438 6.785156 6.417969 6.800781 6.4375 6.8125 C 6.449219 6.820312 6.460938 6.832031 6.46875 6.839844 C 6.488281 6.851562 6.496094 6.859375 6.496094 6.859375 C 6.628906 6.96875 6.652344 7.164062 6.542969 7.296875 C 6.449219 7.410156 6.300781 7.441406 6.175781 7.386719 Z M 6.175781 7.386719"/><path style="stroke:none;fill-rule:nonzero;fill:#242424;fill-opacity:1" d="M 6.089844 7.277344 C 6.089844 7.277344 6.082031 7.265625 6.066406 7.25 C 6.046875 7.230469 6.023438 7.214844 6 7.195312 C 5.945312 7.148438 5.859375 7.078125 5.746094 6.996094 C 5.636719 6.914062 5.503906 6.824219 5.355469 6.726562 C 5.28125 6.683594 5.203125 6.632812 5.125 6.585938 C 5.046875 6.539062 4.960938 6.488281 4.882812 6.445312 C 4.792969 6.394531 4.714844 6.351562 4.632812 6.308594 C 4.550781 6.265625 4.46875 6.222656 4.394531 6.183594 C 4.234375 6.105469 4.085938 6.035156 3.960938 5.984375 C 3.835938 5.929688 3.730469 5.890625 3.660156 5.867188 C 3.589844 5.84375 3.550781 5.832031 3.550781 5.832031 L 3.519531 5.820312 C 3.359375 5.769531 3.269531 5.597656 3.320312 5.433594 C 3.363281 5.300781 3.488281 5.21875 3.621094 5.222656 C 3.621094 5.222656 3.636719 5.222656 3.667969 5.222656 C 3.695312 5.222656 3.734375 5.226562 3.785156 5.230469 C 3.886719 5.242188 4.027344 5.261719 4.1875 5.304688 C 4.34375 5.34375 4.523438 5.40625 4.710938 5.484375 C 4.800781 5.523438 4.898438 5.5625 4.992188 5.609375 C 5.085938 5.65625 5.183594 5.710938 5.269531 5.753906 C 5.367188 5.8125 5.453125 5.863281 5.542969 5.921875 C 5.628906 5.976562 5.714844 6.039062 5.792969 6.097656 C 5.957031 6.214844 6.097656 6.339844 6.214844 6.453125 C 6.332031 6.570312 6.421875 6.679688 6.484375 6.761719 C 6.519531 6.804688 6.542969 6.839844 6.554688 6.859375 C 6.566406 6.878906 6.570312 6.890625 6.570312 6.890625 C 6.660156 7.035156 6.613281 7.226562 6.46875 7.316406 C 6.34375 7.390625 6.191406 7.371094 6.089844 7.277344 Z M 6.089844 7.277344"/></g></svg>