<svg xmlns="http://www.w3.org/2000/svg" xmlns:xlink="http://www.w3.org/1999/xlink" width="16pt" height="16pt" version="1.1" viewBox="0 0 16 16"><defs><linearGradient id="linear0" x1="63.995" x2="63.995" y1="19.897" y2="107.52" gradientTransform="matrix(0.125,0,0,0.125,0,0)" gradientUnits="userSpaceOnUse"><stop offset=".5" style="stop-color:#fee133;stop-opacity:1"/><stop offset=".612" style="stop-color:#fede32;stop-opacity:1"/><stop offset=".708" style="stop-color:#fcd32f;stop-opacity:1"/><stop offset=".797" style="stop-color:#fac12b;stop-opacity:1"/><stop offset=".883" style="stop-color:#f7a924;stop-opacity:1"/><stop offset=".9" style="stop-color:#f6a323;stop-opacity:1"/></linearGradient></defs><g id="surface1"><path style="stroke:none;fill-rule:nonzero;fill:url(#linear0)" d="M 8 14.957031 C 4.523438 14.957031 0.78125 12.78125 0.78125 8 C 0.78125 3.21875 4.519531 1.042969 8 1.042969 C 9.925781 1.042969 11.710938 1.679688 13.023438 2.835938 C 14.460938 4.105469 15.21875 5.890625 15.21875 8 C 15.21875 10.097656 14.460938 11.878906 13.023438 13.152344 C 11.707031 14.316406 9.921875 14.957031 8 14.957031 Z M 8 14.957031"/><path style="stroke:none;fill-rule:nonzero;fill:#eb8f00;fill-opacity:1" d="M 8 1.292969 C 9.867188 1.292969 11.589844 1.90625 12.859375 3.023438 C 14.238281 4.242188 14.96875 5.964844 14.96875 8 C 14.96875 10.023438 14.238281 11.742188 12.859375 12.964844 C 11.585938 14.085938 9.859375 14.707031 8 14.707031 C 6.128906 14.707031 4.402344 14.097656 3.140625 12.988281 C 1.757812 11.773438 1.027344 10.046875 1.027344 8 C 1.027344 5.941406 1.757812 4.214844 3.140625 3.003906 C 4.398438 1.898438 6.125 1.292969 8 1.292969 M 8 0.792969 C 4.121094 0.792969 0.527344 3.28125 0.527344 8 C 0.527344 12.691406 4.121094 15.207031 8 15.207031 C 11.878906 15.207031 15.46875 12.628906 15.46875 8 C 15.46875 3.347656 11.878906 0.792969 8 0.792969 Z M 8 0.792969"/><path style="stroke:none;fill-rule:nonzero;fill:#616161;fill-opacity:1" d="M 4.164062 10.71875 L 5.222656 10.71875 L 5.222656 11.9375 L 4.164062 11.9375 Z M 4.164062 10.71875"/><path style="stroke:none;fill-rule:nonzero;fill:#616161;fill-opacity:1" d="M 5.222656 9.222656 L 6.28125 9.222656 L 6.28125 10.441406 L 5.222656 10.441406 Z M 5.222656 9.222656"/><path style="stroke:none;fill-rule:nonzero;fill:#616161;fill-opacity:1" d="M 3.101562 9.222656 L 4.160156 9.222656 L 4.160156 10.441406 L 3.101562 10.441406 Z M 3.101562 9.222656"/><path style="stroke:none;fill-rule:nonzero;fill:#616161;fill-opacity:1" d="M 7.34375 9.222656 L 8.402344 9.222656 L 8.402344 10.441406 L 7.34375 10.441406 Z M 7.34375 9.222656"/><path style="stroke:none;fill-rule:nonzero;fill:#616161;fill-opacity:1" d="M 9.464844 9.222656 L 10.523438 9.222656 L 10.523438 10.441406 L 9.464844 10.441406 Z M 9.464844 9.222656"/><path style="stroke:none;fill-rule:nonzero;fill:#616161;fill-opacity:1" d="M 11.585938 9.222656 L 12.644531 9.222656 L 12.644531 10.441406 L 11.585938 10.441406 Z M 11.585938 9.222656"/><path style="stroke:none;fill-rule:nonzero;fill:#616161;fill-opacity:1" d="M 6.285156 10.71875 L 7.34375 10.71875 L 7.34375 11.9375 L 6.285156 11.9375 Z M 6.285156 10.71875"/><path style="stroke:none;fill-rule:nonzero;fill:#616161;fill-opacity:1" d="M 8.40625 10.71875 L 9.464844 10.71875 L 9.464844 11.9375 L 8.40625 11.9375 Z M 8.40625 10.71875"/><path style="stroke:none;fill-rule:nonzero;fill:#616161;fill-opacity:1" d="M 10.527344 10.71875 L 11.585938 10.71875 L 11.585938 11.9375 L 10.527344 11.9375 Z M 10.527344 10.71875"/><path style="stroke:none;fill-rule:nonzero;fill:#616161;fill-opacity:1" d="M 3.101562 10.292969 L 12.644531 10.292969 L 12.644531 11.027344 L 3.101562 11.027344 Z M 3.101562 10.292969"/><path style="stroke:none;fill-rule:nonzero;fill:#242424;fill-opacity:1" d="M 13.382812 10.925781 L 13.132812 11.175781 C 13.027344 11.277344 12.863281 11.277344 12.761719 11.175781 L 12.347656 10.765625 C 12.246094 10.660156 12.246094 10.496094 12.347656 10.390625 L 12.597656 10.140625 C 12.703125 10.039062 12.867188 10.039062 12.96875 10.140625 L 13.382812 10.554688 C 13.484375 10.65625 13.484375 10.824219 13.382812 10.925781 Z M 13.382812 10.925781"/><path style="stroke:none;fill-rule:nonzero;fill:#242424;fill-opacity:1" d="M 15.148438 11.71875 L 14.160156 10.761719 C 13.867188 10.476562 13.398438 10.484375 13.117188 10.773438 L 12.914062 10.984375 C 12.628906 11.277344 12.636719 11.742188 12.925781 12.027344 L 13.917969 12.988281 C 14.210938 13.269531 14.675781 13.265625 14.960938 12.972656 L 15.164062 12.761719 C 15.449219 12.46875 15.441406 12.003906 15.148438 11.71875 Z M 13.203125 11.742188 C 13.144531 11.683594 13.113281 11.609375 13.113281 11.535156 C 13.109375 11.457031 13.140625 11.382812 13.195312 11.324219 L 13.46875 11.042969 C 13.582031 10.921875 13.769531 10.921875 13.890625 11.035156 C 13.949219 11.09375 13.976562 11.167969 13.980469 11.242188 C 13.980469 11.320312 13.953125 11.394531 13.894531 11.453125 L 13.621094 11.734375 C 13.507812 11.855469 13.320312 11.855469 13.203125 11.742188 Z M 14.75 12.390625 L 14.582031 12.566406 C 14.453125 12.699219 14.242188 12.699219 14.109375 12.574219 L 13.921875 12.390625 C 13.789062 12.261719 13.785156 12.046875 13.914062 11.917969 L 14.082031 11.742188 C 14.210938 11.609375 14.421875 11.609375 14.554688 11.734375 L 14.742188 11.921875 C 14.878906 12.046875 14.882812 12.257812 14.75 12.390625 Z M 14.75 12.390625"/><path style="stroke:none;fill-rule:nonzero;fill:#242424;fill-opacity:1" d="M 10.46875 4.757812 C 10.929688 4.757812 11.351562 5.296875 11.351562 6.195312 C 11.351562 7.089844 10.929688 7.632812 10.46875 7.632812 C 10.007812 7.632812 9.589844 7.089844 9.589844 6.195312 C 9.589844 5.296875 10.011719 4.757812 10.46875 4.757812 Z M 10.46875 4.757812"/><path style="stroke:none;fill-rule:nonzero;fill:#242424;fill-opacity:1" d="M 5.527344 4.757812 C 5.066406 4.757812 4.648438 5.296875 4.648438 6.195312 C 4.648438 7.089844 5.066406 7.632812 5.527344 7.632812 C 5.988281 7.632812 6.40625 7.089844 6.40625 6.195312 C 6.40625 5.296875 5.988281 4.757812 5.527344 4.757812 Z M 5.527344 4.757812"/></g></svg>