<svg xmlns="http://www.w3.org/2000/svg" xmlns:xlink="http://www.w3.org/1999/xlink" width="16pt" height="16pt" version="1.1" viewBox="0 0 16 16"><defs><linearGradient id="linear0" x1="64" x2="64" y1="110.28" y2="22.3" gradientTransform="matrix(0.125,0,0,-0.125,0,16.25)" gradientUnits="userSpaceOnUse"><stop offset=".566" style="stop-color:#f6a323;stop-opacity:1"/><stop offset=".917" style="stop-color:#fee133;stop-opacity:1"/></linearGradient><clipPath id="clip1"><path d="M 3 8 L 13 8 L 13 14 L 3 14 Z M 3 8"/></clipPath><clipPath id="clip2"><path d="M 8 8.601562 C 5.882812 8.601562 3.582031 10.375 3.582031 12.5625 C 3.582031 13.171875 4.285156 13.527344 4.910156 13.28125 C 5.683594 12.972656 6.828125 12.664062 8 12.664062 C 9.171875 12.664062 10.316406 12.972656 11.089844 13.28125 C 11.714844 13.527344 12.417969 13.171875 12.417969 12.5625 C 12.417969 10.375 9.957031 8.601562 8 8.601562 Z M 8 8.601562"/></clipPath><clipPath id="clip3"><path d="M 3 8 L 13 8 L 13 11 L 3 11 Z M 3 8"/></clipPath><clipPath id="clip4"><path d="M 8 8.601562 C 5.882812 8.601562 3.582031 10.375 3.582031 12.5625 C 3.582031 13.171875 4.285156 13.527344 4.910156 13.28125 C 5.683594 12.972656 6.828125 12.664062 8 12.664062 C 9.171875 12.664062 10.316406 12.972656 11.089844 13.28125 C 11.714844 13.527344 12.417969 13.171875 12.417969 12.5625 C 12.417969 10.375 9.957031 8.601562 8 8.601562 Z M 8 8.601562"/></clipPath><clipPath id="clip5"><path d="M 8 10.128906 C 9.550781 10.128906 10.992188 10.328125 12.128906 10.699219 L 12.128906 7.121094 L 3.871094 7.121094 L 3.871094 10.695312 C 5.007812 10.328125 6.449219 10.128906 8 10.128906 Z M 8 10.128906"/></clipPath><linearGradient id="linear1" x1="64.981" x2="64.981" y1="85.333" y2="125.34" gradientTransform="matrix(0.125,0,0,0.125,0,0)" gradientUnits="userSpaceOnUse"><stop offset="0" style="stop-color:#469643;stop-opacity:1"/><stop offset=".02" style="stop-color:#489743;stop-opacity:1"/><stop offset=".443" style="stop-color:#6db141;stop-opacity:1"/><stop offset=".784" style="stop-color:#84c03f;stop-opacity:1"/><stop offset="1" style="stop-color:#8cc63f;stop-opacity:1"/></linearGradient></defs><g id="surface1"><path style="stroke:none;fill-rule:nonzero;fill:url(#linear0)" d="M 8 14.984375 C 4.507812 14.984375 0.75 12.800781 0.75 8 C 0.75 3.199219 4.507812 1.015625 8 1.015625 C 9.933594 1.015625 11.726562 1.652344 13.046875 2.816406 C 14.488281 4.089844 15.25 5.882812 15.25 8 C 15.25 10.109375 14.488281 11.894531 13.046875 13.171875 C 11.722656 14.34375 9.929688 14.984375 8 14.984375 Z M 8 14.984375"/><path style="stroke:none;fill-rule:nonzero;fill:#eb8f00;fill-opacity:1" d="M 8 1.265625 C 9.875 1.265625 11.609375 1.882812 12.878906 3.003906 C 14.265625 4.230469 15 5.957031 15 8 C 15 10.035156 14.265625 11.757812 12.878906 12.984375 C 11.601562 14.113281 9.871094 14.734375 8 14.734375 C 6.121094 14.734375 4.386719 14.121094 3.121094 13.007812 C 1.734375 11.789062 1 10.058594 1 8 C 1 5.933594 1.734375 4.199219 3.121094 2.980469 C 4.382812 1.875 6.117188 1.265625 8 1.265625 M 8 0.765625 C 4.105469 0.765625 0.5 3.265625 0.5 8 C 0.5 12.710938 4.105469 15.234375 8 15.234375 C 11.894531 15.234375 15.5 12.644531 15.5 8 C 15.5 3.328125 11.894531 0.765625 8 0.765625 Z M 8 0.765625"/><path style="stroke:none;fill-rule:nonzero;fill:#eb8f00;fill-opacity:1" d="M 8 8.601562 C 5.882812 8.601562 3.582031 10.375 3.582031 12.5625 C 3.582031 13.171875 4.285156 13.527344 4.910156 13.28125 C 5.683594 12.972656 6.828125 12.664062 8 12.664062 C 9.171875 12.664062 10.316406 12.972656 11.089844 13.28125 C 11.714844 13.527344 12.417969 13.171875 12.417969 12.5625 C 12.417969 10.375 9.957031 8.601562 8 8.601562 Z M 8 8.601562"/><g clip-path="url(#clip1)" clip-rule="nonzero"><g clip-path="url(#clip2)" clip-rule="nonzero"><path style="stroke:none;fill-rule:nonzero;fill:#242424;fill-opacity:1" d="M 8 8.601562 C 5.882812 8.601562 3.582031 10.375 3.582031 12.5625 C 3.582031 13.171875 4.285156 13.527344 4.910156 13.28125 C 5.683594 12.972656 6.828125 12.664062 8 12.664062 C 9.171875 12.664062 10.316406 12.972656 11.089844 13.28125 C 11.714844 13.527344 12.417969 13.171875 12.417969 12.5625 C 12.417969 10.375 9.957031 8.601562 8 8.601562 Z M 8 8.601562"/></g></g><g clip-path="url(#clip3)" clip-rule="nonzero"><g clip-path="url(#clip4)" clip-rule="nonzero"><g clip-path="url(#clip5)" clip-rule="nonzero"><path style="stroke:none;fill-rule:nonzero;fill:#eb8f00;fill-opacity:1" d="M 8 9.097656 C 8.804688 9.097656 9.769531 9.488281 10.519531 10.109375 C 11.359375 10.808594 11.820312 11.679688 11.820312 12.5625 C 11.820312 12.769531 11.65625 12.863281 11.503906 12.863281 C 11.453125 12.863281 11.398438 12.855469 11.347656 12.832031 C 10.84375 12.632812 9.511719 12.167969 8 12.167969 C 6.488281 12.167969 5.15625 12.632812 4.652344 12.832031 C 4.601562 12.855469 4.546875 12.863281 4.496094 12.863281 C 4.34375 12.863281 4.179688 12.769531 4.179688 12.5625 C 4.179688 10.609375 6.234375 9.097656 8 9.097656 M 8 8.601562 C 5.882812 8.601562 3.582031 10.375 3.582031 12.5625 C 3.582031 13.039062 4.011719 13.359375 4.496094 13.359375 C 4.632812 13.359375 4.773438 13.335938 4.910156 13.28125 C 5.683594 12.972656 6.828125 12.664062 8 12.664062 C 9.171875 12.664062 10.316406 12.972656 11.089844 13.28125 C 11.226562 13.335938 11.367188 13.359375 11.503906 13.359375 C 11.988281 13.359375 12.417969 13.039062 12.417969 12.5625 C 12.417969 10.375 9.957031 8.601562 8 8.601562 Z M 8 8.601562"/></g></g></g><path style="stroke:none;fill-rule:nonzero;fill:#368231;fill-opacity:1" d="M 14.089844 14.027344 C 14.074219 13.921875 13.914062 13.859375 13.734375 13.886719 C 13.550781 13.914062 13.417969 14.019531 13.433594 14.125 C 13.449219 14.234375 13.609375 14.296875 13.789062 14.269531 C 13.972656 14.242188 14.105469 14.136719 14.089844 14.027344 Z M 14.089844 14.027344"/><path style="stroke:none;fill-rule:nonzero;fill:#368231;fill-opacity:1" d="M 2.847656 13.601562 C 2.605469 13.527344 2.371094 13.582031 2.328125 13.722656 C 2.28125 13.867188 2.445312 14.042969 2.683594 14.117188 C 2.925781 14.191406 3.160156 14.136719 3.203125 13.996094 C 3.246094 13.855469 3.085938 13.675781 2.847656 13.601562 Z M 2.847656 13.601562"/><path style="stroke:none;fill-rule:nonzero;fill:url(#linear1)" d="M 12.085938 14.894531 C 12.695312 14.710938 12.917969 14.5 12.890625 14.347656 C 12.851562 14.148438 12 14.121094 11 14.261719 L 11 10.9375 C 11 10.9375 9.984375 10.636719 7.9375 10.636719 C 5.664062 10.636719 4.875 10.9375 4.875 10.9375 L 4.875 13.921875 C 4.25 13.882812 3.777344 13.960938 3.753906 14.128906 C 3.734375 14.265625 4.132812 14.425781 4.617188 14.5625 C 3.671875 14.660156 3.101562 14.8125 3.101562 14.984375 C 3.101562 15.277344 4.90625 15.515625 7.109375 15.515625 C 8.089844 15.515625 9.003906 15.46875 9.699219 15.390625 C 10.0625 15.449219 10.574219 15.484375 11.140625 15.484375 C 12.242188 15.484375 13.140625 15.34375 13.140625 15.171875 C 13.140625 15.050781 12.714844 14.949219 12.085938 14.894531 Z M 12.085938 14.894531"/><path style="stroke:none;fill-rule:nonzero;fill:#368231;fill-opacity:1" d="M 7.582031 13.816406 C 7.582031 13.492188 7.449219 13.230469 7.28125 13.230469 C 7.113281 13.230469 6.980469 13.492188 6.980469 13.816406 C 6.980469 14.144531 7.113281 14.40625 7.28125 14.40625 C 7.449219 14.40625 7.582031 14.144531 7.582031 13.816406 Z M 7.582031 13.816406"/><path style="stroke:none;fill-rule:nonzero;fill:#368231;fill-opacity:1" d="M 8.125 11.738281 C 8.125 11.457031 8 11.230469 7.84375 11.230469 C 7.6875 11.230469 7.5625 11.457031 7.5625 11.738281 C 7.5625 12.023438 7.6875 12.25 7.84375 12.25 C 8 12.25 8.125 12.023438 8.125 11.738281 Z M 8.125 11.738281"/><path style="stroke:none;fill-rule:nonzero;fill:#368231;fill-opacity:1" d="M 10.042969 12.980469 C 10.042969 12.476562 9.820312 12.074219 9.546875 12.074219 C 9.273438 12.074219 9.050781 12.476562 9.050781 12.980469 C 9.050781 13.480469 9.273438 13.886719 9.546875 13.886719 C 9.820312 13.886719 10.042969 13.480469 10.042969 12.980469 Z M 10.042969 12.980469"/><path style="stroke:none;fill-rule:nonzero;fill:#368231;fill-opacity:1" d="M 6.261719 12.289062 C 6.261719 12.0625 6.15625 11.878906 6.027344 11.878906 C 5.894531 11.878906 5.792969 12.0625 5.792969 12.289062 C 5.792969 12.515625 5.894531 12.699219 6.027344 12.699219 C 6.15625 12.699219 6.261719 12.515625 6.261719 12.289062 Z M 6.261719 12.289062"/><path style="stroke:none;fill-rule:nonzero;fill:#368231;fill-opacity:1" d="M 12.792969 14.800781 C 13.078125 14.625 13.132812 14.449219 13.105469 14.3125 C 13.070312 14.128906 12.777344 13.859375 11.25 14.046875 L 11.253906 11 L 10.914062 10.917969 L 10.875 14.480469 L 11.089844 14.449219 C 11.992188 14.320312 12.511719 14.359375 12.695312 14.40625 C 12.621094 14.476562 12.429688 14.59375 12.03125 14.714844 L 11.089844 15 L 12.070312 15.082031 C 12.367188 15.109375 12.578125 15.140625 12.722656 15.171875 C 12.425781 15.234375 11.890625 15.296875 11.140625 15.296875 C 10.609375 15.296875 10.09375 15.261719 9.730469 15.203125 L 9.703125 15.199219 L 9.675781 15.203125 C 8.964844 15.285156 8.050781 15.328125 7.109375 15.328125 C 5.128906 15.328125 3.785156 15.144531 3.386719 14.984375 C 3.554688 14.917969 3.9375 14.824219 4.652344 14.75 L 5.625 14.648438 L 4.683594 14.382812 C 4.363281 14.289062 4.167969 14.210938 4.058594 14.15625 C 4.207031 14.117188 4.488281 14.082031 4.925781 14.105469 L 5.125 14.117188 L 5.136719 10.863281 L 4.75 10.960938 L 4.75 13.726562 C 4.210938 13.710938 3.640625 13.777344 3.597656 14.105469 C 3.582031 14.230469 3.632812 14.351562 3.863281 14.476562 C 3.050781 14.621094 2.921875 14.804688 2.921875 14.984375 C 2.921875 15.214844 3.148438 15.398438 4.261719 15.546875 C 5.023438 15.648438 6.039062 15.703125 7.109375 15.703125 C 8.054688 15.703125 8.972656 15.660156 9.695312 15.578125 C 10.082031 15.640625 10.59375 15.671875 11.140625 15.671875 C 12.949219 15.671875 13.328125 15.402344 13.328125 15.171875 C 13.332031 15.035156 13.253906 14.898438 12.792969 14.800781 Z M 12.792969 14.800781"/><path style="stroke:none;fill-rule:nonzero;fill:#242424;fill-opacity:1" d="M 4.148438 7.070312 L 5.671875 6.773438 L 4.101562 6.121094 C 4.082031 6.113281 4.066406 6.105469 4.046875 6.09375 C 3.722656 5.894531 3.667969 5.484375 3.957031 5.226562 C 4.183594 5.03125 4.554688 5.027344 4.820312 5.191406 C 5.441406 5.570312 6.90625 6.46875 7.476562 6.820312 C 7.578125 6.882812 7.566406 7.015625 7.449219 7.0625 L 4.585938 8.136719 C 4.566406 8.144531 4.546875 8.148438 4.527344 8.15625 C 4.148438 8.261719 3.734375 8.046875 3.675781 7.683594 C 3.632812 7.410156 3.847656 7.152344 4.148438 7.070312 Z M 4.148438 7.070312"/><path style="stroke:none;fill-rule:nonzero;fill:#242424;fill-opacity:1" d="M 11.976562 7.039062 L 10.453125 6.742188 L 12.023438 6.089844 C 12.042969 6.082031 12.058594 6.074219 12.078125 6.0625 C 12.402344 5.863281 12.457031 5.453125 12.167969 5.195312 C 11.941406 5 11.570312 4.996094 11.304688 5.160156 C 10.683594 5.539062 9.21875 6.4375 8.648438 6.789062 C 8.546875 6.851562 8.558594 6.984375 8.675781 7.03125 L 11.539062 8.105469 C 11.558594 8.113281 11.578125 8.117188 11.597656 8.125 C 11.976562 8.230469 12.390625 8.015625 12.449219 7.652344 C 12.492188 7.378906 12.277344 7.121094 11.976562 7.039062 Z M 11.976562 7.039062"/><path style="fill-rule:nonzero;fill:#6d4c41;fill-opacity:1;stroke-width:1;stroke-linecap:butt;stroke-linejoin:miter;stroke:#6d4c41;stroke-opacity:1;stroke-miterlimit:10" d="M 52.21875 22.90625 C 52.21875 22.90625 52.1875 23.21875 52.15625 23.78125 C 52.125 23.9375 52.125 24.0625 52.125 24.25 C 52.0625 24.4375 52 24.65625 51.9375 24.90625 C 51.875 25.15625 51.8125 25.40625 51.75 25.65625 C 51.65625 25.90625 51.5625 26.15625 51.46875 26.40625 C 51.28125 26.9375 51.03125 27.5 50.71875 28.0625 C 50.40625 28.625 50.03125 29.1875 49.625 29.75 C 49.1875 30.3125 48.75 30.875 48.21875 31.375 C 47.6875 31.90625 47.125 32.375 46.53125 32.84375 C 45.90625 33.25 45.3125 33.6875 44.65625 34.03125 C 44.03125 34.40625 43.34375 34.625 42.71875 34.90625 C 42.0625 35.125 41.40625 35.34375 40.78125 35.46875 C 40.125 35.625 39.5625 35.6875 38.96875 35.71875 C 38.4375 35.78125 37.90625 35.78125 37.46875 35.75 C 37 35.75 36.625 35.6875 36.28125 35.625 C 35.65625 35.53125 35.28125 35.4375 35.28125 35.4375 C 34.21875 35.15625 33.53125 34.0625 33.8125 32.96875 C 34 32.28125 34.5 31.75 35.15625 31.53125 L 35.5 31.4375 C 35.5 31.4375 35.78125 31.34375 36.21875 31.25 C 36.4375 31.1875 36.71875 31.125 37.03125 31.03125 C 37.34375 30.9375 37.65625 30.84375 38.03125 30.6875 C 38.40625 30.59375 38.78125 30.40625 39.1875 30.25 C 39.59375 30.09375 40 29.84375 40.4375 29.65625 C 40.84375 29.40625 41.28125 29.1875 41.6875 28.90625 C 42.125 28.65625 42.53125 28.34375 42.9375 28.0625 C 43.34375 27.75 43.78125 27.4375 44.125 27.09375 C 44.5 26.78125 44.84375 26.4375 45.1875 26.09375 C 45.5 25.71875 45.84375 25.40625 46.125 25.0625 C 46.375 24.71875 46.65625 24.40625 46.875 24.09375 C 47.125 23.75 47.3125 23.5 47.4375 23.25 C 47.53125 23.125 47.625 23.03125 47.6875 22.9375 C 47.78125 22.8125 47.84375 22.65625 47.90625 22.53125 C 48.15625 22.0625 48.34375 21.78125 48.34375 21.78125 C 48.90625 20.78125 50.1875 20.46875 51.15625 21.0625 C 51.875 21.46875 52.21875 22.1875 52.21875 22.90625 Z M 52.21875 22.90625" transform="matrix(0.125,0,0,0.125,0,0)"/><path style="fill-rule:nonzero;fill:#6d4c41;fill-opacity:1;stroke-width:1;stroke-linecap:butt;stroke-linejoin:miter;stroke:#6d4c41;stroke-opacity:1;stroke-miterlimit:10" d="M 79.625 21.78125 C 79.625 21.78125 79.8125 22.0625 80.0625 22.5625 C 80.125 22.65625 80.1875 22.84375 80.28125 22.9375 C 80.34375 23.03125 80.4375 23.15625 80.5 23.28125 C 80.65625 23.5 80.84375 23.75 81.09375 24.09375 C 81.3125 24.40625 81.59375 24.71875 81.84375 25.0625 C 82.125 25.40625 82.46875 25.71875 82.78125 26.09375 C 83.125 26.4375 83.46875 26.78125 83.84375 27.125 C 84.1875 27.46875 84.625 27.75 85 28.0625 C 85.4375 28.375 85.8125 28.6875 86.25 28.90625 C 86.6875 29.1875 87.125 29.4375 87.53125 29.65625 C 87.96875 29.84375 88.375 30.09375 88.78125 30.25 C 89.1875 30.40625 89.5625 30.59375 89.9375 30.6875 C 90.28125 30.84375 90.625 30.9375 90.9375 31.03125 C 91.25 31.125 91.53125 31.21875 91.75 31.25 C 92.1875 31.375 92.46875 31.4375 92.46875 31.4375 L 92.78125 31.5625 C 93.875 31.875 94.4375 33.03125 94.125 34.09375 C 93.875 34.78125 93.34375 35.28125 92.65625 35.4375 C 92.65625 35.4375 92.3125 35.53125 91.65625 35.65625 C 91.34375 35.71875 90.96875 35.75 90.5 35.78125 C 90.03125 35.8125 89.53125 35.8125 88.96875 35.75 C 88.40625 35.71875 87.8125 35.625 87.1875 35.5 C 86.5625 35.375 85.90625 35.15625 85.25 34.9375 C 84.625 34.65625 83.90625 34.40625 83.3125 34.03125 C 82.65625 33.6875 82.03125 33.28125 81.40625 32.875 C 80.84375 32.375 80.25 31.9375 79.75 31.40625 C 79.21875 30.90625 78.78125 30.3125 78.34375 29.78125 C 77.9375 29.21875 77.5625 28.65625 77.25 28.09375 C 76.9375 27.53125 76.6875 26.96875 76.5 26.4375 C 76.375 26.1875 76.28125 25.9375 76.21875 25.6875 C 76.125 25.40625 76.0625 25.15625 76 24.9375 C 75.9375 24.6875 75.875 24.46875 75.84375 24.28125 C 75.8125 24.0625 75.8125 23.9375 75.8125 23.8125 C 75.75 23.25 75.75 22.90625 75.75 22.90625 C 75.71875 21.78125 76.625 20.84375 77.78125 20.8125 C 78.5625 20.75 79.25 21.15625 79.625 21.78125 Z M 79.625 21.78125" transform="matrix(0.125,0,0,0.125,0,0)"/></g></svg>