<svg xmlns="http://www.w3.org/2000/svg" xmlns:xlink="http://www.w3.org/1999/xlink" width="16pt" height="16pt" version="1.1" viewBox="0 0 16 16"><defs><linearGradient id="linear0" x1="64" x2="64" y1="105.26" y2="22.739" gradientTransform="matrix(0.125,0,0,0.125,0,0)" gradientUnits="userSpaceOnUse"><stop offset=".001" style="stop-color:#c7c7c7;stop-opacity:1"/><stop offset=".28" style="stop-color:#cacaca;stop-opacity:1"/><stop offset=".525" style="stop-color:#d5d5d5;stop-opacity:1"/><stop offset=".758" style="stop-color:#e7e7e7;stop-opacity:1"/><stop offset=".947" style="stop-color:#fcfcfc;stop-opacity:1"/></linearGradient></defs><g id="surface1"><path style="stroke:none;fill-rule:nonzero;fill:#ccc;fill-opacity:1" d="M 2.546875 14.214844 C 2.308594 14.214844 2.085938 14.109375 1.933594 13.921875 C 1.734375 13.675781 1.765625 13.394531 1.796875 13.25 C 1.816406 13.175781 1.796875 13.097656 1.75 13.035156 C 1.703125 12.976562 1.632812 12.945312 1.554688 12.945312 L 1.53125 12.945312 C 1.28125 12.945312 1.066406 12.847656 0.921875 12.671875 C 0.652344 12.335938 0.707031 11.839844 1.042969 11.566406 C 1.183594 11.453125 1.355469 11.390625 1.535156 11.390625 C 1.765625 11.390625 1.980469 11.492188 2.128906 11.664062 C 2.136719 11.683594 2.148438 11.703125 2.164062 11.730469 C 2.207031 11.78125 2.265625 11.820312 2.332031 11.828125 C 2.34375 11.828125 2.355469 11.828125 2.363281 11.828125 C 2.421875 11.828125 2.476562 11.808594 2.523438 11.773438 L 12.855469 3.429688 C 12.90625 3.390625 12.941406 3.328125 12.949219 3.257812 C 12.953125 3.191406 12.929688 3.121094 12.886719 3.070312 C 12.867188 3.050781 12.847656 3.035156 12.832031 3.023438 C 12.578125 2.6875 12.636719 2.207031 12.964844 1.941406 C 13.105469 1.828125 13.277344 1.765625 13.457031 1.765625 C 13.695312 1.765625 13.917969 1.871094 14.070312 2.058594 C 14.265625 2.300781 14.238281 2.582031 14.203125 2.726562 C 14.1875 2.800781 14.203125 2.882812 14.253906 2.941406 C 14.300781 3 14.371094 3.035156 14.449219 3.035156 L 14.472656 3.035156 C 14.71875 3.035156 14.9375 3.132812 15.078125 3.308594 C 15.351562 3.644531 15.296875 4.140625 14.960938 4.414062 C 14.820312 4.527344 14.648438 4.585938 14.46875 4.585938 C 14.238281 4.585938 14.023438 4.488281 13.875 4.316406 C 13.867188 4.296875 13.855469 4.273438 13.835938 4.25 C 13.796875 4.195312 13.734375 4.160156 13.667969 4.152344 C 13.660156 4.152344 13.648438 4.148438 13.636719 4.148438 C 13.578125 4.148438 13.523438 4.171875 13.480469 4.203125 L 3.148438 12.546875 C 3.097656 12.589844 3.0625 12.652344 3.054688 12.722656 C 3.050781 12.792969 3.074219 12.859375 3.117188 12.910156 C 3.136719 12.929688 3.15625 12.945312 3.171875 12.957031 C 3.425781 13.300781 3.363281 13.777344 3.039062 14.042969 C 2.894531 14.152344 2.726562 14.214844 2.546875 14.214844 Z M 2.546875 14.214844"/><path style="stroke:none;fill-rule:nonzero;fill:#a1a1a1;fill-opacity:1" d="M 13.453125 2.015625 C 13.617188 2.015625 13.769531 2.085938 13.871094 2.210938 C 14 2.375 13.980469 2.566406 13.957031 2.667969 C 13.921875 2.820312 13.957031 2.976562 14.054688 3.097656 C 14.148438 3.214844 14.292969 3.285156 14.445312 3.285156 L 14.46875 3.285156 C 14.566406 3.285156 14.753906 3.308594 14.882812 3.464844 C 15.066406 3.695312 15.027344 4.03125 14.800781 4.214844 C 14.679688 4.3125 14.550781 4.335938 14.464844 4.335938 C 14.320312 4.335938 14.179688 4.277344 14.082031 4.171875 C 14.070312 4.148438 14.054688 4.125 14.035156 4.097656 C 13.953125 3.988281 13.832031 3.921875 13.695312 3.902344 C 13.675781 3.898438 13.65625 3.898438 13.636719 3.898438 C 13.519531 3.898438 13.410156 3.9375 13.320312 4.011719 L 2.988281 12.355469 C 2.882812 12.441406 2.816406 12.566406 2.804688 12.699219 C 2.792969 12.835938 2.835938 12.96875 2.925781 13.074219 C 2.949219 13.09375 2.96875 13.113281 2.984375 13.128906 C 3.140625 13.355469 3.097656 13.667969 2.878906 13.84375 C 2.757812 13.941406 2.632812 13.964844 2.546875 13.964844 C 2.382812 13.964844 2.230469 13.890625 2.128906 13.765625 C 2 13.601562 2.019531 13.410156 2.042969 13.308594 C 2.078125 13.15625 2.042969 13 1.945312 12.878906 C 1.851562 12.761719 1.707031 12.691406 1.554688 12.691406 L 1.53125 12.691406 C 1.433594 12.691406 1.246094 12.667969 1.121094 12.511719 C 0.933594 12.28125 0.972656 11.945312 1.199219 11.757812 C 1.320312 11.660156 1.449219 11.640625 1.535156 11.640625 C 1.683594 11.640625 1.820312 11.699219 1.921875 11.804688 C 1.929688 11.824219 1.949219 11.851562 1.964844 11.875 C 2.046875 11.984375 2.171875 12.054688 2.304688 12.074219 C 2.324219 12.074219 2.34375 12.078125 2.363281 12.078125 C 2.480469 12.078125 2.589844 12.039062 2.679688 11.964844 L 13.011719 3.625 C 13.117188 3.539062 13.183594 3.414062 13.195312 3.277344 C 13.207031 3.140625 13.164062 3.007812 13.074219 2.90625 C 13.050781 2.882812 13.03125 2.863281 13.015625 2.847656 C 12.859375 2.621094 12.902344 2.308594 13.121094 2.132812 C 13.242188 2.035156 13.371094 2.015625 13.453125 2.015625 M 13.453125 1.515625 C 13.226562 1.515625 12.996094 1.589844 12.804688 1.746094 C 12.363281 2.105469 12.292969 2.753906 12.652344 3.199219 C 12.664062 3.214844 12.683594 3.222656 12.699219 3.234375 L 2.363281 11.578125 C 2.351562 11.5625 2.351562 11.542969 2.335938 11.527344 C 2.132812 11.273438 1.835938 11.140625 1.535156 11.140625 C 1.304688 11.140625 1.078125 11.21875 0.886719 11.371094 C 0.441406 11.734375 0.371094 12.382812 0.730469 12.828125 C 0.933594 13.078125 1.230469 13.195312 1.53125 13.195312 L 1.554688 13.195312 C 1.484375 13.496094 1.53125 13.820312 1.738281 14.078125 C 1.945312 14.332031 2.246094 14.464844 2.546875 14.464844 C 2.773438 14.464844 3.003906 14.390625 3.195312 14.234375 C 3.636719 13.875 3.707031 13.226562 3.347656 12.78125 C 3.335938 12.765625 3.316406 12.761719 3.300781 12.746094 L 13.632812 4.402344 C 13.644531 4.417969 13.648438 4.4375 13.660156 4.453125 C 13.863281 4.707031 14.164062 4.835938 14.464844 4.835938 C 14.695312 4.835938 14.921875 4.761719 15.113281 4.609375 C 15.558594 4.246094 15.628906 3.597656 15.269531 3.152344 C 15.066406 2.902344 14.765625 2.785156 14.464844 2.785156 L 14.441406 2.785156 C 14.515625 2.484375 14.464844 2.160156 14.257812 1.898438 C 14.054688 1.644531 13.757812 1.515625 13.453125 1.515625 Z M 13.453125 1.515625"/><path style="stroke:none;fill-rule:nonzero;fill:#ccc;fill-opacity:1" d="M 13.453125 14.214844 C 13.273438 14.214844 13.105469 14.152344 12.960938 14.039062 C 12.632812 13.773438 12.578125 13.292969 12.828125 12.957031 C 12.84375 12.945312 12.863281 12.929688 12.882812 12.910156 C 12.929688 12.859375 12.953125 12.789062 12.945312 12.722656 C 12.9375 12.65625 12.90625 12.59375 12.851562 12.546875 L 2.523438 4.203125 C 2.476562 4.167969 2.421875 4.148438 2.363281 4.148438 C 2.355469 4.148438 2.34375 4.148438 2.332031 4.152344 C 2.265625 4.160156 2.203125 4.195312 2.164062 4.25 C 2.144531 4.273438 2.132812 4.296875 2.125 4.316406 C 1.984375 4.484375 1.765625 4.585938 1.535156 4.585938 C 1.351562 4.585938 1.183594 4.523438 1.042969 4.410156 C 0.707031 4.140625 0.652344 3.644531 0.921875 3.308594 C 1.066406 3.132812 1.28125 3.035156 1.53125 3.035156 L 1.554688 3.035156 C 1.628906 3.035156 1.703125 3 1.75 2.941406 C 1.796875 2.882812 1.816406 2.804688 1.796875 2.726562 C 1.765625 2.582031 1.734375 2.300781 1.933594 2.054688 C 2.085938 1.871094 2.308594 1.765625 2.546875 1.765625 C 2.726562 1.765625 2.894531 1.828125 3.035156 1.941406 C 3.363281 2.207031 3.421875 2.6875 3.167969 3.023438 C 3.152344 3.035156 3.132812 3.050781 3.113281 3.070312 C 3.070312 3.121094 3.046875 3.191406 3.054688 3.257812 C 3.058594 3.324219 3.09375 3.390625 3.144531 3.429688 L 13.480469 11.773438 C 13.523438 11.808594 13.578125 11.828125 13.636719 11.828125 C 13.644531 11.828125 13.65625 11.828125 13.667969 11.828125 C 13.734375 11.816406 13.796875 11.78125 13.835938 11.730469 C 13.855469 11.703125 13.867188 11.679688 13.875 11.664062 C 14.019531 11.492188 14.234375 11.390625 14.46875 11.390625 C 14.648438 11.390625 14.820312 11.453125 14.960938 11.566406 C 15.296875 11.839844 15.347656 12.332031 15.078125 12.667969 C 14.933594 12.84375 14.71875 12.941406 14.472656 12.941406 L 14.445312 12.941406 C 14.371094 12.941406 14.296875 12.976562 14.25 13.035156 C 14.203125 13.09375 14.183594 13.175781 14.203125 13.25 C 14.238281 13.394531 14.265625 13.675781 14.066406 13.921875 C 13.917969 14.109375 13.691406 14.214844 13.453125 14.214844 Z M 13.453125 14.214844"/><path style="stroke:none;fill-rule:nonzero;fill:#a1a1a1;fill-opacity:1" d="M 2.546875 2.015625 C 2.632812 2.015625 2.757812 2.035156 2.878906 2.132812 C 3.097656 2.308594 3.140625 2.621094 2.984375 2.847656 C 2.96875 2.863281 2.949219 2.882812 2.925781 2.90625 C 2.835938 3.007812 2.792969 3.144531 2.804688 3.277344 C 2.816406 3.414062 2.882812 3.539062 2.988281 3.625 L 13.320312 11.96875 C 13.410156 12.039062 13.519531 12.078125 13.636719 12.078125 C 13.65625 12.078125 13.675781 12.078125 13.695312 12.074219 C 13.832031 12.058594 13.953125 11.988281 14.035156 11.878906 C 14.054688 11.851562 14.070312 11.828125 14.078125 11.804688 C 14.179688 11.703125 14.316406 11.640625 14.464844 11.640625 C 14.550781 11.640625 14.679688 11.664062 14.796875 11.761719 C 15.027344 11.945312 15.066406 12.285156 14.878906 12.511719 C 14.753906 12.671875 14.566406 12.695312 14.46875 12.695312 L 14.445312 12.695312 C 14.292969 12.695312 14.148438 12.761719 14.054688 12.878906 C 13.957031 13 13.921875 13.160156 13.957031 13.308594 C 13.980469 13.410156 14 13.605469 13.871094 13.765625 C 13.769531 13.890625 13.617188 13.964844 13.453125 13.964844 C 13.367188 13.964844 13.242188 13.945312 13.121094 13.847656 C 12.902344 13.671875 12.859375 13.359375 13.015625 13.132812 C 13.03125 13.113281 13.050781 13.097656 13.074219 13.074219 C 13.164062 12.972656 13.207031 12.835938 13.195312 12.703125 C 13.183594 12.566406 13.117188 12.441406 13.011719 12.355469 L 2.679688 4.011719 C 2.589844 3.9375 2.480469 3.898438 2.367188 3.898438 C 2.347656 3.898438 2.324219 3.898438 2.304688 3.902344 C 2.171875 3.917969 2.046875 3.988281 1.964844 4.097656 C 1.945312 4.125 1.929688 4.148438 1.921875 4.171875 C 1.820312 4.277344 1.683594 4.335938 1.535156 4.335938 C 1.449219 4.335938 1.320312 4.316406 1.203125 4.21875 C 0.972656 4.03125 0.933594 3.695312 1.121094 3.464844 C 1.246094 3.308594 1.433594 3.285156 1.535156 3.285156 L 1.558594 3.285156 C 1.707031 3.285156 1.851562 3.214844 1.945312 3.097656 C 2.042969 2.976562 2.078125 2.820312 2.042969 2.667969 C 2.019531 2.570312 2 2.375 2.128906 2.214844 C 2.230469 2.085938 2.382812 2.015625 2.546875 2.015625 M 2.546875 1.515625 C 2.242188 1.515625 1.945312 1.644531 1.738281 1.898438 C 1.53125 2.15625 1.484375 2.484375 1.554688 2.785156 L 1.53125 2.785156 C 1.230469 2.785156 0.933594 2.898438 0.730469 3.152344 C 0.371094 3.597656 0.441406 4.246094 0.886719 4.605469 C 1.078125 4.761719 1.304688 4.835938 1.535156 4.835938 C 1.835938 4.835938 2.132812 4.703125 2.335938 4.453125 C 2.351562 4.4375 2.351562 4.417969 2.363281 4.398438 L 12.695312 12.742188 C 12.683594 12.757812 12.664062 12.765625 12.648438 12.78125 C 12.292969 13.226562 12.359375 13.875 12.804688 14.234375 C 12.996094 14.390625 13.226562 14.464844 13.453125 14.464844 C 13.753906 14.464844 14.054688 14.332031 14.257812 14.078125 C 14.46875 13.820312 14.515625 13.492188 14.441406 13.191406 L 14.46875 13.191406 C 14.769531 13.191406 15.066406 13.078125 15.269531 12.824219 C 15.628906 12.378906 15.558594 11.730469 15.113281 11.371094 C 14.921875 11.214844 14.691406 11.140625 14.464844 11.140625 C 14.164062 11.140625 13.863281 11.273438 13.660156 11.523438 C 13.648438 11.542969 13.644531 11.5625 13.632812 11.578125 L 3.300781 3.234375 C 3.316406 3.222656 3.335938 3.214844 3.347656 3.199219 C 3.707031 2.753906 3.636719 2.105469 3.195312 1.746094 C 3 1.589844 2.773438 1.515625 2.546875 1.515625 Z M 2.546875 1.515625"/><path style="stroke:none;fill-rule:nonzero;fill:url(#linear0)" d="M 5.882812 13.15625 C 5.765625 13.15625 5.671875 13.0625 5.671875 12.945312 L 5.671875 11.554688 C 5.671875 11.417969 5.558594 11.304688 5.421875 11.304688 L 4.679688 11.304688 C 4.304688 11.304688 3.953125 11.160156 3.691406 10.894531 C 3.425781 10.628906 3.28125 10.277344 3.28125 9.90625 L 3.28125 7.558594 C 3.28125 4.957031 5.398438 2.84375 8 2.84375 C 10.601562 2.84375 12.714844 4.957031 12.714844 7.558594 L 12.714844 9.902344 C 12.714844 10.675781 12.085938 11.304688 11.316406 11.304688 L 10.578125 11.304688 C 10.4375 11.304688 10.328125 11.417969 10.328125 11.554688 L 10.328125 12.945312 C 10.328125 13.0625 10.230469 13.15625 10.113281 13.15625 Z M 5.882812 13.15625"/><path style="stroke:none;fill-rule:nonzero;fill:#a1a1a1;fill-opacity:1" d="M 8 3.09375 C 10.460938 3.09375 12.464844 5.097656 12.464844 7.558594 L 12.464844 9.902344 C 12.464844 10.539062 11.949219 11.054688 11.316406 11.054688 L 10.578125 11.054688 C 10.300781 11.054688 10.078125 11.277344 10.078125 11.554688 L 10.078125 12.90625 L 5.921875 12.90625 L 5.921875 11.554688 C 5.921875 11.277344 5.695312 11.054688 5.421875 11.054688 L 4.679688 11.054688 C 4.375 11.054688 4.085938 10.933594 3.867188 10.714844 C 3.652344 10.5 3.53125 10.210938 3.53125 9.902344 L 3.53125 7.558594 C 3.535156 5.097656 5.539062 3.09375 8 3.09375 M 8 2.59375 C 5.261719 2.59375 3.035156 4.820312 3.035156 7.558594 L 3.035156 9.902344 C 3.03125 10.8125 3.769531 11.554688 4.683594 11.554688 L 5.421875 11.554688 L 5.421875 12.945312 C 5.421875 13.199219 5.628906 13.40625 5.882812 13.40625 L 10.113281 13.40625 C 10.371094 13.40625 10.578125 13.203125 10.578125 12.945312 L 10.578125 11.554688 L 11.316406 11.554688 C 12.226562 11.554688 12.96875 10.8125 12.96875 9.902344 L 12.96875 7.558594 C 12.964844 4.820312 10.738281 2.59375 8 2.59375 Z M 8 2.59375"/><path style="stroke:none;fill-rule:nonzero;fill:#242424;fill-opacity:1" d="M 8.304688 10.382812 L 7.6875 10.382812 C 7.464844 10.382812 7.308594 10.167969 7.371094 9.953125 L 7.578125 9.285156 C 7.703125 8.871094 8.292969 8.871094 8.417969 9.285156 L 8.625 9.953125 C 8.6875 10.167969 8.527344 10.382812 8.304688 10.382812 Z M 8.304688 10.382812"/><path style="stroke:none;fill-rule:nonzero;fill:#242424;fill-opacity:1" d="M 9.128906 8.050781 C 9.128906 7.339844 9.703125 6.765625 10.414062 6.765625 C 11.125 6.765625 11.703125 7.339844 11.703125 8.050781 C 11.703125 8.765625 11.128906 9.339844 10.414062 9.339844 C 9.703125 9.339844 9.128906 8.765625 9.128906 8.050781 Z M 9.128906 8.050781"/><path style="stroke:none;fill-rule:nonzero;fill:#242424;fill-opacity:1" d="M 4.292969 8.050781 C 4.292969 7.339844 4.867188 6.765625 5.582031 6.765625 C 6.292969 6.765625 6.867188 7.339844 6.867188 8.050781 C 6.867188 8.765625 6.292969 9.339844 5.582031 9.339844 C 4.871094 9.339844 4.292969 8.765625 4.292969 8.050781 Z M 4.292969 8.050781"/><path style="stroke:none;fill-rule:nonzero;fill:#242424;fill-opacity:1" d="M 6.695312 13.378906 L 6.648438 13.378906 C 6.5 13.378906 6.378906 13.257812 6.378906 13.109375 L 6.378906 12.390625 C 6.378906 12.238281 6.5 12.117188 6.648438 12.117188 L 6.695312 12.117188 C 6.847656 12.117188 6.96875 12.238281 6.96875 12.390625 L 6.96875 13.109375 C 6.96875 13.257812 6.847656 13.378906 6.695312 13.378906 Z M 6.695312 13.378906"/><path style="stroke:none;fill-rule:nonzero;fill:#242424;fill-opacity:1" d="M 8.019531 13.359375 L 7.972656 13.359375 C 7.824219 13.359375 7.703125 13.238281 7.703125 13.085938 L 7.703125 12.367188 C 7.703125 12.21875 7.824219 12.097656 7.972656 12.097656 L 8.019531 12.097656 C 8.171875 12.097656 8.292969 12.21875 8.292969 12.367188 L 8.292969 13.085938 C 8.292969 13.238281 8.171875 13.359375 8.019531 13.359375 Z M 8.019531 13.359375"/><path style="stroke:none;fill-rule:nonzero;fill:#242424;fill-opacity:1" d="M 9.34375 13.359375 L 9.296875 13.359375 C 9.148438 13.359375 9.027344 13.238281 9.027344 13.085938 L 9.027344 12.367188 C 9.027344 12.21875 9.148438 12.097656 9.296875 12.097656 L 9.34375 12.097656 C 9.496094 12.097656 9.617188 12.21875 9.617188 12.367188 L 9.617188 13.085938 C 9.617188 13.238281 9.496094 13.359375 9.34375 13.359375 Z M 9.34375 13.359375"/></g></svg>