<svg xmlns="http://www.w3.org/2000/svg" xmlns:xlink="http://www.w3.org/1999/xlink" width="16pt" height="16pt" version="1.1" viewBox="0 0 16 16"><defs><linearGradient id="linear0" x1="64" x2="64" y1="21.465" y2="109.45" gradientTransform="matrix(0.125,0,0,0.125,0,0)" gradientUnits="userSpaceOnUse"><stop offset=".5" style="stop-color:#fee133;stop-opacity:1"/><stop offset=".612" style="stop-color:#fede32;stop-opacity:1"/><stop offset=".708" style="stop-color:#fcd32f;stop-opacity:1"/><stop offset=".797" style="stop-color:#fac12b;stop-opacity:1"/><stop offset=".883" style="stop-color:#f7a924;stop-opacity:1"/><stop offset=".9" style="stop-color:#f6a323;stop-opacity:1"/></linearGradient></defs><g id="surface1"><path style="stroke:none;fill-rule:nonzero;fill:url(#linear0)" d="M 8 15.203125 C 4.507812 15.203125 0.75 13.019531 0.75 8.21875 C 0.75 3.417969 4.507812 1.234375 8 1.230469 C 9.933594 1.230469 11.726562 1.871094 13.046875 3.035156 C 14.488281 4.308594 15.25 6.101562 15.25 8.21875 C 15.25 10.328125 14.488281 12.113281 13.046875 13.390625 C 11.722656 14.5625 9.929688 15.203125 8 15.203125 Z M 8 15.203125"/><path style="stroke:none;fill-rule:nonzero;fill:#eb8f00;fill-opacity:1" d="M 8 1.480469 C 9.875 1.480469 11.609375 2.101562 12.878906 3.222656 C 14.265625 4.449219 15 6.175781 15 8.21875 C 15 10.253906 14.265625 11.976562 12.878906 13.203125 C 11.601562 14.332031 9.871094 14.953125 8 14.953125 C 6.121094 14.953125 4.386719 14.339844 3.121094 13.226562 C 1.734375 12.007812 1 10.277344 1 8.21875 C 1 6.152344 1.734375 4.417969 3.121094 3.199219 C 4.382812 2.09375 6.117188 1.480469 8 1.480469 M 8 0.980469 C 4.105469 0.980469 0.5 3.484375 0.5 8.21875 C 0.5 12.925781 4.105469 15.453125 8 15.453125 C 11.894531 15.453125 15.5 12.863281 15.5 8.21875 C 15.5 3.546875 11.894531 0.980469 8 0.980469 Z M 8 0.980469"/><path style="stroke:none;fill-rule:nonzero;fill:#d7598b;fill-opacity:1" d="M 9.773438 2.703125 C 9.730469 2.683594 9.683594 2.667969 9.636719 2.652344 C 9.582031 2.628906 9.527344 2.609375 9.472656 2.59375 C 9.386719 2.566406 9.296875 2.542969 9.210938 2.515625 C 9.109375 2.480469 9 2.445312 8.898438 2.414062 C 8.699219 2.347656 8.445312 2.195312 8.316406 2.480469 C 8.289062 2.539062 8.261719 2.621094 8.265625 2.683594 C 8.269531 2.789062 8.339844 2.832031 8.433594 2.871094 C 8.523438 2.90625 8.621094 2.941406 8.714844 2.972656 C 8.746094 2.980469 8.78125 2.992188 8.8125 3 C 8.832031 3.007812 8.863281 3.011719 8.859375 3.035156 C 8.859375 3.050781 8.835938 3.066406 8.824219 3.078125 C 8.800781 3.09375 8.777344 3.109375 8.753906 3.128906 L 8.71875 3.152344 C 8.648438 3.199219 8.578125 3.246094 8.507812 3.289062 C 8.453125 3.328125 8.394531 3.363281 8.339844 3.402344 C 8.320312 3.417969 8.296875 3.433594 8.273438 3.449219 C 8.195312 3.496094 8.132812 3.550781 8.0625 3.605469 L 8.039062 3.628906 C 7.972656 3.6875 7.90625 3.753906 7.898438 3.84375 C 7.890625 3.957031 7.976562 4.011719 8.078125 4.058594 C 8.113281 4.074219 8.152344 4.089844 8.191406 4.101562 L 8.195312 4.101562 C 8.316406 4.152344 8.453125 4.1875 8.589844 4.234375 C 8.695312 4.265625 8.796875 4.300781 8.902344 4.332031 C 9.101562 4.398438 9.355469 4.550781 9.484375 4.269531 C 9.511719 4.207031 9.539062 4.128906 9.535156 4.0625 C 9.53125 3.960938 9.457031 3.914062 9.367188 3.875 C 9.277344 3.839844 9.179688 3.804688 9.085938 3.777344 C 9.0625 3.769531 9.042969 3.765625 9.019531 3.757812 C 9.007812 3.75 8.980469 3.746094 8.96875 3.738281 C 8.945312 3.710938 8.992188 3.691406 9.007812 3.679688 C 9.058594 3.648438 9.109375 3.617188 9.160156 3.585938 C 9.210938 3.550781 9.265625 3.515625 9.316406 3.476562 C 9.339844 3.460938 9.367188 3.445312 9.394531 3.425781 C 9.453125 3.390625 9.511719 3.355469 9.5625 3.308594 C 9.695312 3.199219 10.011719 3.066406 9.90625 2.84375 C 9.878906 2.792969 9.824219 2.730469 9.773438 2.703125 Z M 9.773438 2.703125"/><path style="stroke:none;fill-rule:nonzero;fill:#d7598b;fill-opacity:1" d="M 12.257812 1.511719 C 12.207031 1.488281 12.152344 1.476562 12.101562 1.460938 C 12.039062 1.441406 11.976562 1.421875 11.914062 1.410156 C 11.816406 1.390625 11.71875 1.367188 11.625 1.347656 C 11.507812 1.320312 11.390625 1.289062 11.273438 1.261719 C 11.046875 1.203125 10.761719 1.058594 10.644531 1.378906 C 10.621094 1.445312 10.59375 1.539062 10.601562 1.609375 C 10.617188 1.722656 10.699219 1.765625 10.800781 1.796875 C 10.90625 1.832031 11.015625 1.859375 11.121094 1.886719 C 11.15625 1.894531 11.191406 1.902344 11.226562 1.910156 C 11.25 1.917969 11.285156 1.917969 11.28125 1.945312 C 11.285156 1.964844 11.261719 1.980469 11.25 1.992188 C 11.222656 2.015625 11.199219 2.035156 11.171875 2.054688 C 11.160156 2.066406 11.148438 2.074219 11.136719 2.082031 C 11.066406 2.140625 10.988281 2.199219 10.917969 2.253906 C 10.859375 2.296875 10.800781 2.34375 10.746094 2.390625 C 10.722656 2.410156 10.699219 2.425781 10.671875 2.445312 C 10.59375 2.503906 10.527344 2.566406 10.457031 2.632812 C 10.449219 2.640625 10.4375 2.652344 10.429688 2.660156 C 10.363281 2.730469 10.296875 2.808594 10.296875 2.90625 C 10.296875 3.03125 10.394531 3.082031 10.511719 3.125 C 10.550781 3.140625 10.589844 3.152344 10.636719 3.160156 L 10.640625 3.164062 C 10.777344 3.210938 10.933594 3.238281 11.082031 3.273438 C 11.199219 3.300781 11.316406 3.328125 11.433594 3.359375 C 11.65625 3.414062 11.945312 3.558594 12.0625 3.238281 C 12.085938 3.171875 12.113281 3.078125 12.105469 3.011719 C 12.089844 2.898438 12.007812 2.851562 11.902344 2.820312 C 11.796875 2.785156 11.691406 2.757812 11.585938 2.734375 C 11.5625 2.726562 11.539062 2.722656 11.515625 2.714844 C 11.496094 2.710938 11.46875 2.710938 11.457031 2.703125 C 11.425781 2.675781 11.476562 2.648438 11.492188 2.636719 C 11.546875 2.597656 11.601562 2.558594 11.652344 2.515625 C 11.703125 2.476562 11.761719 2.433594 11.8125 2.386719 C 11.839844 2.367188 11.867188 2.347656 11.894531 2.324219 C 11.953125 2.28125 12.015625 2.234375 12.070312 2.183594 C 12.207031 2.046875 12.539062 1.878906 12.40625 1.644531 C 12.378906 1.597656 12.3125 1.53125 12.257812 1.511719 Z M 12.257812 1.511719"/><path style="stroke:none;fill-rule:nonzero;fill:#d7598b;fill-opacity:1" d="M 15.578125 1.121094 C 15.539062 1.054688 15.453125 0.96875 15.378906 0.9375 C 15.3125 0.910156 15.242188 0.890625 15.171875 0.871094 C 15.089844 0.847656 15.007812 0.824219 14.921875 0.804688 C 14.792969 0.777344 14.664062 0.75 14.539062 0.71875 C 14.382812 0.679688 14.226562 0.640625 14.070312 0.605469 C 13.769531 0.53125 13.390625 0.335938 13.234375 0.765625 C 13.203125 0.851562 13.167969 0.976562 13.179688 1.066406 C 13.199219 1.21875 13.308594 1.277344 13.445312 1.320312 C 13.582031 1.367188 13.726562 1.402344 13.867188 1.4375 C 13.914062 1.449219 13.960938 1.460938 14.011719 1.46875 C 14.039062 1.476562 14.082031 1.480469 14.082031 1.515625 C 14.082031 1.539062 14.054688 1.5625 14.035156 1.578125 C 14.003906 1.609375 13.96875 1.632812 13.9375 1.660156 C 13.921875 1.671875 13.90625 1.683594 13.890625 1.699219 C 13.792969 1.773438 13.695312 1.847656 13.597656 1.921875 C 13.519531 1.980469 13.441406 2.042969 13.367188 2.105469 C 13.335938 2.128906 13.304688 2.152344 13.273438 2.175781 C 13.167969 2.253906 13.078125 2.339844 12.984375 2.425781 L 12.949219 2.464844 C 12.859375 2.554688 12.769531 2.65625 12.769531 2.785156 C 12.769531 2.953125 12.902344 3.019531 13.054688 3.078125 C 13.109375 3.101562 13.164062 3.117188 13.222656 3.128906 L 13.226562 3.132812 C 13.410156 3.195312 13.617188 3.230469 13.816406 3.277344 C 13.972656 3.316406 14.128906 3.355469 14.285156 3.390625 C 14.582031 3.464844 14.964844 3.660156 15.121094 3.234375 C 15.152344 3.144531 15.1875 3.023438 15.175781 2.929688 C 15.15625 2.777344 15.046875 2.71875 14.910156 2.675781 C 14.769531 2.628906 14.628906 2.59375 14.488281 2.558594 C 14.453125 2.550781 14.425781 2.546875 14.390625 2.539062 C 14.371094 2.53125 14.332031 2.53125 14.316406 2.515625 C 14.277344 2.484375 14.34375 2.445312 14.367188 2.429688 C 14.4375 2.378906 14.507812 2.328125 14.578125 2.273438 C 14.648438 2.214844 14.722656 2.164062 14.789062 2.101562 C 14.828125 2.074219 14.863281 2.046875 14.902344 2.015625 C 14.980469 1.957031 15.058594 1.898438 15.132812 1.828125 C 15.3125 1.65625 15.753906 1.425781 15.578125 1.121094 Z M 15.578125 1.121094"/><path style="stroke:none;fill-rule:nonzero;fill:#242424;fill-opacity:1" d="M 6.957031 12.914062 C 6.648438 12.914062 6.359375 12.738281 6.207031 12.457031 C 6.058594 12.175781 6.074219 11.847656 6.25 11.578125 C 6.640625 10.980469 7.246094 10.664062 8 10.664062 C 8.753906 10.664062 9.359375 10.980469 9.75 11.578125 C 9.929688 11.847656 9.945312 12.175781 9.792969 12.457031 C 9.640625 12.738281 9.351562 12.914062 9.042969 12.914062 C 8.945312 12.914062 8.847656 12.898438 8.753906 12.863281 C 8.507812 12.777344 8.253906 12.734375 8 12.734375 C 7.746094 12.734375 7.492188 12.777344 7.246094 12.863281 C 7.152344 12.898438 7.054688 12.914062 6.957031 12.914062 Z M 6.957031 12.914062"/><path style="stroke:none;fill-rule:nonzero;fill:#242424;fill-opacity:1" d="M 6.203125 6.835938 L 6.175781 6.863281 C 6.164062 6.875 6.132812 6.910156 6.113281 6.925781 C 6.089844 6.945312 6.058594 6.96875 6.027344 6.996094 C 5.988281 7.023438 5.949219 7.054688 5.902344 7.085938 C 5.859375 7.113281 5.808594 7.144531 5.753906 7.171875 C 5.703125 7.199219 5.640625 7.21875 5.582031 7.242188 C 5.523438 7.261719 5.457031 7.273438 5.394531 7.289062 C 5.332031 7.296875 5.265625 7.300781 5.199219 7.300781 L 5.214844 7.300781 L 5.140625 7.300781 C 5.105469 7.300781 5.101562 7.296875 5.089844 7.296875 C 5.070312 7.296875 5.03125 7.292969 5 7.285156 C 4.9375 7.273438 4.875 7.261719 4.8125 7.238281 C 4.753906 7.21875 4.695312 7.199219 4.640625 7.167969 C 4.585938 7.140625 4.539062 7.113281 4.492188 7.082031 C 4.402344 7.023438 4.328125 6.964844 4.277344 6.917969 C 4.230469 6.875 4.199219 6.847656 4.199219 6.847656 L 4.167969 6.816406 C 4.015625 6.667969 3.761719 6.660156 3.597656 6.792969 C 3.46875 6.898438 3.433594 7.0625 3.5 7.199219 L 3.519531 7.238281 C 3.53125 7.261719 3.546875 7.296875 3.574219 7.34375 C 3.625 7.429688 3.710938 7.554688 3.84375 7.6875 C 3.914062 7.753906 3.992188 7.820312 4.082031 7.882812 C 4.175781 7.949219 4.28125 8.007812 4.398438 8.058594 C 4.515625 8.109375 4.644531 8.152344 4.777344 8.179688 C 4.847656 8.191406 4.910156 8.203125 4.996094 8.210938 C 5.035156 8.214844 5.078125 8.21875 5.101562 8.222656 L 5.195312 8.226562 C 5.335938 8.222656 5.476562 8.207031 5.613281 8.179688 C 5.75 8.152344 5.875 8.109375 5.992188 8.058594 C 6.109375 8.007812 6.21875 7.949219 6.308594 7.886719 C 6.402344 7.824219 6.480469 7.753906 6.546875 7.6875 C 6.617188 7.625 6.671875 7.558594 6.714844 7.5 C 6.734375 7.46875 6.757812 7.441406 6.773438 7.417969 C 6.792969 7.386719 6.808594 7.359375 6.824219 7.335938 C 6.859375 7.285156 6.859375 7.265625 6.875 7.242188 C 6.882812 7.222656 6.886719 7.210938 6.886719 7.210938 C 6.972656 7.023438 6.871094 6.8125 6.660156 6.738281 C 6.496094 6.679688 6.3125 6.722656 6.203125 6.835938 Z M 6.203125 6.835938"/><path style="stroke:none;fill-rule:nonzero;fill:#242424;fill-opacity:1" d="M 11.8125 6.835938 L 11.789062 6.863281 C 11.773438 6.875 11.742188 6.910156 11.726562 6.925781 C 11.703125 6.945312 11.671875 6.96875 11.640625 6.996094 C 11.601562 7.023438 11.5625 7.054688 11.515625 7.085938 C 11.46875 7.113281 11.421875 7.144531 11.367188 7.171875 C 11.3125 7.199219 11.253906 7.21875 11.195312 7.242188 C 11.132812 7.261719 11.070312 7.273438 11.007812 7.289062 C 10.941406 7.296875 10.875 7.300781 10.808594 7.300781 L 10.828125 7.300781 L 10.75 7.300781 C 10.71875 7.300781 10.710938 7.296875 10.699219 7.296875 C 10.679688 7.296875 10.644531 7.292969 10.613281 7.285156 C 10.546875 7.273438 10.484375 7.261719 10.425781 7.238281 C 10.367188 7.21875 10.304688 7.199219 10.253906 7.167969 C 10.199219 7.140625 10.148438 7.113281 10.105469 7.082031 C 10.015625 7.023438 9.941406 6.964844 9.890625 6.917969 C 9.839844 6.875 9.8125 6.847656 9.8125 6.847656 L 9.78125 6.816406 C 9.628906 6.667969 9.375 6.660156 9.210938 6.792969 C 9.078125 6.898438 9.046875 7.0625 9.113281 7.199219 L 9.132812 7.238281 C 9.144531 7.261719 9.160156 7.296875 9.1875 7.34375 C 9.238281 7.429688 9.324219 7.554688 9.457031 7.6875 C 9.523438 7.753906 9.605469 7.820312 9.699219 7.882812 C 9.789062 7.949219 9.894531 8.007812 10.011719 8.058594 C 10.128906 8.109375 10.257812 8.152344 10.390625 8.179688 C 10.460938 8.191406 10.523438 8.203125 10.609375 8.210938 C 10.648438 8.214844 10.695312 8.21875 10.714844 8.222656 L 10.808594 8.226562 C 10.953125 8.222656 11.089844 8.207031 11.226562 8.179688 C 11.363281 8.152344 11.488281 8.109375 11.609375 8.058594 C 11.722656 8.007812 11.832031 7.949219 11.921875 7.886719 C 12.015625 7.824219 12.09375 7.753906 12.160156 7.6875 C 12.230469 7.625 12.28125 7.558594 12.328125 7.5 C 12.347656 7.46875 12.367188 7.441406 12.386719 7.417969 C 12.40625 7.386719 12.421875 7.359375 12.4375 7.335938 C 12.46875 7.285156 12.472656 7.265625 12.484375 7.242188 C 12.492188 7.222656 12.5 7.210938 12.5 7.210938 C 12.582031 7.023438 12.480469 6.8125 12.273438 6.738281 C 12.109375 6.679688 11.925781 6.722656 11.8125 6.835938 Z M 11.8125 6.835938"/></g></svg>