<svg xmlns="http://www.w3.org/2000/svg" xmlns:xlink="http://www.w3.org/1999/xlink" width="16pt" height="16pt" version="1.1" viewBox="0 0 16 16"><defs><linearGradient id="linear0" x1="106.6" x2="106.6" y1="6.5" y2="75.447" gradientTransform="matrix(0.125,0,0,0.125,0,0)" gradientUnits="userSpaceOnUse"><stop offset="0" style="stop-color:#eee;stop-opacity:1"/><stop offset="1" style="stop-color:#bdbdbd;stop-opacity:1"/></linearGradient><linearGradient id="linear1" x1="90.539" x2="90.539" y1="6.5" y2="67.051" gradientTransform="matrix(0.125,0,0,0.125,0,0)" gradientUnits="userSpaceOnUse"><stop offset="0" style="stop-color:#eee;stop-opacity:1"/><stop offset="1" style="stop-color:#bdbdbd;stop-opacity:1"/></linearGradient><linearGradient id="linear2" x1="76" x2="76" y1="69.468" y2="94.966" gradientTransform="matrix(0.125,0,0,0.125,0,0)" gradientUnits="userSpaceOnUse"><stop offset="0" style="stop-color:#eee;stop-opacity:1"/><stop offset=".267" style="stop-color:#e9e9e9;stop-opacity:1"/><stop offset=".594" style="stop-color:#dadada;stop-opacity:1"/><stop offset=".953" style="stop-color:#c1c1c1;stop-opacity:1"/><stop offset="1" style="stop-color:#bdbdbd;stop-opacity:1"/></linearGradient><linearGradient id="linear3" x1="117.68" x2="117.68" y1="71.875" y2="92.899" gradientTransform="matrix(0.125,0,0,0.125,0,0)" gradientUnits="userSpaceOnUse"><stop offset="0" style="stop-color:#ff6e40;stop-opacity:1"/><stop offset=".224" style="stop-color:#ff6a3a;stop-opacity:1"/><stop offset=".519" style="stop-color:#ff5d2a;stop-opacity:1"/><stop offset=".852" style="stop-color:#ff480e;stop-opacity:1"/><stop offset="1" style="stop-color:#ff3d00;stop-opacity:1"/></linearGradient><linearGradient id="linear4" x1="22" x2="22" y1="72.5" y2="90.677" gradientTransform="matrix(0.125,0,0,0.125,0,0)" gradientUnits="userSpaceOnUse"><stop offset="0" style="stop-color:#ffc107;stop-opacity:1"/><stop offset="1" style="stop-color:#ffa000;stop-opacity:1"/></linearGradient><filter id="alpha" width="100%" height="100%" x="0%" y="0%" filterUnits="objectBoundingBox"><feColorMatrix in="SourceGraphic" type="matrix" values="0 0 0 0 1 0 0 0 0 1 0 0 0 0 1 0 0 0 1 0"/></filter><mask id="mask0"><g filter="url(#alpha)"><rect width="16" height="16" x="0" y="0" style="fill:#000;fill-opacity:.2;stroke:none"/></g></mask><clipPath id="clip1"><rect width="16" height="16"/></clipPath><g id="surface6" clip-path="url(#clip1)"><path style="stroke:none;fill-rule:nonzero;fill:#424242;fill-opacity:1" d="M 4.625 9 L 5 9 L 5 11.5 L 4.625 11.5 Z M 4.625 9"/></g><mask id="mask1"><g filter="url(#alpha)"><rect width="16" height="16" x="0" y="0" style="fill:#000;fill-opacity:.8;stroke:none"/></g></mask><clipPath id="clip2"><rect width="16" height="16"/></clipPath><g id="surface9" clip-path="url(#clip2)"><path style="stroke:none;fill-rule:nonzero;fill:#eee;fill-opacity:1" d="M 5 9 L 6 9 L 6 11.5 L 5 11.5 Z M 5 9"/></g><mask id="mask2"><g filter="url(#alpha)"><rect width="16" height="16" x="0" y="0" style="fill:#000;fill-opacity:.101961;stroke:none"/></g></mask><clipPath id="clip3"><rect width="16" height="16"/></clipPath><g id="surface12" clip-path="url(#clip3)"><path style="stroke:none;fill-rule:nonzero;fill:#e0e0e0;fill-opacity:1" d="M 6.757812 9 L 6.882812 9 L 6.882812 11.5 L 6.757812 11.5 Z M 6.757812 9"/></g><mask id="mask3"><g filter="url(#alpha)"><rect width="16" height="16" x="0" y="0" style="fill:#000;fill-opacity:.101961;stroke:none"/></g></mask><clipPath id="clip4"><rect width="16" height="16"/></clipPath><g id="surface15" clip-path="url(#clip4)"><path style="stroke:none;fill-rule:nonzero;fill:#e0e0e0;fill-opacity:1" d="M 7.414062 9 L 7.539062 9 L 7.539062 11.5 L 7.414062 11.5 Z M 7.414062 9"/></g><mask id="mask4"><g filter="url(#alpha)"><rect width="16" height="16" x="0" y="0" style="fill:#000;fill-opacity:.101961;stroke:none"/></g></mask><clipPath id="clip5"><rect width="16" height="16"/></clipPath><g id="surface18" clip-path="url(#clip5)"><path style="stroke:none;fill-rule:nonzero;fill:#e0e0e0;fill-opacity:1" d="M 8.070312 9 L 8.195312 9 L 8.195312 11.5 L 8.070312 11.5 Z M 8.070312 9"/></g><mask id="mask5"><g filter="url(#alpha)"><rect width="16" height="16" x="0" y="0" style="fill:#000;fill-opacity:.101961;stroke:none"/></g></mask><clipPath id="clip6"><rect width="16" height="16"/></clipPath><g id="surface21" clip-path="url(#clip6)"><path style="stroke:none;fill-rule:nonzero;fill:#e0e0e0;fill-opacity:1" d="M 8.726562 9 L 8.851562 9 L 8.851562 11.5 L 8.726562 11.5 Z M 8.726562 9"/></g><mask id="mask6"><g filter="url(#alpha)"><rect width="16" height="16" x="0" y="0" style="fill:#000;fill-opacity:.101961;stroke:none"/></g></mask><clipPath id="clip7"><rect width="16" height="16"/></clipPath><g id="surface24" clip-path="url(#clip7)"><path style="stroke:none;fill-rule:nonzero;fill:#e0e0e0;fill-opacity:1" d="M 9.382812 9 L 9.507812 9 L 9.507812 11.5 L 9.382812 11.5 Z M 9.382812 9"/></g><mask id="mask7"><g filter="url(#alpha)"><rect width="16" height="16" x="0" y="0" style="fill:#000;fill-opacity:.101961;stroke:none"/></g></mask><clipPath id="clip8"><rect width="16" height="16"/></clipPath><g id="surface27" clip-path="url(#clip8)"><path style="stroke:none;fill-rule:nonzero;fill:#e0e0e0;fill-opacity:1" d="M 10.039062 9 L 10.164062 9 L 10.164062 11.5 L 10.039062 11.5 Z M 10.039062 9"/></g><mask id="mask8"><g filter="url(#alpha)"><rect width="16" height="16" x="0" y="0" style="fill:#000;fill-opacity:.101961;stroke:none"/></g></mask><clipPath id="clip9"><rect width="16" height="16"/></clipPath><g id="surface30" clip-path="url(#clip9)"><path style="stroke:none;fill-rule:nonzero;fill:#e0e0e0;fill-opacity:1" d="M 10.695312 9 L 10.820312 9 L 10.820312 11.5 L 10.695312 11.5 Z M 10.695312 9"/></g><mask id="mask9"><g filter="url(#alpha)"><rect width="16" height="16" x="0" y="0" style="fill:#000;fill-opacity:.101961;stroke:none"/></g></mask><clipPath id="clip10"><rect width="16" height="16"/></clipPath><g id="surface33" clip-path="url(#clip10)"><path style="stroke:none;fill-rule:nonzero;fill:#e0e0e0;fill-opacity:1" d="M 11.351562 9 L 11.476562 9 L 11.476562 11.5 L 11.351562 11.5 Z M 11.351562 9"/></g><mask id="mask10"><g filter="url(#alpha)"><rect width="16" height="16" x="0" y="0" style="fill:#000;fill-opacity:.101961;stroke:none"/></g></mask><clipPath id="clip11"><rect width="16" height="16"/></clipPath><g id="surface36" clip-path="url(#clip11)"><path style="stroke:none;fill-rule:nonzero;fill:#e0e0e0;fill-opacity:1" d="M 12.007812 9 L 12.132812 9 L 12.132812 11.5 L 12.007812 11.5 Z M 12.007812 9"/></g><mask id="mask11"><g filter="url(#alpha)"><rect width="16" height="16" x="0" y="0" style="fill:#000;fill-opacity:.101961;stroke:none"/></g></mask><clipPath id="clip12"><rect width="16" height="16"/></clipPath><g id="surface39" clip-path="url(#clip12)"><path style="stroke:none;fill-rule:nonzero;fill:#e0e0e0;fill-opacity:1" d="M 12.664062 9 L 12.789062 9 L 12.789062 11.5 L 12.664062 11.5 Z M 12.664062 9"/></g><mask id="mask12"><g filter="url(#alpha)"><rect width="16" height="16" x="0" y="0" style="fill:#000;fill-opacity:.101961;stroke:none"/></g></mask><clipPath id="clip13"><rect width="16" height="16"/></clipPath><g id="surface42" clip-path="url(#clip13)"><path style="stroke:none;fill-rule:nonzero;fill:#e0e0e0;fill-opacity:1" d="M 13.320312 9 L 13.445312 9 L 13.445312 11.5 L 13.320312 11.5 Z M 13.320312 9"/></g><mask id="mask13"><g filter="url(#alpha)"><rect width="16" height="16" x="0" y="0" style="fill:#000;fill-opacity:.2;stroke:none"/></g></mask><clipPath id="clip14"><rect width="16" height="16"/></clipPath><g id="surface45" clip-path="url(#clip14)"><path style="stroke:none;fill-rule:nonzero;fill:#424242;fill-opacity:1" d="M 15.125 9.375 L 15.125 11.125 L 1.0625 11.125 C 0.988281 11.027344 0.875 10.710938 0.875 10.25 C 0.875 9.789062 0.988281 9.472656 1.0625 9.375 Z M 15.242188 9 L 1 9 C 0.722656 9 0.5 9.558594 0.5 10.25 C 0.5 10.941406 0.722656 11.5 1 11.5 L 15.242188 11.5 C 15.386719 11.5 15.5 11.386719 15.5 11.242188 L 15.5 9.257812 C 15.5 9.113281 15.386719 9 15.242188 9 Z M 15.242188 9"/></g><mask id="mask14"><g filter="url(#alpha)"><rect width="16" height="16" x="0" y="0" style="fill:#000;fill-opacity:.2;stroke:none"/></g></mask><clipPath id="clip15"><rect width="16" height="16"/></clipPath><g id="surface48" clip-path="url(#clip15)"><path style="stroke:none;fill-rule:nonzero;fill:#424242;fill-opacity:1" d="M 12.800781 1.175781 C 13.1875 1.328125 13.585938 1.566406 13.863281 1.9375 C 14.207031 2.402344 14.308594 3.011719 14.164062 3.753906 C 13.890625 5.171875 13.683594 6.515625 13.957031 7.46875 C 13.417969 6.90625 12.964844 6.015625 13.121094 4.765625 C 13.316406 3.214844 13.457031 2.0625 12.800781 1.175781 M 11.746094 0.542969 C 11.648438 0.542969 11.613281 0.671875 11.703125 0.722656 C 13.097656 1.53125 13.015625 2.585938 12.75 4.71875 C 12.484375 6.878906 13.882812 8.132812 14.785156 8.488281 C 14.804688 8.496094 14.824219 8.5 14.839844 8.5 C 14.980469 8.5 15.066406 8.296875 14.929688 8.214844 C 13.929688 7.621094 14.125 5.933594 14.53125 3.824219 C 15.03125 1.234375 12.734375 0.640625 11.757812 0.542969 C 11.753906 0.542969 11.75 0.542969 11.746094 0.542969 Z M 11.746094 0.542969"/></g><mask id="mask15"><g filter="url(#alpha)"><rect width="16" height="16" x="0" y="0" style="fill:#000;fill-opacity:.2;stroke:none"/></g></mask><clipPath id="clip16"><rect width="16" height="16"/></clipPath><g id="surface51" clip-path="url(#clip16)"><path style="stroke:none;fill-rule:nonzero;fill:#424242;fill-opacity:1" d="M 11.105469 1.191406 C 11.34375 1.3125 11.574219 1.484375 11.738281 1.714844 C 12.003906 2.082031 12.074219 2.566406 11.949219 3.152344 C 11.730469 4.195312 11.554688 5.1875 11.671875 5.960938 C 11.332031 5.503906 11.089844 4.851562 11.214844 3.992188 C 11.375 2.847656 11.507812 1.925781 11.105469 1.191406 M 10.078125 0.5 C 10 0.5 9.96875 0.605469 10.039062 0.648438 C 11.171875 1.332031 11.089844 2.195312 10.84375 3.9375 C 10.59375 5.703125 11.722656 6.753906 12.457031 7.058594 C 12.472656 7.066406 12.488281 7.066406 12.503906 7.066406 C 12.617188 7.066406 12.691406 6.90625 12.578125 6.835938 C 11.769531 6.332031 11.953125 4.953125 12.316406 3.230469 C 12.761719 1.117188 10.886719 0.597656 10.085938 0.5 C 10.085938 0.5 10.082031 0.5 10.078125 0.5 Z M 10.078125 0.5"/></g></defs><g id="surface1"><path style="stroke:none;fill-rule:nonzero;fill:url(#linear0)" d="M 14.929688 8.214844 C 15.085938 8.308594 14.953125 8.554688 14.785156 8.488281 C 13.882812 8.132812 12.484375 6.878906 12.75 4.71875 C 13.015625 2.585938 13.097656 1.53125 11.703125 0.722656 C 11.609375 0.671875 11.652344 0.53125 11.757812 0.542969 C 12.734375 0.640625 15.03125 1.234375 14.535156 3.824219 C 14.128906 5.933594 13.933594 7.621094 14.929688 8.214844 Z M 14.929688 8.214844"/><path style="stroke:none;fill-rule:nonzero;fill:url(#linear1)" d="M 12.578125 6.835938 C 12.707031 6.914062 12.59375 7.113281 12.457031 7.058594 C 11.722656 6.753906 10.589844 5.703125 10.84375 3.9375 C 11.089844 2.195312 11.171875 1.332031 10.039062 0.648438 C 9.964844 0.605469 10.003906 0.488281 10.089844 0.5 C 10.890625 0.59375 12.765625 1.113281 12.316406 3.230469 C 11.953125 4.953125 11.769531 6.332031 12.578125 6.835938 Z M 12.578125 6.835938"/><path style="stroke:none;fill-rule:nonzero;fill:url(#linear2)" d="M 6 9 L 5 9 L 5 11.5 L 14 11.5 L 14 9 Z M 6 9"/><path style="stroke:none;fill-rule:nonzero;fill:url(#linear3)" d="M 15.242188 11.5 L 13.921875 11.5 L 13.921875 9 L 15.242188 9 C 15.386719 9 15.5 9.113281 15.5 9.257812 L 15.5 11.242188 C 15.5 11.386719 15.386719 11.5 15.242188 11.5 Z M 15.242188 11.5"/><path style="stroke:none;fill-rule:nonzero;fill:url(#linear4)" d="M 1 9 C 0.722656 9 0.5 9.558594 0.5 10.25 C 0.5 10.941406 0.722656 11.5 1 11.5 L 5 11.5 L 5 9 Z M 1 9"/><use mask="url(#mask0)" xlink:href="#surface6"/><use mask="url(#mask1)" xlink:href="#surface9"/><path style="stroke:none;fill-rule:nonzero;fill:#ffca28;fill-opacity:1" d="M 1.1875 9.105469 L 1.085938 9.210938 C 1.0625 9.238281 1.078125 9.28125 1.113281 9.28125 L 1.316406 9.28125 C 1.347656 9.28125 1.367188 9.238281 1.34375 9.210938 L 1.242188 9.105469 C 1.226562 9.089844 1.203125 9.089844 1.1875 9.105469 Z M 1.1875 9.105469"/><path style="stroke:none;fill-rule:nonzero;fill:#ffca28;fill-opacity:1" d="M 1.972656 10.996094 L 2.132812 10.851562 C 2.171875 10.816406 2.152344 10.75 2.105469 10.746094 L 1.808594 10.714844 C 1.757812 10.707031 1.726562 10.769531 1.757812 10.8125 L 1.890625 10.988281 C 1.910156 11.011719 1.949219 11.015625 1.972656 10.996094 Z M 1.972656 10.996094"/><path style="stroke:none;fill-rule:nonzero;fill:#ffca28;fill-opacity:1" d="M 1.304688 11.257812 L 1.195312 11.378906 C 1.171875 11.40625 1.1875 11.457031 1.226562 11.453125 L 1.449219 11.453125 C 1.488281 11.453125 1.507812 11.402344 1.480469 11.375 L 1.367188 11.257812 C 1.351562 11.238281 1.324219 11.238281 1.304688 11.257812 Z M 1.304688 11.257812"/><path style="stroke:none;fill-rule:nonzero;fill:#ffca28;fill-opacity:1" d="M 2.019531 9.636719 L 1.921875 9.742188 C 1.898438 9.769531 1.914062 9.8125 1.949219 9.8125 L 2.148438 9.8125 C 2.183594 9.8125 2.199219 9.769531 2.175781 9.742188 L 2.078125 9.636719 C 2.0625 9.621094 2.035156 9.621094 2.019531 9.636719 Z M 2.019531 9.636719"/><path style="stroke:none;fill-rule:nonzero;fill:#ffca28;fill-opacity:1" d="M 0.851562 9.847656 L 0.953125 10.089844 C 0.976562 10.148438 1.054688 10.148438 1.078125 10.085938 L 1.203125 9.738281 C 1.222656 9.675781 1.167969 9.621094 1.113281 9.644531 L 0.886719 9.753906 C 0.851562 9.769531 0.835938 9.8125 0.851562 9.847656 Z M 0.851562 9.847656"/><path style="stroke:none;fill-rule:nonzero;fill:#ffca28;fill-opacity:1" d="M 1.09375 10.695312 L 1.132812 10.785156 C 1.140625 10.808594 1.171875 10.808594 1.179688 10.785156 L 1.230469 10.648438 C 1.238281 10.628906 1.214844 10.605469 1.195312 10.613281 L 1.109375 10.65625 C 1.09375 10.664062 1.085938 10.679688 1.09375 10.695312 Z M 1.09375 10.695312"/><path style="stroke:none;fill-rule:nonzero;fill:#ffca28;fill-opacity:1" d="M 1.460938 9.894531 L 1.382812 9.921875 C 1.363281 9.925781 1.359375 9.953125 1.378906 9.964844 L 1.480469 10.019531 C 1.5 10.03125 1.519531 10.011719 1.511719 9.992188 L 1.488281 9.910156 C 1.484375 9.898438 1.472656 9.890625 1.460938 9.894531 Z M 1.460938 9.894531"/><path style="stroke:none;fill-rule:nonzero;fill:#ffca28;fill-opacity:1" d="M 2.65625 9.34375 L 2.554688 9.449219 C 2.53125 9.476562 2.546875 9.519531 2.582031 9.519531 L 2.785156 9.519531 C 2.816406 9.519531 2.835938 9.476562 2.8125 9.449219 L 2.710938 9.34375 C 2.695312 9.328125 2.671875 9.328125 2.65625 9.34375 Z M 2.65625 9.34375"/><path style="stroke:none;fill-rule:nonzero;fill:#ffca28;fill-opacity:1" d="M 3.472656 10.992188 L 3.265625 10.976562 C 3.214844 10.972656 3.183594 11.035156 3.21875 11.078125 L 3.410156 11.320312 C 3.441406 11.359375 3.507812 11.339844 3.511719 11.285156 L 3.527344 11.058594 C 3.527344 11.023438 3.503906 10.996094 3.472656 10.992188 Z M 3.472656 10.992188"/><path style="stroke:none;fill-rule:nonzero;fill:#ffca28;fill-opacity:1" d="M 3.492188 9.875 L 3.390625 9.980469 C 3.367188 10.007812 3.382812 10.050781 3.417969 10.050781 L 3.617188 10.050781 C 3.652344 10.050781 3.671875 10.007812 3.644531 9.980469 L 3.546875 9.875 C 3.53125 9.859375 3.507812 9.859375 3.492188 9.875 Z M 3.492188 9.875"/><path style="stroke:none;fill-rule:nonzero;fill:#ffca28;fill-opacity:1" d="M 4.132812 9.433594 L 4.21875 9.554688 C 4.238281 9.582031 4.28125 9.570312 4.289062 9.535156 L 4.3125 9.324219 C 4.316406 9.285156 4.277344 9.261719 4.25 9.285156 L 4.140625 9.378906 C 4.121094 9.390625 4.121094 9.417969 4.132812 9.433594 Z M 4.132812 9.433594"/><path style="stroke:none;fill-rule:nonzero;fill:#ffca28;fill-opacity:1" d="M 4.421875 9.660156 L 4.261719 9.742188 C 4.222656 9.761719 4.222656 9.824219 4.265625 9.835938 L 4.5 9.929688 C 4.539062 9.945312 4.578125 9.898438 4.558594 9.859375 L 4.484375 9.683594 C 4.472656 9.660156 4.445312 9.648438 4.421875 9.660156 Z M 4.421875 9.660156"/><path style="stroke:none;fill-rule:nonzero;fill:#ffca28;fill-opacity:1" d="M 3.652344 10.515625 L 3.554688 10.621094 C 3.53125 10.648438 3.546875 10.691406 3.582031 10.691406 L 3.78125 10.691406 C 3.816406 10.691406 3.832031 10.648438 3.808594 10.621094 L 3.707031 10.515625 C 3.695312 10.5 3.667969 10.5 3.652344 10.515625 Z M 3.652344 10.515625"/><path style="stroke:none;fill-rule:nonzero;fill:#ffca28;fill-opacity:1" d="M 2.996094 9.21875 L 3.027344 9.421875 C 3.035156 9.46875 3.09375 9.484375 3.121094 9.445312 L 3.277344 9.207031 C 3.304688 9.167969 3.273438 9.113281 3.226562 9.121094 L 3.039062 9.152344 C 3.011719 9.160156 2.992188 9.1875 2.996094 9.21875 Z M 2.996094 9.21875"/><path style="stroke:none;fill-rule:nonzero;fill:#ffca28;fill-opacity:1" d="M 2.324219 10.085938 L 2.421875 10.328125 C 2.445312 10.390625 2.523438 10.386719 2.546875 10.328125 L 2.671875 9.976562 C 2.695312 9.917969 2.636719 9.859375 2.582031 9.886719 L 2.355469 9.992188 C 2.324219 10.007812 2.308594 10.050781 2.324219 10.085938 Z M 2.324219 10.085938"/><path style="stroke:none;fill-rule:nonzero;fill:#ffca28;fill-opacity:1" d="M 2.5625 10.929688 L 2.601562 11.023438 C 2.609375 11.046875 2.640625 11.046875 2.648438 11.023438 L 2.699219 10.886719 C 2.707031 10.863281 2.683594 10.84375 2.664062 10.851562 L 2.578125 10.894531 C 2.5625 10.902344 2.558594 10.917969 2.5625 10.929688 Z M 2.5625 10.929688"/><path style="stroke:none;fill-rule:nonzero;fill:#ffca28;fill-opacity:1" d="M 2.929688 10.132812 L 2.851562 10.160156 C 2.832031 10.164062 2.832031 10.191406 2.847656 10.203125 L 2.953125 10.257812 C 2.96875 10.269531 2.988281 10.25 2.984375 10.230469 L 2.957031 10.148438 C 2.953125 10.136719 2.941406 10.128906 2.929688 10.132812 Z M 2.929688 10.132812"/><path style="stroke:none;fill-rule:nonzero;fill:#ffca28;fill-opacity:1" d="M 3.453125 9.523438 L 3.441406 9.597656 C 3.441406 9.617188 3.457031 9.628906 3.472656 9.617188 L 3.550781 9.554688 C 3.566406 9.542969 3.5625 9.519531 3.542969 9.519531 L 3.472656 9.507812 C 3.464844 9.503906 3.453125 9.511719 3.453125 9.523438 Z M 3.453125 9.523438"/><path style="stroke:none;fill-rule:nonzero;fill:#ffca28;fill-opacity:1" d="M 4.007812 9.046875 L 3.945312 9.082031 C 3.929688 9.089844 3.933594 9.113281 3.953125 9.121094 L 4.046875 9.148438 C 4.0625 9.152344 4.078125 9.132812 4.070312 9.117188 L 4.035156 9.050781 C 4.027344 9.042969 4.015625 9.039062 4.007812 9.046875 Z M 4.007812 9.046875"/><path style="stroke:none;fill-rule:nonzero;fill:#ffca28;fill-opacity:1" d="M 4.09375 10.015625 L 3.980469 10.050781 C 3.953125 10.058594 3.949219 10.101562 3.972656 10.113281 L 4.121094 10.203125 C 4.144531 10.214844 4.175781 10.191406 4.167969 10.160156 L 4.132812 10.039062 C 4.128906 10.019531 4.109375 10.007812 4.09375 10.015625 Z M 4.09375 10.015625"/><path style="stroke:none;fill-rule:nonzero;fill:#ffca28;fill-opacity:1" d="M 4.402344 10.511719 L 4.511719 10.609375 C 4.539062 10.632812 4.578125 10.609375 4.574219 10.574219 L 4.558594 10.359375 C 4.554688 10.324219 4.511719 10.308594 4.488281 10.335938 L 4.398438 10.453125 C 4.386719 10.46875 4.386719 10.496094 4.402344 10.511719 Z M 4.402344 10.511719"/><path style="stroke:none;fill-rule:nonzero;fill:#ffca28;fill-opacity:1" d="M 3.210938 10.492188 L 3.273438 10.546875 C 3.289062 10.5625 3.308594 10.546875 3.308594 10.527344 L 3.296875 10.410156 C 3.296875 10.390625 3.273438 10.382812 3.261719 10.398438 L 3.210938 10.460938 C 3.203125 10.46875 3.203125 10.484375 3.210938 10.492188 Z M 3.210938 10.492188"/><path style="stroke:none;fill-rule:nonzero;fill:#ffca28;fill-opacity:1" d="M 0.726562 10.464844 L 0.609375 10.492188 C 0.582031 10.5 0.574219 10.539062 0.597656 10.554688 L 0.742188 10.652344 C 0.765625 10.671875 0.796875 10.644531 0.792969 10.617188 L 0.765625 10.488281 C 0.761719 10.472656 0.742188 10.460938 0.726562 10.464844 Z M 0.726562 10.464844"/><path style="stroke:none;fill-rule:nonzero;fill:#ffca28;fill-opacity:1" d="M 1.992188 10.234375 L 1.914062 10.261719 C 1.894531 10.265625 1.890625 10.296875 1.910156 10.304688 L 2.011719 10.359375 C 2.03125 10.371094 2.050781 10.355469 2.042969 10.332031 L 2.019531 10.25 C 2.015625 10.238281 2.003906 10.230469 1.992188 10.234375 Z M 1.992188 10.234375"/><path style="stroke:none;fill-rule:nonzero;fill:#ffca28;fill-opacity:1" d="M 4.460938 10.953125 L 4.273438 11.019531 C 4.230469 11.035156 4.222656 11.101562 4.265625 11.125 L 4.511719 11.265625 C 4.554688 11.289062 4.601562 11.242188 4.589844 11.195312 L 4.527344 10.992188 C 4.519531 10.960938 4.492188 10.945312 4.460938 10.953125 Z M 4.460938 10.953125"/><path style="stroke:none;fill-rule:nonzero;fill:#ffca28;fill-opacity:1" d="M 1.953125 9.207031 L 1.832031 9.25 C 1.800781 9.261719 1.796875 9.304688 1.828125 9.320312 L 1.988281 9.410156 C 2.015625 9.425781 2.046875 9.398438 2.039062 9.367188 L 2 9.234375 C 1.992188 9.214844 1.972656 9.203125 1.953125 9.207031 Z M 1.953125 9.207031"/><path style="stroke:none;fill-rule:nonzero;fill:#e64a19;fill-opacity:1" d="M 14.667969 9.082031 L 14.5625 9.191406 C 14.535156 9.21875 14.554688 9.261719 14.589844 9.261719 L 14.804688 9.261719 C 14.839844 9.261719 14.859375 9.21875 14.832031 9.191406 L 14.726562 9.082031 C 14.710938 9.066406 14.683594 9.066406 14.667969 9.082031 Z M 14.667969 9.082031"/><path style="stroke:none;fill-rule:nonzero;fill:#e64a19;fill-opacity:1" d="M 15.113281 10.984375 L 15.289062 10.839844 C 15.328125 10.804688 15.308594 10.738281 15.253906 10.734375 L 14.9375 10.703125 C 14.882812 10.699219 14.851562 10.761719 14.882812 10.800781 L 15.027344 10.976562 C 15.050781 11 15.085938 11.003906 15.113281 10.984375 Z M 15.113281 10.984375"/><path style="stroke:none;fill-rule:nonzero;fill:#e64a19;fill-opacity:1" d="M 14.796875 11.234375 L 14.679688 11.355469 C 14.648438 11.386719 14.671875 11.433594 14.710938 11.433594 L 14.953125 11.429688 C 14.992188 11.429688 15.011719 11.382812 14.984375 11.351562 L 14.859375 11.234375 C 14.84375 11.214844 14.8125 11.21875 14.796875 11.234375 Z M 14.796875 11.234375"/><path style="stroke:none;fill-rule:nonzero;fill:#e64a19;fill-opacity:1" d="M 15 9.511719 L 14.894531 9.617188 C 14.867188 9.644531 14.886719 9.6875 14.921875 9.6875 L 15.136719 9.6875 C 15.171875 9.6875 15.191406 9.644531 15.164062 9.617188 L 15.058594 9.511719 C 15.042969 9.496094 15.015625 9.496094 15 9.511719 Z M 15 9.511719"/><path style="stroke:none;fill-rule:nonzero;fill:#e64a19;fill-opacity:1" d="M 14.308594 9.828125 L 14.417969 10.070312 C 14.445312 10.128906 14.527344 10.128906 14.550781 10.066406 L 14.683594 9.71875 C 14.707031 9.65625 14.648438 9.601562 14.589844 9.625 L 14.347656 9.734375 C 14.308594 9.75 14.292969 9.792969 14.308594 9.828125 Z M 14.308594 9.828125"/><path style="stroke:none;fill-rule:nonzero;fill:#e64a19;fill-opacity:1" d="M 14.570312 10.671875 L 14.609375 10.765625 C 14.621094 10.789062 14.652344 10.789062 14.660156 10.765625 L 14.710938 10.628906 C 14.722656 10.609375 14.699219 10.585938 14.675781 10.59375 L 14.582031 10.636719 C 14.570312 10.640625 14.5625 10.660156 14.570312 10.671875 Z M 14.570312 10.671875"/><path style="stroke:none;fill-rule:nonzero;fill:#e64a19;fill-opacity:1" d="M 14.960938 9.875 L 14.878906 9.898438 C 14.859375 9.90625 14.855469 9.933594 14.875 9.945312 L 14.984375 10 C 15.003906 10.011719 15.023438 9.992188 15.019531 9.972656 L 14.992188 9.890625 C 14.984375 9.875 14.972656 9.871094 14.960938 9.875 Z M 14.960938 9.875"/><path style="stroke:none;fill-rule:nonzero;fill:#e64a19;fill-opacity:1" d="M 14.175781 10.445312 L 14.046875 10.472656 C 14.019531 10.480469 14.011719 10.519531 14.039062 10.535156 L 14.191406 10.632812 C 14.21875 10.648438 14.253906 10.625 14.246094 10.597656 L 14.214844 10.46875 C 14.210938 10.453125 14.195312 10.4375 14.175781 10.445312 Z M 14.175781 10.445312"/><path style="stroke:none;fill-rule:nonzero;fill:#e64a19;fill-opacity:1" d="M 14.761719 10.234375 L 14.679688 10.261719 C 14.660156 10.265625 14.65625 10.296875 14.675781 10.304688 L 14.785156 10.359375 C 14.804688 10.371094 14.824219 10.355469 14.820312 10.332031 L 14.789062 10.25 C 14.785156 10.238281 14.773438 10.230469 14.761719 10.234375 Z M 14.761719 10.234375"/><path style="stroke:none;fill-rule:nonzero;fill:#e64a19;fill-opacity:1" d="M 14.1875 9.449219 L 14.105469 9.472656 C 14.085938 9.480469 14.082031 9.507812 14.101562 9.515625 L 14.210938 9.574219 C 14.230469 9.582031 14.25 9.566406 14.246094 9.546875 L 14.21875 9.464844 C 14.214844 9.453125 14.199219 9.445312 14.1875 9.449219 Z M 14.1875 9.449219"/><path style="stroke:none;fill-rule:nonzero;fill:#e64a19;fill-opacity:1" d="M 15.253906 9.21875 L 15.121094 9.261719 C 15.085938 9.269531 15.082031 9.316406 15.113281 9.332031 L 15.289062 9.421875 C 15.320312 9.4375 15.351562 9.410156 15.34375 9.378906 L 15.300781 9.246094 C 15.292969 9.222656 15.273438 9.210938 15.253906 9.21875 Z M 15.253906 9.21875"/><path style="stroke:none;fill-rule:nonzero;fill:#e64a19;fill-opacity:1" d="M 15.230469 10.269531 L 15.097656 10.3125 C 15.066406 10.324219 15.0625 10.367188 15.09375 10.382812 L 15.265625 10.476562 C 15.296875 10.488281 15.332031 10.460938 15.320312 10.429688 L 15.277344 10.296875 C 15.273438 10.277344 15.25 10.265625 15.230469 10.269531 Z M 15.230469 10.269531"/><path style="stroke:none;fill-rule:nonzero;fill:#e64a19;fill-opacity:1" d="M 14.367188 11.03125 L 14.234375 11.074219 C 14.203125 11.082031 14.199219 11.128906 14.230469 11.144531 L 14.402344 11.234375 C 14.433594 11.25 14.46875 11.222656 14.457031 11.191406 L 14.414062 11.058594 C 14.410156 11.035156 14.386719 11.023438 14.367188 11.03125 Z M 14.367188 11.03125"/><use mask="url(#mask2)" xlink:href="#surface12"/><use mask="url(#mask3)" xlink:href="#surface15"/><use mask="url(#mask4)" xlink:href="#surface18"/><use mask="url(#mask5)" xlink:href="#surface21"/><use mask="url(#mask6)" xlink:href="#surface24"/><use mask="url(#mask7)" xlink:href="#surface27"/><use mask="url(#mask8)" xlink:href="#surface30"/><use mask="url(#mask9)" xlink:href="#surface33"/><use mask="url(#mask10)" xlink:href="#surface36"/><use mask="url(#mask11)" xlink:href="#surface39"/><use mask="url(#mask12)" xlink:href="#surface42"/><use mask="url(#mask13)" xlink:href="#surface45"/><use mask="url(#mask14)" xlink:href="#surface48"/><use mask="url(#mask15)" xlink:href="#surface51"/></g></svg>