<svg xmlns="http://www.w3.org/2000/svg" xmlns:xlink="http://www.w3.org/1999/xlink" width="16pt" height="16pt" version="1.1" viewBox="0 0 16 16"><defs><radialGradient id="radial0" cx="63.934" cy="87.394" r="37.317" fx="63.934" fy="87.394" gradientTransform="matrix(0,0.125,-0.138125,0,20.0625,2.9325)" gradientUnits="userSpaceOnUse"><stop offset=".671" style="stop-color:#fafafa;stop-opacity:1"/><stop offset=".886" style="stop-color:#cfd8dc;stop-opacity:1"/></radialGradient><filter id="alpha" width="100%" height="100%" x="0%" y="0%" filterUnits="objectBoundingBox"><feColorMatrix in="SourceGraphic" type="matrix" values="0 0 0 0 1 0 0 0 0 1 0 0 0 0 1 0 0 0 1 0"/></filter><mask id="mask0"><g filter="url(#alpha)"><rect width="16" height="16" x="0" y="0" style="fill:#000;fill-opacity:.2;stroke:none"/></g></mask><clipPath id="clip1"><rect width="16" height="16"/></clipPath><g id="surface6" clip-path="url(#clip1)"><path style="stroke:none;fill-rule:nonzero;fill:#424242;fill-opacity:1" d="M 8 7.035156 C 9.433594 7.035156 10.425781 7.289062 11.117188 7.839844 C 11.730469 8.324219 12.144531 9.066406 12.464844 10.246094 C 12.660156 10.957031 12.980469 12.746094 11.769531 13.953125 C 11.667969 14.054688 11.632812 14.203125 11.679688 14.339844 C 11.726562 14.476562 11.847656 14.574219 11.988281 14.589844 C 13.257812 14.742188 14.046875 14.945312 14.515625 15.125 L 1.515625 15.125 C 1.984375 14.949219 2.757812 14.746094 4.007812 14.59375 C 4.148438 14.578125 4.269531 14.480469 4.316406 14.34375 C 4.363281 14.207031 4.328125 14.054688 4.222656 13.957031 C 3.808594 13.550781 2.917969 12.375 3.527344 10.253906 C 4.132812 8.167969 5.023438 7.035156 8 7.035156 M 8 6.660156 C 4.871094 6.660156 3.828125 7.859375 3.171875 10.148438 C 2.773438 11.523438 2.855469 13.128906 3.960938 14.222656 C 1.90625 14.476562 0.535156 14.925781 0.503906 15.5 L 15.527344 15.5 C 15.496094 14.921875 14.109375 14.46875 12.03125 14.21875 C 13.128906 13.128906 13.203125 11.527344 12.828125 10.148438 C 12.203125 7.859375 11.125 6.660156 8 6.660156 Z M 8 6.660156"/></g><mask id="mask1"><g filter="url(#alpha)"><rect width="16" height="16" x="0" y="0" style="fill:#000;fill-opacity:.2;stroke:none"/></g></mask><clipPath id="clip2"><rect width="16" height="16"/></clipPath><g id="surface9" clip-path="url(#clip2)"><path style="stroke:none;fill-rule:nonzero;fill:#424242;fill-opacity:1" d="M 10.566406 6.5 C 10.664062 6.5 10.796875 7.050781 10.796875 7.242188 C 10.789062 7.375 10.292969 7.894531 7.984375 7.894531 C 7.519531 7.894531 7.125 7.882812 6.699219 7.839844 C 6.683594 7.839844 6.671875 7.839844 6.660156 7.839844 C 6.566406 7.839844 6.460938 7.878906 6.390625 7.941406 C 6.3125 8.011719 6.25 8.109375 6.25 8.21875 L 6.25 10.703125 C 6.25 10.933594 6.046875 11.125 5.8125 11.125 C 5.578125 11.125 5.375 10.9375 5.375 10.703125 L 5.375 7.726562 C 5.375 7.640625 5.375 7.554688 5.320312 7.488281 C 5.230469 7.382812 5.199219 7.261719 5.1875 7.226562 C 5.195312 7.03125 5.34375 6.625 5.445312 6.5 L 10.625 6.5 M 10.640625 6.125 L 5.371094 6.125 C 5.078125 6.125 4.796875 6.949219 4.796875 7.242188 C 4.796875 7.351562 4.875 7.5625 5 7.726562 L 5 10.703125 C 5 11.140625 5.371094 11.5 5.8125 11.5 C 6.253906 11.5 6.625 11.144531 6.625 10.703125 L 6.625 8.21875 C 7 8.257812 7.449219 8.28125 7.964844 8.28125 C 10.785156 8.28125 11.160156 7.535156 11.160156 7.242188 C 11.160156 6.949219 10.9375 6.125 10.640625 6.125 Z M 10.640625 6.125"/></g><radialGradient id="radial1" cx="64.179" cy="59.232" r="30.289" fx="64.179" fy="59.232" gradientTransform="matrix(0.125,0,0,0.125,0,0)" gradientUnits="userSpaceOnUse"><stop offset=".621" style="stop-color:#fff;stop-opacity:1"/><stop offset=".831" style="stop-color:#cfd8dc;stop-opacity:1"/></radialGradient><mask id="mask2"><g filter="url(#alpha)"><rect width="16" height="16" x="0" y="0" style="fill:#000;fill-opacity:.2;stroke:none"/></g></mask><clipPath id="clip3"><rect width="16" height="16"/></clipPath><g id="surface12" clip-path="url(#clip3)"><path style="stroke:none;fill-rule:nonzero;fill:#424242;fill-opacity:1" d="M 7.992188 2.433594 C 9.265625 2.433594 10.300781 3.46875 10.300781 4.742188 C 10.300781 5.4375 10.300781 6.039062 10.035156 6.429688 C 9.742188 6.851562 9.078125 7.054688 7.992188 7.054688 C 6.910156 7.054688 6.242188 6.851562 5.953125 6.429688 C 5.683594 6.039062 5.683594 5.441406 5.683594 4.742188 C 5.683594 3.46875 6.71875 2.433594 7.992188 2.433594 M 7.992188 2.058594 C 6.511719 2.058594 5.308594 3.261719 5.308594 4.742188 C 5.308594 6.226562 5.308594 7.429688 7.992188 7.429688 C 10.675781 7.429688 10.675781 6.226562 10.675781 4.742188 C 10.675781 3.261719 9.476562 2.058594 7.992188 2.058594 Z M 7.992188 2.058594"/></g><mask id="mask3"><g filter="url(#alpha)"><rect width="16" height="16" x="0" y="0" style="fill:#000;fill-opacity:.2;stroke:none"/></g></mask><clipPath id="clip4"><rect width="16" height="16"/></clipPath><g id="surface15" clip-path="url(#clip4)"><path style="stroke:none;fill-rule:nonzero;fill:#424242;fill-opacity:1" d="M 1.828125 6.09375 C 1.917969 6.09375 1.996094 6.117188 2.140625 6.253906 C 2.234375 6.335938 2.269531 6.402344 2.300781 6.472656 C 2.332031 6.546875 2.433594 6.75 2.691406 6.75 L 2.699219 6.75 C 2.773438 6.75 2.84375 6.742188 2.902344 6.703125 C 2.925781 6.863281 2.9375 7.027344 2.925781 7.089844 C 2.902344 7.195312 2.925781 7.304688 2.988281 7.390625 C 3.023438 7.441406 3.074219 7.484375 3.128906 7.511719 L 2.46875 7.949219 C 2.472656 7.882812 2.457031 7.816406 2.425781 7.757812 C 2.378906 7.664062 2.292969 7.59375 2.191406 7.566406 C 2.125 7.527344 1.925781 7.363281 1.726562 7.109375 C 1.5 6.824219 1.421875 6.617188 1.425781 6.550781 C 1.441406 6.191406 1.652344 6.121094 1.652344 6.121094 C 1.71875 6.101562 1.777344 6.09375 1.828125 6.09375 M 1.828125 5.71875 C 1.746094 5.71875 1.65625 5.730469 1.550781 5.761719 C 1.363281 5.8125 1.074219 6.042969 1.050781 6.535156 C 1.035156 7.015625 1.855469 7.886719 2.09375 7.925781 C 2.046875 8.027344 2.046875 8.144531 2.113281 8.246094 C 2.175781 8.339844 2.277344 8.390625 2.382812 8.390625 C 2.445312 8.390625 2.503906 8.371094 2.558594 8.335938 L 3.429688 7.761719 C 3.578125 7.664062 3.621094 7.464844 3.523438 7.316406 C 3.46875 7.234375 3.382812 7.1875 3.292969 7.175781 C 3.335938 6.957031 3.246094 6.394531 3.164062 6.195312 C 3.136719 6.125 3.015625 5.964844 2.875 5.964844 C 2.851562 5.964844 2.828125 5.953125 2.800781 5.960938 C 2.558594 6.054688 2.726562 6.375 2.691406 6.375 C 2.648438 6.375 2.628906 6.171875 2.394531 5.957031 C 2.222656 5.800781 2.054688 5.71875 1.828125 5.71875 Z M 1.828125 5.71875"/></g><mask id="mask4"><g filter="url(#alpha)"><rect width="16" height="16" x="0" y="0" style="fill:#000;fill-opacity:.2;stroke:none"/></g></mask><clipPath id="clip5"><rect width="16" height="16"/></clipPath><g id="surface18" clip-path="url(#clip5)"><path style="stroke:none;fill-rule:nonzero;fill:#424242;fill-opacity:1" d="M 14.171875 6.09375 C 14.222656 6.09375 14.28125 6.101562 14.347656 6.121094 C 14.347656 6.121094 14.558594 6.191406 14.574219 6.550781 C 14.578125 6.617188 14.5 6.824219 14.273438 7.109375 C 14.074219 7.363281 13.878906 7.527344 13.808594 7.566406 C 13.707031 7.59375 13.621094 7.664062 13.574219 7.757812 C 13.542969 7.820312 13.527344 7.882812 13.53125 7.949219 L 12.871094 7.511719 C 12.925781 7.484375 12.976562 7.445312 13.011719 7.394531 C 13.074219 7.308594 13.09375 7.203125 13.074219 7.101562 C 13.0625 7.039062 13.074219 6.863281 13.097656 6.703125 C 13.15625 6.746094 13.226562 6.75 13.300781 6.75 L 13.308594 6.75 C 13.566406 6.75 13.667969 6.542969 13.699219 6.472656 C 13.730469 6.402344 13.765625 6.328125 13.859375 6.242188 C 14.003906 6.109375 14.082031 6.09375 14.171875 6.09375 M 14.171875 5.71875 C 13.945312 5.71875 13.777344 5.800781 13.605469 5.957031 C 13.371094 6.171875 13.351562 6.375 13.308594 6.375 C 13.277344 6.375 13.441406 6.054688 13.199219 5.960938 C 13.175781 5.953125 13.152344 5.957031 13.128906 5.957031 C 12.984375 5.957031 12.863281 6.121094 12.835938 6.191406 C 12.753906 6.390625 12.664062 6.957031 12.707031 7.171875 C 12.617188 7.183594 12.53125 7.234375 12.480469 7.316406 C 12.382812 7.464844 12.421875 7.664062 12.570312 7.761719 L 13.441406 8.335938 C 13.496094 8.371094 13.558594 8.390625 13.617188 8.390625 C 13.722656 8.390625 13.828125 8.339844 13.886719 8.246094 C 13.953125 8.144531 13.953125 8.027344 13.90625 7.925781 C 14.148438 7.886719 14.96875 7.015625 14.949219 6.535156 C 14.929688 6.046875 14.636719 5.8125 14.449219 5.761719 C 14.347656 5.730469 14.253906 5.71875 14.171875 5.71875 Z M 14.171875 5.71875"/></g><mask id="mask5"><g filter="url(#alpha)"><rect width="16" height="16" x="0" y="0" style="fill:#000;fill-opacity:.2;stroke:none"/></g></mask><clipPath id="clip6"><rect width="16" height="16"/></clipPath><g id="surface21" clip-path="url(#clip6)"><path style="stroke:none;fill-rule:nonzero;fill:#eee;fill-opacity:1" d="M 10.210938 0.875 C 10.277344 0.875 10.375 0.945312 10.375 1.015625 L 10.375 3.800781 C 10.375 4.007812 10.503906 4.125 10.710938 4.125 L 11.375 4.125 L 11.375 4.5 L 4.625 4.5 L 4.625 4.125 L 5.289062 4.125 C 5.496094 4.125 5.625 4.007812 5.625 3.800781 L 5.625 1.015625 C 5.625 0.945312 5.722656 0.875 5.789062 0.875 L 10.25 0.875 M 10.210938 0.5 L 5.789062 0.5 C 5.515625 0.5 5.25 0.738281 5.25 1.015625 L 5.25 3.75 L 4.472656 3.75 C 4.335938 3.75 4.25 3.914062 4.25 4.050781 L 4.25 4.648438 C 4.25 4.785156 4.335938 4.875 4.472656 4.875 L 11.523438 4.875 C 11.664062 4.875 11.75 4.785156 11.75 4.648438 L 11.75 4.050781 C 11.75 3.914062 11.664062 3.75 11.523438 3.75 L 10.75 3.75 L 10.75 1.015625 C 10.75 0.738281 10.484375 0.5 10.210938 0.5 Z M 10.210938 0.5"/></g></defs><g id="surface1"><path style="stroke:none;fill-rule:nonzero;fill:#cfd8dc;fill-opacity:1" d="M 8.015625 14 C 3.894531 14 0.550781 14.601562 0.5 15.5 L 15.527344 15.5 C 15.480469 14.601562 12.136719 14 8.015625 14 Z M 8.015625 14"/><path style="stroke:none;fill-rule:nonzero;fill:url(#radial0)" d="M 12.828125 10.148438 C 13.46875 12.496094 12.800781 15.5 8 15.5 C 3.195312 15.5 2.496094 12.484375 3.167969 10.148438 C 3.828125 7.859375 4.871094 6.660156 7.996094 6.660156 C 11.125 6.660156 12.203125 7.859375 12.828125 10.148438 Z M 12.828125 10.148438"/><use mask="url(#mask0)" xlink:href="#surface6"/><path style="stroke:none;fill-rule:nonzero;fill:#f44336;fill-opacity:1" d="M 10.640625 6.125 L 5.371094 6.125 C 5.078125 6.125 4.796875 6.949219 4.796875 7.242188 C 4.796875 7.351562 4.875 7.5625 5 7.726562 L 5 10.703125 C 5 11.140625 5.371094 11.5 5.8125 11.5 C 6.253906 11.5 6.625 11.144531 6.625 10.703125 L 6.625 8.21875 C 7 8.257812 7.449219 8.28125 7.964844 8.28125 C 10.785156 8.28125 11.160156 7.535156 11.160156 7.242188 C 11.160156 6.949219 10.9375 6.125 10.640625 6.125 Z M 10.640625 6.125"/><use mask="url(#mask1)" xlink:href="#surface9"/><path style="stroke:none;fill-rule:nonzero;fill:url(#radial1)" d="M 10.675781 4.742188 C 10.675781 6.226562 9.476562 7.429688 7.992188 7.429688 C 6.507812 7.429688 5.308594 6.226562 5.308594 4.742188 C 5.308594 3.261719 6.507812 2.058594 7.992188 2.058594 C 9.476562 2.058594 10.675781 3.261719 10.675781 4.742188 Z M 10.675781 4.742188"/><use mask="url(#mask2)" xlink:href="#surface12"/><path style="stroke:none;fill-rule:nonzero;fill:#424242;fill-opacity:1" d="M 10.433594 4.847656 L 5.566406 4.847656 C 5.414062 4.847656 5.289062 4.722656 5.289062 4.570312 L 5.289062 1.015625 C 5.289062 0.738281 5.511719 0.515625 5.789062 0.515625 L 10.210938 0.515625 C 10.484375 0.515625 10.710938 0.738281 10.710938 1.015625 L 10.710938 4.570312 C 10.710938 4.722656 10.585938 4.847656 10.433594 4.847656 Z M 10.433594 4.847656"/><path style="stroke:none;fill-rule:nonzero;fill:#f44336;fill-opacity:1" d="M 5.289062 3.015625 L 10.710938 3.015625 L 10.710938 3.878906 L 5.289062 3.878906 Z M 5.289062 3.015625"/><path style="stroke:none;fill-rule:nonzero;fill:#424242;fill-opacity:1" d="M 11.527344 4.898438 L 4.472656 4.898438 C 4.335938 4.898438 4.222656 4.785156 4.222656 4.648438 L 4.222656 4.050781 C 4.222656 3.914062 4.335938 3.800781 4.472656 3.800781 L 11.523438 3.800781 C 11.664062 3.800781 11.773438 3.914062 11.773438 4.050781 L 11.773438 4.648438 C 11.777344 4.785156 11.664062 4.898438 11.527344 4.898438 Z M 11.527344 4.898438"/><path style="stroke:none;fill-rule:nonzero;fill:#424242;fill-opacity:1" d="M 8.523438 10.101562 C 8.523438 10.398438 8.285156 10.636719 7.992188 10.636719 C 7.699219 10.636719 7.460938 10.398438 7.460938 10.101562 C 7.460938 9.808594 7.699219 9.570312 7.992188 9.570312 C 8.285156 9.570312 8.523438 9.808594 8.523438 10.101562 Z M 8.523438 10.101562"/><path style="stroke:none;fill-rule:nonzero;fill:#424242;fill-opacity:1" d="M 7.128906 5.4375 C 7.128906 5.621094 6.976562 5.769531 6.792969 5.769531 C 6.609375 5.769531 6.460938 5.621094 6.460938 5.4375 C 6.460938 5.253906 6.609375 5.105469 6.792969 5.105469 C 6.976562 5.105469 7.128906 5.253906 7.128906 5.4375 Z M 7.128906 5.4375"/><path style="stroke:none;fill-rule:nonzero;fill:#424242;fill-opacity:1" d="M 9.527344 5.4375 C 9.527344 5.621094 9.375 5.769531 9.191406 5.769531 C 9.007812 5.769531 8.859375 5.621094 8.859375 5.4375 C 8.859375 5.253906 9.007812 5.105469 9.191406 5.105469 C 9.375 5.105469 9.527344 5.253906 9.527344 5.4375 Z M 9.527344 5.4375"/><path style="stroke:none;fill-rule:nonzero;fill:#ef6c00;fill-opacity:1" d="M 8.390625 5.972656 C 8.390625 6.191406 8.214844 6.371094 7.992188 6.371094 C 7.773438 6.371094 7.59375 6.191406 7.59375 5.972656 C 7.59375 5.75 7.773438 5.570312 7.992188 5.570312 C 8.214844 5.570312 8.390625 5.75 8.390625 5.972656 Z M 8.390625 5.972656"/><path style="stroke:none;fill-rule:nonzero;fill:#424242;fill-opacity:1" d="M 8.523438 12.234375 C 8.523438 12.527344 8.285156 12.765625 7.992188 12.765625 C 7.699219 12.765625 7.460938 12.527344 7.460938 12.234375 C 7.460938 11.941406 7.699219 11.703125 7.992188 11.703125 C 8.285156 11.703125 8.523438 11.941406 8.523438 12.234375 Z M 8.523438 12.234375"/><path style="stroke:none;fill-rule:nonzero;fill:#424242;fill-opacity:1" d="M 6.792969 6.246094 C 7.128906 7.113281 8.894531 7.109375 9.230469 6.234375 C 9.292969 6.0625 9.019531 5.992188 8.957031 6.160156 C 8.738281 6.734375 7.289062 6.753906 7.0625 6.171875 C 6.996094 6.003906 6.726562 6.078125 6.792969 6.246094 Z M 6.792969 6.246094"/><path style="stroke:none;fill-rule:nonzero;fill:#b0bec5;fill-opacity:1" d="M 4.347656 8.835938 C 4.242188 8.773438 4.066406 8.875 3.949219 9.0625 C 3.835938 9.253906 3.828125 9.457031 3.929688 9.519531 C 4.035156 9.582031 4.210938 9.480469 4.328125 9.292969 C 4.441406 9.101562 4.453125 8.898438 4.347656 8.835938 Z M 4.347656 8.835938"/><path style="stroke:none;fill-rule:nonzero;fill:#8d6e63;fill-opacity:1" d="M 2.0625 6.882812 C 2.4375 7.789062 3.121094 8.605469 3.859375 9.242188 C 4.042969 9.398438 4.308594 9.136719 4.125 8.976562 C 3.441406 8.386719 2.757812 7.597656 2.425781 6.785156 C 2.335938 6.5625 1.972656 6.660156 2.0625 6.882812 Z M 2.0625 6.882812"/><path style="stroke:none;fill-rule:nonzero;fill:#43a047;fill-opacity:1" d="M 1.050781 6.535156 C 1.070312 6.046875 1.363281 5.8125 1.550781 5.761719 C 1.933594 5.652344 2.160156 5.761719 2.394531 5.976562 C 2.628906 6.191406 2.648438 6.414062 2.691406 6.410156 C 2.722656 6.410156 2.554688 6.074219 2.796875 5.980469 C 2.976562 5.910156 3.128906 6.117188 3.160156 6.195312 C 3.25 6.414062 3.347656 7.039062 3.277344 7.214844 C 3.210938 7.394531 2.328125 7.949219 2.101562 7.933594 C 1.878906 7.914062 1.03125 7.023438 1.050781 6.535156 Z M 1.050781 6.535156"/><path style="stroke:none;fill-rule:nonzero;fill:#2e7d32;fill-opacity:1" d="M 3.449219 7.753906 L 2.542969 8.347656 C 2.402344 8.441406 2.214844 8.402344 2.125 8.261719 L 2.101562 8.230469 C 2.011719 8.089844 2.046875 7.902344 2.1875 7.808594 L 3.09375 7.214844 C 3.230469 7.121094 3.417969 7.160156 3.511719 7.300781 L 3.535156 7.332031 C 3.625 7.472656 3.585938 7.660156 3.449219 7.753906 Z M 3.449219 7.753906"/><path style="stroke:none;fill-rule:nonzero;fill:#b0bec5;fill-opacity:1" d="M 12.046875 9.0625 C 11.933594 8.875 11.757812 8.773438 11.652344 8.835938 C 11.546875 8.898438 11.558594 9.101562 11.671875 9.292969 C 11.789062 9.480469 11.964844 9.582031 12.070312 9.519531 C 12.171875 9.457031 12.164062 9.253906 12.046875 9.0625 Z M 12.046875 9.0625"/><path style="stroke:none;fill-rule:nonzero;fill:#8d6e63;fill-opacity:1" d="M 13.574219 6.785156 C 13.238281 7.597656 12.558594 8.386719 11.875 8.976562 C 11.691406 9.136719 11.957031 9.398438 12.140625 9.242188 C 12.875 8.605469 13.5625 7.789062 13.933594 6.882812 C 14.027344 6.660156 13.664062 6.5625 13.574219 6.785156 Z M 13.574219 6.785156"/><path style="stroke:none;fill-rule:nonzero;fill:#43a047;fill-opacity:1" d="M 14.949219 6.535156 C 14.929688 6.046875 14.636719 5.8125 14.449219 5.761719 C 14.066406 5.652344 13.839844 5.761719 13.605469 5.976562 C 13.371094 6.191406 13.351562 6.414062 13.308594 6.410156 C 13.277344 6.410156 13.445312 6.074219 13.203125 5.980469 C 13.023438 5.910156 12.871094 6.117188 12.839844 6.195312 C 12.75 6.414062 12.652344 7.039062 12.722656 7.214844 C 12.789062 7.390625 13.671875 7.949219 13.898438 7.933594 C 14.121094 7.914062 14.96875 7.023438 14.949219 6.535156 Z M 14.949219 6.535156"/><path style="stroke:none;fill-rule:nonzero;fill:#2e7d32;fill-opacity:1" d="M 12.550781 7.753906 L 13.457031 8.347656 C 13.597656 8.441406 13.785156 8.402344 13.875 8.261719 L 13.898438 8.230469 C 13.988281 8.089844 13.953125 7.902344 13.8125 7.808594 L 12.90625 7.214844 C 12.769531 7.121094 12.582031 7.160156 12.488281 7.300781 L 12.464844 7.332031 C 12.375 7.472656 12.414062 7.660156 12.550781 7.753906 Z M 12.550781 7.753906"/><use mask="url(#mask3)" xlink:href="#surface15"/><use mask="url(#mask4)" xlink:href="#surface18"/><use mask="url(#mask5)" xlink:href="#surface21"/></g></svg>