<svg xmlns="http://www.w3.org/2000/svg" xmlns:xlink="http://www.w3.org/1999/xlink" width="16pt" height="16pt" version="1.1" viewBox="0 0 16 16"><defs><linearGradient id="linear0" x1="35.009" x2="88.772" y1="50.578" y2="104.34" gradientTransform="matrix(0.125,0,0,0.125,0,0)" gradientUnits="userSpaceOnUse"><stop offset=".171" style="stop-color:#fafbfb;stop-opacity:1"/><stop offset=".87" style="stop-color:#eee;stop-opacity:1"/></linearGradient><linearGradient id="linear1" x1="64.078" x2="64.078" y1="49.895" y2="106.42" gradientTransform="matrix(0.125,0,0,0.125,0,0)" gradientUnits="userSpaceOnUse"><stop offset=".259" style="stop-color:#fcb316;stop-opacity:1"/><stop offset=".999" style="stop-color:#c98c2b;stop-opacity:1"/></linearGradient><filter id="alpha" width="100%" height="100%" x="0%" y="0%" filterUnits="objectBoundingBox"><feColorMatrix in="SourceGraphic" type="matrix" values="0 0 0 0 1 0 0 0 0 1 0 0 0 0 1 0 0 0 1 0"/></filter><mask id="mask0"><g filter="url(#alpha)"><rect width="16" height="16" x="0" y="0" style="fill:#000;fill-opacity:.2;stroke:none"/></g></mask><clipPath id="clip1"><rect width="16" height="16"/></clipPath><g id="surface6" clip-path="url(#clip1)"><path style="stroke:none;fill-rule:nonzero;fill:#434343;fill-opacity:1" d="M 8 5.664062 C 9.933594 5.664062 11.746094 6.128906 13.105469 6.972656 C 14.40625 7.78125 15.125 8.835938 15.125 9.945312 C 15.125 11.054688 14.40625 12.113281 13.105469 12.921875 C 11.746094 13.765625 9.933594 14.226562 8 14.226562 C 6.066406 14.226562 4.253906 13.765625 2.894531 12.921875 C 1.59375 12.113281 0.875 11.054688 0.875 9.945312 C 0.875 8.835938 1.59375 7.78125 2.894531 6.972656 C 4.253906 6.128906 6.066406 5.664062 8 5.664062 M 8 5.289062 C 3.859375 5.289062 0.5 7.375 0.5 9.945312 C 0.5 12.519531 3.859375 14.605469 8 14.605469 C 12.140625 14.605469 15.5 12.519531 15.5 9.945312 C 15.5 7.375 12.140625 5.289062 8 5.289062 Z M 8 5.289062"/></g><mask id="mask1"><g filter="url(#alpha)"><rect width="16" height="16" x="0" y="0" style="fill:#000;fill-opacity:.301961;stroke:none"/></g></mask><clipPath id="clip2"><rect width="16" height="16"/></clipPath><g id="surface9" clip-path="url(#clip2)"><path style="stroke:none;fill-rule:nonzero;fill:#be3a26;fill-opacity:1" d="M 2.980469 8.515625 C 2.476562 9.53125 2.972656 9.417969 3.484375 10.03125 C 3.78125 10.386719 3.722656 10.832031 4.140625 11.097656 C 4.800781 11.523438 5.5 11.460938 5.980469 11.515625 C 6.78125 11.601562 6.808594 11.335938 7.609375 11.304688 C 8.136719 11.289062 9.023438 11.722656 9.480469 11.484375 C 10.222656 11.097656 11.140625 11.246094 11.527344 11.007812 C 12.210938 10.59375 11.605469 10.277344 12.179688 9.882812 C 12.558594 9.621094 13.160156 9.671875 13.03125 8.894531 C 12.90625 8.152344 12.339844 7.984375 11.410156 7.566406 C 10.828125 7.304688 10.910156 6.902344 9.75 6.609375 C 9.316406 6.503906 8.53125 6.777344 8.046875 6.777344 C 7.46875 6.777344 6.796875 6.527344 6.09375 6.695312 C 5.335938 6.871094 5.261719 7.265625 4.765625 7.527344 C 4.089844 7.875 3.234375 8.007812 2.980469 8.515625 Z M 2.980469 8.515625"/></g><mask id="mask2"><g filter="url(#alpha)"><rect width="16" height="16" x="0" y="0" style="fill:#000;fill-opacity:.2;stroke:none"/></g></mask><clipPath id="clip3"><rect width="16" height="16"/></clipPath><g id="surface12" clip-path="url(#clip3)"><path style="stroke:none;fill-rule:nonzero;fill:#434343;fill-opacity:1" d="M 7.828125 6.117188 C 8.582031 6.117188 9.355469 6.230469 10.0625 6.441406 C 10.085938 6.449219 10.113281 6.453125 10.140625 6.453125 C 10.21875 6.453125 10.292969 6.421875 10.347656 6.367188 C 11.421875 6.59375 13.863281 7.277344 14.75 8.90625 C 15.003906 9.367188 15.015625 9.980469 14.78125 10.460938 C 14.574219 10.890625 14.191406 11.117188 13.789062 11.359375 C 13.445312 11.558594 13.089844 11.769531 12.808594 12.113281 L 12.761719 12.167969 C 12.335938 12.683594 12.054688 13.027344 11.429688 13.058594 C 11.402344 13.0625 11.375 13.0625 11.351562 13.0625 C 11.207031 13.0625 11.066406 13.042969 10.910156 13 C 10.886719 12.992188 10.859375 12.988281 10.835938 12.988281 C 10.769531 12.988281 10.703125 13.015625 10.652344 13.058594 C 10.613281 13.089844 10.574219 13.121094 10.53125 13.148438 C 10.164062 13.390625 9.679688 13.515625 9.085938 13.515625 C 8.390625 13.515625 7.652344 13.34375 7.15625 13.214844 C 6.6875 13.09375 6.335938 13.042969 5.976562 13.042969 C 5.847656 13.042969 5.722656 13.046875 5.59375 13.0625 C 5.46875 13.074219 5.34375 13.09375 5.222656 13.109375 C 4.980469 13.140625 4.753906 13.171875 4.523438 13.171875 C 4.484375 13.171875 4.449219 13.171875 4.410156 13.171875 C 3.46875 13.121094 2.820312 12.417969 2.308594 11.734375 C 2.289062 11.707031 2.265625 11.6875 2.242188 11.667969 C 1.867188 11.414062 1.414062 10.949219 1.378906 10.179688 C 1.378906 10.179688 1.382812 10.167969 1.394531 10.160156 C 1.507812 10.058594 1.523438 9.886719 1.429688 9.769531 C 1.265625 9.566406 1.203125 9.359375 1.238281 9.144531 C 1.335938 8.546875 1.894531 7.929688 2.894531 7.3125 C 3.980469 6.644531 5.199219 6.25 6.417969 6.167969 C 6.464844 6.199219 6.515625 6.214844 6.574219 6.214844 C 6.585938 6.214844 6.597656 6.214844 6.609375 6.214844 C 6.734375 6.195312 6.851562 6.183594 6.972656 6.167969 L 6.996094 6.167969 C 7.265625 6.132812 7.546875 6.117188 7.828125 6.117188 M 7.828125 5.835938 C 7.535156 5.835938 7.242188 5.851562 6.964844 5.886719 C 6.835938 5.898438 6.707031 5.917969 6.574219 5.933594 C 6.542969 5.90625 6.496094 5.886719 6.429688 5.886719 C 6.421875 5.886719 6.410156 5.886719 6.402344 5.886719 C 5.117188 5.972656 3.84375 6.398438 2.75 7.074219 C 2.046875 7.511719 1.109375 8.210938 0.960938 9.097656 C 0.90625 9.425781 1.019531 9.707031 1.210938 9.949219 C 1.144531 10.003906 1.097656 10.09375 1.101562 10.195312 C 1.136719 10.953125 1.527344 11.519531 2.085938 11.902344 C 2.667969 12.683594 3.367188 13.398438 4.398438 13.453125 C 4.441406 13.453125 4.484375 13.457031 4.527344 13.457031 C 4.894531 13.457031 5.257812 13.382812 5.625 13.34375 C 5.746094 13.332031 5.863281 13.328125 5.976562 13.328125 C 6.355469 13.328125 6.703125 13.390625 7.085938 13.488281 C 7.683594 13.644531 8.398438 13.796875 9.089844 13.796875 C 9.667969 13.796875 10.226562 13.691406 10.6875 13.386719 C 10.742188 13.351562 10.792969 13.3125 10.835938 13.273438 C 11 13.320312 11.171875 13.347656 11.351562 13.347656 C 11.382812 13.347656 11.410156 13.34375 11.441406 13.34375 C 12.21875 13.300781 12.570312 12.847656 13.023438 12.292969 C 13.609375 11.582031 14.605469 11.476562 15.035156 10.585938 C 15.300781 10.03125 15.292969 9.316406 14.996094 8.773438 C 14.144531 7.210938 11.953125 6.414062 10.34375 6.082031 C 10.328125 6.078125 10.320312 6.078125 10.304688 6.078125 C 10.238281 6.078125 10.179688 6.117188 10.140625 6.175781 C 9.390625 5.949219 8.59375 5.835938 7.828125 5.835938 Z M 7.828125 5.835938"/></g><radialGradient id="radial0" cx="63.91" cy="61.847" r="38.84" fx="63.91" fy="61.847" gradientTransform="matrix(0.125,0,0,0.0573125,0,4.1865)" gradientUnits="userSpaceOnUse"><stop offset=".505" style="stop-color:#f05323;stop-opacity:1"/><stop offset="1" style="stop-color:#d74527;stop-opacity:1"/></radialGradient><mask id="mask3"><g filter="url(#alpha)"><rect width="16" height="16" x="0" y="0" style="fill:#000;fill-opacity:.8;stroke:none"/></g></mask><clipPath id="clip4"><rect width="16" height="16"/></clipPath><g id="surface15" clip-path="url(#clip4)"><path style="stroke:none;fill-rule:nonzero;fill:#f37046;fill-opacity:1" d="M 7.441406 7.035156 C 7.007812 7.148438 6.421875 7.402344 6.46875 7.949219 C 6.507812 8.390625 6.957031 8.566406 7.34375 8.589844 C 8.054688 8.636719 8.613281 8.179688 9.304688 8.101562 C 9.421875 8.085938 10.285156 8.050781 10.328125 8.246094 C 10.347656 8.324219 9.746094 8.449219 9.699219 8.453125 C 9.582031 8.464844 9.464844 8.457031 9.347656 8.433594 C 9.203125 8.378906 9.171875 8.378906 9.261719 8.4375 C 9.484375 8.285156 9.367188 7.78125 9.078125 7.976562 C 8.410156 8.425781 8.765625 8.988281 9.480469 9.007812 C 9.945312 9.019531 11 8.726562 10.78125 8.054688 C 10.558594 7.375 9.40625 7.496094 8.890625 7.632812 C 8.445312 7.75 8.058594 8.027344 7.585938 8.042969 C 7.457031 8.046875 6.980469 8.039062 6.921875 7.855469 C 6.878906 7.71875 7.421875 7.585938 7.523438 7.5625 C 7.777344 7.496094 7.757812 6.957031 7.441406 7.035156 Z M 7.441406 7.035156"/></g><mask id="mask4"><g filter="url(#alpha)"><rect width="16" height="16" x="0" y="0" style="fill:#000;fill-opacity:.301961;stroke:none"/></g></mask><clipPath id="clip5"><rect width="16" height="16"/></clipPath><g id="surface18" clip-path="url(#clip5)"><path style="stroke:none;fill-rule:nonzero;fill:#f37046;fill-opacity:1" d="M 4.179688 9.207031 C 4.964844 9.019531 5.4375 10.125 6.222656 10.164062 C 6.792969 10.195312 7.316406 9.820312 7.871094 9.753906 C 8.386719 9.695312 8.789062 9.976562 9.273438 10.074219 C 9.625 10.144531 9.992188 10.148438 10.332031 10.015625 C 10.808594 9.832031 11.042969 9.398438 11.449219 9.125 C 12.074219 8.703125 12.246094 8.4375 11.558594 7.898438 C 11.347656 7.730469 10.910156 8.078125 11.144531 8.265625 C 11.648438 8.660156 11.453125 8.59375 11.050781 8.882812 C 10.683594 9.148438 10.457031 9.605469 9.972656 9.664062 C 9.199219 9.753906 8.636719 9.167969 7.835938 9.320312 C 7.394531 9.40625 6.902344 9.695312 6.457031 9.707031 C 6.074219 9.71875 5.800781 9.421875 5.527344 9.203125 C 5.082031 8.839844 4.6875 8.644531 4.109375 8.78125 C 3.792969 8.855469 3.824219 9.292969 4.179688 9.207031 Z M 4.179688 9.207031"/></g><mask id="mask5"><g filter="url(#alpha)"><rect width="16" height="16" x="0" y="0" style="fill:#000;fill-opacity:.8;stroke:none"/></g></mask><clipPath id="clip6"><rect width="16" height="16"/></clipPath><g id="surface21" clip-path="url(#clip6)"><path style="stroke:none;fill-rule:nonzero;fill:#f37046;fill-opacity:1" d="M 6.613281 7.019531 C 6.082031 7.042969 5.542969 7.222656 5.210938 7.664062 C 4.988281 7.960938 4.910156 8.386719 5.175781 8.683594 C 5.515625 9.070312 6.039062 8.9375 6.480469 8.882812 C 6.621094 8.867188 7.035156 8.800781 7.199219 8.867188 C 7.273438 8.894531 7.472656 9.097656 7.566406 9.167969 C 7.828125 9.363281 8.046875 8.871094 7.832031 8.710938 C 7.460938 8.425781 7.375 8.300781 6.90625 8.304688 C 6.539062 8.304688 6.128906 8.457031 5.773438 8.390625 C 5.335938 8.304688 5.460938 8.011719 5.757812 7.8125 C 5.996094 7.65625 6.265625 7.589844 6.546875 7.578125 C 6.828125 7.566406 6.886719 7.007812 6.613281 7.019531 Z M 6.613281 7.019531"/></g><mask id="mask6"><g filter="url(#alpha)"><rect width="16" height="16" x="0" y="0" style="fill:#000;fill-opacity:.501961;stroke:none"/></g></mask><clipPath id="clip7"><rect width="16" height="16"/></clipPath><g id="surface24" clip-path="url(#clip7)"><path style="stroke:none;fill-rule:nonzero;fill:#f37046;fill-opacity:1" d="M 7.609375 7.570312 C 8.089844 7.316406 8.59375 7.234375 9.128906 7.3125 C 9.332031 7.34375 9.582031 7.410156 9.742188 7.226562 C 9.988281 6.953125 9.628906 6.734375 9.367188 6.851562 C 9.285156 6.886719 9.179688 7.015625 9.207031 7.117188 C 9.285156 7.382812 9.601562 7.402344 9.613281 7.734375 C 9.625 8.027344 10.152344 7.835938 10.140625 7.566406 C 10.136719 7.414062 10.113281 7.320312 10.019531 7.191406 C 9.984375 7.140625 9.742188 6.972656 9.734375 6.949219 C 9.679688 7.039062 9.625 7.128906 9.574219 7.21875 C 9.574219 7.214844 9.578125 7.214844 9.582031 7.214844 C 9.492188 7.222656 9.40625 7.230469 9.320312 7.242188 C 9.378906 7.257812 9.246094 7.21875 9.308594 7.078125 C 9.378906 7.019531 9.449219 6.957031 9.519531 6.898438 C 9.445312 6.929688 9.191406 6.839844 9.097656 6.832031 C 8.898438 6.816406 8.691406 6.820312 8.492188 6.84375 C 8.105469 6.894531 7.75 7.023438 7.40625 7.203125 C 7.097656 7.363281 7.300781 7.734375 7.609375 7.570312 Z M 7.609375 7.570312"/></g><mask id="mask7"><g filter="url(#alpha)"><rect width="16" height="16" x="0" y="0" style="fill:#000;fill-opacity:.2;stroke:none"/></g></mask><clipPath id="clip8"><rect width="16" height="16"/></clipPath><g id="surface27" clip-path="url(#clip8)"><path style="stroke:none;fill-rule:nonzero;fill:#434343;fill-opacity:1" d="M 9.359375 6.828125 C 9.421875 6.828125 9.472656 6.835938 9.511719 6.84375 C 10.097656 6.992188 10.273438 7.160156 10.460938 7.332031 C 10.585938 7.453125 10.726562 7.585938 10.96875 7.695312 C 11.058594 7.734375 11.144531 7.769531 11.226562 7.808594 C 11.949219 8.125 12.203125 8.257812 12.277344 8.6875 C 12.328125 8.988281 12.25 9.015625 11.972656 9.132812 C 11.863281 9.175781 11.738281 9.226562 11.625 9.304688 C 11.253906 9.558594 11.246094 9.832031 11.242188 10.015625 C 11.238281 10.152344 11.238281 10.203125 11.046875 10.320312 C 10.941406 10.382812 10.699219 10.40625 10.464844 10.433594 C 10.09375 10.472656 9.625 10.519531 9.203125 10.742188 C 9.164062 10.765625 9.101562 10.773438 9.015625 10.773438 C 8.835938 10.773438 8.597656 10.71875 8.371094 10.664062 C 8.121094 10.605469 7.882812 10.546875 7.671875 10.546875 C 7.65625 10.546875 7.640625 10.546875 7.628906 10.546875 C 7.269531 10.5625 7.054688 10.625 6.882812 10.675781 C 6.734375 10.71875 6.621094 10.753906 6.429688 10.753906 C 6.359375 10.753906 6.28125 10.75 6.191406 10.738281 C 6.09375 10.726562 5.992188 10.722656 5.882812 10.714844 C 5.496094 10.695312 5.054688 10.671875 4.644531 10.40625 C 4.511719 10.320312 4.460938 10.203125 4.386719 10.003906 C 4.328125 9.84375 4.257812 9.664062 4.117188 9.492188 C 3.976562 9.324219 3.835938 9.207031 3.726562 9.117188 C 3.488281 8.921875 3.460938 8.898438 3.695312 8.425781 C 3.800781 8.210938 4.160156 8.074219 4.542969 7.925781 C 4.757812 7.84375 4.976562 7.757812 5.1875 7.648438 C 5.394531 7.542969 5.535156 7.414062 5.65625 7.300781 C 5.835938 7.132812 5.980469 7.003906 6.328125 6.921875 C 6.453125 6.890625 6.589844 6.875 6.738281 6.875 C 6.960938 6.875 7.183594 6.910156 7.402344 6.941406 C 7.621094 6.972656 7.828125 7.003906 8.035156 7.003906 C 8.238281 7.003906 8.472656 6.960938 8.71875 6.914062 C 8.945312 6.871094 9.179688 6.828125 9.359375 6.828125 M 9.359375 6.546875 C 8.957031 6.546875 8.402344 6.722656 8.035156 6.722656 C 7.644531 6.722656 7.203125 6.59375 6.738281 6.59375 C 6.582031 6.59375 6.421875 6.609375 6.265625 6.644531 C 5.578125 6.808594 5.507812 7.164062 5.058594 7.398438 C 4.449219 7.71875 3.671875 7.839844 3.441406 8.296875 C 2.984375 9.21875 3.4375 9.113281 3.898438 9.671875 C 4.167969 9.992188 4.113281 10.398438 4.492188 10.640625 C 5.089844 11.023438 5.726562 10.96875 6.160156 11.015625 C 6.261719 11.027344 6.351562 11.03125 6.429688 11.03125 C 6.90625 11.03125 7.015625 10.851562 7.640625 10.828125 L 7.667969 10.828125 C 8.042969 10.828125 8.597656 11.054688 9.015625 11.054688 C 9.136719 11.054688 9.242188 11.035156 9.332031 10.988281 C 10.007812 10.640625 10.839844 10.773438 11.191406 10.558594 C 11.808594 10.183594 11.257812 9.898438 11.78125 9.539062 C 12.125 9.300781 12.667969 9.347656 12.550781 8.640625 C 12.4375 7.96875 11.925781 7.816406 11.082031 7.4375 C 10.554688 7.199219 10.632812 6.835938 9.578125 6.570312 C 9.511719 6.554688 9.441406 6.546875 9.359375 6.546875 Z M 9.359375 6.546875"/></g><linearGradient id="linear2" x1="35.005" x2="132.26" y1="26.779" y2="4.256" gradientTransform="matrix(0.125,0,0,0.125,0,0)" gradientUnits="userSpaceOnUse"><stop offset=".171" style="stop-color:#d0d8dc;stop-opacity:1"/><stop offset="1" style="stop-color:#90a4ae;stop-opacity:1"/></linearGradient><mask id="mask8"><g filter="url(#alpha)"><rect width="16" height="16" x="0" y="0" style="fill:#000;fill-opacity:.2;stroke:none"/></g></mask><clipPath id="clip9"><rect width="16" height="16"/></clipPath><g id="surface30" clip-path="url(#clip9)"><path style="stroke:none;fill-rule:nonzero;fill:#434343;fill-opacity:1" d="M 14.285156 0.640625 C 14.40625 0.640625 14.546875 0.820312 14.578125 0.964844 C 14.601562 1.058594 14.570312 1.203125 14.507812 1.304688 C 14.46875 1.363281 14.421875 1.402344 14.378906 1.414062 L 8.691406 2.628906 C 8.472656 2.667969 8.324219 2.765625 8.253906 2.921875 L 8.050781 3.339844 C 7.96875 3.515625 7.753906 3.652344 7.460938 3.71875 C 6.527344 3.933594 5.828125 4.03125 5.210938 4.117188 C 4.925781 4.160156 4.652344 4.199219 4.382812 4.242188 C 4.324219 4.253906 4.273438 4.257812 4.238281 4.257812 C 4.210938 4.257812 4.195312 4.253906 4.183594 4.253906 C 4.203125 4.238281 4.253906 4.210938 4.363281 4.175781 L 6.128906 3.703125 C 6.265625 3.667969 6.355469 3.523438 6.324219 3.390625 C 6.324219 3.386719 6.324219 3.382812 6.324219 3.382812 C 6.292969 3.261719 6.1875 3.179688 6.0625 3.179688 C 6.050781 3.179688 6.039062 3.179688 6.027344 3.183594 L 4.195312 3.410156 C 4.191406 3.410156 4.191406 3.414062 4.1875 3.414062 C 4.125 3.421875 4.078125 3.429688 4.035156 3.429688 C 4.027344 3.429688 4.019531 3.429688 4.011719 3.429688 C 4.039062 3.414062 4.089844 3.390625 4.183594 3.359375 L 5.925781 2.773438 C 6.054688 2.730469 6.132812 2.597656 6.105469 2.46875 C 6.105469 2.46875 6.105469 2.460938 6.105469 2.460938 C 6.078125 2.339844 5.96875 2.253906 5.84375 2.253906 C 5.824219 2.253906 5.808594 2.257812 5.792969 2.261719 L 4 2.597656 C 3.941406 2.609375 3.894531 2.613281 3.859375 2.613281 C 3.835938 2.613281 3.820312 2.613281 3.808594 2.609375 C 3.832031 2.59375 3.882812 2.570312 3.988281 2.539062 C 4.222656 2.46875 4.449219 2.394531 4.691406 2.316406 C 5.308594 2.113281 6.007812 1.882812 6.996094 1.65625 C 7.082031 1.636719 7.171875 1.625 7.253906 1.625 C 7.429688 1.625 7.582031 1.671875 7.6875 1.753906 L 8.050781 2.039062 C 8.140625 2.109375 8.242188 2.144531 8.363281 2.144531 C 8.429688 2.144531 8.5 2.132812 8.574219 2.113281 L 14.261719 0.644531 C 14.265625 0.640625 14.277344 0.640625 14.285156 0.640625 M 14.285156 0.515625 C 14.265625 0.515625 14.25 0.519531 14.230469 0.523438 L 8.542969 1.988281 C 8.472656 2.007812 8.414062 2.015625 8.359375 2.015625 C 8.261719 2.015625 8.1875 1.988281 8.128906 1.941406 L 7.761719 1.652344 C 7.632812 1.550781 7.453125 1.5 7.253906 1.5 C 7.160156 1.5 7.0625 1.511719 6.964844 1.535156 C 5.59375 1.847656 4.789062 2.164062 3.953125 2.417969 C 3.738281 2.476562 3.652344 2.546875 3.671875 2.636719 C 3.691406 2.703125 3.75 2.738281 3.859375 2.738281 C 3.902344 2.738281 3.957031 2.734375 4.023438 2.722656 L 5.8125 2.382812 C 5.820312 2.378906 5.832031 2.378906 5.839844 2.378906 C 5.90625 2.378906 5.964844 2.421875 5.980469 2.484375 C 5.980469 2.488281 5.980469 2.488281 5.980469 2.492188 C 5.996094 2.5625 5.953125 2.632812 5.882812 2.65625 L 4.140625 3.242188 C 3.921875 3.3125 3.839844 3.371094 3.863281 3.460938 C 3.875 3.519531 3.929688 3.554688 4.035156 3.554688 C 4.082031 3.554688 4.140625 3.546875 4.210938 3.535156 L 6.042969 3.304688 C 6.046875 3.304688 6.054688 3.304688 6.0625 3.304688 C 6.125 3.304688 6.183594 3.347656 6.203125 3.410156 C 6.203125 3.414062 6.203125 3.414062 6.203125 3.417969 C 6.21875 3.488281 6.171875 3.5625 6.097656 3.582031 L 4.328125 4.054688 C 4.117188 4.121094 4.03125 4.183594 4.050781 4.28125 C 4.070312 4.351562 4.128906 4.378906 4.238281 4.378906 C 4.28125 4.378906 4.335938 4.375 4.402344 4.367188 C 5.265625 4.21875 6.121094 4.15625 7.492188 3.839844 C 7.804688 3.765625 8.058594 3.613281 8.164062 3.394531 L 8.367188 2.976562 C 8.414062 2.871094 8.515625 2.789062 8.714844 2.75 L 14.40625 1.535156 C 14.617188 1.488281 14.75 1.148438 14.699219 0.9375 C 14.65625 0.746094 14.476562 0.515625 14.285156 0.515625 Z M 14.285156 0.515625"/></g><radialGradient id="radial1" cx="36.333" cy="25.833" r="39.103" fx="36.333" fy="25.833" gradientTransform="matrix(0.125,0,0,0.125,0,0)" gradientUnits="userSpaceOnUse"><stop offset=".02" style="stop-color:#fec111;stop-opacity:1"/><stop offset=".935" style="stop-color:#f05323;stop-opacity:1"/></radialGradient><linearGradient id="linear3" x1="43.038" x2="160.73" y1="24.919" y2="-2.337" gradientTransform="matrix(0.125,0,0,0.125,0,0)" gradientUnits="userSpaceOnUse"><stop offset=".164" style="stop-color:#b0bec5;stop-opacity:1"/><stop offset="1" style="stop-color:#78909c;stop-opacity:1"/></linearGradient><mask id="mask9"><g filter="url(#alpha)"><rect width="16" height="16" x="0" y="0" style="fill:#000;fill-opacity:.2;stroke:none"/></g></mask><clipPath id="clip10"><rect width="16" height="16"/></clipPath><g id="surface33" clip-path="url(#clip10)"><path style="stroke:none;fill-rule:nonzero;fill:#434343;fill-opacity:1" d="M 14.285156 0.640625 C 14.40625 0.640625 14.546875 0.820312 14.578125 0.964844 C 14.601562 1.058594 14.570312 1.203125 14.507812 1.304688 C 14.46875 1.363281 14.421875 1.402344 14.378906 1.414062 L 8.691406 2.628906 C 8.472656 2.667969 8.324219 2.765625 8.253906 2.921875 L 8.050781 3.339844 C 7.96875 3.515625 7.753906 3.652344 7.460938 3.71875 C 6.527344 3.933594 5.828125 4.03125 5.210938 4.117188 C 4.925781 4.160156 4.652344 4.199219 4.382812 4.242188 C 4.324219 4.253906 4.273438 4.257812 4.238281 4.257812 C 4.210938 4.257812 4.195312 4.253906 4.183594 4.253906 C 4.203125 4.238281 4.253906 4.210938 4.363281 4.175781 L 6.128906 3.703125 C 6.265625 3.667969 6.355469 3.523438 6.324219 3.390625 C 6.324219 3.386719 6.324219 3.382812 6.324219 3.382812 C 6.292969 3.261719 6.1875 3.179688 6.0625 3.179688 C 6.050781 3.179688 6.039062 3.179688 6.027344 3.183594 L 4.195312 3.410156 C 4.191406 3.410156 4.191406 3.414062 4.1875 3.414062 C 4.125 3.421875 4.078125 3.429688 4.035156 3.429688 C 4.027344 3.429688 4.019531 3.429688 4.011719 3.429688 C 4.039062 3.414062 4.089844 3.390625 4.183594 3.359375 L 5.925781 2.773438 C 6.054688 2.730469 6.132812 2.597656 6.105469 2.46875 C 6.105469 2.46875 6.105469 2.460938 6.105469 2.460938 C 6.078125 2.339844 5.96875 2.253906 5.84375 2.253906 C 5.824219 2.253906 5.808594 2.257812 5.792969 2.261719 L 4 2.597656 C 3.941406 2.609375 3.894531 2.613281 3.859375 2.613281 C 3.835938 2.613281 3.820312 2.613281 3.808594 2.609375 C 3.832031 2.59375 3.882812 2.570312 3.988281 2.539062 C 4.222656 2.46875 4.449219 2.394531 4.691406 2.316406 C 5.308594 2.113281 6.007812 1.882812 6.996094 1.65625 C 7.082031 1.636719 7.171875 1.625 7.253906 1.625 C 7.429688 1.625 7.582031 1.671875 7.6875 1.753906 L 8.050781 2.039062 C 8.140625 2.109375 8.242188 2.144531 8.363281 2.144531 C 8.429688 2.144531 8.5 2.132812 8.574219 2.113281 L 14.261719 0.644531 C 14.265625 0.640625 14.277344 0.640625 14.285156 0.640625 M 14.285156 0.515625 C 14.265625 0.515625 14.25 0.519531 14.230469 0.523438 L 8.542969 1.988281 C 8.472656 2.007812 8.414062 2.015625 8.359375 2.015625 C 8.261719 2.015625 8.1875 1.988281 8.128906 1.941406 L 7.761719 1.652344 C 7.632812 1.550781 7.453125 1.5 7.253906 1.5 C 7.160156 1.5 7.0625 1.511719 6.964844 1.535156 C 5.59375 1.847656 4.789062 2.164062 3.953125 2.417969 C 3.738281 2.476562 3.652344 2.546875 3.671875 2.636719 C 3.691406 2.703125 3.75 2.738281 3.859375 2.738281 C 3.902344 2.738281 3.957031 2.734375 4.023438 2.722656 L 5.8125 2.382812 C 5.820312 2.378906 5.832031 2.378906 5.839844 2.378906 C 5.90625 2.378906 5.964844 2.421875 5.980469 2.484375 C 5.980469 2.488281 5.980469 2.488281 5.980469 2.492188 C 5.996094 2.5625 5.953125 2.632812 5.882812 2.65625 L 4.140625 3.242188 C 3.921875 3.3125 3.839844 3.371094 3.863281 3.460938 C 3.875 3.519531 3.929688 3.554688 4.035156 3.554688 C 4.082031 3.554688 4.140625 3.546875 4.210938 3.535156 L 6.042969 3.304688 C 6.046875 3.304688 6.054688 3.304688 6.0625 3.304688 C 6.125 3.304688 6.183594 3.347656 6.203125 3.410156 C 6.203125 3.414062 6.203125 3.414062 6.203125 3.417969 C 6.21875 3.488281 6.171875 3.5625 6.097656 3.582031 L 4.328125 4.054688 C 4.117188 4.121094 4.03125 4.183594 4.050781 4.28125 C 4.070312 4.351562 4.128906 4.378906 4.238281 4.378906 C 4.28125 4.378906 4.335938 4.375 4.402344 4.367188 C 5.265625 4.21875 6.121094 4.15625 7.492188 3.839844 C 7.804688 3.765625 8.058594 3.613281 8.164062 3.394531 L 8.367188 2.976562 C 8.414062 2.871094 8.515625 2.789062 8.714844 2.75 L 14.40625 1.535156 C 14.617188 1.488281 14.75 1.148438 14.699219 0.9375 C 14.65625 0.746094 14.476562 0.515625 14.285156 0.515625 Z M 14.285156 0.515625"/></g><radialGradient id="radial2" cx="40.333" cy="20.5" r="36.471" fx="40.333" fy="20.5" gradientTransform="matrix(0.125,0,0,0.125,0,0)" gradientUnits="userSpaceOnUse"><stop offset=".39" style="stop-color:#ffcb28;stop-opacity:1"/><stop offset="1" style="stop-color:#f37046;stop-opacity:1"/></radialGradient><radialGradient id="radial3" cx="50.333" cy="33.167" r="34.031" fx="50.333" fy="33.167" gradientTransform="matrix(0.125,0,0,0.125,0,0)" gradientUnits="userSpaceOnUse"><stop offset=".02" style="stop-color:#fec111;stop-opacity:1"/><stop offset="1" style="stop-color:#f05323;stop-opacity:1"/></radialGradient><mask id="mask10"><g filter="url(#alpha)"><rect width="16" height="16" x="0" y="0" style="fill:#000;fill-opacity:.2;stroke:none"/></g></mask><clipPath id="clip11"><rect width="16" height="16"/></clipPath><g id="surface36" clip-path="url(#clip11)"><path style="stroke:none;fill-rule:nonzero;fill:#434343;fill-opacity:1" d="M 4.773438 2.582031 C 4.730469 2.582031 4.6875 2.585938 4.648438 2.589844 C 4.636719 2.738281 4.644531 2.902344 4.65625 3.058594 C 4.699219 3.046875 4.738281 3.03125 4.777344 3.015625 C 4.765625 2.871094 4.765625 2.71875 4.773438 2.582031 Z M 4.773438 2.582031"/><path style="stroke:none;fill-rule:nonzero;fill:#434343;fill-opacity:1" d="M 4.929688 3.886719 C 4.894531 3.78125 4.851562 3.636719 4.832031 3.527344 C 4.832031 3.511719 4.828125 3.484375 4.824219 3.457031 L 4.699219 3.457031 C 4.703125 3.492188 4.707031 3.519531 4.710938 3.546875 C 4.730469 3.667969 4.761719 3.789062 4.804688 3.925781 C 4.839844 3.921875 4.921875 3.898438 4.929688 3.886719 Z M 4.929688 3.886719"/><path style="stroke:none;fill-rule:nonzero;fill:#434343;fill-opacity:1" d="M 4.96875 3.8125 C 4.960938 3.859375 4.957031 3.90625 4.949219 3.953125 C 4.964844 3.914062 4.980469 3.871094 5 3.832031 C 4.988281 3.820312 4.976562 3.816406 4.96875 3.8125 Z M 4.96875 3.8125"/><path style="stroke:none;fill-rule:nonzero;fill:#434343;fill-opacity:1" d="M 4.9375 2.1875 C 4.914062 2.160156 4.882812 2.148438 4.847656 2.148438 C 4.839844 2.148438 4.835938 2.148438 4.832031 2.148438 C 4.792969 2.152344 4.746094 2.191406 4.722656 2.222656 C 4.710938 2.242188 4.753906 2.234375 4.761719 2.230469 C 4.835938 2.261719 4.835938 2.261719 4.875 2.3125 C 5.054688 2.617188 4.984375 3.640625 4.96875 3.789062 C 4.96875 3.796875 4.964844 3.804688 4.964844 3.8125 C 4.976562 3.816406 4.941406 4.023438 4.933594 4.078125 C 4.945312 4.085938 4.933594 4.082031 4.949219 4.082031 C 4.953125 4.082031 4.957031 4.082031 4.960938 4.082031 C 5.019531 4.074219 5.0625 4.03125 5.074219 3.976562 C 5.082031 3.914062 5.089844 3.855469 5.09375 3.800781 C 5.097656 3.746094 5.214844 2.488281 4.9375 2.1875 Z M 4.9375 2.1875"/><path style="stroke:none;fill-rule:nonzero;fill:#434343;fill-opacity:1" d="M 5.0625 6.515625 C 5.058594 6.515625 5.054688 6.515625 5.050781 6.515625 C 4.992188 6.519531 4.949219 6.5625 4.941406 6.621094 C 4.90625 6.847656 4.90625 7.082031 4.941406 7.320312 C 4.949219 7.375 4.992188 7.421875 5.050781 7.425781 C 5.054688 7.425781 5.058594 7.425781 5.066406 7.425781 C 5.113281 7.425781 5.160156 7.398438 5.179688 7.351562 C 5.285156 7.09375 5.285156 6.855469 5.179688 6.59375 C 5.160156 6.546875 5.113281 6.515625 5.0625 6.515625 Z M 5.066406 7.300781 C 5.03125 7.082031 5.03125 6.859375 5.0625 6.640625 C 5.160156 6.882812 5.152344 7.085938 5.066406 7.300781 Z M 5.066406 7.300781"/><path style="stroke:none;fill-rule:nonzero;fill:#434343;fill-opacity:1" d="M 4.457031 2.625 C 4.417969 2.636719 4.375 2.652344 4.328125 2.671875 C 4.3125 2.828125 4.316406 3.019531 4.332031 3.183594 C 4.367188 3.167969 4.410156 3.15625 4.453125 3.144531 C 4.441406 2.976562 4.441406 2.777344 4.457031 2.625 Z M 4.457031 2.625"/><path style="stroke:none;fill-rule:nonzero;fill:#434343;fill-opacity:1" d="M 4.601562 3.984375 C 4.558594 3.832031 4.527344 3.671875 4.5 3.496094 C 4.496094 3.5 4.421875 3.507812 4.371094 3.511719 C 4.398438 3.671875 4.445312 3.878906 4.484375 4.015625 C 4.523438 4.007812 4.558594 3.988281 4.601562 3.984375 Z M 4.601562 3.984375"/><path style="stroke:none;fill-rule:nonzero;fill:#434343;fill-opacity:1" d="M 6.390625 5.648438 C 6.292969 5.21875 6.488281 4.839844 6.492188 4.414062 C 6.5 4.011719 6.390625 3.589844 6.222656 3.226562 C 6.191406 3.152344 6.144531 3.125 6.101562 3.125 C 5.96875 3.125 5.828125 3.367188 5.902344 3.53125 C 6.09375 3.945312 6.136719 4.359375 6.050781 4.800781 C 6.046875 4.816406 6.046875 4.832031 6.042969 4.847656 C 5.964844 4.585938 5.847656 4.335938 5.777344 4.074219 C 5.714844 3.835938 5.6875 3.589844 5.695312 3.34375 C 5.703125 3.164062 5.800781 2.957031 5.683594 2.902344 L 5.632812 3.015625 C 5.625 3.011719 5.617188 3.003906 5.613281 2.996094 C 5.621094 3.019531 5.609375 3.09375 5.597656 3.144531 C 5.585938 3.203125 5.574219 3.273438 5.570312 3.339844 C 5.5625 3.59375 5.589844 3.851562 5.65625 4.105469 C 5.695312 4.253906 5.75 4.398438 5.800781 4.535156 C 5.847656 4.65625 5.890625 4.765625 5.921875 4.882812 C 5.9375 4.9375 5.988281 4.972656 6.042969 4.972656 L 6.046875 4.972656 C 6.105469 4.96875 6.15625 4.925781 6.164062 4.871094 L 6.167969 4.847656 L 6.171875 4.828125 C 6.265625 4.351562 6.210938 3.910156 6.015625 3.480469 C 5.996094 3.441406 6.003906 3.386719 6.03125 3.332031 C 6.050781 3.285156 6.078125 3.261719 6.09375 3.253906 C 6.097656 3.257812 6.101562 3.265625 6.109375 3.277344 C 6.277344 3.652344 6.371094 4.054688 6.367188 4.414062 C 6.363281 4.566406 6.335938 4.714844 6.304688 4.875 C 6.253906 5.125 6.203125 5.390625 6.269531 5.675781 C 6.296875 5.796875 6.332031 5.902344 6.363281 6.007812 C 6.472656 6.371094 6.550781 6.636719 6.304688 7.003906 C 6.28125 7.035156 6.265625 7.042969 6.265625 7.046875 C 6.261719 7.042969 6.238281 7.023438 6.222656 6.984375 C 6.207031 6.945312 6.203125 6.886719 6.234375 6.839844 C 6.429688 6.554688 6.3125 6.226562 6.210938 5.933594 L 6.199219 5.898438 C 6.179688 5.847656 6.132812 5.816406 6.082031 5.816406 L 6.078125 5.816406 C 6.019531 5.816406 5.972656 5.855469 5.960938 5.910156 C 5.9375 5.992188 5.914062 6.074219 5.882812 6.148438 C 5.722656 6.558594 5.835938 6.867188 5.945312 7.164062 C 5.992188 7.292969 6.042969 7.421875 6.074219 7.566406 C 6.160156 7.976562 6.023438 8.335938 5.632812 8.730469 C 5.601562 8.761719 5.570312 8.777344 5.539062 8.777344 C 5.515625 8.777344 5.5 8.765625 5.492188 8.75 C 5.484375 8.726562 5.496094 8.691406 5.535156 8.652344 C 6.039062 8.144531 5.886719 7.730469 5.738281 7.328125 C 5.71875 7.277344 5.699219 7.222656 5.679688 7.171875 C 5.664062 7.121094 5.621094 7.085938 5.566406 7.085938 L 5.5625 7.085938 C 5.511719 7.085938 5.46875 7.113281 5.449219 7.160156 C 5.390625 7.296875 5.304688 7.433594 5.226562 7.5625 L 5.199219 7.609375 C 5.179688 7.636719 5.160156 7.65625 5.132812 7.667969 C 5.074219 7.695312 5.046875 7.765625 5.070312 7.824219 C 5.125 7.980469 5.195312 8.132812 5.277344 8.277344 C 5.292969 8.300781 5.273438 8.339844 5.265625 8.359375 C 5.230469 8.417969 5.164062 8.460938 5.121094 8.460938 C 5.113281 8.460938 5.109375 8.460938 5.097656 8.441406 C 4.742188 7.808594 4.632812 7.121094 4.789062 6.507812 C 4.816406 6.40625 4.859375 6.308594 4.90625 6.203125 C 4.921875 6.167969 4.921875 6.132812 4.90625 6.097656 C 4.902344 6.089844 4.902344 6.082031 4.898438 6.078125 C 4.894531 6.070312 4.890625 6.0625 4.886719 6.054688 C 4.796875 5.789062 4.773438 5.496094 4.824219 5.175781 C 4.847656 5.042969 4.875 4.910156 4.894531 4.8125 C 4.902344 4.785156 4.898438 4.761719 4.890625 4.734375 C 4.867188 4.683594 4.84375 4.632812 4.820312 4.585938 C 4.792969 4.523438 4.765625 4.464844 4.742188 4.40625 C 4.734375 4.386719 4.714844 4.332031 4.707031 4.308594 C 4.671875 4.324219 4.636719 4.328125 4.582031 4.339844 C 4.597656 4.375 4.613281 4.425781 4.625 4.457031 C 4.671875 4.5625 4.722656 4.671875 4.773438 4.785156 C 4.746094 4.910156 4.71875 5.03125 4.699219 5.15625 C 4.648438 5.46875 4.664062 5.792969 4.765625 6.097656 C 4.773438 6.113281 4.785156 6.132812 4.792969 6.148438 C 4.742188 6.257812 4.695312 6.363281 4.667969 6.476562 C 4.488281 7.171875 4.640625 7.886719 4.984375 8.503906 C 5.015625 8.5625 5.066406 8.585938 5.117188 8.585938 C 5.277344 8.585938 5.472656 8.371094 5.382812 8.214844 C 5.304688 8.074219 5.238281 7.929688 5.183594 7.78125 C 5.230469 7.761719 5.269531 7.726562 5.300781 7.671875 C 5.394531 7.523438 5.492188 7.367188 5.558594 7.210938 C 5.714844 7.671875 5.949219 8.050781 5.441406 8.566406 C 5.28125 8.726562 5.386719 8.902344 5.539062 8.902344 C 5.59375 8.902344 5.660156 8.878906 5.71875 8.820312 C 6.078125 8.457031 6.304688 8.0625 6.191406 7.542969 C 6.082031 7.039062 5.792969 6.722656 6 6.195312 C 6.03125 6.109375 6.058594 6.023438 6.078125 5.941406 C 6.179688 6.230469 6.296875 6.527344 6.128906 6.769531 C 6.023438 6.929688 6.125 7.171875 6.261719 7.171875 C 6.308594 7.171875 6.359375 7.140625 6.40625 7.074219 C 6.765625 6.542969 6.519531 6.195312 6.390625 5.648438 Z M 6.390625 5.648438"/><path style="stroke:none;fill-rule:nonzero;fill:#434343;fill-opacity:1" d="M 5.347656 3.984375 L 5.339844 3.984375 C 5.28125 3.984375 5.234375 4.027344 5.222656 4.085938 C 5.195312 4.265625 5.167969 4.382812 5.160156 4.421875 C 5.144531 4.488281 5.128906 4.554688 5.113281 4.617188 C 5.109375 4.644531 5.109375 4.671875 5.121094 4.695312 C 5.195312 4.878906 5.234375 5.023438 5.261719 5.160156 C 5.308594 5.4375 5.257812 5.65625 5.148438 5.941406 C 5.136719 5.976562 5.140625 6.015625 5.160156 6.050781 C 5.199219 6.117188 5.242188 6.179688 5.285156 6.242188 C 5.328125 6.304688 5.371094 6.363281 5.410156 6.425781 C 5.429688 6.464844 5.472656 6.488281 5.515625 6.488281 C 5.519531 6.488281 5.523438 6.488281 5.53125 6.484375 C 5.578125 6.480469 5.621094 6.449219 5.636719 6.402344 C 5.648438 6.355469 5.667969 6.308594 5.6875 6.257812 C 5.703125 6.222656 5.714844 6.1875 5.730469 6.152344 C 5.839844 5.84375 5.855469 5.527344 5.773438 5.152344 C 5.726562 4.9375 5.664062 4.734375 5.601562 4.539062 C 5.554688 4.378906 5.507812 4.230469 5.46875 4.074219 C 5.453125 4.019531 5.402344 3.984375 5.347656 3.984375 Z M 5.648438 5.179688 C 5.722656 5.503906 5.726562 5.800781 5.609375 6.109375 C 5.578125 6.203125 5.542969 6.28125 5.515625 6.363281 C 5.4375 6.234375 5.34375 6.117188 5.265625 5.984375 C 5.371094 5.710938 5.441406 5.460938 5.386719 5.140625 C 5.355469 4.96875 5.300781 4.808594 5.238281 4.648438 C 5.253906 4.582031 5.269531 4.515625 5.285156 4.449219 C 5.296875 4.378906 5.324219 4.257812 5.347656 4.109375 C 5.433594 4.457031 5.566406 4.804688 5.648438 5.179688 Z M 5.648438 5.179688"/><path style="stroke:none;fill-rule:nonzero;fill:#434343;fill-opacity:1" d="M 4.5625 2.234375 C 4.636719 2.078125 4.734375 1.972656 4.875 1.914062 L 4.890625 1.90625 C 4.894531 1.90625 4.902344 1.902344 4.910156 1.898438 C 4.933594 1.890625 4.953125 1.890625 4.960938 1.890625 C 4.976562 1.890625 4.980469 1.890625 4.980469 1.894531 C 4.992188 1.910156 5.007812 1.921875 5.027344 1.929688 C 5.191406 2 5.292969 2.257812 5.320312 2.671875 C 5.324219 2.726562 5.363281 2.773438 5.417969 2.785156 C 5.425781 2.789062 5.4375 2.789062 5.445312 2.789062 C 5.488281 2.789062 5.527344 2.765625 5.550781 2.730469 C 5.617188 2.617188 5.691406 2.5625 5.773438 2.5625 C 5.808594 2.5625 5.84375 2.574219 5.886719 2.589844 C 5.902344 2.597656 5.914062 2.605469 5.90625 2.640625 C 5.890625 2.714844 5.8125 2.792969 5.757812 2.792969 C 5.753906 2.792969 5.746094 2.789062 5.738281 2.789062 L 5.6875 2.902344 C 5.710938 2.914062 5.734375 2.917969 5.757812 2.917969 C 5.957031 2.917969 6.15625 2.578125 5.941406 2.480469 C 5.878906 2.453125 5.824219 2.4375 5.773438 2.4375 C 5.632812 2.4375 5.523438 2.535156 5.445312 2.664062 C 5.417969 2.261719 5.316406 1.921875 5.078125 1.816406 C 5.050781 1.785156 5.011719 1.765625 4.960938 1.765625 C 4.933594 1.765625 4.902344 1.769531 4.871094 1.78125 C 4.855469 1.785156 4.839844 1.792969 4.828125 1.796875 C 4.636719 1.878906 4.511719 2.027344 4.433594 2.21875 C 4.421875 2.246094 4.410156 2.285156 4.410156 2.285156 C 4.410156 2.285156 4.535156 2.226562 4.5625 2.234375 Z M 4.5625 2.234375"/></g></defs><g id="surface1"><path style="stroke:none;fill-rule:nonzero;fill:#9d9d9d;fill-opacity:1" d="M 15.375 10.453125 C 15.375 13.023438 12.140625 14.984375 8 14.984375 C 3.859375 14.984375 0.625 13.023438 0.625 10.453125 C 0.625 10.089844 0.503906 9.804688 0.503906 9.804688 L 15.5 9.804688 C 15.5 9.804688 15.375 10.0625 15.375 10.453125 Z M 15.375 10.453125"/><path style="stroke:none;fill-rule:nonzero;fill:url(#linear0)" d="M 15.5 9.945312 C 15.5 7.375 12.140625 5.289062 8 5.289062 C 3.859375 5.289062 0.5 7.375 0.5 9.945312 C 0.5 12.519531 3.859375 14.605469 8 14.605469 C 12.140625 14.605469 15.5 12.519531 15.5 9.945312 Z M 15.5 9.945312"/><path style="stroke:none;fill-rule:nonzero;fill:#f5f5f5;fill-opacity:1" d="M 10.636719 9.582031 C 10.636719 10.203125 10.132812 10.707031 9.511719 10.707031 C 8.890625 10.707031 8.386719 10.203125 8.386719 9.582031 C 8.386719 8.960938 8.890625 8.457031 9.511719 8.457031 C 10.132812 8.457031 10.636719 8.960938 10.636719 9.582031 Z M 10.636719 9.582031"/><path style="stroke:none;fill-rule:nonzero;fill:#f5f5f5;fill-opacity:1" d="M 9.121094 10.390625 C 9.121094 11.011719 8.617188 11.515625 7.996094 11.515625 C 7.375 11.515625 6.871094 11.011719 6.871094 10.390625 C 6.871094 9.769531 7.375 9.265625 7.996094 9.265625 C 8.617188 9.265625 9.121094 9.769531 9.121094 10.390625 Z M 9.121094 10.390625"/><path style="stroke:none;fill-rule:nonzero;fill:url(#linear1)" d="M 1.234375 9.546875 C 1.253906 9.792969 1.472656 9.984375 1.472656 10.015625 C 1.46875 10.316406 1.273438 10.191406 1.417969 10.570312 C 1.558594 10.953125 1.769531 11.476562 2.015625 11.65625 C 2.613281 12.097656 3.410156 12.808594 3.980469 12.976562 C 5.023438 13.277344 5.875 12.976562 7.039062 13.246094 C 8.074219 13.484375 9.089844 13.519531 9.976562 13.382812 C 10.210938 13.347656 10.355469 13.023438 10.570312 12.964844 C 10.816406 12.898438 11.136719 13.089844 11.351562 12.996094 C 13.1875 12.175781 12.75 11.828125 13.613281 11.296875 C 14.179688 10.949219 14.855469 10.703125 14.785156 9.792969 C 14.632812 7.8125 11.695312 6.121094 7.5625 6.121094 C 3.425781 6.121094 1.117188 8.015625 1.234375 9.546875 Z M 1.234375 9.546875"/><use mask="url(#mask0)" xlink:href="#surface6"/><path style="stroke:none;fill-rule:nonzero;fill:#ffcc4d;fill-opacity:1" d="M 5.546875 8.3125 C 5.570312 8.277344 5.589844 8.246094 5.613281 8.210938 C 5.683594 8.105469 5.503906 8.164062 5.464844 8.183594 C 5.390625 8.214844 5.320312 8.257812 5.253906 8.300781 C 5.203125 8.339844 5.148438 8.378906 5.113281 8.429688 C 5.089844 8.460938 5.070312 8.496094 5.046875 8.527344 C 4.972656 8.636719 5.15625 8.578125 5.195312 8.558594 C 5.269531 8.523438 5.339844 8.484375 5.40625 8.4375 C 5.453125 8.402344 5.511719 8.363281 5.546875 8.3125 Z M 5.546875 8.3125"/><path style="stroke:none;fill-rule:nonzero;fill:#ffcb28;fill-opacity:1" d="M 4.222656 8.738281 C 3.707031 8.503906 3.101562 8.785156 2.820312 9.25 C 2.476562 9.816406 2.742188 10.316406 3.261719 10.632812 C 3.457031 10.753906 3.878906 10.5 3.640625 10.355469 C 3.367188 10.183594 3.097656 9.984375 3.164062 9.625 C 3.222656 9.296875 3.589844 8.914062 3.9375 9.074219 C 4.15625 9.175781 4.507812 8.871094 4.222656 8.738281 Z M 4.222656 8.738281"/><path style="stroke:none;fill-rule:nonzero;fill:#fdd836;fill-opacity:1" d="M 13.6875 10.453125 C 13.847656 6.984375 9.890625 5.539062 6.964844 5.886719 C 6.046875 5.992188 4.988281 6.152344 4.167969 6.597656 C 3.484375 6.964844 2.9375 7.789062 3.675781 8.398438 C 4.375 8.972656 5.332031 8.707031 6.132812 8.953125 C 7.273438 9.296875 5.59375 10.175781 5.210938 10.332031 C 4.574219 10.59375 3.867188 10.730469 3.199219 10.519531 C 2.679688 10.355469 2.109375 10.085938 1.738281 9.679688 C 1.222656 9.109375 1.667969 8.511719 2.132812 8.066406 C 3.226562 7.015625 4.863281 6.441406 6.351562 6.347656 C 6.644531 6.328125 6.769531 5.863281 6.402344 5.886719 C 5.117188 5.972656 3.84375 6.398438 2.753906 7.074219 C 2.046875 7.511719 1.109375 8.210938 0.964844 9.097656 C 0.820312 9.96875 1.851562 10.523438 2.515625 10.808594 C 3.515625 11.238281 4.535156 11.109375 5.515625 10.664062 C 6.0625 10.414062 7.515625 9.679688 6.984375 8.867188 C 6.523438 8.15625 5.132812 8.476562 4.449219 8.214844 C 4.003906 8.046875 3.585938 7.703125 4.09375 7.148438 C 4.246094 6.980469 4.511719 6.898438 4.71875 6.824219 C 5.339844 6.597656 6.003906 6.46875 6.660156 6.378906 C 7.425781 6.269531 8.15625 6.296875 8.917969 6.425781 C 11.101562 6.804688 13.28125 8.027344 13.164062 10.527344 C 13.148438 10.851562 13.675781 10.714844 13.6875 10.453125 Z M 13.6875 10.453125"/><path style="stroke:none;fill-rule:nonzero;fill:#fec111;fill-opacity:1" d="M 1.101562 10.191406 C 1.183594 11.949219 3.175781 12.703125 4.714844 12.417969 C 5.636719 12.25 6.3125 11.722656 7.304688 11.773438 C 8.171875 11.820312 8.910156 12.226562 9.632812 12.667969 C 10.195312 13.011719 10.761719 13.375 11.445312 13.339844 C 12.222656 13.300781 12.570312 12.84375 13.027344 12.292969 C 13.609375 11.582031 14.605469 11.476562 15.035156 10.582031 C 15.304688 10.027344 15.296875 9.316406 15 8.769531 C 14.144531 7.207031 11.953125 6.410156 10.34375 6.078125 C 10.085938 6.027344 9.941406 6.5625 10.238281 6.621094 C 11.742188 6.933594 13.335938 7.589844 14.359375 8.785156 C 14.757812 9.253906 14.953125 9.914062 14.605469 10.488281 C 14.199219 11.15625 13.339844 11.265625 12.835938 11.835938 C 12.347656 12.398438 12.007812 12.9375 11.144531 12.777344 C 10.609375 12.675781 10.132812 12.320312 9.671875 12.042969 C 8.507812 11.339844 7.183594 10.953125 5.851562 11.460938 C 5.050781 11.765625 4.421875 12.019531 3.535156 11.859375 C 2.570312 11.683594 1.597656 11.15625 1.546875 10.070312 C 1.53125 9.703125 1.085938 9.898438 1.101562 10.191406 Z M 1.101562 10.191406"/><path style="stroke:none;fill-rule:nonzero;fill:#fdd836;fill-opacity:1" d="M 2.824219 12.378906 C 4.167969 10.5625 5.464844 12.277344 6.734375 13.15625 C 7.585938 13.75 9.515625 13.890625 9.980469 12.699219 C 10.417969 11.578125 8.984375 10.765625 8.035156 10.960938 C 7.578125 11.054688 7.136719 11.320312 6.996094 11.789062 C 6.804688 12.417969 7.257812 12.980469 7.667969 13.402344 C 7.871094 13.617188 8.167969 13.140625 7.980469 12.949219 C 7.582031 12.535156 7.046875 11.84375 7.828125 11.546875 C 8.234375 11.390625 8.726562 11.4375 9.078125 11.691406 C 9.339844 11.882812 9.714844 12.261719 9.535156 12.601562 C 9.371094 12.90625 8.898438 12.984375 8.585938 13.019531 C 7.945312 13.097656 7.457031 13 6.941406 12.625 C 6.230469 12.109375 5.609375 11.363281 4.75 11.074219 C 3.796875 10.75 3.050781 11.347656 2.507812 12.082031 C 2.316406 12.34375 2.605469 12.675781 2.824219 12.378906 Z M 2.824219 12.378906"/><path style="stroke:none;fill-rule:nonzero;fill:#fec111;fill-opacity:1" d="M 5.578125 10.84375 C 6.410156 11.464844 7.859375 11.273438 8.699219 10.761719 C 9.703125 10.152344 9.515625 9.066406 8.488281 8.640625 C 8.117188 8.488281 7.074219 8.335938 7.460938 7.71875 C 7.9375 6.949219 9.285156 7.589844 9.785156 7.972656 C 10.515625 8.527344 11.183594 8.816406 12.132812 8.769531 C 12.734375 8.742188 13.429688 8.476562 13.796875 9.144531 C 13.960938 9.4375 14.023438 10.015625 13.78125 10.296875 C 13.472656 10.65625 12.679688 10.617188 12.253906 10.792969 C 11.480469 11.109375 11.015625 11.75 10.703125 12.503906 C 10.582031 12.804688 11.113281 12.890625 11.214844 12.644531 C 11.570312 11.777344 12.078125 11.222656 13 11.011719 C 13.417969 10.917969 13.914062 10.875 14.21875 10.535156 C 14.5625 10.152344 14.566406 9.46875 14.355469 9.023438 C 14.050781 8.378906 13.371094 8.175781 12.707031 8.265625 C 11.902344 8.375 11.132812 8.386719 10.457031 7.867188 C 10.105469 7.597656 9.792969 7.34375 9.371094 7.183594 C 8.746094 6.949219 8.003906 6.835938 7.394531 7.175781 C 7.078125 7.351562 6.816406 7.652344 6.824219 8.035156 C 6.832031 8.511719 7.292969 8.699219 7.675781 8.835938 C 7.996094 8.953125 8.402344 9.027344 8.644531 9.285156 C 8.984375 9.644531 8.835938 10.109375 8.472656 10.375 C 7.898438 10.800781 6.640625 11.019531 6.027344 10.5625 C 5.820312 10.40625 5.324219 10.652344 5.578125 10.84375 Z M 5.578125 10.84375"/><use mask="url(#mask1)" xlink:href="#surface9"/><path style="stroke:none;fill-rule:nonzero;fill:#fec111;fill-opacity:1" d="M 2.015625 11.804688 C 2.726562 12.78125 3.550781 13.539062 4.824219 13.441406 C 5.332031 13.402344 5.832031 13.273438 6.347656 13.324219 C 7.011719 13.390625 7.648438 13.652344 8.316406 13.730469 C 9.390625 13.859375 10.726562 13.789062 11.113281 12.585938 C 11.382812 11.753906 11.0625 10.703125 10.121094 10.535156 C 9.855469 10.488281 9.566406 10.925781 9.910156 10.984375 C 10.789062 11.140625 10.917969 12.53125 10.304688 13.054688 C 9.496094 13.742188 7.890625 13.171875 6.984375 12.953125 C 6.292969 12.789062 5.65625 12.921875 4.964844 12.984375 C 3.84375 13.078125 3.136719 12.398438 2.507812 11.539062 C 2.34375 11.3125 1.851562 11.582031 2.015625 11.804688 Z M 2.015625 11.804688"/><use mask="url(#mask2)" xlink:href="#surface12"/><path style="stroke:none;fill-rule:nonzero;fill:url(#radial0)" d="M 3.445312 8.296875 C 2.984375 9.21875 3.4375 9.113281 3.902344 9.671875 C 4.171875 9.992188 4.117188 10.398438 4.492188 10.640625 C 5.089844 11.023438 5.726562 10.96875 6.160156 11.015625 C 6.886719 11.097656 6.914062 10.855469 7.640625 10.828125 C 8.113281 10.808594 8.917969 11.203125 9.335938 10.988281 C 10.007812 10.640625 10.839844 10.773438 11.191406 10.558594 C 11.808594 10.183594 11.261719 9.894531 11.78125 9.535156 C 12.125 9.300781 12.671875 9.347656 12.550781 8.640625 C 12.441406 7.96875 11.925781 7.816406 11.082031 7.4375 C 10.554688 7.199219 10.632812 6.832031 9.578125 6.570312 C 9.183594 6.472656 8.476562 6.71875 8.035156 6.71875 C 7.515625 6.71875 6.902344 6.492188 6.265625 6.644531 C 5.578125 6.804688 5.507812 7.164062 5.058594 7.398438 C 4.449219 7.71875 3.671875 7.839844 3.445312 8.296875 Z M 3.445312 8.296875"/><use mask="url(#mask3)" xlink:href="#surface15"/><use mask="url(#mask4)" xlink:href="#surface18"/><use mask="url(#mask5)" xlink:href="#surface21"/><use mask="url(#mask6)" xlink:href="#surface24"/><use mask="url(#mask7)" xlink:href="#surface27"/><path style="stroke:none;fill-rule:nonzero;fill:url(#linear2)" d="M 8.164062 3.390625 L 8.367188 2.976562 C 8.414062 2.871094 8.515625 2.785156 8.714844 2.75 L 14.40625 1.535156 C 14.617188 1.488281 14.75 1.148438 14.699219 0.9375 C 14.652344 0.726562 14.441406 0.472656 14.230469 0.523438 L 8.542969 1.988281 C 8.347656 2.046875 8.21875 2.011719 8.128906 1.941406 L 7.761719 1.65625 C 7.574219 1.503906 7.269531 1.464844 6.964844 1.535156 C 5.59375 1.851562 4.789062 2.164062 3.953125 2.417969 C 3.738281 2.476562 3.652344 2.550781 3.671875 2.636719 C 3.695312 2.734375 3.804688 2.761719 4.023438 2.722656 L 5.8125 2.382812 C 5.886719 2.367188 5.964844 2.414062 5.980469 2.488281 C 5.980469 2.488281 5.980469 2.492188 5.980469 2.492188 C 5.996094 2.5625 5.953125 2.632812 5.882812 2.65625 L 4.140625 3.242188 C 3.921875 3.3125 3.839844 3.375 3.863281 3.460938 C 3.882812 3.546875 3.984375 3.578125 4.210938 3.535156 L 6.042969 3.308594 C 6.113281 3.296875 6.183594 3.34375 6.203125 3.414062 C 6.203125 3.414062 6.203125 3.417969 6.203125 3.417969 C 6.21875 3.492188 6.171875 3.5625 6.097656 3.582031 L 4.328125 4.054688 C 4.117188 4.125 4.03125 4.1875 4.050781 4.285156 C 4.074219 4.382812 4.183594 4.398438 4.402344 4.367188 C 5.265625 4.21875 6.121094 4.15625 7.492188 3.839844 C 7.804688 3.765625 8.058594 3.613281 8.164062 3.390625 Z M 8.164062 3.390625"/><use mask="url(#mask8)" xlink:href="#surface30"/><path style="stroke:none;fill-rule:nonzero;fill:url(#radial1)" d="M 4.871094 1.78125 C 3.976562 2.082031 4.375 3.863281 4.628906 4.457031 C 4.800781 4.855469 5.046875 5.289062 4.953125 5.734375 C 4.894531 5.992188 4.734375 6.222656 4.671875 6.476562 C 4.492188 7.171875 4.640625 7.886719 4.988281 8.503906 C 5.117188 8.734375 5.503906 8.421875 5.386719 8.214844 C 5.035156 7.585938 4.914062 6.867188 5.1875 6.183594 C 5.332031 5.828125 5.453125 5.535156 5.386719 5.140625 C 5.285156 4.574219 4.921875 4.097656 4.832031 3.527344 C 4.796875 3.304688 4.65625 2.28125 4.9375 2.1875 C 5.183594 2.101562 5.179688 1.675781 4.871094 1.78125 Z M 4.871094 1.78125"/><path style="stroke:none;fill-rule:nonzero;fill:url(#linear3)" d="M 8.164062 3.390625 L 8.367188 2.976562 C 8.414062 2.871094 8.515625 2.785156 8.714844 2.75 L 14.40625 1.535156 C 14.617188 1.488281 14.75 1.148438 14.699219 0.9375 C 14.652344 0.726562 14.441406 0.472656 14.230469 0.523438 L 8.542969 1.988281 C 8.347656 2.046875 8.21875 2.011719 8.128906 1.941406 L 7.761719 1.65625 C 7.574219 1.503906 7.269531 1.464844 6.964844 1.535156 C 5.59375 1.851562 4.789062 2.164062 3.953125 2.417969 C 3.738281 2.476562 3.652344 2.550781 3.671875 2.636719 C 3.695312 2.734375 3.804688 2.761719 4.023438 2.722656 L 5.8125 2.382812 C 5.886719 2.367188 5.964844 2.414062 5.980469 2.488281 C 5.980469 2.488281 5.980469 2.492188 5.980469 2.492188 C 5.996094 2.5625 5.953125 2.632812 5.882812 2.65625 L 4.140625 3.242188 C 3.921875 3.3125 3.839844 3.375 3.863281 3.460938 C 3.882812 3.546875 3.984375 3.578125 4.210938 3.535156 L 6.042969 3.308594 C 6.113281 3.296875 6.183594 3.34375 6.203125 3.414062 C 6.203125 3.414062 6.203125 3.417969 6.203125 3.417969 C 6.21875 3.492188 6.171875 3.5625 6.097656 3.582031 L 4.328125 4.054688 C 4.117188 4.125 4.03125 4.1875 4.050781 4.285156 C 4.074219 4.382812 4.183594 4.398438 4.402344 4.367188 C 5.265625 4.21875 6.121094 4.15625 7.492188 3.839844 C 7.804688 3.765625 8.058594 3.613281 8.164062 3.390625 Z M 8.164062 3.390625"/><use mask="url(#mask9)" xlink:href="#surface33"/><path style="stroke:none;fill-rule:nonzero;fill:#fdd836;fill-opacity:1" d="M 5.9375 2.480469 C 5.554688 2.300781 5.363281 2.753906 5.300781 3.054688 C 5.140625 3.839844 5.484375 4.445312 5.648438 5.179688 C 5.71875 5.503906 5.722656 5.800781 5.609375 6.109375 C 5.539062 6.300781 5.46875 6.433594 5.460938 6.648438 C 5.441406 7.402344 6.140625 7.859375 5.445312 8.5625 C 5.222656 8.785156 5.5 9.035156 5.71875 8.816406 C 6.078125 8.453125 6.304688 8.058594 6.195312 7.539062 C 6.085938 7.035156 5.792969 6.71875 6 6.191406 C 6.160156 5.789062 6.175781 5.425781 6.078125 4.988281 C 6.011719 4.671875 5.859375 4.382812 5.777344 4.070312 C 5.714844 3.832031 5.6875 3.589844 5.695312 3.34375 C 5.703125 3.160156 5.800781 2.953125 5.683594 2.902344 C 5.902344 3.003906 6.183594 2.59375 5.9375 2.480469 Z M 5.9375 2.480469"/><path style="stroke:none;fill-rule:nonzero;fill:url(#radial2)" d="M 4.757812 2.226562 C 5.085938 2.230469 4.984375 3.613281 4.96875 3.789062 C 4.925781 4.253906 4.777344 4.695312 4.703125 5.15625 C 4.652344 5.46875 4.667969 5.792969 4.769531 6.09375 C 4.832031 6.265625 4.941406 6.378906 5.015625 6.53125 C 5.210938 6.910156 5.15625 7.1875 4.949219 7.527344 C 4.777344 7.804688 5.15625 7.914062 5.304688 7.671875 C 5.523438 7.316406 5.769531 6.949219 5.597656 6.519531 C 5.472656 6.210938 5.210938 6.023438 5.140625 5.675781 C 5.054688 5.257812 5.195312 4.855469 5.285156 4.449219 C 5.375 4.019531 5.773438 1.789062 4.910156 1.777344 C 4.675781 1.777344 4.472656 2.222656 4.757812 2.226562 Z M 4.757812 2.226562"/><path style="stroke:none;fill-rule:nonzero;fill:url(#radial3)" d="M 5.902344 3.53125 C 6.09375 3.945312 6.136719 4.359375 6.050781 4.800781 C 6.003906 5.050781 5.957031 5.289062 5.980469 5.542969 C 6.015625 5.9375 6.375 6.410156 6.132812 6.769531 C 5.988281 6.984375 6.226562 7.34375 6.410156 7.074219 C 6.765625 6.546875 6.519531 6.195312 6.390625 5.648438 C 6.292969 5.21875 6.488281 4.839844 6.492188 4.414062 C 6.5 4.011719 6.390625 3.589844 6.222656 3.226562 C 6.09375 2.945312 5.800781 3.3125 5.902344 3.53125 Z M 5.902344 3.53125"/><use mask="url(#mask10)" xlink:href="#surface36"/></g></svg>