<svg xmlns="http://www.w3.org/2000/svg" xmlns:xlink="http://www.w3.org/1999/xlink" width="16pt" height="16pt" version="1.1" viewBox="0 0 16 16"><defs><radialGradient id="radial0" cx="-237.34" cy="-43.526" r="61.34" fx="-237.34" fy="-43.526" gradientTransform="matrix(0.06555,0.107088,-0.155838,0.09965,14.04125,35.92)" gradientUnits="userSpaceOnUse"><stop offset="0" style="stop-color:#ff9e96;stop-opacity:1"/><stop offset=".311" style="stop-color:#ff574a;stop-opacity:1"/><stop offset=".428" style="stop-color:#fa4e43;stop-opacity:1"/><stop offset=".613" style="stop-color:#eb3732;stop-opacity:1"/><stop offset=".769" style="stop-color:#db1f1f;stop-opacity:1"/><stop offset=".996" style="stop-color:#ed2121;stop-opacity:1"/></radialGradient><filter id="alpha" width="100%" height="100%" x="0%" y="0%" filterUnits="objectBoundingBox"><feColorMatrix in="SourceGraphic" type="matrix" values="0 0 0 0 1 0 0 0 0 1 0 0 0 0 1 0 0 0 1 0"/></filter><mask id="mask0"><g filter="url(#alpha)"><rect width="16" height="16" x="0" y="0" style="fill:#000;fill-opacity:.2;stroke:none"/></g></mask><clipPath id="clip1"><rect width="16" height="16" x="0" y="0"/></clipPath><g id="surface5" clip-path="url(#clip1)"><path style="stroke:none;fill-rule:nonzero;fill:#424242;fill-opacity:1" d="M 6.203125 2.898438 C 6.253906 2.898438 6.304688 2.898438 6.359375 2.902344 L 6.460938 2.90625 C 7.308594 2.941406 8.730469 2.996094 10.121094 4.078125 C 12.449219 5.890625 13.554688 8.050781 13.078125 9.863281 C 12.710938 11.246094 11.601562 12.296875 9.117188 13.613281 L 8.902344 13.726562 L 8.8125 13.773438 C 8.71875 13.824219 8.621094 13.878906 8.523438 13.929688 C 7.621094 14.410156 6.6875 14.910156 5.738281 15.070312 C 5.53125 15.105469 5.316406 15.121094 5.105469 15.121094 C 4.171875 15.121094 3.328125 14.792969 2.796875 14.210938 C 2.199219 13.5625 1.847656 12.792969 1.761719 11.929688 C 1.671875 11.074219 1.765625 10.15625 1.859375 9.269531 C 1.878906 9.105469 1.894531 8.941406 1.914062 8.777344 C 2.1875 5.976562 2.738281 4.550781 3.882812 3.691406 C 4.566406 3.171875 5.371094 2.898438 6.203125 2.898438 M 6.203125 2.523438 C 5.304688 2.523438 4.414062 2.816406 3.652344 3.390625 C 2.386719 4.351562 1.820312 5.878906 1.539062 8.742188 C 1.433594 9.8125 1.277344 10.914062 1.386719 11.96875 C 1.488281 12.945312 1.890625 13.78125 2.519531 14.46875 C 3.160156 15.160156 4.132812 15.5 5.105469 15.5 C 5.339844 15.5 5.570312 15.480469 5.800781 15.441406 C 6.917969 15.253906 7.972656 14.644531 8.988281 14.105469 L 9.292969 13.945312 C 11.835938 12.597656 13.035156 11.496094 13.441406 9.957031 C 13.992188 7.875 12.628906 5.550781 10.351562 3.785156 C 8.808594 2.582031 7.234375 2.5625 6.375 2.527344 C 6.316406 2.523438 6.257812 2.523438 6.203125 2.523438 Z M 6.203125 2.523438"/></g><linearGradient id="linear0" x1="111.79" x2="78.884" y1="27.665" y2="46.858" gradientTransform="matrix(0.125,0,0,0.125,0,0)" gradientUnits="userSpaceOnUse"><stop offset=".007" style="stop-color:#aed581;stop-opacity:1"/><stop offset=".332" style="stop-color:#8ebd60;stop-opacity:1"/><stop offset=".678" style="stop-color:#73a743;stop-opacity:1"/><stop offset=".876" style="stop-color:#689f38;stop-opacity:1"/></linearGradient><mask id="mask1"><g filter="url(#alpha)"><rect width="16" height="16" x="0" y="0" style="fill:#000;fill-opacity:.2;stroke:none"/></g></mask><clipPath id="clip2"><rect width="16" height="16" x="0" y="0"/></clipPath><g id="surface8" clip-path="url(#clip2)"><path style="stroke:none;fill-rule:nonzero;fill:#424242;fill-opacity:1" d="M 13.570312 3.554688 C 13.554688 3.613281 13.542969 3.675781 13.523438 3.734375 C 13.441406 4.050781 13.320312 4.359375 13.160156 4.644531 C 13.03125 4.882812 12.855469 5.175781 12.632812 5.375 C 12.390625 5.59375 12.089844 5.753906 11.796875 5.910156 C 11.476562 6.082031 11.132812 6.175781 10.832031 6.175781 C 10.578125 6.175781 10.363281 6.109375 10.203125 5.976562 C 9.945312 5.761719 9.835938 5.367188 9.929688 5.015625 C 10.027344 4.671875 10.316406 4.359375 10.683594 4.199219 C 10.925781 4.09375 11.195312 4.054688 11.425781 4.03125 C 11.535156 4.015625 11.652344 4.015625 11.777344 4.015625 C 11.914062 4.015625 12.050781 4.015625 12.199219 4 C 12.621094 3.953125 13.027344 3.835938 13.40625 3.644531 C 13.464844 3.613281 13.515625 3.585938 13.570312 3.554688 M 14.03125 2.816406 C 13.753906 2.957031 13.515625 3.167969 13.238281 3.308594 C 12.902344 3.476562 12.535156 3.582031 12.160156 3.621094 C 11.902344 3.648438 11.644531 3.628906 11.386719 3.65625 C 11.09375 3.6875 10.804688 3.734375 10.535156 3.851562 C 10.082031 4.046875 9.703125 4.4375 9.570312 4.914062 C 9.4375 5.390625 9.582031 5.949219 9.964844 6.265625 C 10.210938 6.46875 10.515625 6.550781 10.832031 6.550781 C 11.21875 6.550781 11.628906 6.425781 11.972656 6.242188 C 12.292969 6.070312 12.609375 5.898438 12.882812 5.65625 C 13.132812 5.429688 13.328125 5.121094 13.488281 4.824219 C 13.664062 4.511719 13.796875 4.175781 13.886719 3.832031 C 13.933594 3.664062 13.96875 3.488281 13.992188 3.316406 C 14 3.261719 14.003906 2.828125 14.03125 2.816406 Z M 14.03125 2.816406"/></g><linearGradient id="linear1" x1="77.266" x2="79.322" y1="6.319" y2="43.678" gradientTransform="matrix(0.125,0,0,0.125,0,0)" gradientUnits="userSpaceOnUse"><stop offset=".007" style="stop-color:#aed581;stop-opacity:1"/><stop offset=".332" style="stop-color:#8ebd60;stop-opacity:1"/><stop offset=".678" style="stop-color:#73a743;stop-opacity:1"/><stop offset=".876" style="stop-color:#689f38;stop-opacity:1"/></linearGradient><mask id="mask2"><g filter="url(#alpha)"><rect width="16" height="16" x="0" y="0" style="fill:#000;fill-opacity:.2;stroke:none"/></g></mask><clipPath id="clip3"><rect width="16" height="16" x="0" y="0"/></clipPath><g id="surface11" clip-path="url(#clip3)"><path style="stroke:none;fill-rule:nonzero;fill:#424242;fill-opacity:1" d="M 9.617188 1.613281 C 9.621094 1.625 9.621094 1.632812 9.625 1.640625 C 9.691406 2.003906 9.820312 2.34375 10.011719 2.660156 C 10.078125 2.769531 10.148438 2.867188 10.21875 2.960938 C 10.28125 3.042969 10.335938 3.121094 10.386719 3.203125 C 10.484375 3.367188 10.589844 3.5625 10.644531 3.773438 C 10.722656 4.089844 10.660156 4.425781 10.484375 4.652344 C 10.34375 4.835938 10.109375 4.957031 9.890625 4.957031 C 9.84375 4.957031 9.800781 4.953125 9.757812 4.941406 C 9.328125 4.839844 9.09375 4.304688 9.027344 3.875 C 8.984375 3.601562 8.9375 3.316406 8.960938 3.050781 C 8.980469 2.804688 9.089844 2.539062 9.179688 2.335938 C 9.292969 2.085938 9.4375 1.851562 9.605469 1.636719 C 9.609375 1.628906 9.613281 1.621094 9.617188 1.613281 M 9.921875 0.785156 C 9.925781 0.8125 9.636719 1.035156 9.601562 1.070312 C 9.496094 1.175781 9.398438 1.289062 9.308594 1.402344 C 9.121094 1.640625 8.960938 1.90625 8.835938 2.183594 C 8.71875 2.445312 8.609375 2.734375 8.585938 3.019531 C 8.5625 3.328125 8.609375 3.632812 8.65625 3.933594 C 8.75 4.53125 9.082031 5.167969 9.667969 5.308594 C 9.742188 5.324219 9.816406 5.332031 9.890625 5.332031 C 10.230469 5.332031 10.574219 5.15625 10.78125 4.882812 C 11.039062 4.550781 11.109375 4.09375 11.007812 3.6875 C 10.949219 3.445312 10.832031 3.222656 10.707031 3.011719 C 10.59375 2.820312 10.445312 2.65625 10.332031 2.46875 C 10.167969 2.195312 10.050781 1.890625 9.992188 1.578125 C 9.945312 1.316406 9.964844 1.046875 9.921875 0.785156 Z M 9.921875 0.785156"/></g><linearGradient id="linear2" x1="46.413" x2="78.288" y1="14.121" y2="38.627" gradientTransform="matrix(0.125,0,0,0.125,0,0)" gradientUnits="userSpaceOnUse"><stop offset=".007" style="stop-color:#aed581;stop-opacity:1"/><stop offset=".332" style="stop-color:#8ebd60;stop-opacity:1"/><stop offset=".678" style="stop-color:#73a743;stop-opacity:1"/><stop offset=".876" style="stop-color:#689f38;stop-opacity:1"/></linearGradient><mask id="mask3"><g filter="url(#alpha)"><rect width="16" height="16" x="0" y="0" style="fill:#000;fill-opacity:.2;stroke:none"/></g></mask><clipPath id="clip4"><rect width="16" height="16" x="0" y="0"/></clipPath><g id="surface14" clip-path="url(#clip4)"><path style="stroke:none;fill-rule:nonzero;fill:#424242;fill-opacity:1" d="M 6.613281 2.03125 C 6.890625 2.03125 7.167969 2.0625 7.4375 2.125 C 7.679688 2.175781 7.988281 2.257812 8.222656 2.40625 C 8.476562 2.5625 8.695312 2.792969 8.910156 3.011719 C 9.25 3.359375 9.574219 3.929688 9.375 4.390625 C 9.253906 4.667969 8.941406 4.863281 8.609375 4.867188 L 8.597656 4.867188 C 8.273438 4.867188 7.933594 4.695312 7.703125 4.414062 C 7.546875 4.226562 7.445312 3.996094 7.363281 3.800781 C 7.324219 3.707031 7.292969 3.601562 7.261719 3.492188 C 7.226562 3.371094 7.1875 3.246094 7.136719 3.113281 C 6.984375 2.746094 6.773438 2.410156 6.503906 2.117188 C 6.476562 2.089844 6.449219 2.0625 6.421875 2.035156 C 6.460938 2.035156 6.5 2.03125 6.535156 2.03125 L 6.613281 2.03125 M 6.613281 1.65625 C 6.585938 1.65625 6.554688 1.65625 6.527344 1.660156 C 6.363281 1.664062 6.203125 1.675781 6.039062 1.699219 C 5.992188 1.703125 5.667969 1.792969 5.59375 1.792969 C 5.585938 1.792969 5.582031 1.792969 5.582031 1.789062 C 5.777344 2.003906 6.03125 2.160156 6.226562 2.371094 C 6.464844 2.628906 6.65625 2.929688 6.785156 3.257812 C 6.878906 3.484375 6.921875 3.71875 7.015625 3.941406 C 7.117188 4.195312 7.238281 4.441406 7.410156 4.652344 C 7.699219 5.003906 8.140625 5.242188 8.597656 5.242188 L 8.609375 5.242188 C 9.074219 5.238281 9.53125 4.964844 9.714844 4.542969 C 9.980469 3.933594 9.640625 3.226562 9.175781 2.75 C 8.945312 2.507812 8.707031 2.265625 8.421875 2.085938 C 8.152344 1.921875 7.824219 1.828125 7.519531 1.757812 C 7.222656 1.691406 6.917969 1.65625 6.613281 1.65625 Z M 6.613281 1.65625"/></g><linearGradient id="linear3" x1="-207.98" x2="-166.28" y1="-73.922" y2="-73.922" gradientTransform="matrix(0.1121,0.0553125,-0.0553125,0.1121,29.495,24.95)" gradientUnits="userSpaceOnUse"><stop offset=".123" style="stop-color:#689f38;stop-opacity:1"/><stop offset=".322" style="stop-color:#73a743;stop-opacity:1"/><stop offset=".668" style="stop-color:#8ebd60;stop-opacity:1"/><stop offset=".993" style="stop-color:#aed581;stop-opacity:1"/></linearGradient><mask id="mask4"><g filter="url(#alpha)"><rect width="16" height="16" x="0" y="0" style="fill:#000;fill-opacity:.2;stroke:none"/></g></mask><clipPath id="clip5"><rect width="16" height="16" x="0" y="0"/></clipPath><g id="surface17" clip-path="url(#clip5)"><path style="stroke:none;fill-rule:nonzero;fill:#424242;fill-opacity:1" d="M 11.558594 4.820312 C 11.75 4.820312 11.941406 4.859375 12.117188 4.933594 C 12.363281 5.039062 12.582031 5.207031 12.757812 5.359375 C 12.84375 5.429688 12.929688 5.515625 13.015625 5.605469 C 13.109375 5.703125 13.210938 5.804688 13.324219 5.898438 C 13.652344 6.175781 14.019531 6.390625 14.421875 6.535156 C 14.484375 6.554688 14.546875 6.574219 14.609375 6.589844 C 14.550781 6.625 14.496094 6.660156 14.4375 6.691406 C 14.148438 6.851562 13.839844 6.976562 13.519531 7.0625 C 13.296875 7.121094 13.003906 7.191406 12.730469 7.191406 C 12.691406 7.191406 12.652344 7.191406 12.617188 7.1875 C 12.289062 7.164062 11.960938 7.054688 11.640625 6.949219 C 11.132812 6.78125 10.519531 6.390625 10.480469 5.828125 C 10.453125 5.492188 10.667969 5.136719 10.992188 4.957031 C 11.15625 4.867188 11.355469 4.820312 11.558594 4.820312 M 11.558594 4.445312 C 11.300781 4.445312 11.042969 4.503906 10.816406 4.628906 C 10.375 4.863281 10.070312 5.359375 10.109375 5.855469 C 10.160156 6.574219 10.84375 7.082031 11.527344 7.304688 C 11.875 7.417969 12.222656 7.53125 12.589844 7.558594 C 12.636719 7.5625 12.683594 7.566406 12.730469 7.566406 C 13.027344 7.566406 13.335938 7.5 13.617188 7.421875 C 13.96875 7.328125 14.304688 7.191406 14.621094 7.015625 C 14.777344 6.933594 14.925781 6.835938 15.070312 6.734375 C 15.113281 6.703125 15.421875 6.414062 15.460938 6.414062 C 15.164062 6.308594 14.84375 6.285156 14.546875 6.179688 C 14.191406 6.050781 13.855469 5.859375 13.566406 5.613281 C 13.363281 5.445312 13.199219 5.238281 13 5.070312 C 12.773438 4.878906 12.535156 4.703125 12.261719 4.589844 C 12.042969 4.496094 11.800781 4.445312 11.558594 4.445312 Z M 11.558594 4.445312"/></g><linearGradient id="linear4" x1="75.749" x2="94.844" y1="23.529" y2="23.529" gradientTransform="matrix(0.125,0,0,0.125,0,0)" gradientUnits="userSpaceOnUse"><stop offset=".123" style="stop-color:#689f38;stop-opacity:1"/><stop offset=".322" style="stop-color:#73a743;stop-opacity:1"/><stop offset=".668" style="stop-color:#8ebd60;stop-opacity:1"/><stop offset=".993" style="stop-color:#aed581;stop-opacity:1"/></linearGradient><mask id="mask5"><g filter="url(#alpha)"><rect width="16" height="16" x="0" y="0" style="fill:#000;fill-opacity:.2;stroke:none"/></g></mask><clipPath id="clip6"><rect width="16" height="16" x="0" y="0"/></clipPath><g id="surface20" clip-path="url(#clip6)"><path style="stroke:none;fill-rule:nonzero;fill:#424242;fill-opacity:1" d="M 11.289062 0.867188 C 11.386719 0.867188 11.4375 0.886719 11.453125 0.894531 C 11.484375 1 11.503906 1.378906 11.417969 2.015625 C 11.339844 2.597656 11.199219 3.195312 11.050781 3.566406 C 10.839844 4.109375 10.480469 4.582031 9.976562 4.976562 C 9.964844 4.964844 9.953125 4.953125 9.945312 4.9375 C 10.238281 4.636719 10.734375 4.078125 10.929688 3.570312 C 11.257812 2.722656 11.183594 1.03125 11.183594 1.015625 C 11.179688 0.953125 11.183594 0.90625 11.1875 0.871094 C 11.21875 0.867188 11.253906 0.867188 11.289062 0.867188 M 11.289062 0.492188 C 11.105469 0.492188 10.945312 0.539062 10.945312 0.539062 C 10.945312 0.539062 10.789062 0.601562 10.808594 1.035156 C 10.832031 1.464844 10.828125 2.789062 10.582031 3.433594 C 10.332031 4.078125 9.46875 4.882812 9.46875 4.882812 C 9.46875 4.882812 9.710938 5.390625 9.980469 5.390625 C 10.023438 5.390625 10.070312 5.375 10.113281 5.34375 C 10.429688 5.109375 11.054688 4.585938 11.402344 3.703125 C 11.746094 2.820312 11.988281 1.035156 11.773438 0.699219 C 11.667969 0.535156 11.46875 0.492188 11.289062 0.492188 Z M 11.289062 0.492188"/></g><linearGradient id="linear5" x1="33.204" x2="75.703" y1="30.887" y2="42.026" gradientTransform="matrix(0.125,0,0,0.125,0,0)" gradientUnits="userSpaceOnUse"><stop offset=".007" style="stop-color:#aed581;stop-opacity:1"/><stop offset=".332" style="stop-color:#8ebd60;stop-opacity:1"/><stop offset=".678" style="stop-color:#73a743;stop-opacity:1"/><stop offset=".876" style="stop-color:#689f38;stop-opacity:1"/></linearGradient><mask id="mask6"><g filter="url(#alpha)"><rect width="16" height="16" x="0" y="0" style="fill:#000;fill-opacity:.2;stroke:none"/></g></mask><clipPath id="clip7"><rect width="16" height="16" x="0" y="0"/></clipPath><g id="surface23" clip-path="url(#clip7)"><path style="stroke:none;fill-rule:nonzero;fill:#424242;fill-opacity:1" d="M 7.984375 3.597656 L 8.019531 3.597656 C 8.492188 3.605469 8.949219 3.820312 9.207031 4.15625 C 9.476562 4.5 9.527344 4.988281 9.339844 5.339844 C 9.117188 5.753906 8.570312 6.003906 7.871094 6.003906 C 7.773438 6.003906 7.675781 5.996094 7.578125 5.988281 C 7.199219 5.949219 6.808594 5.90625 6.453125 5.78125 C 6.125 5.664062 5.804688 5.425781 5.566406 5.230469 C 5.269531 4.992188 5.007812 4.71875 4.78125 4.417969 C 4.710938 4.328125 4.648438 4.234375 4.585938 4.140625 C 4.691406 4.160156 4.796875 4.175781 4.910156 4.1875 C 5.011719 4.195312 5.109375 4.199219 5.210938 4.199219 C 5.585938 4.199219 5.957031 4.144531 6.316406 4.039062 C 6.476562 3.992188 6.625 3.933594 6.765625 3.878906 C 6.898438 3.828125 7.023438 3.777344 7.148438 3.738281 C 7.382812 3.671875 7.683594 3.597656 7.984375 3.597656 M 7.984375 3.222656 C 7.667969 3.222656 7.351562 3.292969 7.046875 3.378906 C 6.761719 3.460938 6.5 3.597656 6.210938 3.679688 C 5.886719 3.773438 5.550781 3.820312 5.210938 3.820312 C 5.121094 3.820312 5.027344 3.816406 4.9375 3.8125 C 4.585938 3.785156 4.242188 3.664062 3.890625 3.632812 C 3.925781 3.636719 4.117188 4.089844 4.148438 4.144531 C 4.25 4.316406 4.359375 4.484375 4.480469 4.640625 C 4.726562 4.964844 5.011719 5.261719 5.328125 5.519531 C 5.628906 5.761719 5.964844 6.003906 6.328125 6.132812 C 6.71875 6.273438 7.132812 6.316406 7.542969 6.359375 C 7.648438 6.371094 7.761719 6.375 7.875 6.375 C 8.589844 6.375 9.339844 6.136719 9.671875 5.515625 C 9.9375 5.019531 9.851562 4.371094 9.503906 3.925781 C 9.160156 3.476562 8.589844 3.230469 8.027344 3.21875 C 8.015625 3.222656 8 3.222656 7.984375 3.222656 Z M 7.984375 3.222656"/></g><linearGradient id="linear6" x1="-215.59" x2="-168.08" y1="-61.211" y2="-61.211" gradientTransform="matrix(0.100112,0.0748375,-0.0748375,0.100112,26.14,27.94125)" gradientUnits="userSpaceOnUse"><stop offset=".123" style="stop-color:#689f38;stop-opacity:1"/><stop offset=".322" style="stop-color:#73a743;stop-opacity:1"/><stop offset=".668" style="stop-color:#8ebd60;stop-opacity:1"/><stop offset=".993" style="stop-color:#aed581;stop-opacity:1"/></linearGradient><mask id="mask7"><g filter="url(#alpha)"><rect width="16" height="16" x="0" y="0" style="fill:#000;fill-opacity:.2;stroke:none"/></g></mask><clipPath id="clip8"><rect width="16" height="16" x="0" y="0"/></clipPath><g id="surface26" clip-path="url(#clip8)"><path style="stroke:none;fill-rule:nonzero;fill:#424242;fill-opacity:1" d="M 10.535156 5.195312 C 10.636719 5.195312 10.738281 5.207031 10.832031 5.234375 C 11.242188 5.34375 11.613281 5.679688 11.804688 6.113281 C 11.929688 6.398438 11.980469 6.722656 12.011719 6.972656 C 12.023438 7.105469 12.027344 7.238281 12.03125 7.382812 C 12.03125 7.535156 12.035156 7.691406 12.054688 7.859375 C 12.109375 8.332031 12.246094 8.789062 12.460938 9.210938 C 12.515625 9.3125 12.570312 9.402344 12.628906 9.492188 C 12.515625 9.472656 12.40625 9.449219 12.300781 9.421875 C 11.933594 9.328125 11.578125 9.1875 11.246094 9.011719 C 10.972656 8.863281 10.628906 8.660156 10.394531 8.402344 C 10.140625 8.125 9.953125 7.777344 9.769531 7.445312 C 9.472656 6.898438 9.273438 6.082031 9.6875 5.570312 C 9.878906 5.335938 10.195312 5.195312 10.535156 5.195312 M 10.535156 4.820312 C 10.101562 4.820312 9.667969 5 9.394531 5.332031 C 8.886719 5.960938 9.054688 6.914062 9.441406 7.625 C 9.636719 7.984375 9.835938 8.347656 10.117188 8.65625 C 10.375 8.941406 10.730469 9.160156 11.070312 9.339844 C 11.429688 9.53125 11.8125 9.683594 12.207031 9.785156 C 12.398438 9.832031 12.597656 9.871094 12.792969 9.898438 C 12.859375 9.90625 13.347656 9.90625 13.363281 9.941406 C 13.203125 9.625 12.957031 9.355469 12.796875 9.042969 C 12.601562 8.660156 12.476562 8.242188 12.425781 7.816406 C 12.390625 7.519531 12.417969 7.226562 12.382812 6.929688 C 12.34375 6.601562 12.285156 6.269531 12.148438 5.964844 C 11.921875 5.449219 11.476562 5.015625 10.929688 4.871094 C 10.800781 4.835938 10.667969 4.820312 10.535156 4.820312 Z M 10.535156 4.820312"/></g></defs><g id="surface1"><path style="stroke:none;fill-rule:nonzero;fill:url(#radial0)" d="M 13.441406 9.957031 C 13.988281 7.871094 12.625 5.550781 10.351562 3.78125 C 8.808594 2.582031 7.234375 2.5625 6.375 2.527344 C 5.421875 2.488281 4.464844 2.78125 3.652344 3.390625 C 2.386719 4.351562 1.820312 5.878906 1.539062 8.742188 C 1.433594 9.8125 1.277344 10.914062 1.386719 11.96875 C 1.488281 12.945312 1.890625 13.78125 2.519531 14.46875 C 3.3125 15.328125 4.617188 15.640625 5.800781 15.441406 C 6.917969 15.25 7.972656 14.644531 8.988281 14.105469 L 9.292969 13.945312 C 11.835938 12.597656 13.035156 11.496094 13.441406 9.957031 Z M 13.441406 9.957031"/><use mask="url(#mask0)" xlink:href="#surface5"/><path style="stroke:none;fill-rule:nonzero;fill:#603813;fill-opacity:1" d="M 4.011719 5.464844 C 3.90625 5.378906 3.703125 5.453125 3.554688 5.632812 C 3.40625 5.808594 3.371094 6.023438 3.476562 6.113281 C 3.582031 6.199219 3.789062 6.125 3.933594 5.945312 C 4.082031 5.765625 4.117188 5.550781 4.011719 5.464844 Z M 4.011719 5.464844"/><path style="stroke:none;fill-rule:nonzero;fill:#603813;fill-opacity:1" d="M 5.851562 6.285156 C 5.714844 6.277344 5.597656 6.460938 5.585938 6.691406 C 5.574219 6.921875 5.675781 7.117188 5.8125 7.121094 C 5.949219 7.128906 6.066406 6.945312 6.078125 6.714844 C 6.089844 6.484375 5.988281 6.289062 5.851562 6.285156 Z M 5.851562 6.285156"/><path style="stroke:none;fill-rule:nonzero;fill:#603813;fill-opacity:1" d="M 8.972656 7.453125 C 8.851562 7.394531 8.667969 7.511719 8.566406 7.71875 C 8.460938 7.925781 8.476562 8.144531 8.597656 8.207031 C 8.71875 8.265625 8.902344 8.148438 9.007812 7.9375 C 9.109375 7.730469 9.09375 7.515625 8.972656 7.453125 Z M 8.972656 7.453125"/><path style="stroke:none;fill-rule:nonzero;fill:#603813;fill-opacity:1" d="M 4.882812 7.703125 C 4.75 7.6875 4.617188 7.863281 4.59375 8.09375 C 4.570312 8.324219 4.65625 8.523438 4.792969 8.539062 C 4.929688 8.554688 5.058594 8.378906 5.082031 8.148438 C 5.109375 7.917969 5.019531 7.71875 4.882812 7.703125 Z M 4.882812 7.703125"/><path style="stroke:none;fill-rule:nonzero;fill:#603813;fill-opacity:1" d="M 2.988281 8.410156 C 2.855469 8.398438 2.726562 8.574219 2.703125 8.804688 C 2.679688 9.035156 2.773438 9.234375 2.90625 9.246094 C 3.042969 9.261719 3.171875 9.085938 3.195312 8.855469 C 3.214844 8.621094 3.125 8.425781 2.988281 8.410156 Z M 2.988281 8.410156"/><path style="stroke:none;fill-rule:nonzero;fill:#603813;fill-opacity:1" d="M 4.636719 10.109375 C 4.515625 10.046875 4.332031 10.167969 4.230469 10.375 C 4.125 10.582031 4.140625 10.800781 4.261719 10.859375 C 4.386719 10.921875 4.566406 10.800781 4.671875 10.59375 C 4.773438 10.386719 4.757812 10.167969 4.636719 10.109375 Z M 4.636719 10.109375"/><path style="stroke:none;fill-rule:nonzero;fill:#603813;fill-opacity:1" d="M 6.519531 11.476562 C 6.398438 11.414062 6.214844 11.535156 6.109375 11.742188 C 6.007812 11.949219 6.023438 12.167969 6.144531 12.226562 C 6.265625 12.289062 6.449219 12.167969 6.550781 11.960938 C 6.65625 11.753906 6.640625 11.535156 6.519531 11.476562 Z M 6.519531 11.476562"/><path style="stroke:none;fill-rule:nonzero;fill:#603813;fill-opacity:1" d="M 8.230469 13.023438 C 8.171875 12.902344 7.953125 12.886719 7.746094 12.988281 C 7.535156 13.089844 7.417969 13.273438 7.476562 13.394531 C 7.535156 13.515625 7.753906 13.53125 7.960938 13.429688 C 8.171875 13.328125 8.289062 13.148438 8.230469 13.023438 Z M 8.230469 13.023438"/><path style="stroke:none;fill-rule:nonzero;fill:#603813;fill-opacity:1" d="M 8.59375 11.441406 C 8.535156 11.316406 8.316406 11.300781 8.109375 11.402344 C 7.902344 11.507812 7.78125 11.6875 7.839844 11.808594 C 7.902344 11.933594 8.117188 11.949219 8.328125 11.847656 C 8.535156 11.742188 8.65625 11.5625 8.59375 11.441406 Z M 8.59375 11.441406"/><path style="stroke:none;fill-rule:nonzero;fill:#603813;fill-opacity:1" d="M 4.117188 13.183594 C 4.03125 12.96875 3.859375 12.835938 3.730469 12.886719 C 3.605469 12.9375 3.574219 13.152344 3.660156 13.367188 C 3.746094 13.582031 3.917969 13.714844 4.042969 13.664062 C 4.171875 13.613281 4.203125 13.398438 4.117188 13.183594 Z M 4.117188 13.183594"/><path style="stroke:none;fill-rule:nonzero;fill:#603813;fill-opacity:1" d="M 5.832031 13.523438 C 5.761719 13.40625 5.546875 13.402344 5.34375 13.519531 C 5.144531 13.636719 5.035156 13.824219 5.101562 13.941406 C 5.171875 14.058594 5.390625 14.0625 5.589844 13.945312 C 5.792969 13.828125 5.898438 13.640625 5.832031 13.523438 Z M 5.832031 13.523438"/><path style="stroke:none;fill-rule:nonzero;fill:#603813;fill-opacity:1" d="M 3.089844 11.042969 C 3.027344 10.820312 2.871094 10.667969 2.738281 10.707031 C 2.609375 10.742188 2.554688 10.953125 2.613281 11.175781 C 2.675781 11.398438 2.832031 11.550781 2.964844 11.515625 C 3.09375 11.476562 3.152344 11.269531 3.089844 11.042969 Z M 3.089844 11.042969"/><path style="stroke:none;fill-rule:nonzero;fill:#603813;fill-opacity:1" d="M 6.683594 8.976562 C 6.5625 8.917969 6.378906 9.035156 6.277344 9.242188 C 6.171875 9.449219 6.1875 9.667969 6.308594 9.730469 C 6.433594 9.789062 6.613281 9.671875 6.71875 9.460938 C 6.820312 9.253906 6.804688 9.039062 6.683594 8.976562 Z M 6.683594 8.976562"/><path style="stroke:none;fill-rule:nonzero;fill:#603813;fill-opacity:1" d="M 8.441406 9.378906 C 8.347656 9.285156 8.136719 9.339844 7.972656 9.503906 C 7.808594 9.667969 7.753906 9.878906 7.847656 9.972656 C 7.945312 10.070312 8.15625 10.015625 8.320312 9.851562 C 8.484375 9.6875 8.539062 9.476562 8.441406 9.378906 Z M 8.441406 9.378906"/><path style="stroke:none;fill-rule:nonzero;fill:#603813;fill-opacity:1" d="M 10.027344 10.613281 C 9.902344 10.558594 9.722656 10.679688 9.625 10.890625 C 9.527344 11.101562 9.546875 11.320312 9.671875 11.375 C 9.792969 11.433594 9.972656 11.308594 10.070312 11.097656 C 10.167969 10.886719 10.148438 10.671875 10.027344 10.613281 Z M 10.027344 10.613281"/><path style="stroke:none;fill-rule:nonzero;fill:#603813;fill-opacity:1" d="M 11.292969 9.238281 C 11.183594 9.160156 10.984375 9.246094 10.847656 9.433594 C 10.710938 9.621094 10.6875 9.835938 10.800781 9.917969 C 10.910156 9.996094 11.109375 9.910156 11.246094 9.722656 C 11.382812 9.535156 11.402344 9.320312 11.292969 9.238281 Z M 11.292969 9.238281"/><path style="stroke:none;fill-rule:nonzero;fill:#fffde7;fill-opacity:1" d="M 11.195312 9.332031 C 11.109375 9.285156 10.972656 9.367188 10.894531 9.515625 C 10.820312 9.660156 10.824219 9.816406 10.914062 9.863281 C 11 9.910156 11.132812 9.828125 11.210938 9.679688 C 11.289062 9.535156 11.28125 9.378906 11.195312 9.332031 Z M 11.195312 9.332031"/><path style="stroke:none;fill-rule:nonzero;fill:#fffde7;fill-opacity:1" d="M 9.96875 10.667969 C 9.882812 10.621094 9.75 10.703125 9.671875 10.851562 C 9.59375 11 9.601562 11.15625 9.6875 11.199219 C 9.773438 11.246094 9.910156 11.164062 9.984375 11.019531 C 10.0625 10.871094 10.058594 10.714844 9.96875 10.667969 Z M 9.96875 10.667969"/><path style="stroke:none;fill-rule:nonzero;fill:url(#linear0)" d="M 11.972656 6.238281 C 11.34375 6.574219 10.511719 6.714844 9.964844 6.261719 C 9.582031 5.949219 9.4375 5.390625 9.570312 4.914062 C 9.703125 4.4375 10.082031 4.046875 10.535156 3.851562 C 10.804688 3.734375 11.09375 3.683594 11.386719 3.652344 C 11.644531 3.625 11.902344 3.648438 12.160156 3.621094 C 12.535156 3.582031 12.902344 3.476562 13.238281 3.304688 C 13.515625 3.167969 13.753906 2.953125 14.03125 2.8125 C 14.003906 2.828125 14 3.257812 13.992188 3.3125 C 13.964844 3.488281 13.929688 3.660156 13.886719 3.828125 C 13.792969 4.171875 13.660156 4.507812 13.488281 4.820312 C 13.328125 5.117188 13.132812 5.425781 12.878906 5.652344 C 12.609375 5.898438 12.289062 6.070312 11.972656 6.238281 Z M 11.972656 6.238281"/><use mask="url(#mask1)" xlink:href="#surface8"/><path style="stroke:none;fill-rule:nonzero;fill:url(#linear1)" d="M 8.65625 3.933594 C 8.75 4.53125 9.078125 5.167969 9.667969 5.304688 C 10.078125 5.402344 10.527344 5.214844 10.78125 4.882812 C 11.039062 4.546875 11.105469 4.09375 11.007812 3.683594 C 10.945312 3.441406 10.832031 3.222656 10.703125 3.007812 C 10.589844 2.820312 10.445312 2.65625 10.328125 2.464844 C 10.164062 2.191406 10.050781 1.890625 9.992188 1.574219 C 9.945312 1.316406 9.964844 1.046875 9.917969 0.785156 C 9.921875 0.8125 9.636719 1.035156 9.601562 1.070312 C 9.496094 1.175781 9.398438 1.289062 9.304688 1.402344 C 9.117188 1.640625 8.960938 1.90625 8.835938 2.183594 C 8.71875 2.445312 8.609375 2.734375 8.585938 3.019531 C 8.558594 3.324219 8.609375 3.632812 8.65625 3.933594 Z M 8.65625 3.933594"/><use mask="url(#mask2)" xlink:href="#surface11"/><path style="stroke:none;fill-rule:nonzero;fill:url(#linear2)" d="M 9.179688 2.75 C 9.640625 3.226562 9.980469 3.9375 9.71875 4.542969 C 9.535156 4.964844 9.074219 5.238281 8.613281 5.242188 C 8.152344 5.25 7.703125 5.011719 7.414062 4.652344 C 7.238281 4.441406 7.121094 4.195312 7.015625 3.945312 C 6.925781 3.71875 6.878906 3.484375 6.789062 3.257812 C 6.65625 2.933594 6.464844 2.632812 6.226562 2.375 C 6.03125 2.160156 5.78125 2.003906 5.582031 1.792969 C 5.601562 1.8125 5.988281 1.707031 6.042969 1.699219 C 6.203125 1.675781 6.363281 1.664062 6.527344 1.660156 C 6.863281 1.652344 7.195312 1.6875 7.519531 1.761719 C 7.828125 1.828125 8.15625 1.921875 8.421875 2.089844 C 8.707031 2.265625 8.945312 2.511719 9.179688 2.75 Z M 9.179688 2.75"/><use mask="url(#mask3)" xlink:href="#surface14"/><path style="stroke:none;fill-rule:nonzero;fill:url(#linear3)" d="M 11.527344 7.304688 C 10.84375 7.082031 10.160156 6.574219 10.109375 5.855469 C 10.070312 5.359375 10.375 4.863281 10.816406 4.628906 C 11.253906 4.390625 11.804688 4.394531 12.265625 4.589844 C 12.535156 4.703125 12.773438 4.882812 13 5.070312 C 13.203125 5.238281 13.363281 5.445312 13.566406 5.613281 C 13.859375 5.859375 14.191406 6.054688 14.550781 6.179688 C 14.847656 6.285156 15.167969 6.3125 15.464844 6.414062 C 15.433594 6.40625 15.117188 6.703125 15.070312 6.734375 C 14.925781 6.839844 14.777344 6.933594 14.621094 7.019531 C 14.304688 7.195312 13.96875 7.328125 13.621094 7.421875 C 13.292969 7.511719 12.929688 7.585938 12.589844 7.5625 C 12.222656 7.53125 11.875 7.417969 11.527344 7.304688 Z M 11.527344 7.304688"/><use mask="url(#mask4)" xlink:href="#surface17"/><path style="stroke:none;fill-rule:nonzero;fill:url(#linear4)" d="M 10.945312 0.539062 C 10.945312 0.539062 11.558594 0.359375 11.773438 0.699219 C 11.988281 1.035156 11.746094 2.820312 11.402344 3.703125 C 11.054688 4.585938 10.429688 5.109375 10.113281 5.34375 C 9.800781 5.578125 9.46875 4.882812 9.46875 4.882812 C 9.46875 4.882812 10.332031 4.078125 10.582031 3.433594 C 10.828125 2.792969 10.832031 1.464844 10.808594 1.035156 C 10.789062 0.601562 10.945312 0.539062 10.945312 0.539062 Z M 10.945312 0.539062"/><use mask="url(#mask5)" xlink:href="#surface20"/><path style="stroke:none;fill-rule:nonzero;fill:url(#linear5)" d="M 7.539062 6.359375 C 8.347656 6.445312 9.289062 6.234375 9.671875 5.519531 C 9.9375 5.023438 9.847656 4.375 9.503906 3.925781 C 9.160156 3.480469 8.589844 3.234375 8.027344 3.222656 C 7.691406 3.214844 7.363281 3.289062 7.046875 3.378906 C 6.761719 3.460938 6.496094 3.597656 6.210938 3.679688 C 5.796875 3.800781 5.363281 3.84375 4.9375 3.8125 C 4.585938 3.785156 4.242188 3.664062 3.890625 3.636719 C 3.925781 3.636719 4.113281 4.089844 4.148438 4.144531 C 4.246094 4.316406 4.359375 4.484375 4.480469 4.640625 C 4.726562 4.96875 5.011719 5.265625 5.328125 5.519531 C 5.628906 5.761719 5.964844 6.003906 6.328125 6.136719 C 6.71875 6.273438 7.132812 6.320312 7.539062 6.359375 Z M 7.539062 6.359375"/><use mask="url(#mask6)" xlink:href="#surface23"/><path style="stroke:none;fill-rule:nonzero;fill:url(#linear6)" d="M 9.441406 7.625 C 9.054688 6.910156 8.886719 5.960938 9.394531 5.332031 C 9.753906 4.894531 10.382812 4.726562 10.929688 4.871094 C 11.476562 5.015625 11.921875 5.449219 12.148438 5.964844 C 12.285156 6.269531 12.34375 6.601562 12.382812 6.929688 C 12.417969 7.222656 12.390625 7.519531 12.425781 7.816406 C 12.476562 8.242188 12.601562 8.660156 12.796875 9.042969 C 12.957031 9.355469 13.203125 9.625 13.363281 9.941406 C 13.347656 9.910156 12.859375 9.90625 12.792969 9.898438 C 12.597656 9.871094 12.398438 9.832031 12.207031 9.785156 C 11.8125 9.683594 11.429688 9.53125 11.070312 9.339844 C 10.730469 9.160156 10.375 8.941406 10.117188 8.65625 C 9.835938 8.347656 9.636719 7.984375 9.441406 7.625 Z M 9.441406 7.625"/><use mask="url(#mask7)" xlink:href="#surface26"/><path style="stroke:none;fill-rule:nonzero;fill:#fffde7;fill-opacity:1" d="M 3.890625 5.507812 C 3.816406 5.445312 3.667969 5.496094 3.5625 5.625 C 3.457031 5.753906 3.433594 5.910156 3.507812 5.972656 C 3.582031 6.035156 3.730469 5.980469 3.835938 5.851562 C 3.941406 5.722656 3.96875 5.570312 3.890625 5.507812 Z M 3.890625 5.507812"/><path style="stroke:none;fill-rule:nonzero;fill:#fffde7;fill-opacity:1" d="M 2.96875 8.515625 C 2.878906 8.5 2.789062 8.613281 2.765625 8.765625 C 2.742188 8.917969 2.796875 9.050781 2.886719 9.066406 C 2.976562 9.078125 3.066406 8.964844 3.089844 8.8125 C 3.113281 8.660156 3.058594 8.527344 2.96875 8.515625 Z M 2.96875 8.515625"/><path style="stroke:none;fill-rule:nonzero;fill:#fffde7;fill-opacity:1" d="M 6.003906 6.648438 C 6.003906 6.484375 5.925781 6.347656 5.828125 6.347656 C 5.726562 6.347656 5.648438 6.484375 5.648438 6.648438 C 5.648438 6.816406 5.726562 6.953125 5.828125 6.953125 C 5.925781 6.953125 6.003906 6.816406 6.003906 6.648438 Z M 6.003906 6.648438"/><path style="stroke:none;fill-rule:nonzero;fill:#fffde7;fill-opacity:1" d="M 4.867188 7.8125 C 4.777344 7.796875 4.679688 7.90625 4.652344 8.058594 C 4.625 8.214844 4.671875 8.351562 4.765625 8.367188 C 4.855469 8.386719 4.949219 8.273438 4.980469 8.121094 C 5.007812 7.96875 4.957031 7.828125 4.867188 7.8125 Z M 4.867188 7.8125"/><path style="stroke:none;fill-rule:nonzero;fill:#fffde7;fill-opacity:1" d="M 4.554688 10.203125 C 4.464844 10.167969 4.339844 10.265625 4.277344 10.417969 C 4.21875 10.574219 4.242188 10.726562 4.332031 10.765625 C 4.425781 10.800781 4.546875 10.703125 4.609375 10.546875 C 4.671875 10.394531 4.644531 10.238281 4.554688 10.203125 Z M 4.554688 10.203125"/><path style="stroke:none;fill-rule:nonzero;fill:#fffde7;fill-opacity:1" d="M 6.605469 9.054688 C 6.515625 9.019531 6.390625 9.113281 6.332031 9.269531 C 6.269531 9.421875 6.292969 9.578125 6.386719 9.613281 C 6.476562 9.648438 6.601562 9.554688 6.660156 9.398438 C 6.722656 9.242188 6.695312 9.089844 6.605469 9.054688 Z M 6.605469 9.054688"/><path style="stroke:none;fill-rule:nonzero;fill:#fffde7;fill-opacity:1" d="M 6.425781 11.582031 C 6.335938 11.546875 6.210938 11.640625 6.152344 11.796875 C 6.089844 11.949219 6.113281 12.105469 6.207031 12.140625 C 6.296875 12.175781 6.417969 12.082031 6.480469 11.925781 C 6.542969 11.769531 6.515625 11.617188 6.425781 11.582031 Z M 6.425781 11.582031"/><path style="stroke:none;fill-rule:nonzero;fill:#fffde7;fill-opacity:1" d="M 5.679688 13.542969 C 5.617188 13.464844 5.464844 13.488281 5.335938 13.59375 C 5.207031 13.699219 5.152344 13.847656 5.210938 13.921875 C 5.273438 14 5.429688 13.976562 5.558594 13.871094 C 5.6875 13.765625 5.742188 13.617188 5.679688 13.542969 Z M 5.679688 13.542969"/><path style="stroke:none;fill-rule:nonzero;fill:#fffde7;fill-opacity:1" d="M 8.070312 13.011719 C 8.007812 12.933594 7.851562 12.957031 7.722656 13.0625 C 7.59375 13.167969 7.539062 13.3125 7.601562 13.390625 C 7.664062 13.464844 7.816406 13.441406 7.949219 13.335938 C 8.078125 13.234375 8.132812 13.085938 8.070312 13.011719 Z M 8.070312 13.011719"/><path style="stroke:none;fill-rule:nonzero;fill:#fffde7;fill-opacity:1" d="M 8.457031 11.441406 C 8.40625 11.355469 8.25 11.355469 8.105469 11.4375 C 7.960938 11.519531 7.886719 11.65625 7.933594 11.742188 C 7.984375 11.828125 8.140625 11.828125 8.285156 11.746094 C 8.429688 11.660156 8.503906 11.523438 8.457031 11.441406 Z M 8.457031 11.441406"/><path style="stroke:none;fill-rule:nonzero;fill:#fffde7;fill-opacity:1" d="M 8.359375 9.425781 C 8.289062 9.355469 8.136719 9.394531 8.019531 9.511719 C 7.902344 9.628906 7.863281 9.78125 7.933594 9.851562 C 8.003906 9.921875 8.152344 9.882812 8.269531 9.761719 C 8.390625 9.644531 8.429688 9.492188 8.359375 9.425781 Z M 8.359375 9.425781"/><path style="stroke:none;fill-rule:nonzero;fill:#fffde7;fill-opacity:1" d="M 8.910156 7.53125 C 8.824219 7.488281 8.691406 7.570312 8.613281 7.714844 C 8.535156 7.863281 8.542969 8.019531 8.628906 8.066406 C 8.714844 8.113281 8.847656 8.03125 8.925781 7.882812 C 9.003906 7.734375 8.996094 7.578125 8.910156 7.53125 Z M 8.910156 7.53125"/><path style="stroke:none;fill-rule:nonzero;fill:#fffde7;fill-opacity:1" d="M 4.027344 13.242188 C 3.988281 13.078125 3.878906 12.964844 3.78125 12.988281 C 3.6875 13.011719 3.640625 13.164062 3.683594 13.324219 C 3.722656 13.488281 3.832031 13.597656 3.925781 13.574219 C 4.019531 13.550781 4.066406 13.402344 4.027344 13.242188 Z M 4.027344 13.242188"/><path style="stroke:none;fill-rule:nonzero;fill:#fffde7;fill-opacity:1" d="M 3.003906 10.972656 C 2.949219 10.828125 2.835938 10.734375 2.75 10.769531 C 2.664062 10.800781 2.636719 10.941406 2.691406 11.089844 C 2.746094 11.234375 2.859375 11.328125 2.945312 11.296875 C 3.03125 11.265625 3.054688 11.121094 3.003906 10.972656 Z M 3.003906 10.972656"/></g></svg>