<svg xmlns="http://www.w3.org/2000/svg" xmlns:xlink="http://www.w3.org/1999/xlink" width="16pt" height="16pt" version="1.1" viewBox="0 0 16 16"><defs><linearGradient id="linear0" x1="64" x2="64" y1="19.742" y2="107.73" gradientTransform="matrix(0.125,0,0,0.125,0,0)" gradientUnits="userSpaceOnUse"><stop offset=".5" style="stop-color:#fee133;stop-opacity:1"/><stop offset=".612" style="stop-color:#fede32;stop-opacity:1"/><stop offset=".708" style="stop-color:#fcd32f;stop-opacity:1"/><stop offset=".797" style="stop-color:#fac12b;stop-opacity:1"/><stop offset=".883" style="stop-color:#f7a924;stop-opacity:1"/><stop offset=".9" style="stop-color:#f6a323;stop-opacity:1"/></linearGradient></defs><g id="surface1"><path style="stroke:none;fill-rule:nonzero;fill:url(#linear0)" d="M 8 14.988281 C 4.507812 14.988281 0.75 12.804688 0.75 8.003906 C 0.75 3.203125 4.507812 1.015625 8 1.015625 C 9.933594 1.015625 11.726562 1.65625 13.046875 2.820312 C 14.488281 4.09375 15.25 5.886719 15.25 8.003906 C 15.25 10.109375 14.488281 11.898438 13.046875 13.175781 C 11.722656 14.347656 9.929688 14.988281 8 14.988281 Z M 8 14.988281"/><path style="stroke:none;fill-rule:nonzero;fill:#eb8f00;fill-opacity:1" d="M 8 1.265625 C 9.875 1.265625 11.609375 1.886719 12.878906 3.007812 C 14.265625 4.234375 15 5.957031 15 8.003906 C 15 10.035156 14.265625 11.761719 12.878906 12.988281 C 11.601562 14.117188 9.871094 14.738281 8 14.738281 C 6.121094 14.738281 4.386719 14.125 3.121094 13.011719 C 1.734375 11.792969 1 10.0625 1 8.003906 C 1 5.9375 1.734375 4.203125 3.121094 2.984375 C 4.382812 1.875 6.117188 1.265625 8 1.265625 M 8 0.765625 C 4.105469 0.765625 0.5 3.265625 0.5 8.003906 C 0.5 12.710938 4.105469 15.238281 8 15.238281 C 11.894531 15.238281 15.5 12.648438 15.5 8.003906 C 15.5 3.332031 11.894531 0.765625 8 0.765625 Z M 8 0.765625"/><path style="stroke:none;fill-rule:nonzero;fill:#242424;fill-opacity:1" d="M 6.957031 12.914062 C 6.648438 12.914062 6.359375 12.738281 6.207031 12.457031 C 6.058594 12.175781 6.074219 11.847656 6.25 11.578125 C 6.640625 10.980469 7.246094 10.664062 8 10.664062 C 8.753906 10.664062 9.359375 10.980469 9.75 11.578125 C 9.929688 11.847656 9.945312 12.175781 9.792969 12.457031 C 9.640625 12.738281 9.351562 12.914062 9.042969 12.914062 C 8.945312 12.914062 8.847656 12.898438 8.753906 12.863281 C 8.507812 12.777344 8.253906 12.734375 8 12.734375 C 7.746094 12.734375 7.492188 12.777344 7.246094 12.863281 C 7.152344 12.898438 7.054688 12.914062 6.957031 12.914062 Z M 6.957031 12.914062"/><path style="stroke:none;fill-rule:nonzero;fill:#eb8f00;fill-opacity:1" d="M 9.894531 3.902344 C 9.890625 3.902344 9.886719 3.898438 9.878906 3.898438 C 9.617188 3.8125 9.664062 3.414062 9.964844 3.449219 C 10.203125 3.480469 10.441406 3.546875 10.671875 3.65625 C 11.300781 3.945312 11.773438 4.472656 11.992188 5.042969 C 12.101562 5.328125 11.71875 5.46875 11.578125 5.234375 C 11.203125 4.640625 10.609375 4.148438 9.894531 3.902344 Z M 9.894531 3.902344"/><path style="stroke:none;fill-rule:nonzero;fill:#eb8f00;fill-opacity:1" d="M 6.105469 3.902344 C 6.109375 3.902344 6.113281 3.898438 6.121094 3.898438 C 6.382812 3.8125 6.335938 3.414062 6.035156 3.449219 C 5.796875 3.480469 5.558594 3.546875 5.328125 3.65625 C 4.699219 3.945312 4.226562 4.472656 4.007812 5.042969 C 3.898438 5.328125 4.28125 5.46875 4.421875 5.234375 C 4.796875 4.640625 5.390625 4.148438 6.105469 3.902344 Z M 6.105469 3.902344"/><path style="stroke:none;fill-rule:nonzero;fill:#5f7aff;fill-opacity:1" d="M 13.269531 13.058594 C 12.171875 13.058594 11.621094 12.234375 11.085938 11.433594 C 10.609375 10.71875 10.113281 9.984375 9.246094 9.953125 C 9.902344 9.398438 10.640625 9.023438 11.242188 8.945312 C 11.507812 8.910156 11.765625 8.890625 12.011719 8.890625 C 12.945312 8.890625 13.742188 9.144531 14.320312 9.621094 C 14.808594 10.023438 15.113281 10.566406 15.175781 11.148438 C 15.253906 11.847656 14.957031 12.75 13.867188 12.988281 C 13.65625 13.039062 13.453125 13.058594 13.269531 13.058594 Z M 13.269531 13.058594"/><path style="stroke:none;fill-rule:nonzero;fill:#4864ed;fill-opacity:1" d="M 12.011719 9.144531 C 13.871094 9.144531 14.816406 10.164062 14.925781 11.175781 C 14.992188 11.773438 14.738281 12.542969 13.8125 12.746094 C 13.621094 12.789062 13.4375 12.8125 13.269531 12.8125 C 12.371094 12.8125 11.921875 12.238281 11.292969 11.296875 C 10.90625 10.71875 10.480469 10.082031 9.828125 9.824219 C 10.328125 9.480469 10.84375 9.25 11.273438 9.195312 C 11.527344 9.160156 11.773438 9.144531 12.011719 9.144531 M 12.011719 8.644531 C 11.757812 8.644531 11.488281 8.660156 11.207031 8.699219 C 10.417969 8.800781 9.582031 9.324219 8.988281 9.847656 C 8.847656 9.972656 8.90625 10.210938 9.085938 10.210938 L 9.101562 10.210938 C 9.136719 10.207031 9.167969 10.207031 9.199219 10.207031 C 10.859375 10.207031 10.988281 13.3125 13.269531 13.3125 C 13.46875 13.3125 13.6875 13.289062 13.921875 13.234375 C 16.417969 12.683594 15.859375 8.644531 12.011719 8.644531 Z M 12.011719 8.644531"/><path style="stroke:none;fill-rule:nonzero;fill:#242424;fill-opacity:1" d="M 6.203125 6.835938 L 6.175781 6.863281 C 6.164062 6.875 6.132812 6.910156 6.113281 6.925781 C 6.089844 6.945312 6.058594 6.96875 6.027344 6.996094 C 5.988281 7.023438 5.949219 7.054688 5.902344 7.085938 C 5.859375 7.113281 5.808594 7.144531 5.753906 7.171875 C 5.703125 7.199219 5.640625 7.21875 5.582031 7.242188 C 5.523438 7.261719 5.457031 7.273438 5.394531 7.289062 C 5.332031 7.296875 5.265625 7.300781 5.199219 7.300781 L 5.214844 7.300781 L 5.140625 7.300781 C 5.105469 7.300781 5.101562 7.296875 5.089844 7.296875 C 5.070312 7.296875 5.03125 7.292969 5 7.285156 C 4.9375 7.273438 4.875 7.261719 4.8125 7.238281 C 4.753906 7.21875 4.695312 7.199219 4.640625 7.167969 C 4.585938 7.140625 4.539062 7.113281 4.492188 7.082031 C 4.402344 7.023438 4.328125 6.964844 4.277344 6.917969 C 4.230469 6.875 4.199219 6.847656 4.199219 6.847656 L 4.167969 6.816406 C 4.015625 6.667969 3.761719 6.660156 3.597656 6.792969 C 3.46875 6.898438 3.433594 7.0625 3.5 7.199219 L 3.519531 7.238281 C 3.53125 7.261719 3.546875 7.296875 3.574219 7.34375 C 3.625 7.429688 3.710938 7.554688 3.84375 7.6875 C 3.914062 7.753906 3.992188 7.820312 4.082031 7.882812 C 4.175781 7.949219 4.28125 8.007812 4.398438 8.058594 C 4.515625 8.109375 4.644531 8.152344 4.777344 8.179688 C 4.847656 8.191406 4.910156 8.203125 4.996094 8.210938 C 5.035156 8.214844 5.078125 8.21875 5.101562 8.222656 L 5.195312 8.226562 C 5.335938 8.222656 5.476562 8.207031 5.613281 8.179688 C 5.75 8.152344 5.875 8.109375 5.992188 8.058594 C 6.109375 8.007812 6.21875 7.949219 6.308594 7.886719 C 6.402344 7.824219 6.480469 7.753906 6.546875 7.6875 C 6.617188 7.625 6.671875 7.558594 6.714844 7.5 C 6.734375 7.46875 6.757812 7.441406 6.773438 7.417969 C 6.792969 7.386719 6.808594 7.359375 6.824219 7.335938 C 6.859375 7.285156 6.859375 7.265625 6.875 7.242188 C 6.882812 7.222656 6.886719 7.210938 6.886719 7.210938 C 6.972656 7.023438 6.871094 6.8125 6.660156 6.738281 C 6.496094 6.679688 6.3125 6.722656 6.203125 6.835938 Z M 6.203125 6.835938"/><path style="stroke:none;fill-rule:nonzero;fill:#242424;fill-opacity:1" d="M 11.8125 6.835938 L 11.789062 6.863281 C 11.773438 6.875 11.742188 6.910156 11.726562 6.925781 C 11.703125 6.945312 11.671875 6.96875 11.640625 6.996094 C 11.601562 7.023438 11.5625 7.054688 11.515625 7.085938 C 11.46875 7.113281 11.421875 7.144531 11.367188 7.171875 C 11.3125 7.199219 11.253906 7.21875 11.195312 7.242188 C 11.132812 7.261719 11.070312 7.273438 11.007812 7.289062 C 10.941406 7.296875 10.875 7.300781 10.808594 7.300781 L 10.828125 7.300781 L 10.75 7.300781 C 10.71875 7.300781 10.710938 7.296875 10.699219 7.296875 C 10.679688 7.296875 10.644531 7.292969 10.613281 7.285156 C 10.546875 7.273438 10.484375 7.261719 10.425781 7.238281 C 10.367188 7.21875 10.304688 7.199219 10.253906 7.167969 C 10.199219 7.140625 10.148438 7.113281 10.105469 7.082031 C 10.015625 7.023438 9.941406 6.964844 9.890625 6.917969 C 9.839844 6.875 9.8125 6.847656 9.8125 6.847656 L 9.78125 6.816406 C 9.628906 6.667969 9.375 6.660156 9.210938 6.792969 C 9.078125 6.898438 9.046875 7.0625 9.113281 7.199219 L 9.132812 7.238281 C 9.144531 7.261719 9.160156 7.296875 9.1875 7.34375 C 9.238281 7.429688 9.324219 7.554688 9.457031 7.6875 C 9.523438 7.753906 9.605469 7.820312 9.699219 7.882812 C 9.789062 7.949219 9.894531 8.007812 10.011719 8.058594 C 10.128906 8.109375 10.257812 8.152344 10.390625 8.179688 C 10.460938 8.191406 10.523438 8.203125 10.609375 8.210938 C 10.648438 8.214844 10.695312 8.21875 10.714844 8.222656 L 10.808594 8.226562 C 10.953125 8.222656 11.089844 8.207031 11.226562 8.179688 C 11.363281 8.152344 11.488281 8.109375 11.609375 8.058594 C 11.722656 8.007812 11.832031 7.949219 11.921875 7.886719 C 12.015625 7.824219 12.09375 7.753906 12.160156 7.6875 C 12.230469 7.625 12.28125 7.558594 12.328125 7.5 C 12.347656 7.46875 12.367188 7.441406 12.386719 7.417969 C 12.40625 7.386719 12.421875 7.359375 12.4375 7.335938 C 12.46875 7.285156 12.472656 7.265625 12.484375 7.242188 C 12.492188 7.222656 12.5 7.210938 12.5 7.210938 C 12.582031 7.023438 12.480469 6.8125 12.273438 6.738281 C 12.109375 6.679688 11.925781 6.722656 11.8125 6.835938 Z M 11.8125 6.835938"/></g></svg>