<svg xmlns="http://www.w3.org/2000/svg" xmlns:xlink="http://www.w3.org/1999/xlink" width="16pt" height="16pt" version="1.1" viewBox="0 0 16 16"><defs><radialGradient id="radial0" cx="51.77" cy="3.401" r="87.039" fx="51.77" fy="3.401" gradientTransform="matrix(-0.000272612,-0.125,-0.0984125,0.000214625,6.82,18.545)" gradientUnits="userSpaceOnUse"><stop offset=".6" style="stop-color:#f9ddbd;stop-opacity:1"/><stop offset="1" style="stop-color:#edc391;stop-opacity:1"/></radialGradient><radialGradient id="radial1" cx="1974.3" cy="-927.55" r="20.331" fx="1974.3" fy="-927.55" gradientTransform="matrix(-0.173537,-0.009925,-0.004675,0.084925,351.15,107.03)" gradientUnits="userSpaceOnUse"><stop offset=".5" style="stop-color:#f9ddbd;stop-opacity:1"/><stop offset="1" style="stop-color:#edc391;stop-opacity:1"/></radialGradient><radialGradient id="radial2" cx="2027.8" cy="-1036.9" r="18.753" fx="2027.8" fy="-1036.9" gradientTransform="matrix(-0.212087,0.000235625,0.00036415,0.08505,443.875,93.95)" gradientUnits="userSpaceOnUse"><stop offset=".5" style="stop-color:#f9ddbd;stop-opacity:1"/><stop offset="1" style="stop-color:#edc391;stop-opacity:1"/></radialGradient><radialGradient id="radial3" cx="2069.3" cy="-964.73" r="20.446" fx="2069.3" fy="-964.73" gradientTransform="matrix(-0.163363,0.000782438,0.000565188,0.08505,351.25,82.36)" gradientUnits="userSpaceOnUse"><stop offset=".5" style="stop-color:#f9ddbd;stop-opacity:1"/><stop offset="1" style="stop-color:#edc391;stop-opacity:1"/></radialGradient><radialGradient id="radial4" cx="2048.8" cy="-1028.5" r="18.611" fx="2048.8" fy="-1028.5" gradientTransform="matrix(-0.204475,0.000235625,0.000351087,0.08505,432.4125,90.9625)" gradientUnits="userSpaceOnUse"><stop offset=".5" style="stop-color:#f9ddbd;stop-opacity:1"/><stop offset="1" style="stop-color:#edc391;stop-opacity:1"/></radialGradient></defs><g id="surface1"><path style="stroke:none;fill-rule:nonzero;fill:url(#radial0)" d="M 7.757812 15.273438 C 7.441406 15.273438 7.148438 15.183594 6.878906 15.007812 C 6.769531 14.933594 6.769531 14.429688 6.769531 14.023438 C 6.773438 13.398438 6.773438 12.617188 6.519531 11.902344 C 6.265625 11.183594 5.765625 10.480469 5.1875 10.027344 C 3.949219 9.058594 2.308594 8.523438 2.238281 8.5 C 2.230469 8.5 2.21875 8.496094 2.207031 8.496094 C 1.648438 8.40625 1.246094 7.933594 1.246094 7.367188 L 1.257812 3.273438 C 1.257812 2.664062 1.6875 2.136719 2.296875 1.992188 C 2.375 1.972656 2.46875 1.960938 2.570312 1.949219 C 2.804688 1.921875 3.070312 1.886719 3.3125 1.75 C 4.171875 1.261719 5.304688 1.097656 6.402344 0.992188 C 7.992188 0.84375 9.613281 0.800781 10.691406 0.792969 C 11.066406 0.792969 11.40625 0.933594 11.664062 1.191406 C 11.921875 1.449219 12.0625 1.789062 12.0625 2.152344 L 12.054688 7.429688 C 12.054688 8.449219 11.222656 9.277344 10.203125 9.277344 L 10.1875 9.277344 C 10.1875 9.277344 9.28125 9.246094 9.28125 9.246094 C 9.203125 9.246094 9.132812 9.296875 9.105469 9.367188 C 8.921875 9.859375 9.125 10.585938 9.363281 11.429688 C 9.566406 12.140625 9.773438 12.875 9.746094 13.496094 C 9.707031 14.394531 8.722656 15.273438 7.757812 15.273438 Z M 7.757812 15.273438"/><path style="stroke:none;fill-rule:nonzero;fill:#e6b77e;fill-opacity:1" d="M 10.703125 0.980469 C 11.015625 0.980469 11.308594 1.101562 11.53125 1.324219 C 11.75 1.542969 11.871094 1.835938 11.871094 2.152344 L 11.867188 7.425781 C 11.863281 8.34375 11.117188 9.089844 10.203125 9.089844 L 10.195312 9.089844 L 9.296875 9.058594 L 9.28125 9.058594 C 9.125 9.058594 8.984375 9.15625 8.929688 9.300781 C 8.722656 9.851562 8.933594 10.605469 9.183594 11.480469 C 9.378906 12.175781 9.582031 12.894531 9.558594 13.488281 C 9.523438 14.28125 8.613281 15.085938 7.757812 15.085938 C 7.488281 15.085938 7.238281 15.011719 7.011719 14.867188 C 6.957031 14.742188 6.957031 14.328125 6.957031 14.023438 C 6.960938 13.382812 6.960938 12.585938 6.699219 11.835938 C 6.433594 11.085938 5.910156 10.351562 5.300781 9.878906 C 4.039062 8.890625 2.363281 8.34375 2.296875 8.320312 C 2.277344 8.316406 2.257812 8.3125 2.238281 8.308594 C 1.773438 8.234375 1.433594 7.835938 1.4375 7.363281 L 1.445312 3.269531 C 1.449219 2.746094 1.816406 2.296875 2.339844 2.171875 C 2.410156 2.15625 2.5 2.144531 2.59375 2.132812 C 2.832031 2.101562 3.128906 2.0625 3.40625 1.910156 C 4.234375 1.4375 5.34375 1.28125 6.417969 1.175781 C 8.003906 1.027344 9.617188 0.984375 10.691406 0.976562 L 10.703125 0.980469 M 10.703125 0.605469 L 10.6875 0.605469 C 9.558594 0.613281 7.957031 0.65625 6.382812 0.804688 C 5.109375 0.925781 4.046875 1.113281 3.21875 1.582031 C 2.910156 1.761719 2.53125 1.742188 2.253906 1.808594 C 1.566406 1.96875 1.074219 2.566406 1.070312 3.269531 L 1.058594 7.367188 C 1.058594 8.019531 1.535156 8.578125 2.179688 8.679688 C 2.179688 8.679688 3.84375 9.214844 5.070312 10.175781 C 5.53125 10.535156 6.0625 11.171875 6.34375 11.964844 C 6.8125 13.289062 6.371094 14.898438 6.777344 15.164062 C 7.089844 15.371094 7.425781 15.460938 7.757812 15.460938 C 8.847656 15.460938 9.890625 14.480469 9.933594 13.503906 C 9.992188 12.132812 8.96875 10.265625 9.28125 9.433594 L 10.1875 9.464844 L 10.203125 9.464844 C 11.324219 9.464844 12.238281 8.554688 12.238281 7.429688 L 12.246094 2.152344 C 12.25 1.296875 11.554688 0.605469 10.703125 0.605469 Z M 10.703125 0.605469"/><path style="stroke:none;fill-rule:nonzero;fill:#e6b77e;fill-opacity:1" d="M 8.265625 8.1875 C 8.5 7.5625 8.503906 6.585938 8.265625 5.984375 C 7.921875 5.113281 7.078125 4.355469 6.109375 4.21875 C 5.871094 4.1875 6.011719 3.96875 6.25 4 C 7.300781 4.144531 8.722656 4.574219 9.09375 5.515625 C 10.109375 8.109375 8.921875 9.46875 8.390625 9.0625 C 8.136719 8.867188 8.132812 8.542969 8.265625 8.1875 Z M 8.265625 8.1875"/><path style="stroke:none;fill-rule:nonzero;fill:url(#radial1)" d="M 11.953125 9.835938 C 10.3125 9.835938 9.148438 9.5625 8.675781 9.058594 C 8.496094 8.867188 8.414062 8.644531 8.429688 8.378906 C 8.484375 7.453125 9.742188 7.261719 10.785156 7.261719 C 11.953125 7.261719 13.109375 7.5 13.121094 7.503906 C 13.132812 7.503906 13.140625 7.507812 13.148438 7.507812 C 13.699219 7.539062 14.113281 8.078125 14.078125 8.710938 C 14.042969 9.320312 13.597656 9.800781 13.066406 9.800781 C 13.046875 9.800781 13.03125 9.800781 13.015625 9.796875 L 13.003906 9.796875 C 13 9.796875 12.992188 9.796875 12.988281 9.800781 C 12.984375 9.796875 12.546875 9.835938 11.953125 9.835938 Z M 11.953125 9.835938"/><path style="stroke:none;fill-rule:nonzero;fill:#e6b77e;fill-opacity:1" d="M 10.785156 7.449219 C 11.929688 7.449219 13.070312 7.683594 13.082031 7.6875 C 13.101562 7.691406 13.117188 7.691406 13.136719 7.695312 C 13.582031 7.71875 13.921875 8.171875 13.890625 8.699219 C 13.859375 9.210938 13.496094 9.613281 13.066406 9.613281 C 13.050781 9.613281 13.039062 9.613281 13.023438 9.609375 C 13.015625 9.609375 13.011719 9.609375 13.003906 9.609375 C 12.992188 9.609375 12.980469 9.609375 12.96875 9.609375 C 12.964844 9.609375 12.539062 9.648438 11.953125 9.648438 C 10.390625 9.648438 9.242188 9.386719 8.8125 8.929688 C 8.667969 8.773438 8.605469 8.601562 8.617188 8.390625 C 8.628906 8.183594 8.703125 7.886719 9.21875 7.675781 C 9.59375 7.523438 10.121094 7.449219 10.785156 7.449219 M 10.785156 7.074219 C 9.558594 7.074219 8.304688 7.328125 8.242188 8.367188 C 8.160156 9.808594 10.527344 10.023438 11.953125 10.023438 C 12.566406 10.023438 13.003906 9.984375 13.003906 9.984375 C 13.023438 9.984375 13.046875 9.984375 13.066406 9.984375 C 13.691406 9.984375 14.222656 9.433594 14.265625 8.71875 C 14.304688 7.984375 13.8125 7.355469 13.160156 7.316406 C 13.160156 7.320312 11.984375 7.074219 10.785156 7.074219 Z M 10.785156 7.074219"/><path style="stroke:none;fill-rule:nonzero;fill:url(#radial2)" d="M 11.570312 7.523438 C 10.203125 7.523438 8.578125 7.292969 8.578125 6.203125 C 8.578125 5.109375 10.203125 4.878906 11.570312 4.878906 C 12.726562 4.878906 13.777344 5.046875 13.789062 5.050781 C 13.796875 5.050781 13.808594 5.050781 13.820312 5.050781 C 14.34375 5.050781 14.753906 5.691406 14.753906 6.242188 C 14.753906 6.765625 14.371094 7.347656 13.820312 7.347656 C 13.808594 7.347656 13.796875 7.351562 13.789062 7.351562 C 13.777344 7.355469 12.726562 7.523438 11.570312 7.523438 Z M 11.570312 7.523438"/><path style="stroke:none;fill-rule:nonzero;fill:#e6b77e;fill-opacity:1" d="M 11.570312 5.070312 C 12.707031 5.070312 13.75 5.234375 13.757812 5.234375 C 13.777344 5.238281 13.796875 5.242188 13.820312 5.242188 C 14.222656 5.242188 14.566406 5.792969 14.566406 6.246094 C 14.566406 6.679688 14.246094 7.164062 13.820312 7.164062 C 13.796875 7.164062 13.777344 7.164062 13.757812 7.167969 C 13.75 7.167969 12.707031 7.335938 11.570312 7.335938 C 10.714844 7.335938 10.035156 7.246094 9.550781 7.066406 C 8.847656 6.808594 8.765625 6.449219 8.765625 6.203125 C 8.765625 5.953125 8.847656 5.59375 9.550781 5.335938 C 10.035156 5.160156 10.714844 5.070312 11.570312 5.070312 M 11.570312 4.695312 C 10.078125 4.695312 8.390625 4.96875 8.390625 6.203125 C 8.390625 7.4375 10.078125 7.710938 11.570312 7.710938 C 12.753906 7.710938 13.820312 7.539062 13.820312 7.539062 C 14.464844 7.539062 14.941406 6.886719 14.941406 6.246094 C 14.941406 5.609375 14.464844 4.867188 13.820312 4.867188 C 13.820312 4.867188 12.753906 4.695312 11.570312 4.695312 Z M 11.570312 4.695312"/><path style="stroke:none;fill-rule:nonzero;fill:url(#radial3)" d="M 11.480469 3.074219 C 9.523438 3.074219 8.402344 2.699219 8.398438 2.042969 C 8.398438 1.867188 8.464844 1.714844 8.609375 1.574219 C 9.414062 0.765625 12.082031 0.726562 12.609375 0.726562 C 12.683594 0.726562 12.730469 0.726562 12.730469 0.726562 C 13.34375 0.726562 13.835938 1.238281 13.839844 1.871094 C 13.839844 2.175781 13.726562 2.46875 13.515625 2.683594 C 13.308594 2.902344 13.035156 3.019531 12.742188 3.019531 C 12.738281 3.019531 12.730469 3.019531 12.726562 3.023438 C 12.71875 3.023438 12.175781 3.074219 11.480469 3.074219 Z M 11.480469 3.074219"/><path style="stroke:none;fill-rule:nonzero;fill:#e6b77e;fill-opacity:1" d="M 12.609375 0.914062 C 12.683594 0.914062 12.726562 0.914062 12.726562 0.914062 L 12.738281 0.914062 C 13.238281 0.914062 13.648438 1.34375 13.652344 1.871094 C 13.652344 2.132812 13.554688 2.375 13.382812 2.558594 C 13.210938 2.734375 12.984375 2.835938 12.742188 2.835938 C 12.730469 2.835938 12.71875 2.835938 12.707031 2.835938 C 12.703125 2.835938 12.171875 2.886719 11.484375 2.886719 C 9.699219 2.886719 8.589844 2.5625 8.585938 2.042969 C 8.585938 1.964844 8.601562 1.847656 8.742188 1.710938 C 9.105469 1.339844 10.335938 0.914062 12.609375 0.914062 M 12.609375 0.539062 C 11.875 0.539062 8.207031 0.609375 8.210938 2.042969 C 8.214844 3.082031 10.144531 3.261719 11.484375 3.261719 C 12.195312 3.261719 12.742188 3.210938 12.742188 3.210938 C 13.453125 3.207031 14.027344 2.609375 14.027344 1.871094 C 14.023438 1.132812 13.449219 0.539062 12.738281 0.539062 Z M 12.609375 0.539062"/><path style="stroke:none;fill-rule:nonzero;fill:url(#radial4)" d="M 11.410156 5.15625 C 10.289062 5.15625 8.402344 5.007812 8.402344 4.015625 C 8.402344 2.835938 11.015625 2.707031 12.140625 2.707031 C 12.792969 2.707031 13.273438 2.746094 13.277344 2.746094 L 13.292969 2.746094 C 13.886719 2.746094 14.421875 3.371094 14.421875 4.058594 C 14.421875 4.785156 13.8125 5.042969 13.292969 5.042969 C 13.285156 5.042969 13.277344 5.042969 13.269531 5.046875 C 13.261719 5.046875 12.402344 5.15625 11.410156 5.15625 Z M 11.410156 5.15625"/><path style="stroke:none;fill-rule:nonzero;fill:#e6b77e;fill-opacity:1" d="M 12.140625 2.898438 C 12.785156 2.898438 13.257812 2.9375 13.265625 2.9375 C 13.273438 2.9375 13.285156 2.9375 13.296875 2.9375 C 13.777344 2.9375 14.234375 3.484375 14.234375 4.0625 C 14.234375 4.648438 13.75 4.859375 13.296875 4.859375 C 13.277344 4.859375 13.261719 4.859375 13.246094 4.859375 C 13.238281 4.863281 12.390625 4.972656 11.410156 4.972656 C 10.558594 4.972656 9.878906 4.890625 9.386719 4.738281 C 8.59375 4.488281 8.59375 4.136719 8.59375 4.019531 C 8.59375 3.640625 8.96875 3.347656 9.714844 3.148438 C 10.484375 2.941406 11.457031 2.898438 12.140625 2.898438 M 12.140625 2.523438 C 10.640625 2.523438 8.214844 2.722656 8.214844 4.019531 C 8.214844 5.117188 9.964844 5.347656 11.410156 5.347656 C 12.425781 5.347656 13.292969 5.234375 13.292969 5.234375 C 14 5.234375 14.609375 4.832031 14.609375 4.0625 C 14.609375 3.292969 14 2.5625 13.292969 2.5625 C 13.292969 2.5625 12.808594 2.523438 12.140625 2.523438 Z M 12.140625 2.523438"/><path style="stroke:none;fill-rule:nonzero;fill:#e6b77e;fill-opacity:1" d="M 3.472656 1.636719 L 2.875 4 L 2.625 1.875 Z M 3.472656 1.636719"/></g></svg>