<svg xmlns="http://www.w3.org/2000/svg" xmlns:xlink="http://www.w3.org/1999/xlink" width="16pt" height="16pt" version="1.1" viewBox="0 0 16 16"><defs><linearGradient id="linear0" x1="64" x2="64" y1="19.717" y2="107.7" gradientTransform="matrix(0.125,0,0,0.125,0,0)" gradientUnits="userSpaceOnUse"><stop offset=".5" style="stop-color:#fee133;stop-opacity:1"/><stop offset=".612" style="stop-color:#fede32;stop-opacity:1"/><stop offset=".708" style="stop-color:#fcd32f;stop-opacity:1"/><stop offset=".797" style="stop-color:#fac12b;stop-opacity:1"/><stop offset=".883" style="stop-color:#f7a924;stop-opacity:1"/><stop offset=".9" style="stop-color:#f6a323;stop-opacity:1"/></linearGradient><clipPath id="clip1"><path d="M 9 9 L 15 9 L 15 16 L 9 16 Z M 9 9"/></clipPath><clipPath id="clip2"><path d="M 7.226562 13.632812 L 11.140625 17.546875 L 17.164062 11.519531 L 13.253906 7.609375 C 12.515625 8.660156 11.570312 9.769531 10.511719 10.828125 C 9.453125 11.882812 8.347656 12.828125 7.296875 13.566406"/></clipPath><clipPath id="clip3"><path d="M 7 7 L 16 7 L 16 16 L 7 16 Z M 7 7"/></clipPath><clipPath id="clip4"><path d="M 7.226562 13.632812 L 11.140625 17.546875 L 17.164062 11.519531 L 13.253906 7.609375 C 12.515625 8.660156 11.570312 9.769531 10.511719 10.828125 C 9.453125 11.882812 8.347656 12.828125 7.296875 13.566406"/></clipPath><filter id="alpha" width="100%" height="100%" x="0%" y="0%" filterUnits="objectBoundingBox"><feColorMatrix in="SourceGraphic" type="matrix" values="0 0 0 0 1 0 0 0 0 1 0 0 0 0 1 0 0 0 1 0"/></filter><mask id="mask0"><g filter="url(#alpha)"><rect width="16" height="16" x="0" y="0" style="fill:#000;fill-opacity:.301961;stroke:none"/></g></mask><clipPath id="clip5"><rect width="16" height="16"/></clipPath><g id="surface6" clip-path="url(#clip5)"><path style="stroke:none;fill-rule:nonzero;fill:#ab3f2e;fill-opacity:1" d="M 12.671875 10.265625 L 14.007812 11.5625 C 14.324219 11.867188 14.492188 12.289062 14.492188 12.734375 C 14.492188 13.175781 14.320312 13.589844 14.007812 13.902344 L 13.71875 14.195312 C 13.40625 14.507812 12.988281 14.679688 12.546875 14.679688 C 12.105469 14.679688 11.691406 14.507812 11.375 14.195312 L 9.585938 12.480469 Z M 12.929688 9.875 L 9.09375 12.582031 L 11.023438 14.546875 C 11.441406 14.972656 11.996094 15.175781 12.546875 15.175781 C 13.097656 15.175781 13.648438 14.96875 14.070312 14.546875 L 14.359375 14.257812 C 15.203125 13.414062 15.203125 12.050781 14.359375 11.207031 Z M 12.929688 9.875"/></g><mask id="mask1"><g filter="url(#alpha)"><rect width="16" height="16" x="0" y="0" style="fill:#000;fill-opacity:.301961;stroke:none"/></g></mask><clipPath id="clip6"><rect width="16" height="16"/></clipPath><g id="surface9" clip-path="url(#clip6)"><path style="fill:none;stroke-width:4.2184;stroke-linecap:round;stroke-linejoin:miter;stroke:#ab3f2e;stroke-opacity:1;stroke-miterlimit:10" d="M 91.76 92.88125 L 98.26 99.85" transform="matrix(0.125,0,0,0.125,-0.00125,-0.0125)"/></g></defs><g id="surface1"><path style="stroke:none;fill-rule:nonzero;fill:url(#linear0)" d="M 8 14.960938 C 4.519531 14.960938 0.777344 12.78125 0.777344 8 C 0.777344 3.21875 4.519531 1.039062 8 1.039062 C 9.925781 1.039062 11.710938 1.679688 13.027344 2.835938 C 14.464844 4.105469 15.222656 5.890625 15.222656 8 C 15.222656 10.101562 14.460938 11.882812 13.023438 13.152344 C 11.707031 14.320312 9.921875 14.960938 8 14.960938 Z M 8 14.960938"/><path style="stroke:none;fill-rule:nonzero;fill:#eb8f00;fill-opacity:1" d="M 8 1.289062 C 9.867188 1.289062 11.59375 1.90625 12.859375 3.023438 C 14.242188 4.246094 14.972656 5.964844 14.972656 8 C 14.972656 10.027344 14.242188 11.746094 12.859375 12.96875 C 11.589844 14.09375 9.863281 14.710938 8 14.710938 C 6.128906 14.710938 4.402344 14.101562 3.140625 12.988281 C 1.757812 11.773438 1.027344 10.050781 1.027344 8 C 1.027344 5.941406 1.757812 4.210938 3.140625 3 C 4.398438 1.898438 6.125 1.289062 8 1.289062 M 8 0.789062 C 4.121094 0.789062 0.527344 3.28125 0.527344 8 C 0.527344 12.691406 4.121094 15.210938 8 15.210938 C 11.878906 15.210938 15.472656 12.628906 15.472656 8 C 15.472656 3.34375 11.878906 0.789062 8 0.789062 Z M 8 0.789062"/><g clip-path="url(#clip1)" clip-rule="nonzero"><g clip-path="url(#clip2)" clip-rule="nonzero"><path style="stroke:none;fill-rule:nonzero;fill:#e04c74;fill-opacity:1" d="M 14.363281 14.257812 L 14.074219 14.546875 C 13.230469 15.386719 11.867188 15.386719 11.023438 14.546875 L 9.09375 12.582031 L 12.929688 9.875 L 14.363281 11.207031 C 15.203125 12.050781 15.203125 13.414062 14.363281 14.257812 Z M 14.363281 14.257812"/></g></g><g clip-path="url(#clip3)" clip-rule="nonzero"><g clip-path="url(#clip4)" clip-rule="nonzero"><use mask="url(#mask0)" xlink:href="#surface6"/><use mask="url(#mask1)" xlink:href="#surface9"/></g></g><path style="stroke:none;fill-rule:nonzero;fill:#242424;fill-opacity:1" d="M 3.140625 8.796875 C 3.855469 10.410156 5.398438 11.632812 7.148438 11.90625 C 8.625 12.148438 10.195312 11.730469 11.351562 10.769531 C 12.019531 10.226562 12.527344 9.511719 12.894531 8.738281 C 13.222656 8.394531 13.578125 8.957031 13.28125 9.238281 C 12.5 11.140625 10.601562 12.515625 8.550781 12.6875 C 6.679688 12.878906 4.738281 12.085938 3.550781 10.621094 C 3.144531 10.113281 2.789062 9.542969 2.609375 8.917969 C 2.601562 8.625 3.015625 8.539062 3.140625 8.796875 Z M 3.140625 8.796875"/><path style="stroke:none;fill-rule:nonzero;fill:#242424;fill-opacity:1" d="M 6.195312 5.960938 C 6.0625 5.796875 5.917969 5.628906 5.730469 5.535156 C 5.695312 5.511719 5.578125 5.511719 5.652344 5.511719 C 5.570312 5.511719 5.589844 5.507812 5.496094 5.546875 C 5.28125 5.660156 5.144531 5.871094 4.980469 6.039062 C 4.75 6.246094 4.335938 6.183594 4.191406 5.90625 C 4.09375 5.738281 4.15625 5.542969 4.21875 5.375 C 4.40625 4.859375 4.871094 4.4375 5.425781 4.367188 C 5.882812 4.292969 6.367188 4.472656 6.683594 4.8125 C 6.902344 5.046875 7.070312 5.34375 7.109375 5.664062 C 7.132812 5.933594 6.875 6.160156 6.617188 6.15625 C 6.457031 6.160156 6.292969 6.089844 6.195312 5.960938 Z M 6.195312 5.960938"/><path style="stroke:none;fill-rule:nonzero;fill:#242424;fill-opacity:1" d="M 10.882812 5.960938 C 10.75 5.796875 10.605469 5.628906 10.417969 5.535156 C 10.328125 5.507812 10.308594 5.511719 10.316406 5.511719 C 10.261719 5.507812 10.226562 5.527344 10.144531 5.570312 C 9.949219 5.6875 9.824219 5.878906 9.664062 6.039062 C 9.433594 6.246094 9.023438 6.183594 8.878906 5.90625 C 8.777344 5.738281 8.84375 5.542969 8.902344 5.375 C 9.09375 4.859375 9.558594 4.4375 10.109375 4.367188 C 10.570312 4.292969 11.054688 4.472656 11.371094 4.8125 C 11.589844 5.046875 11.753906 5.34375 11.796875 5.664062 C 11.820312 5.933594 11.5625 6.160156 11.300781 6.15625 C 11.140625 6.160156 10.980469 6.089844 10.882812 5.960938 Z M 10.882812 5.960938"/></g></svg>