<svg xmlns="http://www.w3.org/2000/svg" xmlns:xlink="http://www.w3.org/1999/xlink" width="16pt" height="16pt" version="1.1" viewBox="0 0 16 16"><defs><linearGradient id="linear0" x1="45.554" x2="49.961" y1="-26.325" y2="-18.23" gradientTransform="matrix(0.0883875,0.0883875,-0.0883875,0.0883875,8.336125,-0.673963)" gradientUnits="userSpaceOnUse"><stop offset="0" style="stop-color:#ffd740;stop-opacity:1"/><stop offset="1" style="stop-color:#ffab00;stop-opacity:1"/></linearGradient><linearGradient id="linear1" x1="60.071" x2="91.238" y1="55.818" y2="87.068" gradientTransform="matrix(0.125,0,0,0.125,0,0)" gradientUnits="userSpaceOnUse"><stop offset="0" style="stop-color:#ffc400;stop-opacity:1"/><stop offset="1" style="stop-color:#ffab00;stop-opacity:1"/></linearGradient><linearGradient id="linear2" x1="67.946" x2="99.113" y1="47.943" y2="79.193" gradientTransform="matrix(0.125,0,0,0.125,0,0)" gradientUnits="userSpaceOnUse"><stop offset="0" style="stop-color:#ffc400;stop-opacity:1"/><stop offset="1" style="stop-color:#ffab00;stop-opacity:1"/></linearGradient><linearGradient id="linear3" x1="75.821" x2="106.99" y1="40.068" y2="71.318" gradientTransform="matrix(0.125,0,0,0.125,0,0)" gradientUnits="userSpaceOnUse"><stop offset="0" style="stop-color:#ffc400;stop-opacity:1"/><stop offset="1" style="stop-color:#ffab00;stop-opacity:1"/></linearGradient><filter id="alpha" width="100%" height="100%" x="0%" y="0%" filterUnits="objectBoundingBox"><feColorMatrix in="SourceGraphic" type="matrix" values="0 0 0 0 1 0 0 0 0 1 0 0 0 0 1 0 0 0 1 0"/></filter><mask id="mask0"><g filter="url(#alpha)"><rect width="16" height="16" x="0" y="0" style="fill:#000;fill-opacity:.2;stroke:none"/></g></mask><clipPath id="clip1"><rect width="16" height="16" x="0" y="0"/></clipPath><g id="surface5" clip-path="url(#clip1)"><path style="stroke:none;fill-rule:nonzero;fill:#424242;fill-opacity:1" d="M 14.226562 0.6875 L 14.230469 0.6875 L 15.308594 1.769531 L 15.304688 1.773438 L 15.167969 1.640625 L 15.035156 1.78125 C 15.027344 1.789062 14.832031 1.988281 14.394531 1.988281 L 14.289062 1.988281 L 14.011719 2.265625 L 13.734375 1.988281 L 14.007812 1.714844 L 14.011719 1.640625 C 14.019531 1.199219 14.222656 0.964844 14.230469 0.953125 L 14.351562 0.816406 L 14.226562 0.6875 M 14.226562 0.5 C 14.179688 0.5 14.128906 0.519531 14.09375 0.554688 C 14.015625 0.632812 14.015625 0.75 14.09375 0.828125 C 14.09375 0.828125 13.832031 1.109375 13.824219 1.636719 L 13.472656 1.988281 L 14.011719 2.53125 L 14.363281 2.175781 L 14.394531 2.175781 C 14.9375 2.175781 15.171875 1.90625 15.171875 1.90625 L 15.175781 1.90625 C 15.210938 1.945312 15.261719 1.964844 15.308594 1.964844 C 15.359375 1.964844 15.40625 1.945312 15.445312 1.90625 C 15.519531 1.832031 15.519531 1.710938 15.445312 1.636719 L 14.363281 0.554688 C 14.328125 0.519531 14.277344 0.5 14.226562 0.5 Z M 14.226562 0.5"/></g><linearGradient id="linear4" x1="59.041" x2="59.041" y1="18" y2="125.32" gradientTransform="matrix(0.125,0,0,0.125,0,0)" gradientUnits="userSpaceOnUse"><stop offset="0" style="stop-color:#ffc400;stop-opacity:1"/><stop offset=".594" style="stop-color:#ffc200;stop-opacity:1"/><stop offset=".808" style="stop-color:#fb0;stop-opacity:1"/><stop offset=".96" style="stop-color:#ffb000;stop-opacity:1"/><stop offset="1" style="stop-color:#ffab00;stop-opacity:1"/></linearGradient><linearGradient id="linear5" x1="64.004" x2="91.014" y1="59.761" y2="86.843" gradientTransform="matrix(0.097225,-0.027775,-0.027775,0.097225,3.9605,3.9605)" gradientUnits="userSpaceOnUse"><stop offset="0" style="stop-color:#ff8f00;stop-opacity:1"/><stop offset=".377" style="stop-color:#ff8f00;stop-opacity:0"/><stop offset=".514" style="stop-color:#ff8f00;stop-opacity:0"/><stop offset=".634" style="stop-color:#ff8f00;stop-opacity:0"/><stop offset="1" style="stop-color:#ff8f00;stop-opacity:1"/></linearGradient><linearGradient id="linear6" x1="67.946" x2="99.113" y1="47.943" y2="79.193" gradientTransform="matrix(0.09325,-0.03175,-0.03175,0.09325,4.669125,4.669125)" gradientUnits="userSpaceOnUse"><stop offset="0" style="stop-color:#ff8f00;stop-opacity:1"/><stop offset=".377" style="stop-color:#ff8f00;stop-opacity:0"/><stop offset=".514" style="stop-color:#ff8f00;stop-opacity:0"/><stop offset=".634" style="stop-color:#ff8f00;stop-opacity:0"/><stop offset="1" style="stop-color:#ff8f00;stop-opacity:1"/></linearGradient><linearGradient id="linear7" x1="98.668" x2="83.481" y1="62.956" y2="47.769" gradientTransform="matrix(0.125,0,0,0.125,0,0)" gradientUnits="userSpaceOnUse"><stop offset="0" style="stop-color:#ff8f00;stop-opacity:1"/><stop offset=".377" style="stop-color:#ff8f00;stop-opacity:0"/><stop offset=".514" style="stop-color:#ff8f00;stop-opacity:0"/><stop offset=".634" style="stop-color:#ff8f00;stop-opacity:0"/><stop offset="1" style="stop-color:#ff8f00;stop-opacity:1"/></linearGradient><mask id="mask1"><g filter="url(#alpha)"><rect width="16" height="16" x="0" y="0" style="fill:#000;fill-opacity:.2;stroke:none"/></g></mask><clipPath id="clip2"><rect width="16" height="16" x="0" y="0"/></clipPath><g id="surface8" clip-path="url(#clip2)"><path style="stroke:none;fill-rule:nonzero;fill:#424242;fill-opacity:1" d="M 7.496094 6.535156 L 7.574219 6.609375 L 7.484375 6.699219 L 7.617188 6.832031 L 11.507812 10.710938 L 11.5625 10.765625 L 11.738281 10.765625 L 11.816406 10.84375 L 11.375 11.285156 L 11.296875 11.210938 L 11.296875 11.035156 L 11.242188 10.980469 L 7.351562 7.097656 L 7.21875 6.964844 L 7.132812 7.050781 L 7.054688 6.976562 C 7.054688 6.960938 7.0625 6.949219 7.074219 6.9375 L 7.457031 6.550781 C 7.46875 6.542969 7.484375 6.535156 7.496094 6.535156 M 6.910156 5.910156 C 6.878906 5.910156 6.847656 5.921875 6.824219 5.945312 L 6.816406 5.953125 C 6.796875 5.941406 6.777344 5.933594 6.753906 5.933594 C 6.722656 5.933594 6.695312 5.945312 6.671875 5.96875 L 6.492188 6.144531 C 6.453125 6.1875 6.449219 6.246094 6.476562 6.292969 L 6.46875 6.296875 C 6.421875 6.347656 6.421875 6.425781 6.46875 6.476562 C 6.496094 6.5 6.527344 6.511719 6.558594 6.511719 C 6.589844 6.511719 6.621094 6.5 6.648438 6.476562 L 6.734375 6.386719 L 7.046875 6.699219 L 6.945312 6.800781 C 6.894531 6.847656 6.871094 6.910156 6.871094 6.976562 L 6.871094 7.046875 L 6.867188 7.050781 L 7.046875 7.226562 C 7.070312 7.25 7.101562 7.261719 7.132812 7.261719 C 7.167969 7.261719 7.199219 7.25 7.222656 7.226562 L 11.113281 11.109375 L 11.113281 11.285156 L 11.289062 11.460938 C 11.3125 11.484375 11.34375 11.496094 11.378906 11.496094 C 11.410156 11.496094 11.441406 11.484375 11.464844 11.460938 L 11.996094 10.929688 C 12.046875 10.882812 12.046875 10.800781 11.996094 10.753906 L 11.820312 10.578125 L 11.644531 10.578125 L 7.75 6.699219 C 7.800781 6.648438 7.800781 6.570312 7.75 6.523438 L 7.574219 6.347656 L 7.503906 6.347656 C 7.4375 6.347656 7.371094 6.375 7.328125 6.421875 L 7.222656 6.523438 L 6.910156 6.214844 L 7 6.125 C 7.046875 6.078125 7.046875 5.996094 7 5.949219 C 6.976562 5.921875 6.941406 5.910156 6.910156 5.910156 Z M 6.910156 5.910156"/></g><mask id="mask2"><g filter="url(#alpha)"><rect width="16" height="16" x="0" y="0" style="fill:#000;fill-opacity:.2;stroke:none"/></g></mask><clipPath id="clip3"><rect width="16" height="16" x="0" y="0"/></clipPath><g id="surface11" clip-path="url(#clip3)"><path style="stroke:none;fill-rule:nonzero;fill:#424242;fill-opacity:1" d="M 8.480469 5.546875 L 8.558594 5.625 L 8.46875 5.714844 L 8.601562 5.847656 L 12.492188 9.726562 L 12.546875 9.78125 L 12.722656 9.78125 L 12.800781 9.859375 L 12.359375 10.300781 L 12.28125 10.226562 L 12.28125 10.046875 L 12.226562 9.992188 L 8.335938 6.113281 L 8.203125 5.980469 L 8.117188 6.070312 L 8.039062 5.992188 C 8.042969 5.976562 8.046875 5.964844 8.058594 5.953125 L 8.441406 5.570312 C 8.453125 5.554688 8.464844 5.550781 8.480469 5.546875 M 7.894531 4.925781 C 7.863281 4.925781 7.832031 4.9375 7.804688 4.960938 L 7.800781 4.96875 C 7.78125 4.957031 7.761719 4.953125 7.738281 4.953125 C 7.707031 4.953125 7.675781 4.960938 7.652344 4.984375 L 7.476562 5.164062 C 7.4375 5.203125 7.433594 5.261719 7.457031 5.308594 L 7.453125 5.316406 C 7.40625 5.363281 7.40625 5.441406 7.453125 5.492188 C 7.480469 5.515625 7.511719 5.527344 7.542969 5.527344 C 7.574219 5.527344 7.605469 5.515625 7.632812 5.492188 L 7.71875 5.402344 L 8.03125 5.714844 L 7.925781 5.816406 C 7.878906 5.863281 7.855469 5.925781 7.855469 5.992188 L 7.855469 6.066406 L 7.851562 6.066406 L 8.027344 6.242188 C 8.054688 6.265625 8.085938 6.277344 8.117188 6.277344 C 8.148438 6.277344 8.179688 6.265625 8.207031 6.242188 L 12.097656 10.125 L 12.097656 10.300781 L 12.273438 10.476562 C 12.296875 10.5 12.328125 10.511719 12.359375 10.511719 C 12.394531 10.511719 12.425781 10.5 12.449219 10.476562 L 12.980469 9.945312 C 13.027344 9.898438 13.027344 9.820312 12.980469 9.769531 L 12.804688 9.59375 L 12.628906 9.59375 L 8.734375 5.714844 C 8.785156 5.664062 8.785156 5.585938 8.734375 5.539062 L 8.558594 5.359375 L 8.558594 5.363281 L 8.484375 5.363281 C 8.421875 5.363281 8.355469 5.390625 8.308594 5.4375 L 8.207031 5.539062 L 7.894531 5.230469 L 7.984375 5.140625 C 8.03125 5.089844 8.03125 5.011719 7.984375 4.964844 C 7.957031 4.9375 7.925781 4.925781 7.894531 4.925781 Z M 7.894531 4.925781"/></g><mask id="mask3"><g filter="url(#alpha)"><rect width="16" height="16" x="0" y="0" style="fill:#000;fill-opacity:.2;stroke:none"/></g></mask><clipPath id="clip4"><rect width="16" height="16" x="0" y="0"/></clipPath><g id="surface14" clip-path="url(#clip4)"><path style="stroke:none;fill-rule:nonzero;fill:#424242;fill-opacity:1" d="M 9.464844 4.566406 L 9.542969 4.640625 L 9.453125 4.730469 L 9.585938 4.863281 L 13.476562 8.742188 L 13.53125 8.796875 L 13.707031 8.796875 L 13.785156 8.875 L 13.34375 9.316406 L 13.265625 9.242188 L 13.265625 9.066406 L 13.210938 9.011719 L 9.320312 5.128906 L 9.1875 4.996094 L 9.101562 5.082031 L 9.023438 5.007812 C 9.023438 4.992188 9.03125 4.980469 9.042969 4.96875 L 9.425781 4.582031 C 9.4375 4.574219 9.453125 4.566406 9.464844 4.566406 M 8.878906 3.941406 C 8.847656 3.941406 8.816406 3.953125 8.792969 3.976562 L 8.785156 3.984375 C 8.765625 3.972656 8.746094 3.964844 8.722656 3.964844 C 8.691406 3.964844 8.664062 3.976562 8.640625 4 L 8.460938 4.175781 C 8.421875 4.21875 8.417969 4.277344 8.445312 4.324219 L 8.4375 4.328125 C 8.390625 4.378906 8.390625 4.457031 8.4375 4.507812 C 8.464844 4.53125 8.496094 4.542969 8.527344 4.542969 C 8.558594 4.542969 8.589844 4.53125 8.617188 4.507812 L 8.703125 4.417969 L 9.015625 4.730469 L 8.914062 4.832031 C 8.863281 4.878906 8.839844 4.941406 8.839844 5.007812 L 8.839844 5.078125 L 8.835938 5.082031 L 9.015625 5.257812 C 9.039062 5.28125 9.070312 5.292969 9.101562 5.292969 C 9.136719 5.292969 9.167969 5.28125 9.191406 5.257812 L 13.082031 9.140625 L 13.082031 9.316406 L 13.257812 9.492188 C 13.28125 9.515625 13.3125 9.527344 13.347656 9.527344 C 13.378906 9.527344 13.410156 9.515625 13.433594 9.492188 L 13.964844 8.960938 C 14.015625 8.914062 14.015625 8.832031 13.964844 8.785156 L 13.789062 8.609375 L 13.613281 8.609375 L 9.71875 4.730469 C 9.769531 4.679688 9.769531 4.601562 9.71875 4.554688 L 9.542969 4.378906 L 9.472656 4.378906 C 9.40625 4.378906 9.339844 4.40625 9.296875 4.453125 L 9.191406 4.554688 L 8.878906 4.246094 L 8.96875 4.15625 C 9.015625 4.109375 9.015625 4.027344 8.96875 3.980469 C 8.945312 3.953125 8.910156 3.941406 8.878906 3.941406 Z M 8.878906 3.941406"/></g><mask id="mask4"><g filter="url(#alpha)"><rect width="16" height="16" x="0" y="0" style="fill:#000;fill-opacity:.701961;stroke:none"/></g></mask><linearGradient id="linear8" x1="34.917" x2="105.44" y1="93.083" y2="22.562" gradientTransform="matrix(0.125,0,0,0.125,0,0)" gradientUnits="userSpaceOnUse"><stop offset="0" style="stop-color:#ff8f00;stop-opacity:0"/><stop offset=".265" style="stop-color:#ff8f00;stop-opacity:1"/><stop offset=".871" style="stop-color:#ff8f00;stop-opacity:1"/><stop offset="1" style="stop-color:#ff8f00;stop-opacity:0"/></linearGradient><clipPath id="clip5"><rect width="16" height="16" x="0" y="0"/></clipPath><g id="surface17" clip-path="url(#clip5)"><path style="stroke:none;fill-rule:nonzero;fill:url(#linear8)" d="M 5.617188 12.835938 C 5.847656 11.441406 6.074219 10.597656 7.074219 9.597656 L 14.078125 2.683594 C 14.152344 2.613281 14.15625 2.492188 14.082031 2.417969 L 13.578125 1.917969 C 13.507812 1.84375 13.386719 1.84375 13.316406 1.914062 L 6.308594 8.832031 C 5.308594 9.832031 4.464844 10.058594 3.070312 10.289062 C 2.28125 10.417969 0.667969 10.066406 0.625 10.070312 L 3.421875 12.871094 L 5.925781 15.375 C 5.949219 15.410156 5.488281 13.625 5.617188 12.835938 Z M 5.617188 12.835938"/></g><mask id="mask5"><g filter="url(#alpha)"><rect width="16" height="16" x="0" y="0" style="fill:#000;fill-opacity:.2;stroke:none"/></g></mask><clipPath id="clip6"><rect width="16" height="16" x="0" y="0"/></clipPath><g id="surface20" clip-path="url(#clip6)"><path style="stroke:none;fill-rule:nonzero;fill:#424242;fill-opacity:1" d="M 13.445312 2.3125 L 13.683594 2.550781 L 6.808594 9.332031 C 5.699219 10.441406 5.46875 11.417969 5.246094 12.773438 C 5.195312 13.101562 5.21875 13.59375 5.320312 14.238281 L 1.707031 10.621094 C 2.070312 10.667969 2.386719 10.691406 2.648438 10.691406 C 2.832031 10.691406 2.996094 10.679688 3.132812 10.65625 C 4.488281 10.433594 5.460938 10.207031 6.570312 9.101562 L 13.445312 2.3125 M 13.449219 1.863281 C 13.398438 1.863281 13.351562 1.878906 13.316406 1.917969 L 6.308594 8.832031 C 5.308594 9.832031 4.464844 10.058594 3.070312 10.289062 C 2.949219 10.308594 2.804688 10.316406 2.648438 10.316406 C 2.203125 10.316406 1.671875 10.246094 1.265625 10.179688 L 0.890625 9.808594 C 0.839844 9.757812 0.777344 9.734375 0.714844 9.734375 C 0.648438 9.734375 0.585938 9.757812 0.539062 9.808594 C 0.488281 9.855469 0.488281 9.933594 0.539062 9.984375 L 6.015625 15.464844 C 6.042969 15.488281 6.074219 15.5 6.105469 15.5 C 6.140625 15.5 6.171875 15.488281 6.195312 15.464844 C 6.292969 15.367188 6.292969 15.207031 6.195312 15.109375 L 5.789062 14.703125 C 5.671875 14.121094 5.542969 13.300781 5.621094 12.832031 C 5.847656 11.4375 6.074219 10.597656 7.074219 9.597656 L 14.082031 2.683594 C 14.15625 2.609375 14.15625 2.492188 14.082031 2.417969 L 13.875 2.210938 L 13.578125 1.917969 C 13.542969 1.878906 13.496094 1.863281 13.449219 1.863281 Z M 13.449219 1.863281"/></g><linearGradient id="linear9" x1="82.743" x2="82.743" y1="34.833" y2="112.85" gradientTransform="matrix(0.125,0,0,0.125,0,0)" gradientUnits="userSpaceOnUse"><stop offset="0" style="stop-color:#ffd740;stop-opacity:1"/><stop offset="1" style="stop-color:#ffab00;stop-opacity:1"/></linearGradient><mask id="mask6"><g filter="url(#alpha)"><rect width="16" height="16" x="0" y="0" style="fill:#000;fill-opacity:.2;stroke:none"/></g></mask><clipPath id="clip7"><rect width="16" height="16" x="0" y="0"/></clipPath><g id="surface23" clip-path="url(#clip7)"><path style="stroke:none;fill-rule:nonzero;fill:#424242;fill-opacity:1" d="M 12.800781 3.628906 L 12.816406 3.628906 C 13.304688 3.632812 13.761719 3.828125 14.105469 4.171875 C 14.445312 4.519531 14.628906 4.980469 14.625 5.46875 C 14.621094 5.957031 14.425781 6.414062 14.082031 6.757812 L 9.164062 11.605469 C 8.824219 11.941406 8.367188 12.125 7.886719 12.125 L 7.867188 12.125 C 7.378906 12.121094 6.921875 11.925781 6.582031 11.582031 C 6.242188 11.234375 6.054688 10.773438 6.058594 10.285156 C 6.0625 9.796875 6.257812 9.339844 6.605469 8.996094 L 11.519531 4.148438 C 11.863281 3.8125 12.316406 3.628906 12.800781 3.628906 M 7.886719 11.617188 C 8.234375 11.617188 8.5625 11.484375 8.808594 11.238281 L 13.726562 6.390625 C 13.976562 6.144531 14.117188 5.816406 14.121094 5.464844 C 14.121094 5.109375 13.988281 4.777344 13.742188 4.527344 C 13.496094 4.277344 13.167969 4.140625 12.8125 4.136719 L 12.800781 4.136719 C 12.453125 4.136719 12.125 4.269531 11.878906 4.515625 L 6.960938 9.359375 C 6.707031 9.609375 6.570312 9.9375 6.566406 10.289062 C 6.5625 10.640625 6.699219 10.976562 6.945312 11.226562 C 7.191406 11.476562 7.519531 11.613281 7.871094 11.617188 L 7.886719 11.617188 M 12.800781 3.253906 C 12.21875 3.253906 11.671875 3.476562 11.257812 3.882812 L 6.339844 8.730469 C 5.921875 9.140625 5.691406 9.691406 5.6875 10.28125 C 5.679688 10.871094 5.90625 11.425781 6.316406 11.84375 C 6.726562 12.261719 7.277344 12.496094 7.867188 12.5 L 7.886719 12.5 C 8.46875 12.5 9.015625 12.277344 9.425781 11.871094 L 14.34375 7.019531 C 14.761719 6.609375 14.992188 6.058594 15 5.46875 C 15.003906 4.878906 14.78125 4.328125 14.371094 3.90625 C 13.957031 3.488281 13.410156 3.257812 12.820312 3.253906 C 12.8125 3.253906 12.804688 3.253906 12.800781 3.253906 Z M 7.886719 11.242188 L 7.875 11.242188 C 7.625 11.242188 7.386719 11.140625 7.210938 10.960938 C 6.847656 10.589844 6.851562 9.992188 7.222656 9.628906 L 12.140625 4.78125 C 12.316406 4.605469 12.550781 4.511719 12.800781 4.511719 L 12.808594 4.511719 C 13.0625 4.511719 13.296875 4.613281 13.472656 4.792969 C 13.839844 5.164062 13.832031 5.761719 13.460938 6.125 L 8.546875 10.972656 C 8.367188 11.148438 8.136719 11.242188 7.886719 11.242188 Z M 7.886719 11.242188"/></g></defs><g id="surface1"><path style="stroke:none;fill-rule:nonzero;fill:#e0e0e0;fill-opacity:1" d="M 13.84375 1.613281 L 14.386719 2.15625 L 14.011719 2.53125 L 13.472656 1.988281 Z M 13.84375 1.613281"/><path style="stroke:none;fill-rule:nonzero;fill:#ffa000;fill-opacity:1" d="M 15.171875 1.90625 L 14.09375 0.828125 C 14.015625 0.75 14.015625 0.632812 14.09375 0.554688 C 14.167969 0.480469 14.289062 0.480469 14.363281 0.554688 L 15.445312 1.636719 C 15.519531 1.710938 15.519531 1.832031 15.445312 1.90625 C 15.371094 1.980469 15.25 1.980469 15.171875 1.90625 Z M 15.171875 1.90625"/><path style="stroke:none;fill-rule:nonzero;fill:url(#linear0)" d="M 15.171875 1.90625 L 14.09375 0.828125 C 14.09375 0.828125 13.832031 1.109375 13.824219 1.640625 L 14.363281 2.175781 C 14.925781 2.1875 15.171875 1.90625 15.171875 1.90625 Z M 15.171875 1.90625"/><path style="stroke:none;fill-rule:nonzero;fill:#bdbdbd;fill-opacity:1" d="M 6.988281 6.113281 L 6.636719 6.46875 L 6.492188 6.324219 C 6.445312 6.273438 6.445312 6.195312 6.492188 6.148438 L 6.667969 5.972656 C 6.71875 5.921875 6.796875 5.921875 6.84375 5.972656 Z M 6.988281 6.113281"/><path style="stroke:none;fill-rule:nonzero;fill:#bdbdbd;fill-opacity:1" d="M 6.636719 6.289062 L 6.8125 6.113281 L 7.511719 6.8125 L 7.335938 6.992188 Z M 6.636719 6.289062"/><path style="stroke:none;fill-rule:nonzero;fill:url(#linear1)" d="M 7.75 6.695312 L 11.691406 10.628906 L 11.160156 11.160156 L 7.21875 7.226562 Z M 7.75 6.695312"/><path style="stroke:none;fill-rule:nonzero;fill:#e0e0e0;fill-opacity:1" d="M 11.996094 10.933594 L 11.464844 11.460938 C 11.417969 11.511719 11.335938 11.511719 11.289062 11.460938 L 11.113281 11.285156 L 11.820312 10.578125 L 11.996094 10.753906 C 12.042969 10.804688 12.042969 10.882812 11.996094 10.933594 Z M 11.996094 10.933594"/><path style="stroke:none;fill-rule:nonzero;fill:#bdbdbd;fill-opacity:1" d="M 11.820312 10.578125 L 11.109375 11.289062 L 11.109375 11.109375 L 11.640625 10.578125 Z M 11.820312 10.578125"/><path style="stroke:none;fill-rule:nonzero;fill:#e0e0e0;fill-opacity:1" d="M 7.75 6.699219 L 7.222656 7.230469 C 7.171875 7.277344 7.09375 7.277344 7.046875 7.230469 L 6.867188 7.050781 L 7.578125 6.34375 L 7.753906 6.519531 C 7.800781 6.570312 7.800781 6.648438 7.75 6.699219 Z M 7.75 6.699219"/><path style="stroke:none;fill-rule:nonzero;fill:#eee;fill-opacity:1" d="M 7.574219 6.347656 L 6.867188 7.054688 L 6.867188 6.980469 C 6.867188 6.914062 6.894531 6.851562 6.941406 6.804688 L 7.324219 6.421875 C 7.371094 6.371094 7.433594 6.347656 7.5 6.347656 Z M 7.574219 6.347656"/><path style="stroke:none;fill-rule:nonzero;fill:#e0e0e0;fill-opacity:1" d="M 7 6.125 L 6.644531 6.476562 C 6.597656 6.527344 6.515625 6.527344 6.46875 6.476562 C 6.421875 6.429688 6.421875 6.351562 6.46875 6.300781 L 6.824219 5.949219 C 6.871094 5.898438 6.949219 5.898438 7 5.949219 C 7.046875 5.996094 7.046875 6.074219 7 6.125 Z M 7 6.125"/><path style="stroke:none;fill-rule:nonzero;fill:#bdbdbd;fill-opacity:1" d="M 7.972656 5.128906 L 7.621094 5.484375 L 7.476562 5.339844 C 7.425781 5.292969 7.425781 5.210938 7.476562 5.164062 L 7.652344 4.988281 C 7.703125 4.9375 7.78125 4.9375 7.828125 4.988281 Z M 7.972656 5.128906"/><path style="stroke:none;fill-rule:nonzero;fill:#bdbdbd;fill-opacity:1" d="M 7.621094 5.308594 L 7.796875 5.128906 L 8.496094 5.832031 L 8.320312 6.007812 Z M 7.621094 5.308594"/><path style="stroke:none;fill-rule:nonzero;fill:url(#linear2)" d="M 8.734375 5.710938 L 12.675781 9.644531 L 12.144531 10.175781 L 8.203125 6.242188 Z M 8.734375 5.710938"/><path style="stroke:none;fill-rule:nonzero;fill:#e0e0e0;fill-opacity:1" d="M 12.980469 9.949219 L 12.449219 10.480469 C 12.398438 10.527344 12.320312 10.527344 12.273438 10.480469 L 12.097656 10.300781 L 12.804688 9.59375 L 12.980469 9.769531 C 13.027344 9.820312 13.027344 9.898438 12.980469 9.949219 Z M 12.980469 9.949219"/><path style="stroke:none;fill-rule:nonzero;fill:#bdbdbd;fill-opacity:1" d="M 12.804688 9.597656 L 12.097656 10.304688 L 12.097656 10.125 L 12.625 9.597656 Z M 12.804688 9.597656"/><path style="stroke:none;fill-rule:nonzero;fill:#e0e0e0;fill-opacity:1" d="M 8.734375 5.714844 L 8.203125 6.242188 C 8.15625 6.292969 8.078125 6.292969 8.027344 6.242188 L 7.851562 6.066406 L 8.558594 5.359375 L 8.734375 5.535156 C 8.785156 5.585938 8.785156 5.664062 8.734375 5.714844 Z M 8.734375 5.714844"/><path style="stroke:none;fill-rule:nonzero;fill:#eee;fill-opacity:1" d="M 8.558594 5.359375 L 7.851562 6.070312 L 7.851562 5.996094 C 7.851562 5.929688 7.878906 5.863281 7.925781 5.820312 L 8.308594 5.433594 C 8.355469 5.386719 8.417969 5.359375 8.484375 5.359375 Z M 8.558594 5.359375"/><path style="stroke:none;fill-rule:nonzero;fill:#e0e0e0;fill-opacity:1" d="M 7.984375 5.140625 L 7.628906 5.492188 C 7.582031 5.542969 7.503906 5.542969 7.453125 5.492188 C 7.40625 5.445312 7.40625 5.363281 7.453125 5.316406 L 7.808594 4.960938 C 7.855469 4.914062 7.933594 4.914062 7.984375 4.960938 C 8.03125 5.011719 8.03125 5.089844 7.984375 5.140625 Z M 7.984375 5.140625"/><path style="stroke:none;fill-rule:nonzero;fill:#bdbdbd;fill-opacity:1" d="M 8.957031 4.144531 L 8.605469 4.5 L 8.460938 4.355469 C 8.414062 4.304688 8.414062 4.226562 8.460938 4.179688 L 8.636719 4.003906 C 8.6875 3.953125 8.765625 3.953125 8.8125 4.003906 Z M 8.957031 4.144531"/><path style="stroke:none;fill-rule:nonzero;fill:#bdbdbd;fill-opacity:1" d="M 8.605469 4.320312 L 8.78125 4.144531 L 9.480469 4.84375 L 9.304688 5.023438 Z M 8.605469 4.320312"/><path style="stroke:none;fill-rule:nonzero;fill:url(#linear3)" d="M 9.71875 4.726562 L 13.660156 8.660156 L 13.128906 9.191406 L 9.1875 5.257812 Z M 9.71875 4.726562"/><path style="stroke:none;fill-rule:nonzero;fill:#e0e0e0;fill-opacity:1" d="M 13.964844 8.964844 L 13.433594 9.492188 C 13.386719 9.542969 13.304688 9.542969 13.257812 9.492188 L 13.082031 9.316406 L 13.789062 8.609375 L 13.964844 8.785156 C 14.011719 8.835938 14.011719 8.914062 13.964844 8.964844 Z M 13.964844 8.964844"/><path style="stroke:none;fill-rule:nonzero;fill:#bdbdbd;fill-opacity:1" d="M 13.789062 8.609375 L 13.078125 9.320312 L 13.078125 9.140625 L 13.609375 8.609375 Z M 13.789062 8.609375"/><path style="stroke:none;fill-rule:nonzero;fill:#e0e0e0;fill-opacity:1" d="M 9.71875 4.730469 L 9.191406 5.261719 C 9.140625 5.308594 9.0625 5.308594 9.015625 5.261719 L 8.835938 5.082031 L 9.546875 4.375 L 9.722656 4.550781 C 9.769531 4.601562 9.769531 4.679688 9.71875 4.730469 Z M 9.71875 4.730469"/><path style="stroke:none;fill-rule:nonzero;fill:#eee;fill-opacity:1" d="M 9.542969 4.378906 L 8.835938 5.085938 L 8.835938 5.011719 C 8.835938 4.945312 8.863281 4.882812 8.910156 4.835938 L 9.292969 4.453125 C 9.339844 4.402344 9.402344 4.378906 9.46875 4.378906 Z M 9.542969 4.378906"/><path style="stroke:none;fill-rule:nonzero;fill:#e0e0e0;fill-opacity:1" d="M 8.96875 4.15625 L 8.613281 4.507812 C 8.566406 4.558594 8.484375 4.558594 8.4375 4.507812 C 8.390625 4.460938 8.390625 4.382812 8.4375 4.332031 L 8.792969 3.980469 C 8.839844 3.929688 8.917969 3.929688 8.96875 3.980469 C 9.015625 4.027344 9.015625 4.105469 8.96875 4.15625 Z M 8.96875 4.15625"/><use mask="url(#mask0)" xlink:href="#surface5"/><path style="stroke:none;fill-rule:nonzero;fill:url(#linear4)" d="M 5.617188 12.835938 C 5.847656 11.441406 6.074219 10.597656 7.074219 9.597656 L 14.078125 2.683594 C 14.152344 2.613281 14.15625 2.492188 14.082031 2.417969 L 13.578125 1.917969 C 13.507812 1.84375 13.386719 1.84375 13.316406 1.914062 L 6.308594 8.832031 C 5.308594 9.832031 4.464844 10.058594 3.070312 10.289062 C 2.28125 10.417969 0.667969 10.066406 0.625 10.070312 L 3.421875 12.871094 L 5.925781 15.375 C 5.949219 15.410156 5.488281 13.625 5.617188 12.835938 Z M 5.617188 12.835938"/><path style="stroke:none;fill-rule:nonzero;fill:#ffa000;fill-opacity:1" d="M 6.015625 15.464844 L 0.535156 9.984375 C 0.488281 9.933594 0.488281 9.855469 0.535156 9.808594 C 0.632812 9.710938 0.792969 9.710938 0.890625 9.808594 L 6.195312 15.109375 C 6.292969 15.207031 6.292969 15.367188 6.195312 15.464844 C 6.144531 15.511719 6.066406 15.511719 6.015625 15.464844 Z M 6.015625 15.464844"/><path style="stroke:none;fill-rule:nonzero;fill:url(#linear5)" d="M 8.5 7.445312 L 10.691406 9.628906 L 10.160156 10.160156 L 7.96875 7.976562 Z M 8.5 7.445312"/><path style="stroke:none;fill-rule:nonzero;fill:url(#linear6)" d="M 9.734375 6.710938 L 11.675781 8.644531 L 11.144531 9.175781 L 9.203125 7.242188 Z M 9.734375 6.710938"/><path style="stroke:none;fill-rule:nonzero;fill:url(#linear7)" d="M 10.71875 5.726562 L 12.660156 7.660156 L 12.128906 8.191406 L 10.1875 6.257812 Z M 10.71875 5.726562"/><use mask="url(#mask1)" xlink:href="#surface8"/><use mask="url(#mask2)" xlink:href="#surface11"/><use mask="url(#mask3)" xlink:href="#surface14"/><use mask="url(#mask4)" xlink:href="#surface17"/><use mask="url(#mask5)" xlink:href="#surface20"/><path style="stroke:none;fill-rule:nonzero;fill:url(#linear9)" d="M 14.371094 3.910156 C 13.957031 3.492188 13.410156 3.257812 12.820312 3.253906 C 12.230469 3.25 11.675781 3.472656 11.257812 3.882812 L 6.339844 8.730469 C 5.921875 9.140625 5.691406 9.691406 5.6875 10.28125 C 5.679688 10.871094 5.90625 11.425781 6.316406 11.84375 C 6.726562 12.261719 7.277344 12.496094 7.867188 12.5 C 8.457031 12.503906 9.011719 12.28125 9.429688 11.871094 L 14.34375 7.023438 C 14.761719 6.609375 14.996094 6.0625 15 5.472656 C 15.003906 4.882812 14.78125 4.328125 14.371094 3.910156 Z M 13.460938 6.125 L 8.546875 10.972656 C 8.367188 11.148438 8.128906 11.246094 7.875 11.242188 C 7.625 11.242188 7.386719 11.140625 7.210938 10.960938 C 6.847656 10.589844 6.851562 9.992188 7.222656 9.628906 L 12.140625 4.78125 C 12.316406 4.605469 12.554688 4.507812 12.808594 4.511719 C 13.0625 4.511719 13.296875 4.613281 13.472656 4.792969 C 13.839844 5.164062 13.832031 5.761719 13.460938 6.125 Z M 13.460938 6.125"/><use mask="url(#mask6)" xlink:href="#surface23"/></g></svg>