<svg xmlns="http://www.w3.org/2000/svg" xmlns:xlink="http://www.w3.org/1999/xlink" width="16pt" height="16pt" version="1.1" viewBox="0 0 16 16"><defs><linearGradient id="linear0" x1="70.948" x2="45.394" y1="66.12" y2="121.49" gradientTransform="matrix(0.109488,-0.0080375,0.0085,0.115813,-0.504362,0.822775)" gradientUnits="userSpaceOnUse"><stop offset="0" style="stop-color:#00eccc;stop-opacity:1"/><stop offset=".109" style="stop-color:#0aeecf;stop-opacity:.85098"/><stop offset=".29" style="stop-color:#24f2d5;stop-opacity:.6"/><stop offset=".522" style="stop-color:#4df8e1;stop-opacity:.282353"/><stop offset=".726" style="stop-color:#78ffec;stop-opacity:0"/><stop offset="1" style="stop-color:#78ffec;stop-opacity:0"/></linearGradient><linearGradient id="linear1" x1="1.273" x2="125.07" y1="55.48" y2="55.48" gradientTransform="matrix(0.120612,0.0328375,-0.0328375,0.120612,2.08425,-1.82775)" gradientUnits="userSpaceOnUse"><stop offset="0" style="stop-color:#8690bb;stop-opacity:1"/><stop offset=".265" style="stop-color:#6e76a6;stop-opacity:1"/><stop offset=".665" style="stop-color:#b0bee1;stop-opacity:1"/><stop offset=".884" style="stop-color:#6e76a6;stop-opacity:1"/><stop offset="1" style="stop-color:#8a90b3;stop-opacity:1"/></linearGradient><clipPath id="clip1"><path d="M 0 4 L 16 4 L 16 10 L 0 10 Z M 0 4"/></clipPath><clipPath id="clip2"><path d="M 15.480469 8.449219 C 15.503906 7.859375 12.644531 5.441406 12.644531 5.441406 L 4.523438 3.230469 C 4.523438 3.230469 0.84375 3.867188 0.566406 4.386719 C 0.289062 4.910156 0.660156 7.164062 7.332031 8.980469 C 14.003906 10.796875 15.453125 9.039062 15.480469 8.449219 Z M 15.480469 8.449219"/></clipPath><radialGradient id="radial0" cx="39.873" cy="60.84" r="42.895" fx="39.873" fy="60.84" gradientTransform="matrix(0.126037,0.0343125,-0.0328375,0.120612,4.6885,-1.1187)" gradientUnits="userSpaceOnUse"><stop offset=".228" style="stop-color:#00eccc;stop-opacity:1"/><stop offset="1" style="stop-color:#00ccb1;stop-opacity:1"/></radialGradient><radialGradient id="radial1" cx="-133.62" cy="-125.32" r="3.642" fx="-133.62" fy="-125.32" gradientTransform="matrix(0.0945875,0.081725,-0.0611,0.0707125,7.029,24.27)" gradientUnits="userSpaceOnUse"><stop offset=".065" style="stop-color:#00eccc;stop-opacity:1"/><stop offset=".252" style="stop-color:#00e7c7;stop-opacity:1"/><stop offset=".481" style="stop-color:#00d8bb;stop-opacity:1"/><stop offset=".732" style="stop-color:#00bfa5;stop-opacity:1"/><stop offset=".997" style="stop-color:#009c87;stop-opacity:1"/><stop offset="1" style="stop-color:#009c87;stop-opacity:1"/></radialGradient><radialGradient id="radial2" cx="-120.13" cy="-123.57" r="3.642" fx="-120.13" fy="-123.57" gradientTransform="matrix(0.0945875,0.081725,-0.0611,0.0707125,7.099875,24.2075)" gradientUnits="userSpaceOnUse"><stop offset=".065" style="stop-color:#00eccc;stop-opacity:1"/><stop offset=".252" style="stop-color:#00e7c7;stop-opacity:1"/><stop offset=".481" style="stop-color:#00d8bb;stop-opacity:1"/><stop offset=".732" style="stop-color:#00bfa5;stop-opacity:1"/><stop offset=".997" style="stop-color:#009c87;stop-opacity:1"/><stop offset="1" style="stop-color:#009c87;stop-opacity:1"/></radialGradient><radialGradient id="radial3" cx="-23.659" cy="-46.43" r="3.642" fx="-23.659" fy="-46.43" gradientTransform="matrix(0.107425,0.0639125,-0.0477875,0.0803125,5.36325,11.99225)" gradientUnits="userSpaceOnUse"><stop offset=".065" style="stop-color:#00eccc;stop-opacity:1"/><stop offset=".252" style="stop-color:#00e7c7;stop-opacity:1"/><stop offset=".481" style="stop-color:#00d8bb;stop-opacity:1"/><stop offset=".732" style="stop-color:#00bfa5;stop-opacity:1"/><stop offset=".997" style="stop-color:#009c87;stop-opacity:1"/><stop offset="1" style="stop-color:#009c87;stop-opacity:1"/></radialGradient><radialGradient id="radial4" cx="62.855" cy="43.713" r="3.642" fx="62.855" fy="43.713" gradientTransform="matrix(0.117262,0.0433125,-0.032375,0.0876625,1.36925,1.1148)" gradientUnits="userSpaceOnUse"><stop offset=".065" style="stop-color:#00eccc;stop-opacity:1"/><stop offset=".252" style="stop-color:#00e7c7;stop-opacity:1"/><stop offset=".481" style="stop-color:#00d8bb;stop-opacity:1"/><stop offset=".732" style="stop-color:#00bfa5;stop-opacity:1"/><stop offset=".997" style="stop-color:#009c87;stop-opacity:1"/><stop offset="1" style="stop-color:#009c87;stop-opacity:1"/></radialGradient><radialGradient id="radial5" cx="101.03" cy="77.59" r="3.642" fx="101.03" fy="77.59" gradientTransform="matrix(0.119725,0.03595,-0.026875,0.0895,-0.324387,-2.33875)" gradientUnits="userSpaceOnUse"><stop offset=".065" style="stop-color:#00eccc;stop-opacity:1"/><stop offset=".252" style="stop-color:#00e7c7;stop-opacity:1"/><stop offset=".481" style="stop-color:#00d8bb;stop-opacity:1"/><stop offset=".732" style="stop-color:#00bfa5;stop-opacity:1"/><stop offset=".997" style="stop-color:#009c87;stop-opacity:1"/><stop offset="1" style="stop-color:#009c87;stop-opacity:1"/></radialGradient><radialGradient id="radial6" cx="144.19" cy="135.63" r="3.642" fx="144.19" fy="135.63" gradientTransform="matrix(0.1228,0.0233625,-0.0174625,0.0918125,-3.574125,-7.37775)" gradientUnits="userSpaceOnUse"><stop offset=".065" style="stop-color:#00eccc;stop-opacity:1"/><stop offset=".252" style="stop-color:#00e7c7;stop-opacity:1"/><stop offset=".481" style="stop-color:#00d8bb;stop-opacity:1"/><stop offset=".732" style="stop-color:#00bfa5;stop-opacity:1"/><stop offset=".997" style="stop-color:#009c87;stop-opacity:1"/><stop offset="1" style="stop-color:#009c87;stop-opacity:1"/></radialGradient><radialGradient id="radial7" cx="203.09" cy="351.7" r="3.642" fx="203.09" fy="351.7" gradientTransform="matrix(0.1232,-0.021125,0.0157875,0.0921125,-16.5975,-19.88875)" gradientUnits="userSpaceOnUse"><stop offset=".065" style="stop-color:#00eccc;stop-opacity:1"/><stop offset=".252" style="stop-color:#00e7c7;stop-opacity:1"/><stop offset=".481" style="stop-color:#00d8bb;stop-opacity:1"/><stop offset=".732" style="stop-color:#00bfa5;stop-opacity:1"/><stop offset=".997" style="stop-color:#009c87;stop-opacity:1"/><stop offset="1" style="stop-color:#009c87;stop-opacity:1"/></radialGradient><radialGradient id="radial8" cx="59.093" cy="42.536" r="35.889" fx="59.093" fy="42.536" gradientTransform="matrix(0.111863,0.055775,-0.0538,0.107912,3.492875,-2.64325)" gradientUnits="userSpaceOnUse"><stop offset="0" style="stop-color:#78ffec;stop-opacity:1"/><stop offset=".094" style="stop-color:#73feeb;stop-opacity:1"/><stop offset=".21" style="stop-color:#64fce7;stop-opacity:1"/><stop offset=".338" style="stop-color:#4af8e0;stop-opacity:1"/><stop offset=".472" style="stop-color:#28f2d7;stop-opacity:1"/><stop offset=".6" style="stop-color:#00eccc;stop-opacity:1"/><stop offset="1" style="stop-color:#00ccb1;stop-opacity:1"/></radialGradient><filter id="alpha" width="100%" height="100%" x="0%" y="0%" filterUnits="objectBoundingBox"><feColorMatrix in="SourceGraphic" type="matrix" values="0 0 0 0 1 0 0 0 0 1 0 0 0 0 1 0 0 0 1 0"/></filter><mask id="mask0"><g filter="url(#alpha)"><rect width="16" height="16" x="0" y="0" style="fill:#000;fill-opacity:.478431;stroke:none"/></g></mask><clipPath id="clip3"><rect width="16" height="16" x="0" y="0"/></clipPath><g id="surface5" clip-path="url(#clip3)"><path style="stroke:none;fill-rule:nonzero;fill:#dcfffa;fill-opacity:1" d="M 9.78125 1.921875 C 9.882812 1.945312 10 1.980469 10.125 2.03125 C 10.25 2.082031 10.386719 2.148438 10.523438 2.226562 C 10.660156 2.308594 10.800781 2.402344 10.941406 2.511719 C 11.078125 2.617188 11.214844 2.738281 11.347656 2.875 C 11.476562 3.011719 11.601562 3.15625 11.710938 3.316406 C 11.824219 3.476562 11.921875 3.644531 12.007812 3.824219 C 12.089844 4.003906 12.160156 4.195312 12.207031 4.390625 C 12.257812 4.585938 12.285156 4.792969 12.296875 5.003906 C 12.304688 5.210938 12.289062 5.429688 12.253906 5.648438 C 12.253906 5.648438 12.253906 5.601562 12.234375 5.507812 C 12.21875 5.414062 12.191406 5.28125 12.132812 5.113281 C 12.078125 4.945312 11.992188 4.742188 11.859375 4.511719 C 11.730469 4.285156 11.554688 4.03125 11.316406 3.769531 C 11.207031 3.652344 11.078125 3.527344 10.925781 3.398438 C 10.773438 3.265625 10.605469 3.136719 10.429688 3.003906 C 10.253906 2.875 10.070312 2.75 9.894531 2.632812 C 9.71875 2.515625 9.546875 2.40625 9.402344 2.308594 C 9.253906 2.214844 9.132812 2.128906 9.046875 2.058594 C 8.960938 1.984375 8.917969 1.929688 8.925781 1.890625 C 8.9375 1.851562 9.003906 1.828125 9.140625 1.828125 C 9.28125 1.832031 9.488281 1.859375 9.78125 1.921875 Z M 9.78125 1.921875"/></g><mask id="mask1"><g filter="url(#alpha)"><rect width="16" height="16" x="0" y="0" style="fill:#000;fill-opacity:.2;stroke:none"/></g></mask><clipPath id="clip4"><rect width="16" height="16" x="0" y="0"/></clipPath><g id="surface8" clip-path="url(#clip4)"><path style="stroke:none;fill-rule:nonzero;fill:#424242;fill-opacity:1" d="M 8.042969 1.332031 C 8.105469 1.332031 8.171875 1.332031 8.234375 1.335938 C 9.273438 1.386719 10.28125 1.757812 11.070312 2.378906 C 11.894531 3.03125 12.390625 3.878906 12.515625 4.832031 L 12.519531 4.890625 C 12.550781 5.113281 12.582031 5.367188 12.527344 5.523438 C 12.476562 5.667969 12.519531 5.828125 12.636719 5.929688 C 14.226562 7.308594 15.03125 8.203125 15.121094 8.46875 C 15.097656 8.582031 14.964844 8.851562 14.605469 9.125 C 14.28125 9.371094 13.671875 9.695312 12.621094 9.824219 C 12.53125 9.835938 12.449219 9.878906 12.390625 9.945312 C 12.386719 9.949219 12.382812 9.953125 12.382812 9.953125 C 12.328125 10.007812 12.253906 10.054688 12.171875 10.097656 C 12.167969 10.085938 12.164062 10.078125 12.15625 10.066406 C 12.089844 9.949219 11.964844 9.878906 11.832031 9.878906 L 11.824219 9.878906 C 11.761719 9.882812 11.695312 9.882812 11.625 9.882812 C 10.480469 9.882812 9.125 9.679688 7.601562 9.28125 C 7.570312 9.273438 7.539062 9.269531 7.507812 9.269531 C 7.402344 9.269531 7.300781 9.3125 7.226562 9.394531 C 7.203125 9.257812 7.101562 9.144531 6.964844 9.105469 C 5.375 8.644531 4.0625 8.089844 3.054688 7.460938 C 2.996094 7.421875 2.925781 7.402344 2.859375 7.402344 C 2.792969 7.402344 2.730469 7.417969 2.671875 7.453125 C 2.65625 7.460938 2.640625 7.472656 2.628906 7.480469 C 2.585938 7.410156 2.550781 7.332031 2.535156 7.265625 C 2.527344 7.160156 2.476562 7.0625 2.390625 6.996094 C 1.066406 5.96875 0.835938 5.03125 0.90625 4.632812 C 0.910156 4.621094 0.914062 4.609375 0.914062 4.601562 C 1.136719 4.410156 2.371094 4.035156 4.355469 3.667969 C 4.503906 3.640625 4.621094 3.523438 4.652344 3.375 C 4.6875 3.210938 4.84375 3.011719 4.980469 2.835938 L 5.015625 2.792969 C 5.730469 1.863281 6.832031 1.332031 8.042969 1.332031 M 8.042969 0.957031 C 6.71875 0.957031 5.5 1.550781 4.71875 2.5625 C 4.546875 2.785156 4.34375 3.03125 4.289062 3.296875 C 3.445312 3.453125 0.824219 3.972656 0.589844 4.410156 C 0.566406 4.453125 0.546875 4.507812 0.539062 4.574219 C 0.453125 5.046875 0.671875 6.132812 2.15625 7.292969 C 2.160156 7.3125 2.160156 7.335938 2.167969 7.359375 C 2.265625 7.726562 2.671875 8.203125 2.796875 8.203125 C 2.816406 8.203125 2.832031 8.191406 2.832031 8.160156 C 2.84375 8.011719 2.859375 7.925781 2.855469 7.777344 C 3.792969 8.367188 5.085938 8.953125 6.859375 9.464844 C 6.878906 9.660156 6.980469 9.925781 7.132812 9.925781 L 7.136719 9.925781 C 7.230469 9.921875 7.328125 9.8125 7.394531 9.753906 C 7.433594 9.722656 7.472656 9.683594 7.507812 9.644531 C 9.199219 10.089844 10.550781 10.257812 11.625 10.257812 C 11.695312 10.257812 11.765625 10.257812 11.832031 10.257812 C 11.765625 10.363281 11.738281 10.445312 11.675781 10.566406 C 11.652344 10.613281 11.683594 10.636719 11.75 10.636719 C 11.9375 10.636719 12.421875 10.449219 12.65625 10.214844 C 12.660156 10.210938 12.664062 10.203125 12.671875 10.199219 C 14.75 9.945312 15.421875 8.949219 15.496094 8.53125 C 15.5 8.507812 15.5 8.488281 15.5 8.472656 C 15.523438 7.980469 13.546875 6.226562 12.882812 5.648438 C 12.972656 5.390625 12.921875 5.066406 12.886719 4.789062 C 12.605469 2.578125 10.488281 1.070312 8.253906 0.960938 C 8.183594 0.957031 8.109375 0.957031 8.042969 0.957031 Z M 8.042969 0.957031"/></g></defs><g id="surface1"><path style="stroke:none;fill-rule:nonzero;fill:url(#linear0)" d="M 3.867188 6.558594 L 0.796875 12.691406 C 0.796875 12.691406 10.476562 15.855469 10.429688 15.707031 C 10.382812 15.558594 11.707031 9.152344 11.707031 9.152344 Z M 3.867188 6.558594"/><path style="stroke:none;fill-rule:nonzero;fill:url(#linear1)" d="M 15.480469 8.449219 C 15.503906 7.859375 12.644531 5.441406 12.644531 5.441406 L 4.523438 3.230469 C 4.523438 3.230469 0.84375 3.867188 0.566406 4.386719 C 0.289062 4.910156 0.566406 7.738281 7.238281 9.554688 C 13.914062 11.371094 15.453125 9.039062 15.480469 8.449219 Z M 15.480469 8.449219"/><path style="stroke:none;fill-rule:nonzero;fill:#505c70;fill-opacity:1" d="M 12.765625 5.054688 C 12.511719 2.78125 10.425781 1.25 8.203125 1.164062 C 6.8125 1.109375 5.503906 1.742188 4.671875 2.851562 C 4.40625 3.210938 4.050781 3.640625 4.3125 4.097656 C 4.621094 4.644531 5.355469 5.011719 5.898438 5.277344 C 7.328125 5.96875 8.917969 6.402344 10.503906 6.53125 C 11.105469 6.578125 11.90625 6.628906 12.449219 6.3125 C 12.90625 6.050781 12.816406 5.5 12.765625 5.054688 Z M 12.765625 5.054688"/><g clip-path="url(#clip1)" clip-rule="nonzero"><g clip-path="url(#clip2)" clip-rule="nonzero"><path style="stroke:none;fill-rule:nonzero;fill:url(#radial0)" d="M 7.402344 8.734375 C 3.382812 7.640625 0.414062 5.613281 0.609375 4.132812 C 0.589844 4.175781 0.574219 4.21875 0.5625 4.265625 C 0.160156 5.753906 3.1875 7.871094 7.332031 9 C 11.472656 10.128906 15.160156 9.835938 15.566406 8.347656 C 15.578125 8.304688 15.585938 8.257812 15.59375 8.214844 C 15.011719 9.585938 11.421875 9.828125 7.402344 8.734375 Z M 7.402344 8.734375"/></g></g><path style="stroke:none;fill-rule:nonzero;fill:url(#radial1)" d="M 2.421875 4.769531 C 2.339844 4.886719 2.117188 4.871094 1.925781 4.734375 C 1.734375 4.59375 1.648438 4.390625 1.730469 4.273438 C 1.816406 4.15625 2.039062 4.171875 2.230469 4.3125 C 2.421875 4.449219 2.507812 4.65625 2.421875 4.769531 Z M 2.421875 4.769531"/><path style="stroke:none;fill-rule:nonzero;fill:url(#radial2)" d="M 3.664062 5.933594 C 3.578125 6.050781 3.355469 6.035156 3.164062 5.894531 C 2.972656 5.757812 2.886719 5.550781 2.972656 5.4375 C 3.054688 5.320312 3.277344 5.335938 3.46875 5.476562 C 3.660156 5.613281 3.746094 5.820312 3.664062 5.933594 Z M 3.664062 5.933594"/><path style="stroke:none;fill-rule:nonzero;fill:url(#radial3)" d="M 5.457031 6.964844 C 5.394531 7.09375 5.171875 7.117188 4.960938 7.015625 C 4.75 6.910156 4.628906 6.722656 4.691406 6.59375 C 4.753906 6.464844 4.976562 6.445312 5.1875 6.546875 C 5.398438 6.648438 5.519531 6.835938 5.457031 6.964844 Z M 5.457031 6.964844"/><path style="stroke:none;fill-rule:nonzero;fill:url(#radial4)" d="M 7.773438 7.800781 C 7.738281 7.941406 7.523438 8.003906 7.296875 7.941406 C 7.066406 7.878906 6.914062 7.71875 6.953125 7.578125 C 6.988281 7.441406 7.203125 7.378906 7.429688 7.441406 C 7.660156 7.5 7.8125 7.664062 7.773438 7.800781 Z M 7.773438 7.800781"/><path style="stroke:none;fill-rule:nonzero;fill:url(#radial5)" d="M 10.144531 8.34375 C 10.113281 8.484375 9.902344 8.558594 9.671875 8.511719 C 9.441406 8.464844 9.28125 8.3125 9.308594 8.171875 C 9.335938 8.03125 9.546875 7.957031 9.777344 8.003906 C 10.011719 8.050781 10.171875 8.203125 10.144531 8.34375 Z M 10.144531 8.34375"/><path style="stroke:none;fill-rule:nonzero;fill:url(#radial6)" d="M 12.230469 8.5 C 12.214844 8.644531 12.015625 8.738281 11.78125 8.71875 C 11.546875 8.695312 11.367188 8.558594 11.382812 8.417969 C 11.394531 8.273438 11.597656 8.175781 11.832031 8.199219 C 12.066406 8.222656 12.242188 8.359375 12.230469 8.5 Z M 12.230469 8.5"/><path style="stroke:none;fill-rule:nonzero;fill:url(#radial7)" d="M 14.433594 8.109375 C 14.472656 8.246094 14.316406 8.40625 14.089844 8.46875 C 13.859375 8.527344 13.644531 8.464844 13.609375 8.324219 C 13.574219 8.1875 13.730469 8.023438 13.957031 7.964844 C 14.183594 7.90625 14.398438 7.96875 14.433594 8.109375 Z M 14.433594 8.109375"/><path style="stroke:none;fill-rule:nonzero;fill:url(#radial8)" d="M 12.863281 4.765625 C 12.582031 2.554688 10.464844 1.046875 8.230469 0.941406 C 6.828125 0.871094 5.519531 1.476562 4.695312 2.539062 C 4.425781 2.886719 4.078125 3.296875 4.34375 3.746094 C 4.660156 4.277344 5.40625 4.644531 5.953125 4.90625 C 7.398438 5.59375 9.003906 6.03125 10.601562 6.171875 C 11.207031 6.222656 12.015625 6.28125 12.558594 5.980469 C 13.011719 5.730469 12.917969 5.199219 12.863281 4.765625 Z M 12.863281 4.765625"/><use mask="url(#mask0)" xlink:href="#surface5"/><path style="stroke:none;fill-rule:nonzero;fill:#a3b0d6;fill-opacity:1" d="M 2.332031 7.171875 L 2.652344 7.410156 C 2.707031 7.457031 2.816406 7.53125 2.824219 7.605469 C 2.847656 7.859375 2.824219 7.941406 2.808594 8.136719 C 2.792969 8.347656 2.257812 7.765625 2.144531 7.335938 C 2.097656 7.160156 2.195312 7.054688 2.332031 7.171875 Z M 2.332031 7.171875"/><path style="stroke:none;fill-rule:nonzero;fill:#a3b0d6;fill-opacity:1" d="M 12.554688 9.953125 L 12.160156 9.996094 C 12.085938 10.007812 11.953125 10.019531 11.910156 10.078125 C 11.765625 10.285156 11.738281 10.367188 11.652344 10.542969 C 11.558594 10.734375 12.316406 10.503906 12.632812 10.191406 C 12.761719 10.066406 12.734375 9.921875 12.554688 9.953125 Z M 12.554688 9.953125"/><path style="stroke:none;fill-rule:nonzero;fill:#a3b0d6;fill-opacity:1" d="M 7.554688 9.398438 C 7.511719 9.316406 7.390625 9.257812 7.324219 9.230469 C 7.191406 9.171875 7.027344 9.167969 6.894531 9.226562 C 6.867188 9.238281 6.847656 9.261719 6.839844 9.289062 C 6.796875 9.449219 6.910156 9.910156 7.113281 9.902344 C 7.203125 9.898438 7.304688 9.789062 7.371094 9.730469 C 7.445312 9.667969 7.535156 9.585938 7.5625 9.488281 C 7.570312 9.457031 7.566406 9.425781 7.554688 9.398438 Z M 7.554688 9.398438"/><use mask="url(#mask1)" xlink:href="#surface8"/></g></svg>