<svg xmlns="http://www.w3.org/2000/svg" xmlns:xlink="http://www.w3.org/1999/xlink" width="16pt" height="16pt" version="1.1" viewBox="0 0 16 16"><defs><linearGradient id="linear0" x1="64" x2="64" y1="19.717" y2="107.7" gradientTransform="matrix(0.125,0,0,0.125,0,0)" gradientUnits="userSpaceOnUse"><stop offset=".5" style="stop-color:#fee133;stop-opacity:1"/><stop offset=".612" style="stop-color:#fede32;stop-opacity:1"/><stop offset=".708" style="stop-color:#fcd32f;stop-opacity:1"/><stop offset=".797" style="stop-color:#fac12b;stop-opacity:1"/><stop offset=".883" style="stop-color:#f7a924;stop-opacity:1"/><stop offset=".9" style="stop-color:#f6a323;stop-opacity:1"/></linearGradient></defs><g id="surface1"><path style="stroke:none;fill-rule:nonzero;fill:url(#linear0)" d="M 8 14.984375 C 4.507812 14.984375 0.75 12.800781 0.75 8 C 0.75 3.199219 4.507812 1.015625 8 1.015625 C 9.933594 1.015625 11.726562 1.652344 13.046875 2.816406 C 14.488281 4.089844 15.25 5.882812 15.25 8 C 15.25 10.109375 14.488281 11.894531 13.046875 13.171875 C 11.722656 14.34375 9.929688 14.984375 8 14.984375 Z M 8 14.984375"/><path style="stroke:none;fill-rule:nonzero;fill:#eb8f00;fill-opacity:1" d="M 8 1.265625 C 9.875 1.265625 11.609375 1.882812 12.878906 3.003906 C 14.265625 4.230469 15 5.957031 15 8 C 15 10.035156 14.265625 11.757812 12.878906 12.984375 C 11.601562 14.113281 9.871094 14.734375 8 14.734375 C 6.121094 14.734375 4.386719 14.121094 3.121094 13.007812 C 1.734375 11.789062 1 10.058594 1 8 C 1 5.933594 1.734375 4.199219 3.121094 2.980469 C 4.382812 1.875 6.117188 1.265625 8 1.265625 M 8 0.765625 C 4.105469 0.765625 0.5 3.265625 0.5 8 C 0.5 12.710938 4.105469 15.234375 8 15.234375 C 11.894531 15.234375 15.5 12.644531 15.5 8 C 15.5 3.328125 11.894531 0.765625 8 0.765625 Z M 8 0.765625"/><path style="stroke:none;fill-rule:nonzero;fill:#242424;fill-opacity:1" d="M 4.296875 11.46875 C 5.097656 10.078125 6.78125 9.507812 8 9.507812 C 9.21875 9.507812 10.902344 10.078125 11.703125 11.46875 C 11.816406 11.664062 12.136719 11.578125 12.101562 11.355469 C 11.792969 9.480469 9.722656 8.421875 8 8.359375 C 6.175781 8.292969 4.257812 9.589844 3.898438 11.355469 C 3.855469 11.574219 4.183594 11.664062 4.296875 11.46875 Z M 4.296875 11.46875"/><path style="stroke:none;fill-rule:nonzero;fill:#242424;fill-opacity:1" d="M 10.347656 4.671875 C 10.871094 4.671875 11.347656 5.113281 11.347656 5.847656 C 11.347656 6.582031 10.871094 7.023438 10.347656 7.023438 C 9.824219 7.023438 9.347656 6.582031 9.347656 5.847656 C 9.347656 5.113281 9.824219 4.671875 10.347656 4.671875 Z M 10.347656 4.671875"/><path style="stroke:none;fill-rule:nonzero;fill:#242424;fill-opacity:1" d="M 5.652344 4.671875 C 5.128906 4.671875 4.652344 5.113281 4.652344 5.847656 C 4.652344 6.582031 5.128906 7.023438 5.652344 7.023438 C 6.175781 7.023438 6.652344 6.582031 6.652344 5.847656 C 6.652344 5.113281 6.175781 4.671875 5.652344 4.671875 Z M 5.652344 4.671875"/></g></svg>