<svg xmlns="http://www.w3.org/2000/svg" xmlns:xlink="http://www.w3.org/1999/xlink" width="16pt" height="16pt" version="1.1" viewBox="0 0 16 16"><defs><linearGradient id="linear0" x1="50.78" x2="50.78" y1="12.664" y2="42.954" gradientTransform="matrix(0.125,0,0,0.125,0,0)" gradientUnits="userSpaceOnUse"><stop offset=".067" style="stop-color:#e33299;stop-opacity:1"/><stop offset=".154" style="stop-color:#dc3a9d;stop-opacity:1"/><stop offset=".289" style="stop-color:#c951a9;stop-opacity:1"/><stop offset=".457" style="stop-color:#ab75bc;stop-opacity:1"/><stop offset=".651" style="stop-color:#80a8d6;stop-opacity:1"/><stop offset=".864" style="stop-color:#4be8f8;stop-opacity:1"/><stop offset=".907" style="stop-color:#3ff6ff;stop-opacity:1"/></linearGradient><linearGradient id="linear1" x1="68.721" x2="68.721" y1="4.988" y2="124.55" gradientTransform="matrix(0.125,0,0,0.125,0,0)" gradientUnits="userSpaceOnUse"><stop offset=".214" style="stop-color:#fff;stop-opacity:1"/><stop offset=".378" style="stop-color:#f6f6f6;stop-opacity:1"/><stop offset=".649" style="stop-color:#ddd;stop-opacity:1"/><stop offset=".993" style="stop-color:#b4b4b4;stop-opacity:1"/><stop offset="1" style="stop-color:#b3b3b3;stop-opacity:1"/></linearGradient><linearGradient id="linear2" x1="37.439" x2="50.338" y1="15.386" y2="32.772" gradientTransform="matrix(0.125,0,0,0.125,0,0)" gradientUnits="userSpaceOnUse"><stop offset="0" style="stop-color:#fff;stop-opacity:1"/><stop offset=".138" style="stop-color:#fffbfd;stop-opacity:1"/><stop offset=".283" style="stop-color:#fdeef9;stop-opacity:1"/><stop offset=".43" style="stop-color:#fbd9f0;stop-opacity:1"/><stop offset=".579" style="stop-color:#f8bce5;stop-opacity:1"/><stop offset=".73" style="stop-color:#f496d7;stop-opacity:1"/><stop offset=".88" style="stop-color:#ef69c5;stop-opacity:1"/><stop offset="1" style="stop-color:#ea3fb5;stop-opacity:1"/></linearGradient><linearGradient id="linear3" x1="43.472" x2="55.148" y1="22.196" y2="37.934" gradientTransform="matrix(0.125,0,0,0.125,0,0)" gradientUnits="userSpaceOnUse"><stop offset="0" style="stop-color:#fff;stop-opacity:1"/><stop offset=".167" style="stop-color:#fceaf3;stop-opacity:1"/><stop offset=".512" style="stop-color:#f5b4d2;stop-opacity:1"/><stop offset="1" style="stop-color:#ea5e9f;stop-opacity:1"/></linearGradient><linearGradient id="linear4" x1="31.471" x2="43.564" y1="7.621" y2="23.921" gradientTransform="matrix(0.125,0,0,0.125,0,0)" gradientUnits="userSpaceOnUse"><stop offset=".279" style="stop-color:#aff;stop-opacity:1"/><stop offset=".281" style="stop-color:#aafeff;stop-opacity:1"/><stop offset=".541" style="stop-color:#ceb1e4;stop-opacity:1"/><stop offset=".756" style="stop-color:#e978d1;stop-opacity:1"/><stop offset=".915" style="stop-color:#f955c5;stop-opacity:1"/><stop offset="1" style="stop-color:#ff48c0;stop-opacity:1"/></linearGradient><clipPath id="clip1"><path d="M 9 2 L 15.5 2 L 15.5 14 L 9 14 Z M 9 2"/></clipPath><linearGradient id="linear5" x1="74.753" x2="134.73" y1="26.255" y2="102.2" gradientTransform="matrix(0.125,0,0,0.125,0,0)" gradientUnits="userSpaceOnUse"><stop offset="0" style="stop-color:#ff38ac;stop-opacity:1"/><stop offset=".457" style="stop-color:#ff069f;stop-opacity:1"/><stop offset=".513" style="stop-color:#ff009d;stop-opacity:1"/><stop offset=".699" style="stop-color:#c85bc1;stop-opacity:1"/><stop offset="1" style="stop-color:#6af4ff;stop-opacity:1"/></linearGradient><clipPath id="clip2"><path d="M 8 2 L 15.5 2 L 15.5 14 L 8 14 Z M 8 2"/></clipPath></defs><g id="surface1"><path style="stroke:none;fill-rule:nonzero;fill:#fff;fill-opacity:1" d="M 1.679688 8.769531 C 1.09375 9.445312 0.695312 9.949219 0.65625 10.089844 C 0.4375 10.867188 0.488281 11.910156 1.09375 12.441406 C 1.46875 12.769531 2.296875 13.042969 3.101562 12.792969 C 3.5 12.667969 4.273438 11.796875 4.367188 11.8125 C 3.964844 10.425781 3.035156 9.140625 1.679688 8.769531 Z M 1.679688 8.769531"/><path style="stroke:none;fill-rule:nonzero;fill:#404040;fill-opacity:1" d="M 2.292969 9.753906 C 2.460938 9.796875 2.574219 9.972656 2.582031 10.148438 C 2.59375 10.324219 2.511719 10.492188 2.390625 10.621094 C 2.25 10.777344 2.046875 10.761719 1.992188 10.53125 C 1.964844 10.414062 2.082031 10.257812 2.054688 10.128906 C 2.023438 9.980469 1.582031 10.007812 1.855469 9.84375 C 1.984375 9.769531 2.148438 9.714844 2.292969 9.753906 Z M 2.292969 9.753906"/><path style="stroke:none;fill-rule:nonzero;fill:url(#linear0)" d="M 3.570312 5.367188 C 3.464844 5.367188 3.367188 5.34375 3.28125 5.300781 C 3.015625 5.164062 2.84375 4.820312 2.84375 4.429688 C 2.84375 2.828125 4.785156 1.582031 6.457031 1.582031 C 6.945312 1.582031 7.359375 1.691406 7.667969 1.898438 C 7.851562 2.027344 8.023438 2.085938 8.191406 2.085938 C 8.460938 2.085938 8.648438 1.929688 8.800781 1.800781 C 8.902344 1.714844 8.992188 1.636719 9.074219 1.636719 C 9.148438 1.636719 9.328125 1.710938 9.664062 2.210938 C 9.902344 2.570312 9.917969 2.953125 9.710938 3.34375 C 9.273438 4.160156 7.945312 4.824219 6.746094 4.824219 C 6.222656 4.824219 5.492188 4.699219 4.976562 4.109375 C 4.835938 3.949219 4.613281 3.851562 4.386719 3.851562 C 4.140625 3.851562 3.929688 3.957031 3.785156 4.15625 C 3.695312 4.277344 3.675781 4.453125 3.738281 4.605469 C 3.792969 4.738281 3.902344 4.839844 4.03125 4.863281 C 4.070312 4.871094 4.105469 4.875 4.132812 4.875 L 4.148438 4.875 C 4.15625 4.875 4.160156 4.871094 4.167969 4.871094 C 4.171875 4.875 4.183594 4.890625 4.183594 4.917969 C 4.1875 4.960938 4.167969 5.019531 4.128906 5.082031 C 4.015625 5.261719 3.800781 5.367188 3.570312 5.367188 Z M 3.570312 5.367188"/><path style="stroke:none;fill-rule:nonzero;fill:#d42da2;fill-opacity:1" d="M 6.457031 1.769531 C 6.90625 1.769531 7.285156 1.867188 7.558594 2.054688 C 7.773438 2.203125 7.980469 2.273438 8.1875 2.273438 C 8.527344 2.273438 8.753906 2.082031 8.921875 1.945312 C 8.96875 1.902344 9.039062 1.84375 9.074219 1.828125 C 9.109375 1.84375 9.242188 1.921875 9.503906 2.3125 C 9.707031 2.613281 9.71875 2.921875 9.542969 3.253906 C 9.136719 4.015625 7.878906 4.636719 6.742188 4.636719 C 6.261719 4.636719 5.585938 4.523438 5.117188 3.988281 C 4.941406 3.785156 4.667969 3.664062 4.386719 3.664062 C 4.082031 3.664062 3.808594 3.804688 3.632812 4.046875 C 3.503906 4.222656 3.476562 4.460938 3.5625 4.675781 C 3.632812 4.847656 3.769531 4.976562 3.933594 5.027344 C 3.851562 5.125 3.714844 5.183594 3.570312 5.183594 C 3.496094 5.183594 3.425781 5.167969 3.367188 5.136719 C 3.167969 5.03125 3.03125 4.746094 3.03125 4.429688 C 3.027344 2.804688 5.058594 1.769531 6.457031 1.769531 M 6.457031 1.394531 C 4.78125 1.394531 2.652344 2.625 2.652344 4.429688 C 2.652344 4.851562 2.835938 5.28125 3.195312 5.46875 C 3.308594 5.527344 3.4375 5.554688 3.570312 5.554688 C 3.847656 5.554688 4.128906 5.425781 4.285156 5.179688 C 4.339844 5.097656 4.378906 4.996094 4.371094 4.898438 C 4.363281 4.800781 4.300781 4.703125 4.207031 4.683594 C 4.160156 4.671875 4.109375 4.679688 4.0625 4.671875 C 3.902344 4.640625 3.835938 4.402344 3.9375 4.265625 C 4.050781 4.105469 4.21875 4.039062 4.386719 4.039062 C 4.558594 4.039062 4.730469 4.113281 4.835938 4.234375 C 5.316406 4.78125 6.015625 5.011719 6.742188 5.011719 C 8.636719 5.011719 10.738281 3.484375 9.816406 2.105469 C 9.484375 1.605469 9.257812 1.449219 9.074219 1.449219 C 8.761719 1.449219 8.574219 1.902344 8.1875 1.902344 C 8.070312 1.902344 7.933594 1.859375 7.769531 1.746094 C 7.421875 1.507812 6.957031 1.394531 6.457031 1.394531 Z M 6.457031 1.394531"/><path style="stroke:none;fill-rule:nonzero;fill:url(#linear1)" d="M 8.992188 3.507812 C 9.101562 2.667969 8.421875 1.414062 7.96875 0.75 C 7.828125 0.546875 7.523438 0.597656 7.449219 0.832031 C 7.261719 1.402344 6.972656 2.296875 6.957031 3.050781 C 5.972656 4.058594 3.1875 7.019531 1.679688 8.769531 C 3.035156 9.140625 3.964844 10.425781 4.367188 11.8125 C 4.742188 11.886719 5.792969 12.027344 6.828125 11.652344 C 8.066406 11.203125 8.449219 10.351562 8.449219 10.351562 L 9.828125 15.542969 L 15.5 15.542969 L 15.5 10.375 C 15.5 10.375 10.328125 4.164062 8.992188 3.507812 Z M 8.992188 3.507812"/><path style="stroke:none;fill-rule:nonzero;fill:#a8a8a8;fill-opacity:1" d="M 7.753906 1.109375 C 8.265625 1.882812 8.75 2.859375 8.671875 3.453125 C 8.648438 3.613281 8.738281 3.769531 8.886719 3.839844 C 9.816406 4.289062 13.125 8.03125 15.125 10.503906 L 15.125 15.167969 L 10.144531 15.167969 L 8.890625 10.308594 C 8.851562 10.152344 8.714844 10.039062 8.554688 10.027344 C 8.546875 10.023438 8.535156 10.023438 8.527344 10.023438 C 8.375 10.023438 8.238281 10.113281 8.179688 10.253906 C 8.171875 10.28125 7.878906 10.910156 6.808594 11.292969 C 6.386719 11.445312 5.914062 11.519531 5.398438 11.519531 C 4.988281 11.519531 4.65625 11.46875 4.492188 11.4375 C 4.46875 11.433594 4.445312 11.433594 4.421875 11.433594 C 4.234375 11.433594 4.125 11.53125 3.800781 11.824219 C 3.605469 12.003906 3.1875 12.378906 3.019531 12.429688 C 2.84375 12.484375 2.65625 12.511719 2.460938 12.511719 C 1.964844 12.511719 1.53125 12.332031 1.328125 12.152344 C 0.855469 11.746094 0.800781 10.867188 0.988281 10.199219 C 1.011719 10.152344 1.160156 9.910156 1.953125 9.003906 C 3.523438 7.214844 6.257812 4.277344 7.226562 3.304688 C 7.296875 3.238281 7.335938 3.144531 7.335938 3.046875 C 7.351562 2.394531 7.59375 1.59375 7.753906 1.109375 M 7.726562 0.613281 C 7.609375 0.613281 7.5 0.6875 7.457031 0.820312 C 7.265625 1.390625 6.976562 2.285156 6.960938 3.042969 C 5.957031 4.046875 3.210938 7.007812 1.671875 8.757812 C 1.078125 9.4375 0.675781 9.9375 0.632812 10.082031 C 0.410156 10.863281 0.464844 11.90625 1.082031 12.4375 C 1.359375 12.675781 1.882812 12.886719 2.460938 12.886719 C 2.679688 12.886719 2.90625 12.855469 3.132812 12.789062 C 3.535156 12.667969 4.3125 11.808594 4.421875 11.808594 C 4.609375 11.84375 4.964844 11.894531 5.398438 11.894531 C 5.851562 11.894531 6.394531 11.835938 6.933594 11.644531 C 8.195312 11.191406 8.523438 10.398438 8.523438 10.398438 L 9.851562 15.542969 L 15.5 15.542969 L 15.5 10.367188 C 15.5 10.367188 10.410156 4.15625 9.046875 3.5 C 9.160156 2.660156 8.421875 1.410156 7.960938 0.746094 C 7.902344 0.65625 7.8125 0.613281 7.726562 0.613281 Z M 7.726562 0.613281"/><path style="stroke:none;fill-rule:nonzero;fill:#aff;fill-opacity:1" d="M 3.511719 0.722656 C 3.464844 0.648438 3.460938 0.5625 3.503906 0.488281 C 3.546875 0.414062 3.632812 0.363281 3.71875 0.363281 C 3.785156 0.363281 3.84375 0.390625 3.890625 0.4375 L 4.359375 0.925781 L 4.363281 0.960938 C 4.378906 1.164062 4.359375 1.375 4.347656 1.582031 C 4.339844 1.640625 4.335938 1.703125 4.332031 1.761719 L 4.316406 2.058594 Z M 3.511719 0.722656"/><path style="stroke:none;fill-rule:nonzero;fill:#999;fill-opacity:1" d="M 3.71875 0.457031 C 3.753906 0.457031 3.792969 0.472656 3.824219 0.503906 C 3.824219 0.503906 4 0.6875 4.269531 0.96875 C 4.285156 1.222656 4.253906 1.492188 4.238281 1.757812 C 3.867188 1.140625 3.589844 0.675781 3.589844 0.675781 C 3.523438 0.566406 3.617188 0.457031 3.71875 0.457031 M 3.71875 0.269531 C 3.597656 0.269531 3.480469 0.339844 3.421875 0.445312 C 3.363281 0.546875 3.367188 0.671875 3.429688 0.773438 C 3.429688 0.773438 3.707031 1.234375 4.078125 1.851562 L 4.386719 2.363281 L 4.425781 1.765625 C 4.429688 1.707031 4.433594 1.648438 4.4375 1.589844 C 4.453125 1.382812 4.46875 1.167969 4.453125 0.953125 L 4.449219 0.886719 L 4.402344 0.835938 L 3.960938 0.375 C 3.894531 0.308594 3.808594 0.269531 3.71875 0.269531 Z M 3.71875 0.269531"/><path style="stroke:none;fill-rule:nonzero;fill:url(#linear2)" d="M 5.808594 4.445312 C 5.777344 4.445312 5.746094 4.429688 5.730469 4.402344 C 5.515625 4.054688 5.207031 3.542969 4.882812 3.007812 C 4.875 2.992188 4.871094 2.976562 4.871094 2.957031 C 4.871094 2.773438 4.878906 2.582031 4.890625 2.398438 C 4.898438 2.175781 4.910156 1.949219 4.90625 1.730469 C 4.90625 1.691406 4.929688 1.65625 4.964844 1.640625 C 4.976562 1.636719 4.988281 1.636719 5 1.636719 C 5.023438 1.636719 5.046875 1.644531 5.066406 1.664062 L 5.972656 2.605469 C 5.988281 2.621094 6 2.644531 6 2.667969 C 6.011719 3.015625 5.976562 3.375 5.949219 3.722656 C 5.925781 3.941406 5.910156 4.152344 5.898438 4.359375 C 5.898438 4.398438 5.871094 4.433594 5.828125 4.445312 C 5.824219 4.445312 5.816406 4.445312 5.808594 4.445312 Z M 5.808594 4.445312"/><path style="stroke:none;fill-rule:nonzero;fill:#999;fill-opacity:1" d="M 5.003906 1.730469 C 5.296875 2.035156 5.609375 2.359375 5.910156 2.671875 C 5.925781 3.222656 5.832031 3.808594 5.808594 4.355469 C 5.597656 4.007812 5.285156 3.496094 4.964844 2.960938 C 4.964844 2.558594 5.007812 2.136719 5.003906 1.730469 M 5.003906 1.542969 C 4.980469 1.542969 4.953125 1.546875 4.929688 1.554688 C 4.859375 1.585938 4.816406 1.65625 4.816406 1.730469 C 4.816406 1.949219 4.804688 2.171875 4.796875 2.394531 C 4.789062 2.578125 4.777344 2.773438 4.777344 2.957031 C 4.777344 2.992188 4.785156 3.027344 4.804688 3.054688 C 5.175781 3.671875 5.460938 4.140625 5.648438 4.449219 C 5.683594 4.507812 5.742188 4.539062 5.808594 4.539062 C 5.824219 4.539062 5.839844 4.535156 5.855469 4.53125 C 5.933594 4.511719 5.988281 4.441406 5.992188 4.359375 C 6.003906 4.15625 6.019531 3.949219 6.039062 3.730469 C 6.070312 3.378906 6.105469 3.015625 6.09375 2.664062 C 6.09375 2.617188 6.074219 2.574219 6.042969 2.542969 L 5.136719 1.597656 C 5.101562 1.5625 5.050781 1.542969 5.003906 1.542969 Z M 5.003906 1.542969"/><path style="stroke:none;fill-rule:nonzero;fill:url(#linear3)" d="M 6.300781 4.96875 C 6.132812 4.96875 6.046875 4.898438 6.003906 4.839844 C 5.988281 4.820312 5.945312 4.75 5.730469 4.402344 L 5.714844 4.378906 L 5.714844 4.347656 C 5.726562 4.140625 5.746094 3.917969 5.765625 3.703125 C 5.792969 3.359375 5.828125 3.007812 5.816406 2.671875 L 5.808594 2.429688 L 5.976562 2.605469 C 6.757812 3.417969 7.199219 3.875 7.25 3.925781 C 7.304688 3.984375 7.332031 4.050781 7.328125 4.132812 C 7.320312 4.363281 7.0625 4.609375 6.953125 4.703125 C 6.773438 4.859375 6.507812 4.96875 6.300781 4.96875 Z M 6.300781 4.96875"/><path style="stroke:none;fill-rule:nonzero;fill:#999;fill-opacity:1" d="M 5.910156 2.671875 C 6.558594 3.347656 7.125 3.933594 7.183594 3.996094 C 7.332031 4.144531 7.136719 4.425781 6.890625 4.636719 C 6.730469 4.773438 6.484375 4.875 6.300781 4.875 C 6.203125 4.875 6.125 4.851562 6.078125 4.789062 C 6.054688 4.753906 5.953125 4.59375 5.808594 4.355469 C 5.832031 3.808594 5.925781 3.222656 5.910156 2.671875 M 5.707031 2.195312 L 5.722656 2.675781 C 5.734375 3.003906 5.703125 3.355469 5.671875 3.695312 C 5.652344 3.910156 5.632812 4.132812 5.621094 4.34375 L 5.621094 4.402344 L 5.648438 4.449219 C 5.863281 4.796875 5.910156 4.871094 5.925781 4.894531 C 5.984375 4.972656 6.089844 5.0625 6.300781 5.0625 C 6.53125 5.0625 6.816406 4.949219 7.015625 4.777344 C 7.164062 4.648438 7.414062 4.394531 7.421875 4.136719 C 7.425781 4.03125 7.390625 3.9375 7.320312 3.863281 C 7.265625 3.8125 6.839844 3.367188 6.046875 2.542969 Z M 5.707031 2.195312"/><path style="stroke:none;fill-rule:nonzero;fill:url(#linear4)" d="M 4.886719 3.007812 C 4.636719 2.597656 4.382812 2.171875 4.160156 1.800781 L 4.144531 1.777344 L 4.144531 1.75 C 4.148438 1.6875 4.152344 1.628906 4.15625 1.566406 C 4.171875 1.367188 4.1875 1.164062 4.175781 0.972656 L 4.160156 0.71875 L 5.09375 1.691406 L 5.09375 1.726562 C 5.097656 1.953125 5.085938 2.183594 5.074219 2.40625 C 5.066406 2.589844 5.058594 2.777344 5.054688 2.960938 L 5.054688 3.292969 Z M 4.886719 3.007812"/><path style="stroke:none;fill-rule:nonzero;fill:#999;fill-opacity:1" d="M 4.269531 0.964844 C 4.472656 1.175781 4.726562 1.441406 5 1.730469 C 5.007812 2.136719 4.964844 2.558594 4.964844 2.960938 C 4.714844 2.546875 4.460938 2.125 4.238281 1.753906 C 4.253906 1.492188 4.285156 1.222656 4.269531 0.964844 M 4.050781 0.46875 L 4.082031 0.980469 C 4.09375 1.164062 4.078125 1.359375 4.066406 1.5625 C 4.058594 1.621094 4.054688 1.683594 4.050781 1.742188 L 4.046875 1.800781 L 4.078125 1.851562 C 4.300781 2.222656 4.554688 2.644531 4.804688 3.058594 L 5.148438 3.625 L 5.152344 2.960938 C 5.152344 2.78125 5.160156 2.59375 5.171875 2.410156 C 5.179688 2.1875 5.191406 1.953125 5.1875 1.726562 L 5.1875 1.652344 L 5.136719 1.597656 L 4.402344 0.835938 Z M 4.050781 0.46875"/><g clip-path="url(#clip1)" clip-rule="nonzero"><path style="stroke:none;fill-rule:nonzero;fill:url(#linear5)" d="M 15.378906 13.535156 C 14.796875 13.535156 14.152344 13.351562 13.453125 12.996094 C 11.910156 12.207031 11.789062 10.5625 11.683594 9.113281 C 11.609375 8.121094 11.546875 7.265625 10.992188 6.910156 C 9.859375 6.195312 9.15625 4.78125 9.152344 3.882812 C 9.148438 3.609375 9.210938 3.25 9.503906 3.058594 C 9.699219 2.933594 9.898438 2.878906 10.164062 2.878906 C 10.304688 2.878906 10.449219 2.894531 10.621094 2.917969 L 10.667969 2.921875 C 10.816406 2.941406 11 2.964844 11.183594 2.964844 C 11.546875 2.964844 11.804688 2.875 11.976562 2.679688 C 12.082031 2.5625 12.128906 2.425781 12.144531 2.300781 C 12.1875 2.328125 12.230469 2.363281 12.273438 2.410156 C 12.417969 2.5625 12.515625 2.789062 12.507812 2.945312 C 12.492188 3.15625 12.375 3.328125 12.148438 3.460938 C 12.082031 3.503906 12.046875 3.582031 12.0625 3.660156 C 12.078125 3.738281 12.140625 3.796875 12.21875 3.808594 C 12.359375 3.828125 12.5 3.835938 12.636719 3.84375 C 12.894531 3.855469 13.136719 3.871094 13.375 3.960938 C 13.765625 4.109375 14.070312 4.398438 14.210938 4.765625 C 14.371094 5.175781 14.300781 5.695312 14.046875 5.941406 C 13.980469 6.007812 13.972656 6.109375 14.03125 6.1875 C 14.066406 6.234375 14.121094 6.261719 14.179688 6.261719 C 14.210938 6.261719 14.242188 6.253906 14.273438 6.238281 C 14.4375 6.140625 14.628906 6.09375 14.824219 6.09375 C 15.160156 6.09375 15.496094 6.246094 15.734375 6.511719 C 16.144531 6.957031 16.304688 7.71875 16.128906 8.355469 C 16.113281 8.414062 16.121094 8.472656 16.15625 8.519531 C 16.191406 8.566406 16.246094 8.59375 16.304688 8.59375 C 17.011719 8.605469 17.703125 8.960938 18.207031 9.570312 C 18.359375 9.75 18.34375 10.742188 17.871094 11.753906 C 17.558594 12.421875 16.820312 13.535156 15.378906 13.535156 Z M 15.378906 13.535156"/></g><g clip-path="url(#clip2)" clip-rule="nonzero"><path style="stroke:none;fill-rule:nonzero;fill:#d42da2;fill-opacity:1" d="M 12.222656 2.652344 C 12.289062 2.757812 12.324219 2.867188 12.320312 2.933594 C 12.3125 3.027344 12.277344 3.171875 12.050781 3.304688 C 11.914062 3.386719 11.84375 3.546875 11.875 3.703125 C 11.910156 3.859375 12.035156 3.976562 12.195312 3.996094 C 12.34375 4.015625 12.484375 4.023438 12.625 4.03125 C 12.878906 4.046875 13.097656 4.058594 13.308594 4.136719 C 13.644531 4.265625 13.910156 4.519531 14.035156 4.835938 C 14.164062 5.171875 14.109375 5.617188 13.914062 5.808594 C 13.777344 5.9375 13.765625 6.148438 13.875 6.300781 C 13.949219 6.398438 14.0625 6.453125 14.175781 6.453125 C 14.238281 6.453125 14.300781 6.433594 14.359375 6.402344 C 14.5 6.324219 14.660156 6.28125 14.820312 6.28125 C 15.105469 6.28125 15.386719 6.414062 15.59375 6.640625 C 15.957031 7.035156 16.105469 7.738281 15.945312 8.308594 C 15.914062 8.421875 15.933594 8.539062 16.003906 8.632812 C 16.074219 8.726562 16.179688 8.78125 16.296875 8.785156 C 16.945312 8.796875 17.585938 9.125 18.054688 9.6875 C 18.152344 9.875 18.128906 10.96875 17.535156 11.988281 C 17.175781 12.609375 16.507812 13.347656 15.378906 13.347656 C 14.828125 13.347656 14.207031 13.171875 13.539062 12.832031 C 12.089844 12.085938 11.972656 10.5 11.871094 9.097656 C 11.792969 8.054688 11.726562 7.15625 11.089844 6.753906 C 10.011719 6.070312 9.339844 4.734375 9.335938 3.882812 C 9.335938 3.660156 9.382812 3.359375 9.605469 3.21875 C 9.765625 3.113281 9.9375 3.066406 10.160156 3.066406 C 10.292969 3.066406 10.429688 3.082031 10.597656 3.105469 L 10.640625 3.109375 C 10.792969 3.128906 10.984375 3.15625 11.183594 3.15625 C 11.59375 3.15625 11.90625 3.039062 12.113281 2.808594 C 12.15625 2.757812 12.195312 2.707031 12.222656 2.652344 M 11.988281 2.0625 C 11.980469 2.0625 11.96875 2.0625 11.957031 2.066406 C 11.972656 2.246094 11.957031 2.421875 11.832031 2.558594 C 11.679688 2.734375 11.433594 2.78125 11.183594 2.78125 C 10.992188 2.78125 10.796875 2.75 10.644531 2.730469 C 10.480469 2.710938 10.320312 2.691406 10.164062 2.691406 C 9.902344 2.691406 9.652344 2.738281 9.402344 2.898438 C 8.367188 3.566406 9.277344 6.046875 10.890625 7.070312 C 12.089844 7.828125 10.648438 11.769531 13.367188 13.164062 C 14.136719 13.554688 14.800781 13.71875 15.378906 13.71875 C 18.121094 13.71875 18.796875 9.988281 18.351562 9.453125 C 17.8125 8.800781 17.0625 8.421875 16.304688 8.40625 C 16.5 7.707031 16.324219 6.878906 15.871094 6.386719 C 15.585938 6.074219 15.203125 5.90625 14.820312 5.90625 C 14.597656 5.90625 14.378906 5.960938 14.175781 6.074219 C 14.5 5.761719 14.558594 5.152344 14.382812 4.699219 C 14.203125 4.242188 13.832031 3.933594 13.441406 3.785156 C 13.042969 3.632812 12.648438 3.675781 12.242188 3.625 C 12.480469 3.484375 12.671875 3.269531 12.691406 2.957031 C 12.714844 2.59375 12.351562 2.0625 11.988281 2.0625 Z M 11.988281 2.0625"/></g><path style="stroke:none;fill-rule:nonzero;fill:#404040;fill-opacity:1" d="M 5.523438 6.746094 C 5.527344 6.746094 5.53125 6.746094 5.535156 6.746094 C 5.546875 6.75 5.558594 6.753906 5.578125 6.757812 C 5.613281 6.765625 5.667969 6.773438 5.734375 6.777344 C 5.765625 6.78125 5.800781 6.78125 5.839844 6.78125 C 5.875 6.78125 5.914062 6.777344 5.953125 6.773438 C 5.992188 6.765625 6.03125 6.757812 6.074219 6.75 C 6.113281 6.738281 6.15625 6.726562 6.195312 6.707031 L 6.207031 6.703125 L 6.210938 6.703125 C 6.203125 6.703125 6.222656 6.695312 6.199219 6.707031 L 6.203125 6.703125 L 6.214844 6.703125 L 6.25 6.683594 C 6.265625 6.675781 6.265625 6.671875 6.269531 6.671875 C 6.277344 6.667969 6.28125 6.664062 6.285156 6.664062 C 6.3125 6.640625 6.339844 6.621094 6.367188 6.59375 C 6.417969 6.539062 6.464844 6.476562 6.503906 6.421875 C 6.539062 6.363281 6.570312 6.308594 6.589844 6.273438 C 6.609375 6.238281 6.617188 6.21875 6.617188 6.222656 C 6.640625 6.132812 6.734375 6.078125 6.824219 6.101562 C 6.914062 6.125 6.96875 6.214844 6.945312 6.304688 C 6.941406 6.308594 6.941406 6.339844 6.929688 6.394531 C 6.917969 6.445312 6.898438 6.519531 6.863281 6.605469 C 6.828125 6.691406 6.773438 6.789062 6.695312 6.886719 C 6.652344 6.933594 6.609375 6.984375 6.546875 7.027344 L 6.496094 7.0625 C 6.480469 7.074219 6.457031 7.085938 6.449219 7.089844 L 6.414062 7.109375 L 6.402344 7.113281 L 6.398438 7.113281 L 6.378906 7.125 L 6.359375 7.132812 C 6.296875 7.15625 6.234375 7.171875 6.171875 7.1875 C 6.109375 7.203125 6.046875 7.207031 5.988281 7.210938 C 5.867188 7.21875 5.753906 7.203125 5.660156 7.179688 C 5.566406 7.15625 5.492188 7.121094 5.445312 7.09375 C 5.417969 7.082031 5.398438 7.070312 5.386719 7.058594 C 5.367188 7.046875 5.359375 7.042969 5.363281 7.046875 L 5.359375 7.042969 C 5.285156 6.980469 5.277344 6.875 5.335938 6.800781 C 5.382812 6.738281 5.457031 6.722656 5.523438 6.746094 Z M 5.523438 6.746094"/><path style="stroke:none;fill-rule:nonzero;fill:#404040;fill-opacity:1" d="M 5.25 7.382812 C 5.335938 7.441406 5.453125 7.441406 5.550781 7.40625 C 5.648438 7.371094 5.753906 7.183594 5.753906 7.183594 C 5.753906 7.183594 5.78125 7.375 5.863281 7.519531 C 5.941406 7.394531 5.996094 7.21875 5.996094 7.21875 C 5.996094 7.21875 6.101562 7.46875 6.226562 7.515625 C 6.226562 7.402344 6.230469 7.175781 6.230469 7.175781 C 6.230469 7.175781 6.417969 7.410156 6.558594 7.453125 C 6.539062 7.304688 6.527344 7.21875 6.519531 7.09375 C 6.691406 7.234375 6.789062 7.277344 6.945312 7.277344 C 6.886719 7.160156 6.75 6.957031 6.75 6.957031 C 6.75 6.957031 6.96875 7.105469 7.21875 7.058594 C 7.113281 6.929688 6.988281 6.867188 6.886719 6.738281 C 7.027344 6.792969 7.386719 6.742188 7.386719 6.742188 C 7.386719 6.742188 6.90625 6.648438 6.867188 6.460938 C 6.902344 6.492188 6.558594 6.816406 6.523438 6.839844 C 6.382812 6.929688 6.226562 6.992188 6.0625 7.027344 C 5.957031 7.050781 5.671875 6.949219 5.609375 7.007812 C 5.558594 7.050781 5.585938 7.125 5.484375 7.226562 C 5.425781 7.289062 5.335938 7.375 5.25 7.382812 Z M 5.25 7.382812"/></g></svg>