<svg xmlns="http://www.w3.org/2000/svg" xmlns:xlink="http://www.w3.org/1999/xlink" width="16pt" height="16pt" version="1.1" viewBox="0 0 16 16"><defs><filter id="alpha" width="100%" height="100%" x="0%" y="0%" filterUnits="objectBoundingBox"><feColorMatrix in="SourceGraphic" type="matrix" values="0 0 0 0 1 0 0 0 0 1 0 0 0 0 1 0 0 0 1 0"/></filter><mask id="mask0"><g filter="url(#alpha)"><rect width="16" height="16" x="0" y="0" style="fill:#000;fill-opacity:.2;stroke:none"/></g></mask><clipPath id="clip1"><rect width="16" height="16" x="0" y="0"/></clipPath><g id="surface5" clip-path="url(#clip1)"><path style="stroke:none;fill-rule:nonzero;fill:#424242;fill-opacity:1" d="M 15.011719 4.714844 C 15.019531 4.714844 15.023438 4.714844 15.027344 4.71875 C 15.011719 4.738281 14.980469 4.765625 14.964844 4.78125 L 14.941406 4.800781 C 14.890625 4.851562 14.871094 4.902344 14.882812 4.957031 C 14.902344 5.039062 14.980469 5.0625 15.027344 5.078125 C 15.066406 5.089844 15.109375 5.105469 15.15625 5.132812 C 15.253906 5.191406 15.425781 5.296875 15.179688 5.714844 L 9.285156 14.964844 L 9.085938 14.746094 L 14.984375 5.488281 L 15.050781 5.382812 L 14.945312 5.316406 L 14.46875 5.011719 C 14.546875 4.945312 14.671875 4.859375 14.828125 4.777344 C 14.933594 4.722656 14.988281 4.714844 15.011719 4.714844 M 15.011719 4.589844 C 14.957031 4.589844 14.878906 4.609375 14.769531 4.667969 C 14.464844 4.824219 14.253906 5.023438 14.265625 5.035156 C 14.269531 5.035156 14.878906 5.421875 14.878906 5.421875 L 8.929688 14.761719 L 9.304688 15.171875 L 15.285156 5.78125 C 15.554688 5.328125 15.402344 5.132812 15.222656 5.023438 C 15.070312 4.933594 14.953125 4.960938 15.027344 4.890625 C 15.089844 4.832031 15.195312 4.75 15.15625 4.679688 C 15.132812 4.640625 15.097656 4.589844 15.011719 4.589844 Z M 15.011719 4.589844"/></g><mask id="mask1"><g filter="url(#alpha)"><rect width="16" height="16" x="0" y="0" style="fill:#000;fill-opacity:.2;stroke:none"/></g></mask><clipPath id="clip2"><rect width="16" height="16" x="0" y="0"/></clipPath><g id="surface8" clip-path="url(#clip2)"><path style="stroke:none;fill-rule:nonzero;fill:#424242;fill-opacity:1" d="M 7.960938 4.210938 L 7.960938 4.460938 C 8.617188 4.460938 9.332031 4.839844 10.085938 5.585938 C 10.984375 6.476562 11.367188 7.34375 11.183594 8.09375 C 11 8.851562 10.300781 9.324219 9.875 9.457031 C 9.371094 9.617188 9.402344 10.09375 9.414062 10.273438 C 9.414062 10.296875 9.417969 10.324219 9.414062 10.335938 C 9.40625 10.390625 9.390625 10.410156 9.386719 10.410156 C 9.371094 10.417969 9.363281 10.417969 9.363281 10.417969 C 9.328125 10.414062 9.195312 10.335938 9.109375 10.285156 C 8.96875 10.203125 8.804688 10.160156 8.628906 10.160156 C 8.242188 10.160156 7.871094 10.363281 7.609375 10.722656 C 7.214844 11.269531 7.003906 12.03125 7.589844 12.515625 L 7.609375 12.53125 C 7.636719 12.554688 7.675781 12.585938 7.683594 12.597656 C 7.683594 12.597656 7.683594 12.605469 7.683594 12.625 L 7.683594 12.632812 C 7.683594 12.640625 7.664062 12.65625 7.621094 12.671875 C 7.460938 12.738281 7.242188 12.828125 7.148438 13.171875 C 7.140625 13.1875 6.65625 14.785156 5.167969 14.890625 C 5.105469 14.894531 5.046875 14.898438 4.988281 14.898438 C 3.832031 14.898438 3.027344 14.082031 2.496094 13.542969 C 2.445312 13.488281 2.394531 13.4375 2.347656 13.390625 C 2.300781 13.34375 2.25 13.296875 2.199219 13.242188 C 1.652344 12.71875 0.742188 11.839844 0.824219 10.585938 C 0.917969 9.097656 2.511719 8.59375 2.523438 8.589844 C 2.871094 8.488281 2.957031 8.269531 3.019531 8.113281 C 3.039062 8.066406 3.054688 8.046875 3.058594 8.046875 C 3.058594 8.046875 3.0625 8.046875 3.070312 8.046875 C 3.085938 8.046875 3.09375 8.046875 3.09375 8.046875 C 3.105469 8.054688 3.140625 8.09375 3.164062 8.121094 L 3.179688 8.140625 C 3.375 8.375 3.648438 8.5 3.957031 8.5 C 4.273438 8.5 4.613281 8.367188 4.96875 8.105469 C 5.570312 7.664062 5.636719 7.003906 5.394531 6.605469 C 5.34375 6.515625 5.261719 6.382812 5.257812 6.351562 C 5.257812 6.351562 5.261719 6.34375 5.265625 6.328125 C 5.269531 6.324219 5.285156 6.308594 5.34375 6.296875 C 5.339844 6.296875 5.339844 6.296875 5.339844 6.296875 C 5.359375 6.296875 5.378906 6.300781 5.402344 6.300781 C 5.4375 6.304688 5.480469 6.304688 5.523438 6.304688 C 5.972656 6.304688 6.148438 6.046875 6.214844 5.828125 C 6.375 5.300781 6.992188 4.460938 7.960938 4.460938 L 7.960938 4.210938 M 7.960938 4.210938 C 6.855469 4.210938 6.15625 5.160156 5.976562 5.757812 C 5.894531 6.015625 5.695312 6.054688 5.527344 6.054688 C 5.453125 6.054688 5.390625 6.046875 5.34375 6.046875 C 5.328125 6.046875 5.3125 6.050781 5.300781 6.050781 C 5.226562 6.066406 5.085938 6.101562 5.035156 6.238281 C 4.976562 6.382812 5.019531 6.460938 5.183594 6.734375 C 5.359375 7.023438 5.308594 7.546875 4.824219 7.902344 C 4.464844 8.164062 4.179688 8.25 3.957031 8.25 C 3.582031 8.25 3.394531 8.003906 3.367188 7.976562 C 3.277344 7.871094 3.226562 7.800781 3.078125 7.796875 L 3.066406 7.796875 C 2.933594 7.796875 2.84375 7.878906 2.789062 8.019531 C 2.730469 8.167969 2.679688 8.285156 2.457031 8.351562 C 2.164062 8.433594 0.671875 9.042969 0.574219 10.570312 C 0.480469 12.066406 1.640625 13.039062 2.175781 13.570312 C 2.683594 14.074219 3.605469 15.148438 4.988281 15.148438 C 5.054688 15.148438 5.121094 15.144531 5.1875 15.140625 C 6.71875 15.027344 7.308594 13.53125 7.390625 13.238281 C 7.453125 13.015625 7.574219 12.964844 7.71875 12.902344 C 7.859375 12.847656 7.945312 12.753906 7.9375 12.613281 C 7.933594 12.464844 7.863281 12.414062 7.757812 12.320312 C 7.707031 12.28125 7.117188 11.835938 7.816406 10.867188 C 8.054688 10.539062 8.363281 10.40625 8.632812 10.40625 C 8.765625 10.40625 8.886719 10.4375 8.984375 10.496094 C 9.175781 10.609375 9.273438 10.667969 9.367188 10.667969 C 9.402344 10.667969 9.4375 10.65625 9.480469 10.640625 C 9.613281 10.585938 9.652344 10.449219 9.664062 10.375 C 9.6875 10.246094 9.546875 9.824219 9.953125 9.695312 C 10.890625 9.402344 12.695312 7.816406 10.261719 5.40625 C 9.371094 4.527344 8.597656 4.210938 7.960938 4.210938 Z M 7.960938 4.210938"/></g><radialGradient id="radial0" cx="118.11" cy="23.048" r="43.948" fx="118.11" fy="23.048" gradientTransform="matrix(0.123088,0.0146875,0.0146875,0.123088,-0.896813,-2.1955)" gradientUnits="userSpaceOnUse"><stop offset="0" style="stop-color:#616161;stop-opacity:1"/><stop offset="1" style="stop-color:#212121;stop-opacity:1"/></radialGradient><mask id="mask2"><g filter="url(#alpha)"><rect width="16" height="16" x="0" y="0" style="fill:#000;fill-opacity:.2;stroke:none"/></g></mask><clipPath id="clip3"><rect width="16" height="16" x="0" y="0"/></clipPath><g id="surface11" clip-path="url(#clip3)"><path style="stroke:none;fill-rule:nonzero;fill:#424242;fill-opacity:1" d="M 14.210938 1.386719 L 14.351562 1.523438 L 8.046875 8.480469 L 7.25 7.679688 L 14.210938 1.386719 M 14.21875 1.039062 L 6.984375 7.578125 C 6.929688 7.628906 6.941406 7.726562 7.007812 7.792969 L 7.933594 8.71875 C 7.972656 8.757812 8.019531 8.777344 8.0625 8.777344 C 8.09375 8.777344 8.125 8.765625 8.148438 8.742188 L 14.695312 1.515625 Z M 14.21875 1.039062"/></g><clipPath id="clip4"><path d="M 11 1 L 15 1 L 15 5 L 11 5 Z M 11 1"/></clipPath><clipPath id="clip5"><path d="M 13.046875 4.132812 L 14.6875 2.296875 L 13.429688 1.039062 L 11.59375 2.679688 Z M 13.046875 4.132812"/></clipPath><mask id="mask3"><g filter="url(#alpha)"><rect width="16" height="16" x="0" y="0" style="fill:#000;fill-opacity:.2;stroke:none"/></g></mask><clipPath id="clip6"><rect width="16" height="16" x="0" y="0"/></clipPath><g id="surface14" clip-path="url(#clip6)"><path style="stroke:none;fill-rule:nonzero;fill:#424242;fill-opacity:1" d="M 13.859375 0.617188 L 14.3125 1.066406 L 13.484375 1.898438 L 13.03125 1.445312 L 13.859375 0.617188 M 13.859375 0.476562 C 13.839844 0.476562 13.816406 0.484375 13.796875 0.503906 L 12.917969 1.382812 C 12.882812 1.417969 12.882812 1.472656 12.917969 1.507812 L 13.417969 2.011719 C 13.4375 2.027344 13.457031 2.035156 13.484375 2.035156 C 13.503906 2.035156 13.527344 2.027344 13.546875 2.011719 L 14.425781 1.128906 C 14.460938 1.09375 14.460938 1.039062 14.425781 1.003906 L 13.925781 0.503906 C 13.90625 0.484375 13.882812 0.476562 13.859375 0.476562 Z M 13.859375 0.476562"/></g><mask id="mask4"><g filter="url(#alpha)"><rect width="16" height="16" x="0" y="0" style="fill:#000;fill-opacity:.2;stroke:none"/></g></mask><clipPath id="clip7"><rect width="16" height="16" x="0" y="0"/></clipPath><g id="surface17" clip-path="url(#clip7)"><path style="stroke:none;fill-rule:nonzero;fill:#424242;fill-opacity:1" d="M 14.644531 1.398438 L 15.109375 1.863281 L 14.28125 2.695312 L 13.816406 2.230469 L 14.644531 1.398438 M 14.644531 1.261719 C 14.621094 1.261719 14.601562 1.269531 14.582031 1.285156 L 13.703125 2.167969 C 13.667969 2.203125 13.667969 2.257812 13.703125 2.292969 L 14.21875 2.808594 C 14.234375 2.828125 14.257812 2.835938 14.28125 2.835938 C 14.304688 2.835938 14.328125 2.828125 14.34375 2.808594 L 15.226562 1.929688 C 15.261719 1.894531 15.261719 1.839844 15.226562 1.804688 L 14.707031 1.285156 C 14.691406 1.269531 14.667969 1.261719 14.644531 1.261719 Z M 14.644531 1.261719"/></g><mask id="mask5"><g filter="url(#alpha)"><rect width="16" height="16" x="0" y="0" style="fill:#000;fill-opacity:.2;stroke:none"/></g></mask><clipPath id="clip8"><rect width="16" height="16" x="0" y="0"/></clipPath><g id="surface20" clip-path="url(#clip8)"><path style="stroke:none;fill-rule:nonzero;fill:#424242;fill-opacity:1" d="M 14.714844 0.796875 L 14.929688 1.011719 C 14.929688 1.015625 14.929688 1.042969 14.90625 1.082031 L 13.960938 2.535156 C 13.886719 2.652344 13.769531 2.746094 13.652344 2.777344 C 13.625 2.785156 13.597656 2.789062 13.574219 2.789062 C 13.546875 2.789062 13.503906 2.78125 13.476562 2.753906 L 12.972656 2.25 C 12.9375 2.214844 12.929688 2.148438 12.949219 2.074219 C 12.980469 1.957031 13.074219 1.835938 13.191406 1.761719 L 14.640625 0.820312 C 14.667969 0.804688 14.691406 0.796875 14.707031 0.796875 C 14.710938 0.796875 14.710938 0.796875 14.714844 0.796875 M 14.710938 0.671875 C 14.667969 0.671875 14.621094 0.6875 14.578125 0.714844 L 13.125 1.660156 C 12.980469 1.75 12.867188 1.894531 12.828125 2.042969 C 12.796875 2.164062 12.816406 2.273438 12.886719 2.339844 L 13.390625 2.84375 C 13.433594 2.890625 13.5 2.914062 13.578125 2.914062 C 13.613281 2.914062 13.648438 2.910156 13.6875 2.898438 C 13.832031 2.859375 13.980469 2.746094 14.070312 2.605469 L 15.011719 1.152344 C 15.066406 1.066406 15.070312 0.976562 15.023438 0.925781 L 14.800781 0.707031 C 14.777344 0.683594 14.746094 0.671875 14.710938 0.671875 Z M 14.710938 0.671875"/></g><radialGradient id="radial1" cx="47.792" cy="90.847" r="17.254" fx="47.792" fy="90.847" gradientTransform="matrix(0.125,0,0,0.12045,-0.748788,-0.304737)" gradientUnits="userSpaceOnUse"><stop offset="0" style="stop-color:#616161;stop-opacity:1"/><stop offset="1" style="stop-color:#212121;stop-opacity:1"/></radialGradient><mask id="mask6"><g filter="url(#alpha)"><rect width="16" height="16" x="0" y="0" style="fill:#000;fill-opacity:.2;stroke:none"/></g></mask><clipPath id="clip9"><rect width="16" height="16" x="0" y="0"/></clipPath><g id="surface23" clip-path="url(#clip9)"><path style="stroke:none;fill-rule:nonzero;fill:#424242;fill-opacity:1" d="M 4.402344 10.546875 L 4.789062 10.9375 C 4.789062 10.9375 5.144531 11.292969 5.179688 11.324219 C 5.035156 11.425781 4.761719 11.609375 4.464844 11.738281 C 4.027344 11.925781 3.671875 12.164062 3.34375 12.496094 C 3.148438 12.691406 2.960938 12.894531 2.777344 13.09375 L 2.707031 13.171875 C 2.671875 13.207031 2.640625 13.253906 2.609375 13.292969 C 2.542969 13.382812 2.457031 13.492188 2.390625 13.492188 C 2.371094 13.492188 2.34375 13.484375 2.316406 13.464844 C 2.296875 13.453125 2.28125 13.421875 2.273438 13.386719 C 2.25 13.285156 2.253906 13.28125 2.351562 13.195312 C 2.398438 13.148438 2.417969 13.136719 2.4375 13.117188 C 2.460938 13.101562 2.484375 13.082031 2.542969 13.03125 L 2.625 12.957031 C 2.824219 12.769531 3.035156 12.582031 3.230469 12.382812 C 3.5625 12.054688 3.800781 11.699219 3.988281 11.261719 C 4.113281 10.964844 4.296875 10.691406 4.402344 10.546875 M 4.398438 10.421875 C 4.363281 10.421875 4.328125 10.4375 4.304688 10.46875 C 4.199219 10.617188 4.007812 10.902344 3.875 11.210938 C 3.679688 11.660156 3.441406 11.996094 3.140625 12.296875 C 2.921875 12.515625 2.6875 12.726562 2.457031 12.9375 C 2.351562 13.035156 2.375 13.003906 2.265625 13.101562 C 2.15625 13.203125 2.117188 13.246094 2.152344 13.414062 C 2.167969 13.476562 2.199219 13.535156 2.25 13.570312 C 2.300781 13.605469 2.347656 13.617188 2.390625 13.617188 C 2.566406 13.617188 2.683594 13.382812 2.800781 13.257812 C 3.007812 13.03125 3.214844 12.800781 3.433594 12.582031 C 3.730469 12.285156 4.070312 12.046875 4.519531 11.851562 C 4.828125 11.71875 5.113281 11.527344 5.261719 11.421875 C 5.320312 11.378906 5.328125 11.292969 5.273438 11.242188 L 4.484375 10.453125 C 4.460938 10.429688 4.429688 10.421875 4.398438 10.421875 Z M 4.398438 10.421875"/></g><radialGradient id="radial2" cx="61.74" cy="85.522" r="22.543" fx="61.74" fy="85.522" gradientTransform="matrix(0.087525,0.08925,-0.08925,0.087525,5.383375,-1.743125)" gradientUnits="userSpaceOnUse"><stop offset="0" style="stop-color:#616161;stop-opacity:1"/><stop offset="1" style="stop-color:#212121;stop-opacity:1"/></radialGradient><mask id="mask7"><g filter="url(#alpha)"><rect width="16" height="16" x="0" y="0" style="fill:#000;fill-opacity:.2;stroke:none"/></g></mask><clipPath id="clip10"><rect width="16" height="16" x="0" y="0"/></clipPath><g id="surface26" clip-path="url(#clip10)"><path style="stroke:none;fill-rule:nonzero;fill:#424242;fill-opacity:1" d="M 0.980469 9.929688 C 0.988281 9.929688 1 9.929688 1.007812 9.929688 C 1.199219 9.953125 1.675781 10.050781 2.003906 10.453125 C 2.351562 10.886719 2.253906 11.355469 2.089844 11.796875 C 1.890625 12.355469 1.921875 12.867188 2.183594 13.171875 C 2.296875 13.300781 2.390625 13.375 2.464844 13.4375 C 2.5625 13.515625 2.621094 13.5625 2.699219 13.707031 C 2.714844 13.738281 2.726562 13.777344 2.726562 13.816406 C 2.199219 13.363281 1.203125 12.425781 0.90625 11.527344 C 0.664062 10.796875 0.789062 10.328125 0.960938 9.929688 L 0.980469 9.929688 M 0.980469 9.679688 C 0.875 9.679688 0.78125 9.71875 0.738281 9.820312 C 0.578125 10.179688 0.378906 10.734375 0.667969 11.609375 C 1.046875 12.753906 2.441406 13.914062 2.796875 14.199219 C 2.808594 14.210938 2.824219 14.214844 2.835938 14.214844 C 2.894531 14.214844 2.933594 14.097656 2.953125 14.011719 C 2.984375 13.890625 2.996094 13.730469 2.917969 13.589844 C 2.746094 13.273438 2.613281 13.285156 2.375 13.007812 C 2.136719 12.734375 2.191406 12.253906 2.324219 11.882812 C 2.476562 11.46875 2.644531 10.855469 2.195312 10.296875 C 1.835938 9.851562 1.3125 9.714844 1.035156 9.683594 C 1.015625 9.679688 1 9.679688 0.980469 9.679688 Z M 0.980469 9.679688"/></g></defs><g id="surface1"><path style="fill:none;stroke-width:2.1483;stroke-linecap:butt;stroke-linejoin:miter;stroke:#ffa000;stroke-opacity:1;stroke-miterlimit:10" d="M 114.96875 40.59375 L 68 114" transform="matrix(0.125,0,0,0.125,0,0)"/><path style="stroke:none;fill-rule:nonzero;fill:#bf360c;fill-opacity:1" d="M 14.265625 5.03125 C 14.269531 5.03125 14.878906 5.421875 14.878906 5.421875 L 8.929688 14.761719 L 9.304688 15.167969 L 15.285156 5.78125 C 15.554688 5.328125 15.402344 5.132812 15.222656 5.023438 C 15.070312 4.933594 14.953125 4.960938 15.027344 4.890625 C 15.089844 4.832031 15.195312 4.75 15.15625 4.679688 C 15.117188 4.609375 15.046875 4.519531 14.769531 4.664062 C 14.464844 4.824219 14.253906 5.023438 14.265625 5.03125 Z M 14.265625 5.03125"/><use mask="url(#mask0)" xlink:href="#surface5"/><path style="stroke:none;fill-rule:nonzero;fill:#212121;fill-opacity:1" d="M 8.859375 15.421875 L 8.824219 15.402344 C 8.710938 15.332031 8.667969 15.195312 8.730469 15.101562 L 9.074219 14.558594 L 9.515625 14.835938 L 9.171875 15.378906 C 9.109375 15.472656 8.972656 15.492188 8.859375 15.421875 Z M 8.859375 15.421875"/><path style="stroke:none;fill-rule:nonzero;fill:#212121;fill-opacity:1" d="M 9.71875 14.503906 C 9.566406 14.410156 9.234375 14.265625 9.109375 14.46875 L 9.105469 14.480469 C 9.058594 14.550781 9.042969 14.582031 8.976562 14.542969 L 8.707031 14.378906 C 8.660156 14.351562 8.636719 14.300781 8.679688 14.230469 L 8.707031 14.1875 C 8.761719 14.105469 8.703125 13.972656 8.578125 13.894531 L 8.578125 13.886719 L 8.230469 14.441406 C 8.179688 14.515625 8.234375 14.644531 8.347656 14.714844 L 9.25 15.257812 Z M 9.71875 14.503906"/><path style="stroke:none;fill-rule:nonzero;fill:#f4511e;fill-opacity:1" d="M 7.390625 13.238281 C 7.453125 13.015625 7.570312 12.964844 7.714844 12.90625 C 7.859375 12.847656 7.941406 12.753906 7.9375 12.613281 C 7.933594 12.464844 7.859375 12.414062 7.753906 12.324219 C 7.707031 12.28125 7.113281 11.839844 7.816406 10.867188 C 8.167969 10.375 8.691406 10.324219 8.980469 10.496094 C 9.253906 10.65625 9.332031 10.699219 9.480469 10.640625 C 9.613281 10.585938 9.648438 10.449219 9.664062 10.375 C 9.683594 10.246094 9.546875 9.824219 9.953125 9.695312 C 10.886719 9.402344 12.695312 7.816406 10.261719 5.40625 C 7.828125 2.996094 6.261719 4.816406 5.976562 5.757812 C 5.851562 6.164062 5.425781 6.027344 5.300781 6.050781 C 5.226562 6.066406 5.085938 6.101562 5.035156 6.238281 C 4.976562 6.382812 5.019531 6.460938 5.183594 6.734375 C 5.359375 7.023438 5.308594 7.546875 4.824219 7.902344 C 3.859375 8.613281 3.410156 8.023438 3.367188 7.976562 C 3.277344 7.871094 3.226562 7.800781 3.078125 7.796875 C 2.9375 7.792969 2.84375 7.878906 2.789062 8.019531 C 2.730469 8.167969 2.679688 8.285156 2.457031 8.351562 C 2.164062 8.433594 0.671875 9.042969 0.574219 10.570312 C 0.480469 12.066406 1.640625 13.039062 2.175781 13.570312 C 2.707031 14.097656 3.691406 15.25 5.1875 15.140625 C 6.714844 15.03125 7.308594 13.53125 7.390625 13.238281 Z M 7.390625 13.238281"/><use mask="url(#mask1)" xlink:href="#surface8"/><path style="stroke:none;fill-rule:nonzero;fill:#212121;fill-opacity:1" d="M 6.3125 10.402344 C 6.3125 10.402344 6.0625 10.234375 5.765625 9.933594 C 5.46875 9.632812 5.328125 9.414062 5.328125 9.414062 C 5.28125 9.351562 5.308594 9.285156 5.359375 9.242188 C 5.398438 9.203125 5.46875 9.183594 5.519531 9.222656 C 5.519531 9.222656 5.816406 9.40625 6.058594 9.652344 C 6.296875 9.898438 6.507812 10.207031 6.507812 10.207031 C 6.542969 10.269531 6.523438 10.328125 6.476562 10.378906 C 6.4375 10.417969 6.359375 10.441406 6.3125 10.402344 Z M 6.3125 10.402344"/><path style="stroke:none;fill-rule:nonzero;fill:#212121;fill-opacity:1" d="M 7.921875 9.492188 C 8.050781 9.636719 8 9.859375 7.914062 9.996094 C 7.832031 10.136719 7.71875 10.230469 7.613281 10.324219 C 7.507812 10.417969 7.394531 10.496094 7.292969 10.582031 C 7.078125 10.75 6.878906 10.921875 6.753906 11.136719 C 6.722656 11.195312 6.695312 11.246094 6.683594 11.300781 C 6.671875 11.359375 6.671875 11.421875 6.683594 11.480469 C 6.691406 11.539062 6.691406 11.605469 6.722656 11.660156 C 6.652344 11.644531 6.601562 11.585938 6.566406 11.523438 C 6.484375 11.371094 6.507812 11.179688 6.566406 11.042969 C 6.679688 10.753906 6.90625 10.546875 7.121094 10.371094 C 7.234375 10.285156 7.347656 10.203125 7.457031 10.125 C 7.566406 10.046875 7.675781 9.96875 7.75 9.878906 C 7.820312 9.789062 7.859375 9.664062 7.851562 9.546875 C 7.851562 9.503906 7.839844 9.464844 7.832031 9.425781 C 7.863281 9.433594 7.898438 9.464844 7.921875 9.492188 Z M 7.921875 9.492188"/><path style="stroke:none;fill-rule:nonzero;fill:#212121;fill-opacity:1" d="M 7.9375 9.578125 C 7.9375 9.671875 7.859375 9.753906 7.761719 9.753906 C 7.664062 9.753906 7.585938 9.671875 7.585938 9.578125 C 7.585938 9.480469 7.664062 9.398438 7.761719 9.398438 C 7.859375 9.398438 7.9375 9.480469 7.9375 9.578125 Z M 7.9375 9.578125"/><path style="stroke:none;fill-rule:nonzero;fill:#212121;fill-opacity:1" d="M 6.949219 11.484375 C 6.949219 11.578125 6.867188 11.660156 6.769531 11.660156 C 6.675781 11.660156 6.59375 11.578125 6.59375 11.484375 C 6.59375 11.386719 6.675781 11.304688 6.769531 11.304688 C 6.867188 11.304688 6.949219 11.386719 6.949219 11.484375 Z M 6.949219 11.484375"/><path style="stroke:none;fill-rule:nonzero;fill:#212121;fill-opacity:1" d="M 4.160156 9.101562 C 4.296875 9.238281 4.527344 9.199219 4.664062 9.121094 C 4.808594 9.046875 4.910156 8.941406 5.007812 8.839844 C 5.109375 8.738281 5.191406 8.632812 5.285156 8.53125 C 5.460938 8.332031 5.644531 8.140625 5.867188 8.023438 C 5.925781 7.996094 5.980469 7.972656 6.035156 7.964844 C 6.09375 7.953125 6.152344 7.960938 6.210938 7.972656 C 6.273438 7.984375 6.335938 7.988281 6.390625 8.019531 C 6.378906 7.953125 6.320312 7.894531 6.261719 7.859375 C 6.113281 7.769531 5.921875 7.78125 5.785156 7.832031 C 5.488281 7.929688 5.269531 8.144531 5.082031 8.351562 C 4.992188 8.457031 4.902344 8.566406 4.820312 8.671875 C 4.734375 8.773438 4.648438 8.878906 4.558594 8.949219 C 4.464844 9.015625 4.335938 9.046875 4.21875 9.035156 C 4.179688 9.03125 4.140625 9.015625 4.101562 9.007812 C 4.105469 9.042969 4.136719 9.078125 4.160156 9.101562 Z M 4.160156 9.101562"/><path style="stroke:none;fill-rule:nonzero;fill:#212121;fill-opacity:1" d="M 4.429688 8.945312 C 4.429688 9.042969 4.351562 9.121094 4.253906 9.121094 C 4.15625 9.121094 4.078125 9.042969 4.078125 8.945312 C 4.078125 8.847656 4.15625 8.769531 4.253906 8.769531 C 4.351562 8.769531 4.429688 8.847656 4.429688 8.945312 Z M 4.429688 8.945312"/><path style="stroke:none;fill-rule:nonzero;fill:#212121;fill-opacity:1" d="M 6.386719 8.0625 C 6.386719 8.160156 6.308594 8.238281 6.210938 8.238281 C 6.113281 8.238281 6.035156 8.160156 6.035156 8.0625 C 6.035156 7.964844 6.113281 7.886719 6.210938 7.886719 C 6.308594 7.886719 6.386719 7.964844 6.386719 8.0625 Z M 6.386719 8.0625"/><path style="stroke:none;fill-rule:nonzero;fill:url(#radial0)" d="M 14.695312 1.515625 L 14.21875 1.039062 L 6.984375 7.578125 C 6.929688 7.628906 6.941406 7.726562 7.007812 7.792969 L 7.933594 8.71875 C 8 8.785156 8.097656 8.796875 8.148438 8.742188 Z M 14.695312 1.515625"/><use mask="url(#mask2)" xlink:href="#surface11"/><path style="stroke:none;fill-rule:nonzero;fill:#212121;fill-opacity:1" d="M 11.9375 1.226562 C 11.753906 1.410156 11.816406 1.601562 11.925781 1.753906 C 11.992188 1.847656 12.132812 1.859375 12.214844 1.777344 L 12.484375 1.503906 C 12.570312 1.421875 12.558594 1.28125 12.460938 1.214844 C 12.3125 1.109375 12.121094 1.042969 11.9375 1.226562 Z M 11.9375 1.226562"/><path style="stroke:none;fill-rule:nonzero;fill:#212121;fill-opacity:1" d="M 12.289062 1.425781 L 12.855469 1.988281 L 12.699219 2.144531 L 12.136719 1.578125 Z M 12.289062 1.425781"/><path style="stroke:none;fill-rule:nonzero;fill:#212121;fill-opacity:1" d="M 11.210938 1.953125 C 11.027344 2.136719 11.089844 2.328125 11.199219 2.480469 C 11.265625 2.578125 11.40625 2.585938 11.488281 2.503906 L 11.761719 2.230469 C 11.84375 2.148438 11.832031 2.011719 11.734375 1.941406 C 11.585938 1.832031 11.390625 1.769531 11.210938 1.953125 Z M 11.210938 1.953125"/><path style="stroke:none;fill-rule:nonzero;fill:#212121;fill-opacity:1" d="M 11.5625 2.152344 L 12.125 2.714844 L 11.972656 2.871094 L 11.410156 2.304688 Z M 11.5625 2.152344"/><path style="stroke:none;fill-rule:nonzero;fill:#212121;fill-opacity:1" d="M 14.214844 4.078125 C 14.394531 3.894531 14.332031 3.703125 14.226562 3.550781 C 14.15625 3.453125 14.019531 3.445312 13.9375 3.527344 L 13.664062 3.796875 C 13.582031 3.882812 13.589844 4.019531 13.6875 4.085938 C 13.839844 4.195312 14.03125 4.261719 14.214844 4.078125 Z M 14.214844 4.078125"/><path style="stroke:none;fill-rule:nonzero;fill:#212121;fill-opacity:1" d="M 13.859375 3.878906 L 13.296875 3.316406 L 13.449219 3.160156 L 14.015625 3.726562 Z M 13.859375 3.878906"/><path style="stroke:none;fill-rule:nonzero;fill:#212121;fill-opacity:1" d="M 14.941406 3.351562 C 15.125 3.167969 15.058594 2.976562 14.953125 2.824219 C 14.886719 2.726562 14.746094 2.71875 14.664062 2.800781 L 14.390625 3.074219 C 14.308594 3.15625 14.320312 3.292969 14.414062 3.359375 C 14.566406 3.46875 14.757812 3.53125 14.941406 3.351562 Z M 14.941406 3.351562"/><path style="stroke:none;fill-rule:nonzero;fill:#212121;fill-opacity:1" d="M 14.585938 3.148438 L 14.023438 2.585938 L 14.175781 2.433594 L 14.742188 2.996094 Z M 14.585938 3.148438"/><g clip-path="url(#clip4)" clip-rule="nonzero"><g clip-path="url(#clip5)" clip-rule="nonzero"><path style="stroke:none;fill-rule:nonzero;fill:#bf360c;fill-opacity:1" d="M 13.347656 1.808594 L 13.921875 2.382812 L 12.59375 3.824219 L 11.90625 3.136719 L 13.347656 1.808594 M 13.351562 1.460938 L 11.542969 3.128906 L 12.597656 4.183594 L 14.265625 2.375 Z M 13.351562 1.460938"/></g></g><path style="stroke:none;fill-rule:nonzero;fill:#bf360c;fill-opacity:1" d="M 13.421875 2.011719 L 12.917969 1.511719 C 12.882812 1.476562 12.882812 1.417969 12.917969 1.382812 L 13.796875 0.503906 C 13.832031 0.46875 13.890625 0.46875 13.925781 0.503906 L 14.425781 1.003906 C 14.460938 1.039062 14.460938 1.097656 14.425781 1.132812 L 13.546875 2.011719 C 13.511719 2.046875 13.453125 2.046875 13.421875 2.011719 Z M 13.421875 2.011719"/><use mask="url(#mask3)" xlink:href="#surface14"/><path style="stroke:none;fill-rule:nonzero;fill:#bf360c;fill-opacity:1" d="M 13.796875 2.386719 L 14.210938 2.804688 C 14.25 2.839844 14.308594 2.839844 14.347656 2.804688 L 15.21875 1.933594 C 15.257812 1.894531 15.257812 1.835938 15.21875 1.796875 L 14.800781 1.378906 C 14.765625 1.34375 14.703125 1.34375 14.667969 1.378906 L 13.796875 2.25 C 13.757812 2.289062 13.757812 2.347656 13.796875 2.386719 Z M 13.796875 2.386719"/><use mask="url(#mask4)" xlink:href="#surface17"/><path style="stroke:none;fill-rule:nonzero;fill:#f4511e;fill-opacity:1" d="M 14.066406 2.605469 L 15.011719 1.152344 C 15.066406 1.066406 15.070312 0.976562 15.019531 0.925781 L 14.800781 0.707031 C 14.75 0.65625 14.660156 0.660156 14.574219 0.714844 L 13.121094 1.660156 C 12.980469 1.75 12.867188 1.894531 12.828125 2.042969 C 12.796875 2.164062 12.816406 2.273438 12.886719 2.339844 L 13.386719 2.84375 C 13.453125 2.910156 13.5625 2.929688 13.683594 2.898438 C 13.832031 2.859375 13.976562 2.746094 14.066406 2.605469 Z M 14.066406 2.605469"/><use mask="url(#mask5)" xlink:href="#surface20"/><path style="stroke:none;fill-rule:nonzero;fill:url(#radial1)" d="M 5.261719 11.421875 C 5.320312 11.378906 5.324219 11.296875 5.273438 11.242188 L 4.484375 10.453125 C 4.433594 10.402344 4.347656 10.410156 4.304688 10.46875 C 4.199219 10.617188 4.007812 10.902344 3.875 11.210938 C 3.679688 11.660156 3.441406 11.996094 3.140625 12.296875 C 2.933594 12.503906 2.71875 12.703125 2.507812 12.902344 C 2.394531 13.007812 2.289062 13.109375 2.179688 13.21875 C 2.148438 13.246094 2.089844 13.289062 2.09375 13.328125 C 2.101562 13.40625 2.328125 13.578125 2.382812 13.632812 C 2.464844 13.710938 3.324219 12.695312 3.433594 12.585938 C 3.730469 12.289062 4.070312 12.046875 4.519531 11.855469 C 4.824219 11.722656 5.109375 11.527344 5.261719 11.421875 Z M 5.261719 11.421875"/><use mask="url(#mask6)" xlink:href="#surface23"/><path style="stroke:none;fill-rule:nonzero;fill:url(#radial2)" d="M 0.734375 9.820312 C 0.789062 9.703125 0.90625 9.667969 1.035156 9.683594 C 1.3125 9.714844 1.835938 9.847656 2.199219 10.296875 C 2.648438 10.855469 2.476562 11.46875 2.328125 11.882812 C 2.191406 12.253906 2.136719 12.734375 2.375 13.007812 C 2.613281 13.28125 2.75 13.269531 2.921875 13.585938 C 2.996094 13.730469 2.984375 13.890625 2.953125 14.011719 C 2.929688 14.113281 2.878906 14.265625 2.796875 14.199219 C 2.441406 13.914062 1.050781 12.753906 0.671875 11.609375 C 0.378906 10.734375 0.578125 10.179688 0.734375 9.820312 Z M 0.734375 9.820312"/><use mask="url(#mask7)" xlink:href="#surface26"/></g></svg>