<svg xmlns="http://www.w3.org/2000/svg" xmlns:xlink="http://www.w3.org/1999/xlink" width="16pt" height="16pt" version="1.1" viewBox="0 0 16 16"><defs><linearGradient id="linear0" x1="64" x2="64" y1="18.378" y2="106.36" gradientTransform="matrix(0.125,0,0,0.125,0,0)" gradientUnits="userSpaceOnUse"><stop offset=".5" style="stop-color:#fee133;stop-opacity:1"/><stop offset=".612" style="stop-color:#fede32;stop-opacity:1"/><stop offset=".708" style="stop-color:#fcd32f;stop-opacity:1"/><stop offset=".797" style="stop-color:#fac12b;stop-opacity:1"/><stop offset=".883" style="stop-color:#f7a924;stop-opacity:1"/><stop offset=".9" style="stop-color:#f6a323;stop-opacity:1"/></linearGradient><radialGradient id="radial0" cx="98.399" cy="94.791" r="48.455" fx="98.399" fy="94.791" gradientTransform="matrix(-0.0653875,-0.106525,-0.106525,0.0653875,23.4575,15.30375)" gradientUnits="userSpaceOnUse"><stop offset=".668" style="stop-color:#fee133;stop-opacity:1"/><stop offset=".872" style="stop-color:#f9b928;stop-opacity:1"/></radialGradient></defs><g id="surface1"><path style="stroke:none;fill-rule:nonzero;fill:url(#linear0)" d="M 8 14.820312 C 4.507812 14.820312 0.75 12.632812 0.75 7.832031 C 0.75 3.03125 4.507812 0.847656 8 0.847656 C 9.933594 0.847656 11.726562 1.488281 13.046875 2.648438 C 14.488281 3.921875 15.25 5.714844 15.25 7.832031 C 15.25 9.941406 14.488281 11.730469 13.046875 13.007812 C 11.722656 14.175781 9.929688 14.820312 8 14.820312 Z M 8 14.820312"/><path style="stroke:none;fill-rule:nonzero;fill:#eb8f00;fill-opacity:1" d="M 8 1.097656 C 9.875 1.097656 11.609375 1.714844 12.878906 2.835938 C 14.265625 4.0625 15 5.789062 15 7.832031 C 15 9.867188 14.265625 11.589844 12.878906 12.820312 C 11.601562 13.949219 9.871094 14.570312 8 14.570312 C 6.121094 14.570312 4.386719 13.953125 3.121094 12.839844 C 1.734375 11.621094 1 9.890625 1 7.832031 C 1 5.765625 1.734375 4.03125 3.121094 2.8125 C 4.382812 1.707031 6.117188 1.097656 8 1.097656 M 8 0.597656 C 4.105469 0.597656 0.5 3.097656 0.5 7.832031 C 0.5 12.542969 4.105469 15.070312 8 15.070312 C 11.894531 15.070312 15.5 12.476562 15.5 7.832031 C 15.5 3.160156 11.894531 0.597656 8 0.597656 Z M 8 0.597656"/><path style="fill-rule:nonzero;fill:#eb8f00;fill-opacity:1;stroke-width:1;stroke-linecap:butt;stroke-linejoin:miter;stroke:#eb8f00;stroke-opacity:1;stroke-miterlimit:10" d="M 50.09375 23.96875 L 50.25 23.96875 C 52.4375 24.0625 53.1875 20.9375 50.8125 20.375 C 48.96875 19.96875 46.96875 19.8125 44.96875 20 C 39.40625 20.46875 34.4375 23.15625 31.25 26.84375 C 29.65625 28.6875 32.125 30.78125 33.84375 29.40625 C 38.21875 25.96875 44.0625 23.875 50.09375 23.96875 Z M 50.09375 23.96875" transform="matrix(0.125,0,0,0.125,0,0)"/><path style="fill-rule:nonzero;fill:#eb8f00;fill-opacity:1;stroke-width:1;stroke-linecap:butt;stroke-linejoin:miter;stroke:#eb8f00;stroke-opacity:1;stroke-miterlimit:10" d="M 77.90625 23.96875 L 77.75 23.96875 C 75.5625 24.0625 74.8125 20.9375 77.1875 20.375 C 79.03125 19.96875 81.03125 19.8125 83.03125 20 C 88.59375 20.46875 93.5625 23.15625 96.75 26.84375 C 98.34375 28.6875 95.875 30.78125 94.15625 29.40625 C 89.78125 25.96875 83.9375 23.875 77.90625 23.96875 Z M 77.90625 23.96875" transform="matrix(0.125,0,0,0.125,0,0)"/><path style="fill:none;stroke-width:6;stroke-linecap:round;stroke-linejoin:miter;stroke:#242424;stroke-opacity:1;stroke-miterlimit:10" d="M 32.1875 47.0625 C 32.1875 47.0625 40.46875 49.90625 51.78125 46.71875" transform="matrix(0.125,0,0,0.125,0,0)"/><path style="fill:none;stroke-width:6;stroke-linecap:round;stroke-linejoin:miter;stroke:#242424;stroke-opacity:1;stroke-miterlimit:10" d="M 95.8125 47.0625 C 95.8125 47.0625 87.53125 49.90625 76.21875 46.71875" transform="matrix(0.125,0,0,0.125,0,0)"/><path style="stroke:none;fill-rule:nonzero;fill:#242424;fill-opacity:1" d="M 10.8125 10.269531 C 10.8125 11.824219 9.554688 13.082031 8 13.082031 C 6.445312 13.082031 5.1875 11.824219 5.1875 10.269531 C 5.1875 8.714844 6.445312 7.457031 8 7.457031 C 9.554688 7.457031 10.8125 8.714844 10.8125 10.269531 Z M 10.8125 10.269531"/><path style="stroke:none;fill-rule:nonzero;fill:url(#radial0)" d="M 3.625 8.597656 C 4.679688 8.78125 3.75 9.953125 3.671875 10.421875 C 3.65625 10.527344 3.679688 10.65625 3.765625 10.59375 C 3.796875 10.566406 6.3125 9.054688 6.3125 9.054688 C 6.585938 8.886719 6.910156 8.914062 7.078125 9.1875 C 7.246094 9.460938 7.125 9.761719 6.851562 9.929688 L 4.960938 11.125 L 7.535156 9.589844 C 7.808594 9.421875 8.132812 9.449219 8.300781 9.722656 C 8.46875 9.996094 8.347656 10.296875 8.074219 10.464844 L 5.523438 12.078125 L 7.625 10.820312 C 7.898438 10.652344 8.222656 10.683594 8.390625 10.953125 C 8.558594 11.226562 8.4375 11.53125 8.164062 11.699219 L 6.082031 13.019531 L 7.367188 12.265625 C 7.640625 12.097656 7.964844 12.128906 8.132812 12.398438 C 8.300781 12.671875 8.144531 12.917969 7.871094 13.085938 C 7.871094 13.085938 5.09375 14.804688 4.796875 14.957031 C 4.046875 15.332031 2.398438 15.238281 1.671875 14.082031 C 0.769531 12.652344 1.855469 11.410156 2.15625 10.917969 C 2.390625 10.53125 2.695312 10.140625 2.894531 9.71875 C 3.070312 9.351562 3.316406 8.542969 3.625 8.597656 Z M 3.625 8.597656"/><path style="stroke:none;fill-rule:nonzero;fill:#eb8f00;fill-opacity:1" d="M 3.828125 15.402344 C 2.972656 15.402344 1.988281 15.058594 1.457031 14.214844 C 0.574219 12.816406 1.414062 11.574219 1.816406 10.980469 C 1.863281 10.90625 1.910156 10.839844 1.941406 10.789062 C 2.023438 10.652344 2.117188 10.515625 2.203125 10.382812 C 2.371094 10.132812 2.542969 9.875 2.667969 9.613281 C 2.703125 9.539062 2.742188 9.445312 2.78125 9.347656 C 2.992188 8.84375 3.226562 8.269531 3.671875 8.347656 C 3.976562 8.402344 4.1875 8.535156 4.296875 8.742188 C 4.503906 9.136719 4.269531 9.644531 4.082031 10.050781 C 4.070312 10.078125 4.058594 10.101562 4.046875 10.125 C 4.398438 9.914062 5.03125 9.53125 6.183594 8.839844 C 6.371094 8.726562 6.578125 8.675781 6.773438 8.707031 C 6.988281 8.738281 7.171875 8.863281 7.292969 9.054688 C 7.355469 9.15625 7.390625 9.265625 7.402344 9.378906 L 7.410156 9.375 C 7.816406 9.125 8.28125 9.214844 8.515625 9.589844 C 8.632812 9.785156 8.660156 10.003906 8.589844 10.210938 C 8.546875 10.34375 8.460938 10.46875 8.351562 10.570312 C 8.449219 10.628906 8.535156 10.714844 8.601562 10.824219 C 8.832031 11.199219 8.703125 11.65625 8.292969 11.910156 L 8.109375 12.027344 C 8.203125 12.085938 8.28125 12.167969 8.34375 12.269531 C 8.464844 12.464844 8.484375 12.683594 8.394531 12.882812 C 8.328125 13.042969 8.191406 13.183594 8.003906 13.300781 C 7.890625 13.371094 5.210938 15.023438 4.90625 15.179688 C 4.621094 15.324219 4.238281 15.402344 3.828125 15.402344 Z M 3.726562 8.882812 C 3.652344 8.851562 3.566406 8.882812 3.523438 8.949219 C 3.421875 9.109375 3.304688 9.394531 3.246094 9.539062 C 3.203125 9.644531 3.160156 9.746094 3.121094 9.828125 C 2.980469 10.125 2.796875 10.394531 2.621094 10.660156 C 2.53125 10.796875 2.449219 10.921875 2.371094 11.050781 C 2.332031 11.109375 2.285156 11.179688 2.230469 11.261719 C 1.835938 11.847656 1.171875 12.828125 1.882812 13.949219 C 2.558594 15.023438 4.085938 15.03125 4.683594 14.734375 C 4.921875 14.617188 6.972656 13.355469 7.742188 12.878906 C 7.839844 12.816406 7.910156 12.746094 7.941406 12.683594 C 7.957031 12.648438 7.964844 12.605469 7.921875 12.535156 C 7.878906 12.464844 7.824219 12.429688 7.753906 12.417969 C 7.675781 12.40625 7.585938 12.429688 7.5 12.480469 L 6.210938 13.234375 C 6.082031 13.3125 5.914062 13.257812 5.855469 13.113281 C 5.808594 13 5.859375 12.867188 5.964844 12.800781 L 8.03125 11.488281 C 8.164062 11.40625 8.28125 11.253906 8.175781 11.085938 C 8.078125 10.921875 7.886719 10.953125 7.757812 11.035156 L 5.652344 12.292969 C 5.527344 12.367188 5.363281 12.320312 5.296875 12.183594 C 5.242188 12.066406 5.292969 11.925781 5.402344 11.859375 L 7.941406 10.253906 C 8.03125 10.199219 8.09375 10.128906 8.117188 10.054688 C 8.140625 9.988281 8.132812 9.921875 8.089844 9.855469 C 7.988281 9.6875 7.800781 9.722656 7.671875 9.800781 L 5.089844 11.34375 C 4.957031 11.421875 4.789062 11.367188 4.730469 11.222656 C 4.683594 11.109375 4.734375 10.976562 4.839844 10.910156 L 6.71875 9.71875 C 6.808594 9.664062 6.867188 9.59375 6.894531 9.519531 C 6.917969 9.453125 6.90625 9.386719 6.867188 9.320312 C 6.824219 9.253906 6.769531 9.214844 6.699219 9.203125 C 6.621094 9.191406 6.53125 9.214844 6.445312 9.265625 C 5.476562 9.851562 4.011719 10.734375 3.910156 10.796875 C 3.804688 10.871094 3.679688 10.878906 3.578125 10.816406 C 3.390625 10.703125 3.417969 10.453125 3.429688 10.382812 C 3.453125 10.226562 3.535156 10.050781 3.628906 9.84375 C 3.753906 9.570312 3.945312 9.148438 3.855469 8.976562 C 3.828125 8.933594 3.78125 8.902344 3.726562 8.882812 Z M 3.625 10.386719 C 3.621094 10.386719 3.621094 10.390625 3.617188 10.390625 C 3.617188 10.390625 3.621094 10.390625 3.625 10.386719 Z M 3.625 10.386719"/></g></svg>